<svg xmlns="http://www.w3.org/2000/svg" viewBox="0 0 16 7">
		<g fill="green" transform="scale(.47)">
			<rect width="1" height="9" x="0" y="0" />
			<rect width="1" height="9" x="3" y="0" />
			<rect width="1" height="9" x="6" y="0" />
			<rect width="1" height="9" x="9" y="0" />
			<rect width="1" height="9" x="12" y="0" />
			<rect width="1" height="9" x="15" y="0" />
		</g>
		<g fill="white" transform="scale(.24)">
			<rect width="1" height="9" x="2" y="0" />
			<rect width="1" height="9" x="5" y="0" />
			<rect width="1" height="9" x="8" y="0" />
			<rect width="1" height="9" x="11" y="0" />
			<rect width="1" height="9" x="14" y="0" />
		</g>
		<g fill="black" transform="scale(.47)">
			<rect width="1" height="9" x="0" y="0" />
			<rect width="1" height="9" x="3" y="0" />
			<rect width="1" height="9" x="6" y="0" />
			<rect width="1" height="9" x="9" y="0" />
			<rect width="1" height="9" x="12" y="0" />
			<rect width="1" height="9" x="15" y="0" />
		</g></svg>