<svg xmlns="http://www.w3.org/2000/svg" width="3200" height="2237" style="font-family:monospace">
	<path fill="#0071bc" d="M0 0h3200v2237H0z" stroke-width="5"/>
	<g fill="#fc0" stroke-width="5">
		<path d="M2080 2507h1170l180-90 270 270 270 360 90-360 450-90v-450h540l-90-450v360h270v-450l-90 540h270v90h-450l-270 540-90-450-180-90v180l-360-180h-360l-90 360-900-720-450-270 270 540-90 90H1720l-270-90-180-540 180 810 630 90z m-720 630l180 90 630-90 720-90 360 180h720l-450 540-450 450H2530l-450 540v-900h360v-630l-1080-90z" stroke-width="5"/>
		<path d="M1090 1337l450 900H1000v450l90 90 720-540-1260 900 360 360 540-1260-360-900z m1440 450l180 90v-360 180h-450v-270 630h270v-270z" stroke-width="5"/>
		<path d="M1540 1607h630l-90-540v450l-630-270v720H820l-270-450 270-180v-90m1260-630h450l90 450v-900l-360-180H1720l90 990v-360h270z m-900-270l360-450 360-360v180l90 270-450 540v360h-360l-90-450v-450l90-900h-90l180 90-180 810 90 360z m2160 180l540-360h90l-450-450v450h-270v90l-180 360v-270l-90-720 90 270h-90l90 360h360v-990h90l180-90-90 540v360l270 270h270l-90 180H3430z m-360-360l360-540v-270l-450 180v270h180l-90 360z m-1890-1350l450-270h-450l180-540-90 90-630 720z m1440-450l90 90-270 360v-450h180z" stroke-width="5"/>
	</g>
</svg>