<svg xmlns="http://www.w3.org/2000/svg" viewBox="0 0 75000 120000">
	<path fill="#00647a" d="M0 0h75000v120000H0z" stroke-width="1000"/>
	<g transform="matrix(0.9368, 0, 0, 0.72513, -44627, -13540)" stroke-width="1000">
		<circle cx="166500" cy="150000" r="8500" fill="#ffff" class="a" stroke-width="1000"/>
		<circle cx="187990" cy="150000" r="8500" fill="#ffff" class="alpha" stroke-width="1000"/>
		<circle cx="169711" cy="166458" r="8500" fill="#ffff" class="b" stroke-width="1000"/>
		<circle cx="207277" cy="166458" r="8500" fill="#ffff" class="beta" stroke-width="1000"/>
		<circle cx="151775" cy="162145" r="8500" fill="#ffff" class="gamma" stroke-width="1000"/>
		<circle cx="175224" cy="185594" r="8500" fill="#ffff" class="theta" stroke-width="1000"/>
		<path fill="none" stroke="#ffcd00" stroke-linecap="round" stroke-width="3014" d="M200914 150002c-1692-2724-5602-2580-5602-2580s-9295 871-13865 77-4266 6503-4266 6503 4728 8251 10000 9957c5272 1704 8751 1062 8751 1062s6967 10 11636-1446c4670-1455 6467-7480 6467-7480s-2187-5214-5170-8005m-42301-18463l-71 2648 4210-1448-4279-1199m21358-1l-34 2648-4219-1449 4253-1198m-18456 15647l4152-1533-4218-1490m38684 3023l-4153-1533 4218-1490m-54253 1724l-4218 1490L153690 147000m22408 18133l4218 1490-4152 1534"/>
	</g>
</svg>