<svg xmlns="http://www.w3.org/2000/svg" xmlns:xlink="http://www.w3.org/1999/xlink" viewBox="0 0 1000 600">
	<path fill="#d90f19" fill-rule="evenodd" d="M0 0h1000v600H0z"/>
	<path fill="#171696" fill-rule="evenodd" d="M0 60h1000v480H0z"/>
	<g transform="matrix(.8 0 0 .8 154.642 48.648)">
		<circle cx="414.43" cy="301.623" r="210" fill="#fff"/>
		<path fill="#ad7d5a" stroke="#000" stroke-width=".57" d="M305.125 381.948c-.341 1.48-.909 3.533-1.14 6.156 0 .569-.568 3.646 1.14 3.758 1.255.115 1.596-3.192 1.596-3.192s-1.142 3.647.34 4.104c2.053.45 2.28-3.99 2.28-3.99-.22 1.255-1.59 4.447.35 4.783 2.05.345 2.62-4.33 2.62-4.33s-1.71 4.675.34 4.788c1.94.112 1.94-4.558 1.94-4.558s-1.026 5.585 1.709 5.13c1.478-.23 1.823-2.168 2.165-3.307.454-1.707 1.48-3.872.228-7.406-.91-2.62-.568-3.304-.568-3.304s-3.192 2.394-5.697 3.988c-1.143.683-7.296-2.621-7.296-2.621zm33.276-4.906c-.569-.344-.455 2.052-.683 3.188-.114 1.142.23 3.648 4.104 3.422 3.757-.344 7.52-1.14 9.912-.572 2.394.684 5.924.798 7.864.798 1.938 0 3.192-.226 4.1-.571.8-.34 2.508.459 3.304.459.8 0 2.05-1.255 1.937-2.053-.114-1.483-1.478-1.483-3.42-1.595-1.823-.227-4.328-.571-5.58-1.026-1.255-.457-3.533-1.71-6.382-2.28 0 0-5.47.23-6.606.23-1.142 0-7.865.34-8.55 0z"/>
		<path fill="none" stroke="#060" stroke-width=".57" d="m320.055 385.14-.228-5.242 2.165 1.826.57-3.99c.91-.228 2.393 1.597 2.393 1.597l-.23-3.98 3.305 3.648s-.228-3.08.909-4.901c0 0 2.506 2.165 2.506 4.672 0 2.17 2.165-3.077 2.165-3.077l1.824 5.813 1.478-2.167 1.255 4.555 2.733-3.987 2.165 4.674 4.9-.344.572 2.736 2.164-2.393 2.85 1.823s2.4-.682 3.65-.682c1.26 0 2.74 1.594 2.74 1.594s.91-1.59 1.824-2.162c.91-.57 2.167.91 2.505 1.82l1.825-3.303s2.394 2.393 2.733 3.302c0 0 .343-2.732.913-3.646.569-.91 1.477.344 2.164 1.484l1.48-4.9s1.595.337 2.733 2.162c1.255 1.82 1.255-2.737 1.255-2.737s2.732 3.65 3.42 6.154m68.6-.912s.91-2.503 2.166-3.758c0 0 2.392 2.85 2.392 3.76 0 0 .683-.34 1.937-1.25l1.823 1.822 2.167-1.48 2.052 1.823 3.758-1.595 1.48 1.594 5.807-.68 2.168.91 2.05-2.62 1.937 2.048 3.076-3.074s1.48 1.25 1.822 2.164c0 0 2.507-1.255 3.078-2.164 0 0 2.39-.912 2.732.566 0 0 1.48-1.14 1.367-2.391-.116-1.252 1.708-.34 2.277 1.257 0 0 .684-2.51 2.51-2.74 0 0 1.25 1.484.907 4.22 0-.003 2.735-2.166 3.99-2.396 0 0 .57 3.074-.34 5.813 0 0 2.85-4.674 3.415-3.078.23.91.912 3.99.23 6.152l2.506-1.595.913 3.08 2.733-.57m-128.033 9.282s2.05-3.417 3.304-4.33c0 0 2.733 2.167 3.645 4.9 0 0 .345-1.82 1.256-3.416 0 0 3.42 1.59 3.99 3.76 0 0 1.253-2.166 2.164-2.733.91-.688 1.824 2.39 1.824 4.214 0 0 2.165-2.28 3.42-2.394 0 0 2.392 1.14 3.075 5.13 0 0 2.28-2.166 3.077-1.826 0 0 2.734 1.826 2.05 4.33-.34 1.367 2.735-1.59 6.494-2.504l3.303 2.505s3.077-4.1 3.987-5.47c0 0 2.51.91 2.51 2.396 0 0 1.14-4.335 2.05-4.787.91-.57 2.163 1.367 2.163 2.62 0 0 .343-3.303 2.168-3.988 0 0 1.822 1.252 1.822 2.51 0 0 1.938-3.76 3.42-4.677"/>
		<path fill="#5ac800" d="m320.055 385.14-.228-5.242 2.165 1.826.57-3.99c.91-.23 2.393 1.597 2.393 1.597l-.23-3.99 3.305 3.65s-.228-3.072.909-4.9c0 0 2.506 2.17 2.506 4.676 0 2.17 2.165-3.078 2.165-3.078l1.824 5.812 1.479-2.165 1.254 4.558 2.736-3.99 2.162 4.676 4.9-.344.57 2.733 2.165-2.39 2.85 1.82s2.393-.682 3.647-.682 2.735 1.599 2.735 1.599.91-1.598 1.822-2.173c.91-.565 2.168.915 2.505 1.826l1.825-3.304s2.392 2.395 2.733 3.304c0 0 .34-2.732.91-3.646.572-.91 1.48.345 2.166 1.484l1.478-4.9s1.598.34 2.734 2.166c1.252 1.822 1.252-2.733 1.252-2.733s2.733 3.645 3.416 6.15c0 0-18.866 6.478-32.172 4.707-15.662-2.085-28.56-5.047-28.56-5.047m129.342-.57s.91-2.506 2.167-3.761c0 0 2.392 2.853 2.392 3.763 0 0 .68-.34 1.937-1.252l1.822 1.822 2.167-1.478 2.053 1.82 3.757-1.596 1.48 1.596 5.812-.68 2.165.91 2.052-2.623 1.937 2.05 3.076-3.077s1.48 1.252 1.822 2.167c0 0 2.507-1.25 3.078-2.167 0 0 2.393-.91 2.732.57 0 0 1.482-1.142 1.37-2.39-.114-1.254 1.708-.345 2.278 1.25 0 0 .683-2.505 2.504-2.733 0 0 1.253 1.476.911 4.218 0 0 2.733-2.17 3.987-2.397 0 0 .571 3.077-.34 5.815 0 0 2.848-4.675 3.42-3.078.228.91.911 3.987.228 6.15l2.505-1.593.91 3.078 2.732-.57s-16.176 2.478-31.416 1.024c-15.242-1.453-29.543-6.835-29.54-6.835m-11.266 11.314c.74-.458-5.09 11.993-19.23 12.656-19.67.92-36.487-8.893-36.487-8.893s2.052-3.418 3.304-4.332c0 0 2.733 2.167 3.646 4.9 0 0 .343-1.824 1.254-3.417 0 0 3.42 1.59 3.987 3.76 0 0 1.255-2.167 2.168-2.734.91-.687 1.823 2.39 1.823 4.217 0 0 2.164-2.283 3.418-2.397 0 0 2.394 1.14 3.078 5.13 0 0 2.28-2.164 3.075-1.826 0 0 2.735 1.826 2.05 4.33-.34 1.37 2.734-1.59 6.496-2.503l3.304 2.504s3.075-4.1 3.987-5.472c0 0 2.51.915 2.51 2.397 0 0 1.14-4.33 2.05-4.786.91-.57 2.162 1.366 2.162 2.623 0 0 .344-3.306 2.167-3.99 0 0 1.824 1.252 1.824 2.51-.004-.003 1.933-3.764 3.416-4.678z"/>
	</g>
	<path fill="#6f6" d="M531.6 183.263s-1.14-.095-2.185-.855l2.184.852"/>
	<g fill="none">
		<path stroke="#060" stroke-width=".475" d="M531.6 183.263s-1.138-.095-2.183-.855"/>
		<path d="m507.005 202.065 1.236.761 1.328.19s1.425 1.328 3.04 2.564c1.232 1.045 1.232-.19 1.232-.19l.76 3.04h1.044s-.287 1.99-.287 3.036l1.805-1.522 2.086 1.806s1.519-1.327 2.279-1.327c.759 0 1.043-.763 1.043-.763h.094c-5.031-2.37-7.215-4.843-5.697-7.407 2.469-4.271 6.552-1.518 7.88-.95l18.423 9.876s1.234-.756.378-1.518c-.952-.759-1.33-2.658-1.043-3.416.282-.76 2.37 2.373 3.417 2.657 1.045.286 3.418.667 3.418.667l-.095-.952s3.038 2.09 3.038 3.136c0 0 2.184-1.14 1.424-1.807-.758-.663 3.323 1.616 3.607 2.851l.856-.955c-.093 0 .288-3.039 1.332-4.463.95-1.43 1.994-1.81 1.994-1.81s.95-1.619 1.898-1.619c0 0-.95-.663-1.327-1.423-.475-.758-1.615-1.138-1.615-1.138s1.423-1.043 1.804-1.522c.38-.569.76-.662.76-.662s-2.185-1.804-3.703-2.089c0 0-.093-2.467-1.992-2.657h.854s-1.423-2.656-2.753-2.752c0 0 .856-.95 1.615-1.043 0 0-1.615-2.09-3.8-1.33l1.429-.57s-1.045-1.14-4.275-.57c0 0 .284-1.325-1.138-2.373 0 0-1.235.094-1.235 1.047 0 0-1.138-1.047-2.563-1.047-1.424 0 .474 1.52.474 1.52s-1.898-1.234-3.038-.857c0 0 .473-2.18-.76-3.322 0 0-1.424.758-1.805 1.71l-.38-.953s-1.897 2.282-2.277 1.614c-.287-.377-.57-1.99-.57-1.99l-1.138 1.707.189-2.376s-1.328.76-2.372 3.23c0 0-1.331 1.233-1.331 2.373 0 0-1.042-1.232-1.992 0-.856 1.33 0 1.045 0 1.045s-.381.474-1.33.665l.192.758s-1.236-.662-2.184-.378l.473 1.137s-2.47.19-2.564-1.802c0 0-2.087-1.045-2.373.094 0 0-1.71 0-1.52.948 0 0-.475-.95-1.33-1.138-.95-.286-.19 1.232-.19 1.232s-.283-1.14-1.423-1.71c-1.138-.471-.19 1.046-.19 1.046s-1.518-1.234-.757-2.184c0 0-1.425 1.33-.76 2.566l-.952.662s-.473-.471-.38-.856c.094-.383-1.614 1.14-1.614 1.14s-1.045-2.47 0-2.47c.093 0-1.804-.095-2.088 2.09-.286 2.088 0 0 0 0s-1.236.095-2.374.47c-1.237.385.853 1.239.853 1.239s-1.804-.38-2.85.187l.667.853s-.665-.662-2.278-.093c-1.71.474.38.76.38.76s-1.71-.379-2.563.001c-.855.38.282 1.045.282 1.045s-3.132-.95-3.608-.665c-.473.285 1.046 1.805 1.046 1.805s-1.898.474-2.278 1.9l1.708.665s-.757.381-1.138 1.138c-.378.762 1.138.383 1.138.383s-2.087 1.518-2.087 2.658c0 0 1.52.472 2.658-.666 1.14-1.137.38-.758.38-.758l.095.757s2.183-.95 2.183-1.52c0-.472-.376.76-.376.76l2.184-1.139 1.424.95"/>
		<path d="m505.2 172.433-.474-2.084s2.564 0 4.844.57l.855-1.995s2.277 1.044 3.04 1.8c0 0 4.46-1.137 5.79-.661l-.569 2.089s4.084.283 5.412.759c1.234.48-.57 1.53-.57 1.53s4.653.569 6.646 1.803c2.09 1.234 2.09 2.28 1.045 2.567l2.563 4.082s-4.083.474-4.844 1.52c-.758 1.044-1.52-1.047-1.52-1.047l-.757 2.85s-2.563-1.33-3.61-2.28c.01 0-1.23 1.52-.47 2.28 0 0-3.32 0-4.65-3.04-.001 0-1.995-.283-1.995 1.52 0 0-2.28-2.562-2.85-3.324l-2.563.763s-.76-1.045-1.707-1.332c-1.045-.19-.286 1.332-.286 1.332L507 180.32l-1.517-1.807s-1.332 1.804-2.377 1.804c-.952 0-.952-1.236-.761-2.091.284-.758-3.04-.95-3.323 0 0 0-.952-3.796 2.562-4.844l3.612-.95"/>
	</g>
	<g stroke-width=".475">
		<g fill="#d67c59" stroke="#000">
			<path d="M528.843 184.497s.57-1.33 1.615-.57c.95.76 1.232 4.084 1.232 4.084l-1.52.758s.857-1.232-1.327-4.272zm-8.633 29.82s.758-1.043-.285-3.325l1.519-.474s.569 1.803-.191 3.8h-1.045m26.304-5.228-3.608 2.186 1.805.855 4.367-2.565-2.567-.476m-48.335 14.15c-.952.76-1.046 2.09-1.615 2.85-.472.757-1.9 1.8-1.993 2.941-.19 1.14-.284 1.9.19 3.42.566 1.518 2.942 8.26 1.992 13.391-1.045 5.127-.663 7.311-.282 8.074.377.758 1.518 2.846 2.184 2.846 1.518-.19.854-.662 1.422-1.614 1.424-2.47 0-21.558-.666-26.876-.472-4.085-2.375-7.79-2.562-8.167-.19-.478-.569-1.71-.855-2.472-1.423-3.42-3.133-6.36-3.133-13.486 0 0-4.654 1.045-8.641-7.979-2.089-4.558-5.128-4.083-8.736-5.6l1.615-1.048s3.039 1.522 4.558 1.522c1.52 0 1.046-3.04 1.046-3.04l1.52-1.52v6.65c0 3.04 4.177 7.218 6.645 8.452 1.52.757 3.515-2.375 3.04-5.414-.475-3.038 0-7.12 0-7.12l2.09 1.23s-.76 1.33-.57 2.09c.283.762 1.327-.76 2.087-1.52 0 0 .19.19.95.19 0 0-1.52 2.564-2.277 3.895-.758 1.236-.758 6.08-.758 7.885s.664 5.98.664 7.31c0 .95 1.802 4.843 3.23 7.22a201.98 201.98 0 0 1 1.613 3.416c1.138 1.805 1.232 3.04 1.9 4.56.378.759 1.044 2.944 1.518 6.745.19.948.38 4.558.667 6.93.283 2.279 2.184.476 4.46-1.14 2.278-1.707 2.278-5.792 2.278-5.792s1.806-1.521 1.52-.665c-.19.95.952 1.9.952 1.9-1.424 3.227-.57 2.848.854 2.753 1.424-.192 6.36-3.894 6.36-3.894.665-.192 3.61-.192 3.135 0-.57.286-1.33 1.71-1.33 1.71l3.228-.38c-1.138.854-5.413 3.321-6.36 3.893-1.046.666-6.17 3.136-8.355 3.99-2.185.948-6.46 3.04-6.648 5.222-.095 2.186.284 8.074 0 9.97-.19 1.9-.95 10.354-.95 10.354H494s1.994-7.41-.097-9.402c-1.993-2.09-6.647-8.17-9.685-10.26-3.04-1.993 1.993-.472 1.993-.472v-2.09l4.653 5.606s8.07-7.124 0-16.81c-2.564-3.04-5.128-7.692-7.122-8.17-2.088-.57-3.133-1.045-6.647 0-3.608 1.044-12.25 1.044-15.858-4.656l3.04-.474 2.56-1.045s-1.042 3.61 6.174 3.61c7.128-.01 8.175-.01 7.606-6.65l2.087-1.05 1.521 1.52s-1.044 3.61-.475 5.125c.476 1.52 3.04 2.565 5.034 4.083.855.666 1.52.76 2.089.76.854-.094 1.043-.094 2.184-1.234 1.705-1.9 1.325-1.805 3.035-3.323 0 .001.855-1.329 1.045-1.519l1.046 2.754z"/>
			<path d="M499.694 218.21c.38-.377 1.14-1.805 1.805-3.04 1.138-1.898 2.47-3.038 3.987-5.413 1.423-2.184 1.994-5.411 1.423-7.69l1.328.76.098 3.609s1.805-1.522 2.565-1.899l.757.378s-5.697 5.89-11.015 15.387l-.95-2.088zm-49.942-19.75c.76 1.325 1.521 3.894 3.799 5.887l1.519-.475s-3.513-4.083-3.513-5.886l-1.805.473m8.923-2.286s.474 4.844-.759 6.648l1.52-.756s1.042-3.324.757-5.13l-1.52-.758zm50.045-15.288s-.287 6.836 1.046 11.016l1.801-.557s-.283-1.24 1.235-1.808c1.52-.476 5.127-1.994 6.931-3.515l-.568-1.518s-2.753 2.184-4.083 2.754c-1.234.476-1.993 1.043-3.039.76-1.045-.287-2.277-1.997-1.52-5.89zm20.123 31.91s-.473 4.845-.189 6.935l1.615.38s-.378-5.793.663-6.268l-2.089-1.045m7.224 3.61s-1.804 3.135-3.892 3.42l3.323-.664s.952-.475 2.375-1.993l-1.806-.76"/>
		</g>
		<g fill="#338a00" stroke="#030">
			<path d="m507.012 202.062 1.232.756 1.33.194s1.423 1.33 3.039 2.562c1.232 1.045 1.232-.19 1.232-.19l.758 3.04h1.045s-.285 1.993-.285 3.039l1.805-1.522 2.09 1.805s1.518-1.329 2.277-1.329 1.045-.758 1.045-.758h.096c-5.034-2.376-7.215-4.844-5.698-7.409 2.47-4.273 6.552-1.52 7.88-.948l18.422 9.874s1.234-.758.38-1.521c-.953-.756-1.332-2.657-1.046-3.416.285-.76 2.373 2.372 3.416 2.658 1.045.286 3.418.667 3.418.667l-.095-.95s3.04 2.088 3.04 3.134c0 0 2.183-1.139 1.422-1.805-.758-.663 3.325 1.616 3.609 2.852l.854-.952c-.096 0 .285-3.04 1.33-4.465.951-1.421 1.993-1.803 1.993-1.803s.952-1.615 1.9-1.615c0 0-.953-.663-1.33-1.423-.466-.763-1.606-1.14-1.606-1.14s1.424-1.044 1.806-1.52c.38-.568.76-.667.76-.667s-2.184-1.801-3.705-2.084c.001 0-.093-2.472-1.992-2.66h.856s-1.424-2.66-2.754-2.754c0 0 .854-.95 1.614-1.046 0 0-1.614-2.087-3.796-1.328l1.423-.567s-1.045-1.14-4.27-.57c0 0 .282-1.329-1.14-2.375 0 0-1.234.093-1.234 1.044 0 0-1.138-1.044-2.562-1.044s.474 1.521.474 1.521-1.9-1.236-3.04-.855c0 0 .474-2.184-.76-3.326 0 0-1.42.76-1.805 1.71l-.379-.949s-1.9 2.28-2.277 1.614c-.285-.379-.57-1.992-.57-1.992l-1.137 1.71.187-2.38s-1.328.76-2.373 3.221c0 0-1.329 1.236-1.329 2.372 0 0-1.045-1.232-1.994 0-.854 1.33.002 1.048.002 1.048s-.38.471-1.33.662l.19.758s-1.234-.663-2.184-.377l.473 1.138s-2.468.191-2.562-1.8c0 0-2.089-1.048-2.374.092l-1.52.95s-.476-.95-1.33-1.139c-.952-.284-.19 1.233-.19 1.233s-.283-1.139-1.423-1.71c-1.138-.47-.19 1.047-.19 1.047s-1.518-1.236-.757-2.184c0 0-1.423 1.33-.76 2.565l-.95.662s-.475-.473-.381-.854c.098-.38-1.613 1.14-1.613 1.14s-1.046-2.468 0-2.468c.095 0-1.805-.096-2.088 2.09.004 0-1.23.094-2.371.472-1.232.381.856 1.236.856 1.236s-1.804-.38-2.85.19l.667.855s-.665-.665-2.28-.097c-1.71.476.379.76.379.76s-1.71-.38-2.564 0c-.855.382.285 1.046.285 1.046s-3.135-.95-3.61-.662c-.472.282 1.046 1.804 1.046 1.804s-1.9.474-2.277 1.899l1.708.662s-.756.38-1.14 1.14c-.377.76 1.139.379 1.139.379s-2.088 1.522-2.088 2.66c0 0 1.52.473 2.659-.665 1.138-1.14.379-.761.379-.761l.096.76s2.184-.947 2.184-1.515c-.001-.477-.38.755-.38.755l2.185-1.14 1.422.953v-.002z"/>
			<path d="m505.2 172.438-.474-2.088 4.844.566.853-1.993s2.277 1.044 3.039 1.801c0 0 4.461-1.138 5.793-.662l-.57 2.09s4.083.283 5.414.756c1.234.476-.57 1.522-.57 1.522s4.653.57 6.65 1.804c2.087 1.232 2.087 2.28 1.044 2.562l2.562 4.084s-4.082.474-4.842 1.517c-.76 1.045-1.52-1.042-1.52-1.042l-.76 2.848s-2.562-1.33-3.606-2.279c0 0-1.232 1.522-.475 2.28l-4.653-3.04s-1.996-.284-1.996 1.522c0 0-2.277-2.567-2.847-3.327l-2.567.76s-.756-1.041-1.708-1.33c-1.045-.186-.284 1.332-.284 1.332l-1.52-1.8-1.52-1.8s-1.33 1.8-2.374 1.8c-.952 0-.952-1.23-.76-2.085.286-.76-3.04-.95-3.321 0 0 0-.952-3.8 2.562-4.842l3.607-.95zm-18.413 13.01-1.615 1.522-.95-.476-1.898 2.09-.38-1.143-1.046 1.71-1.613-.57-.76 1.236-1.422-.286s-1.235 1.142-1.995 1.426c-.758.192 0-1.708 0-1.708s-1.14 1.9-1.994 1.9c-.757 0-.473-.856-.473-.856s-.47 1.232-1.42 1.423c-.85.097-.47-.948-.47-.948l-1.52 1.139v-.95l-.663-.284s.378-1.71 1.045-2.09c.662-.38-.666-1.516-.666-1.516l.662-.76s-1.9-.476-1.9-.094c0 0 .953-2.563 2.278-3.043l.096-2.847s1.33-1.139 2.563-1.236c1.33-.19-.38-2.184-.38-2.184l3.04-1.8.38-2.185 4.652.376.95-1.992 3.707.948 3.13-1.615 2.279 2.66 3.418.285s-.093 2.373-.093 3.04c0 0 4.08 1.231 4.557 1.614 0 0-.76 2.47-.76 2.943 0 0 2.85-.76 3.705-.57 0 0 .286 2.66.378 3.323 0 0 4.842 1.522 5.128 2.377 0 0-1.045.662-1.615 1.517 0 0 .57 2.946.57 3.894l-.38.57s-1.425-1.33-2.564-1.52l-.952 2.09-1.708-1.14-1.044.095s-.855-1.045-1.521-1.045l-.094-.949-1.33.854s-2.09-1.045-2.09-1.71c0-.57.097-1.522.097-1.522l-2.184 1.522s-.474-1.139-.378-1.615c.095-.474-.856 1.141-.856 1.141s-1.141-1.996-1.045-2.376l-.286 1.615s-2.278-.756-2.562-2.278v-.003z"/>
			<path d="M456.397 194.754s3.99 1.998 3.99 2.946c0 0 1.045-2.09.474-2.85l1.52 1.045s.472-1.898-.097-2.47c-.476-.474 3.416-2.085 4.272.477 0 0 2.375-2.47-2.184-4.56 0 0-.377-1.52 2.375-1.138 0 0-.19-.95-.855-1.33h2.66s-1.615-1.33-3.99-1.71c-2.276-.381-.854-.663-.95-1.142-.19-.474 0-2.184 0-2.184s-1.33-.474-2.374.095l.38-.476s-2.47-.663-3.415-.093c0 0-1.426-.57-1.236-2.09 0 0-1.424-.094-2.086 1.422 0 0-1.33 1.522-3.134 1.522-.378 0-1.708-.762-1.708-.762l-1.141 2.66-1.804-.094.57 1.043s-2.754-.756-3.61 0c0 0 1.046 1.617.76 2.754 0 0-2.184.382-2.66.762-.57.376.76.662.76.662s-2.47.76-3.04 1.52l.952.757-1.14 1.524.952.186s-1.615.476-2.47.762c-.853.284 1.52.476 1.52.476l-1.14 1.042 1.806.283s-1.424 3.8-1.52 5.606c0 0 2.185-2.66 2.754-2.848l-1.708 2.848s3.23-1.043 3.514-1.522c.282-.57.568-1.043.568-1.043l.095 1.615s1.235-1.71 1.425-2.375c.096-.663 1.993.665 1.993.665v-.952s1.71.57 2.277.666c.666.094.76-.285.76-.285l1.615-.19-.286 1.328s1.138-.76 1.422-1.52c.19-.76.759 0 .759 0l.757-3.038h1.613zm-13.01 13.487 1.518 3.14c-1.233.097-3.038 1.52-3.038 1.52.284 5.226-1.043 4.94-1.043 4.94.375.95-.243 2.712-.243 2.712l7.553-4.515.097-.476 8.926-4.18.282.474 2.566-1.423 1.804 4.746-1.804 1.045c.097 1.616 1.995 4.467 1.995 4.467l2.374-.57 2.563-.95s.096 1.423.096.952c0-.383 2.752-1.33 2.752-1.33l1.234 1.234c.952-.093 2.658-2.376 2.658-2.376l1.995.762s.664-1.14.664-1.994c0-.76 2.468-.76 2.468-.76l1.71 1.232 2.185-1.801s.664 1.329 1.519 1.517c.952.096 3.323 1.899 3.323 1.52 0-.377 1.045-2.47 1.045-2.47l3.988 1.617c-.568-1.805-1.897-3.988-1.897-3.988s1.897-1.517 1.519-1.898c-.38-.381-1.52 0-1.52 0l1.139-2.28h-1.52l.473-.567-2.468-1.043 1.329-2.66c-.57-.667-7.121-1.997-7.121-1.997l1.519-1.423s-.76-1.14-1.52-1.14-4.748.098-4.937-.28c-.097-.381-1.71-1.808-1.71-1.808l-2.47 1.806-1.232-.381-2.184.855s0 1.234-.288.379c-.283-.762-2.278-2.753-2.278-2.753-.378.662-2.942 3.7-2.942 3.7s-.38 1.617-1.235.475c-.952-1.138-2.944-2.372-3.23-1.423-.284 1.046-2.086 1.994-2.47 1.71-.37-.287-2.46-.094-2.65.475-.093.663-2.372 2.372-2.372 2.372-1.425-.663-3.706-.281-3.706-.281s-.662 1.045-.756 1.899l-4.653 1.233h.004v-.003zm42.924 38.47v-1.992l2.277 1.52 1.33-1.52 1.708 1.707 1.046-1.708v2.756l2.563-2.277 1.518.662v-2.185s1.806-3.04 1.045-3.607l1.52-.474s-2.564-2.565-3.323-3.042c-.76-.568-1.804-.568-1.804-.568s-1.995-1.997-3.323-2.564c-1.234-.476-1.997.566-1.997.566s-.758-1.516-2.087-1.803c-1.232-.283-1.232 1.046-1.232 1.046s-.952-.952-2.184-1.426c-1.234-.566-.38 1.14-.38 1.14l-4.368-1.326.568 1.326-4.081-1.04.472 1.52-2.847-.479-.19 1.241-4.084.756.76 1.33-2.564-1.049v1.807l-2.85 1.043 1.046.952s-3.798 1.805-4.56 2.374c-.757.473 1.522 1.517 1.522 1.517l-4.084-.57 1.52 1.33-3.61 3.327 2.565 1.806-1.52 2.28 3.798.756 1.52 2.56 3.13-.57v2.847l4.557-3.606s3.325 2.942 3.61 2.09c.187-.76.187-3.325.187-3.325h1.615v-2.563l1.232 1.044 2.09-3.04 2.752 3.8 2.088-4.843 3.04.475zm18.61-11.49-.474-4.364-1.327 1.329.566-4.084-2.086-.38.757-3.988-1.518-.761.37-1.898 1.52-1.14 2.753-2.66 6.359.1.759-2.089 4.56.76c.757.854 3.13-1.71 3.13-1.71h.953l1.046 1.989s3.321-.48 4.84.57l-1.805 2.466 3.322.283 2.277.476 2.375-.76 3.04-.192.758 1.234h2.85l-.95 1.14 3.702 1.707-.758.762s2.09.757 3.61.757h.756s.759 1.802-.286 2.562c0 0 1.045 2.565 3.322 3.04 2.28.476 2.28.476 2.564 1.044.287.476 0 3.04-2.563 3.04v2.567s-1.993 1.803-2.277 2.56l-1.522-1.044s-1.324 1.52-1.324 2.566c0 0-3.325-4.37-4.56-4.56-1.33-.285-1.046 2.47-1.046 2.47l-3.607-3.04-.476 2.087-3.038-2.562-1.805 1.23-3.232-3.323-3.132.385 1.23-1.616h-3.796l-.76-3.323-.568 2.753-2.277-1.518-2.944 3.228s-.38-.383-.856-1.9c-.473-1.52-1.804 1.803-1.804 1.803l-1.046-2.37-1.23 2.37s-1.046-1.802-2.092-2.37c-.95-.476-1.992 2.845-2.275 4.367zm.57 9.97.19-1.515 5.41-2.091 4.56-1.708 2.278-1.046 1.045 1.805 1.328-2.563 2.089 2.656 1.14-1.425 1.804 1.329h1.52l.284 1.996s3.799.283 4.082-.474c.286-.76.76 2.562.76 2.562l3.607.474.76 4.084s1.8 3.8 1.233 5.32c-.47 1.616-1.99-1.993-1.99-1.993s-.28 2.846-.57 3.606c-.183.757-4.84-.76-4.84-.76l-1.99 3.798s-2.088-3.04-3.037-3.04c-1.046 0-1.046 3.04-1.046 3.04s-3.04-3.608-4.368-5.13c-1.235-1.516-1.521 1.522-1.521 1.522s-1.993-3.325-1.993-4.274c0-1.043-1.805-2.09-1.805-2.09s-3.137 3.61-5.416 4.56c0 0 .285-2.28-.474-3.04-.757-.76-3.038 1.52-3.038 1.52s-1.615-3.515 0-7.125z"/>
		</g>
		<g fill="none" stroke="#004b00">
			<path d="m530.56 188.575.477 1.9s1.708-.381 2.848-.285c0 0-.285 1.52-.664 2.184 0 0 2.277-.379 3.322.284l-.474 1.139 2.66 1.14-2.47 1.994s3.986 1.423 4.748 2.565c0 0-2.563 1.803-2.943 1.71-.38-.192-.096.756.57 1.611l-2.185-.093s.843 1.995.747 2.753c-.095.76-3.611.568-3.611.568m13.67-5.121s.666-3.8-.376-4.75c0 0 2.468 2.09 4.082 2.185 1.71.097-.096-3.134-.096-3.134s2.374 1.234 3.514 1.519c1.138.19-.856-2.375-.856-2.375s.664-1.236 2.563-.096m-44.147-15.096s.093-.855-.288-1.329c-2.277-3.134 2.375 2.376 3.323 2.565m4.366-.004s1.52 1.127 2.28 1.127c.758 0-.475-3.04-.856-3.416-.378-.381 2.754 1.232 3.894 1.424 1.139.284 1.328-1.898 1.328-1.898s3.514.569 4.275 1.045m-24.408-.663s-.285-1.992-.38-2.847m-23.542 12.35c-.19-.382.952-2.091.476-2.85 0 0 .663.57 1.328.665.569.094.377-2.185.377-2.185l.76.284s1.995-.952 1.615-1.711c-.384-.757 1.328 1.139 1.328 1.139s1.14-1.141 1.14-1.614c0-.48 1.328 1.136 1.328 1.136s1.423-.285 1.423-1.138c0-.854 1.804.283 1.804.283s.76-1.043.668-1.71m-19.18 9.5s.852-1.992-.097-3.322m-22.976 9.585c.096-.948.57-3.512.096-3.893-.475-.377.952.38 2.089.666m9.014-.375c-1.138-1.141-1.804-1.71-3.606-1.71m-15.667 8.066c.285-.663.758-2.278.474-3.228m24.306 50.336 1.235-2.565 1.52 3.608 1.044-2.28.38.76 2.277-2.468 2.47 3.704m39.6-16.047 1.616-3.228 2.184 1.14 1.045-3.135 2.278 1.425 1.329-2.944 2.563.663.189-2.088s1.804 1.042 2.279 1.8c.567.763 0-2.56 0-2.56l2.087.95s1.52-1.52-.57-2.374"/>
			<path d="m523.533 226.096 2.277 3.325 1.898-2.184 1.71 3.701 2.184-1.329 3.132 1.805 1.424-1.14 3.419 2.47 1.424-2.941 3.038.949 1.993-3.416m-82.037-8.93s1.33-2.283.854-3.327c-.569-1.045 2.754 1.805 2.754 1.805s.757-2.28.284-3.323c-.57-1.034 3.798 3.05 3.798 3.05s.761-3.514 0-4.275c-.76-.76 4.179 1.045 4.179 1.045s1.995-.567 1.235-1.613c-.76-1.045 3.323 1.517 3.323 1.517s.948-2.561 0-3.514c-1.046-1.042 3.038 1.236 3.038 1.236l-1.52-2.755 3.323.19-.283-3.04m29.434 43.87 2.184-1.045 1.9 1.899 2.087-3.322 2.563 2.467.38-2.467 2.753 1.14.57-1.521 3.038 1.618.284-2.28 1.518.476.285-1.522"/>
		</g>
	</g>
	<path fill="#9dc9e2" d="M464.75 357.343a67.897 67.897 0 0 1-5.793-12.629l41.116-36.185 41.118 36.087c-1.425 4.177-3.325 8.643-5.983 12.918l-.327.526a401.026 401.026 0 0 1-3.092-1.191s-1.33 1.234-2.37 1.328c-1.425.19-2.66-1.232-2.66-1.232s-1.805 1.519-3.608 1.232c-1.805-.187-2.565-1.329-2.565-1.329s-1.898 1.52-3.23 1.234c-1.232-.289-2.087-1.143-2.087-1.143s-1.14 1.428-2.754 1.143c-1.518-.289-2.943-1.143-2.943-1.143s-2.37 1.042-3.892 1.234c-1.518.288-2.849-1.33-2.849-1.33s-1.993 1.33-2.753 1.33-3.608-1.33-3.608-1.33-2.944.95-3.988.95c-.952 0-3.892-1.231-3.892-1.231s-2.754.756-3.987.756c-1.33 0-3.23-.756-3.23-.756s-2.275 1.044-3.512.756a12.861 12.861 0 0 1-2.375-.756s-2.468 1.044-4.083.756c-1.519-.282-3.323-1.325-3.323-1.325s-.285.759-3.229 1.325h-.096"/>
	<g stroke="#000">
		<path fill="#fff" stroke-width=".664" d="M500.078 266.93v41.596L458.96 344.9c-3.985-11.586-4.27-21.937-4.27-26.4v-51.57h45.388"/>
		<path fill="#ffe682" stroke-width=".664" d="M500.078 266.93v41.596l41.02 36.375c3.987-11.586 4.273-21.937 4.273-26.4v-51.57h-45.293"/>
		<g stroke-width=".475">
			<path fill="#d67c59" d="M473.552 348.7c3.091 1.675 2.044 1.148 8.452 3.416 5.222 1.808 11.298 2.66 20.128 2.66 7.726 0 12.076-.613 14.523-1.288 2.538-.728 3.139-1.753 3.139-1.753l-6.36 6.46s-25.57 1.378-30.198-1.615c-1.802-.952-5.697-4.084-9.684-7.882z"/>
			<path fill="none" stroke-linecap="round" d="M511.063 336.64s8.167 4.653 0 13.581m-36.746-1.045 11.775-11.21-1.33 15.007m6.169 1.126V329.23m20.132 25.07v-26.591M500.9 354.776v-28.584"/>
			<path fill="#d90f19" stroke-linejoin="round" d="m490.93 330.565-5.318 1.71 5.319.57v-2.28m9.968-3.901-5.6 2.09 5.6.19zm10.164 1.52-5.602 2.092 5.602.283v-2.376zm3.323 12.07c-.285-1.141 3.324-1.044 3.324-1.044s1.045 3.796 0 6.17l-3.038-.57s.286-2.562-.285-4.558z"/>
			<g fill="#fff">
				<path stroke-linejoin="round" d="m476.119 347.654 9.971-9.688-.477 5.795s-5.125 3.323-5.125 5.697l-4.368-1.804m5.31 2s1.045-3.04 3.892-4.559l-.284 6.077-3.607-1.52zm14.345-16.81s4.081-.57 7.121 0c0 0-.476 4.082 0 4.841 0 0-5.603-1.33-7.88.757 0 0-.76-3.798.76-5.6zm-8.643 1.044s4.084-.57 7.122 0c0 0-.76 4.56-.286 5.32 0 0-4.56-2.567-6.837-.479 0 0-1.52-3.14 0-4.85z"/>
				<path stroke-linecap="round" stroke-linejoin="round" d="M486.843 339.198s4.083-.474 7.121 0c0 0-.474 4.084 0 4.844 0 0-5.317-1.234-7.597.76 0 0-1.045-3.8.476-5.604zm8.167-.756s5.888-.756 8.924-.282c0 0-1.234 3.323.287 5.602 0 0-6.362-1.71-8.736.283-.002 0-1.994-3.799-.476-5.603zm-8.634 6.366 7.88.57s-.758 5.792-.285 6.551c0 0-6.36-1.521-7.59.568 0 0-2.086-5.316 0-7.69h.005zm8.923 0s6.834-.476 9.97 0c0 0-1.807 4.37.19 8.166 0 0-8.927-2.56-10.164-.476 0 0-2.084-5.316 0-7.69zm10.444-11.966s4.081-.57 7.122 0c0 0-.474 4.084 0 4.843 0 0-5.603-1.33-7.88.757-.002 0-.762-3.798.758-5.6zm0 5.6s4.081-.474 7.122 0c0 0-.474 4.084 0 4.844 0 0-5.603-1.234-7.88.76 0 0-.762-3.798.758-5.602zm.476 5.89s4.081-.566 7.215 0c0 0-1.045 6.362-.57 7.121 0 0-4.648-2.184-6.835-.281-.01 0-1.338-5.033.18-6.84z"/>
				<path d="M514.666 344.808s1.327 4.841 3.037 5.413l-2.277 2.753s-2.754-1.994-3.04-4.27c0 0 1.804-2.091 2.28-3.895z"/>
			</g>
		</g>
		<g stroke-width=".61">
			<path fill="#006ac8" stroke="none" d="M535.021 357.912c-6.55 10.923-17.28 21.177-34.942 27.54-17.948-6.456-28.866-17.187-35.324-28.016l.095-.095c2.943-.57 3.23-1.32 3.23-1.32s1.803 1.046 3.322 1.33c1.615.284 4.083-.76 4.083-.76s1.045.477 2.374.76c1.23.285 3.51-.76 3.51-.76s1.9.763 3.22.763c1.234 0 3.988-.76 3.988-.76s2.943 1.232 3.893 1.232c1.046 0 3.987-.95 3.987-.95s2.85 1.33 3.61 1.33c.757 0 2.753-1.33 2.753-1.33s1.328 1.615 2.847 1.33c1.52-.19 3.894-1.232 3.894-1.232s1.423.857 2.943 1.14c1.613.285 2.754-1.141 2.754-1.141s.854.857 2.088 1.14c1.33.286 3.228-1.234 3.228-1.234s.759 1.14 2.565 1.329c1.805.286 3.61-1.232 3.61-1.232s1.23 1.423 2.656 1.232c1.045-.095 2.372-1.33 2.372-1.33s2.374.76 3.228 1.046"/>
			<path fill="none" stroke-width=".475" d="M533.407 360.385c-1.423.097-1.614-.855-1.614-.855s-1.895 1.617-3.703 1.331c-1.897-.282-2.753-1.518-2.753-1.518s-1.994 1.615-3.324 1.328c-1.328-.19-2.278-1.14-2.278-1.14s-1.232 1.427-2.848 1.141c-1.614-.19-3.04-1.14-3.04-1.14s-2.563 1.048-4.178 1.33c-1.615.287-2.944-1.518-2.944-1.518s-3.703 1.235-4.46 1.235c-.856 0-3.517-1.236-3.517-1.236s-1.802 1.14-2.846 1.14c-1.139 0-4.178-1.33-4.178-1.33s-2.85.76-4.18.76c-1.33 0-3.323-.76-3.323-.76s-2.47 1.045-3.799.762c-1.329-.287-2.374-.763-2.374-.763s-2.658 1.046-4.272.763c-1.615-.287-3.514-1.33-3.514-1.33s-.284.663-3.416 1.33h-.097"/>
			<g fill="#006ac8" stroke-width=".569">
				<path d="M474.439 364.259s-.265.62-2.742 1.166c-.053-.003-.672.147-.672.147.229-.042.415-.075.614-.117a11.508 11.508 0 0 1-.7.233c2.8 4.045 6.994 7.717 11.365 10.661 4.372 2.946 9.395 6.461 17.948 8.97 8.993-3.511 11.392-4.847 17.27-8.783 5.877-4.293 8.94-6.967 12.217-11.371-2.566 1.457-2.198 1.474-3.528 1.283-1.33-.282-2.305-1.254-2.305-1.254s-1.213 1.447-2.828 1.255c-1.615-.282-3.033-1.254-3.033-1.254s-2.11 1.434-4.2 1.34c-1.615-.095-2.947-1.516-2.947-1.516s-3.706 1.225-4.463 1.225c-.856 0-3.5-1.225-3.5-1.225s-1.815 1.137-2.858 1.137c-1.14 0-4.172-1.342-4.172-1.342s-2.841.76-4.17.76c-1.33 0-3.325-.758-3.325-.758s-2.37 1.043-3.792.758c-1.331-.282-2.393-.758-2.393-.758s-2.646 1.043-4.258.759c-1.615-.283-3.528-1.313-3.528-1.313z"/>
				<path d="M500.254 385.324c9.29-3.866 10.967-4.919 16.587-8.353-.98.026-3.83-.895-2.799-1.188 0 0-1.142 1.03-2.281 1.03-1.045 0-4.084-1.326-4.084-1.326s-2.846.756-4.176.756-3.324-.756-3.324-.756-2.47 1.042-3.798.756c-1.33-.282-2.375-.756-2.375-.756s-2.753 1.042-4.272.756c-1.614-.282-3.515-1.328-3.515-1.328s-2.337 1.24-3.804 1.38c4.49 3.289 9.214 6.499 17.842 9.029z"/>
			</g>
		</g>
		<g stroke-width=".509">
			<path fill="#d67c59" stroke-width=".475" d="M461.746 270.469c-.658-.017-1.447.37-2.662 1.471-1.918 1.73-2.608 3.515-.092 5.67l12.465 11.335c1.82 1.77 4.365 2.094 5.433 3.011l12.669 12.956c1.597 1.38 2.36 2.357 1.458 3.535-1 1.94.071 2.2.3 2.26 1.734.39.792-.696 1.015-1.257.3-1.185 1.595-2.208 2.515-2.704.598-.233.926-.11 1.076.21.546.22 1.124-.598.319-1.461-.693-.965-1.776.602-2.998.234 0 0-1.843-1.142-2.347-1.96-1.076-1.196-2.46-2.27-3.259-3.297-.844-.952-4.02-5.154-8.857-9.99-1.38-.908-1.064-4.342-2.06-5.407-.083-.744-9.669-10.23-13.089-13.662-.69-.509-1.216-.928-1.875-.944z"/>
			<path fill="none" stroke-width=".467" d="m462.352 275.572 13.028 12.873"/>
			<path fill="#e8e8e6" stroke-width=".533" d="M479.992 281.452c.202-.387.642-1.374 1.108-2.451.184-.426 3.689-6.015 5.436-6.179 0 0 10.898 7.929 10.907 8.033.037.428-4.728 7.554-5.143 7.013 0 0-12.768-5.36-12.307-6.416z"/>
			<path fill="#ccb8c8" stroke="none" d="M486.936 283.32c-1.493-1.16-3.959-2.29-5.95-3.618l-.896 1.867c.72.806 9.789 5.021 11.278 5.833 0 0-1.727-1.98-4.433-4.083z"/>
			<path fill="none" stroke-width=".373" d="M480.98 279.464c1.167.817 3.384 2.217 4.784 3.034 2.683 1.866 4.382 3.923 6.3 5.016"/>
			<g stroke-width=".475">
				<path fill="#d67c59" d="m458.899 313.429 24.814-30.71c.467-.427 2.767-.448 3.079 1.93l-23.502 32.029c.002 0-2.676-.266-4.39-3.25zm83.179.336c-.855.667-2.308.84-2.308.84-1.613-1.9-2.945-3.894-5.223-6.362l-24.785-30.484 2.563-2.468 22.314 26.115c.664.664 4.56 4.75 8.263 9.59.002 0 .325 1.896-.825 2.772z"/>
				<path fill="#e8e8e6" d="m518.213 281.648-3.99-4.748s-3.038.378-3.606 1.994c0 0-2.184 3.61-7.977 3.99 0 0 1.612 6.742 8.355 10.35 0 0 2.47-6.934 4.842-8.168 0 0 2.468-1.805 2.375-3.416z"/>
				<path fill="#d67c59" d="M508.244 302.733c-.569-.192-1.138 0-1.995.476-.757.476-1.708.283-1.614-.668.096-.854 0-.757 1.045-1.422 1.521-.855 3.514-.952 4.748-.476l-2.184 2.091m27.058-26.975c-.19-.663-.378-1.325.285-2.18.664-.76.664-2.092-.952-1.427-1.615.666-2.184 2.47-.853 5.224l1.517-1.618z"/>
				<path fill="#e8e8e6" d="m507.674 303.302 28.108-27.92 6.93 7.407s-1.423-.572-1.994-.193c-.475.38.57 1.805.57 1.805s-1.33-.474-1.9-.095c-.664.378 0 1.994 0 1.994s-1.137-.854-1.71-.476c-.472.382 0 2.184 0 2.184s-1.517-.473-1.895-.095c-.381.38 0 1.995 0 1.995s-1.522-.76-2.28 0c-.757.758.38 1.805.38 1.805s-1.9-.76-2.66.378c-.758 1.14.096 2.184.096 2.184s-1.52-.758-1.899-.38c-.38.38 0 2.183 0 2.183s-1.328-.76-2.183.193c-.856 1.056.095 1.91.095 1.91s-1.232-.763-1.9-.384c-.666.382.19 2.183.19 2.183s-1.232-.855-2.089 0c-.855.952 0 1.898 0 1.898s-1.045-.95-2.088 0c-.952 1.046 0 2.09 0 2.09s-1.518-.756-2.088.002c-.664.758.19 1.807.19 1.807s-1.14-.665-1.899-.29c-.756.384 0 2.092 0 2.092s-1.138-1.234-1.612-.567c-.57.664.095 2.28.095 2.28s-1.045-1.236-1.615-.569c-.664.57.38 1.994.38 1.994s-1.899-.854-1.424-.854z"/>
			</g>
			<path fill="#4d4d4d" stroke="none" d="m534.163 277.663-2.184 2.184.475 7.504s.475-2.184 1.138-.667c0 0 .191-1.803.666-1.517-.383-.193-.095-7.505-.094-7.505m-4.08 4.08-1.614 1.518.57 7.504s.475-2.849 1.138-.57c0 0-.096-1.898-.096-2.564.003.476.003-5.888.003-5.888m-16.996 16.82-1.52 1.611.38 4.56s.47-2.943 1.13-.666c0 0-.19-1.895-.19-2.563 0 .476.19-2.945.19-2.945"/>
			<g fill="none" stroke="#4d4d4d" stroke-width=".855">
				<path d="M511.185 279.754c1.045 1.045 3.989 4.841 3.989 4.841m-2.655-2.75c-.189.571-.567 2.183-1.422 3.039m1.889-2.666c-.096.38-.096 1.614-1.422 2.85m1.898-2.27c-.19.661-.285 1.137-.758 1.613m1.047-1.045c0 .474-.283.57-.378.855m-3.131-2.666c-.38.378-3.135 2.183-4.653 2.753m3.887-1.708c-.378.382-2.09 1.71-3.038 2.091m2.758-.952c-.57.383-1.52 1.33-2.277 1.615m1.697-.476c-.38.474-.95.855-1.422 1.14"/>
				<path stroke-linecap="square" d="M492.144 285.923c.31-.572.85-1.695 1.556-2.722.896-1.304 1.282-1.525 1.75-1.983"/>
			</g>
		</g>
	</g>
	<g stroke-width=".475">
		<path fill="#358b03" stroke="#060" d="M400.471 362.476c1.424.663 0-4.654.473-6.648.57-2.089 4.653 5.128 6.65 6.08 2.089 1.043 14.812-5.035 14.812-5.035l3.038-5.698 1.615 4.652s3.513-4.084 4.558-5.602 0 3.04-1.045 4.559c-1.046 1.52 3.038 2.09 2.562 5.128-.476 3.041 4.083-2.089 4.083-2.089l11.774 1.046s1.991-7.125 5.126-11.208l.95 4.56 4.842-4.936c5.413 14.247 16.81 29.727 40.166 38.178 21.934-7.977 33.235-22.13 39.12-35.617l6.552 6.748s5.129-1.523 6.078-2.09c1.043-.476 12.058 3.895 12.058 3.895s1.995.759 3.04 1.52c1.043.759.283-3.325.283-3.325s5.603 1.044 5.127 4.084c0 0 1.235-2.85 2.28-3.323 1.046-.476 3.512 2.564 4.084 3.607.475.952 12.535 2.47 14.243 3.514 0 0 1.33 1.522 1.33 2.566 0 0 2.564-.287 4.56-.287 0 0-1.52.756-1.52 2.374 0 1.52-.76 2.757-2.28 3.513-1.52.76 0 1.328 1.995 1.522 2.089.282 0 2.846-4.084 4.37 0 0-.95 2.277.76 3.035 0 0-3.515.288-4.083-.758 0 0-1.232 2.373-1.232 3.61 0 0-3.799-1.238-4.844-1.806 0 0-1.52 1.517-.476 2.277 0 0-6.93-.758-8.26-3.322 0 0-2.47.758-1.995 1.614 0 0-4.842-3.322-6.36-3.322l-1.046 1.705s-3.323-1.993-4.368-1.993c-.952 0-.19 1.52-.19 1.52l-4.651-2.85-1.803 2.85s-3.8-1.807-4.843-2.565c-.952-.76-1.232 1.519-1.993 1.802 0 0-1.52-2.086-3.61-1.802 0 0-.757 2.562-.473 3.323 0 0-5.888-1.233-6.93-1.521-1.046-.28-.475 1.24 0 2.29 0 0-4.37-1.233-5.32-1.996l-.284 1.997s-3.605-.286-4.365-1.045l-2.28 3.13h-3.323l-.758 2.755s-5.741-2.11-6.27-.668c-.473 1.043-.377 2.473-.377 2.473l-4.717-.316-1.446 2.543s-6.37-2.438-7.89-1.49c0 0-3.012 1.915-4.342 2.389-1.68-1.697-2.954-2.301-4.583-2.84-1.674-.266-5.317 1.988-6.648 1.228 0 0 0-1.805-1.042-2.28-.952-.475-2.754-.475-3.516.76 0 0-.756-1.044-2.087-3.04-1.233-2.09-3.04.19-3.04.19l-.284-2.47-3.514-.285c-2.09-.283-2.563-2.09-2.563-2.09s-5.412.57-6.171.288l1.328-1.236s-7.405 1.522-8.923.952c-1.614-.474 1.708-2.565 1.708-2.565s-6.837-1.705-8.166-1.992c-1.233-.283-8.642 1.23-9.687 1.23s-1.52-1.71-1.52-1.71-1.805 1.522-3.324 1.998c0 0-1.234-3.038-.473-3.324 0 0-4.842 1.33-5.128 2.567 0 0-1.232-1.995-1.045-2.85 0 0-2.278 3.61-3.323 4.368-1.045.76-.19-1.805-.19-1.805s-2.847 3.608-3.893 3.894v-2.565s-8.166 4.368-10.444 3.8c0 0 0-1.81.759-2.28l-5.128-.286c-1.232-.188-2.754-.756-4.082-1.044-1.232-.19 1.805-1.518 3.894-.95 0 0-5.697-2.09-7.408-1.046 0 0-.76-2.088 2.277-2.85 0 0-3.893-3.795-6.173-3.512 0 0 2.567-1.518 4.655-.76 0 0-2.375-6.456-3.894-7.215 0 0 5.413-.95 6.932-.19z"/>
		<g stroke="#000">
			<path fill="#d67c59" d="m392.585 251.072 69.127-35.803c.331-1.851-.719-3.304-1.804-4.75-19.768 9.695-37.759 21.46-59.726 28.588-1.234.476-12.154 5.032-17.757 11.777-1.777 1.78-1.908 4.41-1.908 4.41s.136 3.014.77 3.828c0 0 .165.829 1.198 1.49-.012 0 .638.318 1.088.157.501.093 1.318.088 2.458-1.91 1.14-1.9 4.845-6.267 6.553-7.79z"/>
			<path fill="#e8e8e6" d="m448.23 215.652 8.925-4.275s3.04 2.279 2.753 4.844c0 0 .666 5.887 7.979 9.97 0 0-6.174 7.69-16.996 8.358 0 0 1.24-10.152-1.036-13.097 0 0-.38.364-.215-.14.323-.988-.22-4.375-1.605-5.121-.17-.094.108-.37.196-.54z"/>
		</g>
	</g>
	<path fill="none" stroke="#4d4b4d" stroke-width=".76" d="M458.674 216.884c-1.898.76-8.07 3.987-8.07 3.987m5.13-2.09c-.096.95-.665 3.23 0 4.85m-.858-4.553c0 .474-.76 2.184.096 4.464m-1.039-3.988c-.19.952-.379 1.52 0 2.566m-.765-1.997c-.19.57 0 .857 0 1.233m5.6-1.521c.284.758 2.848 4.747 4.368 6.362m-3.985-4.56c.286.759 1.71 3.513 2.753 4.56m-2.94-2.946c.379.95 1.139 2.66 1.898 3.609m-1.898-1.706c.19.76.57 1.71 1.139 2.377"/>
	<g stroke="#000" stroke-width=".509">
		<path fill="#d67c59" stroke-width=".475" d="M520.884 198.923c-1.264.152-2.403 1.015-3.685 3.2-2.25 4.283-1.7 6.62 5.07 9.553l25.39 12.435c5.09 2.474 6.92.184 9.79 1.433l50.111 25.527c4.298 1.88 6.705 2.48 6.086 4.704-.084 2.867.93 3.26 1.626 3.396 1.08.452 1.916.707 2.144-.541.165-.248-.136-.65-.456-1.175-.32-.527-.659-1.178-.576-1.921.082-.743.143-1.092.39-1.484.248-.392.682-.824 1.508-1.732.412-.454.801-.654 1.172-.69.37-.036.721.09 1.056.286.463.27.866.584 1.28.876 1.672-.135.184-2.506-.975-3.408-2.52-1.182-2.81 1.5-5.465 1.217 0 0-4.748-1.81-6.459-3.04-3.148-1.72-7.545-3.75-8.545-4.87-3.2-.6-27.283-14.148-40.927-20.948-1.463-1.224-2.26-5.755-5.136-7.272-.846-1.222-19.316-9.656-28.976-14.485-1.78-.664-3.17-1.222-4.433-1.069z"/>
		<g fill="#ffa54b" transform="translate(150.593 67.515) scale(.93334)">
			<path fill="#ad7c59" fill-opacity=".99" d="M309.734 165.117c-.203.61-.712.203-.712.408-.405 2.135-.305 3.253-.813 4.475-.712 1.424-3.256 2.748-3.154 2.645-2.033.61-4.474 3.054-8.44.814-.205-.1-.407-.306-.61-.508 0 0 1.116 4.17-2.95 6.204-1.425.713-15.77 8.244-15.77 8.244s-1.527 2.748-.51 6.512c.103.61.305 1.118-.305 1.526-.916.71-2.646 2.748-3.662 6.004 0 0-3.053-1.324-3.053-3.256 0-1.934 1.22-2.95 1.526-4.378.304-1.32 1.117-4.68.712-5.698-.406-1.12-2.238-1.526-2.95-1.933-.61-.41-1.425.405-1.322 1.32.103 1.02.813.813 1.628 1.02 0 0-.916 1.93-.813 3.355l-9.257 4.79s1.22 1.629 1.627 2.34c.405.715 1.32 10.178 4.07 14.656 2.746 4.479 3.662 3.258 4.272 3.868.508.508 1.32 1.32 2.034 1.934.712.51 3.865.812 4.477-.915.712-1.631 1.22-2.648 3.154-4.175 1.933-1.523 5.9-5.39 5.9-7.122 0 0 2.34 6.717 2.033 12.314 0 0 8.546 1.732 16.177 1.933 7.632.106 11.497-1.523 11.497-1.523s1.018-6.41.608-7.632c0 0 1.22 4.172 2.137 5.596 1.018 1.727 2.135 5.288 4.373 5.493 2.137.1 3.97-2.135 4.17-3.05v-6.717h8.648c0-.1 3.867 1.425 5.087 1.22 1.22-.101 1.933-1.22.813-1.627l-.405-.303c1.117 0 2.543.71 2.543.71h4.27c.104-.103 0-.411-.102-.511-.305-1.22-2.544-2.24-4.17-2.95-1.63-.61-3.46-1.324-4.68-1.424-1.933-.206-3.257-.1-6.207.408-.814.1-3.866.406-5.8 1.32-.51.308-1.02.408-.813-.914.306-1.426.204-7.835-1.32-10.583-1.12-1.932-1.018-3.562-.814-5.188.104-1.63.204-7.226 0-8.855-.306-1.627-2.544-3.867-6.61-4.375-3.867-.51-7.124-3.664-7.326-6.207-.305-2.542.408-7.223.814-9.257"/>
			<g fill="none">
				<path fill="#b68a6a" d="M292.444 153.627c-.712 3.253-.712 6.104-.61 9.257.103 2.135 1.12 4.577 2.035 6.715.61 1.426 1.425 3.052 2.746 3.867 3.563 2.34 6.92-.204 8.853-1.018.916-.308 2.34-1.626 2.747-2.442.508-1.22.303-2.135.812-4.475-.103.1.813-.408.712-.408.916-1.526.712-2.034 1.22-3.054.51-1.018-.608-2.136-1.83-1.93.608-1.934 1.018-4.073.404-5.905-.202-.608.51-2.235-.608-1.832-4.58 1.832-9.97 1.426-14.854 1.426-.406 0-.712-.815-1.32-.71-.104 0-.205.303-.308.505"/>
				<path fill="#000" d="M292.034 155.347c-.508-.406-.61-1.32 0-3.256.712-1.928 0-2.033 1.12-3.152 1.12-1.12.813-1.63 1.525-1.94.71-.208 2.848-.208 3.56-.51.61-.308 1.526-.714 2.948-.916 1.526-.308 4.58-.206 6.003.608 1.527.812 2.545 2.85 3.46 3.56 1.02.71 1.63 3.662 1.427 7.94-.307 4.27-1.12 3.457-1.12 3.457s-1.222-2.034-2.238-.308c0 0 0-1.627.203-2.85.102-1.218-.61-3.457.102-4.984 0 0-5.8 1.832-8.75 1.73-3.052-.203-7.323-.917-7.527-1.627l-.714 2.237"/>
				<path fill="#fff" stroke="#fff" d="M294.984 151.797c-.305-.61-1.832-2.85-.61-3.56 1.12-.613.407 2.744 1.936 3.457 0 0-.51 1.526-1.32.102z"/>
				<path d="M298.344 160.137c-.508 1.732-.712 2.138-.916 3.156m10.586 1.624c.204.61.404.303.914.405m.406-3.965c.51-.61 1.22-.303.813 1.223"/>
				<path d="M292.444 157.697c.916.303 1.832.608 2.748 1.02 1.526.61.61 2.845.204 4.27-.204.715-1.02 1.934-.61 2.547.51.81 1.12.303 2.036.403 0-.303.61-.508.813-.508.712-.1 1.12.507 1.627.307.61-.308.51-1.224.306-1.73m-.104-4.479c.102-.403 1.018-.81 1.526-.915 2.136-.405 3.66-.712 5.393.51m-5.699 11.085c-1.73.408-3.56.71-5.188-.206m-.002-.804c.813-.408 1.12-.816 2.137-.308 0-.102 1.12-.406 1.12-.406.813 0 1.323.304 2.137.812m-5.494.302c.916-.306 3.358-.306 5.394.102"/>
				<g stroke-width=".305">
					<path fill="#fff" stroke-linecap="round" stroke-linejoin="round" stroke-width=".304" d="M292.344 160.137c.713-.1 1.526-.916 3.154.306 1.12.712-1.832 1.426-1.322 1.324-1.32.202-1.73-.508-1.828-1.122 0-.202-.204-.508 0-.508zm8.34.81c.712-1.426 1.832-1.12 2.85-.816 1.018.307.712.106 1.628.614-1.12.203-.814.303-1.63.71-.915.408-1.728.61-2.34.206-.204-.206-.712-.508-.712-.916 0 .1.102.203.204.203z"/>
					<path fill="#000" d="M293.764 161.357c.406 0 .712-.406.712-.814 0-.508-.306-.916-.712-.916-.507 0-.812.408-.812.916 0 .408.303.814.812.814zm8.65.2c.405 0 .712-.403.712-.916 0-.507-.407-.81-.813-.81-.405 0-.712.303-.712.81 0 .515.408.917.814.917z"/>
				</g>
			</g>
			<g id="a">
				<g fill="none">
					<path d="M345.854 213.657c-.608-.714-1.018-1.02-1.83-1.324-.61-.303-1.424-.71-2.036-1.016-.712-.408-1.73-.508-2.34-.916m.406 2.646c-.306-.203-.508-.304-.812-.51-.306-.1-.712-.1-1.02-.203-.102 0-.102-.204-.203-.204-.916-.102-1.832-.51-2.44-1.32m-62.775-9.363c.914.71 3.152 2.24 3.356 5.19.204 1.525 1.02 3.05 1.02 3.05m-13.126-7.83c.51 1.727.61 7.425 6.003 13.43m-4.983-21.37c-.408 1.12-.916 2.137.202 2.95m14.448 10.69c1.12-2.545 4.578-2.342 4.578-4.782"/>
					<path d="M284.814 207.247c-.306-2.85-.916-4.475-.405-8.647.2-1.223.4-5.9 0-8.14 0 0 1.62 7.832-3.67 9.362m34.385 12.515c0-3.97.916-6.21.916-6.21 1.22-5.592-1.12-7.73-.203-9.154.812-1.22 2.035-3.766.407-8.854 0 0 2.847 10.48-4.478 10.48-7.425 0-7.12-2.75-7.12-2.75"/>
					<path d="M284.404 190.457c0 2.135 0 8.447 9.055 8.447 2.745 0 5.697-1.933 7.323-3.256m2.242-2.751c-.306-1.934-.306-4.375-.306-6.92m-13.634-3.45c2.44-.308 4.376-.61 8.955-.61m.305-6.32c.51 2.24-.304 5.8 3.866 6.31m4.374-7.12c-.61 1.63-.61 3.256-.814 4.375m.204 2.755c1.73 0 4.985-1.12 9.054-.306m1.426 22.786c.813 1.63 1.018 3.765 3.56 6.207m-31.74-11.397c.204 1.324-1.73 5.698-.306 9.262 1.322 3.558 1.12 7.63-1.12 11.088m6.616-19.02c-.813 1.626-2.238 3.256-2.544 4.68m6.604-1.63c0 1.018-2.744 8.75-4.68 10.886 0 0 3.56 1.424 3.05 6.614m7.33-21.06c0 1.324-.204 1.63.916 2.44m2.444 0c1.32 1.628 5.492 6.514 4.576 9.26m-7.326-6.51c.306 1.018.306 6.31-.61 8.955m-2.13-.205c-1.12 0-2.746.814-3.052 2.747m8.742-3.057c1.118-.306 3.355 1.626 3.355 7.123m15.675-10.273c-2.136.61-3.052 1.732-2.44 1.12-1.12.915-2.138 1.525-2.138 1.525"/>
				</g>
				<path fill="#000" stroke-width=".305" d="M289.794 197.987c.608 0 1.118-.408 1.118-.916 0-.41-.507-.815-1.118-.815-.51 0-1.02.405-1.02.816 0 .506.508.917 1.02.917zm23.1.31c.51 0 1.02-.405 1.02-.916 0-.504-.508-.81-1.02-.81-.607 0-1.118.306-1.118.81 0 .512.51.917 1.118.917z"/>
				<path fill="#e8e8e6" d="M280.544 239.807c1.22-7.937 4.985-14.55 5.086-15.162 0 0 3.865.816 10.58 1.424 6.612.699 8.444.396 11.496.189 2.95-.3 6.815-.809 6.815-.809s1.222 2.44 1.323 4.883c.305 5.188 2.236 27.677 2.44 33.68 0 0 .813 3.56.813 12.31 0 9.568 2.645 29 2.645 39.382l-2.644.51s-14.446 1.12-14.446-.814c0-2.133-.813-27.064 1.322-42.124 0 0-.508-2.95-1.322-5.496-.813-2.444-4.375-10.075-4.375-11.701 0 0-5.695 16.074-6 18.826-.305 2.543-1.12 38.357-1.63 41.312 0 0-8.24 6.308-9.36 6.92-1.117.51-9.053-3.36-9.257-4.375-.306-1.118.814-13.23 4.578-33.176 1.425-7.123.61-8.44.61-10.375 0-1.933.103-27.473 1.322-35.41z"/>
				<path fill="none" d="M294.274 274.917c-.61 2.24-1.628 4.375-3.56 5.803m-2.75-53.633c-.304 1.322-2.238 7.325-7.122 10.887m14.242-9.767c-1.12 3.562-5.493 22.693-6.31 45.383m-.3 7.127c-.204 2.135-1.322 18.012-1.628 20.756m-.812 3.054c-.51 1.117-2.746 10.375-2.746 18.62m32.246-35.92c-.204 1.933-1.02 15.668 3.56 27.98m-18.51-85.98c-.305 2.237-.813 16.688-.813 17.806 0 1.117 1.63 2.747 2.442 3.054 0 0-1.628.51-1.933 6.003m-4.076-12.923c-.308 1.727-1.934 8.547-3.054 11.295m13.124-25.435s4.884 1.018 5.188 0c0 0 1.628 29.512 3.866 45.89m-11.184-42.13c0 1.934-.61 16.485-.61 16.485m2.44 2.135s1.93 2.745 1.425 4.066m-17.805-28.076c1.63.508 3.053.812 3.053.812m5.187 1.628c-.307.814-.61 4.58-.61 4.58m8.75 38.87c.61.814 1.425 1.936.814 4.377"/>
				<path fill="#d67c59" d="M284.914 224.447s0-3.256 1.22-4.886c0 0 3.457.715 8.342 1.223 4.984.508 8.95.916 12.615.508 3.664-.405 7.43-1.32 7.43-1.32s1.016 4.783.505 5.495c0 0-3.968.814-8.34 1.016-4.478.304-11.903-.407-14.446-.81-3.36-.41-6.31-1.02-7.326-1.223z"/>
				<path fill="#fff" d="m288.064 224.847.608-4.883 1.02.1-.204 5.088zm22.08-4.07.103 5.496 1.22-.206-.1-5.597zm-15.67 0-.406 5.29h.713l.713-5.29z"/>
				<path fill="#653024" d="M276.774 320.807c-.305 1.322-.812 3.154-1.018 5.496 0 .508-.507 3.256 1.018 3.356 1.12.102 1.425-2.85 1.425-2.85s-1.02 3.256.304 3.664c1.832.403 2.034-3.562 2.034-3.562-.204 1.12-1.425 3.97.306 4.27 1.83.308 2.34-3.866 2.34-3.866s-1.526 4.174.304 4.275c1.73.1 1.73-4.07 1.73-4.07s-.917 4.987 1.525 4.58c1.32-.204 1.628-1.935 1.933-2.952.406-1.524 1.322-3.457.204-6.612-.812-2.34-.507-2.95-.507-2.95s-2.85 2.137-5.087 3.56c-1.02.61-6.514-2.34-6.514-2.34zm29.71-4.38c-.508-.307-.406 1.832-.61 2.846-.102 1.02.205 3.257 3.664 3.055 3.355-.307 6.715-1.018 8.85-.51 2.138.61 5.29.712 7.022.712 1.73 0 2.85-.202 3.66-.51.714-.302 2.24.41 2.95.41.714 0 1.832-1.12 1.73-1.833-.102-1.324-1.32-1.324-3.053-1.424-1.628-.203-3.865-.51-4.983-.916-1.12-.408-3.154-1.527-5.698-2.035 0 0-4.883.205-5.898.205-1.02 0-7.022.303-7.634 0z"/>
			</g>
			<g fill="#ad7c59" stroke-linecap="round">
				<path stroke-linejoin="round" d="M255.714 189.847c-.507.306-1.12-2.035.406-2.95 0 0 .406-1.932 2.035-2.137 0 0 1.32-1.832 3.257-1.626 0 0 2.235-1.525 3.05-1.324.813.102 2.85 2.136 2.95 2.85.205.71 0 1.933-.51 2.442-.61.608-1.018-.102-1.12-.916 0 0 .408 1.524-.812 2.135-1.22.715-1.12.207-1.22-.61 0 0-.307 1.63-1.12 1.84-.813.308-1.32-.405-1.934-.405 0 0 1.02.816.307 1.426-.713.51-1.526.304-2.036-.1-.51-.51-1.12-1.833-3.257-.61z"/>
				<path d="M265.684 186.087c-.51-1.63-2.137-3.054-4.07-2.848m2.24 4.368c-.306-.408-.408-.816-.712-1.22-.916-1.528-2.85-1.424-4.477-1.832m2.44 4.582c-.61-.406-.814-1.222-1.426-1.524-1.02-.408-2.04-.916-3.26-.714"/>
			</g>
		</g>
		<g transform="translate(150.597 67.511) scale(.93334)">
			<path fill="#653024" d="M439.14 165.12c.712-.306.51.61.61.916.306 1.32.306 2.748.813 3.967.608 1.12.812 1.526 1.83 2.035 1.627.916 6.407 3.562 9.767 1.424.204-.1.508-.306.712-.508 0 0-1.22 4.172 2.95 6.207 1.32.71 15.668 8.242 15.668 8.242s1.525 2.748.61 6.512c-.205.61-.406 1.118.203 1.526 1.02.71 2.644 2.748 3.766 6.004 0 0 2.946-1.324 2.946-3.256 0-1.934-1.22-2.95-1.525-4.375-.2-1.324-1.016-4.682-.607-5.698.405-1.118 2.135-1.526 2.847-1.936.714-.41 1.526.405 1.322 1.32-.102 1.02-.812.817-1.628 1.02 0 0 1.02 1.93.814 3.355l9.358 4.783s-1.22 1.63-1.628 2.34c-.51.715-1.425 10.175-4.17 14.653-2.75 4.48-3.664 3.26-4.172 3.87-.61.51-1.424 1.33-2.137 1.94-.61.51-3.765.816-4.477-.914-.712-1.63-1.22-2.648-3.153-4.175-1.934-1.522-5.9-5.39-5.9-7.121 0 0-2.34 6.72-2.035 12.314 0 0-8.443 1.732-16.176 1.937-7.632.1-11.498-1.53-11.498-1.53s-1.018-6.41-.61-7.632c0 0-1.22 4.172-2.033 5.596-1.12 1.727-2.237 5.29-4.376 5.493-2.236.104-3.968-2.135-4.27-3.05v-6.717h-8.647c0-.1-3.766 1.424-5.087 1.223-1.22-.107-1.832-1.225-.813-1.632l.407-.304c-1.109 0-2.533.71-2.533.71h-4.273c.001-.102.104-.41.104-.51.308-1.218 2.546-2.24 4.273-2.95 1.628-.608 3.356-1.323 4.578-1.423 1.935-.203 3.258-.1 6.208.408.812.1 3.967.41 5.798 1.324.508.304 1.118.405.813-.915-.305-1.426-1.22-5.598.307-8.346 1.018-1.931.916-3.56.813-5.19-.204-1.726-1.118-5.595-1.118-7.322 0-5.7 4.375-8.04 8.24-9.262 4.272-1.32 7.12-2.748 6.92-5.288-.104-2.645.608-7.02.202-9.057"/>
			<g fill="none">
				<path fill="#653024" d="M456.34 153.63c.916 3.356 1.12 4.17 1.12 5.29 0 1.22-.51 1.425-.104 2.75.713 2.44-.712 5.087-2.44 7.936-.814 1.32-1.425 3.052-2.747 3.866-3.357 2.135-7.428-.408-9.564-1.327-1.117-.505-1.73-1.32-2.033-2.135-.407-1.22-.51-2.34-.813-3.967 0-.306.103-1.22-.61-.916-1.22-1.424-1.017-2.034-1.523-3.05-.51-1.022.916-2.14 2.034-1.935-.61-1.933-.915-4.072-.305-5.904.204-.608-.508-2.235.51-1.832 4.577 1.832 9.97 1.426 14.854 1.426.403 0 .71-.812 1.32-.71.097 0 .2.305.3.508"/>
				<path fill="#000" d="M456.75 155.35c.508-.406.204-2.34-.306-4.375-.203-1.017-1.018-1.424-2.136-2.542-1.12-1.122-1.525-1.122-2.236-1.424-.61-.207-2.034-.207-2.746-.51-.61-.307-2.238-.104-3.766.102-2.036.304-3.153.202-4.68 1.018-1.525.814-2.745 1.73-3.255 3.256-.406 1.118-1.12 2.542-.814 6.817.205 4.272 1.02 3.458 1.02 3.458s1.12-1.627 1.84-.61c0 0-.101-2.24-.303-3.56-.103-1.222 0-2.748.51-4.58 0 0 4.678 1.732 9.053 1.732 3.053 0 7.02-.306 7.123-1.017l.71 2.235z"/>
				<path d="M450.44 160.14c.61 1.732.104 1.222.408 2.34m-10.278 2.03c0 .812-.61.61-1.02.61"/>
				<path d="M456.85 158.82c-.916-.713-2.645-.204-3.46.102-1.525.71-.712 2.24-.204 3.664.204.71 1.02 1.727.51 2.44-.406.813-.712.41-1.628.51.104-.307-.812 0-1.117 0-.599-.1-.904.404-1.414.203-.609-.305-.509-1.22-.307-1.73m.1-4.49c0-.402-1.32-.81-2.745-.914-2.238-.102-2.442.104-4.172 1.322m11.497 8.953c-.405-.608-1.018-.916-2.137-.405 0-.204-1.524-.406-1.524-.406-.813 0-1.322.302-2.137.71m5.588.61c-.916-.61-3.256-.2-5.596-.2m.206.81c1.73.512 3.46.816 5.188 0"/>
				<g stroke-width=".305">
					<path fill="#fff" stroke-linecap="round" stroke-linejoin="round" d="M456.44 160.14c-.712-.1-1.018-.916-3.153.306-1.12.61 1.832 1.426 1.425 1.324 1.22.202 1.628-.508 1.73-1.122-.002-.203.202-.508-.002-.508zm-8.34.81c0-.816-1.83-1.12-2.847-.816-1.02.306-.61.105-1.526.613 1.02.203.712.303 1.526.71.914.408 1.12.814 2.34.206.305-.105.71-.508.812-.916-.1.1-.202.203-.305.203z"/>
					<path fill="#000" d="M455.12 161.36a.802.802 0 0 1-.813-.814c0-.508.307-.916.813-.916.405 0 .712.408.712.916 0 .408-.307.814-.712.814zm-8.75.2c-.406 0-.712-.403-.712-.916 0-.508.403-.81.812-.81.41 0 .712.302.712.81 0 .514-.303.916-.812.916z"/>
				</g>
			</g>
			<use xlink:href="#a" width="100%" height="100%" fill="#d67c59" transform="matrix(-1 0 0 1 748.816 0)"/>
			<g fill="#653024">
				<path stroke-linecap="round" d="M491.64 193.51c.508.206 1.934-2.033.508-3.05 0 0-.508-1.933-2.136-2.035 0 0-1.322-1.933-3.257-1.63 0 0-2.136-1.524-2.948-1.42-.916.2-2.95 2.236-3.053 2.95-.102.608 0 1.83.508 2.44.61.51 1.02-.104 1.12-1.02 0 0-.406 1.53.812 2.24 1.22.71 1.12.1 1.22-.71 0 0 .307 1.626 1.12 1.932.813.303 1.322-.408 1.935-.408 0 0-1.02.814-.306 1.323.713.61 1.525.303 2.035-.104.61-.405.305-1.728 2.44-.51z"/>
				<path stroke-linecap="round" stroke-linejoin="round" d="M482.49 189.75c.506-1.73 2.235-3.153 4.067-2.85m-2.137 4.38c.203-.41.305-.816.61-1.224.915-1.524 2.948-1.524 4.576-1.832m-2.546 4.476c.61-.408.814-1.118 1.426-1.42 1.018-.513 2.136-.917 3.256-.715"/>
				<path stroke="none" d="M482.31 186.77c-.896.716-1.837 1.798-1.906 2.28-.103.61-.008 1.828.5 2.44.55.46.95-.018 1.095-.782-.06.463-.072 1.465.843 2 1.22.71 1.118.095 1.22-.72 0 0 .31 1.636 1.124 1.94.813.305 1.325-.407 1.938-.407 0 0-1.026.805-.312 1.313.712.61 1.522.31 2.03-.094.61-.41.3-1.723 2.44-.5.266.105.803-.453 1.03-1.157l-7.688-5.53z"/>
				<path d="M480.68 188.19c-1.502 2.582.5 4.132 1.164 2.62-.193 2.385 1.606 2.29 2.285 1.537.657 2.512 1.83 1.395 2.908 1.164-1.223 2.29 1.48 1.61 2.12 1.082.924-1.362 1.356-.277 2.036-.416l1.164-1.247m-7.977-5.7c-1.686.896-2.512 2.137-2.535 3.7m4.865-2.2c-1.687.896-2.512 2.137-2.535 3.7m5.405-1.75c-1.687.897-1.765 1.722-2.493 2.826"/>
			</g>
		</g>
	</g>
	<g fill="#ffe682">
		<path d="M500.078 419.363c21.366.192 33.996-7.597 40.927-12.251 16.237-10.92 19.656-11.3 22.316-11.113 3.039.29 7.498 1.332 7.69 3.992.285 4.084-6.36 5.888-10.16 5.888-3.893 0-14.056-2.565-14.056-2.565l-2.66 1.806c1.805.856 22.601 7.786 26.59 1.235 4.08-6.648 8.166-17.381 8.166-17.381s-4.558-8.167-14.72-8.167c-10.245 0-20.215 6.46-26.86 11.298-6.65 4.844-15.004 11.492-37.226 11.492-22.22 0-30.67-6.648-37.315-11.492-6.646-4.842-16.618-11.299-26.778-11.299-10.253 0-14.812 8.167-14.812 8.167s4.082 10.733 8.165 17.382c3.987 6.55 24.785-.38 26.586-1.236l-2.564-1.807s-10.254 2.564-14.055 2.564c-3.893 0-10.54-1.803-10.255-5.886.19-2.66 4.652-3.705 7.69-3.99 2.66-.187 6.08.192 22.316 11.112 6.934 4.653 19.564 12.156 41.024 12.251"/>
		<path d="M465.703 394.19s0-1.807-.288-4.464c-.38-3.419-2.372-4.274-3.985-3.797-1.046.374-3.133 2.943-3.133 2.943v.096a30.206 30.206 0 0 0-2.945-1.804c.76-.856 5.128-3.514 6.172-3.514.952 0 14.054 5.317 18.23 8.925 1.046.952 1.806 6.84 1.234 8.736-7.026-1.803-11.583-4.462-15.288-7.027v-.095m-6.27 13.302s-2.85 2.847-2.943 8.072c-.095 6.172 4.369 6.459 7.312 6.362 3.51-.096 6.36-2.088 6.26-8.64 0 0-5.797-2.472-10.639-5.795m74.93-13.3s.095-1.807.38-4.464c.376-3.419 2.277-4.274 3.892-3.797 1.045.374 3.133 2.943 3.133 2.943v.096a30.065 30.065 0 0 1 2.941-1.804c-.758-.856-5.125-3.514-6.077-3.514-1.044 0-14.146 5.317-18.324 8.925-.954.952-1.713 6.84-1.236 8.736 7.122-1.803 11.583-4.462 15.288-7.027v-.095m6.263 13.302s2.85 2.847 2.944 8.072c.191 6.172-4.369 6.459-7.309 6.362-3.517-.096-6.269-2.088-6.269-8.64 0 0 5.793-2.472 10.637-5.795"/>
	</g>
	<path fill="#171696" d="M453.26 403.31s-10.16 2.565-13.958 2.565c-3.892 0-10.54-1.802-10.255-5.888.192-2.66 4.654-3.702 7.692-3.987 2.268-.193 5.212.093 16.512 7.31m93.54 0s10.16 2.565 14.054 2.565c3.798 0 10.444-1.802 10.16-5.888-.19-2.66-4.652-3.702-7.692-3.987-2.28-.193-5.223.093-16.522 7.31m-81.097-9.026a90.002 90.002 0 0 1-3.042-2.277c-1.424-1.047-2.85-1.997-4.368-3.04 0 0 2.088-2.66 3.132-2.945 1.614-.57 3.607.282 3.985 3.702.287 2.66.287 4.563.287 4.563m-6.93 26.784c1.808 1.05 3.8.96 5.036.86 3.513-.09 6.359-2.09 6.266-8.64 0 0 4.366 2.189 11.49 3.898 0 0 1.138 1.424 1.327 4.272.288 2.378-1.33 4.938-3.226 4.75 0 .002-9.972-1.803-16.047-2.844-3.515-.665-4.844-2.281-4.844-2.281m75.59-26.79c1.042-.76 2.088-1.521 3.13-2.277 1.33-1.047 2.754-1.997 4.273-3.04 0 0-2.087-2.66-3.132-2.945-1.615-.57-3.514.282-3.892 3.702-.286 2.659-.381 4.562-.381 4.562m6.927 26.785c-1.805 1.046-3.8.952-5.034.856-3.513-.096-6.267-2.09-6.267-8.641 0 0-4.368 2.184-11.396 3.893-.001 0-1.233 1.424-1.424 4.272-.19 2.378 1.426 4.938 3.23 4.75 0 .002 10.064-1.803 16.047-2.844 3.513-.665 4.84-2.281 4.84-2.281"/>
	<g fill="none" stroke="#000" stroke-width=".664">
		<path d="M500.078 419.363c21.366.19 33.996-7.6 40.927-12.251 16.237-10.92 19.656-11.3 22.315-11.111 3.04.285 7.503 1.33 7.69 3.988.286 4.083-6.36 5.886-10.162 5.886-3.892 0-14.053-2.56-14.053-2.56l-2.658 1.805c1.804.855 22.598 7.787 26.586 1.232 4.084-6.647 8.165-17.38 8.165-17.38s-4.557-8.168-14.718-8.168c-10.255 0-20.226 6.46-26.873 11.302-6.646 4.845-15 11.491-37.222 11.491-22.22 0-30.67-6.648-37.315-11.49-6.647-4.843-16.62-11.303-26.778-11.303-10.254 0-14.812 8.17-14.812 8.17s4.08 10.73 8.165 17.378c3.988 6.552 24.785-.378 26.587-1.232l-2.562-1.806s-10.257 2.56-14.053 2.56c-3.895 0-10.541-1.799-10.257-5.885.19-2.67 4.652-3.71 7.692-4 2.657-.189 6.076.192 22.313 11.111 6.935 4.654 19.563 12.157 41.023 12.251z"/>
		<path d="M453.26 403.31s-10.161 2.565-13.956 2.565c-3.894 0-10.54-1.805-10.258-5.888.192-2.66 4.654-3.705 7.693-3.987 2.277-.193 5.222.093 16.522 7.31zm93.532 0s10.16 2.565 14.054 2.565c3.798 0 10.443-1.805 10.16-5.888-.19-2.66-4.65-3.705-7.689-3.987-2.279-.193-5.225.095-16.522 7.31zm-81.09-9.026a90.002 90.002 0 0 1-3.04-2.277c-1.421-1.047-2.847-1.997-4.368-3.04 0 0 2.09-2.66 3.133-2.945 1.615-.57 3.608.282 3.986 3.705.289 2.655.289 4.558.289 4.558z"/>
		<path d="M465.703 394.19s0-1.806-.288-4.464c-.377-3.419-2.372-4.274-3.985-3.797-1.046.378-3.136 2.943-3.136 2.943v.096a30.996 30.996 0 0 0-2.943-1.804c.76-.856 5.127-3.514 6.173-3.514.952 0 14.053 5.317 18.23 8.928 1.046.952 1.805 6.837 1.235 8.737-7.04-1.809-11.597-4.466-15.303-7.028m-6.265 13.204s-2.847 2.847-2.943 8.072c-.096 6.17 4.367 6.457 7.309 6.362 3.514-.096 6.359-2.088 6.269-8.645 0 0-5.793-2.47-10.636-5.794z"/>
		<path d="M461.81 408.91s-2.277 2.374-2.657 6.267c-.19 3.04 1.804 4.748 4.368 4.558 3.607-.187 5.034-5.126 3.323-7.88z"/>
		<path d="M458.767 421.071c1.806 1.046 3.797.95 5.033.856 3.514-.097 6.36-2.09 6.27-8.643 0 0 4.368 2.184 11.49 3.894 0 0 1.14 1.423 1.327 4.274.287 2.374-1.328 4.938-3.225 4.747 0 0-9.973-1.804-16.048-2.847-3.517-.667-4.846-2.28-4.846-2.28zm75.592-26.787c1.046-.759 2.089-1.52 3.133-2.277 1.331-1.047 2.754-1.997 4.275-3.04 0 0-2.088-2.66-3.134-2.945-1.614-.57-3.514.282-3.892 3.705a87.338 87.338 0 0 0-.38 4.558z"/>
		<path d="M534.36 394.19s.095-1.806.38-4.464c.378-3.419 2.277-4.274 3.892-3.797 1.045.378 3.133 2.943 3.133 2.943v.096a30.996 30.996 0 0 1 2.943-1.804c-.76-.856-5.127-3.514-6.078-3.514-1.045 0-14.146 5.317-18.324 8.928-.953.952-1.712 6.837-1.235 8.737 7.122-1.809 11.583-4.466 15.288-7.028m6.263 13.204s2.85 2.847 2.944 8.072c.19 6.17-4.37 6.457-7.313 6.362-3.513-.096-6.266-2.088-6.266-8.645 0 0 5.792-2.47 10.635-5.794z"/>
		<path d="M538.251 408.91s2.28 2.374 2.66 6.267c.286 3.04-1.806 4.748-4.37 4.558-3.6-.187-4.93-5.126-3.32-7.88z"/>
		<path d="M541.285 421.071c-1.805 1.046-3.799.95-5.034.856-3.512-.097-6.264-2.09-6.264-8.643 0 0-4.37 2.184-11.395 3.894 0 0-1.233 1.423-1.424 4.274-.19 2.374 1.424 4.938 3.23 4.747 0 0 10.064-1.804 16.044-2.847 3.515-.667 4.844-2.28 4.844-2.28z"/>
	</g>
	<path fill="none" stroke="#fff" stroke-width=".664" d="M480.804 418.887s3.133 2.282-.665 5.13m-8.734-6.651 9.591 4.18m-7.985-1.996 7.03 3.037m-4.55-4.838 5.32 2.377m38.55-1.239s-3.23 2.282.57 5.13m8.735-6.651-9.591 4.18m8.07-1.996-7.026 3.037m4.468-4.838-5.223 2.377"/>
	<g stroke="#000">
		<path stroke-width=".653" d="M443.256 389.674c.136.22.224.45.266.687.035.241.025.51-.028.807a2.28 2.28 0 0 1-1.127 1.598c-.616.362-1.322.462-2.103.313a3.578 3.578 0 0 1-1.058-.375 4.228 4.228 0 0 1-.863-.579c-.104.125-.214.243-.324.366l-.456-.086c.146-.92.29-1.839.444-2.757.149.028.304.056.462.089.028.356.087.679.162.977.072.299.196.582.36.864.155.256.352.48.597.66.237.18.532.309.882.373.263.052.498.06.71.028a1.17 1.17 0 0 0 .529-.196c.143-.102.265-.232.358-.39.09-.152.154-.334.196-.56a1.661 1.661 0 0 0-.102-.947c-.127-.313-.368-.571-.7-.784a49.437 49.437 0 0 0-.79-.487 11.03 11.03 0 0 1-.764-.491c-.416-.29-.726-.616-.912-1.002-.19-.375-.24-.828-.138-1.36a1.988 1.988 0 0 1 .352-.811 2.2 2.2 0 0 1 .67-.604 2.455 2.455 0 0 1 .872-.315c.322-.052.648-.047.974.015.37.07.7.192.973.36.27.172.52.348.732.549l.308-.336c.153.028.303.056.457.088l-.46 2.663c-.153-.031-.307-.058-.464-.09a10.924 10.924 0 0 0-.112-.927 3.458 3.458 0 0 0-.267-.833 1.89 1.89 0 0 0-.5-.64c-.208-.175-.489-.292-.835-.358a1.34 1.34 0 0 0-.992.17c-.296.187-.48.435-.542.766-.066.343-.036.646.085.905.118.263.321.492.607.7.252.187.508.347.76.497.248.149.484.298.718.457.208.138.413.29.6.457.18.164.34.346.46.539m11.65 1.633a3.506 3.506 0 0 0-.45-.17 1.367 1.367 0 0 0-.542-.082c-.159.013-.324.13-.5.345a5.516 5.516 0 0 0-.557.85c-.569 1.032-1.143 2.066-1.71 3.1-.22.395-.492.692-.82.893a2.443 2.443 0 0 1-1.056.354c-.369.04-.719.01-1.064-.071a4.048 4.048 0 0 1-.918-.358c-.432-.24-.793-.504-1.07-.806-.277-.305-.485-.612-.604-.93a2.164 2.164 0 0 1-.15-.946 2.014 2.014 0 0 1 .251-.862l2.33-4.218a.879.879 0 0 0 .104-.332c.002-.095-.042-.214-.12-.345a1.456 1.456 0 0 0-.262-.297c-.12-.097-.214-.176-.3-.23l.197-.357c1.008.555 2.008 1.109 3.015 1.66l-.198.356a3.018 3.018 0 0 0-.39-.15 1.88 1.88 0 0 0-.36-.102c-.14-.031-.256-.011-.34.067a.88.88 0 0 0-.23.269c-.728 1.317-1.456 2.63-2.18 3.945a3.24 3.24 0 0 0-.262.635 1.727 1.727 0 0 0-.077.725c.028.26.13.504.292.747.164.242.447.473.842.69.37.206.72.324 1.036.348.316.019.6-.02.852-.13a1.932 1.932 0 0 0 .607-.407 2.464 2.464 0 0 0 .415-.55l1.615-2.926c.205-.374.35-.693.423-.962.078-.266.08-.457.02-.593-.07-.153-.2-.308-.377-.465a3.45 3.45 0 0 0-.43-.342l.195-.355c.986.54 1.97 1.085 2.96 1.63l-.196.358m4.19 7.254c.127.259.2.543.206.845.005.304-.082.618-.27.943-.186.327-.42.57-.708.73a2.123 2.123 0 0 1-.91.27 2.856 2.856 0 0 1-.96-.088 3.92 3.92 0 0 1-.952-.387l-3.39-1.952.205-.355c.084.043.206.093.377.159.168.069.293.106.375.117a.524.524 0 0 0 .332-.062.692.692 0 0 0 .237-.261c.975-1.69 1.95-3.384 2.924-5.075a.915.915 0 0 0 .116-.33.541.541 0 0 0-.11-.343 1.632 1.632 0 0 0-.272-.31c-.112-.096-.202-.175-.285-.23.065-.116.136-.234.203-.351 1.1.632 2.2 1.266 3.304 1.903.257.148.487.31.695.494.2.187.374.402.514.648.13.23.21.485.217.756.009.272-.061.555-.224.84a1.755 1.755 0 0 1-.52.579 1.638 1.638 0 0 1-.672.284 2.476 2.476 0 0 1-.721.028 3.232 3.232 0 0 1-.772-.161l-.028.046c.194.145.394.325.604.546.21.229.377.467.49.719zm-.608-1.768a1.39 1.39 0 0 0 .53-.317 2.714 2.714 0 0 0 .42-.56c.219-.39.289-.757.202-1.102-.084-.351-.364-.653-.826-.92a26.941 26.941 0 0 0-.82-.447l-1.57 2.718c.214.12.423.242.638.364.278.16.532.26.77.306.239.042.457.033.657-.042zm-.595 2.657a1.577 1.577 0 0 0 .17-1.273c-.128-.435-.46-.8-.992-1.106a33.537 33.537 0 0 0-.545-.308c-.15-.08-.262-.137-.34-.178-.481.835-.955 1.662-1.433 2.49a.604.604 0 0 0-.02.62c.11.206.319.394.628.57.498.29.966.37 1.4.233.432-.14.807-.482 1.133-1.047zm18.387 4.197a3.36 3.36 0 0 0-.466-.123 1.39 1.39 0 0 0-.545-.028c-.155.028-.307.162-.465.393a5.703 5.703 0 0 0-.468.9l-1.393 3.259c-.178.414-.42.738-.725.97a2.501 2.501 0 0 1-1.014.458 3.136 3.136 0 0 1-1.066.029 3.987 3.987 0 0 1-.952-.26 4.229 4.229 0 0 1-1.143-.7c-.307-.276-.542-.56-.695-.865a2.164 2.164 0 0 1-.242-.925 2.024 2.024 0 0 1 .163-.887l1.898-4.428a.877.877 0 0 0 .072-.337.69.69 0 0 0-.154-.332 1.553 1.553 0 0 0-.292-.271c-.13-.084-.23-.154-.318-.2.053-.125.105-.252.158-.374l3.164 1.354c-.056.124-.107.25-.162.372a3.355 3.355 0 0 0-.395-.112 2.244 2.244 0 0 0-.37-.065c-.14-.01-.25.024-.333.109a.927.927 0 0 0-.2.295l-1.77 4.14a3.298 3.298 0 0 0-.203.655 1.731 1.731 0 0 0 0 .733c.053.257.177.488.364.713.188.223.49.427.907.604.39.17.75.25 1.07.242.313-.012.594-.077.831-.214.224-.13.42-.28.567-.462.146-.18.268-.378.36-.588.438-1.027.876-2.048 1.315-3.073.168-.392.278-.723.327-.997.046-.275.033-.465-.043-.592-.084-.147-.228-.287-.42-.425a3.618 3.618 0 0 0-.46-.3l.157-.371 3.107 1.33a12.01 12.01 0 0 0-.163.37m8.93 10.492-3.504-1.014.113-.392c.13.032.295.065.502.103.202.032.351.042.438.026a.788.788 0 0 0 .325-.171.692.692 0 0 0 .178-.314l1.646-5.697a1.34 1.34 0 0 0-.085-.023c-1.533 1.972-3.102 3.915-4.637 5.89-.092-.027-.182-.055-.279-.08-.187-2.521-.422-5.037-.609-7.554a.692.692 0 0 0-.074-.021c-.45 1.56-.902 3.116-1.35 4.677-.13.448-.2.796-.21 1.055-.017.254.03.446.112.584.06.102.21.22.448.368.235.148.392.23.47.258l-.114.39-3.204-.922.115-.393c.171.03.36.057.554.07a.985.985 0 0 0 .48-.06c.158-.067.29-.192.407-.397.108-.2.235-.547.378-1.045l1.158-4.008c.067-.23.093-.426.08-.59a.922.922 0 0 0-.135-.43 1.193 1.193 0 0 0-.363-.342 1.983 1.983 0 0 0-.476-.23l.112-.391 2.701.782c.178 2.18.404 4.36.58 6.54 1.11-1.461 2.25-2.897 3.361-4.357.125-.162.243-.33.35-.518a2.753 2.753 0 0 0 .194-.371c.86.247 1.726.497 2.585.747l-.109.39a3.75 3.75 0 0 0-.41-.063 2.32 2.32 0 0 0-.383-.022.428.428 0 0 0-.32.15.91.91 0 0 0-.165.315l-1.634 5.647a.77.77 0 0 0-.028.342.62.62 0 0 0 .193.306c.058.057.168.124.33.203.165.085.291.138.393.174-.04.126-.078.258-.116.39m8.488-2.58c.214.192.394.425.515.703s.168.6.12.97a1.96 1.96 0 0 1-.37.949 2.23 2.23 0 0 1-.734.6 2.962 2.962 0 0 1-.922.293c-.34.046-.68.053-1.03.01-1.292-.163-2.584-.328-3.878-.49l.05-.405c.094.007.228.007.411 0 .18-.001.313-.015.392-.037a.508.508 0 0 0 .282-.187.702.702 0 0 0 .12-.33c.242-1.936.484-3.873.73-5.812a.943.943 0 0 0-.02-.35.554.554 0 0 0-.237-.273 1.615 1.615 0 0 0-.37-.18c-.143-.044-.254-.084-.352-.101l.05-.404 3.786.476c.29.038.565.1.833.192.256.093.497.22.72.396.208.162.383.367.495.613.112.25.152.534.112.86a1.688 1.688 0 0 1-.76 1.259c-.199.134-.42.228-.656.304a3.313 3.313 0 0 1-.775.152l-.01.05c.234.06.49.147.77.272.276.126.523.28.726.468zm-1.246-1.393c.165-.148.29-.312.37-.498a2.691 2.691 0 0 0 .168-.68c.056-.444-.023-.804-.239-1.093-.215-.29-.585-.46-1.118-.527a26.507 26.507 0 0 0-.46-.055l-.475-.045c-.13 1.038-.26 2.076-.392 3.113l.728.09a2.489 2.489 0 0 0 .832-.015c.232-.052.427-.148.585-.292zm.48 2.68a1.59 1.59 0 0 0-.336-1.238c-.287-.353-.733-.56-1.34-.637a23.877 23.877 0 0 0-.624-.073 14.094 14.094 0 0 0-.386-.035l-.358 2.854a.608.608 0 0 0 .223.579c.18.145.448.24.8.283.57.074 1.031-.03 1.377-.327.346-.3.561-.76.644-1.403zm11.116 2.568h-2.228c-.485-.77-.938-1.416-1.328-1.98-.399-.555-.836-1.116-1.299-1.713h-.845v2.586c.001.13.026.252.065.348.042.103.135.182.275.236.07.028.191.05.366.075.175.023.323.036.443.04v.41H496v-.412c.091-.005.225-.02.408-.04a1.49 1.49 0 0 0 .366-.075.498.498 0 0 0 .254-.217.722.722 0 0 0 .075-.368V408.4c0-.131-.017-.253-.056-.36-.043-.1-.132-.18-.276-.233a2.165 2.165 0 0 0-.378-.096 2.947 2.947 0 0 0-.395-.054v-.408h3.812c.35 0 .675.03.985.102.308.077.582.187.83.346.24.155.436.347.576.597.143.247.216.545.216.896 0 .317-.05.59-.144.832a1.724 1.724 0 0 1-.433.626 2.45 2.45 0 0 1-.627.427 5.028 5.028 0 0 1-.808.31c.402.535.75.976 1.018 1.342.263.364.603.8.99 1.325a2.455 2.455 0 0 0 .873.778c.096.055.226.087.376.113.154.028.28.042.38.047-.002.134-.002.27-.002.408zm-3.06-6.072c0-.492-.15-.877-.43-1.176-.283-.29-.693-.43-1.217-.43h-.99v3.49h.763c.535 0 .988-.16 1.34-.504.35-.344.535-.797.535-1.38zm12.571 5.465-3.425.262c-.01-.137-.019-.274-.03-.41.301-.04.55-.097.75-.172.19-.074.284-.15.278-.233-.004-.035-.014-.074-.022-.126a.451.451 0 0 0-.044-.13c-.269-.592-.552-1.178-.824-1.771l-2.89.218a9.94 9.94 0 0 0-.208.72c-.052.204-.102.389-.142.56a3.482 3.482 0 0 0-.074.409c-.01.107-.017.19-.01.255.01.152.14.256.392.326.25.07.527.094.837.087l.032.41-3.1.234a18.21 18.21 0 0 0-.028-.408 1.941 1.941 0 0 0 .371-.096 1.206 1.206 0 0 0 .36-.174 1.4 1.4 0 0 0 .336-.356 1.82 1.82 0 0 0 .21-.482c.326-1.052.715-2.228 1.11-3.54.391-1.31.77-2.472 1.074-3.495l.465-.034c1.076 2.275 2.2 4.525 3.277 6.797.07.144.147.257.224.346a1.143 1.143 0 0 0 .688.352c.147.029.265.038.364.035.012.14.023.28.032.415zm-3.564-3.072c-.486-1.017-.997-2.03-1.488-3.052-.32 1.083-.667 2.16-.99 3.24zm15.28-6.43-.417.113c-.16-.274-.41-.536-.747-.805-.338-.266-.63-.382-.868-.357a5.725 5.725 0 0 0-.42.08c-.163.04-.342.084-.548.138l-1.335.364.855 3.157c.304-.084.61-.168.916-.25.274-.075.488-.16.625-.261a1.045 1.045 0 0 0 .318-.368 1.21 1.21 0 0 0 .104-.441 2.287 2.287 0 0 0-.027-.583l.42-.114c.283 1.033.563 2.063.84 3.093-.137.037-.28.074-.42.114a2.784 2.784 0 0 0-.264-.524c-.128-.187-.24-.318-.34-.39a.85.85 0 0 0-.494-.171 2.221 2.221 0 0 0-.64.096l-.915.25.735 2.708a.715.715 0 0 0 .166.308c.07.082.174.13.314.16.066.015.196.01.392-.01a2.62 2.62 0 0 0 .441-.057l.106.395-3.454.937-.107-.395c.112-.036.26-.092.441-.16.177-.07.296-.12.346-.161a.495.495 0 0 0 .187-.28.786.786 0 0 0-.016-.363l-1.54-5.674a1.068 1.068 0 0 0-.15-.31c-.066-.08-.176-.13-.322-.157a2.361 2.361 0 0 0-.437-.02 2.296 2.296 0 0 0-.43.046l-.108-.396c2.085-.563 4.172-1.128 6.25-1.693l.533 1.976m9.205-.697c.303.753.598 1.507.9 2.26l-5.814 2.807-.179-.372c.082-.047.196-.117.35-.215a1.37 1.37 0 0 0 .294-.224.493.493 0 0 0 .138-.311.756.756 0 0 0-.093-.361l-2.537-5.256a.91.91 0 0 0-.208-.282.495.495 0 0 0-.347-.097 1.55 1.55 0 0 0-.397.037 1.876 1.876 0 0 0-.389.104c-.057-.122-.12-.248-.177-.37l3.138-1.514.177.37a2.778 2.778 0 0 0-.35.23 2.126 2.126 0 0 0-.3.25.4.4 0 0 0-.14.33c0 .12.03.239.087.35l2.38 4.933c.108.224.202.396.29.508a.513.513 0 0 0 .303.218c.105.03.245.01.414-.055.17-.056.396-.152.681-.292.13-.06.26-.133.4-.206.136-.07.26-.153.375-.23.112-.083.21-.167.296-.253a.572.572 0 0 0 .161-.245c.063-.23.123-.546.155-.966.028-.41.043-.735.02-.97l.371-.178m4.35-8.075a4.07 4.07 0 0 1 1.424.732 5 5 0 0 1 1.165 1.363c.33.56.532 1.117.625 1.677.091.56.058 1.094-.065 1.608a3.84 3.84 0 0 1-.649 1.372 3.796 3.796 0 0 1-1.16 1.033c-.496.29-1.003.476-1.534.534-.533.056-1.038.026-1.53-.13a3.934 3.934 0 0 1-1.398-.746 4.887 4.887 0 0 1-1.123-1.31 4.83 4.83 0 0 1-.633-1.691 4.231 4.231 0 0 1 .058-1.6 3.855 3.855 0 0 1 .663-1.385 3.8 3.8 0 0 1 1.15-1.03c.474-.28.971-.456 1.486-.523a3.738 3.738 0 0 1 1.522.093zm2.19 5.42a3.823 3.823 0 0 0-.192-1.264 6.705 6.705 0 0 0-.622-1.342 7.013 7.013 0 0 0-.925-1.245 3.82 3.82 0 0 0-1.03-.777 2.324 2.324 0 0 0-1.08-.247c-.365 0-.736.117-1.093.327-.398.235-.689.525-.857.877a2.533 2.533 0 0 0-.259 1.132c.007.39.077.8.228 1.236.151.44.351.873.603 1.303a7.187 7.187 0 0 0 .887 1.21c.308.33.653.588 1.01.776.356.187.712.268 1.085.274.37 0 .747-.106 1.13-.33a2.244 2.244 0 0 0 .82-.822 2.31 2.31 0 0 0 .29-1.107zm10.241-5.56c-.604.43-1.213.86-1.819 1.288-.836-.348-1.583-.613-2.224-.844-.649-.23-1.333-.43-2.047-.648l-.694.49 1.494 2.11c.074.1.167.182.251.243.098.06.217.065.362.033a1.64 1.64 0 0 0 .343-.15c.16-.082.28-.157.383-.225l.236.334-2.847 2.02c-.08-.11-.159-.223-.238-.333.077-.054.177-.143.313-.264a1.521 1.521 0 0 0 .256-.276.474.474 0 0 0 .078-.322.723.723 0 0 0-.146-.343c-1.14-1.603-2.275-3.208-3.409-4.81a1.027 1.027 0 0 0-.252-.254c-.094-.06-.213-.076-.358-.034a2.985 2.985 0 0 0-.718.327l-.24-.335c1.036-.734 2.072-1.467 3.108-2.203a4.433 4.433 0 0 1 .862-.483 2.634 2.634 0 0 1 .88-.202 1.708 1.708 0 0 1 .811.152c.264.118.494.323.695.607a2.1 2.1 0 0 1 .364.765c.061.252.064.5.013.757a2.48 2.48 0 0 1-.268.71 4.67 4.67 0 0 1-.482.718c.641.208 1.18.364 1.61.506.423.146.957.305 1.573.51a2.436 2.436 0 0 0 1.163.129 1.28 1.28 0 0 0 .374-.127c.141-.064.253-.132.336-.18.076.11.158.222.235.334zm-6.006-3.183c-.287-.403-.635-.632-1.032-.71-.402-.072-.817.046-1.245.35l-.809.57a5350.39 5350.39 0 0 0 2.023 2.853l.625-.443c.437-.308.71-.705.795-1.185.088-.486-.022-.965-.358-1.436zm12.81-1.95c.227.767.455 1.538.687 2.305l-6.432 2.384c-.046-.127-.096-.256-.142-.383.11-.047.252-.114.42-.21.172-.091.284-.152.33-.201a.57.57 0 0 0 .165-.3.717.717 0 0 0-.053-.354l-2.038-5.494a.949.949 0 0 0-.178-.294c-.074-.075-.186-.112-.334-.127-.114-.012-.262 0-.436.023a2.081 2.081 0 0 0-.424.08c-.046-.125-.097-.255-.14-.382l5.992-2.224.682 1.843c-.136.052-.276.102-.408.152-.172-.252-.445-.476-.793-.694-.362-.224-.652-.3-.882-.248-.118.025-.255.06-.41.115-.167.056-.342.115-.545.19l-1.215.45c.373 1.01.752 2.025 1.125 3.034.29-.107.58-.216.876-.324.276-.103.476-.203.588-.308a.852.852 0 0 0 .24-.382 1.465 1.465 0 0 0 .052-.497 2.796 2.796 0 0 0-.07-.532l.41-.15 1.111 2.994c-.138.053-.277.102-.41.152a3.084 3.084 0 0 0-.32-.508c-.135-.165-.25-.281-.358-.341a.845.845 0 0 0-.484-.13 2.03 2.03 0 0 0-.595.144l-.877.326c.283.765.564 1.529.85 2.295.085.228.17.4.251.525a.527.527 0 0 0 .302.23c.118.036.267.027.435-.014.173-.047.41-.122.71-.232.122-.047.278-.103.477-.175a3.42 3.42 0 0 0 .488-.21c.13-.07.27-.147.403-.24.132-.096.22-.181.252-.27.105-.233.19-.563.238-.98.05-.418.081-.717.066-.896l.394-.15m6.907-5.657a3.976 3.976 0 0 1 1.026 1.232 4.96 4.96 0 0 1 .535 1.71 4.732 4.732 0 0 1-.08 1.788 4.051 4.051 0 0 1-.689 1.457c-.303.41-.69.74-1.135 1.003a3.855 3.855 0 0 1-1.47.495c-.574.076-1.112.047-1.618-.11-.51-.153-.97-.38-1.363-.716a3.984 3.984 0 0 1-.99-1.232 4.732 4.732 0 0 1-.523-1.646 4.83 4.83 0 0 1 .08-1.802 4.208 4.208 0 0 1 .684-1.448 3.867 3.867 0 0 1 2.614-1.512 3.951 3.951 0 0 1 1.573.098 3.764 3.764 0 0 1 1.357.685zm-.106 5.845a3.836 3.836 0 0 0 .323-1.24 7.078 7.078 0 0 0-.049-1.477 6.79 6.79 0 0 0-.365-1.507 3.751 3.751 0 0 0-.637-1.12 2.352 2.352 0 0 0-.899-.65 2.2 2.2 0 0 0-1.13-.127c-.463.06-.844.213-1.138.473a2.492 2.492 0 0 0-.68.94 3.96 3.96 0 0 0-.27 1.224 6.765 6.765 0 0 0 .04 1.434c.07.543.19 1.03.345 1.458.15.426.372.795.627 1.107.25.315.544.525.886.678.341.146.735.196 1.172.137a2.226 2.226 0 0 0 1.071-.432 2.315 2.315 0 0 0 .705-.9z"/>
		<path fill="none" stroke-width=".949" d="M468.703 266.93h62.719m5.133 0h8.818v51.567c0 10.256-1.423 51.095-45.295 66.956-43.965-15.86-45.389-56.696-45.389-66.956V266.93h8.881"/>
	</g>
	<path fill="#338a00" stroke="#075400" stroke-width=".497" d="M494.077 132.865c-3.402.028-7.166 1.66-11.032 5.807v.003c9.3-2.73 13.403 3.438 17.282 7.373a154.287 154.287 0 0 0-33.49 3.724c-3.596-7.951-16.311-17.628-26.188-2.982 8.998-4.25 14.057 1.643 18.6 4.883a152.778 152.778 0 0 0-26.76 10.25c-.04-.06-.06-.141-.09-.2-3.71-7.091-23.02-15.742-27.567 3.83 9.515-9.872 18.98 1.046 24.626-2.096a154.1 154.1 0 0 0-24.426 15.873c-.04-.05-.074-.12-.114-.166-5.16-6.13-25.897-10.457-26.089 9.628 7.01-11.443 18.293-3.387 23.288-7.09A154.856 154.856 0 0 0 380 204.375c-.12-.13-.232-.294-.352-.41-5.75-5.587-26.82-7.827-24.984 12.174 5.98-12.41 18.545-4.761 22.84-9.703-.657.754-1 1.705-1.183 2.77a153.775 153.775 0 0 0-15.644 26.637c-7.098-3.798-27.9-.277-20.687 18.45l.003.004c2.368-13.556 16.555-9.57 19.336-15.478-.029.06-.036.13-.062.192a152.682 152.682 0 0 0-9.655 31.155c-8.745.213-23.005 8.49-12.663 23.15-.737-9.888 6.673-12.424 11.359-15.464a155.01 155.01 0 0 0-1.58 22.067c0 2.223.056 4.43.15 6.63-7.894 3.43-18.26 17.782-1.895 26.716-4.63-7.824-.403-13.107 2.54-17.614a153.06 153.06 0 0 0 5.615 28.308c-7.39 4.758-14.929 18.064.612 25.875-4.956-7.754-.762-13.212 2.024-17.851a153.186 153.186 0 0 0 12.64 26.709c-5.928 6.406-9.846 22.132 7.83 25.097-7.21-6.077-4.573-12.68-3.328-17.991a154.708 154.708 0 0 0 19.942 23.945c-5.585 6.666-8.667 22.916 9.35 24.707-8.679-6.367-4.589-14.31-4.266-19.935a154.34 154.34 0 0 0 28.688 20.345c-1.57 8.6 3.094 23.256 19.493 17.266-8.87-1.64-10.197-8.125-11.67-13.255a152.717 152.717 0 0 0 32.085 11.13c-.153 8.704 5.755 20.94 20.742 14.293-9.12-1.06-10.79-7.642-12.646-12.7a154.764 154.764 0 0 0 25.967 2.196c1.683 0 3.356-.038 5.026-.092 1.9 8.527 12.018 20.314 24.782 8.347-9.682 2.158-13.296-4.628-16.98-8.793a153.147 153.147 0 0 0 33.566-6.59c5.266 7.005 18.057 13.31 25.511-1.623-7.25 4.652-12.57 1.35-17.067-1.328a153.285 153.285 0 0 0 25.518-12.56c6.57 5.354 25.045 7.67 24.774-11.255-4.796 8.265-11.965 6.708-17.49 6.488a154.733 154.733 0 0 0 24.4-21.032c7.737 4.137 23.675 4.152 22.611-13.392-4.404 8.463-11.625 7.248-17.151 7.275a154.244 154.244 0 0 0 18.105-26.575c8.61 1.465 24.343-4.025 16.874-20.404h-.006c-1.043 9.23-7.897 10.808-13.017 12.718a152.698 152.698 0 0 0 10.838-31.99c8.6-1.862 20.498-11.84 8.542-24.546 1.759 8.027-2.754 11.818-6.75 14.97a154.953 154.953 0 0 0 1.784-23.497c0-1.098-.02-2.192-.042-3.285 8.376-2.675 19.293-13.814 6.078-25.296 2.88 8.777-2.618 13.034-6.478 16.86a153.467 153.467 0 0 0-4.16-25.727c7.39-4.405 15.816-19.929-1.543-26.733 5.946 7.64 1.592 13.683-.694 18.705a152.908 152.908 0 0 0-10.745-25.98c6.243-6.057 10.988-21.978-6.797-25.54 7.082 6.364 4.107 12.947 2.708 18.244a154.43 154.43 0 0 0-16.102-22.217c3.3-8.1 1.773-23.336-15.488-20.856 7.295 3 8.13 8.447 8.48 13.333a154.726 154.726 0 0 0-19.81-16.83c2.384-8.25-1.94-25.098-19.287-18.6v.01c9.196 1.623 10.36 8.487 11.947 13.676a153.314 153.314 0 0 0-27.522-13.714c1.46-8.482-4.563-24.615-21.088-16.465 10.287.772 11.462 8.933 13.942 13.962a153.28 153.28 0 0 0-39.313-7.213c-1.327-5.8-7.03-13.443-14.492-13.382zm6.527 17.008c.764 0 1.524.018 2.285.03-5.17 3.1-9.62 13.306-20.74 10.458 11.98 13.532 25.128-1.898 26.58-10.267 13.39.715 26.31 3.188 38.541 7.185-5.781 1.77-13.174 8.324-21.93 2.177 6.265 16.633 23.684 7.356 28.35.085a149.52 149.52 0 0 1 29.804 15.286c-6.03.337-14.705 7.734-23.463.173 4.525 17.062 22.6 9.77 28.105 3.034a150.795 150.795 0 0 1 22.458 19.827c.338.942.822 1.758 1.602 2.357-5.203-3.993-17.436 4.877-25.427-5.823.76 18.676 22.289 13.898 27.852 7.975a150.357 150.357 0 0 1 16.432 23.356c-5.24-2.982-16.693-1.178-20.088-12.279-5.429 17.255 14.846 20.332 22.744 17.152a149.068 149.068 0 0 1 10.98 27.37c-4.923-3.484-15.736-4.096-17.062-15.209-8.16 15.573 9.926 22.23 18.617 21a150.01 150.01 0 0 1 4.22 29c-1.93-5.77-14.63-9.582-11.83-21.722-13.79 12.702 3.804 25.812 11.97 26.185.014.898.031 1.794.031 2.696a150.9 150.9 0 0 1-2.64 28.11c-.335.613-.566 1.26-.602 1.97.334-6.517-13.982-11.427-9.69-24.045-14.98 11.25 1.128 26.02 9.225 27.24a148.945 148.945 0 0 1-11.923 33.466c-.354-5.988-8.93-14.279-1.713-23.665-17.3 5.717-7.93 23.875-.713 28.352a150.326 150.326 0 0 1-19.45 27.806c1.957-5.68-3.24-16.59 6.967-22.854-18.66-.806-15.875 20.498-10.482 26.705a150.73 150.73 0 0 1-25.954 21.876c1.29-5.862-2.127-15.91 7.647-21.315-17.248-1.53-16.949 16.76-12.749 24.574a149.348 149.348 0 0 1-27.968 13.275c-.905-.215-1.792-.252-2.669.026 6.263-1.982 5.852-17.008 19.264-17.46-16.07-10.076-24.352 10.701-22.399 18.45.067.264.193.547.293.823a149.56 149.56 0 0 1-33.779 6.316c5.4-2.695 10.54-12.702 21.49-9.111-11.437-14.835-26.295 1.39-27.409 9.41-1.59.05-3.184.087-4.786.087a150.96 150.96 0 0 1-28.155-2.642c-.503-.577-1.083-1.041-1.803-1.328 6.1 2.43 15.43-9.41 26.058-1.28-5.915-17.927-25.64-7.147-29.106.06-.206.431-.38.912-.527 1.427a148.999 148.999 0 0 1-36.244-13.415c-.02-.01-.034-.03-.055-.04 5.923 2.838 16.032-8.352 26.084.473-4.658-18.172-24.835-8.965-28.955-2.018a150.36 150.36 0 0 1-26.364-18.584c5.905 1.15 14.785.24 18.66 9.48 3.683-17.742-16.894-18.772-24.396-14.8a150.669 150.669 0 0 1-21.61-26.493c5.154 3.14 16.996.61 20.838 11.865 4.933-17.626-15.983-19.905-23.555-16.295a149.23 149.23 0 0 1-13.828-30.775c2.111 6.1 17.03 5.93 17.366 19.15 10.281-15.84-10.516-24.24-18.36-22.392a149.572 149.572 0 0 1-5.669-31.09c4.133 4.368 15.53 6.074 15.424 17.636 10.058-14.39-6.93-23.252-15.725-23.164a152.437 152.437 0 0 1-.124-5.817c0-7.87.61-15.602 1.778-23.145 2.177 5.596 10.843 12.021 5.78 22.012 16.03-8.84 3.203-25.1-4.716-28.044a148.942 148.942 0 0 1 6.881-24.067c1.904 5.286 4.477 11.614-1.099 18.031 15.81-4.198 10.765-19.69 4.55-26.365a149.727 149.727 0 0 1 12.627-22.59c.357 5.28.44 11.298-6.062 15.57 15.965.2 15.75-15.27 11.868-23.545a150.852 150.852 0 0 1 18.418-19.707c-.253 5.78.297 13.19-7.728 17.382 16.158 1.82 17.264-14.2 14.02-22.715a150.285 150.285 0 0 1 19.34-13.164c-1.49 5.58-2.59 12.877-11.292 15.244 15.368 5.222 19.925-10.149 18.617-19.16a148.994 148.994 0 0 1 28.333-10.73c-4.537 3.962-7.384 14.502-18.7 13.425 14.31 11.795 25.045-6.648 24.624-14.876a150.64 150.64 0 0 1 32.805-3.604z"/>
	<path fill="#ad7d5a" stroke="#000" stroke-width=".475" d="M408.918 366.938c-.285 1.233-.758 2.943-.95 5.13 0 .473-.473 3.038.95 3.132 1.045.095 1.33-2.66 1.33-2.66s-.952 3.039.284 3.42c1.71.375 1.898-3.325 1.898-3.325-.19 1.045-1.33 3.705.286 3.985 1.708.288 2.184-3.608 2.184-3.608s-1.425 3.896.283 3.99c1.615.093 1.615-3.799 1.615-3.799s-.856 4.655 1.423 4.275c1.233-.19 1.52-1.806 1.805-2.755.38-1.423 1.234-3.227.19-6.172-.758-2.184-.473-2.753-.473-2.753s-2.66 1.995-4.748 3.323c-.952.57-6.08-2.184-6.08-2.184zm27.73-4.088c-.475-.287-.38 1.71-.57 2.656-.095.952.192 3.04 3.42 2.851 3.131-.286 6.267-.95 8.26-.476 1.996.57 4.937.665 6.554.665 1.615 0 2.66-.189 3.416-.476.666-.282 2.09.382 2.753.382.667 0 1.71-1.045 1.615-1.71-.095-1.236-1.232-1.236-2.85-1.33-1.519-.189-3.607-.475-4.65-.854-1.046-.38-2.944-1.426-5.318-1.9 0 0-4.558.192-5.505.192-.952 0-6.554.282-7.125 0z"/>
	<path fill="none" stroke="#060" stroke-width=".475" d="m421.36 369.597-.191-4.368 1.8 1.522.47-3.325c.76-.19 1.994 1.33 1.994 1.33l-.19-3.322 2.752 3.038s-.19-2.565.758-4.084c.001 0 2.09 1.805 2.09 3.894 0 1.808 1.803-2.564 1.803-2.564l1.52 4.844 1.232-1.806 1.045 3.796 2.278-3.323 1.803 3.884 4.084-.286.476 2.28 1.803-1.994 2.375 1.519s1.993-.57 3.04-.57c1.044 0 2.278 1.33 2.278 1.33s.758-1.326 1.52-1.802c.758-.475 1.804.758 2.085 1.518l1.522-2.753s1.995 1.995 2.277 2.752c0-.001.286-2.278.76-3.041.477-.757 1.233.288 1.805 1.237l1.234-4.083s1.33.28 2.277 1.804c1.046 1.517 1.046-2.281 1.046-2.281s2.277 3.04 2.85 5.128m57.167-.76s.757-2.086 1.804-3.132c.001 0 1.995 2.376 1.995 3.134 0 0 .57-.285 1.614-1.042l1.52 1.516 1.805-1.232 1.71 1.52 3.133-1.33 1.231 1.329 4.84-.568 1.808.757 1.708-2.18 1.616 1.706 2.563-2.561s1.233 1.04 1.52 1.803c0 0 2.088-1.046 2.563-1.803 0 0 1.993-.76 2.277.47 0 0 1.232-.95 1.14-1.992-.097-1.043 1.422-.283 1.897 1.047 0 0 .57-2.09 2.091-2.282 0 0 1.042 1.236.755 3.516 0 0 2.28-1.804 3.325-1.995 0 0 .475 2.562-.285 4.844 0 0 2.374-3.895 2.85-2.565.19.758.76 3.325.19 5.127l2.09-1.33.757 2.567 2.277-.476m-106.69 7.74s1.71-2.845 2.752-3.606c0 0 2.277 1.806 3.038 4.084 0 0 .286-1.52 1.046-2.848 0 0 2.848 1.325 3.322 3.133 0 0 1.046-1.805 1.805-2.277.76-.574 1.52 1.99 1.52 3.51 0 0 1.804-1.9 2.85-1.994 0 .001 1.993.951 2.562 4.281 0 0 1.9-1.802 2.564-1.52 0 0 2.28 1.52 1.708 3.61-.283 1.138 2.28-1.327 5.413-2.088l2.753 2.088s2.564-3.418 3.323-4.56c0 0 2.09.76 2.09 1.996 0 0 .951-3.612 1.71-3.988.758-.475 1.803 1.138 1.803 2.184 0 0 .285-2.754 1.806-3.325 0 0 1.52 1.043 1.52 2.09 0 0 1.613-3.132 2.848-3.895"/>
	<path fill="#5ac800" d="m421.36 369.597-.191-4.368 1.8 1.522.47-3.325c.76-.193 1.994 1.33 1.994 1.33l-.19-3.326 2.752 3.04s-.19-2.565.758-4.086c.001 0 2.09 1.806 2.09 3.895 0 1.808 1.803-2.565 1.803-2.565l1.52 4.844 1.232-1.805 1.045 3.798 2.28-3.324 1.802 3.896 4.084-.287.476 2.277 1.803-1.992 2.374 1.519s1.995-.57 3.04-.57 2.28 1.332 2.28 1.332.757-1.332 1.518-1.81c.757-.472 1.806.76 2.086 1.52l1.522-2.753s1.993 1.985 2.277 2.742c0-.001.284-2.277.76-3.038.475-.76 1.231.286 1.804 1.236l1.23-4.084s1.333.283 2.28 1.805c1.043 1.518 1.043-2.278 1.043-2.278s2.277 3.038 2.847 5.126c0 0-15.722 5.398-26.81 3.922-13.051-1.738-23.8-4.207-23.8-4.207m107.786-.474s.758-2.09 1.806-3.136c0 0 1.99 2.377 1.99 3.136 0 0 .569-.284 1.616-1.045l1.519 1.519 1.806-1.232 1.71 1.517 3.132-1.33 1.234 1.328 4.84-.567 1.805.758 1.71-2.184 1.614 1.708 2.563-2.564s1.233 1.045 1.52 1.807c0 0 2.088-1.042 2.563-1.806 0 0 1.994-.758 2.277.476 0 0 1.235-.952 1.141-1.994-.094-1.043 1.424-.286 1.9 1.043 0 0 .57-2.087 2.086-2.278 0 0 1.043 1.23.76 3.518 0 0 2.275-1.81 3.321-1.997 0 0 .476 2.563-.284 4.845 0 0 2.374-3.896 2.85-2.565.19.758.76 3.323.19 5.126l2.087-1.33.757 2.566 2.278-.476s-13.48 2.065-26.18.854c-12.702-1.21-24.62-5.696-24.618-5.696m-9.388 9.428c.617-.381-4.242 9.995-16.024 10.547-16.393.768-30.406-7.41-30.406-7.41s1.71-2.85 2.753-3.61c0 0 2.277 1.805 3.038 4.082 0 0 .286-1.52 1.046-2.847 0 0 2.85 1.326 3.322 3.133 0 0 1.046-1.804 1.806-2.277.76-.573 1.52 1.99 1.52 3.514 0 0 1.804-1.903 2.849-1.997 0 0 1.995.95 2.565 4.274 0 0 1.9-1.803 2.562-1.521 0 0 2.28 1.52 1.708 3.609-.283 1.142 2.28-1.325 5.414-2.087l2.754 2.087s2.563-3.416 3.323-4.56c0 0 2.09.763 2.09 1.998 0 0 .95-3.61 1.71-3.99.758-.473 1.802 1.14 1.802 2.187 0 0 .287-2.755 1.806-3.324 0 0 1.52 1.043 1.52 2.09-.004-.001 1.61-3.136 2.846-3.898z"/>
</svg>
