<svg xmlns="http://www.w3.org/2000/svg" viewBox="0 0 768 512">
	<path fill-rule="evenodd" d="M360 392.53c10.45 12.58 26.03 21.21 43.23 21.22h46.88c17.22 0 32.78-8.64 43.24-21.22v35.21c0 2.94-2.06 5.46-4.91 5.46H360.97c-2.83 0-4.9-2.51-4.9-5.46v-35.21zm147.61-89.03-21.88-21.88A4.78 4.78 0 0 0 506.58 192H393.45a4.78 4.78 0 0 0-3.41-1.41l-21.87-21.87c-7.59-7.59-20.11-6.32-26.52 1.27l-6.8 6.8a14.75 14.75 0 0 0-3.65-1.05l-5.21-5.21c-.54.45-10.48 9.68-11.7 9.68-1.59 0-8-6.14-34.05-19.42-7.84-3.92-9-12.22-4.18-18.94s1-28.1 4.18-41.63C292.46 13.26 306.44 0 320 0s27.54 13.26 30.61 32.41c3.16 13.52 7.64 27.99 4.18 41.63-4.82 6.71-3.66 15 2.18 18.94 26.04 13.29 32.47 19.42 34.06 19.42 1.21 0 11.15-9.23 11.7-9.68l5.22 5.21a18.2 18.2 0 0 0 3.66 1.05l6.8-6.8a20.67 20.67 0 0 0 1.27-26.52zM88.59 196.54a14.77 14.77 0 0 1 3.66-1.05l56.22-56.22h76.08v76.08l56.22 56.22a18.19 18.19 0 0 1 3.66 1.05l6.8-6.8a20.65 20.65 0 0 1-1.27-26.51l-21.91-21.89A4.78 4.78 0 0 0 393.45 192H280.32a4.78 4.78 0 0 0-3.41 1.41l-21.88 21.88a20.67 20.67 0 0 1-26.51-1.27l-6.8-6.8a14.75 14.75 0 0 1-1.05-3.65zm17.96 90.44c1.22 0 11.16-9.23 11.72-9.68l5.21 5.22a18.13 18.13 0 0 0 3.66 1.05l6.8-6.8c7.59-7.59 6.32-20.11-1.27-26.52l-21.91-21.91a4.78 4.78 0 0 0-3.4-1.41h172.96a4.78 4.78 0 0 0-3.4 1.41l-21.91 21.91c-7.59 7.59-8.85 18.93-1.26 26.52l6.8 6.8a18.12 18.12 0 0 0 3.66-1.05l5.22-5.22c.54.45 10.5 9.68 11.72 9.68L98.69 342c-6.75 12.29-17.92 20.84-30.59 20.85h46.91c17.22 0 32.77-8.63 43.23-21.21v35.27c0 2.95-2.06 5.46-4.91 5.46h-46.88c-2.85 0-4.91-2.51-4.91-5.46v-35.27c-10.45 12.58-26.01 21.21-43.23 21.21H11.42c-12.67 0-23.83-8.57-30.59-20.85l47.2-82.89zM256 64c16.33 0 32.64 5.75 45.08 16.06l37.11 28.96c4.89 3.87 5.77 11.26 2.14 16.07-23.53-9.96-42.63-5.09-63.1-5.09h-51.87c-20.17 0-39.01-4.7-55.73-13.9-3.5-3.5-5.72-8.28-5.71-13.6 0-5.13 2.02-9.58 5.71-13.6 10.91-10.91 25.58-16.87 41.2-16.87zM0 192v193.87c0 16.47 6.37 32.01 18.37 44.01a22.99 22.99 0 0 1 4.21 66.89l61.2 53.73-.51 61.62c.01 4.79 1.66 8.77 4.58 11.95 3.03 3.28 6.76 5.3 11.54 5.3 2.63 0 4.73-.84 6.53-2.53L384 422.56l98.59 82.63H510a60.67 60.67 0 0 0 66.36-59.23l96-877.34-102.45 29.52c-25.17 7.26-50.56 11.13-76.73 11.13H127.73c-26.17 0-51.56-3.87-76.73-11.13L9.22-413.72l-.24 16.78-96 877.4c-4.26 40.66-39.89 73.8-85.68 71.92a120.62 120.62 0 0 1-4.16-19.42c.13-16.47-3-35.83-11.45-57.36L0 465.15v-273.2zm93.29 471.19c6.65 41.06 1.31 81.19-16.3 117.02L9.57 623.86c-8.12 26.37 4.78 53.98 31.87 62.1l55.88 21.42a27 27 0 0 0 14.73 0l55.89-21.42c27.09-8.12 40.01-35.73 31.89-62.1l-30.08-98.28c-17.62-35.83-22.97-75.96-16.31-117.02l35.21-118.15-73.69 165.67zm-2.18-404.93 125.49 19.89c3.18-2.18 6.46-4.23 9.72-6.27l26.58 92.22-125.49-19.89c15.42-33.58 20.63-44.44 26.79-56.04l-56.17-25.96c-6.08 11.72-11.4 22.48-26.78 56.01z"/>
	<path fill="#fff" fill-rule="evenodd" d="m384 212.47 56.22 56.22h-76.09v-76.08zm-202.06 97.31a20.67 20.67 0 0 0-90.83-51.52L64.3 379.37c-6.16 11.6-11.37 22.46-26.79 56.04L163 455.3l-26.58-92.22zM768 728V529a20.67 20.67 0 0 0-1.26-26.52L610.53 420a14.77 14.77 0 0 1-1.05-3.65L512 373.22V239a20.67 20.67 0 0 0-1.27-26.52l-21.88-21.88a4.78 4.78 0 0 0 17.73 1.4H393.45a4.78 4.78 0 0 0-3.41-1.41l-21.88-21.88a20.65 20.65 0 0 0-26.51 1.27l-6.8 6.8a14.74 14.74 0 0 0-1.05 3.65l-92.23 128v76.82l207 200.64 6.25 6.25c3.35 3.82 8.78 5.97 15.67 5.97h.48c6.89 0 12.32-2.15 15.67-5.97z"/>
</svg>
