<svg xmlns="http://www.w3.org/2000/svg" xmlns:xlink="http://www.w3.org/1999/xlink" viewBox="0 0 1400000 700000">
	<path fill="#060" d="M0 0h1400000v700000H0z" stroke-width="1000"/>
	<path fill="#fff" d="M0 0h1400000v500000H0z" stroke-width="1000"/>
	<path fill="#c00" d="M0 0h1400000v200000H0z" stroke-width="1000"/>
	<g fill="#f8c300" transform="translate(0, -334)" stroke-width="1000">
		<path d="M672000 340700a12500 12500 0 0 1 23300 5900v50000h9400v-50000a12500 12500 0 0 1 23300-5900 29500 29500 0 1 0-56000 0" stroke-width="1000"/>
		<path fill="#fff" d="M678700 327650a20000 20000 0 0 1 21300 9550 20000 20000 0 0 1 21300-9550 21500 21500 0 0 0-42600 0" stroke-width="1000"/>
		<path id="a" d="M695300 376627a38000 38000 0 0 1-63845 24316 39500 39500 0 0 1-59734 17467c3650 36426 58252 28989 62320-6430 17154 30116 54873 21490 65910-15400z" stroke-width="1000"/>
		<use xlink:href="#a" width="100%" height="100%" transform="matrix(-1, 0, 0, 1, 1400000, 0)" stroke-width="1000"/>
		<path id="b" d="M658840 441310c-7618 16446-22845 19271-36164 5995 0 0 5354-3783 11086-4826-1075-4574 1130-10902 4235-14324 3258 2227 7804 6689 8960 11874 8030-1040 11883 1282 11883 1282z" stroke-width="1000"/>
		<use xlink:href="#b" width="100%" height="100%" transform="rotate(9.37, 700000, 804000)" stroke-width="1000"/>
		<use xlink:href="#b" width="100%" height="100%" transform="rotate(18.74, 700000, 804000)" stroke-width="1000"/>
		<path fill="none" stroke="#f8c300" stroke-width="16000" d="M603000 478000a340000 340000 0 0 1 194000 0"/>
		<g transform="translate(700000, 380000)" stroke-width="1000">
			<g transform="translate(0, -140000)" stroke-width="1000">
				<path id="c" d="M-488533000-158734000h977066000l-790463000 574305000L0-513674000l301930000 929245000z" transform="rotate(13.25) scale(0.00005)" stroke-width="1000"/>
			</g>
			<g id="d" stroke-width="1000">
				<use xlink:href="#c" width="100%" height="100%" transform="translate(-70000, -121244)" stroke-width="1000"/>
				<use xlink:href="#c" width="100%" height="100%" transform="translate(-121244, -70000)" stroke-width="1000"/>
				<use xlink:href="#c" width="100%" height="100%" transform="translate(-140000)" stroke-width="1000"/>
			</g>
			<use xlink:href="#d" width="100%" height="100%" transform="scale(-1, 1)" stroke-width="1000"/>
		</g>
	</g>
</svg>