<svg xmlns="http://www.w3.org/2000/svg" xmlns:xlink="http://www.w3.org/1999/xlink" viewBox="0 0 4800000 2400000">
	<defs>
		<clipPath id="a">
			<path d="M0 0v7500h32500v7500h-2500z m30000 0H15000v17500H0v-2500z" stroke-width="500"/>
		</clipPath>
		<path id="b" d="M420000-500000v360000C420000 100000 300000 358500 0 498500-300000 358500-420000 100000-420000-140000v-360000z" stroke-width="500"/>
	</defs>
	<g fill="#002868" stroke-width="500">
		<path d="M0 0h2400000A1341641 1341641 0 0 1 0 1200000z" stroke-width="500"/>
		<g fill="none" stroke-width="500">
			<path stroke="#fff" stroke-width="240000" d="M0 0l2400000 1200000M0 1200000L2400000 0"/>
			<path stroke="#ce1126" stroke-width="2000" d="M0 0l30000 15000M0 15000L30000 0" clip-path="url(#a)" transform="scale(80)"/>
			<path stroke="#fff" stroke-width="400000" d="M1200000-200000v1600000M-200000 600000h2800000"/>
			<path stroke="#ce1126" stroke-width="240000" d="M1200000 0v1400000M0 600000h2600000"/>
		</g>
		<path d="M0 1200000h2400000V0h2400000v2400000H0" stroke-width="500"/>
	</g>
	<g fill="none" stroke="#000" transform="translate(3600000, 1200000)" stroke-width="500">
		<use xlink:href="#b" fill="#fcd116" stroke-width="32000"/>
		<use xlink:href="#b" stroke="#fff" stroke-width="28000"/>
		<g stroke-linecap="round" stroke-linejoin="round" stroke-width="1100">
			<path fill="#fcad56" d="M-151500-103500c-11000 18500-29500 22500-44000 16500-15000-6000-28500-41000-43500-60000-14500-18500-18500-10500-28500-21500-9500-10500-24500-18500-48000-29500-13000-6000-26500-11500-35500-34500 3500-9500 13000-17500 20500-20500 7500-2500 13500-13500 14500-23000 1000-9000 9000-19000 20000-26500-5000 1000-15500-1000-20500-4500-4500-4000-12000-3000-16500 500-4500 3000-10000 4000-18000 3000 3000-2500 8500-8000 9000-13000s6500-7500 18000-7500c11000 0 18500-13000 27500-13000-6500 0-5000-11000-1500-11500-16000-3000-14000-16000-7500-16000-500-2000-2500-4000-10000-6500-7000-2500-3500-9000 2000-13000-5000-10000-500-17500 7500-24000-11000-500 1000-16000 4000-24500 3000-8000 4500-9000 8000-4000 4000 4500 13000 15000 23500 18000 10000 3000 16000 8500 18000 17000 2000 9000 6000 13500 17000 17500 11500 3500 27000 13000 25000 34500 9000 500 15500 3000 21000 7500" stroke-width="500"/>
			<path fill="#ffa1a1" d="M-124000-374500c0 12000 5500 19500 12500 25500 7500 6000 14000 11000 12500 18500-1500 8000 1500 13000 8000 18000 7000 5000 12000 11000 10000 21000s-500 16000 3500 23500 11000 13500 8000 25500-1500 28000 2500 36000c3500 7500 0 13500-7000 27000-7000 13000-11000 18000-25500 23000-15000 4500-16000 13500-16000 29000 0 16000-10500 24000-30000 21000-20000 16500-32500-3000-37500-27500s-6000-51000-35500-72500c-29000-22000-17500-59000 7000-74000 24500-14500 21500-57500 18500-84000-2500-26500 15000-41500 28500-56000 18000 7000 40500 34500 40500 46000z" stroke-width="500"/>
			<path fill="#f1b2dc" d="M-166500-204000c-5500-13000-11500-26000 3000-54000 15000-28500 5500-50000 1000-64500-4500-14000-5500-27000 0-33000 6000-5500 8500-9000 9000-18500 500-9000 8000-6000 9000-1500s2000 12000-6000 25500c-8000 14000 22500 48000 8500 84500-9500 25500 3000 58000 8000 80500s8000 76500-25000 84500c22500-11000 1500-82500-7500-103500z" stroke-width="500"/>
			<path d="M-315000-208000c5500 1000 8500-2000 10000-5500s2500-5500 7500-6000c5000 0 13000-1500 15000-5500 1500-4000 7500-500 13000-10500 5000-10500 8500-22500 22000-27000m37000-87000c-5000 0-19500 500-25500 13500m-41500-75500c12000 3500 7000 11500 13000 16000 11000 8500 1000 17500 10000 20000s8500 4000 6500 14000c-3000 11500 8000 12000 4000 19500m-52000 39500c7000-6500 24500-11500 28500-18500m-29000-16000c10500-500 24500 3500 26500-500m-28000-11000c5000 0 15500-3500 17500-10500m-25000-5500c6000 0 13500-500 21000-6000m-29000-13500c4500-3500 12500 500 20000-4500m-12500-19500c3500 0 11000-1000 11000 3500" stroke-width="500"/>
			<g fill="#9e540a" transform="translate(200000, -200000)" stroke-width="500">
				<g id="d" stroke-width="500">
					<path d="M-27500-116500s-35000-29500-64000-49500-64000-44500-64000-49500c5500-4000 35000 15000 75500 39500 41000 25000 64000 49500 64000 49500z m-2500 20000s-34000-20500-67500-35000c-35000-14500-87500-14500-93000-19500 0-5000 61000-8000 104500 9500 44500 20500 67500 35000 67500 35000z m-500 34000s-37000-17000-73000-25000c-35000-8000-85000-5000-91000-9500 0-5000 62000-15000 108500 0 47000 14500 67000 24500 67000 24500z m-2000 34500s-28000-19000-65000-23000c-35000-3500-81500 23000-87500 18000 0-5000 40500-34500 91000-29500 49500 5000 73000 24500 73000 24500z m11500-109000s-35500-32500-35500-54500c0-19500 21500-49500 31000-49500-5000 10000-21500 30000-21500 49500 0 20000 37500 44500 37500 44500z" stroke-width="500"/>
					<path d="M-21000-137000s7000-32500 7000-54500c0-29500-21000-56500-19000-64000 7500 7500 28500 29500 28500 64000 0 30000-5000 44500-5000 44500z" stroke-width="500"/>
					<g stroke="none" stroke-width="500">
						<use xlink:href="#c" stroke="#fcd116" stroke-width="6000"/>
						<path id="c" d="M-12500-147500c0-9500-3500-18000-9500-24500-8000-9500-20000-12500-32500-10500-15000 2500-27000 11500-34500 25500-10000 18500-11000 38500-11500 58000 0 67500 2500 95000 4500 161500 500 19500 4000 59500-5000 91000-3500 13500-7500 26000-13500 39000 4000-16500 6000-25000 8000-37500 5500-32500 4000-63000 3000-93000-2000-61500-5500-93000-7500-167500-500-22500 1500-39500 12000-57500 11000-18500 30000-32000 51500-32000 9000 0 16500 1500 24000 6000 15000 8000 22000 24500 22000 41000z" stroke-width="500"/>
					</g>
					<path d="M-9500 93500s-14000 25000-24500 43000-19000 22000-27000 16500c-7500-5500-1000-20000 5000-27000s39500-39500 39500-39500z" stroke-width="500"/>
					<path d="M-6000 95500s-5500 28500-10000 49000c-4000 20500-11000 27500-19500 25000-9000-2000-7500-18500-4000-27000s24500-51500 24500-51500z" stroke-width="500"/>
					<path d="M0 96500v50000c0 21000-5000 29500-14500 29000-9000-500-11000-16500-9000-26000 1500-9000 14000-55500 14000-55500z" stroke-width="500"/>
				</g>
				<use xlink:href="#d" transform="scale(-1, 1)" stroke-width="500"/>
				<g id="e" stroke-width="500">
					<path d="M0 96000c-26500-500-29000-10000-29000-10000s-3500-12000-4000-19500c-500-1000-7500-16000-5500-22500-2500-6000-8500-20500-3000-23000-2500-7000-6500-15000-7000-22500-2000-5500-7000-17500-3000-21500 0 0-9500-20000-5000-25000 0 0-4500-19500 0-24500 0 0 0-20000 5000-25000 0 0 0-19500 4500-24500 0 1000 14000-27500 47000-27500l-500 42500h500z" stroke-width="500"/>
					<path fill="none" d="M0-13000c-42500-500-51500-10000-51500-10000M0-38000c-42500 0-56500-10000-56500-10000M0-62500c-42500-500-56500-10000-56500-10000M0-87500c-42500-500-51500-10000-51500-10000m51000-9500c500 0-32000 0-37000-5000l-9500-9500M0 76000c-12500 0-26500-2000-33000-9500m33000-10500c-23500 0-37500-9500-37500-9500s-500-1000-1000-2500M0 31500c-31000-500-39500-7000-41500-10500M0 11500C-42500 11500-47000 1500-47000 1500l-1500-3000" stroke-width="500"/>
				</g>
				<use xlink:href="#e" transform="scale(-1, 1)" stroke-width="500"/>
			</g>
			<g id="f" stroke-width="500">
				<path fill="#009e49" d="M0 356000c-21500 20000-63000 7000-76000-2000-13500 4500-49500-9500-59000-25000-26000 3500-35000-33500-30500-43000 7000-14000-5500-23000 3500-32500 12500-12000-7000-23500 5000-31500 12000-8500-3000-22500 9000-31500 12500-9500-6500-22500 6500-29000s-1500-23500 9500-30000-6500-23000 8500-30500c14500-7500 1500-20500 13000-26000 12500-6500 1000-20000 12500-24500 13000-5500 3500-20000 14500-24000 9500-3500 3500-12500 9500-20500H0" stroke-width="500"/>
				<path d="M-49500 9000c-10000 10000 2000 17500-8000 29500-10500 12500-1000 19000-9500 30000s4000 16500-5500 29000c-9500 12000 2000 19500-8500 29500-10000 10500 2000 19500-8500 30500-10000 11500 2000 19000-8000 29000-10500 10500 1500 21500-8500 31500-10000 10500 2000 23500-9500 35500-11000 12000 2000 21500-7000 30500-9500 9500-1000 19000-7500 25500s-7500 15500-5000 19500M-30000 12500c-9000 12500 5000 18000-3500 28000-8500 10500 3500 14000-3000 26000s5000 15000-3500 27000 4500 21500-4500 33500c-9500 12000 4500 18500-4000 30500-8000 12500 4000 19000-3500 28000-7500 9500 5500 18500-4000 30000-9000 11000 4000 19500-3500 29500-7500 10500 3000 21500-3500 30000-6500 8000 4500 20500-5000 31500-9000 11000 2000 18500-3500 26000s-10000 18500-4500 21500" stroke-width="500"/>
			</g>
			<use xlink:href="#f" transform="scale(-1, 1)" stroke-width="500"/>
			<path stroke="#009e49" d="M0 356000V6000" stroke-width="500"/>
			<path d="M0 24000c-4500 19500 6500 36500 0 53000-6500 16000 4500 22500 1000 35500-4000 13000 4500 22500-1000 36500s7500 25000 0 43500c-7500 18000 5000 22500 0 41000-5500 21000 9500 32000 0 47000s8500 18500 1000 35500c-7500 16500 4500 23000-1000 40000" stroke-width="500"/>
			<path fill="#fcd116" d="M7500 87000c-2500 5500 7500 18500 2000 28500-6000 9500 3000 24500-3000 36500s9500 27000 3500 41000c-6500 14000 3000 31500 0 44500-2500 13000 6500 38000 0 47000-6500 9500 6500 12000-1000 35000s-12500 3500-8000-3500c9500-15500-10500-20500-1000-35500s-5500-26000 0-47000c5000-18500-7500-23000 0-41000 7500-18500-5500-29500 0-43500s-3000-23500 1000-36500c3500-13000-7500-19500-1000-35500 5000-16000 10000 4500 7500 10000z m-42000 16000c-3500 6000 6000 17500-2500 29000-6000 8000 4000 17500-4500 29000-5500 8000 5500 18000-2000 29500-5000 6500 3500 19000-2500 28500-6000 10000 3000 18000-7500 31000-6000 7000 4500 24500-2000 30000s-500 27000-5000 30000c-4000 3500 0 19000-11000 22500 5500-7500-5500-15000 3500-26000 9500-11000-1500-23500 5000-31500 6500-8500-4000-19500 3500-30000 7500-10000-5500-18500 3500-29500 9500-11500-3500-20500 4000-30000 7500-9000-4500-15500 3500-28000 8500-12000-5500-18500 4000-30500 9000-12000-4000-21500 4500-33500s-3000-15000 3500-27000c12000 4500 6000 30500 2000 36500z m-25000-32500c-5000 8000 2000 17500-5500 27500-7500 10500 0 23500-7500 32000-7500 8000 2000 24000-7500 30500s-3500 26000-11000 32500 0 25000-8500 34500-4500 29000-9500 33500c-4500 4500 6500 14000-1500 20500-8500 6500-8500 19500-19500 28000 6500-6500-2000-16000 7500-25500 9000-9000-4000-18500 7000-30500 11500-12000-500-25000 9500-35500 10000-10000-2000-21000 8500-31500 10000-10000-2000-17500 8000-29000 10500-11000-1500-20000 8500-30500 10500-10000-1000-17500 8500-29500 9500-12500-3000-18000 5500-29000 4000-5000 4000-9500 4000-13500 6000-15500 6000 11500 3500 15500z" stroke-width="500"/>
			<path fill="#ce1126" d="M-69500 17500c0-105000 14500-141500 69500-141500s69500 36500 69500 141500z" stroke-width="500"/>
			<path fill="#000" d="M-69500 17500c0-105000 14500-141500 69500-141500-25000 0-40500 19500-44500 32500-4500 13000-2000 12000 3500 7000s3000 6000-2000 12000c-4500 6000-9000 23500-2500 18000 6500-6000 11500 500 4500 10500-7000 9500-13000 32500-6000 24500s8500 5000 4000 11500c-4000 6500-3500 12500 0 9500 4000-3000 3500 10500 0 16000z m95500-2000C26000 0 26500-36500 18000-48500c-6000-9500-6000-19500 1000-8500s10500 5500 5500-5500c-6000-14000-14000-29500-12000-32500 2500-3500 4000-2000 9000 5500s6000-3500 500-11000c-5500-7000-5000-8500 6500-3500 20500 8500 30500 33000 30500 115500z" stroke-width="500"/>
			<path fill="#ce1126" d="M0 32500c-22000 0-46000-3500-62000-10000-19000-7500-20000-14000-13500-22000 5000-6000 15000-2500 25000 2000 9500 4000 36500 7000 50500 7000s41000-3000 50500-7500c10000-4000 20000-7500 25000-1500 6500 8000 5500 14500-13500 22000C46000 29000 22000 32500 0 32500z" stroke-width="500"/>
		</g>
	</g>
</svg>