<svg xmlns="http://www.w3.org/2000/svg" xmlns:xlink="http://www.w3.org/1999/xlink" viewBox="0 0 1000 600">
	<path fill="#d21034" d="M0 0h1000v600H0z"/>
	<path fill="#00209f" d="M0 0h1000v300H0z"/>
	<path fill="#fff" d="M405.172 222.414h189.656v155.172H405.172z"/>
	<path fill="#016a16" d="M499.613 332.116v.084c-4.078.43-47.873 5.227-59.775 14.111-12.48 9.316-34.666 19.076-34.666 19.076v11.978H594.83v-11.978s-22.186-9.76-34.666-19.076c-11.901-8.884-55.697-13.68-59.775-14.111v-.084l-.387.042-.387-.042z"/>
	<g stroke="#000">
		<g fill="#fff">
			<path stroke-width=".325" d="M461.87 110.611c-.658-1.711-6.054-1.579-10.266-.263s-6.58.921-15.661 1.053-14.214 2.237-15.003 2.501-14.477 6.975-19.741 8.686-10.266 0-10.266 0 6.054 5.922 14.609 1.184c0 0-7.107 3.948-11.713 4.475 0 0 6.874 1.44 12.684-1.07a13.95 13.95 0 0 0 1.53-.772c3.637-1.807 6.878-3.21 9.805-4.297 16.652-6.193 23.129-2.25 34.547-5.18" transform="matrix(.79646 0 0 .7753 100.072 273.796)"/>
			<path stroke-width=".338" d="M461.84 110.358c-.781 1.513-5.259.665-8.137 1.602.694.61 2.67 1.68 8.227 2.743.92-3.458-.09-4.345-.09-4.345z" transform="matrix(.79646 0 0 .7753 100.072 273.796)"/>
		</g>
		<g fill="none">
			<path stroke-width=".325" d="M417.21 121.789c-5.348 1.807-7.931 3.472-10.858 4.561m10.2-5.562c-4.641 1.649-7.306 3.231-10.154 4.328m9.496-5.329c-3.934 1.49-6.681 2.989-9.45 4.095m8.792-5.096c-3.228 1.331-6.056 2.748-8.745 3.862m8.087-4.864-8.04 3.63" transform="matrix(.79646 0 0 .7753 100.072 273.796)"/>
			<path stroke-width=".287" d="M423.48 119.14s7.491-2.261 13.285-1.555m-12.437.141s7.031-1.979 13.215-1.449m-12.367.035s6.572-1.696 13.144-1.343m-12.296-.071s6.113-1.413 13.073-1.237m-12.225-.177s5.653-1.131 13.003-1.131" transform="matrix(.79646 0 0 .7753 100.072 273.796)"/>
			<path stroke-width=".325" d="m446.8 112.214 6.778-1.316c2.895-.418 5.804-.595 6.65.185m-14.064 2.333s3.948-.442 7.133-1.234m-7.77 2.435s4.517-.059 7.489-1.152m-8.124 2.353s5.085.324 7.842-1.071m-8.482 2.158s5.659.631 8.206-.883" transform="matrix(.79646 0 0 .7753 100.072 273.796)"/>
		</g>
		<g transform="matrix(.86366 0 0 .84072 74.462 264.547)">
			<use xlink:href="#a" fill="#f1b517" stroke-width=".325"/>
			<use xlink:href="#b" fill="#fff" stroke-width=".15"/>
			<g fill="none">
				<use xlink:href="#c" stroke-width=".265"/>
				<use xlink:href="#a" stroke-width=".325"/>
			</g>
			<g transform="rotate(5.723 529.295 67.882)">
				<use xlink:href="#a" fill="#f1b517" stroke-width=".325"/>
				<use xlink:href="#d" fill="#fff" stroke-width=".15"/>
				<g fill="none">
					<use xlink:href="#c" stroke-width=".265"/>
					<use xlink:href="#a" stroke-width=".325"/>
				</g>
			</g>
			<use xlink:href="#e" fill="#fff" stroke-width=".15"/>
			<use xlink:href="#f" fill="none" stroke-width=".265"/>
			<use xlink:href="#g" fill="#fff" stroke-width=".15"/>
			<use xlink:href="#h" fill="none" stroke-width=".325"/>
			<g transform="rotate(4.153 502.686 103.387)">
				<g transform="rotate(5.723 529.295 67.882)">
					<use xlink:href="#a" fill="#f1b517" stroke-width=".325"/>
					<use xlink:href="#d" fill="#fff" stroke-width=".15"/>
					<g fill="none">
						<use xlink:href="#c" stroke-width=".265"/>
						<use xlink:href="#a" stroke-width=".325"/>
					</g>
				</g>
				<use xlink:href="#e" fill="#fff" stroke-width=".15"/>
				<use xlink:href="#f" fill="none" stroke-width=".265"/>
				<use xlink:href="#g" fill="#fff" stroke-width=".15"/>
				<use xlink:href="#h" fill="none" stroke-width=".325"/>
			</g>
		</g>
	</g>
	<path fill="#d21034" d="m474.281 323.752 1.375 13.245 17.296-1.122z"/>
	<g fill="#00209f" transform="matrix(-.86366 0 0 .84072 925.67 265.057)">
		<path d="M561.109 52.433s-1.457 25.124-9.103 37.747l-31.193-4.612.85-15.293 39.446-26.824z"/>
		<use xlink:href="#i" stroke="#000" stroke-width=".265"/>
	</g>
	<g stroke="#000" transform="matrix(-.86366 0 0 .84072 925.67 265.057)">
		<use xlink:href="#j" fill="#d21034" stroke-width=".3"/>
		<use xlink:href="#k" fill="#0a328c" stroke-width=".15"/>
	</g>
	<path fill="#d21034" d="m497.639 327.661-20.616-18.287c-4.601 1.966-4.247 5.541-1.06 10.034l-.097 4.501 16.86 11.441 4.623-1.126.193-4.126zm-.629-11.776-12.634-15.847-3.196 6.902.998 6.514 15.08 13.805z"/>
	<g transform="matrix(-.86366 0 0 .84072 925.67 265.057)">
		<g fill="#00209f">
			<use xlink:href="#l"/>
			<use xlink:href="#m" stroke="#000" stroke-width=".265"/>
		</g>
		<use xlink:href="#n" fill="#d21034" stroke="#000" stroke-width=".15"/>
		<use xlink:href="#o" fill="#f1b517"/>
		<g stroke="#000">
			<g fill="none">
				<use xlink:href="#p" stroke-width=".3"/>
				<use xlink:href="#q" stroke-width=".15"/>
			</g>
			<g fill="#f1b517">
				<g stroke-width=".15">
					<use xlink:href="#r"/>
					<use xlink:href="#s"/>
				</g>
				<use xlink:href="#t" stroke-width=".125"/>
				<circle cx="551.147" cy="100.305" r="2.391" stroke-width=".15"/>
			</g>
		</g>
		<use xlink:href="#u" fill="#d21034"/>
	</g>
	<path fill="#00209f" d="M448.384 305.419c-.544-9.136 1.088-19.861 1.088-19.861l.136-1.589 28.155 26.216s-1.908 2.785-1.625 13.901l-2.183-1.455z"/>
	<g stroke="#000">
		<g transform="matrix(-.86366 0 0 .84072 925.67 265.057)">
			<path fill="none" stroke-width=".265" d="M552.633 48.008c.63-10.867-1.26-23.624-1.26-23.624l-.157-1.89"/>
			<g fill="#f1b517">
				<use xlink:href="#v" stroke-width=".3"/>
				<g transform="rotate(36.186 196.429 -35.139)">
					<use xlink:href="#w" stroke-width=".3"/>
					<use xlink:href="#x" stroke-width=".15"/>
				</g>
				<g transform="rotate(9.12 474.55 126.571)">
					<use xlink:href="#v" stroke-width=".3"/>
					<g transform="rotate(36.186 196.429 -35.139)">
						<use xlink:href="#w" stroke-width=".3"/>
						<use xlink:href="#x" stroke-width=".15"/>
					</g>
				</g>
				<g transform="rotate(18.987 458.577 111.376)">
					<use xlink:href="#v" stroke-width=".3"/>
					<g transform="rotate(36.186 196.429 -35.139)">
						<use xlink:href="#w" stroke-width=".3"/>
						<use xlink:href="#x" stroke-width=".15"/>
					</g>
				</g>
				<path stroke-width=".3" d="m534.065 11.472-37.87 48.098.245.746 38.215-48.382zm16.353 11.757-54.756 50.793.51.55 54.756-50.794zm8.814 20.339-58.293 39.898.424.62 58.293-39.899z"/>
			</g>
			<use xlink:href="#y" fill="#0a328c" stroke-width=".265"/>
			<g stroke-width=".15">
				<use xlink:href="#z" fill="#d21034"/>
				<use xlink:href="#A" fill="none"/>
			</g>
			<use xlink:href="#y" fill="none" stroke-width=".3"/>
			<use xlink:href="#B" fill="#0a328c" stroke-width=".15"/>
			<use xlink:href="#C" fill="#d21034" stroke-width=".265"/>
			<g fill="none">
				<use xlink:href="#D" stroke-width=".3"/>
				<path stroke-width=".15" d="M553.886 36.096s.678-3.052-.882-5.765c-1.571-2.77-2.04-6.99-1.221-6.71"/>
			</g>
			<use xlink:href="#E" fill="#f1b517" stroke-width=".157"/>
			<g stroke-width=".3">
				<use xlink:href="#F" fill="#f1b517"/>
				<use xlink:href="#G" fill="#fff"/>
			</g>
		</g>
		<g transform="matrix(.89788 .11758 -.12078 .87404 251.916 243.359)">
			<use xlink:href="#H" fill="#f1b517" stroke-width=".15"/>
			<use xlink:href="#I" fill="#f4cf0e" stroke-linecap="round" stroke-width=".13"/>
			<use xlink:href="#J" fill="none" stroke-width=".265"/>
			<g fill="#f1b517" stroke-width=".15">
				<use xlink:href="#K"/>
				<use xlink:href="#K" x="32.942"/>
				<use xlink:href="#L"/>
			</g>
		</g>
	</g>
	<use xlink:href="#M" transform="matrix(.89788 .11758 -.12078 .87404 251.916 243.359)"/>
	<use xlink:href="#N" fill="#f1b517" stroke="#000" stroke-width=".15" transform="matrix(.89788 .11758 -.12078 .87404 251.916 243.359)"/>
	<g transform="matrix(.86366 0 0 .84072 74.978 265.68)">
		<g fill="#f1b517" stroke="#000" stroke-width=".15">
			<use xlink:href="#O"/>
			<circle cx="445.451" cy="86.476" r="2.282"/>
			<use xlink:href="#P"/>
		</g>
		<circle cx="445.451" cy="73.138" r=".482"/>
		<circle cx="445.451" cy="99.458" r=".482"/>
		<g transform="rotate(45 445.451 86.298)">
			<circle cx="445.451" cy="73.138" r=".482"/>
			<circle cx="445.451" cy="99.458" r=".482"/>
		</g>
		<g transform="scale(-1 1) rotate(45 0 -989.116)">
			<circle cx="445.451" cy="73.138" r=".482"/>
			<circle cx="445.451" cy="99.458" r=".482"/>
		</g>
		<g transform="rotate(90 359.153 0)">
			<circle cx="445.451" cy="73.138" r=".482"/>
			<circle cx="445.451" cy="99.458" r=".482"/>
		</g>
		<g transform="scale(1 -1) rotate(-67.935 317.352 0)">
			<circle cx="445.451" cy="73.138" r=".482"/>
			<circle cx="445.451" cy="99.458" r=".482"/>
		</g>
		<g transform="rotate(113.391 445.451 86.298)">
			<circle cx="445.451" cy="73.138" r=".482"/>
			<circle cx="445.451" cy="99.458" r=".482"/>
		</g>
		<g transform="rotate(23.078 445.451 86.298)">
			<circle cx="445.451" cy="73.138" r=".482"/>
			<circle cx="445.451" cy="99.458" r=".482"/>
		</g>
		<g transform="scale(-1 1) rotate(23.078 0 -2095.58)">
			<circle cx="445.451" cy="73.138" r=".482"/>
			<circle cx="445.451" cy="99.458" r=".482"/>
		</g>
	</g>
	<ellipse cx="-444.644" cy="349.386" fill="#f1b517" stroke="#000" stroke-width=".15" rx="2.065" ry="2.01" transform="scale(-1 1)"/>
	<g transform="matrix(.86366 0 0 .84072 75.483 265.057)">
		<use xlink:href="#Q" fill="#fff" stroke="#000" stroke-width=".15"/>
		<use xlink:href="#R"/>
		<g fill="#fff" stroke="#000" stroke-width=".15">
			<use xlink:href="#S"/>
			<use xlink:href="#T"/>
		</g>
	</g>
	<g transform="matrix(-.86366 0 0 .84072 925.67 265.057)">
		<g stroke="#000">
			<g stroke-width=".15" transform="matrix(-1 0 0 1 984.545 0)">
				<ellipse cx="472.443" cy="104.751" fill="#fff" rx="3.569" ry="1.681"/>
				<g fill="#f1b517">
					<use xlink:href="#U"/>
					<use xlink:href="#V" fill="none"/>
				</g>
				<use xlink:href="#W" fill="none"/>
			</g>
			<g fill="#fff">
				<use xlink:href="#X" stroke-width=".265"/>
				<path stroke-width=".15" d="M491.59 178.412h.597v2.147h-.597z" transform="matrix(.98736 -.15849 .21855 .97583 0 0)"/>
				<g stroke-width=".3">
					<use xlink:href="#Y"/>
					<use xlink:href="#Z"/>
				</g>
			</g>
		</g>
		<use xlink:href="#aa"/>
		<g stroke="#000">
			<use xlink:href="#ab" fill="#fff" stroke-width=".3"/>
			<g fill="#f1b517" stroke-width=".15">
				<circle cx="523.951" cy="109.883" r="2.391"/>
				<circle cx="529.652" cy="105.094" r="2.391"/>
				<circle cx="538.432" cy="105.664" r="2.391"/>
				<circle cx="545.104" cy="109.313" r="2.391"/>
				<circle cx="550.919" cy="109.313" r="2.391"/>
				<circle cx="556.735" cy="109.313" r="2.391"/>
				<circle cx="562.55" cy="109.313" r="2.391"/>
				<circle cx="548.069" cy="104.866" r="2.391"/>
				<circle cx="553.884" cy="104.866" r="2.391"/>
				<circle cx="559.699" cy="104.866" r="2.391"/>
			</g>
			<use xlink:href="#ac" fill="#d21034" stroke-width=".3"/>
			<g stroke-width=".15">
				<use xlink:href="#ad" fill="#0a328c"/>
				<use xlink:href="#ae" fill="none"/>
				<g fill="#fff">
					<use xlink:href="#af"/>
					<use xlink:href="#ag"/>
				</g>
			</g>
		</g>
		<use xlink:href="#ah" fill="#f1b517"/>
		<use xlink:href="#ai"/>
		<use xlink:href="#aj"/>
		<g stroke="#000">
			<use xlink:href="#ak" fill="#0a328c" stroke-width=".3"/>
			<g stroke-width=".15">
				<use xlink:href="#al" fill="#d21034"/>
				<use xlink:href="#am" fill="none"/>
			</g>
			<g fill="none">
				<use xlink:href="#ak" stroke-width=".3"/>
				<path stroke-width=".15" d="M561.609 43.805s.463 1.966.578 6.071-.752 6.881-1.099 6.823"/>
				<use xlink:href="#an" stroke-width=".265"/>
				<path stroke-width=".3" d="M537.903 24.955s1.388 5.724 1.561 8.384"/>
				<path stroke-width=".15" d="M527.158 13.193s1.413-1.925 5.589-.246"/>
			</g>
		</g>
	</g>
	<g stroke="#000">
		<path fill="#016a16" stroke-width=".287" d="m499.143-5.188.824-27.052 3.845-2.06 1.099 29.112z" transform="matrix(.79646 0 0 .7753 100.072 273.796)"/>
		<path fill="#0a328c" stroke-width=".325" d="M500.72-56.993s-.371 0-.99-.619-.99-.619-.495-1.485 1.114-1.981 3.219-1.857 3.714.248 4.456 2.476.99 8.17.371 10.646c-3.219-.124-8.046-2.723-8.789-4.456s2.228-4.704 2.228-4.704z" transform="matrix(.79646 0 0 .7753 100.072 273.796)"/>
		<g transform="matrix(-.86366 0 0 .84072 925.38 264.547)">
			<use xlink:href="#a" fill="#f1b517" stroke-width=".325"/>
			<use xlink:href="#b" fill="#fff" stroke-width=".15"/>
			<g fill="none">
				<use xlink:href="#c" stroke-width=".265"/>
				<use xlink:href="#a" stroke-width=".325"/>
			</g>
			<g transform="rotate(5.723 529.295 67.882)">
				<use xlink:href="#a" fill="#f1b517" stroke-width=".325"/>
				<use xlink:href="#d" fill="#fff" stroke-width=".15"/>
				<g fill="none">
					<use xlink:href="#c" stroke-width=".265"/>
					<use xlink:href="#a" stroke-width=".325"/>
				</g>
			</g>
			<use xlink:href="#e" fill="#fff" stroke-width=".15"/>
			<use xlink:href="#f" fill="none" stroke-width=".265"/>
			<use xlink:href="#g" fill="#fff" stroke-width=".15"/>
			<use xlink:href="#h" fill="none" stroke-width=".325"/>
			<g transform="rotate(4.153 502.686 103.387)">
				<g transform="rotate(5.723 529.295 67.882)">
					<use xlink:href="#a" fill="#f1b517" stroke-width=".325"/>
					<use xlink:href="#d" fill="#fff" stroke-width=".15"/>
					<g fill="none">
						<use xlink:href="#c" stroke-width=".265"/>
						<use xlink:href="#a" stroke-width=".325"/>
					</g>
				</g>
				<use xlink:href="#e" fill="#fff" stroke-width=".15"/>
				<use xlink:href="#f" fill="none" stroke-width=".265"/>
				<use xlink:href="#g" fill="#fff" stroke-width=".15"/>
				<use xlink:href="#h" fill="none" stroke-width=".325"/>
			</g>
		</g>
		<g fill="none" stroke-width=".287">
			<path stroke-linecap="round" d="M505.052-56.079s-2.6.495-2.476 1.733" transform="matrix(.79646 0 0 .7753 100.072 273.796)"/>
			<path d="M503.815-58.85s-2.971.743-3.961 3.342" transform="matrix(.79646 0 0 .7753 100.072 273.796)"/>
			<path d="M502.453-58.479s-1.733 1.485-2.476.99" transform="matrix(.79646 0 0 .7753 100.072 273.796)"/>
		</g>
		<g stroke-width=".287">
			<path fill="#d21034" d="m499.532-54.898-.174.01-.344.097c-.495.847-.832 1.78-.523 2.502.053.124.128.252.221.383l.274-.135s5.694-.495 8.17 3.837l.148.26c.236-1.02.336-2.566.324-4.198-3.944-2.715-7.309-2.783-8.097-2.756z" transform="matrix(.79646 0 0 .7753 100.072 273.796)"/>
			<path fill="none" stroke-linecap="round" d="M506.167-54.718s-1.362.619-1.362 1.238" transform="matrix(.79646 0 0 .7753 100.072 273.796)"/>
		</g>
	</g>
	<path fill="#d21034" d="m524.658 324.138-.314 12.857-17.296-1.122z"/>
	<path fill="#00209f" d="M558.935 309.139s-1.258 21.122-7.862 31.735l-26.94-3.877.734-12.857 34.068-22.552z"/>
	<g stroke="#000" transform="matrix(.86366 0 0 .84072 74.329 265.057)">
		<use xlink:href="#i" fill="#0a328c" stroke-width=".265"/>
		<use xlink:href="#j" fill="#d21034" stroke-width=".3"/>
		<use xlink:href="#k" fill="#0a328c" stroke-width=".15"/>
	</g>
	<path fill="#d21034" d="m502.36 327.661 20.616-18.287 3.049 6.875-1.893 7.661-16.859 11.441-4.624-1.126-.193-4.126zm.629-11.776 12.63-15.847 3.19 6.902-.999 6.514-15.079 13.805z"/>
	<g transform="matrix(.86366 0 0 .84072 74.329 265.057)">
		<use xlink:href="#l" fill="#00209f"/>
		<g stroke="#000">
			<use xlink:href="#m" fill="#0a328c" stroke-width=".265"/>
			<use xlink:href="#n" fill="#d21034" stroke-width=".15"/>
		</g>
		<use xlink:href="#o" fill="#f1b517"/>
		<g stroke="#000">
			<g fill="none">
				<use xlink:href="#p" stroke-width=".3"/>
				<use xlink:href="#q" stroke-width=".15"/>
			</g>
			<g fill="#f1b517">
				<g stroke-width=".15">
					<use xlink:href="#r"/>
					<use xlink:href="#s"/>
				</g>
				<use xlink:href="#t" stroke-width=".125"/>
				<circle cx="551.147" cy="100.305" r="2.391" stroke-width=".15"/>
			</g>
		</g>
		<use xlink:href="#u" fill="#d21034"/>
	</g>
	<path fill="#00209f" d="M551.615 305.419c.544-9.136-1.088-19.861-1.088-19.861l-.136-1.589-28.155 26.216s2.04-2.119 1.36 8.738l2.448 3.708z"/>
	<g stroke="#000">
		<path fill="none" stroke-width=".265" d="M551.615 305.419c.544-9.136-1.088-19.861-1.088-19.861l-.136-1.589"/>
		<g transform="matrix(.86366 0 0 .84072 74.329 265.057)">
			<g fill="#f1b517">
				<use xlink:href="#v" stroke-width=".3"/>
				<g transform="rotate(36.186 196.429 -35.139)">
					<use xlink:href="#w" stroke-width=".3"/>
					<use xlink:href="#x" stroke-width=".15"/>
				</g>
				<g transform="rotate(9.12 474.55 126.571)">
					<use xlink:href="#v" stroke-width=".3"/>
					<g transform="rotate(36.186 196.429 -35.139)">
						<use xlink:href="#w" stroke-width=".3"/>
						<use xlink:href="#x" stroke-width=".15"/>
					</g>
				</g>
				<g transform="rotate(18.987 458.577 111.376)">
					<use xlink:href="#v" stroke-width=".3"/>
					<g transform="rotate(36.186 196.429 -35.139)">
						<use xlink:href="#w" stroke-width=".3"/>
						<use xlink:href="#x" stroke-width=".15"/>
					</g>
				</g>
				<path stroke-width=".3" d="m534.065 11.472-37.87 48.098.197.833 38.263-48.469zm16.353 11.757-54.756 50.793.51.55 54.756-50.794zm8.814 20.339-58.293 39.898.424.62 58.293-39.899z"/>
			</g>
			<use xlink:href="#y" fill="#0a328c" stroke-width=".265"/>
			<g stroke-width=".15">
				<use xlink:href="#z" fill="#d21034"/>
				<use xlink:href="#A" fill="none"/>
			</g>
			<use xlink:href="#y" fill="none" stroke-width=".3"/>
			<use xlink:href="#B" fill="#0a328c" stroke-width=".15"/>
			<use xlink:href="#C" fill="#d21034" stroke-width=".265"/>
			<use xlink:href="#D" fill="none" stroke-width=".3"/>
		</g>
		<path fill="none" stroke-width=".15" d="M552.697 295.404s.586-2.566-.762-4.847c-1.357-2.331-1.762-5.879-1.055-5.645"/>
		<g transform="matrix(.86366 0 0 .84072 74.329 265.057)">
			<use xlink:href="#E" fill="#f1b517" stroke-width=".157"/>
			<g stroke-width=".3">
				<use xlink:href="#F" fill="#f1b517"/>
				<use xlink:href="#G" fill="#fff"/>
			</g>
		</g>
		<g transform="matrix(-.89788 .11758 .12078 .87404 748.083 243.359)">
			<use xlink:href="#H" fill="#f1b517" stroke-width=".15"/>
			<use xlink:href="#I" fill="#f4cf0e" stroke-linecap="round" stroke-width=".13"/>
			<use xlink:href="#J" fill="none" stroke-width=".265"/>
			<g fill="#f1b517" stroke-width=".15">
				<use xlink:href="#K"/>
				<use xlink:href="#K" x="32.942"/>
				<use xlink:href="#L"/>
			</g>
		</g>
	</g>
	<use xlink:href="#M" transform="matrix(-.89788 .11758 .12078 .87404 748.083 243.359)"/>
	<g fill="#f1b517" stroke="#000" stroke-width=".15">
		<use xlink:href="#N" transform="matrix(-.89788 .11758 .12078 .87404 748.083 243.359)"/>
		<g transform="matrix(-.86366 0 0 .84072 925.02 265.68)">
			<use xlink:href="#O"/>
			<circle cx="445.451" cy="86.476" r="2.282"/>
			<use xlink:href="#P"/>
		</g>
	</g>
	<g transform="scale(-1 1)">
		<ellipse cx="-540.303" cy="327.169" rx=".416" ry=".405"/>
		<ellipse cx="-540.303" cy="349.297" rx=".416" ry=".405"/>
	</g>
	<g transform="matrix(-.6107 .59448 .6107 .59448 759.637 22.119)">
		<circle cx="445.451" cy="73.138" r=".482"/>
		<circle cx="445.451" cy="99.458" r=".482"/>
	</g>
	<g transform="scale(.86366 .84072) rotate(45 154.061 461.76)">
		<circle cx="445.451" cy="73.138" r=".482"/>
		<circle cx="445.451" cy="99.458" r=".482"/>
	</g>
	<g transform="matrix(0 .84072 -.86366 0 614.835 -36.268)">
		<circle cx="445.451" cy="73.138" r=".482"/>
		<circle cx="445.451" cy="99.458" r=".482"/>
	</g>
	<g transform="matrix(-.32445 .77914 -.8004 -.31583 753.9 18.418)">
		<circle cx="445.451" cy="73.138" r=".482"/>
		<circle cx="445.451" cy="99.458" r=".482"/>
	</g>
	<g transform="matrix(.34288 .77163 .79268 -.33377 319.162 23.314)">
		<circle cx="445.451" cy="73.138" r=".482"/>
		<circle cx="445.451" cy="99.458" r=".482"/>
	</g>
	<g transform="matrix(-.79454 .32955 .33854 .77344 865.017 124.688)">
		<circle cx="445.451" cy="73.138" r=".482"/>
		<circle cx="445.451" cy="99.458" r=".482"/>
	</g>
	<g transform="matrix(.79454 .32955 -.33854 .77344 215.588 124.69)">
		<circle cx="445.451" cy="73.138" r=".482"/>
		<circle cx="445.451" cy="99.458" r=".482"/>
	</g>
	<g stroke="#000" stroke-width=".15">
		<ellipse cx="555.355" cy="349.386" fill="#f1b517" rx="2.065" ry="2.01"/>
		<use xlink:href="#Q" fill="#fff" transform="matrix(-.86366 0 0 .84072 924.516 265.057)"/>
	</g>
	<use xlink:href="#R" transform="matrix(-.86366 0 0 .84072 924.516 265.057)"/>
	<g stroke="#000">
		<g fill="#fff" stroke-width=".15" transform="matrix(-.86366 0 0 .84072 924.516 265.057)">
			<use xlink:href="#S"/>
			<use xlink:href="#T"/>
		</g>
		<g stroke-width=".15" transform="matrix(-.86366 0 0 .84072 924.64 265.057)">
			<ellipse cx="472.443" cy="104.751" fill="#fff" rx="3.569" ry="1.681"/>
			<g fill="#f1b517">
				<use xlink:href="#U"/>
				<use xlink:href="#V" fill="none"/>
			</g>
			<use xlink:href="#W" fill="none"/>
		</g>
		<g fill="#fff" transform="matrix(.86366 0 0 .84072 74.329 265.057)">
			<use xlink:href="#X" stroke-width=".265"/>
			<path stroke-width=".15" d="M491.59 178.412h.597v2.147h-.597z" transform="matrix(.98736 -.15849 .21855 .97583 0 0)"/>
			<g stroke-width=".3">
				<use xlink:href="#Y"/>
				<use xlink:href="#Z"/>
			</g>
		</g>
	</g>
	<use xlink:href="#aa" transform="matrix(.86366 0 0 .84072 74.329 265.057)"/>
	<g stroke="#000" transform="matrix(.86366 0 0 .84072 74.329 265.057)">
		<use xlink:href="#ab" fill="#fff" stroke-width=".3"/>
		<g fill="#f1b517" stroke-width=".15">
			<circle cx="523.951" cy="109.883" r="2.391"/>
			<circle cx="529.652" cy="105.094" r="2.391"/>
			<circle cx="538.432" cy="105.664" r="2.391"/>
			<circle cx="545.104" cy="109.313" r="2.391"/>
			<circle cx="550.919" cy="109.313" r="2.391"/>
			<circle cx="556.735" cy="109.313" r="2.391"/>
			<circle cx="562.55" cy="109.313" r="2.391"/>
			<circle cx="548.069" cy="104.866" r="2.391"/>
			<circle cx="553.884" cy="104.866" r="2.391"/>
			<circle cx="559.699" cy="104.866" r="2.391"/>
		</g>
		<use xlink:href="#ac" fill="#d21034" stroke-width=".3"/>
		<g stroke-width=".15">
			<use xlink:href="#ad" fill="#0a328c"/>
			<use xlink:href="#ae" fill="none"/>
			<g fill="#fff">
				<use xlink:href="#af"/>
				<use xlink:href="#ag"/>
			</g>
		</g>
	</g>
	<use xlink:href="#ah" fill="#f1b517" transform="matrix(.86366 0 0 .84072 74.329 265.057)"/>
	<use xlink:href="#ai" transform="matrix(.86366 0 0 .84072 74.329 265.057)"/>
	<use xlink:href="#aj" transform="matrix(.86366 0 0 .84072 74.329 265.057)"/>
	<g stroke="#000">
		<use xlink:href="#ak" fill="#0a328c" stroke-width=".3" transform="matrix(.86366 0 0 .84072 74.329 265.057)"/>
		<g stroke-width=".15" transform="matrix(.86366 0 0 .84072 74.329 265.057)">
			<use xlink:href="#al" fill="#d21034"/>
			<use xlink:href="#am" fill="none"/>
		</g>
		<g fill="none">
			<use xlink:href="#ak" stroke-width=".3" transform="matrix(.86366 0 0 .84072 74.329 265.057)"/>
			<path stroke-width=".15" d="M559.367 301.885s.4 1.653.499 5.104-.649 5.785-.949 5.736"/>
			<use xlink:href="#an" stroke-width=".265" transform="matrix(.86366 0 0 .84072 74.329 265.057)"/>
			<path stroke-width=".3" d="M538.893 286.038s1.199 4.812 1.348 7.049"/>
		</g>
		<g stroke-width=".124">
			<path fill="#d21034" d="M522.28 69.162s1.577-1.702 1.677-2.428.075-1.928-.901-1.953-5.608-.79-7.009.336-1.652 1.701-1.377 2.277 1.427 1.502 2.378 1.452 1.878.376 2.253.15 2.003-2.153 2.428-.426l.05.577z" transform="matrix(.86366 0 0 .84072 74.329 265.057)"/>
			<path fill="#f1b617" d="M517.808 75.635s.949-4.535 2.531-6.539c0 0 2.004-.527 2.742 0s-.105-.633.738.422.833 5.063.833 5.063l1.055.949c-2.741 1.266-7.91.105-7.91.105z" transform="matrix(.86366 0 0 .84072 74.329 265.057)"/>
			<path d="M525.506 75.404c-2.531 1.371-7.7.316-7.7.316s-.844 2.004 0 1.688.422.738 1.266 0 .844-.949.844-.949 4.852 0 5.8-.316z" transform="matrix(.86366 0 0 .84072 74.329 265.057)"/>
			<path fill="none" d="M520.877 69.751a5.41 5.41 0 0 0 .772.131m-.794.437s.336.085.769.121m-.791.447a5.04 5.04 0 0 0 .766.11m-.788.458s.323.075.764.1m-.786.469a4.79 4.79 0 0 0 .76.089m-.79.479s.31.066.757.078m-.781.49s.303.06.756.068m-.778.5a4.59 4.59 0 0 0 .753.058m-.775.51s.29.052.75.048m-.773.52s.285.047.75.037m-.77.532s.276.04.744.026m1.045-5.471c.325-.05.618-.171.788-.415m-.83.96c.362-.057.714-.192.962-.461m-1.007 1.009c.402-.066.813-.214 1.14-.51m-1.184 1.057c.44-.074.91-.236 1.312-.556m-1.358 1.103a3.565 3.565 0 0 0 1.49-.604m-1.534 1.15a4.33 4.33 0 0 0 1.666-.651m-1.71 1.198a5.15 5.15 0 0 0 1.842-.698m-1.885 1.245a6.03 6.03 0 0 0 2.017-.745m-2.06 1.292a6.92 6.92 0 0 0 2.191-.793m-2.236 1.339a7.863 7.863 0 0 0 2.368-.84M522 75.455a8.866 8.866 0 0 0 2.543-.887" transform="matrix(.86366 0 0 .84072 74.329 265.057)"/>
			<path fill="#d20014" d="m520.552 67.359-1.677 1.602m.596-1.637-1.106 1.582m.025-1.617-.536 1.562m-.546-1.597.035 1.542m-1.117-1.577.606 1.51m-1.687-1.555 1.177 1.502m-.551-1.376.726 1.427" transform="matrix(.86366 0 0 .84072 74.329 265.057)"/>
		</g>
		<path fill="none" stroke-width=".15" d="M529.613 276.149s1.22-1.618 4.827-.207"/>
		<path fill="#f1b517" stroke-width=".258" d="M502.309 269.675s1.468 46.23.267 63.598m-.267-63.598c-1.743-.255-4.662 0-4.662 0s-1.468 46.23-.267 63.598c0 0 3.187-.383 5.195 0"/>
	</g>
	<path d="m499.835 271.808-.936.01-1.318.039-.006.222 4.804-.008-.006-.223-2.538-.041zm-.025 1.619-.933.009-1.34.036-.006.223 4.893-.002-.006-.223-2.608-.043zm-.026 1.62-.929.008-1.362.033-.006.223 4.981.004-.006-.223zm-.026 1.62-.926.006-1.384.029-.006.223 5.07.01-.006-.223zm-.949 1.625-1.402.026-.005.223 5.148.015-.006-.223zm-.022 1.617-1.418.022-.006.223 5.225.02-.005-.223zm-.023 1.62-1.433.017-.006.223 5.301.026-.006-.223-3.857-.044zm-.024 1.618-1.448.015-.005.221 5.378.031-.006-.222zm-.022 1.617-1.464.01-.005.223 5.454.036-.005-.224-3.98-.046zm-.022 1.62-1.476.006-.005.222 5.521.041-.005-.222zm-.024 1.618a177.4 177.4 0 0 0-1.485.002l-.005.223 5.587.046-.005-.223-4.093-.048zm-.022 1.62c-.625-.004-1.005 0-1.496 0l-.005.222 5.652.047-.005-.222zm-1.525 1.614-.004.222 5.708.051-.004-.222-5.701-.05zm-.028 1.613-.004.223 5.765.055-.004-.222zm-.028 1.612-.004.223 5.82.061-.004-.223-5.813-.06zm-.024 1.611-.003.223 5.867.066-.003-.223zm-.023 1.615-.003.222 5.913.07-.003-.224zm-.023 1.612-.003.22 5.958.07-.003-.228zm-.02 1.61-.013.22 5.997.07-.002-.22c-2.43.004-4.538-.03-5.991-.07zm-.027 1.611-.001.223 6.028.07-.003-.22a164.635 160.263 0 0 1-6.024-.07zm-.015 1.614-.002.223 6.06.07-.002-.222a140.83 140.83 0 0 1-6.055-.07zm-.015 1.615v.223l6.086.075v-.224c-2.491.033-4.623-.017-6.085-.074zm-.01 1.613v.223l6.104.077v-.224a103.32 103.32 0 0 1-6.101-.075zm-.007 1.615v.223l6.12.076-.002-.222a90.12 90.12 0 0 1-6.118-.077zm-.008 1.614-.002.223 6.136.075v-.222a81.617 81.617 0 0 1-6.135-.076zm0 1.615v.223l6.133.074v-.223a71.697 69.793 0 0 1-6.134-.075zm.002 1.615v.223l6.13.073v-.223a66.973 66.973 0 0 1-6.13-.074zm.002 1.614v.223a61.68 61.68 0 0 0 6.126.073v-.223a61.293 61.293 0 0 1-6.125-.072zm.01 1.617.002.223a57.28 57.28 0 0 0 6.102.07l.003-.223c-2.53.104-4.65.028-6.105-.07zm.014 1.617v.223a53.16 53.16 0 0 0 6.075.067l.002-.222a52.91 52.91 0 0 1-6.078-.069zm.013 1.617.002.222a48.361 47.076 0 0 0 6.045.064l.002-.223c-2.51.123-4.604.043-6.05-.064zm.022 1.617.004.222a46.59 46.59 0 0 0 6 .061l.003-.223a46.307 46.307 0 0 1-6.007-.06zm.028 1.617.004.224c1.438.116 3.484.195 5.94.057l.006-.223a43.52 43.52 0 0 1-5.95-.057zm.035 1.62.005.223a41.4 41.4 0 0 0 5.87.052l.004-.223a40.937 40.937 0 0 1-5.88-.053zm.045 1.621.006.223c1.415.12 3.397.197 5.778.045l.006-.222c-2.393.154-4.38.075-5.79-.047zm.053 1.623.01.225a37.11 37.11 0 0 0 5.665.04l.007-.223a36.8 36.8 0 0 1-5.682-.04zm.065 1.625.011.224c1.378.122 3.27.191 5.531.034l.01-.225c-2.279.16-4.178.09-5.553-.033zm.08 1.626.014.227a33.053 32.175 0 0 0 5.367.025l.014-.219c-2.2.16-4.044.094-5.394-.026z"/>
	<g stroke="#000">
		<path fill="none" stroke-width=".656" d="m503.626 73.597 1.363.127m-1.358-2.202 1.386.12m-1.381-2.195 1.409.115m-1.404-2.19 1.432.109m-1.427-2.184 1.455.104m-1.45-2.178 1.478.098m-1.473-2.173 1.501.092m-1.496-2.167 1.524.086m-1.519-2.161 1.547.08m-1.542-2.155 1.57.075m-1.565-2.15 1.593.07m-1.588-2.143 1.616.063m-1.611-2.138 1.64.057m-1.635-2.132 1.662.05m-1.657-2.125 1.685.045m-1.68-2.12 1.72.04m-1.705-2.114 1.731.034m-1.726-2.11 1.754.029m-1.798-2.103 1.777.022m-1.822-2.097 1.8.016m-1.846-2.091 1.823.01m-1.868-2.084 1.847.005m-1.893-2.08h1.87m-1.918-2.073 1.892-.007m-1.939-2.068 1.916-.013m-1.962-2.06 1.94-.02m-1.986-2.05 1.962-.021m-2.008-2.05 1.985-.03m-2.03-2.044 2.006-.036m-2.053-2.041 2.03-.041m-2.077-2.033 2.054-.048m-2.1-2.027 2.079-.053m-2.123-2.021 2.1-.06m-2.15-2.016 2.123-.065m-2.17-2.01 2.145-.071M502.888.99l2.17-.077m-2.216-2 2.192-.082m-2.238-1.992 2.215-.088m-5.836 76.965 1.362.127m-1.405-2.208 1.386.12m-1.428-2.2 1.41.114m-1.452-2.2 1.432.107m-1.48-2.19 1.455.103m-1.497-2.185 1.478.098m-1.52-2.18 1.501.093m-1.543-2.173 1.524.086m-1.566-2.167 1.547.08m-1.589-2.16 1.57.074m-1.612-2.157 1.593.07m-1.635-2.15 1.616.062m-1.657-2.144 1.64.057m-1.683-2.138 1.662.05m-1.705-2.13 1.685.044m-1.728-2.121 1.708.04m-1.716-2.12 1.731.029m-1.696-2.115 1.754.028m-1.719-2.11 1.777.023m-1.742-2.103 1.8.016m-1.766-2.096 1.823.01m-1.788-2.09 1.846.005m-1.81-2.086h1.868m-1.834-2.081 1.892-.008m-1.857-2.074 1.916-.013m-1.88-2.068 1.94-.02m-1.904-2.061 1.962-.024m-1.926-2.056 1.985-.03m-1.95-2.051 2.009-.036m-1.972-2.045 2.03-.042m-1.994-2.04 2.055-.045m-2.02-2.034 2.076-.053m-2.04-2.027 2.1-.06m-2.065-2.02 2.123-.065m-2.087-2.016 2.146-.071M499.2.88l2.17-.077M499.234-1.2l2.192-.082M499.27-3.28l2.215-.088" transform="matrix(.79646 0 0 .7753 100.072 273.796)"/>
		<path fill="#fff" stroke-width=".325" d="m453.628 111.746-1.793 7.92c11.97 5.557 45.723 5.812 48.864 5.824v.004l.303-.002.295.002v-.004c3.149-.011 37.924-.259 49.91-5.824l-1.793-7.92s-1.494 5.081-48.416 5.977c-46.921-.897-47.37-5.977-47.37-5.977z" transform="matrix(.79646 0 0 .7753 100.072 273.796)"/>
		<g stroke-width=".3">
			<path fill="#fff" d="M455.739 112.399c-.607-1.578-5.583-1.456-9.467-.243s-6.068.85-14.443.971-13.108 2.063-13.836 2.306-13.351 6.433-18.205 8.01-9.467 0-9.467 0 5.583 5.462 13.472 1.092c0 0-6.554 3.641-10.802 4.127 0 0 6.339 1.329 11.697-.986.48-.207.952-.444 1.411-.713 3.354-1.667 6.343-2.959 9.042-3.963 15.36-5.712 21.33-2.074 31.86-4.776" transform="matrix(-.86366 0 0 .84072 924.562 265.057)"/>
			<path fill="none" d="M414.554 122.707c-4.932 1.667-7.314 3.202-10.013 4.206m9.406-5.129c-4.28 1.52-6.738 2.979-9.363 3.99m8.757-4.914c-3.628 1.374-6.161 2.757-8.714 3.776m8.107-4.7c-2.976 1.228-5.585 2.534-8.064 3.562m7.458-4.485-7.415 3.347" transform="matrix(-.86366 0 0 .84072 924.562 265.057)"/>
		</g>
		<g fill="none">
			<path stroke-width=".265" d="M420.336 120.264s6.908-2.085 12.252-1.434m-11.47.13s6.484-1.825 12.186-1.336m-11.404.033s6.061-1.564 12.121-1.238m-11.33-.065s5.638-1.303 12.057-1.14m-11.274-.163s5.213-1.043 11.99-1.043" transform="matrix(-.86366 0 0 .84072 924.562 265.057)"/>
			<path stroke-width=".3" d="m441.841 113.877 6.25-1.213c2.67-.386 5.352-.549 6.132.17m-12.968 2.151s3.641-.407 6.578-1.138m-7.165 2.246s4.165-.054 6.905-1.063m-7.491 2.17s4.689.3 7.232-.987m-7.823 1.99s5.219.582 7.568-.815" transform="matrix(-.86366 0 0 .84072 924.562 265.057)"/>
		</g>
		<path fill="#fff" stroke-width=".312" d="M455.711 112.166c-.72 1.395-4.85.613-7.504 1.477.64.562 2.462 1.55 7.587 2.53.849-3.189-.083-4.007-.083-4.007z" transform="matrix(-.86366 0 0 .84072 924.562 265.057)"/>
		<path fill="#f1b517" stroke-width=".163" d="M492.513 81.011h19.184v17.914h-19.184z" transform="matrix(.79646 0 0 .7753 100.072 273.796)"/>
		<g stroke-linecap="round" stroke-width=".163">
			<path fill="#d20014" d="M501.995 98.215c1.258 0 2.476-.063 3.601-.179m-3.601-.781c1.258 0 2.476-.063 3.601-.179m-3.601-.781c1.258 0 2.476-.063 3.601-.18m-3.601-.78c1.258 0 2.476-.063 3.601-.18m-3.601-.78c1.258 0 2.476-.063 3.601-.18m-3.601-.78c1.258 0 2.476-.063 3.601-.18m-3.601-.78c1.258 0 2.476-.063 3.601-.18m-3.601-.78c1.258 0 2.476-.063 3.601-.18m-3.601-.78c1.258 0 2.476-.063 3.601-.18m-3.601-.78c1.258 0 2.476-.063 3.601-.18m-3.601-.78c1.258 0 2.476-.063 3.601-.18m-3.601-.78c1.258 0 2.476-.063 3.601-.18m-3.601-.78c1.258 0 2.476-.063 3.601-.18m-3.601-.78c1.258 0 2.476-.063 3.601-.18m-3.601-.78c1.258 0 2.476-.063 3.601-.18" transform="matrix(.79646 0 0 .7753 100.072 273.796)"/>
			<path fill="#fff" d="M511.57 96.544c-.732.416-1.744.779-2.957 1.065m2.957-2.035c-.732.416-1.744.779-2.957 1.065m2.957-2.035c-.732.416-1.744.779-2.957 1.065m2.957-2.035c-.732.416-1.744.779-2.957 1.065m2.957-2.035c-.732.416-1.744.779-2.957 1.065m2.957-2.035c-.732.416-1.744.779-2.957 1.065m2.957-2.035c-.732.416-1.744.779-2.957 1.065m2.957-2.035c-.732.416-1.744.779-2.957 1.065m2.957-2.035c-.732.416-1.744.779-2.957 1.065m2.957-2.035c-.732.416-1.744.78-2.957 1.065m2.957-2.035c-.732.416-1.744.78-2.957 1.065m2.957-2.035c-.732.416-1.744.78-2.957 1.065m2.957-2.035c-.732.416-1.744.78-2.957 1.065m2.957-2.035c-.732.416-1.744.78-2.957 1.065m2.957-2.035c-.732.416-1.744.78-2.957 1.065" transform="matrix(.79646 0 0 .7753 100.072 273.796)"/>
			<path fill="none" d="M497.584 84.5c-1.807-.246-3.353-.638-4.474-1.126m4.474 2.092c-1.807-.246-3.353-.638-4.474-1.126m4.474 2.092c-1.807-.246-3.353-.638-4.474-1.126m4.474 2.093c-1.807-.246-3.353-.638-4.474-1.126m4.474 2.092c-1.807-.246-3.353-.638-4.474-1.126m4.474 2.093c-1.807-.246-3.353-.638-4.474-1.126m4.474 2.092c-1.807-.246-3.353-.638-4.474-1.126m4.474 2.092c-1.807-.246-3.353-.638-4.474-1.126m4.474 2.092c-1.807-.246-3.353-.638-4.474-1.126m4.474 2.093c-1.807-.246-3.353-.638-4.474-1.126m4.474 2.092c-1.807-.246-3.353-.638-4.474-1.126m4.474 2.092c-1.807-.246-3.353-.638-4.474-1.126m4.474 2.092c-1.807-.246-3.353-.638-4.474-1.126m4.474 2.093c-1.807-.246-3.353-.638-4.474-1.126m4.474 2.092c-1.807-.246-3.353-.638-4.474-1.126" opacity=".98" transform="matrix(.79646 0 0 .7753 100.072 273.796)"/>
		</g>
		<path fill="#d21034" stroke-width=".163" d="M501.995 75.683c-2.609 0-5.11.27-6.955.751s-2.881 1.132-2.881 1.812a.77.77 0 0 0 .15.433v2.453a.807.807 0 0 0-.16.433.799.799 0 0 0 .156.451v.47h.502c1.461.988 5.11 1.641 9.178 1.641s7.71-.654 9.168-1.642h.607v-.646a.72.72 0 0 0 .06-.274.73.73 0 0 0-.06-.242v-2.835a.73.73 0 0 0 .06-.242c0-.68-1.036-1.33-2.88-1.812s-4.347-.75-6.956-.75zm0 1.733.612.008.498.01.437.017.535.025.45.03.483.036.49.047.42.043.495.063.382.051.492.08.33.056.411.082.266.053h-.016c1.337.291 2.354.668 2.948 1.095-1.4 1.017-5.098 1.696-9.244 1.697s-7.84-.679-9.245-1.695c1.166-.847 3.951-1.472 7.336-1.647l.972-.038.936-.012z" transform="matrix(.79646 0 0 .7753 100.072 273.796)"/>
		<g fill="#fff" stroke-width=".163">
			<path d="M501.995 77.416c-4.147.001-7.844.68-9.244 1.697 1.404 1.016 5.1 1.693 9.244 1.695s7.844-.68 9.244-1.697c-1.41-1.016-5.1-1.693-9.25-1.695z" transform="matrix(.79646 0 0 .7753 100.072 273.796)"/>
			<path d="m501.781 75.686-.789.011v1.735l.789-.015zm5.389.383v1.736l.789.142V76.21l-.789-.142zm-10.91.098-.788.165v1.733l.788-.164zm11.961 4.058-.92.173v3.32l.92-.173zm-9.07.47v3.322l.92.061v-3.322z" transform="matrix(.79646 0 0 .7753 100.072 273.796)"/>
		</g>
		<g fill="#d21034" stroke-width=".163">
			<path d="M511.771 97.18c-.364.222-.855.431-1.457.62-1.794.747-4.935 1.202-8.318 1.204-3.367-.001-6.498-.451-8.298-1.192-.56-.176-1.025-.369-1.38-.574v2.091a.807.807 0 0 0-.157.433.799.799 0 0 0 .156.451v.47h.502c1.462.989 5.11 1.642 9.178 1.642s7.708-.654 9.168-1.642h.607v-.646a.72.72 0 0 0 .06-.274.73.73 0 0 0-.06-.242z" transform="matrix(.79646 0 0 .7753 100.072 273.796)"/>
			<path d="M492.513 82.722v2.872l3.521 12.879.825.147z" transform="matrix(.79646 0 0 .7753 100.072 273.796)"/>
			<path d="m499.186 84.019-3.108 14.462.746.133 3.128-14.544-.767-.052zm8.759-.419-.82.146-3.807 15.231.79-.035z" transform="matrix(.79646 0 0 .7753 100.072 273.796)"/>
			<path d="m499.175 84.019 3.886 14.969.777-.033-3.863-14.882-.799-.054zm8.983-.462-.748.143 3.808 13.471.478-.136v-.958z" transform="matrix(.79646 0 0 .7753 100.072 273.796)"/>
		</g>
		<path fill="#fff" stroke-width=".163" d="M511.76 97.186a5.6 5.6 0 0 1-.859.406v3.243l.262-.154h.597zm-15.821 1.268v3.322l.859.157v-3.322zm7.989.497-.86.036v3.32l.86-.035z" transform="matrix(.79646 0 0 .7753 100.072 273.796)"/>
		<path fill="none" stroke-width=".3" d="M494.003 4.616h1.562m-1.601-.893h1.562m-1.601-.893h1.562m-1.601-.893h1.562m-1.6-.893h1.561m-1.6-.893h1.56m-1.6-.893h1.562m-1.6-.893h1.562m-1.6-.893h1.56m-1.6-.893h1.562m-1.6-.893h1.56m-1.6-.893h1.562m-1.6-.893h1.56m-1.6-.893h1.562m-1.6-.893h1.56m-1.6-.893h1.562m-1.6-.893h1.56m-1.6-.893h1.57m-1.6-.893h1.56m-1.6-.893h1.564m-1.6-.893h1.56m-1.6-.893h1.562m-1.6-.893h1.56m-1.6-.893h1.563" transform="matrix(.86366 0 0 .84072 74.2 265.057)"/>
		<g fill="#016a16">
			<path stroke-width=".325" d="M499.073-36.57c-16.031-2.119-21.099-.553-21.836-.276s-11.056 3.133-15.11 9.95-.921 9.398-.921 9.398c-.737-1.566 1.935-7.371 1.935-7.371-1.29 2.395.369 6.449.369 6.449-.553-1.198.645-4.791.645-4.791l.921 2.856c0-1.658.829-5.62.829-5.62.092 5.159 1.106 6.08 1.106 6.08-.92-1.29.65-9.212.65-9.212-.92 4.699.558 5.712.558 5.712 0-5.528 2.672-8.384 2.672-8.384-2.856 3.225-.83 7.923-.83 7.923.277-5.436 4.423-9.766 4.423-9.766-3.87 4.146-1.566 6.91-1.566 6.91.091-3.501 6.08-8.568 6.08-8.568-2.58 2.488-2.49 5.528-2.49 5.528 1.014-1.935 4.884-5.712 4.884-5.712-.92 1.29-1.75 4.699-1.75 4.699l1.197-.737 3.318-4.054-2.027 3.133 2.027-.921 2.303-2.12-1.013 1.383 1.658-.472 1.658-1.935-1.013 1.382h2.395l1.014-1.012-.459 1.106 1.75.09.553-1.012-.092 1.013h.83l.736-1.473-.276 1.474s1.935 0 2.303.46-11.793 3.779-11.793 3.779 2.672 0 2.856.738-6.08 1.75-6.08 1.75l3.04 1.29-6.082.83 4.422.555-7.647 1.843h7.002l-7.37 1.474 4.698.645-6.173.92 5.897.553-6.357 2.672 3.41-.554c-6.726 6.449-4.329 11.056-4.329 11.056.46-2.027 3.5-6.726 3.5-6.726-.737 5.989.921 8.108.921 8.108.184-1.658 2.303-10.135 2.303-10.135.37 1.935.553 7.463.553 7.463 1.566-1.291.921-7.74.921-7.74l2.488 2.395c-1.198-2.027-.92-6.726-.92-6.726.737.829 1.658 4.054 1.658 4.054l.83-6.172c0 1.935 1.473 5.712 1.473 5.712l.553-6.45c.092 1.567 1.843 4.7 1.843 4.7v-7.002l1.196 3.133.184-4.883.553 5.712 1.013-1.198-.829-.092.37-.185 1.012-5.62 1.566 2.58.553-1.658-.37-2.672c.554.184 1.383 1.843 1.383 1.843v-3.41l1.474.646 2.21-3.226-1.381 2.58 2.12-1.29-2.49 1.935 1.565.646-3.5.369v.92l3.132.276c-4.422.739-4.515 2.029-4.515 2.029l4.237-.184c-3.317-.092-5.712 2.303-5.712 2.303l5.067-.184c-4.699.369-6.634 2.21-6.634 2.21l5.9.37c-2.949-.276-6.174 2.948-6.174 2.948l3.87.092c-3.594.369-4.423 2.395-4.423 2.395l3.133.092c-3.225 1.843-3.41 4.975-3.41 4.975l3.596-2.856c-3.777 3.317-2.488 6.08-2.488 6.08l2.303-2.671c-3.225 3.133-2.488 5.344-2.488 5.344l2.395-2.581c-1.198 7.83.46 8.016.46 8.016l.554-7.924c2.027 1.014 3.317 5.62 3.317 5.62l-1.751-7.278c1.934 1.382 2.487 4.238 2.487 4.238.736-3.317-2.304-7.647-2.304-7.647l3.777 4.79-2.855-7.277 3.317 4.975c.092-4.7-2.58-7.647-2.58-7.647l4.054 3.5c-.183-1.472-2.302-5.342-2.302-5.342.829.645 2.395 2.58 2.395 2.58-.553-2.303-2.856-4.975-2.856-4.975 1.106.276 2.948 2.58 2.948 2.58 0-1.29-1.29-6.081-1.29-6.081l1.382 2.948-.553-4.791 1.198 1.843-.276-3.317.829.184.55-3.966-.275 4.054-.92-.371.276 3.226 2.856-3.133-1.658 5.62 2.856-2.673-2.303 4.883 3.317-3.87-2.491 6.358 2.673-2.303-2.488 4.607c1.382 0 4.146-3.04 4.146-3.04-1.382.829-3.41 5.897-3.41 5.897 1.752 0 2.949-3.133 2.949-3.133l-2.856 5.252c1.75-.552 3.685-3.87 3.685-3.87.369 1.844-3.04 7.83-3.04 7.83 1.106 0 2.856-1.472 2.856-1.472s.276-1.198-.921 1.013-3.962 4.883-3.962 4.883c2.395.09 4.699-3.134 4.699-3.134.369 1.473-2.856 7.278-2.856 7.278 2.303-.183 4.238-6.633 4.238-6.633.737.829 1.198 8.292 1.382 7.37s.092-10.135.092-10.135c.46.645 2.344 4.863 2.344 4.863.137-2.06-2.06-10.024-2.06-10.024l2.608 4.804-3.16-9.201 3.847 4.669-4.807-9.338 2.469 3.708c-.823-6.317-4.943-6.317-4.943-6.317 4.942-.687 5.354 5.493 5.354 5.493 1.1-.273.961-3.431.961-3.431l.275 1.51.824 5.217.55-4.532v5.63c0 .549 1.647-3.296 1.647-3.296.412.687.412 5.356.412 5.356l1.372-3.708c.824 2.197.275 5.905.275 5.905 1.373 0 1.785-3.296 1.785-3.296l1.648 4.803-.137-3.57c-.137-3.57-4.944-10.573-6.18-11.26s-6.04-2.196-6.04-2.196l-4.533-4.257 4.532 4.257c.55-.687-.55-4.12-.55-4.12l3.57 4.669c.824-1.648-.824-4.394-.824-4.394 1.1 1.236 4.257 5.767 4.257 5.767.412-1.648-.824-5.356-.824-5.356.96.96 4.393 6.59 4.393 6.59-.137-.548-2.06-6.178-2.06-6.178 2.334 2.06 4.67 8.65 4.67 8.65.687-2.196-.96-7.964-.96-7.964l3.981 9.475c.412-1.923-.275-5.767-.275-5.767 1.236 1.099 3.296 6.042 3.296 6.042-.275-2.884-1.099-6.454-1.099-6.454l3.57 6.59-.689-4.393 2.197 4.806-1.099-4.257 3.021 4.257-2.472-4.532 3.57 3.57s-5.218-6.455-6.317-7.416-10.848-4.532-13.046-5.63-11.81-.55-11.81-.55l2.884-.136-.549-1.234.55 1.099h1.922l-1.1-1.1.824 1.238h3.296l-2.197-1.923c1.1.549 2.197 1.785 2.197 1.785l1.648.137-1.099-2.334 1.648 2.609 2.746.549c-.412-1.236-2.06-3.158-2.06-3.158 1.1 1.099 2.472 3.296 2.472 3.296l2.334.824c0-1.236-1.923-3.982-1.923-3.982 1.647 1.372 3.02 4.255 3.02 4.255.138-1.1-.823-4.393-.823-4.393 1.1.687 2.884 4.944 2.884 4.944.137-1.236-.137-4.944-.412-4.806.825.96 2.611 5.905 2.611 5.905v-4.806c.548 0 2.06 5.218 2.06 5.218.823-1.923-.138-5.905-.138-5.905.687 1.373 2.197 5.767 2.197 5.767l.275-1.922.412 3.57.412-3.02 1.236 3.295c-.137-1.923-1.648-7.141-1.648-7.141 1.1 1.099 3.982 7.553 3.982 7.553v-2.337l.824 3.708c1.236-3.708-1.373-7.827-1.373-7.827 1.923 2.746 2.61 6.317 2.61 6.317l.823-1.923c.824 1.373.824 4.944.824 4.944 1.1-3.845-1.1-7.278-1.1-7.278 2.335 1.785 3.709 9.063 3.709 9.063l.412-5.63c.687 1.372 1.99 5.65 1.99 5.65.313-2.383-.69-6.395-2.006-8.15s-2.383-3.574-10.66-5.33-28.276-.25-28.276-.25l3.198-.69c2.07-1.63 6.834-.251 6.834-.251l1.19.062-.25-1.882c-.063-.502 2.257 1.63 2.257 1.63l.815.063v-2.383l3.385 2.57 1.254.19-2.194-2.946c1.254 1.19 5.016 2.696 5.016 2.696-.25-1.066-3.072-3.323-3.072-3.323.94 0 4.828 3.51 4.828 3.51l-2.32-2.695 5.58 2.633c-.376-.69-2.257-2.633-2.257-2.633 2.194 2.007 6.71 3.199 6.71 3.199l-5.33-4.264 6.646 5.204c-1.066-3.26-4.326-6.145-4.326-6.145 1.63.25 7.837 6.396 7.837 6.396 0-2.445-2.32-5.33-2.32-5.33 1.63.565 5.768 6.208 5.768 6.208.188-1.505-2.194-5.455-2.194-5.455 1.25.627 4.637 5.518 4.637 5.518.75-2.822-2.445-5.33-2.445-5.33l6.42 3.526c-3.348-5.02-10.104-6.694-10.91-7.004s-6.755-.31-11.9-.124-11.713 3.16-12.023 3.225-5.578 1.673-5.578 1.673l-1.426-.558 1.797.434 2.48-.682-2.48-1.55 3.22 1.239 1.674-.62-2.417-1.423 2.603 1.178 3.843-1.426-4.4-1.673 6.94.062-5.268-1.858 8.553 1.426c-.744-.93-3.16-1.735-3.16-1.735 1.733 0 5.7.93 5.7.93-.745-.868-4.154-2.417-4.154-2.417 1.86.372 6.818 1.86 6.818 1.86l-3.657-2.542 3.533 1.364c-.62-1.116-2.603-2.045-2.603-2.045.806 0 6.756 2.913 6.756 2.913-1.302-2.106-4.153-5.081-4.153-5.081l3.657 2.293-2.107-2.417 5.454 2.54c-1.86-2.602-6.012-4.09-7.252-4.276s-9.98.806-16.858 5.702-7.685 9.42-7.685 9.42-7.05-15.28-19.397-16.2c0 0 1.935 1.843 5.712 2.672 0 0-4.146.92-5.16 2.396 0-.001 4.608-.371 7.556.459 0-.003-4.883 1.01-5.62 2.3 0 0 5.252-.552 8.016-.091 0 0-4.7.646-4.883 1.75 0 0 7.28 0 7.555 1.384 0 0-4.975-.184-6.265.645 0 0 6.54.92 7.83 1.843l-4.054.645s5.252 1.106 5.897 2.58c0 0-11.61-5.066-21.1-6.08s-12.345 1.474-14.003 2.856-5.436 4.975-4.79 7.923c0-.001 2.026-3.964 6.91-7.096l-4.423 5.343 4.975-4.054s-3.04 4.147-3.04 5.53c0-.002 4.7-7.651 6.726-9.032 0 0-3.41 4.33-3.317 5.99 0-.001 6.54-6.451 7.186-6.36 0 0-4.974 4.516-4.882 7.464 0-.001 5.712-6.081 7.463-6.635 0-.001-4.33 2.487-3.5 4.606l4.698-4.33-2.856 4.607 1.382-.46s2.027-3.87 4.883-3.778l-3.777 3.594 1.935-.184s2.21-2.764 4.883-3.685c.002 0-3.868 3.133-4.052 3.685l1.198.092s2.303-2.395 4.054-2.856l-1.658 2.672h.83l2.212-2.12-1.566 2.027 2.027.184 1.474-1.29-1.198 1.476h1.474l.92-.737-.093.92 2.395.093.645-1.29-.092 1.106z" transform="matrix(.79646 0 0 .7753 100.072 273.796)"/>
			<path stroke-width=".287" d="m488.754-36.478-1.658 1.934-.184.05v.227s-6.449 2.395-11.24 6.54-7.74 8.754-8.292 10.965-.645 8.384-.645 8.384.921-5.16 1.474-5.897c0 0 0 3.225.461 3.962l.553-6.45s.184 4.608 1.197 5.068c0 0-.276-5.805.461-7.647 0 0-.276 3.133.277 3.962 0 0 .829-7.28 2.764-9.214 0 0-2.303 3.778-.829 9.122l.444-2.037-.628.102.667-.28.622-2.852.923 2.202.373-.156.233-1.917-2.357-.221 2.824-.421.031-.955-1.381-.19 1.395-.278.038-1.195h-1.065l1.073-.258.032-1.032.12.995 1.513-.365.21-1 .207.899.123-.04.254-1.566-.308-.04.321-.044.232-1.431.18 1.375.71-.098.39-2.014.461 1.842s1.197-3.962 2.118-4.422l.072 2.41.43-.081 1.985-3.435-.036 1.12.781-.216.822-1.917.553 1.474.922-1.106.436.776 7.672-2.62c-.37-.46-2.304-.46-2.304-.46l.276-1.473-.737 1.474h-.829l.092-1.012-.553 1.014-1.75-.092.46-1.108-1.012 1.014h-2.396zm-3.451 5.827-.05 1.543.639-1.492a11.09 11.09 0 0 0-.59-.052zm-6.109 4.678.171 1.299.217-.052.229-1.17zm-2.722 2.3.135 1.122 1.011-.202.192-.918zm.208 1.727.097.805.52-.077.13-.625zm-.84 1.546.291 1.242.04-1.211zm1.038.097.082.684.14-.663zm-1.468 2.489-.066.01.05.12z" transform="matrix(.79646 0 0 .7753 100.072 273.796)"/>
		</g>
		<path fill="#f1b517" stroke-width=".325" d="m502.997-51.5-.808 11.126 1.355 2.499s.153-.845.875-2.196l-.354-10.991a8.87 8.87 0 0 0-1.068-.438zm1.517 14.371-.405.087.41.113z" transform="matrix(.79646 0 0 .7753 100.072 273.796)"/>
		<path fill="#fff" stroke-width=".29" d="M467.962 63.661s3.837-2.193 6.03-.091l-.731 1.553-3.746.274z" transform="matrix(.79646 0 0 .7753 100.072 273.796)"/>
		<g fill="green">
			<path stroke-width=".164" d="m470.708 58.891-.076 5.949.761.007.076-5.95z" transform="matrix(.79646 0 0 .7753 100.072 273.796)"/>
			<path stroke-width=".265" d="M468.076 65.611s.773.32.618 1.471-.464 5.31 2.472 5.31 2.55-4.03 2.55-4.67.232-1.855.232-1.855v-2.303s-2.936 2.175-5.872-.064z" transform="matrix(.79646 0 0 .7753 100.072 273.796)"/>
		</g>
	</g>
	<g fill="#fff">
		<path d="M474.893 325.38s-.186 1.113-.186 2.23c0 .558.043 1.117.193 1.558.075.221.176.415.335.568a.94.94 0 0 0 .12.094c.199-.002.377-.026.534-.071l-.01-.195a.29.29 0 0 1-.247-.098 1.053 1.053 0 0 1-.23-.41c-.127-.371-.176-.907-.176-1.446 0-1.078.183-2.172.183-2.172z"/>
		<path stroke="#000" stroke-width=".119" d="M477.525 324.441c-2.116.673-3.652.453-4.651.079v.144a.87.87 0 0 0 .433.483c1.96.926 3.493.175 4.239-.361z"/>
	</g>
	<path d="m467.714 363.843-.552-.103-.788 3.987 2.63.493.095-.478-2.09-.389zm2.177 1.85.417.066.238-1.423-.417-.066zm4.036-.882-.357 2.542q-.045.326-.167.521-.127.206-.307.308-.359.192-.769.132-.182-.024-.36-.106-.175-.079-.315-.223-.131-.143-.194-.374-.068-.226-.023-.552l.355-2.531-.557-.074-.377 2.685q-.088.582.239 1.052.324.484 1.147.604.853.102 1.323-.287.465-.378.554-1.011l.366-2.61zm3.72 3.7h-.01l-1.726-3.462-.663-.068-.432 4.04.542.053.35-3.262.01.001 1.763 3.478.629.064.432-4.04-.545-.055zm2.356-3.078-.562-.048-.36 4.045.573.046zm4.011 2.33q-.059.722-.47 1.153-.417.437-1.099.395-.684-.053-1.027-.542-.354-.485-.3-1.206.052-.733.474-1.158.41-.431 1.095-.389.682.054 1.031.538.346.478.298 1.21zm.577.041q.025-.34-.038-.718-.077-.379-.287-.712-.208-.344-.58-.575-.389-.223-.966-.269-.286-.02-.533.013-.247.036-.45.121-.405.177-.667.488-.252.3-.379.666-.132.364-.157.703-.024.33.054.703.072.374.277.718.214.342.59.572.372.236.952.282.295.02.542-.026.247-.032.452-.12.403-.177.659-.486.256-.312.388-.671.117-.361.142-.69zm3.321 1.42h-.01l-1.907-3.38-.666-.035-.219 4.054.544.028.177-3.276h.011l1.943 3.385.632.033.22-4.055-.548-.028zm3.69-.918 2.044.063.016-.486-2.045-.064.041-1.242 2.322.075.016-.485-2.887-.09-.135 4.057.565.018zm4.8.783.387 1.19.616.011-1.429-4.088-.638-.012-1.649 4.03.58.011.46-1.175zm-1.492-.514.705-1.772h.011l.58 1.798zm3.723-2.338-.565-.006-.034 4.06.565.004zm.397.492 1.41-.018.048 3.573.565-.007-.048-3.573 1.413-.018-.007-.489-3.387.043zm6.047-.597-.562.017.13 4.058 2.677-.078-.016-.487-2.115.065zm5.08 2.695.463 1.166.615-.026-1.689-3.992-.638.027-1.386 4.122.578-.025.384-1.199zm-1.522-.419.59-1.814h.01l.695 1.76zm5.237-.437 2.041-.127-.032-.485-2.04.127-.083-1.24 2.32-.145-.033-.485-2.882.18.267 4.052.563-.035zm6.134-.63q.056.722-.284 1.21-.342.492-1.023.553-.685.05-1.1-.382-.426-.426-.488-1.147-.063-.732.286-1.215.337-.49 1.02-.55.683-.05 1.103.376.417.421.486 1.152zm.577-.046q-.029-.339-.15-.702-.137-.363-.396-.66-.26-.31-.664-.482-.418-.163-.996-.122-.286.026-.525.095-.239.071-.425.186-.373.235-.582.582-.202.335-.269.715-.073.38-.044.72.028.327.164.685.131.357.387.666.265.305.673.478.405.178.985.136.294-.024.532-.107.24-.069.428-.187.37-.235.574-.578.204-.348.277-.721.06-.375.031-.702zm1.274.16 1.356-.143q.25-.026.41.02.154.047.24.146.087.094.123.22.031.127.045.257.015.137.075.464.031.152.064.296.034.143.072.243l.688-.073-.01-.09q-.129-.06-.18-.14-.05-.08-.073-.244l-.115-.726q-.034-.208-.087-.343-.06-.133-.139-.196-.077-.077-.164-.112-.092-.032-.192-.055.096-.066.19-.162.091-.084.166-.2.075-.124.108-.286.028-.159.003-.379-.08-.628-.517-.82-.434-.182-.967-.12l-1.918.202.452 4.036.562-.06zm-.205-1.837 1.396-.149q.231-.03.491.048.123.051.214.178.092.132.118.368.025.22-.03.361-.055.15-.169.234-.113.088-.26.126-.146.051-.307.067l-1.3.143zm6.971-.105q-.134-.52-.612-.847-.475-.333-1.278-.233-.906.137-1.325.773-.428.643-.294 1.59.18 1.143.823 1.564.618.421 1.35.314.127-.018.38-.09.251-.078.522-.263.27-.192.46-.556.19-.359.201-.926l-.542.075q-.017.351-.119.588-.104.238-.263.38-.158.136-.322.21-.167.07-.31.09-.755.1-1.138-.339-.378-.422-.478-1.147-.11-.794.223-1.254.315-.448.891-.529.161-.022.34-.025.175.01.357.076.18.067.335.216.155.146.25.406zm4.114 1.647-2.469.46-.262-1.336 2.244-.417-.094-.48-2.244.415-.24-1.22 2.43-.453-.094-.478-2.985.555.783 3.988 3.024-.563z" letter-spacing="0" word-spacing="0"/>
	<defs>
		<path id="a" d="m466.579 21.667 7.546 15.955 1.725-.862 13.475 25.442.108-4.312-12.782-22.496.6-.466-.863-.97-.418.24-.013-.024s-.862-.107-.97.216z"/>
		<path id="b" d="m466.579 21.667 7.546 15.955 1.725-.862-.909-2.442zm15.287 22.904c-.439.159-1.091.417-1.514.688l1.86 3.513c.308-.229.904-.617 1.507-.692a.206.206 0 0 0 .112-.049z"/>
		<path id="c" d="m476.389 33.957-.389.222.665 1.204.586-.456z"/>
		<path id="d" d="m466.579 21.667 7.546 15.955 1.725-.862-.909-2.442z"/>
		<path id="e" d="m471.5 15.643 5.918 16.628 1.802-.686-.661-2.521z"/>
		<path id="f" d="m480.036 28.85-.409.182.542 1.264.629-.395z"/>
		<path id="g" d="M482.779 36.234c-.521.143-.987.471-1.345.781l1.432 3.511c.43-.265.995-.505 1.505-.695z"/>
		<path id="h" d="m471.5 15.643 5.918 16.628 1.802-.686 10.871 26.659.537-4.28-10.475-23.659.643-.404-.761-1.052-.44.196-.011-.024s-.847-.193-.987.118z"/>
		<path id="i" d="M531.908 13.848c-1.863.819-3.542.164-3.542.164s-.819 1.065 1.392 1.187c0 0 .88.082.287 1.065"/>
		<path id="j" d="M534.529 11.944s-3.337-2.723-5.446-2.559-2.211.123-2.395.491-.553 2.068.389 3.317 1.331.942 1.495.676 1.495-1.044 4.013-.47"/>
		<path id="k" d="M529.284 9.378a2.43 2.43 0 0 0-.201.007c-2.109.164-2.211.123-2.396.491-.127.254-.341 1.138-.155 2.072.315-.302.964-.588 2.304-.516 2.662.143 4.218 1.229 4.218 1.229l.263.188 1.211-.905s-3.132-2.555-5.245-2.566z"/>
		<path id="l" d="M511.016 41.954s2.949 6.765 2.486 15.496l17.81-16.594 8.5-7.69-.174.116-1.099-5.319-.52-3.007-1.388.347v-1.735l-.231-1.503-1.214-2.37-.983-2.545-.231-2.139.463-2.544-.636.29z"/>
		<path id="m" d="M563.748 43.227s1.735 1.735 1.966 5.666l.173 6.649s-2.833 1.677-5.493.983c0 0 .463-1.156.52-2.775s-.058-10.003-.058-10.003z"/>
		<path id="n" d="m562.13 43.747-1.271.085.057 9.918c-.058 1.619-.52 2.776-.52 2.776.973.254 1.968.189 2.84.006l.282-7.638c-.058-2.602-1.388-5.146-1.388-5.146z"/>
		<path id="o" d="M584.629 114.809c.532-1.384 1.969-1.703 1.969-1.703s.106-.106-.319-1.118-.213-1.756-.213-1.756c.16-5.376-.373-6.813-.373-6.813.373 0 2.076 2.023 2.076 2.023-.053-5.11-7.61-7.505-7.61-7.505 2.767 7.026 1.702 7.824 1.702 7.824 1.756-.745 1.97-1.916 1.97-1.916.318 1.916.052 5.642.052 5.642s.106 1.756-1.544.905-8.303-4.045-8.303-4.045l-.692 1.384 9.155 4.258s1.331.585.958 1.597-.585 1.17-.585 1.17z"/>
		<path id="p" d="M583.884 109.486s.266-3.726-.053-5.642c0 0-.213 1.171-1.969 1.916 0 0 1.065-.798-1.703-7.824 0 0 7.558 2.395 7.611 7.505 0 0-1.703-2.023-2.076-2.023 0 0 .532 1.437.373 6.813"/>
		<path id="q" d="M584.629 114.809c.532-1.384 1.969-1.703 1.969-1.703s.106-.106-.319-1.118-.213-1.756-.213-1.756c.16-5.376-.373-6.813-.373-6.813.373 0 2.076 2.023 2.076 2.023-.053-5.11-7.61-7.505-7.61-7.505 2.767 7.026 1.702 7.824 1.702 7.824 1.756-.745 1.97-1.916 1.97-1.916.318 1.916.052 5.642.052 5.642s.106 1.756-1.544.905-8.303-4.045-8.303-4.045l-.692 1.384 9.155 4.258s1.331.585.958 1.597-.585 1.17-.585 1.17"/>
		<path id="r" d="M570.684 104.471a1.63 1.63 0 0 0-.977.32c-.174.136-.322.344-.367.609s.01.576.184.938c.36.75 1.077 1.025 1.664 1.104s1.084-.023 1.084-.023l-.088-.441s-.434.085-.937.018-1.038-.271-1.316-.852c-.14-.304-.17-.52-.14-.668s.099-.245.2-.328c.216-.166.59-.225.7-.225.188 0 .347-.03.648.12s.73.498 1.303 1.278l.363-.268c-.598-.816-1.073-1.216-1.465-1.412s-.71-.17-.846-.17z"/>
		<path id="s" d="M571.376 109.274s.213-3.513 2.448-4.737c0 0 .532.053.585.479s-2.076 4.152-2.076 4.152z"/>
		<path id="t" d="M571.629 108.879s.177-2.927 2.04-3.947c0 0 .443.044.488.399s-1.73 3.459-1.73 3.459z"/>
		<path id="u" d="M581.874 75.422s4.03.232 3.983 2.223-.648 3.937.695 4.307 4.122.371 4.817 1.112.695 1.575.695 1.575-3.474-1.251-5.002-.371-3.128-.509-3.38-.973c-.557-1.019-.233-3.011-1.298-3.381s-4.446-.417-4.446-.417z"/>
		<path id="v" d="m543.911-1.2-4.364 10.177s-1.27-1.289-2.296.048l-1.024 1.333m7.668-11.57-8.424 7.188s1.607.829.635 2.207l-.97 1.373 1.09.802"/>
		<path id="w" d="M493.047-199.533h7.427v2.665h-7.427z"/>
		<path id="x" d="M493.545-199.078h6.431v1.755h-6.431z"/>
		<path id="y" d="M552.991 23.897s-5.495-1.051-6.834-.239 2.342.86 3.058.62l-1.386 1.387s-3.16-.765-3.68-3.727 1.57-2.963 2.05-2.915 3.25.478 6.781 4.874z"/>
		<path id="z" d="M545.101 20.784c-.604.179-1.059.604-.903 1.393 0 0 .239.908.478 1.386a.3.3 0 0 1 .073-.084c.18.283.387.534.606.753l.539-.177c-.068-.105-.003-.235.264-.397a1.86 1.86 0 0 1 .587-.204c.998-.383 2.49.014 2.806-.035l1.673.096s-4.98-3.07-6.121-2.731z"/>
		<path id="B" d="M552.275 23.853c-.143.69-.301 1.596-.22 2.002 1.79 4.572 4.223 4.671 3.269 10.226l1.885-.053c.203-2.577-.203-5.018-.678-6.104-.237-.543-.763-1.187-1.339-1.814s-1.204-1.238-1.645-1.713c-.882-.949-.271-2.17-.271-2.17z"/>
		<path id="C" d="M551.106 23.414s-.332.874-.332 2.1c0 .613.083 1.314.332 2.037s.46 1.44.633 2.233c.347 1.587.542 3.486.588 6.38l2.998-.083c.954-5.555-1.479-5.654-3.269-10.226-.081-.406.077-1.313.22-2.002z"/>
		<path id="D" d="M553.276 24.228s-.61 1.221.271 2.17l1.645 1.712c.576.627 1.102 1.272 1.339 1.814.475 1.085.882 3.527.678 6.104m0 0-4.883.136c-.045-2.894-.241-4.793-.588-6.38a19.6 19.6 0 0 0-.633-2.233 6.26 6.26 0 0 1-.332-2.037c0-1.226.332-2.1.332-2.1l2.17.814"/>
		<path id="E" d="m548.427 80.397-4.217 7.381-16.666 1.24-1.575.212s-2.434 5.738-5.137 6.502-20.781 6.402-20.781 6.402l-.556-4.133 11.715-3.78s3.437-1.264 4.459-2.604 9.543-9.5 9.543-9.5z"/>
		<path id="G" d="M540.471 63.209s.684.648 1.533-.389 3.332-5.311 3.807-6.089 1.087-1.425.281-1.943-1.936.13-2.864 2.073-3.98 5.311-2.756 6.348z"/>
		<path id="H" d="M218.18 61.609c-.87 0-2.104 1.868-2.104 4.826s.705 5.355 1.575 5.355c.32-.002.63-.332.89-.945h46.52l-.2-8.76-46.05.711c-.3-1.09-.185-1.183-.623-1.185z"/>
		<path id="I" d="M263.025 62.156s-.207.466-.277.758m-.727-.741s-.207.466-.277.758m-.727-.74s-.207.476-.277.768m-.727-.74s-.207.464-.277.756m-.727-.74s-.207.466-.277.758m-.727-.74s-.207.465-.277.757m-.727-.74s-.207.466-.277.758m-.727-.74s-.207.465-.277.757m-.727-.74s-.207.465-.277.757m-.727-.74s-.207.466-.277.758m-.727-.74s-.207.465-.277.757m-.727-.74s-.207.465-.277.757m-.727-.74s-.207.466-.277.758m-.727-.74s-.207.466-.277.758m-.727-.74s-.207.466-.277.758m-.727-.74s-.207.465-.277.757m-.727-.74s-.196.466-.266.758m-.728-.74s-.206.465-.276.757m-.727-.74s-.206.465-.276.757m-.727-.74s-.207.466-.277.758m-.727-.74s-.207.465-.277.757m-.727-.74s-.207.466-.277.758m-.727-.74s-.207.465-.277.757m-.727-.74s-.207.465-.277.757m-.728-.74s-.206.465-.276.757m-.727-.74s-.206.465-.276.757m-.727-.74s-.207.465-.277.757m-.727-.74s-.207.465-.277.757m-.727-.74s-.207.466-.277.758m-.727-.74s-.207.467-.277.759m-.727-.74s-.207.465-.277.757m-.728-.74s-.206.465-.276.757m-.727-.74s-.205.466-.275.758m-.727-.74s-.206.466-.276.758m-.727-.74s-.206.466-.276.758m-.727-.74s-.206.465-.276.757m-.727-.74s-.207.466-.277.758m-.727-.74s-.207.466-.277.758m-.727-.74s-.207.465-.277.757m-.727-.74s-.207.467-.277.759m-.727-.741s-.207.465-.277.757m-.728-.74s-.207.465-.277.757m-.729-.74s-.206.466-.276.758m-.727-.74s-.207.465-.277.757m-.728-.74s-.207.465-.277.757"/>
		<path id="K" d="M225.229 61.961a4.853 1.472 86.347 0 0-1.157 4.948 4.853 1.472 86.347 0 0 1.781 4.738 4.853 1.472 86.347 0 0 .43-.266 4.853 1.472 86.347 0 1-1.257-4.472 4.853 1.472 86.347 0 1 .726-4.682 4.853 1.472 86.347 0 0-.525-.266z"/>
		<path id="L" d="m265.469 64.91 2.557-.521s1.657.331 1.846.994.379 1.657.284 1.941-3.03 1.231-4.214.426z"/>
		<path id="M" d="M269.872 65.383c-.998.392-2.832.535-4.226.588l.297 1.78c1.184.81 4.12-.14 4.214-.42s-.095-1.28-.284-1.94z"/>
		<path id="N" d="M264.574 61.882c-.103.006-.201.085-.289.232.346.901.618 2.452.725 4.124.122 1.924.003 3.685-.303 4.516.166.331.337.5.5.495.27-.02.497-.52.63-1.41s.16-2.087.075-3.329-.272-2.428-.522-3.298-.544-1.35-.815-1.339z"/>
		<path id="O" d="M443.728 74.86v.033c.553.125.964.615.964 1.207v8.269l-5.847-5.847a1.235 1.235 0 0 1-.172-1.535l-.024-.023-2.533 2.533.01.01a1.23 1.23 0 0 1 1.646.088l5.945 5.945h-8.465a1.235 1.235 0 0 1-1.207-.964h-.033v3.582h.014a1.232 1.232 0 0 1 1.226-1.102h8.408l-5.985 5.985a1.235 1.235 0 0 1-1.536.172l-.023.023 2.533 2.533.01-.01a1.23 1.23 0 0 1 .088-1.646l5.945-5.945v8.465c0 .592-.411 1.082-.964 1.207v.033h3.583v-.014a1.232 1.232 0 0 1-1.102-1.23v-8.6l6.083 6.08c.452.45.478 1.16.088 1.642l.01.01 2.534-2.533-.024-.023a1.235 1.235 0 0 1-1.535-.172l-5.985-5.985h8.407c.64 0 1.157.481 1.226 1.102h.014V84.57h-.033a1.235 1.235 0 0 1-1.207.964h-8.464l5.945-5.945a1.233 1.233 0 0 1 1.646-.088l.01-.01-2.534-2.533-.023.023a1.234 1.234 0 0 1-.172 1.535l-5.986 5.986V76.1c0-.64.481-1.157 1.102-1.226v-.014z"/>
		<path id="P" d="M445.451 71.277a15.09 15.09 0 1 0 0 30.18c8.334 0 15.09-6.756 15.09-15.09s-6.756-15.09-15.09-15.09zm0 3.84c6.213 0 11.25 5.037 11.25 11.25s-5.037 11.25-11.25 11.25-11.25-5.037-11.25-11.25 5.037-11.25 11.25-11.25z"/>
		<path id="Q" d="M486.18 68.609s-5.88 2.534-6.386-1.825c0 0-3.548 4.46 1.318 7.299 0 0-2.23-3.548 5.069-3.954 0 0 1.014.101.912-.71s-.912-.82-.912-.82z"/>
		<path id="R" d="M487.098 69.561c-.833.073-2.732.283-5.683.873-1.31.262-2.226.1-2.87-.239-.009 1.29.572 2.725 2.566 3.888 0 0-2.23-3.548 5.068-3.954 0 0 .892.09.919-.569z"/>
		<path id="U" d="M472.761 84.818c-.329-.016-.648.039-.736.236-.176.395.351.483.351.483v2.24c0 .703-.57 11.286-.835 13.351a7.648 7.648 0 0 1-.468 1.851s-2.519.301-2.387 1.443 1.494 1.897 3.777 1.845c2.815-.064 3.601-.659 3.733-1.362s-.659-1.361-1.844-1.581l-.615-3.513s.132.53 1.756.18 1.581-2.805 1.581-2.805l-.044-8.74c-.088-1.362-.835-2.02-1.889-2.416-.823-.132-1.394.044-1.482.527s-.308.615-.44.44 0-1.494 0-1.494.615-.307.351-.483c-.132-.088-.472-.176-.802-.192zm2.119 2.52.571.307.176 1.581v7.993l-.088.527-.747.615-.834-.17-.439-.523-.307-7.158-.088-2.284 1.054-.702z"/>
		<path id="V" d="M474.573 104.158s-.966-2.459-1.186-8.915v-7.29c.307-.307 1.186-.834 1.713-.527s.395.395.483 1.493.088 8.213.088 8.213-.264 1.186-.922 1.142-1.142-.307-1.23-.791"/>
		<path id="X" d="M524.804 96.618s-3.224.095-4.267 2.086-.474 3.888.759 4.647 3.888 1.328 5.12.569 2.087-3.224.665-3.509-3.793-.759-3.51-1.707 1.518-.948 1.518-.948z"/>
		<path id="aa" d="M583.64 73.375a.375.375 0 0 0-.262.114l-12.924 12.83a.375.375 0 1 0 .53.531l12.704-12.612v-.86a.375.375 0 0 0-.048-.003z"/>
		<path id="ab" d="M572.558 84.398a.375.375 0 0 0-.257.113L559.47 97.249l1.123-.057 12.235-12.147a.375.375 0 0 0-.27-.646z"/>
		<path id="ac" d="M535.734 13.089s-.188 1.876 1.407 3.002 3.471 2.346 4.222 5.536.188 2.815.188 2.815l-4.973.844s.563-2.252-.657-4.034-2.99-6.943-1.303-9.007z"/>
		<path id="ad" d="M535.576 12.971c-.296.725-.815 2.45.346 3.683 1.501 1.595 2.909 2.346 3.472 4.504a34.58 34.58 0 0 1 .696 3.532l1.462-.248s.563.376-.188-2.814-2.627-4.41-4.222-5.536-1.408-3.002-1.408-3.002z"/>
		<path id="af" d="M573.904 106.957a.2.2 0 1 0 .063.395s3.398-.534 5.924 2.04a.2.2 0 1 0 .285-.278c-2.671-2.722-6.271-2.156-6.271-2.156z"/>
		<path id="ag" d="M579.832 110.797s-.007.534.43 1.047 1.302 1.006 2.963 1.057l.012-.4c-1.587-.04-2.32-.5-2.67-.91s-.334-.773-.334-.773z"/>
		<path id="ah" d="M584.629 114.809c.532-1.384 1.969-1.703 1.969-1.703s.106-.106-.319-1.118-.213-1.756-.213-1.756c.16-5.376-.373-6.813-.373-6.813.373 0 2.076 2.023 2.076 2.023-.053-5.11-7.61-7.505-7.61-7.505 2.767 7.026 1.702 7.824 1.702 7.824 1.756-.745 1.97-1.916 1.97-1.916.318 1.916.052 5.642.052 5.642s.106 1.756-1.544.905c-.883-.456-5.16-2.531-5.16-2.531l-.41 1.47 5.73 2.668s1.33.585.95 1.597-.587 1.17-.587 1.17z"/>
		<path id="ai" d="m574.839 106.909.206.405.3.02-.202-.413-.304-.011zm1.013.08.141.419.291.056-.138-.43-.294-.045zm1.092.226.068.435.276.091-.063-.438-.281-.088zm1.091.398-.014.437.257.132.02-.437-.263-.132zm1.006.561-.08.419.231.171.095-.426-.235-.164z"/>
		<path id="aj" d="m580.476 111.465-.19.404a2.15 2.15 0 0 0 .201.197l.178-.38-.098-.102a1.61 1.61 0 0 1-.09-.119zm.544.498-.051.434a3.3 3.3 0 0 0 .253.119l.049-.417a2.54 2.54 0 0 1-.251-.136zm.634.29.079.44.28.067-.076-.427-.283-.081zm.565.144.187.43.305.04-.18-.426-.3-.044z"/>
		<path id="ak" d="M560.742 38.89s-3.007-1.446-3.7-.231-.983 3.643 0 5.088c0 0 4.279.52 6.476-.231l.289-.173z"/>
		<path id="al" d="M557.76 40.215c-.478-.011-.934.138-1.296.306-.146 1.11-.02 2.348.576 3.225 0 0 3.789.461 6.066-.112-1.096-.344-2.984-2.154-4.274-3.068a1.894 1.894 0 0 0-1.073-.352z"/>
		<path id="an" d="M563.748 43.227s1.735 1.735 1.966 5.666l.173 6.649s-2.833 1.677-5.493.983c0 0 .463-1.156.52-2.775s-.058-10.003-.058-10.003"/>
		<path id="A" d="M550.793 23.324s-6.124-1.831-6.124-.063"/>
		<path id="F" d="m540.959 61.578-24.223 40.371.514.3 24.223-40.37z"/>
		<path id="J" d="M217.624 65.849h47.106m-47.106 1.058h47.106m-47.106 1.06h47.106m-47.106.528h47.106m-47.106.53h47.106m-47.106.528h47.106m-47.106.53h47.106m-47.106.528h47.106"/>
		<path id="S" d="m483.588 68.572-.494.074 2.027 13.584.494-.074z"/>
		<path id="T" d="m483.787 68.543-.891.133.408 2.736.891-.133z"/>
		<path id="W" d="M470.357 104.29s.922-1.098 1.186-3.162.834-12.648.834-13.351v-2.24"/>
		<path id="Y" d="m570.121 86.252-13.617 7.086.072.138.958.173 12.935-6.733z"/>
		<path id="Z" d="m570.523 86.586-7.673 13.586 1.244-.68 7.083-12.538z"/>
		<path id="ae" d="M534.984 12.151s-.938 2.158.094 4.316 2.064 3.19 2.627 4.597 0 2.721.657 3.753"/>
		<path id="am" d="M556.463 42.648s1.446-.983 3.758.058 2.313.867 2.313.867"/>
	</defs>
</svg>
