<svg xmlns="http://www.w3.org/2000/svg" xmlns:xlink="http://www.w3.org/1999/xlink" viewBox="0 0 10080000 5040000">
	<defs>
		<clipPath id="a">
			<path stroke-width="1000" d="M0 0h6000v3000H0z"/>
		</clipPath>
		<clipPath id="b">
			<path stroke-width="1000" d="M0 0v1500h6000v1500z m6000 0H3000v3000H0z"/>
		</clipPath>
		<path id="c" stroke-width="1000" d="M0-360000l69421 215845 212038-80301L155990-35603 350975 80107 125095 99757l31104 224590L0 160000l-156198 164349 31105-224590-225881-19651 194986-115711-125471-188853 212038 80300z"/>
		<path id="d" stroke-width="1000" d="M0-210000L54860-75508l144862 10614L88765 28842l34670 141052L0 93334l-123435 76560 34670-141052-110957-93736 144862-10614z"/>
	</defs>
	<g stroke-width="1000">
		<path fill="#012169" d="M0 0h10080000v5040000H0z"/>
		<path stroke="#fff" stroke-width="600" d="M0 0l6000 3000m0-3000L0 3000" clip-path="url(#a)" transform="scale(840)"/>
		<path stroke="#e4002b" stroke-width="400" d="M0 0l6000 3000m0-3000L0 3000" clip-path="url(#b)" transform="scale(840)"/>
		<path stroke="#fff" stroke-width="840000" d="M2520000 0v2520000M0 1260000h5040000"/>
		<path stroke="#e4002b" stroke-width="504000" d="M2520000 0v2520000M0 1260000h5040000"/>
	</g>
	<g fill="#fff" stroke-width="1000">
		<use xlink:href="#c" transform="matrix(2.1, 0, 0, 2.1, 2520000, 3780000)"/>
		<use xlink:href="#c" x="7560000" y="4200000"/>
		<use xlink:href="#c" x="6300000" y="2205000"/>
		<use xlink:href="#c" x="7560000" y="840000"/>
		<use xlink:href="#c" x="8680000" y="1869000"/>
		<use xlink:href="#d" x="8064000" y="2730000"/>
	</g>
</svg>