<svg xmlns="http://www.w3.org/2000/svg" viewBox="0 0 48000 48000">
	<circle cx="24000" cy="24000" r="10000" fill="#fff" stroke-width="1000"/>
	<path fill="#005799" d="M0 0h48000v48000H0z" stroke-width="1000"/>
	<path fill="#e65fa9" d="M0 32000h48000v12000H0z" stroke-width="1000"/>
	<path fill="#de3c3c" d="M48000 12000v24000H24000L0 24000z" stroke-width="1000"/>
	<path fill="#fff" d="M45817 17858l-7996-1 2740-2740a850 850 0 0 0-1200-1200l-4017 4016L34000 9828a896 896 0 0 0 1128 644c178-133 300-340 335-575L36849 969a855 855 0 1 0-1692 0L31192 7440a850 850 0 0 0 677 1414l2740 1370 5243 3619a850 850 0 0 0 1203-674 903 903 0 0 0-345-576l-1386-1386 1-2z m-2828 3923l-1995 1995a850 850 0 0 0-200 448h-2518a859 859 0 0 0-447-213l-1994-999a850 850 0 0 0-1342 127L33578 15000a1679 1679 0 0 1-1332 1888 605 605 0 0 0-587 1242 776 776 0 0 1-891 668 676 676 0 0 1-619-461h-2825a850 850 0 0 0-512 217l-5322-2468a850 850 0 0 0 126 1342l1994 1995a850 850 0 0 0 448 200h2400a850 850 0 0 0 449-205l1417-708a850 850 0 1 0-376-1622l-1842 921H18270a2324 2324 0 0 0-1880-741 2521 2521 0 0 0-2715 2153 2510 2510 0 0 0 2715 2150 2355 2355 0 0 0 1880-738h2954l-1848 924a850 850 0 0 0-543 1444l369 369a850 850 0 0 0 1201 0 1180 1180 0 0 0 351-750l707-1415a850 850 0 0 0-207-453z" stroke-width="1000"/>
</svg>