<svg xmlns="http://www.w3.org/2000/svg" viewBox="0 0 920 460">
	<rect width="920" height="460" fill="#007934"/>
	<rect width="360" height="460" x="280" fill="#fff"/>
	<path fill="#007934" d="m463.32 30.575-2.414 26.116-8.842 1.33s6.14 3.449 7.213 6.912c.172.555.103 1.014-.145 1.36a1.944 1.944 0 0 1-.32.318c-1.78 1.367-7.04.723-7.04.723s6.97 5.88 7.505 8.011c.012.05.028.096.03.145-.002.04.007.106 0 .144-.009.031-.047.086-.06.116a1.108 1.108 0 0 1-.232.318c-1.638 1.513-9.365 1.938-9.365 1.938s8.567 6.109 9.103 9.573c.486 3.131.079 4.97 0 5.29-.598-.517-14.415-12.128-23.327-8.74-.443.23-.706.45-.814.665a.55.55 0 0 0-.03.347c.625 1.932 13.228 3.91 22.019 11.511-.218 1.903-25.055-6.05-25.973-1.07.777 1.404 26.729 5.144 28.649 8.531-9.558.355-29.303-2.104-28.65 1.041-1.996 3.63 18.65 1.58 27.312 4.54 2.54 2.87 2.294 5.28-2.123 5.581-8.35-3.969-27.034-6.918-27.08-1.85v.028c.003.006.028.024.03.03.008.015.016.043.029.057.03.03.096.06.145.087 2.11 1.053 19.51.54 26.061 4.86-9.288 2.1-40.782-4.263-40.982-1.158.897 1.45 5.88 7.815 14.456 7.548 8.575-.266 28.414 3.467 29.755 6.131a.36.36 0 0 1 .03.231c-.581 1.86-26.127-5.668-35.95-1.039-10.183 4.795 29.197 1.887 35.63 7.75 6.43 5.861-12.857-.55-12.857-.55s-26.783-3.715-30.802-1.849c-4.02 1.865-8.58 6.13-8.58 6.13s2.672 5.318 5.352 4.253c.408-.164.687-.197.843-.146.004.001.026-.003.03 0l.029.03c.006.002.023.022.029.027.004.006.024.023.029.03l.03.028a.538.538 0 0 1 .028.115c.063.8-1.832 3.124-1.832 3.124s37.523 9.042 45.83 17.035c8.307 7.994-47.7-12.523-47.7-12.523s-22.51 8.26 1.339 8.792c-2.66 3.867 1.1 6.247 1.337 6.391 0 0 39.668 8.268 43.687 14.663 4.019 6.393-27.064-6.14-34.031-9.603-6.721-3.342-25.432 1.768-26.497 3.327a.559.559 0 0 0-.03.057c-.002.007.002.025-.001.031a.388.388 0 0 0-.001.057v.032c.002.005-.002.023-.001.028.002.007.027.025.03.03.001.006-.003.024 0 .03a.926.926 0 0 0 .058.087c.005.006.025.023.03.03 1.198 1.312 9.55 3.12 9.802 5.378v.03a.863.863 0 0 1-.09.375c-1.05 2.028-11.015 2.89-11.43 4.8-.006.031-.03.081-.03.114 0 2.133 50.126 12.524 63.524 23.715s-39.382-13.333-39.382-13.333 2.948 3.995 0 5.062c-2.948 1.063-13.42-14.92-30.57-5.064-3.122 4.057 14.975 7.276 19.576 7.722-1.57 4.016-2.94 5.345 3.49 9.341.704.437 1.1.701 1.25.838l.03.031.031.028c.002.002 0 .027 0 .03v.028h-.058c-.996-.155-12.55-6.06-13.758-6.304-.012-.002-.05 0-.058 0h-.03c0 .533 1.34 6.94 1.34 6.94-5.938-4.795-13.115-6.24-19.837-1.33-.01.284-.06 4.883 6.69 7.722-3.804 7.73 4.298 5.33 17.16 12.523-19.115-4.968-20.646 4.26-6.98 6.392s51.191 3.468 60.034 14.924c1.865 2.418 2.372 3.633 2.007 4.021-1.475 1.33-15.044-8.43-17.015-8.792-.004.002-.025-.004-.03 0l-.028.03a.898.898 0 0 0-.088.143c-.48 1.06-.93 5.67-.93 5.67-5.717-3.29-10.963-6.242-17.8-7.636-.537 1.062-.424 2.576-.96 3.641-6.207-4.449-11.612-7.577-20.623-8.01l-1.077 4.28s-7.512-9.326-22.25 0c-8.23 5.867 31.088 2.124 37.52 9.052 6.43 6.927 1.337 7.982 1.337 7.982-5.36-1.953-10.696-3.888-16.055-5.842 0 0-19.044-3.48-24.403.78-5.36 4.264 78.243 14.658 80.654 26.116 1.626 6.215-19.642-6.505-38.044-11.972-.71 2.034-1.44 4.07-2.152 6.103-.436-.43-7.555-7.314-15.532-8.503-.002.004-.027.022-.03.03v.057c.013.874 1.63 7.114 1.63 7.114 0 .002-20.613-9.599-31.063-4.539-10.45 5.063 36.433 7.727 40.72 12.524.47.524.664.907.64 1.157a.55.55 0 0 1-.06.144c-1.034 1.508-15.016-4.062-16.403-1.3-1.608 3.196-24.38-5.855-24.112-1.59.268 4.262 3.23 6.65 3.23 6.65s47.43 4.527 49.037 10.122c1.607 5.595-26.264-3.18-26.264-3.18s-2.696 3.976-.553 5.841c.084.072.15.142.175.173v.03h-.03c-.968-.32-16.07-10.154-14.6-2.604-5.91-2.34-21.167-9.586-19.023-3.99 2.112 5.512 41.905 13.362 43.076 13.592-1.052.082-17.88 1.482-17.102 5.87-22.556-13.663-22.503-5.47-21.99-4.83v.03c-1.267-.2-29.016-7.074-6.95 4.8 11.832 6.367 14.716 8.85 14.775 9.804 0 .02.002.067 0 .087a.448.448 0 0 1-.03.087c-.002.006-.026.023-.03.03-.01.015-.017.042-.028.057l-.03.028-.029.029-.029.029c-.006.004-.023.025-.029.029-.459.29-1.567.17-1.89.173h-.059a.133.133 0 0 0-.029.03l.03.028c.314.465 2.045 5.165 1.948 5.987-.002.014-.026.047-.03.057 0 .004.003.025 0 .03 0 0-.027-.003-.028 0-.002 0 .002.027 0 .028h-.06c-.966-.242-15.58-8.007-20.592-8.53-5.092-.534-29.215 6.652-3.49 17.843s41.526-2.67 55.728-1.07c14.202 1.598 20.914 4 19.575 8.53-1.34 4.53-14.528-14.85-28.388 1.91-15.766-3.1-26.462-4.896-18.324 6.624-25.746-9.567-41.469 2.92-9.045 7.982 31.862.933 51.452-7.723 51.452-7.723s5.375 9.878 13.147 2.95c7.407-6.6 7.99 1.801 8.26 2.604.005.012.026.022.03.03.002.003-.002.03 0 .03h.03c.57-.143 7.474-3.21 7.474-3.21h1.89v63.944c8.665.09 17.31.17 25.973.26 0 0-8.307-55.674-3.752-63.134 4.414-7.227 8.587-6.447 8.842-6.39 0 0 16.885 5.05 18.76 4.25.022-.01.067-.017.088-.028.014-.008.045-.02.058-.03.033-.02.087-.062.116-.086.006-.004.024-.024.03-.03 1.372-1.245-.026-6.161 8.55-5.408 2.65-.958 1.64-5.156 3.346-6.19.03-.017.084-.04.116-.057.064-.03.16-.065.233-.086.1-.03.234-.047.349-.058 2.68-.267 54.392 14.376 65.646.52-2.948-7.726-13.143-.527-15.823-.26-2.412 0-12.602-4.796-18.498 0-5.36-3.996-29.726-6.652-29.726-6.652-3.216-3.197 58.149 1.588 61.632-.81 7.234-7.194-13.392-6.39-16.608-3.99-5.717-3.465-12.9-3.208-17.277-.81-2.1-4.992-22.024-2.83-33.1-4.252-3.544-2.067-2.954-3.254-.552-4.54 23.135.977 46.15 3.98 69.399 2.95 6.284-8.146-7.91-11.218-16.608-4.28-5.106-8.35-15.545-.272-22.512-1.07-6.966-.8-3.752-9.315 5.09-7.983 8.842 1.333 24.654-.544 27.6-4.54 2.948-3.994-1.76-8.043-16.345-4.25-4.937-4.796-15.792-.006-20.884 1.592-6.774-3.757-22.534-.522-27.893.81-5.246-3.242 27.602-8.531 27.602-8.531 12.68-.223 19.83-2.405 23.85-3.47 19.168-10.216-.267-11.3-10.325-3.876-6.243-4.848-12.173.418-17.8 2.284-5.275 1.748-15.032 3.02-16.23 2.516a.631.631 0 0 1-.058-.03c-.002 0-.026-.026-.03-.028l-.03-.03v-.057a.473.473 0 0 1 .03-.057c.79-1.216 15.24-10.034 15.24-10.034s18.76-1.347 22.517-1.88c2.286-.325 10.299-4.096 10.296-5.495-.067-.868-3.406-.788-13.525 1.764-9.11.8-14.462.283-17.946.55-5.603-.576-7.964-1.163-8.435-1.678a.658.658 0 0 1-.058-.086c-.04-.093-.014-.2.058-.29.018-.02.063-.066.087-.086 1.375-1.09 10.24-1.88 10.24-1.88s27.063-2.468 28.853-3.876l.03-.03c.01-.01.022-.046.028-.057.002-.006.028-.023.03-.03.556-11-22.96-5.92-23.588-5.84.067-7.737-21.224-.114-22.22 0h-.03c-.917-.537-1.316-1.103-1.397-1.62a1.48 1.48 0 0 1 .058-.606c.534-1.596 3.752-2.835 3.752-2.835 5.896-1.42 14.71-1.864 17.015-3.73 0 0 16.64-.146 18.615-4.54-4.083-11.202-35.213 1.982-39.382 3.99-.835 0-1.346-.21-1.6-.55-1.368-1.988 5.387-8.537 5.614-8.762a.25.25 0 0 1 .028-.03c1.03-.29 25.884-1.554 37.753-17.554.838-9.894-14.194 5.58-14.194 5.58-1.122-12.83-16.345.815-25.188 1.88-8.843 1.066-9.1-4-2.938-4.8 6.162-.8 13.124-.276 16.608-9.6 3.482-9.327 13.947.542 15.823-2.922 1.816-3.356-3.424-6.217-3.752-6.392 0 0 7.764-8.017-4.83-7.75-12.467.263-28.585-1.554-28.91-1.59.783-.298 13.48-5.06 25.42-4.802 12.329.265 5.627-8.793-6.164-8.793-11.79 0-17.945-3.99-17.945-3.99l20.097-7.463-1.338-5.582s11.786-9.332-4.828-7.2c-16.615 2.13-18.5 2.396-18.5 2.396S474 182.1 473.227 182.178h-.03c-.316-.05-3.555-1.05-4.158-2.285a1.567 1.567 0 0 1-.06-.145 1.126 1.126 0 0 1-.028-.173c-.003-.058-.009-.143.001-.203.136-.65 1.145-1.354 3.724-1.995 8.575-2.13 38.87-8.25 43.425-6.652.587.206 1.016.16 1.28-.058 1.708-1.537-3.974-11.338-17.917-12.725-16.078-1.598-25.973 3.99-25.973 3.99s-10.462-3.742-.814-6.94c9.646-3.196 24.926 1.07 24.926 1.07s17.14-5.07 2.937-7.2c-14.202-2.133-18.68 1.916-25.188 2.14-2.6-3.225 22.296-3.986 23.85-6.652-2.626-4.798-18.03 0-27.05 0-3.838-1.62-4.092-4.253.26-5.87 9.2-.357 17.85.18 27.05-.175-.267-4.884.007-10.675-.26-15.56-11.67-2.12-25.356 1.554-31.908 1.245 1.753-5.33 26.95-6.706 29.755-8.156 5.79-7.195-24.167-.11-24.897 0-5.317-.78-4.995-4.123-1.63-6.13 7.772-.89 25.198 1.13 23.88-4.108-1.01-4.91-12.082-2.28-16.637-1.215-4.555 1.066-11.256.26-11.256.26-2.917-3.904 26.27-2.308 26.003-5.32-.38-3.46-18.5-1.077-24.665-.81-4.74-3.253 22.286-5.415 23.56-5.843l.03-.03c1.01-8.856-18.76 0-22.513 0-.647 0-1.135-.16-1.486-.432a2.222 2.222 0 0 1-.233-.232c-1.288-1.494-.145-4.916-.145-4.916s7.045-3.148 7.475-3.905c.002-.006.027-.023.03-.03v-.057l-.03-.028a.576.576 0 0 0-.086-.087c-.827-.633-5.673-2.232-6.312-2.285h-.03c-.003 0-.024-.027-.028-.03a.223.223 0 0 1-.03-.03c-.003-.003-.025-.022-.028-.028-.365-.745.087-6.044.087-6.044s5.582-4.16 5.933-5.813c.002-.014-.002-.045 0-.058.002-.014 0-.045 0-.058v-.058c0-.01.002-.043 0-.055v-.03c-.004-.015-.022-.04-.03-.057 0-.006.003-.023 0-.03 0-.003-.025-.023-.028-.028-.006-.01-.023-.02-.03-.03-.01-.013-.017-.044-.028-.056l-.03-.03a.938.938 0 0 0-.087-.057l-.058-.03c-1.41-.672-7.242 1.33-7.242 1.33v-5.32s5.108-.552 5.644-2.95c.032-.14.016-.28 0-.405-.008-.05-.014-.126-.03-.174a1.346 1.346 0 0 0-.144-.318c-.01-.016-.048-.046-.06-.06-1.167-1.5-5.932-1.706-5.932-1.706-.894-9.325-1.782-18.64-2.676-27.966zm-4.77 91.332v3.673s-6.01-.306-7.126-1.244c-.006-.004-.024-.024-.03-.029l-.028-.028-.03-.03-.029-.028c-.01-.01-.02-.04-.029-.05-.002-.004.002-.024 0-.03-.002-.003-.028-.023-.029-.028v-.144a.592.592 0 0 1 .03-.087c.001-.006.025-.024.03-.03a.798.798 0 0 1 .056-.086l.03-.03.058-.057c.04-.033.093-.077.145-.114 2.016-1.402 6.042-1.37 6.835-1.59.006-.001.023.003.03 0 .006-.001.024-.026.029-.03.004 0 .025.004.029 0 .004 0 .026-.025.029-.027zm8.522 4.888c.208 0 11.97.1 13.001 1.62.008.011.023.044.03.057.007.02.024.067.029.087.002.014-.001.044 0 .058 0 .02.004.065 0 .087a.973.973 0 0 1-.03.086c-.898 1.898-12.798 3.037-12.798 3.037l-.232-5.032zm-.669 7.259c.004.002.025-.002.03 0 .003.002.022-.002.028 0 .699.183 5.57.34 6.167 1.156.006.008.024.022.029.03.002.003-.002.024 0 .028.004.008.026.021.029.03v.143c-.002.004-.028.024-.03.029-.001.004.003.024 0 .028-.007.014-.02.044-.028.058l-.03.03c-.004.003.004.023 0 .028-1.01 1.227-5.505 1.562-5.73 1.562h-.029c-.002 0 .002-.028 0-.029-.004-.006-.025-.023-.029-.029-.205-.415-.407-3.065-.407-3.065zm-35.863 9.66c3.84-.2 11.462.7 25.77 4.627 0 .302.29 3.991.175 4.598a.209.209 0 0 0-.03.021v.031c-.002.001-.025.027-.029.028-.224-.112-26.03-7.486-28.388-7.375-.064.002-.142.006-.203 0a1.945 1.945 0 0 1-.175-.029c-.064-.016-.147-.06-.203-.087-.02-.01-.068-.019-.088-.03-.006-.004-.023-.025-.03-.029a.826.826 0 0 1-.21-.202c-.005-.006-.026-.023-.03-.029l-.029-.058c-.002-.006.002-.023 0-.029-.004-.012-.026-.046-.03-.058 0-.007.002-.023 0-.029v-.117a.703.703 0 0 1 .03-.116.873.873 0 0 1 .176-.26c.394-.383 1.382-.769 3.286-.867zm13.38 10.902c4.113-.146 13.968 2.21 14.513 2.083 0 .78.436 4.475-.058 5.234-.004.006-.024.023-.03.03-.003.005-.023.023-.028.028-.006.01-.024.03-.03.03a.685.685 0 0 1-.058.03c-.006.008-.023 0-.03 0h-.057c-.006 0-.022.008-.03 0-.837-.202-15.38-4.8-15.938-6.68-.008-.03 0-.081 0-.111a.383.383 0 0 1 .087-.203l.037-.03c.006-.005.022-.022.03-.028.28-.22.856-.35 1.601-.376zm40.486 10.122c3.928-.076 6.702.258 5.672 1.446-2.805 3.236-22.192 5.9-22.192 5.9l-.35-5.9c.417-.06 10.268-1.317 16.87-1.446zm-55.495 18.394c3.297-.174 10.974 1.626 28.068 8.821l.117 4.252s-28.948-8.73-29.958-10.18c-.498-.714-1.42-2.723 1.774-2.893zm56.717 6.334c.88-.045 1.5.044 1.716.26.006.006.025.023.03.03.01.02.02.065.028.086.004.022.03.063.03.087-.012.122-.104.286-.262.463-2.694 3.013-17.161 6.015-17.161 6.015v-3.904h.029c.66-.023 11.279-2.82 15.59-3.037zm-63.465.52c4.322-.227 14.08 2.052 35.95 12.35 0 .106.195 3.658.116 3.99h-.029c-1.296-.415-39.353-13.707-39.353-13.707-.04-.146-.613-2.425 3.316-2.632zm72.452 16.63c1.106-.046 1.832.05 2.007.29a.332.332 0 0 1 .03.116c-.005.115-.101.263-.292.433-3.45 3.1-25.453 6.854-26.235 6.912h-.029c-.002 0-.026.002-.029 0l-.03-.029a.41.41 0 0 1-.028-.057c-.002-.006.002-.024 0-.03-.004-.01-.026-.044-.03-.057-.14-.718.31-3.234.342-3.586v-.03c0 .002.027 0 .03 0 .003.001.023.03.028.03h.03c1.408-.024 18.27-3.745 24.199-3.99zm-64.686 9.69c6.55-.337 26.397 8.712 27.37 8.993h.03c-.103.405-.12 3.672-.204 4.194-.002.014.002.05 0 .058-.001.002-.03-.001-.03 0-.534-.285-27.735-11.51-28.94-10.614-.75-1.768.028-2.542 1.775-2.632zm58.52 2.37c1.363-.06 2.36.001 2.676.174a.248.248 0 0 1 .087.087c.002.004 0 .024 0 .029a.39.39 0 0 1 0 .029c-.002.012.006.046 0 .058-.004.006-.024.022-.03.029a.78.78 0 0 1-.086.086c-2.02 1.786-20.767 5.466-20.767 5.466s-.088-3.453-.088-3.788c.533-.113 12.635-1.925 18.208-2.17zm-1.512 11.945c1.319-.035 2.254.04 2.472.267l.029.03c.006.01-.002.047 0 .058 0 .006.029.023.03.029-.001.006-.03.023-.03.029-.002.012.006.045 0 .057-.004.006-.025.023-.03.03-.015.026-.034.06-.057.086-.018.02-.064.066-.088.087-2.023 1.737-17.917 5.06-17.917 5.06s-.436-3.791-.436-3.903c.44.01 11.067-1.658 16.026-1.822zm-67.071.963c3.834-.24 13.337 1.33 36.793 9.803l.785 4.57s-39.055-12.536-40.167-12.928c.002 0 0-.026 0-.03 0-.023-.006-.08 0-.143a.986.986 0 0 1 .204-.463c.275-.335.904-.717 2.385-.81zm51.452 9.92c.47.1 7.019.315 8.23 1.33a.213.213 0 0 1 .03.03l.03.027c.003.004.024.024.028.03.012.015.02.042.03.057.002.007.026.025.029.03a.62.62 0 0 1 .029.087v.145c-.002.012-.025.046-.03.057-.001.006.003.023 0 .03l-.028.057c-1.01 1.562-7.853 2.14-7.853 2.14s-.337-3.06-.495-4.02zm15.852 8.906c1.525-.036 2.62.138 2.85.58.13.298-.12.74-.843 1.33-5.61 4.573-17.83 5.464-17.83 5.464v-5.032h.029c.694-.082 10.73-2.222 15.794-2.343zm15.56 4.686c1.937-.073 2.772.25 3.026.694.02.04.046.103.058.145a.94.94 0 0 1 .029.26c-.062.573-.687 1.26-1.163 1.706-1.908 1.785-32.314 11.366-32.314 11.366s-.23-6.354-.117-6.91c17.777-5.358 26.472-7.109 30.482-7.26zm-19.661 17.99c1.933-.073 3.444.041 3.897.49.028.03.069.083.088.116.01.02.022.065.029.087.006.02-.002.064 0 .087 0 .038.01.102 0 .144-.022.086-.081.19-.146.29-2.601 2.537-15.241 2.919-15.241 2.919v-3.152c2.373-.08 7.657-.845 11.372-.983zm12.652 5.175c.6-.014.967.083 1.018.26a.28.28 0 0 1 0 .06c-.03.146-.207.37-.582.635-5.05 3.57-24.025 7.23-24.025 7.23s.235-2.495.349-3.095c.528-.008 18.699-4.98 23.239-5.09zm10.645 3.963c2.236-.02 3.942.307 4.915 1.012h.03v.116c-.096.691-1.517 3.945-6.516 5.35-6.234-.554-32.693 7.224-33.216 7.346-.002-.002-.028.002-.03 0-.008-.01-.006-.043-.006-.058-.015-.499.349-3.18.349-3.18 9.12-5.426 25.694-10.505 34.465-10.587zm-67.74 15.27h.174c11.445 1.227 15.72 5.487 16.928 7.2-2.282 3.983-20.37-4.947-18.47-6.853.219-.193.666-.333 1.368-.347zm65.588.752c.454-.019.87.074 1.163.26.12.08.238.193.32.317.11.178.184.418.204.694-1.196 1.837-7.38 1.035-7.766.983.31-.11 3.88-2.172 6.079-2.255zm-24.52 12.377c.85-.035 1.554.05 1.95.29.047.03.107.08.145.113.012.013.047.045.058.058.016.02.045.066.058.087.012.022.02.063.03.087.07.216.043.515-.146.868-1.795 3.347-9.656 2.11-9.656 2.11v-2.342h.029c.442.038 4.775-1.16 7.533-1.272zm-46.303 8.82c2.418-.12 4.532 1.457 6.748 2.72 4.936-1.007 15.066.78 15.066.78v4.452a.112.112 0 0 1-.03.03c-.004.001-.023-.003-.03 0-.921.16-12.792-.357-15.443-2.026-2.162 0-8.284-3.212-8.754-4.858-.004-.014-.027-.045-.03-.058-.004-.02.002-.067 0-.087v-.058c0-.012-.002-.046 0-.058v-.029c.002-.012.026-.046.03-.058.002-.006-.002-.023 0-.029.846-.448 1.67-.684 2.443-.723zm51.918 2.2c1.857-.099 2.644.471 1.192 2.516-4.04 5.69-14.485 3.354-14.485 3.354l-.436-3.528c3.684.143 10.418-2.165 13.728-2.343zm-39.033 11.54c4.223-.197 8.813 1.474 8.813 1.474.108.214 2.27 4.451.349 5.87-.072.052-.15.102-.233.145-2.357 1.227-13.62-.96-14.281-5.466 1.325-1.388 3.289-1.927 5.352-2.022zm-43.541 2.197c3.862-.23 8.177 2.135 8.667 2.371.006.002.026 0 .03 0 0 .133-.146 4.28-.146 4.28s-7.647-2.12-10.064-6.391a7.581 7.581 0 0 1 1.512-.26zm73.558.578c4.308-.025 9.513.98 10.267 2.43.142.298.1.625-.175.956-2.132 2.565-14.252.23-14.252.23v-3.122c1.079-.313 2.564-.48 4.16-.49z"/>
</svg>
