<svg xmlns="http://www.w3.org/2000/svg" fill="#ffd300" viewBox="0 0 1200000 600000">
	<path fill="#da2031" d="M0 0h1200000v600000H0z" stroke-width="1000"/>
	<path fill="#0066b2" d="M400000 0h400000v600000H400000z" stroke-width="1000"/>
	<circle cx="200000" cy="205000" r="55000" stroke-width="1000"/>
	<circle cx="200000" cy="180000" r="60000" fill="#da2031" stroke-width="1000"/>
	<circle cx="200000" cy="190000" r="40000" stroke-width="1000"/>
	<path d="M204203 60000c-4970 2255-6827 6321-7227 10371-250 3410 1255 7251 1405 10586 0 5739-5938 7629-5938 15820 0 2815 2600 5917 2600 13223-450 3835-2590 4700-5000 5000a5000 5000 0 0 1-5000-5000 5000 5000 0 0 1 1385-3440 5000 5000 0 0 1 510-500c1140-1150 2705-1595 2695-4630 0-1560-1010-2980-1975-5742-910-2680-250-7160 1915-9805-3500 1350-5657 4705-6757 7715-1160 3700-150 5830-1740 8906-970 1990-2125 2815-3220 4475-1295 1810-2815 6043-2815 8008a25000 25000 0 0 0 50000 0c0-1965-1500-6198-2795-8008-1095-1660-2270-2485-3240-4475-1570-3075-560-5206-1720-8906-1100-3010-3260-6364-6758-7715 2165 2645 2825 7125 1915 9805-970 2760-1990 4180-1990 5742 0 3035 1555 3480 2695 4630a5000 5000 0 0 1 510 500 5000 5000 0 0 1 1385 3440 5000 5000 0 0 1-5000 5000c-2765-350-4750-1640-5000-5000 0-9626 4120-10240 4120-17363 0-10171-9120-14986-9120-22422 0-2520 590-6815 4160-10228zM90000 270000h50000v240000H90000z m170000 0h50000v240000h-50000z m-110000 0h100000l-50000 30000z m0 40000h100000v20000H150000z m0 140000h100000v20000H150000z m0 30000h100000l-50000 30000z" stroke-width="1000"/>
	<circle cx="200000" cy="390000" r="50000" stroke-width="1000"/>
	<g fill="#da2032" stroke-width="1000">
		<circle cx="200000" cy="363500" r="10000" stroke-width="1000"/>
		<circle cx="200000" cy="416500" r="10000" stroke-width="1000"/>
		<path d="M200000 334000a29500 29500 0 0 1 0 59000 23500 23500 0 0 0 0 47000v6000a29500 29500 0 0 1 0-59000 23500 23500 0 0 0 0-47000z" stroke-width="1000"/>
	</g>
</svg>