<svg xmlns="http://www.w3.org/2000/svg" fill="#fff" viewBox="0 0 47500 25000">
	<path d="M0 0h47500v25000H0z" stroke-width="100"/>
	<path fill="#dd7500" d="M0 24200V0h47500v5300z" stroke-width="100"/>
	<path fill="#003893" d="M0 23800V0h47500v400z m0 800v400h47500V10200z" stroke-width="100"/>
	<path d="M9128 1378l320 5321 1116-2932-499 3097 1838-2543-1284 2863 2433-1981-1980 2433 2862-1283-2543 1837 3098-499-2932 1117 5321 320-5321 320 2932 1116-3098-499 2543 1838-2862-1284 1980 2433-2433-1980 1284 2862-1838-2543 499 3098-1116-2932-320 5321-320-5321-1117 2932 499-3098-1837 2543 1283-2862-2433 1980 1981-2433-2863 1284 2543-1838-3097 499 2932-1116-5321-320 5321-320-2932-1117 3097 499-2543-1837 2863 1283-1981-2433 2433 1981-1283-2863L8190 6864l-499-3097 1117 2932z" stroke-width="100"/>
</svg>