<svg xmlns="http://www.w3.org/2000/svg" xmlns:xlink="http://www.w3.org/1999/xlink" viewBox="0 0 900 600">
	<rect width="900" height="600" fill="#fff"/>
	<path id="a" fill="#4e5b31" d="M463.1 506.741a1.01 1.01 0 0 1-.347-.245l-.125-.117a21.523 21.523 0 0 1-1.582-1.643c-1.332-1.513-3.119-3.728-4.69-5.685-3.115-3.883-5.689-7.228-6.174-7.858l-.793-1.032-7.767-2.395-5.67-2.644 3.03-3.406 10.407 4.456 7.767 1.594 14.363 10.564-.01.01c-.03.023-2.09 1.737-4.137 3.6-.913.83-2.064 1.9-2.877 2.782-.335.36-.646.74-.93 1.14a9.004 9.004 0 0 0-.465.88m-53.34-16.02a39.63 39.63 0 0 1-19.895-5.567h-.007v-.008a10.24 10.24 0 0 1 2.878-3.1c1.941-1.425 5.442-3.128 11.1-3.15h.117c6.7 0 14.9 2.278 24.373 6.771a36.022 36.022 0 0 1-18.566 5.054l.01.01-.01-.01zm-29.37-6.51a4.241 4.241 0 0 1-3.17-1.333 6.439 6.439 0 0 1-1.42-2.88 14.656 14.656 0 0 1-.351-4.216 4.336 4.336 0 0 1 1.562-.354h.112c2.511-.004 4.49 2.174 5.338 4.333a4.35 4.35 0 0 1 .274 3.067 2.417 2.417 0 0 1-2.34 1.37l-.005.01zm51.68-5.99c-17.359-2.479-24.717-8.755-27.833-13.583a15.705 15.705 0 0 1-2.634-9.96v-.018h.013c.872-.2 1.764-.3 2.658-.293 4.618 0 16.43 2.323 27.8 23.842l.007.014-.02-.01.01.004zm-35.58-3.44c-7.416 0-13.062-1.28-16.782-3.8a10.304 10.304 0 0 1-3.686-4.125 6.75 6.75 0 0 1-.594-2.023 22.704 22.704 0 0 1 7.765-1.65c.383-.018.77-.03 1.174-.03 5.732 0 14.448 1.87 23.646 10.78l.01.009h-.012a90.034 90.034 0 0 1-11.53.84l.01-.001zm-35.91-1.38c-7.82 0-18.563-2.388-25.263-9.087l-.007-.008h.02a78.487 78.487 0 0 1 15.523-2.062c.488-.012.98-.018 1.475-.019 7.332 0 12.944 1.422 16.682 4.225a4.942 4.942 0 0 1 2.178 2.783 2.28 2.28 0 0 1-1.056 2.15c-1.683 1.271-4.692 1.95-8.945 2.017l-.6.02-.007-.02zm-25.34-13a3.206 3.206 0 0 1-2.479-1.167 5.87 5.87 0 0 1-1.108-2.522 14.298 14.298 0 0 1-.29-3.674v-.02c.381-.178.796-.27 1.216-.277a3.784 3.784 0 0 1 2.59 1.158 6.956 6.956 0 0 1 1.687 2.645 4.03 4.03 0 0 1 .18 2.635 1.915 1.915 0 0 1-1.8 1.21l.004.01zm58.53-1.32a4.241 4.241 0 0 1-3.17-1.333 6.45 6.45 0 0 1-1.422-2.878 14.656 14.656 0 0 1-.35-4.217 4.336 4.336 0 0 1 1.561-.354h.112c2.511 0 4.49 2.178 5.338 4.337a4.35 4.35 0 0 1 .274 3.067 2.413 2.413 0 0 1-2.34 1.37l-.003.008zm-28.51-1.18c-15.737-.554-23.9-5.027-27.984-8.683a18.3 18.3 0 0 1-4.24-5.447 11.649 11.649 0 0 1-.908-2.438l.021-.009a13.461 13.461 0 0 1 3.885-.579h.368c5.307 0 16.111 2.23 28.852 17.153v.01l.006-.007zm17.09-1.59c-12.66-1.928-19.834-7.363-23.622-11.585a24.177 24.177 0 0 1-5.213-8.738 18.622 18.622 0 0 1 3.9-.469c.169 0 .345-.007.524-.007s.365 0 .553.007c6.368.14 17.934 3.023 23.855 20.785h.01l-.007.007zm-65-6.08a49.336 49.336 0 0 1-11.96-1.432c-6.629-1.658-9.473-4.189-10.69-6.02a6.318 6.318 0 0 1-1.032-2.535 4.282 4.282 0 0 1-.03-1.073l.03-.01a45.238 45.238 0 0 1 10.464-1.329c.24 0 .48-.006.725-.006a43.806 43.806 0 0 1 8.564.83 27.146 27.146 0 0 1 16.053 10.14v.01h-.013a49.635 49.635 0 0 1-12.12 1.42l.01.005zm29.39-10.68a4.244 4.244 0 0 1-3.172-1.3 6.49 6.49 0 0 1-1.42-2.908 14.4 14.4 0 0 1-.351-4.185 4.336 4.336 0 0 1 1.562-.354h.11c2.504 0 4.486 2.18 5.34 4.338a4.25 4.25 0 0 1 .24 3.034 2.356 2.356 0 0 1-2.31 1.38l-.003-.005zm-22.1-3.03a48.225 48.225 0 0 1-11.967-5.225c-5.544-3.413-12.326-9.45-13.153-18.83h.014a7.14 7.14 0 0 1 1.278-.154c.1 0 .217-.006.334-.006 1.656 0 5.046.466 9.147 3.584 5.22 3.98 10.04 10.92 14.35 20.65l-.003-.02zm14.43-.53a39.027 39.027 0 0 1-9.469-6.084 60.759 60.759 0 0 1-16.716-23.33 7.698 7.698 0 0 1 3.655-.718c2.411.068 6.083 1.07 10.154 5.463 4.676 5.047 8.85 13.34 12.4 24.651l.01.032-.03-.01-.004-.004zm-37.39-1.09c-4.82 0-6.47-2.615-6.957-3.74a7.783 7.783 0 0 1-.554-3.707v-.02a10.615 10.615 0 0 1 2.4-.314h.161a9.918 9.918 0 0 1 8.084 3.841c.255.38 1.037 1.694.39 2.721-.52.81-1.7 1.22-3.53 1.22h.002zM291 421.431a63.914 63.914 0 0 1-11.141-.952c-4.294-.781-6.728-4.432-8.013-7.356a25.55 25.55 0 0 1-1.8-6.254h.012c13.282.39 19.555 4.27 22.478 7.457a11.713 11.713 0 0 1 3.206 6.922h-.009c-.02 0-1.89.18-4.74.18l.007.003zm13.83-13.82a53.867 53.867 0 0 1-3.033-4.228c-1.573-2.445-3.028-5-3.028-7.084 0-2.016-.474-6.266-.757-8.619-.358-2.985-.72-5.54-.75-5.757h.013c.337.123 8.308 3.114 8.308 10.59s-.738 15.015-.745 15.09v.01h-.01l.002-.002zm-10.33-.71c-.084 0-.167-.008-.25-.021-2.356-.393-6.5-2.194-11.073-4.818-5.082-2.914-9.209-6.036-11.62-8.791-2.2-2.512-3.5-6.457-3.88-11.726a43.595 43.595 0 0 1 .087-7.163 4.135 4.135 0 0 1 1.315-.2c1.764.029 3.647.823 6.189 2.574a49.763 49.763 0 0 1 6.49 5.514 99.384 99.384 0 0 1 7.2 7.971l.032.04c.265.475 2.537 4.571 4.307 8.558a27.554 27.554 0 0 1 2.024 5.746c.174.581.174 1.2 0 1.781a.902.902 0 0 1-.385.448c-.139.06-.289.091-.44.09l.004-.003z"/>
	<use xlink:href="#a" transform="matrix(-1 0 0 1 900 0)"/>
	<path fill="#d57800" d="m727.132 103.967-2.355.938-.923.368-2.854-.157-2.673 1.283-4.74 3.239-.21.15-1.766.461-1.641-.708-.932.424-.321 1.92-.887 1.38-1.092.766-3.783.387-3.19 1.645-4.15-1.11-1.928.754-4.1 3.692-2.095.992-.732-.042-2.778-.143-1.173.384-1.752 1.693-3.315.258-1.033.715-1.618 3.26-1.75 1.808-1 .212-1.086-.4-.817.144-.37 2.086-.793.874-2.22.764-1.771 1.477-1.556.8-2.084-.052h-.48l-2.075 1.146-3.9.342-1.624 1.55-.358.33-.758.458-1.24.74-.3.184-1.5-.267-1.75.693-.708-1.089-1.212.727-1.6.07-2-.89-1.522-.678-1.113.161-.387 1.94-.04.206-1.17 1.557-2.183 1.323-.3.387-2.485 3.208-4.722 4.966-3.993 2.028-4.14 1.26-2.9 2.38-7.6 3.771-11.994 5.972-2.453.786-3.52.562-6.278 2.312-5.54 1.671-.307.094-1.1.332-7.81 2.363-3.635-.384-2.153.781-5.605-.623-3.9.077-2.467.513-4.637 2.224-7.827 3.762-2.586 2.366-4.027 2.1-4.715 1.491.01-1.98-.027-.085-1.636.517-1.181.373-3.825.59h-2.128l-1.321-.384-.2.07-7.816 2.568-8.72.842-4.362 1.4-3.26-.052-2.037.606-4 .49-1.428-.382-.322-.088-11.75.51-5.372-.607-2.564.583-4.3-1.446-6.27-.727-1.464-.439-3.3-.978-1.491.86-1.116.118-2.667-.966-.961-.024-2.2.8-1.267-.325-1.177-.938-2.761-.41-1.682-1.415-9.4 1.246-2.551-.75-8.554-2.492-1.361.07-1.7 1.27-2.548.93-2.212.574-3.012.1-3.5-.919-3.606-1.744-1.334-.317-2.974.3-.91.082-5.465-2.932-7.042-4.4-4.778-2.3-1.794-.29-.241.851.89 2.801.3 2.773-.091 2.563-.05 1.587.447 1.425 1.725 1.912.719 1.92.526 5.285-.006 5.362-.84 8.551-.283 1.3-1 4.43-.914 4.07-3.546 10.832-.974 1.343-2.39 1.631-5.42 3.688-3.99 2.302-1.263.523-3.24.245-2.018-.1-2.513-1.36-2.467-.636-3.232-2.324-3.6-.744-3.94-2.278-1.027-1.233-2.146-.2-2.976-.893v-.005l-1.093-.328-.755-.22-3.8-.1-3.54-1.634-1.864-.45-2.547-.129-2.665 1.24-1.35.628-1.708-.678-1.235.077-1.4 2.115-.172.323-.964.51-1.2-.017-.94-.025-1.015.444-1.368.593-1.208.527-.59.255-.011-.01-.363.072-.645.112-.8.153-1.41-.824-.75-.442-1.257-.256-.677.49-.133 2.3-.618 1.377-1.961 1.734-1.993 1.755-1.39 2.047-3.675 8.39-2.3 3.385-.715.79-2.418 2.66-2.136 1.656-4.922 3.815-4.66 1.74-4.012.82-1.951.01-3.7-.493-3.323-1.02-3.65-2.282-4-3.217-5.794-5.724-.82-.494-.171-.114-1.825-1.167-1.354.035-.53.874-.29 1.263-.245 1.12-.664 6.367.049.37.349 2.621 4.4 6.15 1.358 3.267.223.373.908 1.525.69 1.163.07.118 1.5 4.488-1.057 2.534.534 1.7-1.336 1.037-.244 1.465 3.95 4.953.863 2.185-.963 3.03-1.538 1.67-.43.457.217 1.28 1.817 1.635 3.089 2.75 1.647 4.086 1.254 1.1 1.456-.31.81.617 1.228-.02 1.208 1.207.779.38 1.237.615.977 1.272.216 3.91 1.822 4.86.028 2.636.009.374 1.133 1.948.356 1.538-.6 4.07 1.446 1.305 1.567-.32 1.012.16 1.626 1.354 1.969 3 1.926-.282 1.222.59 5.9 5.333 1.339.676.074.042.963.483 1.2 1.208 1.856-1.232.206-.02 2.018-.179.886.6 1.7 1.15 2.234-.03 4.844 1.485 2.119.543 4.26 2.648 1.812 1.12 1.072.87 1.424 1.162 2.845 1.224 2.439.584 1.322.314 1 .384.025-.062h.014l-.024.063 5.284 2.023 2.862.668 2.648.975 1.927.7 1.414.023 2-1.684 1.937-.112 1.609.4 1.57-.263 2.485-1.53.485-.72 1.762-.837 5.944-.738 1.737.564 4.46-1.94 2.988.83 2.645-.937 5.779 1.284 1.536 1.08 1.717 1.966.21.01 1.912.036-.8 1.33 2.523 2.648 2.279 3.445.154.457 1.657 4.864 1.232 1.724.862 2.405.042 1.568-1.34 1.022-.22.583-.076.216.274.655.506-.276.963-.533 1.172-.182 2.066.222 1.366.143 2.154-1.069 1.427-.71 2.293.987 2.52-.028 1.058.471 3 1.358 1.529.144.565-.37.36-.857-.185-1-1.155-1.32-2.531-2.938-1.036-1.51-.79-2.186-.243-2.797-.174-1.885.314-2.477.68-.884.5-1.968h.009l.127-.515 1.406-1.866 3.724-2.393 4-3.582 3.162-2.085 3.26-1.412.087-.4.363.146 8.292-2.82.139-.017 3.692-.643 24.92 1.755.924-.279v-.006l.83-2.33.447-.432.3-.282 2.74-1.206 1.28-.183 3.557.878 1.455.36 2.332-1.308 1.654.028 3.417-1.866 2.11.053.8-.32 4.113-2.956 3.96-1.135 1.03-.548.365-.2 4.06-2.144 2.579-1.98 2.226-1.183 2.438-.629 6.38-.449 1.283-2.138 2.744-.366 1.657-1.87 1.9-.77 1.36-1.959 1.139-1.64 1.59-.922 5.1-.32 6.047.75.8-.486 1.366-4.875 1.43-.915 3.85-5.612.015-2.045v-1.708l.633-2.429-.431-4.39.51-4.448 2.394-5.65 2.109-2.279 3.4-2.3 1.729-.753 2.449-.412.36-.06.624-.109 8.433-.116c.117-.087 3.067-.042 3.067-.042l2.812-.038 7.116 1.264.506.088 2.4.78 2.774 2.156 2.938 2.87.55.534 1.9.8.577.251 1.57-.25 2.238-1.166 1.688-1.427 2.3-1.257.056-.08 1.295-1.95.04-.04.028.008v-.01h-.022l.51-.776 4.448-1.733 5.23-.3.588-.318.327-.176 1.382-1.623 1.296-.01 3.135 1.134 2.2-.438 1.75.7 1.36-.16 2.565-.3 2.754 1.936 1.605.2 5.658 3.31.294.048.152.028.324.054.67-.2 1-.289.133-.039.126.175.643.907.882.126 1.044-1.393-.414-.633-.157-.23-2.021-.41-1.815-3.1 1.728-1.862-2.711-3.326-.45-.55-.153-.235-.937-1.423-4.746-7.235-6.182-4.935-2.165-1.732-.014-.01-.758-.6-3.3-3.36-2.358-3.129-.31-.674-.487-1.062-1.413-3.078-2.462-1.9-2.006-2.19-.1-.13-4.14-5.626-.68-.939-.978-.566-2.066-.014-.2-.2-.116-.12.07-.073.989-.985 1.104-.277.476-1.09-2.108-6.1-.014-.212-.157-1.95 1.718-8.855.22-1.08 2.927-5.957 1.814-1.487 1.98-3.892 1.7-2.488 1.626-1.582.284-.168 2.934-1.776 2.465-.347 2.348-.33 4.1 1.264 3.9-.076.76-.08 1.77-.2 2.91-.918 1.376-.848.713-1.093 1.487-4.987.478-1.587.917-1.724 5.306-6.109 4.01-3.71 9.02-6.61 4.415-2.64 2.254-1.347 20.126-8.946 5.23-5.3 2.725-2.758 4.82-3.235 5.642-2.31 4.854-3.843 1.06-1.334 1.336-4.3 1.113-.27 1-2.173.286-.618 3.96-2.792.448-.223 15.388-7.71 2.236.307 1.2-1.794 4.477-.75.824-.14 1.1-.552.939-1.6v-.316l.129-4.273.956-1.155.52-2.816.492-.65.513-.675 1.268-.89-.22-.533.032.03z"/>
</svg>
