<svg xmlns="http://www.w3.org/2000/svg" style="background:#fff" viewBox="0 0 160 40">
	<path stroke="#58181B" stroke-width="4" d="M0 0h100M0 40h100"/>
	<path stroke="#e3e3dd" stroke-width="4" d="M40 0v40M80 0v40"/>
	<path stroke="#222124" stroke-width="4" d="M120 0h40m-40 40h40"/>
	<g id="a" transform="translate(44, 5)" stroke-width="1">
		<path fill="#f7fcfe" stroke="#f7fcfe" stroke-width="4" d="M20 26H6a10 20 0 0 1 15-15l10-5 8-7 14-5 8 11-3 12-3 12-3 12-3 12-3 12-3 12-3 12-3 12-3 12-3 12-3 12-3 12-3 12-3 12-3 12-3 12-3 12-3 12-3 12-3 12-3 12-3 12-3 12-3 12-3 12-14 2-14 2-14 2-14 2-13 2-13 2-14 2-14 2-12 2-12 2-10 2-10 2-8 2-8 2-6 2-6 2-4 2-4 2-2 2-2 2v4l2 3 2 3 4 4 4 4M14 4L8 5m4-4L3 6"/>
		<path fill="#c3780d" stroke="#c3780d" stroke-width="4" d="M46 6v22l-2 2-2 2-2 2-2 2-2 2-2 2-2 2-2 2-2 2-2 2-2 2-2 2-2 2-2 2-2 2-2 2-2 2-2 2-2 2-2 2-2 2-2 2-2 2-2 2-2 2-2 2-2 2-2 2-2 2-2 2-2 2-2 2-2 2-2 2-2 2-2 2-2 2-2 2-2 2-2 2-2 2-2 2-2 2-2 2-2 2-2 2-2 2-2 2-2 2-2 2-3 2-3 2-3 2-3 2-3 2-3 2-12 2-13 2-13 2-13 2-13 2-13 2-13 2-13 2-13 2-13 2-13 2-13 2-13 2-13 2-13 2-13 2v22M41 4l-5 1m3-4l-8 5"/>
		<circle cx="20" cy="20" r="20" fill="none" stroke="#58181B" stroke-width="4"/>
		<path stroke="#c3780d" stroke-width="6" d="M20 0v40"/>
		<path stroke="#f7fcfe" stroke-width="3" d="M20 6v20"/>
	</g>
	<use href="#a" transform="scale(-1, 1)" stroke-width="1"/>
</svg>