<svg xmlns="http://www.w3.org/2000/svg" viewBox="0 0 56 140">
        <g fill="none" fill-rule="evenodd">
            <rect fill="#00633D" width="56" height="140"/>
            <path fill="#00b300" d="M4.48 118.827L34.938 79.37l30.458 41.024-45.045.804L-1.(56n.134L4.48 118.827z"/>
            <g transform="translate(14 4)">
                <path fill="#fff" d="M59.73-.668h1.207v23.834l-16.593.7c-.28 1.476-1.17 3.066-2.654 4.447l6.783 9.953L45.487 45.87l-5.895-3.65-3.926 10.596h-17z"/>
                <path fill="#FF0000" d="M30.147.337h-17L-9.645 31.12l43.517 65.428 1.598-4.34 2.46-4.582 5.67-4.352 5.297 2.502 7.057-13.353 11.216-4.328 10.872 5.67 8.19-9.431-47.53-66.884z"/>
                <path fill="#fff" opacity=".3" d="M27.713 1.516L-8.36 63.394 29.164 13.77l1.601-2.76L-3.988 15.83l-3.84-.701-.194-1.09.39 1.197-1.47.262L27.732 3.37l.122-1.854z"/>
                <path fill="#FFF" d="M3.68 3.953l-1.593-2.643L-27.635 56.973l2.962-.544-.6-1.598.596 1.48-1.431.258L1.62 5.9l.126-1.947-.126.393L-4.12.083l-2.968.535L2.182 9.96l.47-.76z"/>
                <path fill="#fff" d="M1.59 8.846l2.47.448L-4.875-.287l-2.963.535-.815-1.11 1.148.207L-1.939 8.81l.475-.757L-4.588 5.22l2.52-4.216L0 6.295 1.544 15.2l-.954-6.35z"/>
                <path fill="#fff" d="M.027 15.116L-9.097 4.01l3-3.218 1.775-.096-.152-1.767.14 1.592-1.721-.092L2.8 15.068l.097-1.434-.097.254L-5.59 11.926l-1.831.1 3.2 3.5z"/>
                <path fill="#fff" d="M2.99 16.132l-2.14-3.44 2.758-3.484 1.76-.093-.34-1.79.32 1.62-1.7.094 1.13 11.522.09-.227.46-1.372-1.512.08 7.657-4.12L0 18.015l4.4 2.495z"/>
                <path fill="#fff" d="M9.98 18.814l.44 1.284L3.33 24.89l3.026-.564-.76-1.934.76 1.843-2.532.463 4.04 13.885.463-.745-.804-1.282L9.88 21.66l1.1-1.847.39.975L13.078 25l-1.875.346-.835-1.258 1.264.23L13.604 18.79l-.407 1.023-1.062.195-.38-1.013-1.056.194-3.44-3.248z"/>
                <path fill="#fff" d="M12.465 38.038l1.062.192-5.494 13.98-1.085-1.27.865 1.2-1.764.33 5.41-8.643-.127-.29-6.926-5.212 4.042-2.985L7.76 35.368l-8.268 6.227-3.926-3.325.32 1.616L-5.532 39.5l5.814-6.095L-9.77 31.27l8.59 6.464-3.882-3.34.313 1.604L-3.448 40.9l5.793-6.074 5.443 14.73 1.004.593.852-1.222 3.907-2.29.548.602zM-11.417 39.833l.127-.29L-8.89 27.926-21.56 40.29l.83-1.014 2.79-.51-4.442-4.226 3.458 2.538z"/>
                <path fill="#fff" d="M.04 35.578L-1.725 35.57 0.184 33.574l.157.23L-3.227 34.48l5.39 3.883-2.57-3.064 1.95.23-5.083.872.138-.22.5 1.227h-.22l-6.07-6.988 4.74-6.23 8.24 6.2z"/>
                <path fill="#fff" d="M-17.235 7.045L-1.403 7.854-4.503 2.11l-.197-1.1.39 1.2z"/>
                <path fill="#fff" d="M-4.25 7.896l-.465-.8 1.515.277L-4.874 2.14l.092-1.38.093.243.163.029L-3.676.54l-.17.018-1.73 7.247z"/>
            </g>
            <path fill="#00633D" fill-opacity=".6" d="M41.707 69.333h-17.414V8.89H0V116.89h56V50.925L41.707 69.333z"/>
        </g></svg>