<svg xmlns="http://www.w3.org/2000/svg" viewBox="0 0 2.5 1">
		<rect x=".13" width="2.25" height="1" rx=".125" fill="blue"/>
		<rect x=".5" y=".25" height=".5" width=".5" fill="red"/>
		<rect x=".85" y=".375" width=".4" height=".125" fill="blue"/>
		<rect x=".7" y=".375" width=".25" height=".125" fill="white"/>
		<rect x="1.35" height="1" width=".125" fill="#eee">
			<title>right border 1/8</title>
		</rect>
		<rect height="1" width=".15" y=".075">
			<title>flying field center</title>
			<animateColor attributeName="fill" from="white" to="blue" dur="8s" repeatCount="indefinite"/>
		</rect>
		<g transform="scale(1 10),translate(-1 -1)">
			<path d="M 0,3.5L 1,3.5L 2.5,2  3.5,2L 3.5,3  3,3.5L 2.5,3  2.5,1.5L 1.5,1.5  1,0.5L 0,0.5Z" fill="white"/>
			<path d="M 2.5,2L 3.5,2L 3.5,1L 2.5,1Z" fill="red"/>
			<path d="M .5,.5L .5,.1L 1.13,.1L 1.13,.5Z" fill="red"/>
		</g></svg>