<svg xmlns="http://www.w3.org/2000/svg" xmlns:xlink="http://www.w3.org/1999/xlink" viewBox="0 0 500000 300000">
	<path fill="#ce1126" d="M0 0h500000v300000H0z" stroke-width="1000"/>
	<path fill="#007a5e" d="M42000 42000h416000v216000H42000z" stroke-width="1000"/>
	<path fill="#fcd116" d="M42000 42000h416000L42000 258000h416000z" stroke-width="1000"/>
	<g fill="#ce1126" stroke-width="1000">
		<circle cx="250000" cy="150000" r="36000" stroke-width="1000"/>
		<path d="M67749 150410c4504 8390 13265 17520 20916 20730 123-8520-2900-19440-7034-28140z" stroke-width="1000"/>
	</g>
	<g fill="#fcd116" stroke-width="1000">
		<path d="M60112 121630c6529 13610-16933 46080 22156 53690-4822-6580-7931-17440-6755-26160 8201 3120 16830 12250 20317 19230 10230-37150-26240-34890-35718-46760z" stroke-width="1000"/>
		<use xlink:href="#a" stroke-width="1000"/>
		<use xlink:href="#a" x="100000" stroke-width="1000"/>
		<use xlink:href="#a" x="200000" stroke-width="1000"/>
		<use xlink:href="#a" x="200000" y="-258000" stroke-width="1000"/>
		<use xlink:href="#a" x="100000" y="-258000" stroke-width="1000"/>
		<use xlink:href="#a" y="-258000" stroke-width="1000"/>
		<path d="M250000 117000l-19397 59697 50782-36895h-62769l50782 36895z" stroke-width="1000"/>
	</g>
	<defs>
		<path id="a" d="M150000 259500l-11462 35276 30007-21802h-37090l30006 21802z" stroke-width="1000"/>
	</defs>
</svg>