<svg xmlns="http://www.w3.org/2000/svg" xmlns:xlink="http://www.w3.org/1999/xlink" viewBox="-72 -48 144 96">
	<path fill="#fff" d="M-72-48h144v96h-144z" stroke-width="2"/>
	<g transform="rotate(-56.31)" stroke-width="2">
		<g id="b" stroke-width="2">
			<path id="a" d="M-12-52H12v4H-12z m0 6H12v4H-12z m0 6H12v4H-12z" stroke-width="2"/>
			<use xlink:href="#a" y="88" stroke-width="2"/>
		</g>
		<path stroke="#fff" d="M0 34v20" stroke-width="2"/>
		<path fill="#cd2e3a" d="M0-24a24 24 0 0 1 0 48z" stroke-width="2"/>
		<path fill="#0047a0" d="M0-24a24 24 0 0 0 0 48A12 12 0 0 0 0 0z" stroke-width="2"/>
		<circle cy="-12" r="12" fill="#cd2e3a" stroke-width="2"/>
	</g>
	<g transform="rotate(-123.69)" stroke-width="2">
		<use xlink:href="#b" stroke-width="2"/>
		<path stroke="#fff" d="M0-47v6M0 34v7m0 6v6" stroke-width="2"/>
	</g>
</svg>