<svg xmlns="http://www.w3.org/2000/svg" viewBox="0 0 320 200">

		<path
			fill="#E52B50"
			d="m0,75 l0,75 l200,0 l0,-75 l200,0 l0,-75 l200,0 l-200,75 l-200,0 l-200,75 Z"
		/>
		<path
			fill="#0000a0"
			d="m0,0 l200,0 l0,75 l200,0 l0,-75 l200,0 l-200,75 l-200,0 l-200,-75 Z"
		/>
		<path
			fill="#ffffff"
			d="m0,150 l200,0 l0,75 l200,0 l0,-75 l200,0 l-200,75 l-200,0 l-200,-75 Z"
		/>

		<circle fill="none" stroke="#000000" stroke-width="2" stroke-linecap="round" cx="160" cy="50" r="6" />
		<text fill="#000000" stroke="none" font-family="Times New Roman" font-size="15" font-style="italic" x="160" y="53" text-anchor="middle">{</text>

		<path fill="#808080" d="m160,100 l0,100 l12,62 a100,100 0 0 1 -24,0 l12,-62 Z" />
		<path fill="#FFFFFF" d="m155.72469,157.96245 l12,-62 a100,100 0 0 1 24,0 l12,62 a100,100 0 0 1 -24,0 Z" />

		<circle fill="none" stroke="#000000" stroke-width="1" stroke-linecap="round" cx="166.344725" cy="97.321795" r="1" />
		<circle fill="none" stroke="#000000" stroke-width="1" stroke-linecap="round" cx="179.259775" cy="56.88504" r="1" />
		<circle fill="none" stroke="#000000" stroke-width="1" stroke-linecap="round" cx="233.030785" cy="40.832155" r="1" />
		<circle fill="none" stroke="#000000" stroke-width="1" stroke-linecap="round" cx="123.530895" cy="41.77697" r="1" />
		<circle fill="none" stroke="#000000" stroke-width="1" stroke-linecap="round" cx="111.08735" cy="81.41003" r="1" />
		<circle fill="none" stroke="#000000" stroke-width="1" stroke-linecap="round" cx="77.429815" cy="100.34815" r="1" />
		<circle fill="none" stroke="#000000" stroke-width="1" stroke-linecap="round" cx="210.010745" cy="117.3091" r="1" />
		<circle fill="none" stroke="#000000" stroke-width="1" stroke-linecap="round" cx="225.834125" cy="142.06355" r="1" />
		<circle fill="none" stroke="#000000" stroke-width="1" stroke-linecap="round" cx="233.030785" cy="207.803485" r="1" />
		<circle fill="none" stroke="#000000" stroke-width="1" stroke-linecap="round" cx="218.0992" cy="227.254415" r="1" />
		<circle fill="none" stroke="#000000" stroke-width="1" stroke-linecap="round" cx="177.751715" cy="226.22005" r="1" />
		<circle fill="none" stroke="#000000" stroke-width="1" stroke-linecap="round" cx="136.395835" cy="230.612" r="1" />
		<circle fill="none" stroke="#000000" stroke-width="1" stroke-linecap="round" cx="85.60456" cy="203.53111" r="1" />
		<circle fill="none" stroke="#000000" stroke-width="1" stroke-linecap="round" cx="61.27515" cy="192.405015" r="1" />
		<circle fill="none" stroke="#000000" stroke-width="1" stroke-linecap="round" cx="29.441305" cy="164.805665" r="1" />
		<circle fill="none" stroke="#000000" stroke-width="1" stroke-linecap="round" cx="51.723125" cy="159.83606" r="1" /></svg>