<svg xmlns="http://www.w3.org/2000/svg" width="5000" height="3200" viewBox="0 0 6000 4000">
	<g fill-rule="evenodd" stroke-width="10">
		<path fill="#093" d="M0 0h6000v2000H0z" stroke-width="10"/>
		<path fill="#ff0" d="M0 2000S2002 0 6000 0s6000 2000 6000 4000-2511 4000-6000 4000H0V2000z" stroke-width="10"/>
		<path fill="#d30000" d="M0 2000c6000 0 6000 2000 0 2000V0c6000 2000 3001 4000 0 4000V2000z" stroke-width="10"/>
		<path d="M0 2800h6000v400H0z" stroke-width="10"/>
		<path fill="#fff" d="M3500 1500l100-70V470h-60v330l-90-60-90 60V470h-60v460l100 70-40 60c116 80 266 100 410 100s290-20 410-100m-1180 40c-30-30-36-86 10-205 20-60-10-98-80-118 50-137 70-147 70-107s-13 60-30 70" stroke-width="10"/>
		<g stroke="#505050" stroke-width="10">
			<path d="M3140 2030c0-150-82-230-280-270-110-20-180-60-180-110 0-70 70-90 290-80 240 10 380-30 380-110 0-60-61-81-200-80 10 140-32 160-120 70-60-60-63-60-20-60l80 10c50 0 100-50 100-110 0-50-40-70-100-40-50 20-64-6-20-60h20c60 0 40-10-40 40s-120 50-160 0c-30-30-30-30-30 0v50c0 180 120 280 330 280 130 0 210-70 210-170" stroke-width="10"/>
			<path d="M2860 2060c0-50 30-110 70-140 40-40 110-70 160-70s90-10 90-20-80 40-180 120c-110 80-210 180-220 230-20 40-30 20-30-30s20-250 40-420l50-350 60 350c30 170 40 370 30 420 0 50-30 70-60 50-30-30-111-11-170 60l-30 30 110-110c30-30 70-60 80-60s80 20 80 50-10 50-70 70-90 50-90 80c0 20 60 50 150 60 100 10 200 70 230 150 40 80 100 130 150 100 50-20 80-10 70 20-10 20-60 30-130 40-180 20-50 140 140 140 130 0 320 110 370 250z" stroke-width="10"/>
		</g>
	</g>
</svg>