<svg xmlns="http://www.w3.org/2000/svg" xmlns:xlink="http://www.w3.org/1999/xlink" fill="#00f" viewBox="0 0 240000 120000">
	<path fill="red" d="M0 0h240000v120000H0Z" stroke-width="1000"/>
	<path d="M0 0h240000v80000H0Z" stroke-width="1000"/>
	<path fill="#fff" d="M0 0h240000v40000H0Z" stroke-width="1000"/>
	<g transform="translate(60000, 60000) scale(0.3914)" stroke-width="1000">
		<path d="M-37175-94368a92195 92195 0 0 1 74350 0Q43000-12000 0-1000q-43000-11000-37175-93368Z" stroke-width="1000"/>
		<path id="a" fill="#ff0" d="M0-84500l1125 2551 2772-301L2250-80000l1647 2250-2772-301L0-75500l-1125-2551-2772 300L-2250-80000l-1647-2250 2772 301" stroke-width="1000"/>
		<use xlink:href="#a" x="-10500" y="-14000" stroke-width="1000"/>
		<use xlink:href="#a" x="10500" y="-14000" stroke-width="1000"/>
		<path fill="#fff" d="M0-70000l9000 18000 6000-8000 15000 20000a10000 10000 0 0 1-385 2747A46400 46400 0 0 1 0-6090a46400 46400 0 0 1-29615-31162A10000 10000 0 0 1-30000-40000l15000-20000 6000 8000z" stroke-width="1000"/>
		<path id="b" d="M-29615-37253A10000 10000 0 0 0-15000-31340a10000 10000 0 0 1 10000 0 10000 10000 0 0 0 10000 0 10000 10000 0 0 1 10000 0 10000 10000 0 0 0 14615-5913l385 140v7320a10000 10000 0 0 0-5000 1340 10000 10000 0 0 1-10000 0 10000 10000 0 0 0-10000 0 10000 10000 0 0 1-10000 0 10000 10000 0 0 0-10000 0 10000 10000 0 0 1-10000 0 10000 10000 0 0 0-5000-1340v-7320" stroke-width="1000"/>
		<use xlink:href="#b" y="5774" stroke-width="1000"/>
		<path fill="red" d="M-40000-93066a92195 92195 0 0 1 2825-1302l2970 47449A49301 49301 0 0 0 0-3036 49301 49301 0 0 0 34205-46920l2970-47448A92195 92195 0 0 1 40000-93066l-2900 46328A52202 52202 0 0 1 0 0a52202 52202 0 0 1-37100-46738Z" stroke-width="1000"/>
	</g>
</svg>