<svg xmlns="http://www.w3.org/2000/svg" viewBox="0 0 840 600">
	<path fill="#244aa5" d="M0 0h840v600H0z"/>
	<path fill="#d0a650" d="M424.541 190.135c3.515 4.101 5.868 8.2 5.868 13.185-2.951 1.459-7.028 2.054-9.381 4.69 14.651-2.055 17.57 14.934 33.978 8.487.596 2.353 2.95 4.407 5.867 3.52l1.757-4.68c6.432-1.757 4.675 8.784 11.731 6.73 3.517 2.933 1.164 7.906 3.517 11.436 0 4.094 1.758 7.608 3.513 11.122 1.763-2.04 2.923-4.974 7.033-4.095 2.918 3.217 5.27 6.15 5.864 9.664-1.19 6.745-2.947 12.596 4.08 16.11v2.054c4.707 2.055 15.249-2.054 15.249 6.15-.598 2.934 2.917.298 4.109 2.055 2.919-1.177 7.028-.58 10.541-.58 2.92 6.15-3.513 10.54-5.27 16.11 2.917 2.919 1.757 8.204 1.16 11.702l-1.757.879c4.675.878 10.54-.565 14.652 2.07l7.623 2.918c3.513-2.038 7.593-2.352 12.298-2.038 3.514 2.636-1.19 7.027 1.758 9.067 4.11 0 7.624.597 8.19 4.111l.592 1.16c2.92-5.271 11.138-1.758 14.653-5.552 5.866 0 7.026 6.432 9.944 9.946 1.193 9.097-9.944 13.209-6.43 22.275-2.357 4.391-7.03 7.907-10.545 12.016 1.16.596.564 2.04.564 2.918-3.512 2.071-.562 8.22-5.269 8.787-.565 3.826-7.593 2.352-5.27 6.46 4.704 6.15-2.323 9.947-2.323 15.53-2.95 3.232-8.816-2.95-8.816 3.232-3.514.878-7.027-3.23-9.35.284-1.189 4.11 2.325 5.553 1.761 9.663 5.836-.597 7.593 5.27 9.946 8.785l5.867 5.866c-5.867 4.675-13.49-.597-20.52 2.039-1.757-.878 0-3.2-1.757-4.078-1.758-2.072-5.27-2.072-8.189-2.638.565 2.638-4.705 3.515-2.352 6.715 0 .878 1.16 3.514-1.162 3.514-4.706 1.475-4.11-4.078-8.22-2.04-5.27 2.04-1.16 9.947-8.784 9.068 1.16 7.06-11.703 11.735-2.919 17.884 1.16 1.162.565 3.514.565 5.27-5.272 4.707-14.623 2.95-20.488 1.192-4.706-1.191-1.757-7.058-3.513-10.258-1.758-2.95-7.028-4.989-7.028-9.099-3.517-1.445-6.463-2.35-8.816-5.271-8.188 7.906-18.163 15.53-29.869 15.812-5.27 2.636-8.219 13.21-16.408 8.815-3.216 5.273-12.895 0-13.476 7.595-3.812 1.474-2.055 6.462-4.392 8.784-.879 5.866 0 10.854 4.973 14.37 2.054 4.391-4.393 4.391-1.758 8.503.597 1.444 0 3.513-.878 4.109-1.757.878-2.337 1.758-1.757 3.514-1.459 0-2.053.878-3.216 2.039-1.475 2.92-6.15 4.396-9.38 6.436-3.217.878-5.57-1.444-7.61-3.514-.596 3.23-3.23 4.989-6.446 4.989-4.69 0-3.812-4.11-7.327-5.867 1.46-5.271-3.23-7.593-1.757-12.3 3.81-2.917 10.244-4.987 8.487-11.136-4.094-4.958-2.635-12.3-6.73-18.166-2.635-2.322-7.027-5.835-5.569-11.42 3.812-4.392 0-9.663-2.054-14.338-.878-3.827-3.216-7.34-3.216-11.734-6.447-3.796-6.746-13.773-15.828-14.651-6.448 0-7.609-8.19-14.057-7.625-.595-1.16-2.054-2.038-3.23-3.2-4.675 3.2-10.542-.878-16.394.565-3.812-6.432 3.216-15.217-7.043-19.045v-4.078c1.177.564 1.757-.598 2.055-1.193.58-4.392-7.327-4.957-4.094-9.946-1.758-1.474-3.812-2.07-2.636-4.988-4.406-9.068-17.584-8.19-20.517-17.287 2.352-2.038 2.352-4.11 3.232-5.866-2.056-3.515-2.636-7.311-2.056-11.107 2.055-.597 3.215-3.231 4.392-5.303-2.636-1.756-5.853-4.391-8.786-3.513-5.27-.878-9.083-4.957-13.773-7.31-1.176-1.162-.58-3.231-.58-4.675 6.447-2.072-.878-11.154 7.028-9.977 2.056-2.635 6.447-3.514 9.665-5.57 3.23-.58 5.866.597 9.082 1.476 2.635 3.499 7.326 2.04 9.96 4.972 2.636-.595 5.868-2.055 9.084-.595 0-4.974 2.338-7.907 5.866-11.422.58-2.04 3.797-3.513 6.432-4.675 4.988 1.162 10.84 1.162 14.37-2.353 2.337 1.474 4.392-1.458 7.027-1.458 3.215-.596 5.851.282 8.204 1.757.283-5.868 10.541-.88 12.597-7.907 2.338-4.691-6.447-6.447-5.867-10.557-1.46-4.691 2.055-7.028 3.811-10.244 2.055-.88 4.393-2.055 7.028-1.475 6.746-2.338 1.474-16.11 12.315-11.122 0 1.46-.596 3.216.282 3.514 3.812 0 4.397-4.397 7.044-5.867 1.16-4.094-1.474-9.082 2.04-12.3 1.757-.297 3.23-.877 4.392-2.352 0-3.216-1.757-4.972-4.393-7.028-.878 1.464-3.216.298-4.686.88 0-3.515-2.044-5.852-2.64-9.084-1.757-.878-2.635-2.337-2.04-4.393 2.636-2.635 0-9.082 6.15-7.62 2.338-2.043 6.447-.584 8.785-4.1 6.15-3.512 14.353-3.512 19.044-9.96 2.055.298 4.393-1.756 6.447 0 .582 3.81 6.151 2.337 6.151 5.859"/>
	<path fill="#fff" d="m469.9 110.7-8.1-24.9-8 24.9h-26.2l21.2 15.4-8.1 24.9 21.1-15.4L483 151l-8.1-24.9 21.2-15.4zm82.4 14.5-8.1-24.8-8 24.8H510l21.2 15.4-8.1 24.9 21.1-15.4 21.2 15.4-8.1-24.9 21.2-15.4zm78.6 28.6-8-24.8-8.1 24.8h-26.2l21.2 15.4-8.1 24.9 21.2-15.4 21.1 15.4-8.1-24.9 21.2-15.4zm-244.7-43.1-8-24.9-8.1 24.9h-26.2l21.2 15.4L357 151l21.2-15.4 21.1 15.4-8.1-24.9 21.2-15.4zm-82.4 14.5-8-24.8-8.1 24.8h-26.2l21.2 15.4-8.1 24.9 21.2-15.4 21.1 15.4-8.1-24.9 21.2-15.4zm-78.6 28.6-8.1-24.8-8 24.8h-26.2l21.2 15.4-8.1 24.9 21.1-15.4 21.2 15.4-8.1-24.9 21.2-15.4z"/>
</svg>
