<svg xmlns="http://www.w3.org/2000/svg" xmlns:xlink="http://www.w3.org/1999/xlink" viewBox="0 0 96000 48000">
	<defs>
		<clipPath id="a">
			<path d="M0 0h120v60H0z" stroke-width="10"/>
		</clipPath>
		<clipPath id="b">
			<path d="M0 0v15h80V40z m60 0H30v40h-50z" stroke-width="10"/>
		</clipPath>
	</defs>
	<g fill="#012169" stroke-width="6" clip-path="url(#a)" transform="scale(800)">
		<path d="M0 0h120v60H0z" stroke-width="10"/>
		<path stroke="#fff" d="M0 0l60 30M0 30l60-30" stroke-width="10"/>
		<path stroke="#c8102e" stroke-width="4" d="M0 0l60 30M0 30l60-30" clip-path="url(#b)"/>
		<path stroke="#fff" stroke-width="10" d="M30 0v40M0 15h70"/>
		<path stroke="#c8102e" d="M30 0v40M0 15h70" stroke-width="10"/>
		<path d="M0 30h60V0h60v60H0z" stroke-width="10"/>
	</g>
	<g transform="translate(72000, 24000)" stroke-width="10">
		<g id="d" stroke-width="10">
			<path id="c" fill="#fff" d="M0-19920l810 2490h2610l-2110 1530 810 2490L0-14940l-2120 1530 810-2490-2110-1530h2610z" stroke-width="10"/>
			<use xlink:href="#c" transform="rotate(24)" stroke-width="10"/>
			<use xlink:href="#c" transform="rotate(48)" stroke-width="10"/>
		</g>
		<use xlink:href="#d" transform="rotate(72)" stroke-width="10"/>
		<use xlink:href="#d" transform="rotate(144)" stroke-width="10"/>
		<use xlink:href="#d" transform="rotate(216)" stroke-width="10"/>
		<use xlink:href="#d" transform="rotate(288)" stroke-width="10"/>
	</g>
</svg>