<svg xmlns="http://www.w3.org/2000/svg" viewBox="0 0 300 150">
	<style>
		@keyframes r{0%,to{fill-opacity:0}50%{fill-opacity:1}}@keyframes b{0%,50%{fill-opacity:1}to{fill-opacity:0}}
	</style>
	<path fill="#000001" d="M0 0h300v150H0z"/>
	<path d="M0 8000 1166.459 805.392 399 699.916V-699.916l767.459-105.476 1333.54 111.148V694.244z" style="fill:#00247d;animation:r 2s ease infinite"/>
	<path d="m2008.976 4399.669 549.69 97.206-46.383 653.239-722.214-218.305z" style="fill:red"/>
	<path d="m0 9831 1038.082 44.839L300 10000v-20000l738.082 124.161z" style="fill:#00247d"/>
	<path d="m3076.942-8423.673-33.084 102.462-17.404 34.314-75.015 209.163-41.58 84.872-4.339 6.77-11.056 14.997-22.02 29.572-4.148 4.731-15.076 18.029-.095.214-.116.242-9.833 11.553-10.917 12.169-9.969 10.989-9.309 10.641-1.381 1.234-19.225 20.685-1.471 1.436-.302.232-9.512 11.676-5.104 5.568-6.915 4.064-12.762-1.308-5.523-1.105-18.196-5.697-11.169-4.832-9.146-4.796-11.397-6.841-33.681-21.254-.313-.167-10.316-8.163-6.053-6.533-.207-.137-24.815-18.537-.813-.605-6.375-6.452-12.279-11.383-34.015-29.549-2.965-3.194-10.38-13.265-23.493-28.153-23.356-28.279-16.684-24.79-3.215-5.203-9.229-12.161-12.574-17.826 2.602-.027-.254-1.375-13.507-14.416 3.153-6.417 5.367-7.119.088-.067 18.375-19.682 7.099-8.744 1.137-2.399 6.865-8.372 9.427-11.439 10.689-12.513 4.398-5.575 1.334-1.256 9.76-10.913 8.191-12.3-1.973-2.527 7.337-10.974-5.364-6.523-3.343-4.252 13.257-14.595 7.096-9.238-6.848-6.106-6.011-5.078-10.373-7.78-5.996-5.025-.403-.122-12.269-8.576-1.973-1.383-11.547-7.772 2.219-1.622 10.926-8.922.125-.146 12.15-12.035-2.67-2.289-1.564-1.093-19.386-12.08-14.165-10.217-6.382-5.366-2.625-2.104-1.826-1.168-7.709-5.691-1.916-1.549-8.005-5.72-3.316-2.278-2.786-1.941" style="fill:none;stroke:#ff0;stroke-width:8"/>
</svg>
