<svg xmlns="http://www.w3.org/2000/svg" viewBox="0 0 1920 1200">
		<title>Turks and Caicos Islands</title>
		<rect width="100%" height="100%" fill="#003399" />
		<polygon
			fill="#08218f"
			points="480.94,0 567.86,179.57 567.86,453.06 690.2,638.72 1052.52,638.72 1052.52,473.65 894.85,261.51 894.85,89.01 993.01,283.69 993.01,456.01 993.01,685.94 799.09,375.19 799.09,264.23 799.09,88.42 799.09,11.27 719.14,89.01 719.14,264.23 719.14,375.19 719.14,685.94 480.94,399.98 480.94,289.02 567.86,483.97 567.86,680.75 567.94,680.75 567.94,683.87 567.94,684.3 568.06,684.3 568.06,683.87 568.06,680.75 568.06,680.75 568.14,483.97 568.14,289.02 568.14,399.98 568.14,685.94 568.14,375.19 568.14,264.23 852.09,634.2 849.53,473.65 849.53,643.8 523.21,325.75 523.21,89.01"
			transform="scale(.34)" /></svg>