<svg xmlns="http://www.w3.org/2000/svg" viewBox="0 0 5 5" width="70" height="70">
		<rect fill="#E8D0A9" stroke="#000" stroke-width=".60" x=".769" y="0" width="3" height="3"/>
		<rect fill="#000000" stroke="#000" stroke-width=".60" x="0" y="0" width="5" height=".60"/>
		<rect fill="#000000" stroke="#000" stroke-width=".60" x="3.4" y="1" width=".60" height="1"/>
		<rect fill="#000000" stroke="#000" stroke-width=".60" x="2.23" y="1.64" width="1" height=".60"/>
		<rect fill="#A26D29" stroke="#000" stroke-width=".60" x="3" y="1.98" width=".60" height=".60"/>
		<rect fill="#000000" stroke="#000" stroke-width=".60" x="1.23" y="2.75" width="1" height=".60"/>
		<rect fill="#E8D0A9" stroke="#000" stroke-width=".60" x="1" y="3" width="1" height=".60"/>
		<rect fill="#000000" stroke="#000" stroke-width=".60" x=".61" y="3" width=".30" height=".30"/>
		<rect fill="#000000" stroke="#000" stroke-width=".60" x=".23" y="3.4" width=".30" height=".30"/>
		<rect fill="#000000" stroke="#000" stroke-width=".60" x=".23" y=".61" width=".30" height=".30"/>
		<rect fill="#000000" stroke="#000" stroke-width=".60" x=".61" y=".23" width=".30" height=".30"/>
		<rect fill="#000000" stroke="#000" stroke-width=".60" x="0" y=".23" width=".60" height=".30"/>
		<rect fill="#000000" stroke="#000" stroke-width=".60" x="0" y=".61" width=".60" height=".30"/>
		<rect fill="#000000" stroke="#000" stroke-width=".60" x="4.4" y=".61" width=".30" height=".30"/>
		<rect fill="#000000" stroke="#000" stroke-width=".60" x="4.4" y=".23" width=".30" height=".30"/>
		<rect fill="#000000" stroke="#000" stroke-width=".60" x="4.8" y="0" width=".60" height=".30"/>
		<rect fill="#000000" stroke="#000" stroke-width=".60" x="4.8" y=".38" width=".60" height=".30"/>
		<rect fill="#E8D0A9" stroke="#000" stroke-width=".60" x="3.6" y="3.95" width=".60" height="1"/>
		<rect fill="#A26D29" stroke="#000" stroke-width=".60" x="1" y="3.6" width=".60" height=".60"/></svg>