<svg xmlns="http://www.w3.org/2000/svg" xmlns:xlink="http://www.w3.org/1999/xlink" viewBox="0 0 900 600">
	<rect width="900" height="600" fill="#00843d"/>
	<g fill="#fff">
		<path d="M446.821 66.543c26.6 11.42 45.236 37.85 45.236 68.627 0 41.225-33.43 74.655-74.654 74.655-18.455 0-35.345-6.704-48.377-17.805a74.443 74.443 0 0 0 26.15 5.951c41.185 1.798 76.042-30.142 77.84-71.327 1.044-23.91-9.287-45.687-26.195-60.101z"/>
		<path id="a" d="m375.616 121.42 8.458-26.033-22.145 16.09h27.37l-22.15-16.09z"/>
		<use xlink:href="#a" height="600" y="-38.4"/>
		<use xlink:href="#a" x="37.937" y="-18.722"/>
		<use xlink:href="#a" x="-37.936" y="18.722"/>
		<use xlink:href="#a" height="600" y="38.4"/>
	</g>
	<rect width="162" height="600" x="107.998" fill="#d22630"/>
	<g id="b" fill="#383739">
		<path d="M107.998-39.619v5.88l9.11 8.527-3.072 2.86 6.515 6.038-2.86 2.596v-3.76h-5.562v4.501l12.553 11.76h6.356l.689-4.133h-3.655l3.972-3.707L142.002 0l-9.958 9.11-3.972-3.708h3.655l-.689-4.184h-6.356L112.13 12.977v4.502h5.562v-3.76l2.86 2.594-6.515 6.039 3.072 2.913-9.12 8.474v5.869l15.414-14.353-3.072-2.913 6.462-6.04-5.562-5.19 3.708-3.388 7.097 6.567L147.617 0l-15.573-14.3-7.097 6.62-3.708-3.443 5.562-5.19-6.462-6.04 3.072-2.86-15.413-14.406zm0 28.549v22.14l3.602-3.655v-4.29h3.813L118.485 0l-3.072-3.072H111.6v-4.343l-3.602-3.655zm26.271 7.839-.53 3.019.53 3.072 3.284-3.072z"/>
		<path fill="#ffc72c" d="M107.998-38.983v4.66l9.746 9.11-3.072 2.861 6.514 6.038-3.92 3.655v-4.396h-4.713v3.92l12.341 11.493h5.72l.583-3.284h-4.237l5.084-4.767L142.638 0l-10.594 9.693-5.084-4.714h4.237l-.584-3.337h-5.72L112.55 13.135v3.92h4.715v-4.396l3.92 3.654-6.516 6.038 3.072 2.913-9.745 9.058v4.66l14.777-13.718-3.072-2.913 6.462-6.038-5.562-5.19 4.344-4.026 7.097 6.62L146.927 0l-14.884-13.718-7.097 6.62-4.344-4.025 5.562-5.19-6.462-6.04 3.072-2.86-14.777-13.77zm0 28.548v20.87l3.178-3.179V2.648h4.078L117.904 0l-2.65-2.648h-4.078v-4.609l-3.178-3.177zm26.589 8.051-.37 2.172.37 2.172 2.33-2.172z"/>
	</g>
	<use xlink:href="#b" width="100%" height="100%" y="109.207" fill="#383739"/>
	<use xlink:href="#b" width="100%" height="100%" y="222.005" fill="#383739"/>
	<use xlink:href="#b" width="100%" height="100%" y="334.802" fill="#383739"/>
	<use xlink:href="#b" width="100%" height="100%" y="447.598" fill="#383739"/>
	<g fill="#383739" transform="matrix(-1 0 0 1 377.996 0)">
		<path d="M107.998-39.619v5.88l9.11 8.527-3.072 2.86 6.515 6.038-2.86 2.596v-3.76h-5.562v4.501l12.553 11.76h6.356l.689-4.133h-3.655l3.972-3.707L142.002 0l-9.958 9.11-3.972-3.708h3.655l-.689-4.184h-6.356L112.13 12.977v4.502h5.562v-3.76l2.86 2.594-6.515 6.039 3.072 2.913-9.12 8.474v5.869l15.414-14.353-3.072-2.913 6.462-6.04-5.562-5.19 3.708-3.388 7.097 6.567L147.617 0l-15.573-14.3-7.097 6.62-3.708-3.443 5.562-5.19-6.462-6.04 3.072-2.86-15.413-14.406zm0 28.549v22.14l3.602-3.655v-4.29h3.813L118.485 0l-3.072-3.072H111.6v-4.343l-3.602-3.655zm26.271 7.839-.53 3.019.53 3.072 3.284-3.072z"/>
		<path fill="#ffc72c" d="M107.998-38.983v4.66l9.746 9.11-3.072 2.861 6.514 6.038-3.92 3.655v-4.396h-4.713v3.92l12.341 11.493h5.72l.583-3.284h-4.237l5.084-4.767L142.638 0l-10.594 9.693-5.084-4.714h4.237l-.584-3.337h-5.72L112.55 13.135v3.92h4.715v-4.396l3.92 3.654-6.516 6.038 3.072 2.913-9.745 9.058v4.66l14.777-13.718-3.072-2.913 6.462-6.038-5.562-5.19 4.344-4.026 7.097 6.62L146.927 0l-14.884-13.718-7.097 6.62-4.344-4.025 5.562-5.19-6.462-6.04 3.072-2.86-14.777-13.77zm0 28.548v20.87l3.178-3.179V2.648h4.078L117.904 0l-2.65-2.648h-4.078v-4.609l-3.178-3.177zm26.589 8.051-.37 2.172.37 2.172 2.33-2.172z"/>
		<use xlink:href="#b" width="100%" height="100%" y="109.207"/>
		<use xlink:href="#b" width="100%" height="100%" y="222.005"/>
		<use xlink:href="#b" width="100%" height="100%" y="334.802"/>
		<use xlink:href="#b" width="100%" height="100%" y="447.598"/>
	</g>
	<path fill="#ffc72c" d="M121.14 530.824c.8 3.407 3.508 5.979 4.154 9.513 1.292-3.685 2.484-6.773 1.594-10.804-.637-2.883-3.062-4.94-3.343-7.902-2.644 2.377-3.213 5.749-2.405 9.193zm-.67 14.276c2.243 3.075 5.36 5.434 8.803 7.007-.678-2.694.594-4.722 2.006-6.86 1.7-2.574 2.53-5.103 1.143-8.067-.646 1.54-1.514 2.82-2.533 4.139-1.506 2.055-2.497 3.883-2.73 6.52-1.742-1.292-2.507-3.22-3.44-5.086-1.42-2.673-3.72-4.908-6.35-6.37.7 2.999 1.234 6.17 3.091 8.717zm12.578 9.166c-.48 1.708-.893 3.4-.8 5.186-1.482-1.597-3.45-2.799-5.206-4.085-2.39-1.934-5.178-3.298-7.133-5.76.292 3.624 1.843 6.578 4.788 8.783 3.113 2.33 6.867 3.583 9.933 6.03-.46-3.297.752-5.937 1.784-8.967.86-2.895.028-5.834-1.935-8.04.03 2.445-.743 4.545-1.43 6.853zm6.986 11.133c.645 2.5 2.437 4.534 3.66 6.764-3.299-1.023-6.21-2.812-9.191-4.495-3.552-1.934-7.41-3.165-10.625-5.72 1.6 5.925 5.567 9.36 11.369 11.111 3.967 1.198 7.31.6 12.124 2.546-.552-3.259-1.525-6.776-3.066-9.714-1.195-2.125-2.521-4.221-3.26-6.562-1.07 1.923-1.576 3.879-1.011 6.07zm12.139 9.065a15.21 15.21 0 0 0 4.494 4.875c-4.683.299-8.451-2.67-13.017-2.798-2.82-.08-5.497.796-8.373.533 3.413 2.303 6.986 4.314 11.14 4.851 5.402.7 10.383-.66 16.342-.129-2.79-1.965-4.18-4.595-5.92-7.423-2.26-3.533-4.396-6.05-8.79-6.618 1.763 1.983 2.79 4.44 4.115 6.71zm16.63 7.773c-8.25 1.403-16.155 3.218-24.58 3.3 9.43 3.289 18.318 3.884 27.672.489 5.055-1.835 8.93-2.817 12.748-2.544 5.58.401 12.36 2.603 19.865 10.517l2.95-2.36c-10.756-9.583-24.829-11.753-38.654-9.403z"/>
	<path fill="#383739" d="m128.266 70.34-12.981-7.96V43.243l12.981-7.96V25.159l12.267-7.388h9.8l18.648-10.488h40.033l18.648 10.488h9.8l12.267 7.388v10.125l12.981 7.96V62.38l-12.98 7.96v10.123l-12.268 7.387h-9.8l-18.648 10.49h-40.033l-18.648-10.49h-9.8l-12.267-7.387z"/>
	<path fill="#00843d" d="M169.068 7.733 150.424 18.22h-9.746l-11.97 7.203V35.54l-12.977 7.945v18.644l12.977 7.945v10.17l11.917 7.203h9.799l18.644 10.487h39.83l18.644-10.487h9.8l11.97-7.204v-10.17l12.976-7.944V43.485l-12.976-7.945V25.423l-11.97-7.203h-9.8L208.898 7.733h-39.83zm1.112 3.866h37.66l18.643 10.488h9.746l9.057 5.455V37.66l13.03 7.944V60.01l-13.03 7.945v10.117l-9.057 5.455h-9.746L207.84 94.015h-37.66l-18.644-10.488h-9.745l-9.11-5.455V67.955l-12.97-7.945V45.604l12.979-7.945V27.542l9.11-5.455h9.746z"/>
	<path fill="#ffc72c" d="M188.783 53.025V12.017h-18.506L151.63 22.505h-9.722l-8.795 5.296v10.1l-12.98 7.97v6.73h69.08v41.01h18.506l18.648-10.49h9.723l8.793-5.297v-10.1l12.98-7.96v-6.735z"/>
	<path fill="#fff" d="M120.131 53.025v6.736l12.98 7.97v10.1l8.795 5.296h9.722l18.648 10.489h18.506V52.598h69.08v-6.735l-12.98-7.96v-10.1l-8.794-5.296h-9.723L207.717 12.02h-18.505v41.007z"/>
	<g id="d" fill="#383739">
		<g id="c">
			<path d="m148.448 26.28-3.196-2.978-3.166 1.952 3.201 2.985-4.11 2.546h8.969l7.73 7.29 2.472-2.61-7.515-7.09v-4.811z"/>
			<path d="m163.573 24.972-3.196-2.978-3.166 1.952 3.201 2.984-4.11 2.547h8.969l7.73 7.29 2.48-2.61-7.513-7.09v-4.812zm-16.234 9.864-3.196-2.979-3.165 1.953 3.2 2.984-4.11 2.547h8.97l7.728 7.3 2.473-2.61-7.515-7.09v-4.82z"/>
			<path d="M188.997 11.589h-8.093l-4.235 4.081h-8.255l-6.1 3.166 1.422 3.467 5.44-2.858h2.383l8.341 9.647 9.097-5.54z"/>
			<path fill="#d22630" d="m145.199 23.838 2.872 2.676-2.406 1.49-2.876-2.68zm7.205.495v4.227l7.338 6.921-1.884 1.99-7.542-7.114h-7.635l9.723-6.024zm7.92-1.803 2.872 2.676-2.406 1.49-2.876-2.68zm7.205.494v4.227l7.33 6.922-1.886 1.99-7.542-7.114H157.8l9.723-6.025z"/>
			<path fill="#d22630" d="m144.091 32.393 2.871 2.677-2.406 1.49-2.875-2.68zm7.205.495v4.227l7.337 6.922-1.883 1.99-7.542-7.114h-7.636l9.724-6.025zm37.487-20.871h-7.706l-4.235 4.08h-8.324l-5.66 2.938 1.095 2.67 5.117-2.688h2.685l8.232 9.521 8.796-5.356z"/>
		</g>
		<use xlink:href="#c" width="100%" height="100%" transform="matrix(1 0 0 -1 0 105.623)"/>
		<path d="m143.054 39.71-3.859-1.441-.092.064-4.982 3.457v.93l-7.98 10.091 7.98 10.092v.93l5.074 3.52 3.86-1.441-2.356-1.56v-2.967l.936-1.12h4.181V45.358h-4.18l-.937-1.12V41.27z"/>
		<path fill="#d22630" d="m134.549 42.014 4.706-3.266 2.862 1.07-1.846 1.223v3.352l1.164 1.392h3.952v14.053h-3.952l-1.164 1.392v3.352l1.846 1.223-2.862 1.07-4.706-3.266v-.855l-7.862-9.943 7.863-9.943z"/>
	</g>
	<use xlink:href="#d" width="100%" height="100%" fill="#383739" transform="matrix(-1 0 0 1 377.994 0)"/>
	<path fill="#383739" d="m136.203 61.282-2.173-1.88v-.906l-4.66-5.685 4.661-5.685v-.906l2.173-1.88 3.902 3.174-2.252-.017 3.328 3.378h7.605l5.98-4.677V33.863h14.96l17.372-10.66v-2.796l-2.657-1.771h-.842l-2.893 1.936-.448 1.444-2.264-3.09 4.4-3.695h.702l4.964-3.64h1.87l4.965 3.65h.703l4.4 3.695-2.264 3.09-.448-1.444-2.894-1.936h-.841l-2.657 1.77v2.798l17.372 10.66h14.959V46.2l5.98 4.677h7.606l3.328-3.378-2.253.017 3.903-3.173 2.172 1.88v.905l4.662 5.685-4.662 5.685v.906l-2.172 1.88-3.903-3.173 2.253.017-3.328-3.378h-7.605l-5.981 4.677V71.76h-14.96l-17.37 10.66v2.796l2.656 1.77h.84l2.895-1.935.448-1.445 2.263 3.09-4.4 3.696h-.702l-4.964 3.642h-1.87l-4.965-3.642h-.703l-4.4-3.696 2.265-3.09.448 1.445 2.892 1.947h.842l2.658-1.77v-2.8l-17.373-10.66h-14.958v-12.34l-5.982-4.676h-7.604l-3.328 3.378 2.252-.017z"/>
	<path fill="#ffc72c" d="m189.211 87.319 1.901 1.454-1.9 1.453V87.32zm-6.044 2.644h.07l4.964 3.643h.58v-2.842l-2.604-1.99 2.604-1.993v-5.336l-18.589-11.408H156.45V58.574l-7.095-5.55h-10.701l-2.69 3.042-2.69-3.041h-3.176l4.36 5.318v.863l1.727 1.5 2.774-2.16-1.628.013v-.54l3.63-3.7h7.983l6.261 4.898V71.33h14.651l17.68 10.85v3.264l-2.957 1.97h-1.103l-3.126-2.093-.24-.777-1.525 2.08 3.973 3.338h.617zm-47.2-39.76 2.117 2.394h-4.236zm52.815-34.807-1.9 1.453 1.9 1.454zm51.127 37.63 2.107 2.393 2.119-2.4zM194.744 15.66l-4.964-3.644h-.58v2.84l2.607 1.993-2.606 1.992v5.337l18.59 11.407h13.74V47.05l7.095 5.549h10.7l2.69-3.041 2.69 3.04h3.178l-4.36-5.317v-.864l-1.726-1.5-2.775 2.16 1.629-.013v.54l-3.63 3.7h-7.973l-6.262-4.898V34.29h-14.65l-17.68-10.85v-3.263l2.957-1.97h1.102l3.127 2.094.24.776 1.525-2.08-3.973-3.339h-.687z"/>
	<path fill="#fff" d="m188.782 90.226-1.9-1.453 1.9-1.453zm-50.698-37.2-2.118 2.394-2.118-2.394zm56.741 36.937h-.07l-4.964 3.643h-.58v-2.84l2.61-1.993-2.6-1.993v-5.336l18.589-11.408h13.741V58.574l7.095-5.55h10.7l2.69 3.042 2.69-3.041h3.178l-4.36 5.318v.863l-1.726 1.5-2.775-2.16 1.629.013v-.54l-3.63-3.7h-7.974l-6.26 4.898v12.115H208.15L190.47 82.18v3.264l2.956 1.97h1.102l3.127-2.093.24-.777 1.525 2.08-3.973 3.338h-.618zm47.202-39.76-2.118 2.394h4.237zM183.24 15.66l4.963-3.643h.58v2.84l-2.605 1.993 2.606 1.992v5.337l-18.59 11.408h-13.74V47.05l-7.096 5.547h-10.703l-2.69-3.04-2.69 3.04H130.1l4.36-5.318v-.863l1.727-1.5 2.773 2.16-1.628-.014v.54l3.63 3.7h7.973l6.262-4.898V34.291h14.651l17.68-10.85v-3.26l-2.956-1.97h-1.102l-3.127 2.099-.24.776-1.525-2.08 3.974-3.34h.687zm5.972 2.644 1.901-1.454-1.9-1.454z"/>
	<path fill="#00843d" d="M188.783 53.025V24.68l-18.469 11.334H156.88v11.243l-6.828 5.34h39.16v28.345l18.467-11.334h13.435V58.366l6.828-5.34z"/>
	<path fill="#d22630" d="m150.051 53.025 6.829 5.34v11.243h13.434l18.469 11.334V52.596h39.159l-6.828-5.34V36.015h-13.435l-18.467-11.333v28.344z"/>
	<path fill="#383739" d="m169.118 39.063-3.195-2.978-3.166 1.952 3.2 2.984-4.11 2.547h8.97l7.729 7.29 2.472-2.61-7.515-7.09v-4.811zm39.755 27.497 3.196 2.978 3.165-1.953-3.2-2.984 4.11-2.546h-8.97l-7.728-7.291-2.473 2.61 7.515 7.09v4.812zm-39.755 0-3.196 2.978-3.165-1.953 3.2-2.984-4.11-2.546h8.97l7.728-7.291 2.473 2.61-7.515 7.09v4.812zm39.755-27.497 3.196-2.978 3.165 1.952-3.2 2.984 4.11 2.547h-8.97l-7.728 7.29-2.473-2.61 7.515-7.09v-4.811z"/>
	<path fill="#d22630" d="m212.122 69.002-2.871-2.677 2.406-1.49 2.875 2.68zm-7.205-.495V64.28l-7.337-6.921 1.884-1.99 7.541 7.114h7.636l-9.724 6.024zM165.87 36.62l2.872 2.677-2.407 1.49-2.875-2.68zm7.206.496v4.226l7.337 6.922-1.884 1.99-7.552-7.114h-7.635l9.723-6.024z"/>
	<path fill="#00843d" d="m212.122 36.62-2.871 2.677 2.406 1.49 2.875-2.68zm-7.205.496v4.226l-7.337 6.922 1.884 1.99 7.541-7.114h7.636l-9.724-6.024zM165.87 69.002l2.871-2.677-2.406-1.49-2.875 2.68zm7.205-.495V64.28l7.338-6.921-1.884-1.99-7.55 7.114h-7.637l9.722 6.024z"/>
	<path fill="#383739" d="m208.856 52.812-19.859 13.235-19.86-13.235 19.86-13.236Z"/>
	<path fill="#fff" d="m188.783 40.233-18.551 12.364h37.531l-18.551-12.364V65.39l18.552-12.365h-37.533l18.552 12.365z"/>
	<path fill="#383739" d="M194.308 57.363v3.639h-10.62v-3.64h-6.874V48.26h6.873v-3.64h10.62v3.64h6.874v9.103z"/>
	<path fill="#d22630" d="M184.116 45.048v3.64h-6.873v3.91h11.54v-7.55h-4.667zm5.096 7.55h11.54v-3.91h-6.872v-3.64h-4.668v7.55zm-11.969.427v3.91h6.873v3.64h4.667v-7.55h-11.54Zm11.97 7.55h4.667v-3.64h6.873v-3.91h-11.54v7.55z"/>
	<path fill="#383739" d="M222.877 203.61v-5.83h15.988v-5.83h15.988v-52.682h-15.988v-5.83h-15.988v-5.83h-15.988v-5.83h-35.782v5.83h-15.989v5.83H139.13v5.83h-15.99v52.682h15.99v5.83h15.988v5.83h15.989v5.83h35.782v-5.83Z"/>
	<path fill="#ffc72c" d="M171.558 122.193v5.826h-15.996v5.827h-15.996v5.826H123.57v51.854h15.996v5.827h15.996v5.825h15.996v5.826h34.903v-5.826h16.008v-5.825h15.996v-5.827h15.994v-51.854H238.46v-5.826h-16v-5.827h-15.997v-5.826zm4.237 4.237h26.43v5.826h15.996v5.827h15.996v5.826h15.995v43.38h-15.995v5.826h-15.996v5.826h-15.997v5.825h-26.429v-5.825H159.8v-5.826h-15.996v-5.827h-15.996v-43.38h15.996v-5.825H159.8v-5.827h15.996z"/>
	<path fill="#d22630" d="M160.209 198.519v-5.83h-15.988v-5.83h-15.99v-42.5h15.99v-5.83h15.988v-5.831h15.988v-5.83h25.601v5.83h15.989v5.83h15.987v5.83h15.99v42.5h-15.99v5.83h-15.987v5.831h-15.99v5.83h-25.6v-5.83z"/>
	<path fill="#383739" d="m163.921 137.014-4.141-3.13v6.01l-3.966 2.52-.01-3.762-3.803 3.416-3.804-3.416-.01 3.763-4.394-2.793v5.573l-3.552 2.571-.01-3.417-4.219 3.056-4.219-3.056-.01 3.417-3.98-2.88v16.88h-4.662v7.685h4.673v16.881l3.98-2.882.01 3.418 4.22-3.056 4.217 3.056.01-3.418 3.552 2.571v5.574l4.395-2.793.01 3.763 3.802-3.416 3.804 3.416.01-3.763 3.965 2.52v6.011l4.142-3.13.009 4.198 4.058-3.63 4.06 3.63.009-4.187 3.714 2.805v6.41l5.55-5.06v5.946l7.678-4.936 7.678 4.937v-5.947l5.55 5.06v-6.41l3.713-2.807.01 4.198 4.058-3.63 4.06 3.63.008-4.197 4.14 3.13v-6.01l3.968-2.52.01 3.763 3.804-3.416 3.803 3.416.01-3.763 4.396 2.793v-5.574l3.553-2.569.01 3.417 4.218-3.056 4.22 3.056.01-3.418 3.98 2.882v-16.89h4.66v-7.684h-4.66v-16.88l-3.98 2.88-.01-3.417-4.22 3.056-4.218-3.057-.011 3.417-3.55-2.57v-5.574l-4.395 2.8-.01-3.764-3.813 3.41-3.804-3.416-.01 3.763-3.966-2.52v-6.01l-4.14 3.13-.01-4.2-4.058 3.628-4.06-3.63-.01 4.2-3.712-2.807v-6.41l-5.55 5.06v-5.946L189 131.85l-7.677-4.936v5.946l-5.55-5.06v6.41l-3.714 2.807-.01-4.2-4.058 3.63-4.058-3.63z"/>
	<path fill="#00843d" d="m132.21 148.604.01-3.418 3.793 2.748.127-.093 3.665-2.655.01 3.418 3.978-2.88v39.77l-3.978-2.88-.01 3.417-3.792-2.748-3.793 2.748-.01-3.407-3.978 2.88v-16.47h-4.662v-6.83h4.662v-16.47zm32.146-14.832 3.632 3.248 3.633-3.248.009 4.102 4.139-3.129v61.728l-4.14-3.13-.01 4.103-3.64-3.249-3.633 3.25-.008-4.103-4.138 3.13v-61.729l4.14 3.13zm49.284 0-3.632 3.248-3.633-3.248-.01 4.102-4.137-3.129v61.728l4.138-3.13.01 4.103 3.632-3.249 3.632 3.25.009-4.103 4.139 3.13v-61.729l-4.14 3.13zm32.146 14.832-.01-3.418-3.793 2.748-.128-.093-3.665-2.655-.01 3.418-3.977-2.88v39.77l3.977-2.88.01 3.417 3.793-2.748 3.793 2.748.01-3.407 3.977 2.88v-16.47h4.662v-6.83h-4.662v-16.47z"/>
	<path fill="#ffc72c" d="m148.623 139.611 3.377 3.034 3.378-3.034.01 3.583 4.392-2.792v50.413l-4.392-2.791-.01 3.582-3.378-3.033-3.377 3.033-.01-3.582-4.393 2.79v-50.412l4.393 2.792zm33.125-5.784-5.551-5.06v73.683l5.55-5.06v6.131l7.25-4.66 7.25 4.66v-6.131l5.55 5.06v-73.683l-5.55 5.06v-6.131l-7.25 4.66-7.25-4.66zm47.625 5.784-3.377 3.034-3.378-3.034-.01 3.583-4.393-2.792v50.413l4.394-2.791.009 3.582 3.378-3.033 3.377 3.033.01-3.582 4.393 2.79v-50.412l-4.393 2.792z"/>
	<g id="f" fill="#383739">
		<g id="e">
			<path d="M134.288 158.366c.485.49 1.066.737 1.724.737.659 0 1.239-.247 1.725-.737 1.518-1.53 1.57-4.297 1.554-6.289l-2.072 2.19-1.207-2.083s-.985 1.702-1.207 2.083l-2.072-2.19c-.015 1.992.036 4.76 1.555 6.29zm16.678-4.286-1.28-1.278v-2.546l-2.937 2.722L152 158.23l5.252-5.252-2.938-2.722v2.546l-1.279 1.278v-4.511l2.265-1.956-3.3-2.833-3.3 2.834 2.266 1.945zm15.987-5.06-1.279-1.279v-2.546l-2.937 2.723 5.25 5.25 5.252-5.25-2.937-2.723v2.546l-1.28 1.29v-4.513l2.266-1.945-3.3-2.834-3.3 2.833 2.265 1.945z"/>
			<path fill="#fff" d="m136.013 153.039 1.123 1.94 1.709-1.806c-.06 2.25-.553 4.026-1.412 4.89-.402.406-.88.612-1.42.612-.54 0-1.018-.206-1.42-.611-.859-.865-1.353-2.642-1.412-4.89l1.72 1.805 1.122-1.94zm32.582-8.727v5.743l2.136-2.135v-1.743l1.891 1.754-4.633 4.64-4.634-4.631 1.89-1.753v1.743l2.137 2.135v-5.741l-2.035-1.75 2.642-2.27 2.642 2.27z"/>
			<path fill="#d22630" d="M152.607 149.372v5.743l2.136-2.136v-1.742l1.891 1.753-4.634 4.634-4.633-4.634 1.891-1.753v1.742l2.136 2.136v-5.743l-2.035-1.748 2.64-2.268 2.644 2.268z"/>
		</g>
		<use xlink:href="#e" width="100%" height="100%" transform="matrix(-1 0 0 1 377.996 0)"/>
		<path d="m195.282 150.937-1.72-2.377 4.41-4.072-4.112-3.38v2.394l-1.72 1.472v-4.342l3.885-2.864-7.029-5.18-7.029 5.18 3.887 2.864v4.342l-1.72-1.472v-2.394l-4.114 3.38 4.412 4.072-1.72 2.377z"/>
		<path fill="#d22630" d="m183.552 150.509 1.45-2.006-4.328-3.996 3.032-2.49v1.683l2.577 2.206v-5.49l-3.592-2.647 6.31-4.65 6.31 4.65-3.59 2.647v5.49l2.579-2.206v-1.684l3.032 2.49-4.33 3.997 1.453 2.006z"/>
		<path d="m185.785 137.769 3.212 2.367 3.212-2.367-3.212-2.368-.127.095z"/>
		<path fill="#00843d" d="m188.997 135.934 2.49 1.835-2.49 1.835-2.49-1.835 2.49-1.835z"/>
	</g>
	<use xlink:href="#f" width="100%" height="100%" fill="#383739" transform="matrix(1 0 0 -1 0 331.216)"/>
	<path fill="#383739" d="M245.902 163.15h-7.037v-2.805h-21.51l-14.975-9.836h-26.764l-14.975 9.836h-21.51v2.805h-7.038v4.918h7.037v2.805h21.511l14.974 9.836h26.765l14.974-9.836h21.51v-2.805h7.038z"/>
	<path fill="#d22630" d="m175.742 150.953-14.99 9.799h-21.186v2.807h-7.044v4.078h7.044v2.808h21.187l14.99 9.851h26.535l14.936-9.851h21.24v-2.808h7.044v-4.078h-7.044v-2.807h-21.24l-14.936-9.8Zm.318 1.43h25.847l13.718 9.004v1.377h15.308v5.72h-15.308v1.378l-13.718 8.951H176.06l-13.665-8.951v-1.377h-15.36v-5.72h15.36v-1.378z"/>
	<path fill="#d22630" d="m201.799 152.826 13.379 8.783v1.56h15.332v4.88h-15.332v1.559l-13.379 8.783h-25.604l-13.38-8.783v-1.56h-15.33v-4.88h15.33v-1.56l13.38-8.782z"/>
	<g fill="#383739">
		<path d="m169.551 170.598 5.793 4.349 3.81-2.862-2.215-1.663-1.595 1.198-1.362-1.022 21.815-16.379h-4.43zm12.645 6.4h4.43l21.816-16.378-5.792-4.348-3.811 2.86 2.215 1.663 1.596-1.198 1.362 1.023zm9.17 0h4.43l-21.814-16.378 1.362-1.023 1.595 1.198 2.216-1.662-3.811-2.861-5.793 4.348zm12.646-6.4-1.362 1.022-1.596-1.198-2.215 1.663 3.81 2.862 5.793-4.349-21.816-16.379h-4.43zm-38.848-4.99 3.893 2.587 3.894-2.586-3.894-2.586z"/>
		<path d="m185.104 165.609 3.893 2.586 3.894-2.586-3.894-2.586zm27.728 0-3.893 2.586-3.894-2.586 3.894-2.586z"/>
		<path fill="#ffc72c" d="m207.729 170.598-5.078 3.813-3.098-2.326 1.502-1.127 1.596 1.198 2.075-1.558-21.245-15.95h3.003zm-13.216 5.972h-3.003l-21.244-15.95 5.079-3.813 3.096 2.326-1.5 1.126-1.596-1.2-2.076 1.56zm-8.029 0h-3.003l21.245-15.95-2.075-1.559-1.596 1.198-1.502-1.13 3.098-2.33 5.078 3.811zm5.026-21.922h3.003l-21.244 15.95 2.076 1.558 1.595-1.198 1.501 1.127-3.096 2.326-5.08-3.813z"/>
		<path fill="#00843d" d="m169.057 163.538 3.119 2.071-3.12 2.071-3.118-2.07zm19.941 0 3.119 2.071-3.12 2.071-3.117-2.07zm19.941 0-3.119 2.071 3.12 2.071 3.117-2.07z"/>
	</g>
	<g fill="#383739">
		<path d="m120.514 274.151-1.528 2.16 2.739 2.095-2.74 2.094 1.528 2.16 3.182.37 3.081-2.38 7.682 4.88v-4.053l-4.835-3.07 4.835-3.072v-4.053l-7.682 4.88-3.08-2.38z"/>
		<path d="m120.514 260.073-1.528 2.161 2.739 2.094-2.74 2.094 1.528 2.16 3.182.37 3.081-2.38 7.682 4.88v-4.053l-4.835-3.07 4.835-3.072v-4.053l-7.682 4.88-3.08-2.38zm0 36.666-1.528-2.16 2.739-2.095-2.74-2.094 1.528-2.16 3.182-.37 3.081 2.38 7.682-4.88v4.053l-4.835 3.07 4.835 3.072v4.053l-7.682-4.88-3.08 2.38zm136.968-22.588 1.528 2.169-2.739 2.095 2.74 2.093-1.529 2.16-3.181.37-3.08-2.38-7.674 4.88v-4.053l4.835-3.07-4.837-3.072v-4.053l7.683 4.88 3.08-2.38z"/>
		<path d="m257.482 260.073 1.528 2.161-2.739 2.094 2.74 2.094-1.529 2.16-3.18.37-3.08-2.38-7.684 4.88v-4.053l4.836-3.07-4.836-3.072v-4.053l7.683 4.88 3.08-2.38zm0 36.666 1.528-2.16-2.739-2.095 2.74-2.094-1.529-2.16-3.18-.37-3.08 2.38-7.684-4.88v4.053l4.836 3.07-4.836 3.072v4.053l7.683-4.88 3.08 2.38zm-30.755-61.009v5.856h4.26v2.588h4.184v-4.713h-3.732v-3.731Zm12.556 9.235v5.855h4.255v2.589h4.19v-4.713h-3.733v-3.73zm-88.014-9.235v5.856h-4.26v2.588h-4.19v-4.713h3.73v-3.731Zm75.458 85.353v-5.856h4.26v-2.588h4.184v4.712h-3.732v3.732zm-75.458 0v-5.856h-4.26v-2.588h-4.19v4.712h3.73v3.732zm88.014-9.235v-5.855h4.255v-2.59h4.19v4.713h-3.733v3.732zm-100.569-66.883v5.855h-4.256v2.589h-4.188v-4.713h3.732v-3.73zm0 66.883v-5.855h-4.256v-2.59h-4.188v4.713h3.732v3.732zm66.04-76.254-3.25-3.156-3.195 2.959 2.783 2.7-3.592 3.489h5.334l1.92-1.863 1.92 1.863h5.332l-3.593-3.488 2.783-2.701-3.193-2.96c-1.085 1.052-2.167 2.105-3.25 3.157zm-15.756 0-3.25-3.156-3.193 2.959s2.5 2.428 2.783 2.7l-3.593 3.489h5.334l1.92-1.863 1.92 1.863h5.332l-3.592-3.488 2.782-2.701-3.192-2.96c-1.085 1.052-2.167 2.105-3.25 3.157zm-15.754 0 3.25-3.156 3.194 2.959-2.783 2.7 3.592 3.489h-5.334l-1.92-1.863-1.918 1.863h-5.334l3.604-3.488-2.784-2.701 3.193-2.96 3.25 3.157zm31.51 85.625-3.25 3.155-3.195-2.958 2.783-2.701-3.592-3.488h5.334l1.92 1.863 1.92-1.863h5.332l-3.593 3.488 2.783 2.7-3.193 2.96c-1.085-1.051-2.167-2.104-3.25-3.156zm-15.756 0-3.25 3.155-3.193-2.958s2.5-2.428 2.783-2.701l-3.593-3.488h5.334l1.92 1.863 1.92-1.863h5.332l-3.592 3.488 2.782 2.7-3.192 2.96c-1.085-1.051-2.167-2.104-3.25-3.156zm-15.754 0 3.25 3.155 3.194-2.958-2.783-2.701 3.592-3.488h-5.334l-1.92 1.863-1.918-1.863h-5.334l3.604 3.488-2.784 2.7 3.193 2.96c1.084-1.051 2.166-2.104 3.25-3.156z"/>
	</g>
	<path fill="#00843d" d="M134.029 281.713v3.037l-7.278-4.623-3.18 2.458-2.81-.327-1.177-1.668 2.855-2.184-2.856-2.184 1.177-1.667 2.817-.327 3.18 2.458 7.28-4.623v3.036l-5.207 3.307zm0-14.078v3.037l-7.278-4.623-3.18 2.45-2.81-.329-1.177-1.668 2.855-2.183-2.856-2.183 1.177-1.667 2.817-.328 3.18 2.458 7.28-4.623v3.037l-5.207 3.308zm0 21.543v-3.037l-7.278 4.623-3.18-2.458-2.81.327-1.177 1.668 2.855 2.184-2.856 2.184 1.177 1.66 2.817.324 3.18-2.458 7.28 4.624v-3.036l-5.207-3.307zm109.938-7.465v3.037l7.278-4.623 3.18 2.458 2.818-.327 1.179-1.668-2.856-2.184 2.856-2.184-1.18-1.667-2.817-.327-3.18 2.458-7.278-4.623v3.036l5.206 3.307zm0-14.078v3.037l7.278-4.623 3.18 2.45 2.818-.329 1.179-1.668-2.856-2.183 2.856-2.183-1.18-1.667-2.817-.328-3.18 2.458-7.278-4.623v3.037l5.206 3.308zm0 21.543v-3.037l7.278 4.623 3.18-2.458 2.818.327 1.179 1.668-2.856 2.184 2.856 2.184-1.18 1.66-2.817.324-3.18-2.458-7.278 4.624v-3.036l5.206-3.307zm-12.956-53.02v3.733h3.731v3.855h-3.326v-2.588h-4.26v-4.999zm12.555 9.235v3.731h3.731v3.856h-3.327v-2.588h-4.259v-4.999zm-96.58-9.234v3.732h-3.732v3.855h3.327v-2.588h4.26v-4.999zm84.025 84.494v-3.73h3.731v-3.856h-3.326v2.587h-4.26v5zm-84.026 0v-3.73h-3.732v-3.856h3.327v2.587h4.26v5zm96.58-9.234v-3.74h3.732v-3.855h-3.327v2.588h-4.259v5zM134.43 245.39v3.732h-3.731v3.856h3.327v-2.588h4.259v-4.999zm.001 66.027v-3.731h-3.732v-3.855h3.327v2.59h4.26v5zm67.065-78.39 3.257 3.162 3.257-3.162 2.564 2.375-2.776 2.694 3.15 3.06h-4.101l-2.094-2.033-2.094 2.033h-4.102l3.151-3.06-2.776-2.694 2.564-2.375zm-15.755 0 3.257 3.162 3.257-3.162 2.563 2.375-2.775 2.694 3.15 3.06h-4.102l-2.093-2.033-2.094 2.033h-4.102l3.15-3.06-2.775-2.694 2.564-2.375zm-9.24 0-3.256 3.162-3.257-3.162-2.564 2.375 2.776 2.694-3.15 3.06h4.101l2.094-2.033 2.094 2.033h4.102l-3.151-3.06 2.776-2.694-2.564-2.375zm24.995 90.755 3.257-3.163 3.257 3.163 2.564-2.375-2.776-2.694 3.15-3.06h-4.101l-2.094 2.032-2.094-2.032h-4.102l3.151 3.06-2.776 2.694 2.564 2.375zm-15.755 0 3.257-3.163 3.257 3.163 2.563-2.375-2.775-2.694 3.15-3.06h-4.102l-2.093 2.032-2.094-2.032h-4.102l3.15 3.06-2.775 2.694 2.564 2.375zm-9.24 0-3.256-3.163-3.257 3.163-2.564-2.375 2.776-2.694-3.15-3.06h4.101l2.094 2.032 2.094-2.032h4.102l-3.151 3.06 2.776 2.694-2.564 2.375z"/>
	<path fill="#383739" d="M146.58 306.421v9.234h84.836v-9.234h12.55v-56.03h-12.55v-9.233H146.58v9.234h-12.55v56.029z"/>
	<path fill="#ffc72c" d="M147.034 241.578v9.217h-12.553v55.19h12.553v9.217h83.95v-9.217h12.555v-55.19h-12.565v-9.217h-83.95zm5.403 3.55h73.146v8.897l3.019 2.226h11.388v44.332h-11.44l-2.967 2.171v8.951h-73.146v-8.898l-3.02-2.224h-11.44v-44.332h11.388l3.072-2.226v-8.898z"/>
	<path fill="#d22630" d="M152.86 245.551v8.158l11.017-8.158zm61.228 0 11.017 8.158v-8.158Zm-75.635 11.124v7.627l10.382-7.627h-10.38Zm90.68 0 10.433 7.68v-7.68zm10.433 35.75-10.434 7.734h10.434zm-101.113.053v7.681h10.381zm14.407 10.647v8.104h10.964zm72.245 0-10.963 8.104h10.963z"/>
	<path fill="#00843d" d="m213.377 245.559 26.188 19.342v27.01l-26.188 19.342h-48.76l-26.187-19.342V264.9l26.187-19.342z"/>
	<path fill="#383739" d="m144.667 295.021-3.01-3.494 2.826-3.28-2.827-3.28 2.827-3.28-2.827-3.28 2.827-3.28-2.827-3.28 2.826-3.28-2.826-3.28 3.011-3.495h88.661l3.011 3.494-2.826 3.28 2.826 3.28-2.826 3.28 2.826 3.28-2.826 3.28 2.826 3.28-2.826 3.28 2.826 3.28-3.01 3.495zm60.946-45.236-3.495-3.01-3.28 2.825-3.28-2.826-3.28 2.826-3.28-2.826-3.28 2.826-3.281-2.826-3.28 2.826-3.28-2.826-3.494 3.01v57.244l3.494 3.01 3.28-2.826 3.28 2.826 3.28-2.826 3.28 2.826 3.28-2.826 3.28 2.826 3.28-2.826 3.281 2.827 3.495-3.011z"/>
	<g fill="#ffc72c">
		<path d="m198.623 249.981-3.065-2.642-3.066 2.642v56.85l3.066 2.641 3.065-2.64zm-13.12 0-3.066-2.642-3.065 2.642v56.85l3.065 2.641 3.066-2.64z"/>
		<path d="m144.863 294.593-2.641-3.066 2.64-3.066h88.27l2.641 3.066-2.64 3.066zm88.269-19.253 2.642 3.066-2.642 3.065h-88.268l-2.642-3.065 2.642-3.066zm0-6.988 2.641-3.066-2.64-3.065h-88.27l-2.641 3.065 2.64 3.066z"/>
	</g>
	<g fill="#d22630">
		<path d="m205.184 249.981-3.065-2.642-3.066 2.642v56.85l3.066 2.641 3.064-2.64zm-26.24 0-3.067-2.642-3.066 2.642v56.85l3.066 2.641 3.066-2.64z"/>
		<path d="m144.864 288.032-2.642-3.066 2.642-3.066h88.268l2.642 3.066-2.642 3.066zm0-13.12-2.642-3.066 2.642-3.066h88.268l2.642 3.066-2.642 3.066z"/>
		<path d="m192.064 306.831-3.066 2.641-3.066-2.64v-56.85l3.066-2.643 3.066 2.642z"/>
	</g>
	<path fill="#383739" d="M218.631 251.09h-59.48v4.724h-7.602v45.185h7.602v4.723h59.694v-4.723h7.602v-45.185h-7.602v-4.724Z"/>
	<path fill="#d22630" d="M159.587 251.535v4.715h-7.627v44.332h7.627v4.714h6.25l-12.447-10.434V261.97l12.447-10.435h-6.25Zm52.596 0 12.393 10.434v32.893l-12.393 10.434h6.25v-4.714h7.574V256.25h-7.575v-4.715h-6.249z"/>
	<g fill="#00843d">
		<path d="m166.525 251.535-12.712 10.646v32.468c.15.127 12.594 10.547 12.712 10.646h44.968c.118-.099 12.508-10.52 12.66-10.646v-32.468c-.152-.126-12.542-10.547-12.66-10.646zm.636 1.8h43.644l11.546 9.694v30.773l-11.546 9.64H167.16l-11.494-9.64v-30.773z"/>
		<path d="m178.72 294.289 1.954.844.359 2.282-2.46 2.164 3.573 3.454h-3.437l-2.458-2.366-2.458 2.366h-3.438l3.573-3.454-2.46-2.164.36-2.282 1.953-.844 2.47 1.975.134-.107zm12.748 0 1.953.844.36 2.282-2.46 2.164 3.573 3.454h-3.437l-2.459-2.366-2.457 2.366h-3.438l3.573-3.454-2.46-2.164.36-2.282 1.953-.844 2.47 1.975.133-.107zm7.809 0-1.953.844-.36 2.282 2.46 2.164-3.573 3.454h3.437l2.459-2.366 2.457 2.366h3.438l-3.573-3.454 2.46-2.164-.36-2.282-1.953-.844-2.47 1.975-.134-.107zm-20.557-31.766 1.954-.844.359-2.292-2.46-2.163 3.573-3.454h-3.437l-2.458 2.365-2.458-2.365h-3.438l3.573 3.454-2.46 2.163.36 2.282 1.953.844 2.47-1.974.134.106zm12.748 0 1.953-.844.36-2.292-2.46-2.163 3.573-3.454h-3.437l-2.459 2.365-2.457-2.365h-3.438l3.573 3.454-2.46 2.163.36 2.282 1.953.844 2.47-1.974.133.106zm7.809 0-1.953-.844-.36-2.292 2.46-2.163-3.573-3.454h3.437l2.459 2.365 2.457-2.365h3.438l-3.573 3.454 2.46 2.163-.36 2.282-1.953.844-2.47-1.974-.134.106zm22.624 3.644-1.941 1.615 1.95 1.614v2.676l-2.997-2.471-2.152 1.95-2.31-.29-.812-1.5 1.985-1.97-1.986-1.98.811-1.5c.192-.023 2.135-.27 2.308-.29l2.152 1.95 3.001-2.47zm.009 10.625-1.95 1.615 1.95 1.613v2.677l-2.997-2.471-2.152 1.95c-.174-.022-2.117-.267-2.309-.29l-.813-1.5 1.985-1.98-1.986-1.98.811-1.5c.192-.023 2.135-.268 2.308-.29l2.152 1.95 3.001-2.47zm0 13.854-1.95-1.615 1.95-1.614v-2.676l-2.997 2.471-2.152-1.95-2.309.29-.813 1.5 1.985 1.98-1.986 1.98.811 1.5c.192.023 2.135.268 2.308.29l2.152-1.95 3.001 2.47zm-65.804-24.48 1.95 1.616-1.95 1.614v2.676l2.998-2.471 2.152 1.95 2.309-.29.813-1.5-1.984-1.97 1.986-1.98-.812-1.5c-.192-.023-2.136-.27-2.308-.29l-2.153 1.95-3-2.47zm0 10.626 1.95 1.615-1.95 1.613v2.677l2.998-2.471 2.152 1.95c.173-.022 2.117-.267 2.309-.29l.813-1.5-1.984-1.98 1.986-1.98-.812-1.5c-.192-.023-2.136-.268-2.308-.29l-2.153 1.95-3-2.47zm0 13.854 1.95-1.615-1.95-1.614v-2.676l2.998 2.47 2.152-1.95 2.309.29.813 1.5-1.984 1.98 1.986 1.98-.812 1.5-2.308.29-2.153-1.949-3 2.47z"/>
	</g>
	<path fill="#d22630" d="M167.32 253.761c-.116.097-10.602 8.876-11.07 9.27.945.783 1.86 1.602 2.807 2.383.24-.217 2.066-1.855 2.066-1.855l2.701.37 1.06 1.952-1.907 1.907c.259.257 1.906 1.906 1.906 1.906l-1.06 1.96-2.7.318s-1.826-1.584-2.066-1.8l-2.966 2.488v.848c1 .826 1.97 1.664 2.97 2.49a412.96 412.96 0 0 1 2.07-1.801l2.7.317 1.06 1.96-1.904 1.907c.259.257 1.906 1.907 1.906 1.907l-1.06 2.012-2.7.318s-1.827-1.636-2.067-1.854l-2.966 2.49v.9l2.967 2.49c.239-.217 2.065-1.854 2.065-1.854l2.7.369 1.06 1.959-1.906 1.906 1.906 1.907-1.06 1.96-2.7.37s-1.828-1.636-2.068-1.854c-.944.777-1.865 1.553-2.807 2.33l11.07 9.27h2.436l3.549-3.443-2.278-2.011.423-2.755 2.384-1.006 2.436 1.907 2.384-1.906 2.383 1.006.477 2.755-2.33 2.012 3.442 3.284 3.44-3.284-2.33-2.012.429-2.755 2.437-1.006 2.383 1.907 2.436-1.905 2.384 1.006.425 2.755-2.278 2.012 3.39 3.337 3.445-3.337-2.278-2.012.423-2.755 2.436-1.006 2.384 1.907 2.384-1.906 2.437 1.006.424 2.755-2.278 2.012 3.55 3.443h2.382c.116-.095 10.602-8.874 11.07-9.27-.943-.774-1.862-1.55-2.807-2.33-.24.219-2.014 1.855-2.014 1.855l-2.699-.37-1.113-1.96 1.906-1.907-1.906-1.907 1.112-1.96 2.7-.371c.002-.002 1.775 1.635 2.015 1.852l2.966-2.49v-.9l-2.966-2.49c-.24.218-2.013 1.854-2.013 1.854l-2.7-.318-1.112-2.013L215 278.38l-1.906-1.907 1.112-1.96 2.7-.317 2.015 1.8c.994-.818 1.974-1.62 2.966-2.435v-.953l-2.966-2.438c-.24.217-2.013 1.8-2.013 1.8l-2.7-.317-1.112-1.96 1.906-1.906-1.906-1.907 1.112-1.96 2.7-.37s1.775 1.637 2.015 1.853c.95-.782 1.91-1.548 2.86-2.33l-11.123-9.322h-2.385l-3.55 3.441 2.278 2.013-.422 2.755-2.437 1.06-2.383-1.907-2.383 1.907-2.435-1.059-.423-2.752 2.278-2.012-3.39-3.284-3.445 3.284 2.278 2.013-.423 2.757-2.384 1.06L189 261.12l-2.382 1.907-2.437-1.06-.42-2.754 2.33-2.01-3.442-3.285-3.443 3.284 2.33 2.013-.476 2.755-2.383 1.06-2.384-1.907-2.437 1.907-2.384-1.06-.425-2.754 2.277-2.012-3.602-3.442zm-11.229 23.57v2.171l1.271-1.112z"/>
	<path fill="#fff" d="m176.271 301.271-1.854 1.747h3.654zm12.712 0-1.8 1.747h3.654zm12.764 0-1.853 1.747h3.707zm-27.383-47.51 1.907 1.8 1.854-1.8zm12.765 0 1.844 1.8 1.908-1.8zm12.756 0 1.854 1.8 1.854-1.8zm21.98 12.976-1.27 1.06 1.27 1.006zm0 10.593-1.27 1.06 1.27 1.06zm0 10.646-1.27 1.06 1.27 1.06zm-65.783-21.29v2.17l1.27-1.06zm0 10.644v2.171l1.27-1.112zm0 10.594v2.171l1.27-1.06z"/>
	<g fill="#383739">
		<path d="M199.901 274.857v-3.791h-3.837v-4.157h-14.132v4.157h-3.837v3.791h-5.299v7.098h5.3v3.79h3.836v4.158h14.132v-4.157h3.837v-3.79h5.31v-7.099z"/>
		<path fill="#ffc72c" d="M188.783 267.338v4.285l-6.074 3.453v3.116h-9.485v-2.906h5.3v-3.791h3.836v-4.157zm.43 22.137v-4.285l6.073-3.453v-3.116h9.485v2.906h-5.299v3.791h-3.837v4.157z"/>
		<path fill="#fff" d="M195.286 278.192v-3.116l-6.074-3.453v-4.285h6.423v4.157h3.837v3.79h5.299v2.907zm-22.061.429h9.484v3.116l6.075 3.453v4.285h-6.423v-4.157h-3.837v-3.791h-5.3z"/>
		<path fill="#d22630" d="M183.138 278.621v2.888l5.645 3.21v-6.098z"/>
		<path fill="#00843d" d="m188.783 272.094-5.645 3.21v2.888h5.645z"/>
		<path fill="#d22630" d="M194.858 278.192v-2.888l-5.645-3.21v6.098z"/>
		<path fill="#00843d" d="m189.212 284.719 5.645-3.21v-2.888h-5.645z"/>
	</g>
	<path fill="#d22630" d="M137.647 353.73v11.717h-11.165v10.627h-11.317v30.259h11.317v10.627h11.165v11.717h40.598l7.14 4.29-3.432 2.06h-14.476l-1.248-1.408h13.119l-3.696-3.721h-18.767l8.503 8.851h17.598l6.011-3.612 6.012 3.612h17.59l8.501-8.851h-18.76l-3.697 3.721h13.12l-1.25 1.409H196.04l-3.43-2.061 7.14-4.29h40.598V416.96h11.166v-10.627h11.316v-30.26h-11.316v-10.626h-11.166V353.73H199.75l-7.14-4.29 3.43-2.06h14.477l1.25 1.407h-13.12l3.696 3.722h18.766l-8.502-8.852h-17.6l-6.01 3.612-6.012-3.612h-17.598l-8.503 8.852h18.767l3.705-3.722h-13.12l1.25-1.408h14.474l3.43 2.062-7.14 4.29z"/>
	<path fill="#ffc72c" d="M199.629 428.23h40.307v-11.706h11.123v-10.646h11.335v-29.396h-11.335v-10.593h-11.123v-11.706H199.63l-16.738-10.116h-17.32l-7.68 7.998h17.584l2.86-2.86h-13.082l2.013-2.278h14.83l18.962 11.44h34.64v11.706h11.176v10.646h11.335v20.975h-11.335v10.646h-11.176v11.706h-34.64l-18.973 11.387h-14.83l-2.012-2.224h13.083l-2.86-2.86h-17.58l7.68 7.998h17.319zm-22.722-4.184h-34.64V412.34h-11.123v-10.646h-11.335v-20.975h11.335v-10.646h11.123v-11.705h34.64l19.014-11.441H210.7l2.013 2.278h-13.03l2.86 2.86h17.585l-7.68-7.998h-17.32l-16.737 10.116h-40.307v11.706h-11.176v10.593h-11.335v29.396h11.335v10.647h11.176v11.705h40.307l16.737 10.117h17.32l7.68-7.998h-17.585l-2.86 2.86h13.03l-2.013 2.224h-14.777z"/>
	<path fill="none" d="m188.983 351.59-11.97 7.203H142.69V370.5h-11.123v10.646h-11.335v20.127h11.335v10.646h11.123v11.7h34.322l11.97 7.15 11.97-7.15h34.322v-11.7h11.176V401.27h11.335v-20.127H246.45V370.5h-11.176v-11.706h-34.322zm0 2.966 11.282 6.78h32.521v11.705h11.176v10.593h11.282v15.096h-11.282v10.646h-11.176v11.705h-32.521l-11.282 6.79-11.23-6.78h-32.52v-11.71h-11.176v-10.65h-11.334v-15.096h11.334v-10.593h11.176v-11.705h32.52z"/>
	<path fill="#00843d" d="M232.342 408.954v11.717h-32.2l-11.145 6.696-11.144-6.696h-32.2v-11.717h-11.166v-10.628H123.17V384.08h11.318v-10.627h11.166v-11.717h32.2l11.144-6.696 11.145 6.696h32.2v11.717h11.165v10.627h11.316v14.246h-11.316v10.628z"/>
	<g fill="#383739">
		<path d="M149.869 404.849v11.34h17.7l-17.7-11.74zm0-27.29v-11.341h17.7l-17.7 11.739zm78.258 27.29v11.33h-17.7l17.7-11.74zm0-27.301v-11.341h-17.7l17.7 11.741z"/>
		<path fill="#d22630" d="m150.298 405.248 15.85 10.513h-15.85Zm0-28.089c.616-.41 14.77-9.797 15.85-10.513h-15.85Zm77.4 28.089-15.85 10.513h15.85zm0-28.089-15.85-10.513h15.85z"/>
	</g>
	<g id="g" fill="#383739">
		<path d="M172.445 388.094v-5.791h-1.975l-9.477-5.925-.113.071-9.362 5.854h-1.976v5.79h-4.455v6.22h4.455v5.791h1.976l9.475 5.925 9.477-5.925h1.975v-5.79h6.782v-6.22z"/>
		<path fill="#d22630" d="m160.994 376.884 8.668 5.42h-17.335Zm8.667 23.22-8.667 5.42-8.666-5.42zm-2.099-11.58v5.362h-10.809v-5.363z"/>
		<path fill="#ffc72c" d="M172.017 394.313v5.363h-10.809v-5.363zm-11.237 0v5.363h-10.809v-5.363zm18.02-5.79v5.363h-10.81v-5.363zm-22.475 0v5.363h-10.809v-5.363zm15.692-5.79v5.36h-10.809v-5.361zm-11.237 0v5.36h-10.809v-5.361z"/>
		<path d="M153.349 389.714v2.98h-4.855v-2.98zm4.455-5.79v2.98h-4.855v-2.98zm11.236 0v2.98h-4.855v-2.98zm-4.455 5.79v2.98h-4.855v-2.98zm11.237 0v2.98h-4.855v-2.98zm-6.782 5.79v2.98h-4.855v-2.979zm-11.236 0v2.98h-4.855v-2.979z"/>
		<path fill="#fff" d="M152.891 390.171h-3.94v2.065h3.94zm4.455-5.79h-3.94v2.064h3.94zm11.237 0h-3.94v2.064h3.94zm-4.455 5.79h-3.94v2.065h3.94zm11.237 0h-3.94v2.065h3.94zm-6.782 5.79h-3.94v2.066h3.94zm-11.237 0h-3.94v2.066h3.94z"/>
	</g>
	<use xlink:href="#g" width="100%" height="100%" fill="#383739" transform="matrix(-1 0 0 1 377.995 0)"/>
	<g id="h" fill="#383739">
		<path d="M200.449 378.42v5.79h-1.975l-9.477 5.926-.113-.071-9.362-5.854h-1.976v-5.79h-5.618v-6.22h5.618v-5.79h1.976l9.475-5.92 9.477 5.928h1.975v5.79h5.618v6.22z"/>
		<path fill="#ffc72c" d="m188.998 389.63 8.668-5.42H180.33Zm8.667-23.22-8.667-5.42-8.666 5.42z"/>
		<path fill="#d22630" d="M200.021 372.2v-5.362h-10.809v5.362Zm-11.237 0v-5.362h-10.809v5.362Zm16.855 5.79v-5.362H194.83v5.363zm-11.237 0v-5.362h-10.809v5.363zm-11.237 0v-5.362h-10.808v5.363zm16.856 5.792v-5.363h-10.809v5.363zm-11.237 0v-5.363h-10.809v5.363z"/>
		<path d="M185.807 368.029v2.98h-4.855v-2.98Zm11.237 0v2.98h-4.855v-2.98Zm-16.856 5.79v2.98h-4.855v-2.98Zm11.238 0v2.98h-4.855v-2.98Zm11.237 0v2.98h-4.855v-2.98Zm-16.856 5.792v2.98h-4.855v-2.98zm11.237 0v2.98h-4.855v-2.98z"/>
		<path fill="#fff" d="M185.35 368.486h-3.94v2.065h3.94zm11.237 0h-3.94v2.065h3.94zm-16.856 5.79h-3.94v2.066h3.94zm11.238 0h-3.94v2.066h3.94zm11.236 0h-3.94v2.066h3.94zm-16.855 5.792h-3.94v2.065h3.94zm11.237 0h-3.94v2.065h3.94z"/>
	</g>
	<use xlink:href="#h" width="100%" height="100%" y="31.788" fill="#383739"/>
	<path fill="#383739" d="m127.676 479.354 42.052-22.631h38.539l42.051 22.63v37.29l-42.051 22.632h-38.54l-42.051-22.63Z"/>
	<path fill="#00843d" d="m169.863 457.151-41.738 22.458v36.75l41.738 22.455h38.293l41.74-22.458v-36.75l-41.74-22.46zm.74 3.019h36.812l39.514 21.239v33.21l-39.514 21.239h-36.834l-39.512-21.24v-33.21z"/>
	<path fill="#ffc72c" d="M189.212 497.784v37.64h18.095l39.183-21.087v-16.124h-57.706v-37.64h-18.095l-39.184 21.086v16.125z"/>
	<path fill="#fff" d="M188.783 497.784v37.64h-18.095l-39.183-21.087v-16.124h57.706v-37.64h18.096l39.183 21.086v16.125z"/>
	<path fill="#383739" d="M192.514 533.317v-10.88l-3.517 2.232-3.518-2.231v10.88h-10.942l7.383-5.415v-7.723l-11.26-7.144h-7.867v-30.073h7.868l11.26-7.144v-7.723l-7.384-5.414h10.942v10.88l3.518-2.232 3.517 2.232v-10.88h10.942l-7.383 5.414v7.723l11.26 7.144h7.867v30.073h-7.868l-11.26 7.144v7.723l7.384 5.414z"/>
	<path fill="#ffc72c" d="M192.956 463.135v11.229l-3.761-2.383v3.178l17.214 10.962h5.667v11.655h2.702v-14.407h-7.575l-11.545-7.31v-8.16l6.513-4.765h-9.215zm-29.714 35.064v14.407h7.52l11.6 7.361v8.158l-6.514 4.766h9.216v-11.229l3.707 2.385v-3.285l-17.213-10.857h-5.615v-11.706h-2.701z"/>
	<path fill="#fff" d="m175.847 463.135 6.515 4.766v8.158l-11.6 7.31h-7.52v14.407h2.7V486.12h5.615l17.214-10.91v-3.23l-3.707 2.384v-11.229h-9.217zm36.229 35.064v11.705h-5.668l-17.214 10.858v3.285l3.761-2.385v11.229h9.216l-6.514-4.766v-8.158l11.546-7.36h7.574v-14.408h-2.7z"/>
	<path fill="#d22630" d="M166.352 509.458h5.338l17.307 10.98 17.307-10.98h5.338v-22.916h-5.338l-17.307-10.98-17.307 10.98h-5.338z"/>
	<path fill="#383739" d="M200.977 503.445h3.695v-1.748h-2.78v-3.179h5.942v8.106h-5.696v5.53h-11.724v-7.946h5.16v3.178h-1.999v1.59h5.402v-3.04l-21.961-13.382h-3.695v1.748h2.78v3.178h-5.942v-8.104h5.696v-5.53h11.724v7.945h-5.16v-3.178h1.999v-1.59h-5.402v3.039zm-2-13.383v-3.038h-5.402v1.59h2v3.177h-5.16v-7.945h11.724v5.53h5.695v8.104h-5.941v-3.178h2.78v-1.748h-3.696l-21.96 13.383v3.038h5.4v-1.59h-1.998v-3.177h5.16v7.945h-11.724v-5.53h-5.696v-8.105h5.942v3.18h-2.78v1.747h3.695z"/>
	<path fill="#fff" d="M199.406 505.697v3.707h-6.26v-2.446h2v-2.321h-4.303v7.088h10.867v-5.53h5.696v-7.247h-5.085v2.32h2.78v2.606h-4.244l-22.27-13.571v-3.707h6.26v2.446h-2v2.321h4.304v-7.088h-10.867v5.53h-5.695v7.247h5.083v-2.321h-2.78v-2.605h4.244zm1.451-13.571h4.245v2.605h-2.78v2.321h5.084v-7.248h-5.695v-5.53h-10.868v7.09h4.303v-2.322h-1.999v-2.446h6.26v3.707l-22.27 13.57h-4.244v-2.605h2.78v-2.32h-5.084v7.247h5.695v5.53h10.867v-7.09h-4.3v2.323h2v2.445h-6.26v-3.707z"/>
	<path fill="#383739" d="M238.042 499.884v11.762h-5.005v-4.154h-5.046v4.154h-5.005v-11.762h5.005v4.154h5.057v-4.154zm-17.91 15.615v11.762h-5.005v-4.154h-5.046v4.154h-5.005v-11.762h5.005v4.154h5.046V515.5zm17.91-19.386v-11.762h-5.005v4.154h-5.046v-4.154h-5.005v11.762h5.005v-4.154h5.057v4.154zm-98.089 3.771v11.762h5.005v-4.154h5.046v4.154h5.005v-11.762h-5.005v4.154h-5.046v-4.154zm0-3.771v-11.762h5.005v4.154h5.046v-4.154h5.005v11.762h-5.005v-4.154h-5.046v4.154zm80.179-15.614v-11.762h-5.005v4.154h-5.046v-4.154h-5.005V480.5h5.005v-4.154h5.046v4.154zm-62.268 35v11.762h5.005v-4.154h5.046v4.154h5.005v-11.762h-5.005v4.154h-5.046V515.5zm0-35v-11.762h5.005v4.154h5.046v-4.154h5.005V480.5h-5.005v-4.154h-5.046v4.154zm65.254-8.243v8.932h16.597zm-68.24 51.486v-8.932H138.28zm0-51.486v8.932H138.28zm68.24 51.486v-8.932h16.597z"/>
	<path fill="#d22630" d="M233.465 507.064v4.154h4.148v-10.905h-4.148v4.154h-5.903v-4.154h-4.148v10.905h4.148v-4.154zm-17.91 15.614v4.154h4.148v-10.905h-4.148v4.154h-5.903v-4.154h-4.148v10.905h4.148v-4.154zm17.91-33.744v-4.154h4.148v10.905h-4.148v-4.155h-5.903v4.155h-4.148V484.78h4.148v4.154zm-88.935 18.13v4.154h-4.148v-10.905h4.148v4.154h5.903v-4.154h4.148v10.905h-4.148v-4.154zm0-18.13v-4.154h-4.148v10.905h4.148v-4.155h5.903v4.155h4.148V484.78h-4.148v4.154zm71.025-15.614v-4.154h4.148v10.905h-4.148v-4.15h-5.903v4.16h-4.148v-10.91h4.148v4.154zm-53.115 49.358v4.154h-4.148v-10.905h4.148v4.154h5.903v-4.154h4.148v10.905h-4.14v-4.154zm0-49.358v-4.154h-4.148v10.905h4.148v-4.15h5.903v4.16h4.148v-10.91h-4.14v4.154z"/>
	<path fill="#ffc72c" d="M223.57 472.986v7.786h14.461zm-83.58 42.268 14.46 7.786v-7.786h-14.46z"/>
	<path fill="#fff" d="m154.449 472.986-14.46 7.786h14.46zm69.12 42.268v7.786l14.46-7.786z"/>
	<path fill="#ffc72c" d="M256.896 530.824c-.799 3.407-3.508 5.979-4.153 9.513-1.293-3.685-2.484-6.773-1.595-10.804.637-2.883 3.062-4.94 3.343-7.902 2.655 2.377 3.225 5.749 2.416 9.193zm.67 14.276c-2.242 3.075-5.36 5.434-8.803 7.007.678-2.694-.594-4.722-2.005-6.86-1.7-2.574-2.53-5.103-1.144-8.067.646 1.54 1.514 2.82 2.533 4.139 1.507 2.055 2.497 3.883 2.73 6.52 1.742-1.292 2.508-3.22 3.44-5.086 1.42-2.673 3.712-4.908 6.344-6.37-.7 2.999-1.238 6.17-3.094 8.717zm-12.578 9.166c.48 1.708.893 3.4.8 5.186 1.483-1.597 3.45-2.799 5.206-4.085 2.391-1.934 5.178-3.298 7.133-5.76-.292 3.624-1.843 6.578-4.787 8.783-3.113 2.33-6.867 3.583-9.933 6.03.459-3.297-.752-5.937-1.785-8.967-.86-2.895-.027-5.834 1.936-8.04-.03 2.445.742 4.545 1.43 6.853zm-6.986 11.133c-.645 2.5-2.436 4.534-3.66 6.764 3.3-1.023 6.21-2.812 9.192-4.495 3.552-1.934 7.41-3.165 10.624-5.72-1.6 5.925-5.566 9.36-11.368 11.111-3.967 1.198-7.31.6-12.124 2.546.552-3.259 1.524-6.776 3.065-9.714 1.196-2.125 2.522-4.221 3.26-6.562 1.081 1.923 1.588 3.879 1.022 6.07zm-12.138 9.065a15.21 15.21 0 0 1-4.495 4.875c4.683.299 8.452-2.67 13.017-2.798 2.82-.08 5.497.796 8.373.533-3.413 2.303-6.986 4.314-11.14 4.851-5.402.7-10.383-.66-16.342-.129 2.785-1.965 4.178-4.595 5.914-7.423 2.271-3.533 4.404-6.05 8.8-6.618-1.765 1.983-2.79 4.44-4.117 6.71zm-16.632 7.773c8.25 1.403 16.156 3.218 24.582 3.3-9.432 3.289-18.318 3.884-27.672.489-5.055-1.835-8.93-2.817-12.75-2.544-5.578.401-12.36 2.603-19.863 10.517l-2.95-2.36c10.756-9.583 24.828-11.753 38.653-9.403z"/>
</svg>
