<svg xmlns="http://www.w3.org/2000/svg" viewBox="0 0 138000 92000">
	<path fill="#fff" d="M0 0h138000v92000H0z"/>
	<path d="M0 0h138000l-9000 46000H9000z"/>
	<path fill="#fcd116" d="M69000 46000L39000 36000l15288-2926-13004-8555 15244 3147-8741-12880 12879 8742-3147-15244 8555 13004L69000 6000l2926 15288 8555-13004-3147 15244 12879-8741-8740 12879 15243-3147-13004 8553L99000 36000z"/>
	<path fill="#0072c6" d="M9000 36000h120000v20000H9000z"/>
	<path fill="#ce1126" d="M0 0l69000 92000 69000-92000v92000H0z"/>
</svg>