<svg xmlns="http://www.w3.org/2000/svg" viewBox="-6000000 -3000000 12000000 6000000">
	<path fill="blue" d="M-3181981 287013l2121321-811795v692910l-2121320 811794Z"/>
	<path fill="yellow" d="M-3181981-1098807l2121321-811794v1385819l-2121320 811795Z"/>
	<path fill="blue" d="M-3181981-1791716l2121321-811795v692910l-2121321 811794Zm6363962 2890523L-1060660-524783v692910l4242640 1623589Z"/>
	<path fill="yellow" d="M3181981-287013L-1060660-1910600v1385818l4242640 1623589Z"/>
	<path fill="blue" d="M-1060660 168128l4242640 1623588-2121320 811795-4242640-1623589Zm4242640-1148050l-4242640-1623589v692910L3181980-287013Z"/>
	<path fill="blue" d="M-3181981 287013L1060660 1910600l2121321-811793-4242638-1623590Z"/>
	<path fill="yellow" d="M-1060660-524782l4242640 1623589L1060661 1910600-3181980 287013Z"/>
	<path fill="blue" d="M-1060660-1910601L3181980-287013 1060660 524782l-4242640-1623589Z"/>
	<path fill="yellow" d="M-3181981-1098807L1060660 524782l2121321-811795-4242638-1623588Z"/>
	<path fill="blue" d="M-3181981 287013L1060660 1910600v692911L-3181980 979922Zm0-2078729L1060660-168128l2121321-811794-4242638-1623589Z"/>
	<path fill="yellow" d="M-3181981-1098807L1060660 524782V1910600L-3181980 287013Z"/>
	<path fill="blue" d="M-3181981-1791716L1060660-168128v692910l-4242640-1623589Zm6363962 2890523L1060660 1910601v692910l2121321-811795Z"/>
	<path fill="yellow" d="M3181981-287013L1060660 524782v1385819l2121321-811794Z"/>
	<path fill="blue" d="M3181981-979922L1060660-168128v692910l2121320-811795Z"/>
</svg>