<svg xmlns="http://www.w3.org/2000/svg" xmlns:xlink="http://www.w3.org/1999/xlink" viewBox="0 0 1000 500">
	<path fill="#1eb53a" d="M0 0h1000v500H0z" stroke-width="1"/>
	<path fill="#0099b5" d="M0 0h1000v250H0z" stroke-width="1"/>
	<path fill="#ce1126" d="M0 160h1000v180H0z" stroke-width="1"/>
	<path fill="#fff" d="M0 170h1000v160H0z" stroke-width="1"/>
	<circle cx="140" cy="80" r="60" fill="#fff" stroke-width="1"/>
	<circle cx="160" cy="80" r="60" fill="#0099b5" stroke-width="1"/>
	<g fill="#fff" transform="matrix(2, 0, 0, 2, 272, 128)" stroke-width="1">
		<g id="e" stroke-width="1">
			<g id="d" stroke-width="1">
				<g id="c" stroke-width="1">
					<g id="b" stroke-width="1">
						<path id="a" d="M0-6v6h3" transform="rotate(18, 0, -6)" stroke-width="1"/>
						<use xlink:href="#a" width="100%" height="100%" transform="scale(-1, 1)" stroke-width="1"/>
					</g>
					<use xlink:href="#b" width="100%" height="100%" transform="rotate(72)" stroke-width="1"/>
				</g>
				<use xlink:href="#b" width="100%" height="100%" transform="rotate(-72)" stroke-width="1"/>
				<use xlink:href="#c" width="100%" height="100%" transform="rotate(144)" stroke-width="1"/>
			</g>
			<use xlink:href="#d" width="100%" height="100%" y="-24" stroke-width="1"/>
			<use xlink:href="#d" width="100%" height="100%" y="-48" stroke-width="1"/>
		</g>
		<use xlink:href="#e" width="100%" height="100%" x="24" stroke-width="1"/>
		<use xlink:href="#e" width="100%" height="100%" x="48" stroke-width="1"/>
		<use xlink:href="#d" width="100%" height="100%" x="-48" stroke-width="1"/>
		<use xlink:href="#d" width="100%" height="100%" x="-24" stroke-width="1"/>
		<use xlink:href="#d" width="100%" height="100%" x="-24" y="-24" stroke-width="1"/>
	</g>
</svg>