<svg xmlns="http://www.w3.org/2000/svg" viewBox="-10 -10 755 550">
	<path d="M-100 0h800v400h-800z" style="fill:#fff;stroke:#ff0;stroke-width:27" stroke-width="1"/>
	<path d="M93 88l40 190H93l40-40-40-40V48v40z m23-10l40 200h-40l40-40-40-40V38v40z m24-3l40 197h-40l40-40-40-40V35v40z m35-5l40 197h-40l40-40-40-40V30v40z m25 0l40 197h-40l40-40-40-40V30v40z m30 0l40 197h-40l40-40-40-40V30v40z m20 0l40 197h-40l40-40-40-40V30v40z m20-5l40 197h-40l40-40-40-40V25v40z m20 0l40 197h-40l40-40-40-40V25v40z m25 0l40 197h-40l40-40-40-40V25v40z m35 0l40 197h-40l40-40-40-40V25v40z m30 0l40 197h-40l40-40-40-40V25v40z m35 0l40 197h-40l40-40-40-40V25v40z m28 0l40 197h-40l40-40-40-40V25v40z m37 0l40 197h-40l40-40-40-40V25v35z m27-5l40 202h-40l40-40-40-40V20v40z m36 0l40 202h-40l40-40-40-40V20v40z m27 0l40 202h-40l40-40-40-40V20v40z m20 0l40 202h-40l40-40-40-40V20v40z m35 0l40 202h-40l40-40-40-40V20v40z m20 0l40 202h-40l40-40-40-40V20v40z m25 0l40 202h-40l40-40-40-40V20v40z m25 0l40 202h-40l40-40-40-40V20v40z m35-5l40 204h-40l40-40-40-40V15v40zM-100 0h40v400h-40z" style="fill:#00f;stroke:#ff0;stroke-width:4" stroke-width="1"/>
	<path d="M715 0h40v400h-40z" style="fill:#00f;stroke:#ff0;stroke-width:27" stroke-width="1"/>
</svg>