<svg xmlns="http://www.w3.org/2000/svg" xmlns:xlink="http://www.w3.org/1999/xlink" fill="#046a38" stroke="#000" stroke-width="70" viewBox="-72000 -36000 144000 72000">
	<g stroke="none" transform="scale(300)" stroke-width="10">
		<path d="M-240-120h480v240h-480z" stroke-width="10"/>
		<path fill="#ffcd00" d="M-240-30h480v30h-480z m210-90h30v240h-30z" stroke-width="10"/>
		<path fill="#fff" d="M-240 0h480v30h-480zM0-120h30v240H0z" stroke-width="10"/>
		<path fill="#000" d="M-240-10h480v20h-480z m230-110h20v240h-20z" stroke-width="10"/>
		<circle r="60" fill="#d50032" stroke-width="10"/>
	</g>
	<g id="c" stroke-width="10">
		<g id="b" stroke-width="10">
			<path id="a" stroke-width="120" d="M0-16006l563 1732h1820L910-13204l563 1731L0-12543l-1473 1070 563-1731-1473-1070h1820z"/>
			<use xlink:href="#a" transform="rotate(36)" stroke-width="10"/>
		</g>
		<use xlink:href="#a" transform="rotate(72)" stroke-width="10"/>
		<use xlink:href="#b" transform="rotate(108)" stroke-width="10"/>
	</g>
	<use xlink:href="#c" transform="scale(-1)" stroke-width="10"/>
	<g transform="rotate(86)" stroke-width="10">
		<ellipse cx="4920" cy="-2130" rx="5300" ry="1080" stroke-width="10"/>
		<ellipse cx="4980" cy="-3180" rx="5300" ry="1140" stroke-width="10"/>
		<ellipse cx="5230" cy="-2670" rx="5860" ry="910" stroke-width="10"/>
	</g>
	<path fill="#9c4a00" d="M4390 8680c-1610 170-8650 250-8950 30s-750-1150-750-1200c920-40 520-530 990-790 460-270 1120-90 1320 230 200 330 40 650 290 660 260 0 5260-240 7100-110 300 20 530 290 530 590s-230 560-530 590z" stroke-width="10"/>
	<path id="d" fill="#ffcd00" d="M-410 8180c-10 700 1010 500 1030 1080-30 610-1720 40-1740-1090 70-1120 1720-1670 1740-1030 20 530-1010 350-1030 1040z" stroke-width="10"/>
	<use xlink:href="#d" x="600" stroke-width="10"/>
	<use xlink:href="#d" x="1250" stroke-width="10"/>
	<use xlink:href="#d" x="1860" stroke-width="10"/>
	<g transform="scale(0.85, 1.8)" stroke-width="10">
		<g transform="rotate(48.1)" stroke-width="10">
			<ellipse cx="3170" cy="1540" rx="680" ry="580" stroke-width="10"/>
			<ellipse cx="2450" cy="2290" rx="680" ry="580" stroke-width="10"/>
			<ellipse cx="1480" cy="2420" rx="680" ry="580" stroke-width="10"/>
		</g>
		<ellipse cx="2510" cy="1000" rx="730" ry="570" transform="rotate(63.2)" stroke-width="10"/>
		<g transform="rotate(57.7)" stroke-width="10">
			<ellipse cx="1750" cy="1240" rx="690" ry="570" stroke-width="10"/>
			<ellipse cx="1090" cy="1920" rx="690" ry="570" stroke-width="10"/>
		</g>
	</g>
	<path fill="#9063cd" d="M-1770-6320S-3530-4800-3330-670c220 4160 3890 6110 3890 6110h580V-6320z" stroke-width="10"/>
	<g transform="scale(0.85, 1.8)" stroke-width="10">
		<g transform="rotate(40.6)" stroke-width="10">
			<ellipse cx="4210" cy="950" rx="580" ry="680" stroke-width="10"/>
			<ellipse cx="3370" cy="1510" rx="580" ry="680" stroke-width="10"/>
			<ellipse cx="2550" cy="1320" rx="580" ry="680" stroke-width="10"/>
		</g>
		<ellipse cx="3050" cy="1610" rx="580" ry="730" transform="rotate(24.1)" stroke-width="10"/>
		<g transform="rotate(29.9)" stroke-width="10">
			<ellipse cx="4500" cy="700" rx="570" ry="690" stroke-width="10"/>
			<ellipse cx="3750" cy="790" rx="570" ry="690" stroke-width="10"/>
			<ellipse cx="2790" cy="870" rx="570" ry="690" stroke-width="10"/>
			<ellipse cx="1920" cy="1060" rx="570" ry="690" stroke-width="10"/>
		</g>
	</g>
	<ellipse cx="1490" cy="-1490" fill="#d50032" stroke-width="40" rx="4560" ry="1480" transform="rotate(66.5)"/>
	<g transform="scale(1.25, 0.85)" stroke-width="10">
		<ellipse cx="560" cy="-5790" rx="490" ry="630" stroke-width="10"/>
		<ellipse cx="500" cy="-6580" rx="490" ry="630" stroke-width="10"/>
		<ellipse cx="-180" cy="-5630" rx="460" ry="670" stroke-width="10"/>
		<ellipse cx="-40" cy="-6490" rx="460" ry="660" stroke-width="10"/>
		<ellipse cx="-800" cy="-6470" rx="520" ry="670" stroke-width="10"/>
		<ellipse cx="150" cy="-7580" rx="490" ry="630" stroke-width="10"/>
		<ellipse cx="-500" cy="-7460" rx="460" ry="660" stroke-width="10"/>
		<ellipse cx="-1480" cy="-6430" rx="460" ry="670" stroke-width="10"/>
		<ellipse cx="-1320" cy="-6930" rx="460" ry="660" stroke-width="10"/>
		<ellipse cx="-1130" cy="-7490" rx="460" ry="660" stroke-width="10"/>
	</g>
	<g transform="rotate(66.2)" stroke-width="10">
		<ellipse cx="1030" cy="-2160" rx="5430" ry="1880" stroke-width="10"/>
		<ellipse cx="2450" cy="-3230" rx="1140" ry="360" stroke-width="10"/>
	</g>
	<path d="M3780 940c1530 1870 1340 3060 1180 4060L2790 2670V330z" stroke-width="10"/>
	<path d="M3910 2450c1540 1870 1350 3060 1190 4060L2150 1940v-3070c230 600 230 1710 1760 3580z" stroke-width="10"/>
	<path d="M3960 3670c1570 1830 1400 3030 1260 4040-500-1150-780-1880-2360-3720-1570-1840-830-3170-740-3860 250 590 270 1700 1840 3540z" stroke-width="10"/>
	<ellipse cx="460" cy="-2950" rx="2020" ry="660" transform="rotate(65)" stroke-width="10"/>
	<ellipse cx="1120" cy="-1970" rx="1660" ry="580" transform="rotate(65.7)" stroke-width="10"/>
	<ellipse cx="1450" cy="-1040" rx="1660" ry="580" transform="rotate(66.8)" stroke-width="10"/>
	<ellipse cx="-450" cy="-2650" rx="1270" ry="460" transform="rotate(62)" stroke-width="10"/>
	<ellipse cx="-440" cy="-1860" rx="1270" ry="460" transform="rotate(65.6)" stroke-width="10"/>
	<g stroke-linecap="round" stroke-width="10">
		<path fill="none" d="M4390 7500a590 590 0 1 0 0 1180" stroke-width="10"/>
		<path d="M210-1460a2170 460 68 1 0 820-430" stroke-width="10"/>
		<ellipse cx="-1660" cy="-2330" rx="1270" ry="460" transform="rotate(65.6)" stroke-width="10"/>
		<ellipse cx="-1670" cy="-1450" rx="1270" ry="460" transform="rotate(66.8)" stroke-width="10"/>
		<path d="M-300-2990a1550 330 59.7 1 0 540-410" stroke-width="10"/>
		<path d="M10-3490a1400 32 59.8 1 0 650-210m510 470a2140 460 59.3 1 0 750-560" stroke-width="10"/>
		<path d="M480-3880a1610 34 62.4 1 0 530-450" stroke-width="10"/>
	</g>
	<g fill="#9063cd" stroke-width="10">
		<path id="e" d="M970-5530c-290 300 10 840 270 1060 310 260 2010 2070 3210 560-960-20-2760-2280-3480-1620z" stroke-width="10"/>
		<use xlink:href="#e" x="-210" y="-890" stroke-width="10"/>
		<use xlink:href="#e" x="-480" y="-1740" stroke-width="10"/>
		<use xlink:href="#e" x="-1070" y="-2710" stroke-width="10"/>
		<path d="M-2190-9170c610-460 1730-590 2600-150 730 360 1940 1810 2850 2160-640 110-1030 10-1440-180-810 580-1100 670-1920 790-1150 160-2100-140-2440-730-340-570-190-1470 350-1890z" stroke-width="10"/>
	</g>
	<g transform="scale(1.4, 0.7)" stroke-width="10">
		<ellipse cx="-640" cy="-11810" fill="#d50032" rx="380" ry="440" stroke-width="10"/>
		<ellipse cx="-660" cy="-11840" fill="#000" stroke="none" rx="130" ry="230" stroke-width="10"/>
	</g>
	<g fill="#ffcd00" stroke-width="10">
		<ellipse cx="-7470" cy="-110" rx="450" ry="730" transform="rotate(69.6)" stroke-width="10"/>
		<path d="M-2060-7860c50 230-120 550-500 660-380 160-670 520-840 1110-580-1340-210-1910 410-2050 530-170 850-150 930 280z" stroke-width="10"/>
	</g>
	<circle cx="-2620" cy="-7560" r="130" fill="#000" stroke="none" stroke-width="10"/>
</svg>