<svg xmlns="http://www.w3.org/2000/svg" viewBox="0 0 1200000 600000">
	<clipPath id="a">
		<path d="M0 0h650000v350000H0z" stroke-width="1000"/>
	</clipPath>
	<clipPath id="b">
		<path d="M0 0v150000h650000v150000h-50000z m0 300000v50000h300000V0h300000z" stroke-width="1000"/>
	</clipPath>
	<rect width="1200000" height="600000" fill="#012169" stroke-width="1000"/>
	<path stroke="#fff" stroke-width="60000" d="M0 0l600000 300000m0-300000L0 300000" clip-path="url(#a)"/>
	<path stroke="#c8102e" stroke-width="40000" d="M0 0l600000 300000m0-300000L0 300000" clip-path="url(#b)"/>
	<path stroke="#fff" stroke-width="100000" d="M0 150000h650000M300000 0v350000"/>
	<path stroke="#c8102e" stroke-width="60000" d="M0 150000h650000M300000 0v350000"/>
	<path fill="#009cde" d="M0 300000h600000V0h600000v600000H0z" stroke-width="1000"/>
	<path fill="#fedd00" d="M645340 490913l29436 90597-77066-55992h95260l-77067 55993zM817462 464000l-29436 90597L758589 464000l77066 55992h-95260z m0-121984l-29436 90597-29437-90597 77066 55992-95260 1z m126005 91152l-29437 90597-29436-90597 77066 55992H866400z m0-265413l-29437 90597-29436-90597 77066 55992H866400z m52975 172210l29436 90597-77066-55992h95260l-77067 55993z m52923-208404l-29437 90601-29437-90598 77067 55994-95260 1z m53471 139916l29437 90597-77067-55990h95260l-77067 55993z m0-234069l29437 90597-77067-55992h95260l-77067 55993z" stroke-width="1000"/>
</svg>