<svg xmlns="http://www.w3.org/2000/svg" xmlns:xlink="http://www.w3.org/1999/xlink" width="12000" height="6000" viewBox="0 0 96000 48000">
	<defs>
		<clipPath id="a">
			<path d="M0 0h120v60H0z"/>
		</clipPath>
		<clipPath id="b">
			<path d="M0 0v15h80V40z m60 0H30v40h-50z"/>
		</clipPath>
	</defs>
	<g fill="#012169" stroke-width="6" clip-path="url(#a)" transform="scale(800)">
		<path d="M0 0h120v60H0z"/>
		<path stroke="#fff" d="M0 0l60 30M0 30l60-30" stroke-width="10"/>
		<path stroke="#c8102e" stroke-width="4" d="M0 0l60 30M0 30l60-30" clip-path="url(#b)"/>
		<path stroke="#fff" stroke-width="10" d="M30 0v40M0 15h70"/>
		<path stroke="#c8102e" d="M30 0v40M0 15h70" stroke-width="10"/>
		<path d="M0 30h60V0h60v60H0z"/>
	</g>
	<g transform="translate(72000, 24000)">
		<g id="d">
			<path id="c" fill="#fff" d="M0-19920l810 2490h2610l-2110 1530 810 2490L0-14940l-2120 1530 810-2490-2110-1530h2610z"/>
			<use xlink:href="#c" transform="rotate(24)"/>
			<use xlink:href="#c" transform="rotate(48)"/>
		</g>
		<use xlink:href="#d" transform="rotate(72)"/>
		<use xlink:href="#d" transform="rotate(144)"/>
		<use xlink:href="#d" transform="rotate(216)"/>
		<use xlink:href="#d" transform="rotate(288)"/>
	</g>
</svg>