<svg xmlns="http://www.w3.org/2000/svg" viewBox="0 0 50 100">
		<rect width="50" height="25" fill="#fff" />
		<rect width="50" height="25" y="25" fill="#002f6c" />
		<rect width="50" height="25" y="50" fill="#c6171f" />
		<line x1="20" y1="25" x2="30" y2="25" stroke="#c6171f" stroke-width="2" />
		<path fill="#002f6c" stroke="#fff" stroke-width="1.5"
			d="M20,30.5a5,5 0 0 1 10,0h-5A5,5 0 0 1 20,35a5,5 0 0 1-5-5Z" />
		<path fill="#c6171f" stroke="#fff" stroke-width="1"
			d="M25,28.5c-0.001,0.07 0.1246765,0.2047311 0.25,0.1842712S25.07431,28.5016413 25,28.5Zm4,4.1118164C27.2355908,31.9735077 27.3058911,32.0056799 27.4116547,32a2.1084826,2.1084826 0 0 0 2.1764706-1.7647059h-0.3529412C29.2142252,31.0755138 29.167581,31.0137393 29.1136893,31.0006192Z"
			transform="translate(-0.4170318 0.1482455)" />
		<path fill="#fff" stroke="#c6171f" stroke-width="2.13338558"
			d="M21.5,39a1.5,1.5 0 0 1 3,0h-3Z" /></svg>