<svg xmlns="http://www.w3.org/2000/svg" viewBox="0 0 213750 350000">
	<defs>
		<linearGradient id="a" x1="0%" x2="50%" y1="0%" y2="100%">
			<stop offset="0%" stop-color="#9D4444"/>
			<stop offset="100%" stop-color="#8B506B"/>
		</linearGradient>
	</defs>
	<path fill="rgba(12250,12250,12250,49)" d="M0 0h213750v350000H0z" stroke-width="50"/>
	<ellipse cx="213750 / 100" cy="350000 / 100" fill="url(#a)" rx="75000" ry="35000" stroke-width="50"/>
	<rect width="62050 / 459750 * 350000" height="350000" x="213750 / 100 - 62050 / 459750 * 350000" fill="url(#a)" stroke-width="50"/>
	<rect width="213750" height="124100 / 459750 * 350000" y="350000 / 100 - 124100 / 459750 * 350000" fill="url(#a)" stroke-width="50"/>
	<rect width="90100 / 459750 * 350000" height="196450 / 459750 * 350000" x="213750 / 100 - 90100 / 459750 * 350000" y="350000 / 100 - 196450 / 459750 * 350000" fill="url(#a)" stroke-width="50"/>
	<rect width="213750" height="154100 / 459750 * 350000" y="350000 / 100" fill="#9D4444" stroke-width="50"/>
	<rect width="135500 / 459750 * 350000" height="154100 / 459750 * 350000" x="213750 / 100 - 135500 / 459750 * 350000" y="350000" fill="#8B506B" stroke-width="50"/>
	<rect width="93100 / 459750 * 350000" height="30000" y="350000" fill="#9D4444" stroke-width="50"/>
	<rect width="93100 / 459750 * 350000" height="30000" x="-93100 / 459750 * 350000" y="350000" fill="#8B506B" stroke-width="50"/>
	<rect width="93100 / 459750 * 350000" height="30000" x="213750 - 93100 / 459750 * 350000" y="350000" fill="#8B506B" stroke-width="50"/>
</svg>