<svg xmlns="http://www.w3.org/2000/svg" viewBox="0 0 1024 768" style="fill: ##fff; width: 100%; height: 100%;">
		<path d="M 0 100 L 1024 400 L 0 700 Z" style="fill: ##969696; stroke: ##000; stroke-width: 20;"/>
		<ellipse cx="512" cy="340" rx="103" ry="103" style="fill: #fff;"/>
		<ellipse cx="512" cy="420" rx="64" ry="58" style="fill: #fff;"/>
		<ellipse cx="512" cy="500" rx="103" ry="103" style="fill: #fff;"/>
		<ellipse cx="512" cy="260" rx="64" ry="58" style="fill: ##fff;"/>
		<ellipse cx="512" cy="360" rx="8" ry="7" style="fill: #ffcd00;"/>
		<ellipse cx="512" cy="360" rx="3" ry="2" style="fill: #000;"/>
		<ellipse cx="512" cy="440" rx="8" ry="7" style="fill: #ffcd00;"/>
		<ellipse cx="512" cy="440" rx="3" ry="2" style="fill: #000;"/>
		<ellipse cx="512" cy="520" rx="8" ry="7" style="fill: #ffcd00;"/>
		<ellipse cx="512" cy="520" rx="3" ry="2" style="fill: #000;"/>
		<ellipse cx="512" cy="300" rx="8" ry="7" style="fill: #ffcd00;"/>
		<ellipse cx="512" cy="300" rx="3" ry="2" style="fill: #000;"/>
		<ellipse cx="512" cy="380" rx="8" ry="7" style="fill: #ffcd00;"/>
		<ellipse cx="512" cy="380" rx="3" ry="2" style="fill: #000;"/>
		<ellipse cx="512" cy="460" rx="8" ry="7" style="fill: #ffcd00;"/>
		<ellipse cx="512" cy="460" rx="3" ry="2" style="fill: #000;"/>
		<ellipse cx="512" cy="540" rx="8" ry="7" style="fill: #ffcd00;"/>
		<ellipse cx="512" cy="540" rx="3" ry="2" style="fill: #000;"/>
		<ellipse cx="512" cy="280" rx="8" ry="7" style="fill: #ffcd00;"/>
		<ellipse cx="512" cy="280" rx="3" ry="2" style="fill: #000;"/>
		<ellipse cx="512" cy="360" rx="24" ry="21" style="fill: #329cd0;"/>
		<ellipse cx="512" cy="440" rx="24" ry="21" style="fill: #329cd0;"/>
		<ellipse cx="512" cy="500" rx="16" ry="14" style="fill: ##080808;"/>
		<ellipse cx="512" cy="240" rx="16" ry="14" style="fill: ##080808;"/></svg>