<svg xmlns="http://www.w3.org/2000/svg" viewBox="0 0 660 330">
		<g style="fill:#FFF;stroke:#D52B1E;stroke-linecap:square;stroke-linejoin:bevel;stroke-width:30">
			<rect x="15" y="15" width="630" height="300" rx="30"/>
			<line x1="45" y1="120" x2="615" y2="120"/>
			<line x1="45" y1="210" x2="615" y2="210"/>
		</g>
		<g style="fill:#A40A2E">
			<polygon points="15 90 16 170 644 170 643 90"/>
			<path d="M15 90V15h204l204 270H15z"/>
		</g>
		<g style="fill:#002395">
			<path d="M210 30h204l204 270H210z"/>
			<polygon points="630 345 420 345 420 75 630 75"/>
		</g>
		<g style="fill:#0E6EB8">
			<path d="M495 25l-226 292h403V25H495z"/>
			<polygon points="420 345 630 345 630 75 420 75"/>
		</g>
		<g style="fill:#FFF;stroke-linecap:butt;stroke-linejoin:bevel;stroke-width:20">
			<path d="M162 280L169 217 162 154 155 217 9 279l9 17 26 16 113 2 34 14 19 2 14 22 24 4z"/>
			<polygon points="206 232 220 232 220 220 206 220"/>
			<polygon points="246 232 260 232 260 220 246 220"/>
			<polygon points="292 232 306 232 306 220 292 220"/>
			<polygon points="334 232 348 232 348 220 334 220"/>
			<polygon points="382 232 396 232 396 220 382 220"/>
		</g>
		<g style="fill:#D52B1E">
			<polygon points="206 220 220 220 220 216 206 216"/>
			<polygon points="246 220 260 220 260 216 246 216"/>
			<polygon points="292 220 306 220 306 216 292 216"/>
			<polygon points="334 220 348 220 348 216 334 216"/>
			<polygon points="382 220 396 220 396 216 382 216"/>
		</g>
		<g style="fill:#D52B1E">
			<ellipse cx="211" cy="137" rx="56" ry="115"/>
			<ellipse cx="470" cy="170" rx="56" ry="90"/>
		</g>
		<g style="fill:#FFF">
			<ellipse cx="211" cy="137" rx="47" ry="83"/>
			<ellipse cx="470" cy="170" rx="47" ry="69"/>
		</g></svg>