<svg xmlns="http://www.w3.org/2000/svg" viewBox="0 0 10 6">
		<g fill="none" fill-rule="evenodd">
			<rect fill="#39B54A" width="10" height="6" rx="3" />
			<path fill="#FFDE00" d="M0 0h10v6H0z" />
			<rect fill="#FFFFFF" x="2" width="6" height="3" rx="1.5" />
			<path fill="#C61230" d="M5.5 1.8a.6 1 1 0 0 1 1 1.1c-1.2 1.2-2.6 2.2-4.1 3.1 1.1 1.1 2 2.6 2.8 4.1.6-.9 1.2-2 1.5-3.3z" style="mix-blend-mode:difference." />
			<path fill="#FFFFFF" d="M4.7.98c.4.4.74 1 1.03 1.7 0 .1-.1.1-.1.1H4.2c-2 0-3.7 1.7-3.7 3.7v.1c.32 0 .6.1.88.2.28-2.8 2.5-5 5.3-5.3.1 1.1.6 1.9 1.5 2.3-.08-.8-.33-1.9-.9-2.8-1.8-2.4-4.4-4-7.3-4.4 1 .1 1.9.2 2.8.2 3.7 0 7-1.4 9.5-3.8-.9-.9-1.9-1.7-2.8-2.6.4-.4.7-.8 1-1.3m1.6-.9c-.4 2.6-2.6 4.7-5.3 5-.4-.4-.8-.8-1.2-1.2v.1h1.3c1.1 0 2-.9 2-2v-.1c0-1.1-.9-2-2-2h-1.3M7.6 1.1c-.2 1.2-.8 2.5-1.5 3.3-.3-.3-.5-.6-.7-.9-.3-.4-.7-.8-1.2-1l.6-.6c.1-.1.1-.1.2-.1.1-.1.2-.2.2-.2.1-.1.1-.2.2-.2.2-.2.4-.4.6-.6zm1.8.8c0 .1-.1.1-.1.1-.4-.4-.7-.7-1-.9-.4-.4-.8-.8-1.1-1.1-.4-.4-.8-.8-1.2-1.2l.7-.7c.1-.1.1-.1.1-.2.1-.1.2-.2.2-.2.1-.1.1-.1.2-.2.2-.2.4-.4.7-.6z" style="mix-blend-mode:difference;" />
		</g></svg>