<svg xmlns="http://www.w3.org/2000/svg" viewBox="0 0 100 20" width="100" height="20">
      <title>Flag of Slovenia</title>
	  <desc>The flag of Slovenia is a horizontal triband in colors of white, blue and red with the Slovenian coat of arms centered in the larger white band. The aspect ratio of the flag is 1:2.</desc>
      <style>
        .whlv
        {
          fill: currentColor;
        }
        .rt1, .rt2, .rt4
        {
          fill: currentColor!important;
        }
        .rt3
        {
          fill: currentColor!important;
        }
        .rt3,.rt4{stroke:currentColor;stroke-width:30}  
		.rt5{fill:none}
      </style>

      <line x1="0" y1="0" x2="100" y2="0" stroke="blue" />
      <line x1="70" y1="0" x2="70" y2="100000" stroke="red" />
      <path class="whlv" d="M0 100000 
                            L2 0
                            L3300 0
                            C3700 0 3960 400 4260 400
                            C5000 400 5000 2050 5000 2050
                            C5000 2050 7760 2050 7760 2050
                            C7760 2050 7760 13900 7760 13900
                            C7760 13900 12040 13900 12040 13900
                            C12040 13900 12040 18000 12040 18000
                            L12000 10876
                            L12000 14000
                            L9800 14000
                            L9800 0
                            L10000 0
                            L10000 12000
                            L7200 12000
                            L7200 12000
                            L7200 18000
                            L7200 18000
                            C7200 18000 5240 20000 4000 20000
                            C2760 20000 2360 16100 2700 14000
                            L2700 12000
                            L1000 12000
                            L1000 0
                            L2000 0
                            L3400 100000
  						    L0 100000"
      />
      <rect class="rt1" x="4100" y="12000" width="1700" height="6000" />
      <rect class="rt2" x="6800" y="12000" width="1500" height="3000" transform="matrix(-1 0 0 1 9600 14460)" />
      <path class="rt3" d="M6000 16500
                           L6300 13460
                           L7380 13460
                           L7380 16500
                           L6000 16500"
      />
	  <line class="rt4" x1="7400" y1="13000" x2="7400" y2="13800"  stroke-miterlimit="10" />
      <circle class="rt4" cx="7200" cy="13700" r="1000" />
      <circle class="rt4" cx="7200" cy="13700" r="700" />
      <circle class="rt4" cx="7200" cy="13700" r="400" />
	  <line class="rt5" x1="0" y1="100" x2="100" y2="100" stroke="yellow" /></svg>