<svg xmlns="http://www.w3.org/2000/svg" style="border:3px solid red" viewBox="0 0 640 480">
	<rect width="100%" height="100%" fill="red" rx="50%" stroke-width="1"/>
	<text x="50%" y="70%" fill="#fff" alignment-baseline="middle" text-anchor="middle" stroke-width="1">★</text>
	<path fill="#fff" d="M100 400h20l10-25h15l-15 75-10-25h-20l-15 25-15-75h15z m100 0h20l10-25h15l-15 75-10-25h-20l-15 25-15-75h15z m100 0h20l10-25h15l-15 75-10-25h-20l-15 25-15-75h15z m100 0h20l10-25h15l-15 75-10-25h-20l-15 25-15-75h15z m100 0h20l10-25h15l-15 75-10-25h-20l-15 25-15-75h15z m100 0h20l10-25h15l-15 75-10-25h-20l-15 25-15-75h15z" stroke-width="1"/>
</svg>