<svg xmlns="http://www.w3.org/2000/svg" viewBox="0 0 264 396" width="264" height="396">
		<rect width="264" height="132" fill="#00b000" />
		<rect height="132" x="132" fill="#fff" />
		<rect width="264" y="132" fill="#00b000" />
		<path fill="#f79100" d="M60.1 379.5H178.5V317.30000000000007L113.6 200.5 60.1 317.30000000000007z" />
		<path fill="#000" d="M60.1 200.5L113.6 317.3V379.5H60.1V200.5z" />
		<path fill="#fff" d="M113.6 317.3L124.6 292.7H139.2L124.6 252.2L135.8 207.9H113.6V317.3z" />
		<path fill="#000" d="M108 396H156V383.84375l-7.57812-15.59375-33.89062-73.125 7.75-15.5625L156 360.328125V348z" />
		<path fill="#fff" d="M91.92188 359.5V200.5H222.5V359.5H91.92188zm77.574218-155.371094c-27.242188 55.476562-57.636719 110.828125-95.769532 162.472657-7.828124-11.738281-13.6875-24.125-15.96875-36.21875l17-72 28 67.046875c3.011719 8.730469 6.976563 17.289062 10.96875 25.550781 27.242188-55.472656 57.632813-110.832031 95.765626-162.46875 42.609375 21.15625 55.28125 70.839844 34.128906 113.460938-4.433594 10.707031-10.535156 20.746093-17.960937 30.261719l34 30c29.46875-30.21875 52.394531-66.972656 68.40625-106.160156l-7.140625 16-15.875 36.71875zM208.929688 181.605469l-28-67.03125c-3.011719-8.730469-6.988281-17.289062-10.96875-25.550781-27.242187 55.472656-57.632812 110.832031-95.765625 162.46875-42.609375-21.15625-55.28125-70.839844-34.128906-113.460938 4.433594-10.707031 10.535156-20.746094 17.960937-30.261719l-34-30c-29.46875 30.21875-52.398438 66.972656-68.40625 106.160156l7.144531-16 15.875-36.71875c27.242187-55.476563 57.636718-110.828125 95.769531-162.472657 7.828125 11.738281 13.6875 24.125 15.96875 36.21875l-17 72z" />
		<rect fill="#000" width="14" height="14" x="208.9375" y="109.742188" />
		<rect fill="#000" width="14" height="14" x="82.535156" y="184.074219" />
		<rect fill="#000" width="14" height="14" x="208.898438" y="257.183594" />
		<rect fill="#000" width="14" height="14" x="82.535156" y="331.511719" /></svg>