<svg xmlns="http://www.w3.org/2000/svg" viewBox="0 0 100 200">
		<g fill="#c60c30">
			<circle r="50" cx="50" cy="50"/>
			<circle r="50" cx="50" cy="150"/>
			<rect width="100" height="100"/>
			<path d="M 0,50 H 100 v 100 H 0 Z"/>
		</g>
		<path fill="#fff" transform="scale(.5,.5) translate(150, 50) " d="M 60 0 L 70 5 L 85 -5 L 95 10 L 110 0 L 140 10 L 115 30 L 125 40 L 140 20 L 150 25 L 150 30 Q 150 35 150 40 L 140 40 L 120 40 L110 40 L100 40 Q 90 40 90 40 L 80 40 L 75 45 Q 80 45 90 45 L 95 45 L 95 50 Q 95 55 95 60 L 95 75 L 90 80 L 90 85 Q 90 90 90 90 L 80 90 L 75 90 L 70 85 Q 75 85 80 85 L 85 85 L 85 95 L 85 100 L 90 100 L 95 100 L 100 100 L 110 100 L 115 105 L 120 105 L 125 105 Q 130 105 130 105 L 140 105 L 140 90 L 140 70 L 120 70 L 110 70 L 100 70 Q 90 70 90 70 L 80 70 L 70 65 L 60 70 L 0 70 L 0 90 L 0 110 L 10 100 Q 10 95 15 90 L 25 70 L 85 70 L 85 25 L 85 15 L 75 10 Q 70 10 65 10 L 55 10 L 50 5 L 45 5 L 20 25 L 60 0 Z" /></svg>