<svg xmlns="http://www.w3.org/2000/svg" viewBox="0 0 36690 51808">
	<path fill="#007f3f" d="M0 0h36690v51808H0z" stroke-width="1000"/>
	<circle cx="18345" cy="17904" r="7788" fill="#fff" stroke-width="1000"/>
	<path fill="#fff" d="M16815 24940l10798 10497c1305 1270 3460 1280 4747 0L43157 24940a3244 3244 0 0 0 0-4618l-672-658c-1288-1270-3374-1270-4762 0l-7892 7652-20515-10900c-1231 1193-1231 3538 0 4730l10690 10446-1900 1337c-1288 1270-3375 1270-4763 0l-672-659a8901 8901 0 0 1-288-319c-994-994-1435-2388-1436-3758 0-450 38-899 125-1346 14-166 33-330 54-495 92-665 269-1217 558-1720 481-1225 1371-1981 2596-1981s2115 756 2597 1980c280 504 465 1056 557 1720 20 156 42 311 55 467 87 454 120 905 120 1355 9 1375 440 2767 1436 3757 96 98 190 195 286 296z m17993-3212L24010 11230c-1316-1280-3457-1280-4773 0L6326 21728l7904 7652c648 630 1503 630 2152 0l12654-12390 12655 12390c648 630 1503 630 2152 0l-9035-7652z" stroke-width="1000"/>
</svg>