<svg xmlns="http://www.w3.org/2000/svg" xmlns:xlink="http://www.w3.org/1999/xlink" viewBox="0 0 1200 600">
	<path fill="#df7500" d="M0 0h400v600H0z"/>
	<path fill="#005f56" d="M0 0h215v600H0z"/>
	<path fill="#f7b718" d="M0 0h1200v600H0zm50 50v500h330V50z"/>
	<path fill="#941e32" d="M430 50h725v500H430z"/>
	<g id="b">
		<path id="a" fill="#f7b718" stroke="#000" stroke-linejoin="round" stroke-width="2.126" d="M1086.063 466.063s6.795 13.841 14.302 19.48c11.124 8.356 33.93 7.753 43.61 17.501 11.6 11.495-.665 26.685-.795 28.001-.264 2.674.424 5.347.636 8.02 0 0-7.821.095-11.114.609-4.952.772-6.883 4.803-16.102 4.204-23.18-1.505-22.244-22.397-23.556-40.25-1.164-6.8-3.858-15.663-5.388-22.46-1.313-5.828-1.593-15.105-1.593-15.105z"/>
		<use xlink:href="#a" transform="matrix(-1 0 0 1 1585 0)"/>
	</g>
	<use xlink:href="#b" transform="matrix(1 0 0 -1 0 600)"/>
	<use xlink:href="#c" stroke="#000" stroke-miterlimit="20" stroke-width="5.545"/>
	<path id="c" fill="#f7b718" d="M950.774 478.309c.255 12.051 9.833 9.932 19.915 5.035 1.92-1.51 2.273-1.54 4.979-.41 1.65.69 5.411 1.217 8.686 1.217 8.565 0 12.216-2.396 12.216-8.014 0-2.557-2.204-5.276-7.552-9.319-1.91-1.443-3.278-3.34-3.822-5.3-1.271-4.579-1.06-13.747.38-16.533 1.26-2.436 4.981-4.405 7.363-4.866 8.95-1.734 9.81-12.042 10.08-19.81-12.93 8.355-22.15-10.415-21.13-21.426.79-8.582 1.74-16.51 8.5-38.427 8.59-27.861 10.971-36.574 10.464-49.172-.88-21.903-7.962-32.336-20.732-45.428 10.837-7.731 18.577-18.411 19.47-29.213 1.28-15.477-5.85-26.932-21.244-34.558-13.398-6.637-30.95-8.352-55.173-5.39-14.363 2.405-52.33 5.65-45.24-20.835-10.245 1.543-8.735 13.487-4.458 21.15-13.295-7.242-12.55-18.797-11.452-23.583 1.39-4.346 7.187-9.16 11.17-8.815-17.752-10.358-25.355 3.05-26.615 12.13-16.24-10.338-9.907-30.07 2.527-34.65 6.154-3.349 13.19-2.737 18.456-.21 3.812 1.828 7.76 10.03 4.756 13.347 14.684-1.43 5.17-21.363-5.374-23.502 16.862-6.011 24.433 12.658 24.652 23.885.284 3.657-2.757 12.883-6.13 13.01 23.028 9.692 19.843-25.436 14.437-35.167 3.335 1.828 3.573.968 5.512 2.009 15.984 7.43 15.44 26.027 8.842 32.353 2.252.293 10.516-1.204 12.988-3.177 6.2-4.949 7.262-12.478 2.87-20.35l-2.139-3.834 4.938 5.207c3.781 3.984 6.731 7.67 10.71 16.577 2.301 5.156 7.706 21.038 25.401 23.277-6.833-7.259-5.55-16.369-10.193-24.12 4.727 3.806 2.755 2.208 10.942 10.51 13.28 13.469 19.192 17.725 27.062 19.484 10.722 2.396 20.384-3.15 20.384-11.7 0-6.743-5.125-11.068-11.145-9.406-8.88 3.42-5.967 9.578-4.849 12.094-2.716 0-11.67-4.05-17.304-8.246-2.69-2.004-11.133-9.501-18.76-16.66-21.87-20.523-29.06-25.77-43.21-31.522-21.942-8.921-44.083-10.016-65.233-3.227-16.977 5.45-26.646 14.776-31.018 29.918-1.03 3.574-1.295 6.682-1 11.83.454 7.98 2.58 13.097 7.523 18.118l2.95 2.994-2.577 4.185c-3.05 4.957-4.053 12.477-2.354 17.636 1.025 3.111 4.257 8.935 6.545 9.291 4.346-17.712 17.383-14.326 27.917-9.848 14.351 5.457 17.341 5.99 31.153 5.557 10.886-.342 13.7-.754 25.582-3.744 16.504-4.152 23.134-4.75 34.115-3.073 14.028 2.142 25.85 9.192 30.404 18.13 1.664 3.267 2.03 5.173 2.035 10.563.01 5.71-.318 7.21-2.45 11.38-1.524 2.99-3.777 5.82-5.947 7.47-5.877 4.49-9.693 5.15-29.458 5.17-18.367.01-28.583.783-64.473 4.869-29.398 3.348-49.433 2.47-63.51-1.204 2.838 3.049 4.468 2.277 9.167 4.727.37 2.855-11.74 8.084-17.359 7.347-4.276-.854-8.04-2.482-11.909-4.332.764 4.398 2.247 6.232 4.634 9.932-4.663-1.884-9.293-5.13-13.4-7.5-.06 3.278 7.451 12.047 13.201 14.918-12.56-.423-19.29-4.916-25.777-10.28-1.316 6.384-5.614 11.984-10.293 17.004.398-8.461-11.645-17.306-12.157-24.281 5.963 6.51 10.371 14.888 13.386 19.556 5.25-5.567 7.412-10.4 7.406-17.725 3.824 5.29 11.167 12.3 18.222 12.017-4.362-6.073-7.03-10.522-7.613-17.006 3.37 3.222 7.206 5.613 11.044 8.276-.296-3.404-1.034-6.464-.89-10.211 5.55 9.116 21.875 10.347 29.44 2.94-.64 0-3.513-1.225-6.386-2.722-3.988-2.08-7.685-2.931-12.324-3.324-12.064-1.3-18.427-3.46-24.47-13.6-2.396 3.86-4.028 6.438-6.675 9.906l-1.178-2.716-1.178-2.715-2.028 8.37-2.02 8.365-3.365-1.846c-3.627-1.99-11.03-7.517-12.308-11.864-1.057 1.858-1.405 3.148-2.08 9.686-11.855-.62-22.47-17.614-23.273-19.92-.49 1.983-1.533 6.214-2.898 9.323-2.118 4.821-2.366 6.064-1.69 8.51l.79 2.862-3.154-2.498c-1.735-1.374-3.94-3.77-4.902-5.326s-2.054-2.639-2.43-2.405-1.31 2.068-2.08 4.082-1.724 2.83-2.046 3.66c-1.704-1.214-4.38-4.41-4.66-7.005l-.258-2.372 1.14 2.446c.625 1.346 2.22 3.78 2.882 4.33 1.674-.773 3.456-12.13 5.11-14.09 0 3.188 1.976 8.278 4.554 11.66l2.077 2.72 3.168-7.39c1.76-4.107 3.18-8.76 3.194-10.466l.026-3.073c7.373 12.086 13.988 19.702 23.345 23.156l2.073-13.938c3.582 7.22 9.47 14.252 15.36 17.282 1.73 0 3.528-12.115 2.396-16.14-.728-2.59-4.806-7.853-5.86-7.853-1.1 3.702-1.448 8.014-4.658 10.947-6.088-7.244-12.817-16.454-16.046-20.062L745 249.514c-5.09-6.608-16.803-13.324-18.527-23.94 3.926 5.503 8.322 12.826 17.139 19.3.1-2.16 3.147-17.26 3.202-19.767 1.285 5.704 11.776 21.847 16.685 25.554 1.863-2.03 3.183-7.063 2.78-11.52l-.52-5.728c3.649 5.174 9.619 16.594 13.152 19.402 3.813.186 5.722-11.764 5.76-14.51l1.07 3.406c2.159 6.897 7.478 13.053 13.426 15.539 3.263 1.363 12.058 1.97 13.97 2.24-2.785-4.771-3.366-7.891-3.388-13.278-.02-5.117-1.074-7.322-2.02-7.907-5.154-3.19-8.937-7.318-12.572-12.332-2.3-3.17-4.755-7.877-4.955-8.437-2.911 4.6-2.4 10.098-4.137 11.889-.893-.217-9.71-11.947-10.785-13.187-.723 2.034-4.787 12.98-5.118 13.426-.135.18-1.025-.665-1.98-1.878-6.7-6.045-9.913-7.527-14.188-14.76-1.04 1.505-.897 2.284-1.623 4.717-.604-.978-12.297-10.12-13.66-10.643l-1.586 12.45c-10.658-6.982-19.426-17.598-18.666-21.58 2.11 4.164 17.154 17.28 17.154 17.28l.827-15.688c1.518 2.95 7.783 9.388 11.955 12.29l3.369 2.344c-.073-7.85.75-16.226-1.512-23.766 2.368 3.472 12.186 12.795 12.964 12.017.93-4.703.358-8.525.679-13.474 4.258 4.155 2.556 4.043 6.668 7.226l1.887-9.924 1.504 2.47c5.746 5.536 9.39 10.584 15.549 14.803 5.095-7.37 4.866-14.916 5.114-23.514 2.556 9.51-.15 18.07 5.125 25.32 1.754 2.41 10.555 10.055 15.88 12.124-1.852-2.433-3.003-8.232-2.454-14.796.68-7.752-1.064-12.482-1.42-15.866-2.087-1.242-6.965-5.266-9.49-10.482 6.966 9.017 19.707 11.92 26.476 8.855l-3.03-2.31c-2.144-1.635-3.937-4.27-6.118-8.99-2.245-4.858-4.135-7.602-6.935-10.067-2.118-1.864-4.18-3.39-4.58-3.39s1.07-1.528 3.212-3.464c7.414-6.704 11.673-17.955 11.03-22.707-.905 1.327-13.704 11.697-25.69 9.366 1.434-5.613-7.75-16.172-12.626-17.926 2.339 7.5-3.964 16.59-10.884 16.793-4.01 0-7.425-2.073-11.191-6.792-4.255-5.333-9.385-8.66-16.046-8.566-2.051.029-4.03-.065-6.08-.036 2.01 1.14 4.005 3.619 4.005 6.05 0 2.724-4.151 7.453-6.762 6.898-9.402-2-20.128-11.136-29.29-7.182 3.073.628 4.83 12.77-4.741 15.517-10.624 3.048-30.7 8.34-39.11 7.793 8.532-7.344 3.672-15.844-3.924-12.91-22.243 8.592-5.482 40.64 9.692 52.23-.398-2.871-.944-4.58-1.12-6.69 4.704 3.6 11.892 7.464 16.017 9.717.015-2.625 1.05-5.73 1.675-7.104 3.123 5.729 7.98 10.908 11.62 14.737 5.892 7.205 12.556 13.667 13.154 22.206-9.438-8.782-19.72-10.452-30.548-5.646 5.955-5.32 6.522-8.688-2.704-5.966-7.112 2.16-14.197 1.876-19.398-.777l-3.442-1.756c.362 9.569-3.368 21.803-11.402 24.778 7.617 8.282 15.18 1.676 18.677-6.398-.924 5.053-.753 9.17-.28 13.454 4.344-3.37 8.247-6.8 10.698-11.636.37 4.926.336 11.83 4.186 14.39 0-3.676 1.043-11.523 7.154-13.5-1.556 5.46-2.164 11.147 3.202 11.25.104-3.93.82-5.337 2.354-7.016 6.313-3.39 11.53.25 11.343 5.94-.24 6.331-4.84 13.152-13.04 19.334-19.018 14.337-30.798 29.978-36.643 48.65-2.992 9.564-3.723 26.866-1.55 36.71 4.102 18.584 14.3 33.836 29.264 43.769 5.204 3.454 18.26 9.42 18.97 9.212-2.912-9.54-3.63-25.582-2.63-38.354 1.27 5.996 3.053 34.257 5.305 39.857 4.977 19.893 6.516 33.895 4.964 45.156-1.136 8.242-2.768 12.608-5.522 14.774s-5.614 2.035-11.194-.52c-5.698-2.608-10.8-2.384-14 .614-3.242 3.039-9.4 11.007-9.608 12.25 1.818 2.114 7.69.813 7.69-1.661 0-.812 1.708-3.95 2.567-4.726-2.044 7.698.84 9.16 6.273 8.894 9.638-.3 5.572-5.803 10.02-7.53-.51 1.055-.92 2.924-.92 4.104 0 3.216 3.076 4.464 10.931 4.436 5.635-.019 7.25-.36 11.045-2.339l4.445-2.315 4.524 1.43c5.111 1.614 12.905 1.783 15.703.34 6.858-3.54 7.24-7.655 1.34-14.446-4.256-4.9-2.826-7.11 6.385-9.858 11.291-4.264 15.772-9.365 15.564-20.235-7.283 8.467-18.456-1.264-15.355-10.375 1.323-6.484 6.851-19.641 16.08-31.66 7.21-9.386 18.152-42.986 19.657-48.385-.67 15.383-7.27 32.476-17.71 48.172-3.58 5.385-4.646 7.655-4.646 7.655s20.81-5.045 31.03-8.891c4.528-1.704 15.388-6.04 24.133-9.635 20.163-8.29 35.663-13.597 44.696-15.305 12.892-2.437 29.288-.515 39.375 4.616 2.855 1.45 4.972 3.143 24.495 19.566 5.093 4.285 12.93 10.39 17.415 13.57 8.927 6.326 16.827 13.834 18.694 17.767 1.502 3.166 1.627 6.436.903 23.659-.663 15.799-1.21 18.297-4.63 21.174-2.3 1.936-3.019 2.284-11.4 2.066-14.698-.38-14.806 1.057-18.032 13.71-.578 2.27-2.06 5.705-3.23 7.1 6.223 1.887 12.45-1.421 13.522-6.265.598-2.702 2.327-5.123 4.018-5.573-2.115 4.449-3.522 7.43-2.895 13.046 16.082.053 10.768-2.37 13.924-10.734zm-245.72-184.32c-3.004-6.12-2.525-10.54-2.188-16.96-5.073 1.4-6.108 2.3-10.786 6.08-2.452-12.37 6.426-16.737 10.453-20.028-.078 2.59-9.442 7.945-8.86 16.44 4.514-2.993 11.227-7.042 12.527-7.27-1.18 1.347-2.954 14.794-.103 19.108.757-1.156 5.066-6.028 8.41-8.5s7.137-6.315 7.655-7.283c.873 2.438 3.823 7.65 5.355 10.011 3.515-7.564 7.456-10.626 12.054-16.727.649 3.435 2.66 16.52 4.252 17.136 4.26-4.414 8.165-15.188 9.815-16.18-2.234 8.618-6.35 14.106-10.132 21.481-2.462-5.79-4.765-11.944-5.158-18.147-8.22 8.923-8.474 7.978-8.14 19.37-3.666-4.144-6.262-8.862-7.78-14.032-5.862 5.831-15.094 10.701-15.75 18.177zm34.862-115.71c-4.4-.729-10.505-3.35-19.684-8.44-5.26-2.919-8.74-3.556-11.459-2.1-4.458 2.385-2.494 8.54 2.446 6.91 4.824-1.593.804-3.674.058-4.366 1.872-.058 4.793 1.344 4.793 2.922 0 1.895-3.805 3.716-6.518 3.121-7.7-1.693-4.97-11.01 3.227-11.01 1.287 0 4.848 1.34 7.912 2.975 12.861 6.87 14.715 7.588 21.604 8.36 3.74.416 6.767.54 7.036.521-.73-1.365-5.2-6.398-9.99-8.833 2.65-.978 11.66.6 21.41 3.97 7.76 2.68 9.26 2.941 14.8 2.591 3.39-.215 7.77-1.048 9.728-1.852l3.559-1.463c-4.413-4.19-10.123-5.776-14.856-8.72 1.246-.334 6.97-1.778 11.31-1.629 7.11.244 21.16-8.51 23.453-9.16-1.282 1.36-5.766 5.45-8.97 7.06-4.885 2.454-7.004 2.942-13.131 3.462l-7.214.59c4.37 2.684 8.333 5.311 12.62 8.143-20.317 9.9-24.78 4.498-46.205-1.39l3.936 4.617 3.936 4.618c-4.601-.079-9.298-.167-13.791-.904zm160.357 302.73c7.903 3.82 20.138 4.06 23.007-2.37 1.277-3.287.344-9.989-2.047-14.709-1.15-2.27-2.472-5.82-2.936-7.89-.983-4.388-.31-6.149 3.563-9.33 8.214-6.749 10.304-9.363 11.286-14.115.53-2.565.053-6.406.053-6.406-3.497 3.361-11.29 4.262-14.916 1.274-7.302-6.78 10.33-16.497 12.426-28.203-7.41-7.187-16.541-14.79-24.91-22.6-9.726-9.077-25.67-12.898-39.29-11.197-2.2.275-4.831.385-4.831.385l.34 2.8c0 8.01 5.114 19.75 14.256 32.73 8.075 11.465 12.465 18.753 13.62 22.612.66 2.2.71 8.318.179 21.757-.718 18.18-.793 18.755-2.715 20.8-2.451 2.605-6.77 2.791-13.23.57-13.237-4.556-19.467-2.83-23.76 13.22 1.933 2.331 10.756 2.943 10.835-1.086.038-3.228.629-4.304 3.209-6.118-2.188 4.602-.478 9.124 2.69 10.83 6.485 3.487 11.456-6.425 13.857-7.732-.15 13.144 6.64 10.21 19.303 4.775zm-303.204-53.25c4.826 4.823 9.864 7.36 16.03.8-9.215-3.168-13.664-8.18-16.1-18.15 4.21 5.87 12.924 8.5 17.932 6.48s5.475-4.956 5.412-9.017-3.949-6.12-6.48-6.12-6.407 2.435-4.913 8.222c-19.027-4.379-13.083-20.798-4.462-27.826-4.777-3.91-8.106-7.28-9.464-16.478 1.903.835 4.545 4.197 10.014 4.318 4.433-.424 6.64-3.824 6.66-7.007 0-3.027-1.594-5.238-4.224-5.272s-4.254 1.802-3.902 6.572c-4.98-2.07-7.594-5.914-8.84-11.244-3.667 2.86-7.63 2.792-7.9 3.48-.467 2.594-6.204 7.858-8.571 7.245.833-1.348.177-4.996-1.327-5.526-4.208-1.483-6.717 2.645-5.136 7.436 2.98 7.672 12.793 2.45 14.75.066-.741 8.083-3.98 12.918-7.365 16.601 9.14 11.504 9.263 25.462-5.674 28.212.507-5.338-.25-7.367-4.566-8.187-3.9-.11-6.17 2.346-6.17 6.673 0 5.215 4.292 9.06 10.113 9.06 6.63-.805 8.517-3.046 12.949-7.157-3.093 7.663-8.548 15.337-16.585 17.602 6.432 6.8 11.902 3.797 17.223-.876-1.78 7.233-.387 9.722 4.97 15.784 4.873-6.804 5.825-8.105 5.626-15.694zm61.678-22.097c4.784-4.534 8.6-9.675 12.406-14.992-16.312-14.066-24.323-32.644-24.86-48.327-9.814-11.255-30.203-32.23-32.1-34.163-1.446-1.473-2.89-1.408-3.727-.987-.914.46-1.173 1.706-.914 2.878.518 2.344 3.532 5.834 4.428 7.44-12.163 4.236-9.83 13.454-3.608 19.86-2.047.067-4.063-.15-4.813-.098-1.762 6.58-7.26 10.668-9.005 12.372.125 2.396-.455 3.418.964 5.66 11.387-8.134 12.241-6.448 13.128-6.337 2.452.306 7.36 9.33 10.071 13.638-6.646 4.7-9.164 9.777-5.464 18.478 8.645-10.657 10.544-4.55 16.43 4.396 7.307 12.23 17.95 25.278 20.62 25.278.617 0 3.517-2.293 6.444-5.096zm-67.395-52.41c1.58-.818 2.402-1.868 2.394-3.059-.024-3.577-1.185-4.27-6.683-3.998-4.396.472-7.687-1.07-11.625-2.3-1.085 0-.266 3.255 1.328 5.281 3.927 4.992 9.696 6.603 14.586 4.074zm12.556-18.999c-1.74 1.978-8.358 6.27-10.844 10.812l2.241 3.59c4.865-4.19 8.862-7.428 8.603-14.402zm-11.336 8.455c2.627-3.802 2.056-6.477-6.693-6.435-5.603.027-8.944-2.094-13.697-3.793-.242 0-.44 1.32-.44 2.934 0 5.353 5.816 9.046 14.51 9.213 3.563.07 4.993.003 6.32-1.918zm10.377-13.783c-3.277 1.277-5.93 4.182-9.364 6.176.296 1.164 1.288 2.84 2.095 4.35 5.153-2.5 7.95-7.976 7.269-10.532zm-7.152-3.156c-9.625 0-15.067-.397-22.826-5.616-10.181 8.966 10.158 14.626 14.408 14.518 6.822.278 9.05-3.94 8.418-8.902zm7.526-3.945c-2.773 1.21-3.305 1.12-6.303 3.51.177 2.754.215 3.607.717 5.593 2.75-1.31 5.352-5.23 5.586-9.105zm-6.303 1.444c2.234-1.126 1.604-7.135-.066-7.222-5.448-.286-9.42-2.086-12.805-4.894-7.13-5.983-15.398.363-9.517 7.351 4.006 4.76 16.936 7.511 22.388 4.763zm12.506-7.882c-3.742-.209-7.34.01-10.392.724 1.307 1.432 1.963 3.384 1.473 4.78 3.86-.974 5.942-2.582 8.92-5.503zm-1.497-6.78c-7.27 1.606-13.63 3.253-20.224 2.7-.206.43 1.518 1.68 3.75 2.326 3.03.876 14.233.5 17.44.151a102.14 102.14 0 0 0-.966-5.178zm-1.51-1.774c4.885-1.49 11.297-5.619 13.59-8.749 2.227-4.013 2.219-10.79-.833-13.097-8.375-6.334-14.413 4.097-9.133 9.655l1.708 1.818c-11.923 8.056-30.56 4.995-39.214-.362 3.4-1.916 5.041-6.06 3.933-9.703-1.555-2.872-3.222-3.405-7.31-3.37-4.752.04-6.487 3.598-6.487 8.575 0 6.878 6.886 13.182 15.062 15.79s24.596.696 28.685-.553zm2.732-9.859c-3.607-3.984-4.205-7.628-2.312-11.72 2.699-58.434-7.887-124.837 11.65-181.812-41.87 6.554-41.63 132.534-41.386 180.604 2.87 7.925-.555 11.243-2.626 12.044 10.88 4.538 22.707 5.218 34.674.884zm208.745-58.173c-3.92-3.944-8.95-17.835-10.56-22.87-8.023-6.122-8.744-7.629-13.492-17.247-.266.837-3.413 5.93-4.298 6.73-4.432-2.214-10.218-9.656-16.394-14.3-.065.348-.18 1.665-.493 3.34s-1.847 4.884-2.298 5.726c-1.762-2.212-3.628-3.776-5.004-6.038-.218 4.087-.96 6.438-1.23 11.483-3.828-2.328-4.893-3.796-9.835-6.673-.463 6.708.749 15.102 5.412 19.39 3.29 2.903 9.088 7.316 9.61 7.316.242 0 1.265-1.56 2.274-3.466 1.526-2.882 1.815-4.63 1.716-10.396l-.12-6.93 1.019 3.83c1.1 4.14 3.484 7.98 8.464 13.627l3.169 3.596 1.896-6.872 1.896-6.872 3.507 7.007c3.865 7.72 15.443 19.867 24.76 19.626zm-144.463-32.34c-7.38-1.426-16.415-.139-23.275-4.755.1 5.297 4.812 10.3 8.512 12.664 3.949 2.455 13.104 2.654 19.711.428 5.55-1.87 8.122-1.32 8.76 1.874.21 1.048-.52 2.392-.52 2.392 8.075-1.936 14.39.228 21.048 3.744-5.993-16.494-28.218-15.84-34.236-16.346z"/>
</svg>
