<svg xmlns="http://www.w3.org/2000/svg" viewBox="0 0 6 3">
	<rect width="6" height="1" fill="blue" />
	<rect y="1" width="6" height="1" fill="red" />
	<rect y="2" width="6" height="1" fill="green" />
	<g fill="white">
		<path
			d="m3 1.5888.0504-.1089.113.041-.041-.1136.1095-.0504-.1089-.051.0403-.1123-.1129.0403L3 1.125l-.051.1096-.113-.041.041.1122-.109.0511.1083.051-.0403.113.113-.041.051.1089Z" />
		<path
			d="M2.6135 1.4982c.049.2459.4017.3557.6348.1977.0736-.0498.1227-.12.1382-.1977 0 .2896-.322.4706-.5798.3258a.3745.3745 0 0 1-.1932-.3258Z" />
	</g>
</svg>