<svg xmlns="http://www.w3.org/2000/svg" viewBox="0 0 48000 30000">
	<defs>
		<linearGradient id="a" x1="50%" x2="50%" y1="0%" y2="100%">
			<stop offset="0%" stop-color="#00247d"/>
			<stop offset="100%" stop-color="#9e2a2b"/>
		</linearGradient>
	</defs>
	<path fill="#fff" d="M0 0h48000v30000H0z" stroke-width="1000"/>
	<g fill-rule="evenodd" stroke-width="1000">
		<path fill="#9a9c9d" d="M547 9273l4-3210 5720-40-4 3210z m8465 3362l-1615-2430-2 2122 5143-40-6-955-3198 51z m1956 880l-50-8v-5290l2741-27v9097h-2730z m4384-8652l-4-2110 9387-9-4 2110z" stroke-width="1000"/>
		<path fill="#191A1C" d="M1080 9273l-4-3210 5720-40 4 3210z m8465 3362l-8-888 4 2122 5143-53v-738l-3198 40z m4-880l4-8v-3530l2741-27v9097l-2741-27z m0 0V8217l2741-27v9097l-2741-27z m0 0V8217l2741-27v9097l-2741-27z m0 0l-407-6v-492l407 6z m4384-8651l4-2110 9387-9-4 2110z" stroke-width="1000"/>
	</g>
	<path fill="url(#a)" d="M48000 15000L25610 29495 1610 15000z" stroke-width="1000"/>
	<path fill="#9a9c9d" d="M1610 15000v15000h-1000V15000zM46000 0v15000H1620V0zM1610 20v15000H0v-15000z" stroke-width="1000"/>
	<path fill="#c60c30" d="M1610 15000L0 30000h2000zM45000 0l1000 30000h3000zM3610 30000h-2000V15000h2000zM45000 32000v13000h1000V32000z m0-13000H3610V1955L46000 11000z" stroke-width="1000"/>
	<path fill="#d21034" d="M46000 32000h2000v13000h-2000z m-41390 1h44380V15000H4610z" stroke-width="1000"/>
</svg>