<svg xmlns="http://www.w3.org/2000/svg" viewBox="0 0 200 300" width="200" height="300">
		<rect x="0.5" y="0.5" width="199" height="75" stroke="black" fill="red"/>
		<rect x="0.5" y="75.5" width="199" height="225" stroke="black" fill="white"/>
		<line x1="0.5" y1="75" x2="199.5" y2="75" stroke="black" />
		<path d="M48.4,127.4l13.4-10.8h46.9l-11.4,9.3l10.1,8h-43.2l-13.6,10.6v28.4h-11.4v-28.4l-13.4-10.6H27.2l10.3-8l-11.3-9.3h46.9l13.4-10.8V81.3H48.4V127.4z M96.7,134.5H52.7v82.2h1V136.5h42.8V134.5z M98.7,99.2c0,0.9-0.7,1.6-1.6,1.6c-0.9,0-1.6-0.7-1.6-1.6c0-0.9,0.7-1.6,1.6-1.6C98.1,97.6,98.7,98.3,98.7,99.2z M127.3,143.7c0,0.9-0.7,1.6-1.6,1.6s-1.6-0.7-1.6-1.6c0-0.9,0.7-1.6,1.6-1.6S127.3,142.9,127.3,143.7z M128.4,93.4c0,0.9-0.7,1.6-1.6,1.6s-1.6-0.7-1.6-1.6c0-0.9,0.7-1.6,1.6-1.6S128.4,92.6,128.4,93.4z M130.5,140.5c0,0.9-0.7,1.6-1.6,1.6c-0.9,0-1.6-0.7-1.6-1.6s0.7-1.6,1.6-1.6C129.9,138.8,130.5,139.6,130.5,140.5z M133.7,98.2c0,0.9-0.7,1.6-1.6,1.6c-0.9,0-1.6-0.7-1.6-1.6s0.7-1.6,1.6-1.6C133.1,96.5,133.7,97.3,133.7,98.2z" fill="#477808" stroke-width="1" stroke="#477808"/></svg>