<svg xmlns="http://www.w3.org/2000/svg" viewBox="0 0 300 186">
	<title>Turkey Flag</title>
	<path fill="#FFFFFF" d="M66.9,99.8c0,12.8,29.7,23.1,66.1,23.1c37,0,66.1-11.7,66.1-26.1V43.2c0,8.4-1.4,22.9-4.4,33.4c0,0-41.2,26.4-72.4-1.4c0-3.4,12.8-16,13.7-33.4H66.9z" />
	<path fill="#FFFFFF" d="M143,69.2v20.5c0,14.5,5.5,15.5-10.5,15.5c13.7,0,22.5,0,22.5,0v15.5H72.9c0,0,2.3,3.6-3.6,0C60.3,133.7,41.2,107.8,41.2,88.7V68c0,0,2.3-0.9,0-9.9c-5.5,5.5-1.4,18.1-1.4,18.1s36.7-9.9,67.5-1.4c2.3,1.4-0.9,4.4,4.4,4.4c1.4,0,4.4,2.3,0,0.9c-4.4,3.6-4.4,4.4-4.4,4.4s-33.4,10.5-65,0.9C64.2,64.8,64.2,57.7,64.2,56c2.3,0,1.4,9.9-6,8.4c-3.6-0.9-1.4-3.6,2.3-1.4c0.9,0.9,5.5,28.2,5.5,28.2s0,5.5,5.5,5.5h5.5c3.6,0,0-13.7,0-22.5L143,69.2z" />
	<path fill="#FFFFFF" d="M142.1,69.2v20.4h-4.4V68c0,0,2.3-1.4,0-10.5c-5.5,5.5-1.4,18.1-1.4,18.1s36.7-10.5,67.5-1.4c2.3,1.4,0-2.3,4.4,0c-0.9,3.6,4.4,0,0.9,4.4c-3.6,3.6-1.4,6-1.4,6s1.4,6-3.6,7.5c-5.5,1.4-10.5,0-10.5,0s36.7-5.5,62.9,1.4c0,0,4.4,2.3-0.9,1.4c-2.3-0.9,2.3-4.4,4.4,0c4.4,4.4-8.4,0-6-3.6c3.6-7.5,1.4-7.5,1.4-7.5h-5.5L142.1,69.2z" />
	<path fill="#F0221F" d="M50.5,114.6c0,0,41.2-26.4,72.4,1.4c0,0,10.5,24.6,3.6,36.7c-13.7-47.2-70.1-29.7-70.1-29.7S29.7,124.8,50.5,114.6z" />
	<path fill="#F0221F" d="M215.5,110.2c13.7,47.2-3.6,36.7-3.6,36.7s-70.1-12.8-70.1,29.7c-6-12.8,3.6-36.7,3.6-36.7S192.9,82,215.5,110.2z" /></svg>