<svg xmlns="http://www.w3.org/2000/svg" viewBox="0 0 1300 650">
		<rect width="100%" height="100%" fill="#0073cf" />
		<path fill="#228b22" d="M0 0h650v650H0z" /><path fill="#c40230" d="M0 650h1300v350H0z" />
		<path fill="#f9f9f9" d="M0 148h260v79H0zM523 148h79v184h-79zM1022 148h202v79h-202zM307 285.777v79h232.88c1.506 0 2.835.086 4 2.006 43.512 27.363 64.454 42 34 42H307l-7.877 22H104c-3 0-3-13.77 0-13.77h336.462c.426.623 4.7 4 18.778 21.631a139.914 139.914 0 0 0 24.831 20.062c15.067 9.185 32.2 14 34 14h95.5c5.5 0 5.5-15.5 0-15.5H421.18c6.773-6.323 13.9-13.1 18-21.645 6.07 40.982-2.398 85.824-29.735 128.776h224.116c64.492 0 64.492-96 0-96H0c-.777-.777-.777.777 0 0M941.612 456.002c2.503 3.48 5.21 7.158 7.846 11.011h125.934c10.18 0 20.18 1 20.18 10.264h-297c-7.25 0-7.25-12.375 0-12.375h64.81c19.401 0 19.401-30 0-30h-144v-52h92.003c19.403 0 35.003 11.462 35.003 30.262h-128c-5.5 0-5.5 8.5 0 8.5h65.299c10.186 0 10.186 15.739 0 15.739h-61.784c12.994 17.679 24.712 35.496 33.505 53.435zM1162 123V57h-82v66h82zM1281 282v66h-82v-66h82z" /></svg>