<svg xmlns="http://www.w3.org/2000/svg" viewBox="0 0 200 100">
		<rect width="200" height="100" rx="5" fill="#0071bc"/>
		<path fill="#FFF" d="M50,18L0,0v90h90zM56.36,22.15C59.96,26.55,64,32.44,64,39s-4.04,12.45-7.64,16.85C54.7,61.79,53.62,61,53,61c-.67,0-3.4,4.02-4,4.02C40.88,65,40,79,40,80.53V83.3C40,86.05,34.56,88.63,30.7,88.63H0c7.75,0,15-7.8,15-15C15,25.36,27.24,6,47,6c16.88,0,21.85,8.06,21.92,8.18c.31,0,.74-.1,1.26-.46,1.21-.84,1.46-1.26,1-2.05C67.67,3.12,52.47,0,47,0,33.61,0,24,9.61,24,21.6v27.6C24,57.76,36.23,70,47.57,70c8.14,0,7.67,15.44-2.63,15.44C20.77,85.44,20,68.79,20,60V40c0-1.86,8.79-11,13-11C58,29,63.8,33.63,64,42v40c0,.36,0,.72,0,1c0,4.42,3.58,8,8,8s8-3.58,8-8s-3.58-8-8-8h-8c-1.1,0-2,.9-2,2s.9,2,2,2h8c5.52,0,10-4.48,10-10v-3.24c0-3.66-3.34-6.71-7.71-6.71-6.76,0-10.41-7.23-12.18-10.21"/></svg>