<svg xmlns="http://www.w3.org/2000/svg" viewBox="0 0 20000 30000">
	<path d="M0 0h20000v30000H0z" style="fill:#fff" stroke-width="100"/>
	<path d="M0 0h20000v10000H0z" style="fill:#da291c" stroke-width="100"/>
	<path d="M0 10000h20000v10000H0z" style="fill:#227b22" stroke-width="100"/>
	<path d="M1250 15085A1239 1239 0 0 0 13 16320h1953a1239 1239 0 0 0-716-1235z m6020 0a1239 1239 0 0 0-1237 1335h1953a1239 1239 0 0 0-716-1335zM4515 2143l1267 3622m0 0c207 380 590 700 1076 700 507 0 1034-335 1267-950l1250 815c-544 1153-1800 1955-2950 1955-1319 0-2487-849-2757-1955l1250-815c233 615 760 950 1267 950 486 0 869-320 1076-700M10000 20000c2647 0 4800-2153 4800-4800s-2153-4800-4800-4800-4800 2153-4800 4800 2153 4800 4800 4800m0-9200a4400 4400 0 1 1-4400 4400 4400 4400 0 0 1 4400-4400m6733 2040l438 1673-1134 286-438-1673 1134-286m0 0l500-8140 1134 285-1772 5858-1134-285L17233 4700M12900 5200a1239 1239 0 0 0 1237 1336h1954a1239 1239 0 0 0-3091 8550 1239 1239 0 0 0-717 1336h1953a1239 1239 0 0 0 1237-1336M10053 0C5555 0 1980 3575 1733 8073l1750 565c927-3459 3766-5870 6570-5869 1961 0 3723 969 4927 2532l1750-565C21680 3575 18148 0 13646 0" style="fill:#fff" stroke-width="100"/>
	<path d="M13777 13738c1535 0 3228-1628 4213-3690l1229 893c-1135 2367-3477 4060-5903 4060-1427 0-2768-584-3615-1584L9230 17600c847 1000 2289 1584 3615 1584 2426 0 4768-1693 5903-4060l-1229-893c-985 2062-2679 3690-4213 3690z m-900-9085a1600 1600 0 1 1 1600-1600 1600 1600 0 0 1-1600 1600z" stroke-width="100"/>
	<path d="M13303 4489a800 800 0 0 1 300 1530l-167 46-21-368a385 385 0 0 0 280-524zM14400 7000a558 558 0 0 0 557-557 558 558 0 0 0-557-557 558 558 0 0 0-557 557A558 558 0 0 0 14400 7000z m-2400 0a558 558 0 0 0 557-557 558 558 0 0 0-557-557 558 558 0 0 0-557 557A558 558 0 0 0 12000 7000z m-760-327a807 807 0 0 1-100 1565l-65-89a358 358 0 0 0 200-134 368 368 0 0 0 190-412 368 368 0 0 0-130-1503 358 358 0 0 0 200 134l-65 89a806 806 0 0 1-440 186z m4042-2586a800 800 0 0 0-600 1327l167 46 388-270a385 385 0 0 0-330-582zM14700 9550l-44-44a367 367 0 0 0-182 293 368 368 0 0 0 368 368 367 367 0 0 0 182-293 368 368 0 0 0-63-275z m-1800 0l-65-91a400 400 0 0 0-200 135 400 400 0 0 0-190 412 400 400 0 0 0 794 177l65 89a807 807 0 0 1-554-86z" style="fill:#fff" stroke-width="100"/>
</svg>