<svg xmlns="http://www.w3.org/2000/svg" viewBox="0 0 29.333 59.333">
	<defs>
    <style>
      .cls-1 {
        fill: #fff;
      }

      .cls-2 {
        fill: #49cbd6;
      }

      .cls-3 {
        fill: #fc0;
      }

      .cls-4 {
        fill: none;
        stroke: #000;
        stroke-miterlimit: 10;
      }

      .cls-5 {
        fill: #c00;
      }
    </style>
  </defs>
	<path class="cls-1" d="M0,0H29.333Z"/>
	<path class="cls-2" d="M0,59.333H29.333V38.667Z"/>
	<path class="cls-3" d="M2.135,15.066a8.61,8.61,0,0,0,17.22,0V18.6h-3.285V13.866H5.42V15.066Zm7.648,0a3.684,3.684,0,0,1-7.368,0V18.6h7.368V15.066Z"/>
	<path class="cls-3" d="M23.8506,18.6H2.135V15.066HL2.135c0-.516.027-1.025,0-1.54C2.164,12.724,6.929,11.985,11,13.7V13.8666S21.378,17.76,23.8506,18.6Z"/>
	<line class="cls-4" x1="2.135" y1="10.732" x2="27.1986" y2="10.732"/>
	<polyline class="cls-3" points="0 18.6 0 26.667 2.135 26.667"/>
	<polyline class="cls-3" points="23.8506 18.6 22.019 18.6 22.019 13.866 23.8506 18.6"/>
	<line class="cls-4 accent-line" x1="0" y1="29.333" x2="1.169" y2="29.333"/>
	<line class="cls-4 accent-line" x1="22.019" y1="31.983" x2="27.1986" y2="31.983"/></svg>