<svg xmlns="http://www.w3.org/2000/svg" viewBox="0 0 12 6">
		<rect id = "a" width="12" height="6" style="fill: #fff;stroke: #000;stroke-width: 0.5px"/>
		<path d="M0.3,0 L0.3,6 L4.6,3 Z" style="fill: #fff;stroke: #000;"/>
		<path d="M0.65,0 L0.65,6 L2.2,6 L2.2,2 L3.00,3 L3.00,1.6 L4.6,3 Z" style="fill: #fff;stroke: #000;"/>
		<path d="M11.7,0 L11.7,6 L7.4,3 Z" style="fill: #fff;stroke: #000;"/>
		<path d="M11.35,0 L11.35,6 L9.8,6 L9.8,2 L9.0,3 L9.0,1.6 L7.4,3 Z" style="fill: #fff;stroke: #000;"/>
		<rect width="11.7" height="6" style="fill: #c00;stroke: #000;stroke-width: 0.5px"/>
		<g id="animatronic">
			<path d="M1.35,0 L1.35,6 L2.2,6 L2.2,2 L1.9,3 L2.2,2 L2.2,6 L3.00,3 L3.00,1.6 L1.9,3 Z" style="fill: #fc0;stroke: #000;stroke-width: 1px;stroke-opacity: 0.9"/>
			<path d="M10.65,0 L10.65,6 L9.8,6 L9.8,2 L9.5,3 L9.8,2 L9.8,6 L9.0,3 L9.0,1.6 L9.5,3 Z" style="fill: #fc0;stroke: #000;stroke-width: 1px;stroke-opacity: 0.9"/>
		</g></svg>