<svg xmlns="http://www.w3.org/2000/svg" viewBox="0 0 1000 600">
	<path fill="red" d="M0 0h1000v600H0z"/>
	<path fill="#ff0" d="M454.869 259.272c-11.177-6.943-23.032-12.701-35.225-17.443-10.5 15.58-16.596 34.208-16.596 54.36 0 9.992 1.524 19.645 4.403 28.79 5.08-11.687 11.516-23.033 19.306-33.872a188.215 188.215 0 0 1 28.112-31.838zm-29.806-24.556c13.21 4.573 25.91 10.5 38.104 17.443 2.71-2.372 5.588-4.405 8.298-6.437-12.87-7.113-26.588-12.87-40.644-17.274-2.029 2.033-4.062 4.065-5.756 6.266zm11.855-12.023c15.241 4.064 29.805 9.652 43.522 16.934 3.218-2.032 6.436-3.895 9.484-5.757-14.564-7.452-29.975-12.87-45.894-16.766a57.437 57.437 0 0 0-7.112 5.589zm14.394-10.161c16.766 3.387 33.023 8.806 48.265 16.257 15.41-7.453 31.668-12.872 48.264-16.26-14.056-8.297-30.652-13.04-48.264-13.04s-34.04 4.743-48.265 13.04zm103.81 4.742a209.349 209.349 0 0 0-45.893 16.596 283.47 283.47 0 0 1 9.484 5.757c13.886-7.282 28.45-12.87 43.522-16.934-2.2-2.033-4.572-3.895-7.112-5.42zm13.21 11.346c-14.056 4.234-27.604 9.99-40.644 17.104a158.93 158.93 0 0 1 8.468 6.435c12.023-6.943 24.725-12.87 37.934-17.443-1.694-2.201-3.557-4.233-5.758-6.096zm11.177 13.378a198.118 198.118 0 0 0-35.055 17.274c10.33 9.314 19.644 19.983 28.112 31.837a204.81 204.81 0 0 1 19.305 33.87c2.71-9.314 4.234-18.798 4.234-28.79 0-20.152-6.097-38.78-16.596-54.19zm-8.298 66.385c-10.16-16.427-22.354-30.991-35.902-43.353l-9.145 6.604c22.862 21.338 41.321 48.095 53.006 79.255 2.71-4.064 5.25-8.298 7.282-12.532-4.234-10.16-9.314-20.152-15.24-29.974zm-53.684-44.03c3.05-2.202 6.097-4.404 9.315-6.436-2.71-2.37-5.589-4.572-8.468-6.774l-9.653 6.266h.17c2.88 2.202 5.758 4.572 8.636 6.943zm-17.95-13.55 9.652-5.926-9.652-5.927c-3.218 1.863-6.266 3.895-9.484 5.927 3.218 1.863 6.266 3.895 9.484 5.927zm-9.145 6.606c-3.218-2.202-6.266-4.234-9.484-6.266l-8.636 6.605 9.314 6.435a173.309 173.309 0 0 1 8.806-6.774zm9.145 6.774c-2.88 2.2-5.758 4.572-8.806 7.113 3.048 2.37 5.927 4.91 8.806 7.45 2.88-2.54 5.757-5.08 8.806-7.45-2.88-2.371-5.758-4.912-8.806-7.113zm0 31.668a213.913 213.913 0 0 0-33.362 47.587c-6.266 11.854-11.177 24.217-14.903 36.579 14.226 7.96 30.652 12.7 48.265 12.7s34.04-4.741 48.264-12.7c-3.726-12.362-8.637-24.725-14.903-36.58-9.145-17.78-20.322-33.7-33.36-47.586zm-55.885 64.183c11.007-28.112 27.265-52.667 47.248-72.99-2.88-2.71-5.758-5.25-8.806-7.958-23.2 22.523-41.83 50.465-53.176 82.81a94.433 94.433 0 0 0 10.33 9.823c1.356-3.895 2.88-7.79 4.404-11.685zm64.521-72.99c19.983 20.323 36.24 44.878 47.418 72.99 1.524 3.895 2.88 7.79 4.233 11.685 3.726-3.048 7.282-6.266 10.5-9.822-11.516-32.346-30.144-60.288-53.345-82.811l-8.806 7.959zm-88.23 63.845c11.685-31.16 30.144-57.748 53.175-79.085a186.939 186.939 0 0 0-9.314-6.774c-13.548 12.53-25.74 27.095-35.902 43.522a215.114 215.114 0 0 0-15.24 29.805c2.031 4.403 4.571 8.468 7.281 12.532zm80.102-159.187c59.61 0 108.213 48.603 108.213 108.213s-48.603 108.214-108.213 108.214-108.214-48.603-108.214-108.214 48.603-108.213 108.214-108.213zm47.756-23.71c-3.048 3.558-6.435 8.13-9.822 15.41-.847-1.861-.847-4.062-.34-6.433.848-7.79 3.05-12.532 7.114-19.137 1.354-2.37 2.71-4.403 3.386-6.943 2.54-7.62 2.033-17.781-3.556-25.74.847 8.973-1.863 16.424-4.91 20.996-.509.847-1.017 1.355-1.694 2.033-3.218 3.217-6.774 6.435-11.347 13.886-2.54 4.064-5.08 8.975-7.45 16.765-1.017-1.693-1.356-3.725-1.186-6.096-.34-7.96 1.016-12.87 3.895-20.152 1.018-2.54 2.034-4.742 2.372-7.452 1.187-7.79-.845-17.781-7.619-24.725 2.202 8.637.847 16.427-1.523 21.508-.508.846-.847 1.524-1.355 2.2-2.71 3.727-5.589 7.452-9.145 15.41-1.693 4.574-3.556 9.824-4.572 17.783-1.355-1.524-2.033-3.556-2.202-5.927-1.524-7.791-1.016-12.871.678-20.491.677-2.541 1.354-4.912 1.185-7.622 0-7.96-3.556-17.442-11.346-23.37 3.556 8.298 3.387 16.258 1.862 21.677-.338.677-.677 1.524-1.016 2.2-2.032 4.235-4.403 8.3-6.604 16.767-1.016 4.742-2.032 10.33-1.863 18.29-1.355-1.355-2.37-3.218-3.048-5.42-2.71-7.62-3.049-12.531-2.37-20.49.17-2.71.338-5.081 0-7.621-1.356-7.96-6.436-16.766-14.904-21.338 4.742 7.62 5.758 15.58 5.08 20.999l-.507 2.54c-1.355 4.403-3.05 8.806-3.895 17.612-.34 4.742-.508 10.33 1.016 18.29-1.694-1.186-2.88-2.88-3.895-4.911-3.895-7.113-4.91-12.024-5.589-19.814-.17-2.71-.339-5.08-1.355-7.62-2.37-7.621-8.806-15.58-17.95-18.63 5.927 6.606 8.298 14.226 8.298 19.815 0 .847 0 1.693-.17 2.54-.677 4.572-1.524 9.314-1.016 17.95.508 4.743 1.186 10.33 3.895 17.95-1.863-.845-3.387-2.37-4.742-4.232-4.91-6.266-6.604-11.007-8.467-18.628-.677-2.71-1.185-4.911-2.54-7.451-3.557-6.944-11.177-13.887-20.66-15.58 6.773 5.757 10.33 13.04 11.346 18.458.17.847.17 1.694.17 2.54.169 4.573-.001 9.315 1.86 17.952 1.186 4.572 2.71 9.99 6.605 16.934-1.862-.508-3.556-1.693-5.25-3.387-5.927-5.42-8.467-9.822-11.346-17.104-1.016-2.54-2.032-4.741-3.556-6.943-4.742-6.266-13.21-11.854-23.03-12.024 7.79 4.573 12.36 11.008 14.224 16.258l.508 2.54c.847 4.572 1.355 9.314 4.572 17.443 1.863 4.403 4.403 9.483 9.314 15.75-2.032-.17-3.895-1.186-5.757-2.541-6.605-4.403-9.823-8.467-14.056-15.072-1.355-2.37-2.54-4.403-4.573-6.266-5.588-5.588-14.902-9.822-24.555-8.467 8.298 3.387 13.886 9.144 16.596 14.056.34.677.677 1.524 1.016 2.37 1.523 4.233 2.71 8.806 7.112 16.426 2.54 4.065 5.758 8.637 11.685 14.225-2.032 0-4.065-.677-6.097-1.693-7.282-3.387-11.007-6.774-16.088-12.701-1.863-2.032-3.387-3.895-5.588-5.59-6.436-4.571-16.258-7.281-25.572-4.402 8.806 2.032 15.24 6.774 18.46 11.177.676.678 1.015 1.355 1.354 2.202 2.2 4.064 4.234 8.467 9.822 15.072 3.048 3.725 6.943 7.79 13.548 12.362-1.863.339-3.895 0-6.266-.847-7.62-2.032-11.854-4.91-17.782-9.991-2.032-1.694-3.895-3.218-6.265-4.572-7.113-3.557-17.274-4.573-26.08-.34 8.975.509 16.088 4.404 20.152 8.13.508.677 1.016 1.185 1.524 2.032 2.88 3.556 5.42 7.62 12.024 13.378 3.557 3.048 8.13 6.435 15.41 9.992-1.862.677-4.063.677-6.265.17-7.96-.848-12.532-3.05-19.306-7.114-2.37-1.354-4.403-2.71-6.943-3.387-7.62-2.54-17.612-2.032-25.572 3.557 8.807-.847 16.427 1.863 21 4.91.677.509 1.354 1.017 1.862 1.694 3.386 3.218 6.604 6.774 13.886 11.347 4.064 2.54 9.145 5.25 16.765 7.45-1.692 1.017-3.724 1.356-6.095 1.356-7.96.17-12.87-1.186-20.152-4.065-2.54-1.016-4.742-2.032-7.452-2.37-7.79-1.186-17.78.846-24.725 7.62 8.637-2.201 16.597-.847 21.508 1.524.846.508 1.524.847 2.201 1.355 3.726 2.71 7.451 5.589 15.58 9.145 4.403 1.693 9.653 3.556 17.612 4.572-1.524 1.355-3.556 2.032-5.757 2.202-7.96 1.693-12.87 1.016-20.66-.678-2.54-.677-4.912-1.185-7.622-1.185-7.959 0-17.442 3.556-23.2 11.346 8.128-3.556 16.088-3.387 21.507-1.862.847.338 1.524.677 2.37 1.016 4.065 2.032 8.3 4.403 16.766 6.604 4.573 1.016 10.161 2.032 18.12 1.863-1.354 1.355-3.217 2.37-5.419 3.048-7.45 2.71-12.53 3.049-20.32 2.37-2.71-.17-5.08-.338-7.79 0-7.79 1.356-16.598 6.436-21.17 15.073 7.451-4.91 15.41-5.926 21-5.25l2.37.509c4.403 1.525 8.806 3.049 17.612 3.895 4.742.34 10.33.508 18.29-1.016-1.186 1.694-2.879 2.88-4.91 3.895-6.944 3.895-12.025 4.91-19.815 5.589-2.71.338-5.08.508-7.62 1.355-7.622 2.37-15.412 8.806-18.63 17.95 6.774-5.927 14.395-8.128 19.983-8.298.847 0 1.694 0 2.54.17 4.403.677 9.145 1.524 17.951 1.016 4.742-.34 10.33-1.186 17.782-3.895-.678 1.863-2.202 3.387-4.234 4.742-6.266 4.91-11.007 6.604-18.628 8.467-2.54.677-4.91 1.185-7.282 2.54-7.113 3.557-13.887 11.177-15.58 20.66 5.588-6.774 12.87-10.331 18.29-11.347.846-.17 1.693-.17 2.54-.17 4.572-.17 9.483 0 17.95-1.862 4.573-1.185 9.992-2.71 17.105-6.604-.508 1.862-1.863 3.725-3.557 5.25-5.419 5.927-9.822 8.467-17.104 11.346-2.37 1.185-4.572 2.032-6.774 3.556-6.435 4.742-12.023 13.21-12.193 23.03 4.573-7.791 11.177-12.362 16.427-14.225l2.37-.508c4.573-.847 9.315-1.355 17.444-4.572 4.403-1.863 9.483-4.403 15.918-9.145-.338 1.863-1.185 3.726-2.71 5.588-4.403 6.605-8.298 9.823-15.07 14.056-2.204 1.355-4.236 2.54-6.268 4.573-5.588 5.588-9.653 14.902-8.298 24.555 3.218-8.298 8.975-13.886 13.887-16.596.846-.34 1.524-.677 2.37-1.016 4.403-1.354 8.976-2.71 16.427-7.112 4.065-2.54 8.637-5.758 14.225-11.685.17 2.032-.508 4.065-1.693 6.097-3.387 7.282-6.774 11.007-12.7 16.088-2.034 1.863-3.897 3.387-5.422 5.588-4.572 6.436-7.28 16.258-4.402 25.572 1.862-8.806 6.604-15.241 11.177-18.46.677-.507 1.354-1.015 2.032-1.354 4.064-2.201 8.467-4.234 15.241-9.822 3.556-3.048 7.62-6.943 12.193-13.548.34 1.863 0 4.064-.677 6.266-2.202 7.62-4.91 11.854-10.16 17.782-1.695 2.032-3.219 3.895-4.404 6.435-3.556 7.112-4.742 17.104-.508 25.91.677-8.975 4.403-16.088 8.298-19.983.508-.677 1.185-1.185 1.863-1.694 3.725-2.878 7.62-5.42 13.378-12.023 3.048-3.557 6.435-8.13 9.992-15.41.677 1.862.677 4.063.338 6.265-1.018 7.96-3.05 12.532-7.114 19.306-1.524 2.37-2.71 4.403-3.557 6.943-2.37 7.62-1.862 17.78 3.726 25.74-.847-8.975 1.694-16.595 4.911-21.168.508-.677 1.016-1.354 1.524-1.862 3.218-3.385 6.774-6.603 11.516-13.885 2.37-4.064 5.08-9.145 7.282-16.765 1.016 1.692 1.355 3.724 1.355 6.095.338 7.96-1.016 12.87-4.065 20.152-1.016 2.54-1.862 4.742-2.37 7.452-1.186 7.79.846 17.78 7.62 24.725-2.2-8.637-.847-16.597 1.694-21.508.338-.846.677-1.524 1.185-2.201 2.71-3.726 5.758-7.451 9.145-15.58 1.863-4.403 3.726-9.653 4.742-17.612 1.185 1.524 1.862 3.556 2.201 5.757 1.524 7.96 1.016 12.87-.847 20.66-.677 2.54-1.185 4.912-1.185 7.622 0 7.959 3.726 17.442 11.516 23.2-3.557-8.128-3.557-16.088-1.863-21.507.17-.847.508-1.524.847-2.37 2.032-4.065 4.403-8.3 6.604-16.766 1.016-4.573 2.032-10.161 1.863-18.12 1.524 1.354 2.37 3.217 3.048 5.419 2.88 7.45 3.05 12.53 2.54 20.49-.338 2.54-.508 4.912 0 7.62 1.186 7.96 6.266 16.767 14.903 21.339-4.742-7.62-5.927-15.58-5.08-21 0-.846.17-1.692.508-2.54 1.354-4.402 3.048-8.805 3.895-17.611.17-4.742.338-10.33-1.016-18.29 1.524 1.186 2.88 2.879 3.895 4.91 3.895 6.944 4.91 12.025 5.588 19.815.17 2.71.34 5.08 1.186 7.62 2.54 7.623 8.806 15.413 18.12 18.63-5.927-6.773-8.298-14.394-8.468-19.982 0-.847 0-1.694.17-2.54.677-4.403 1.693-9.145 1.016-17.951-.339-4.742-1.186-10.33-3.726-17.782 1.694.847 3.218 2.202 4.573 4.234 4.91 6.266 6.773 11.007 8.636 18.628.508 2.54 1.186 4.91 2.371 7.282 3.726 7.113 11.177 13.887 20.83 15.58-6.944-5.588-10.5-12.87-11.517-18.29-.169-.846-.169-1.693-.169-2.54 0-4.572.17-9.314-1.694-17.95-1.185-4.573-2.878-9.992-6.773-17.105 2.032.508 3.725 1.863 5.25 3.557 5.927 5.419 8.467 9.822 11.515 17.104 1.016 2.37 1.863 4.572 3.556 6.774 4.742 6.435 13.21 12.023 22.862 12.193-7.62-4.573-12.193-11.177-14.056-16.427-.338-.847-.508-1.524-.677-2.37-.677-4.573-1.355-9.315-4.572-17.444-1.863-4.403-4.234-9.483-9.145-15.75 2.032.17 3.895 1.017 5.758 2.54 6.603 4.404 9.821 8.299 13.885 15.073 1.355 2.202 2.71 4.403 4.573 6.266 5.588 5.587 14.902 9.652 24.555 8.297-8.297-3.218-13.885-8.975-16.426-13.887-.508-.846-.846-1.524-1.016-2.37-1.524-4.403-2.879-8.976-7.282-16.427-2.54-4.065-5.758-8.637-11.515-14.225 1.862 0 3.895.508 6.096 1.693 7.113 3.387 11.008 6.774 16.088 12.7 1.694 2.035 3.218 3.898 5.42 5.423 6.435 4.74 16.257 7.28 25.57 4.572-8.636-2.032-15.07-6.774-18.458-11.347-.508-.677-1.016-1.354-1.355-2.032-2.2-4.064-4.064-8.467-9.653-15.241-3.217-3.556-7.112-7.62-13.717-12.193 2.032-.34 4.064 0 6.266.677 7.62 2.202 11.854 5.08 17.95 10.16 2.033 1.694 3.896 3.218 6.267 4.403 7.112 3.556 17.104 4.742 25.91.508-8.975-.677-15.919-4.403-19.983-8.298-.677-.508-1.185-1.185-1.694-1.863-2.71-3.725-5.419-7.62-11.854-13.378-3.726-3.048-8.298-6.435-15.41-9.992 1.862-.677 3.894-.677 6.265-.338 7.79 1.017 12.532 3.049 19.137 7.283 2.37 1.354 4.403 2.54 6.943 3.387 7.62 2.37 17.781 1.862 25.74-3.726-8.975.847-16.426-1.694-20.998-4.911l-2.033-1.524c-3.217-3.218-6.435-6.774-13.886-11.516-4.064-2.37-8.976-5.08-16.766-7.282 1.694-1.016 3.895-1.355 6.097-1.355 8.13-.338 13.04 1.016 20.152 4.065 2.54 1.016 4.742 1.862 7.452 2.37 7.79 1.186 17.781-.846 24.725-7.62-8.637 2.2-16.427.847-21.508-1.694-.677-.338-1.524-.677-2.2-1.185-3.727-2.71-7.452-5.59-15.41-9.145-4.405-1.693-9.824-3.556-17.783-4.742 1.524-1.185 3.556-1.862 5.927-2.201 7.79-1.524 12.87-1.016 20.49.847 2.541.677 4.912 1.185 7.622 1.185 7.96 0 17.442-3.726 23.37-11.346-8.298 3.387-16.258 3.387-21.508 1.693-.846-.17-1.693-.508-2.37-.847-4.234-2.032-8.299-4.403-16.766-6.604-4.742-1.016-10.16-2.032-18.29-1.863 1.355-1.524 3.218-2.37 5.42-3.048 7.62-2.88 12.7-3.05 20.49-2.54 2.71.338 5.081.508 7.79 0 7.79-1.186 16.597-6.266 21.17-14.903-7.62 4.742-15.41 5.927-21 5.25-.847-.17-1.693-.34-2.54-.678-4.403-1.354-8.806-3.048-17.443-3.895-4.742-.17-10.5-.338-18.29 1.186 1.017-1.693 2.71-3.048 4.912-4.064 6.943-3.895 11.854-4.91 19.644-5.588 2.71-.17 5.08-.34 7.62-1.186 7.621-2.54 15.58-8.806 18.63-18.12-6.606 5.927-14.226 8.298-19.815 8.468-.847 0-1.693 0-2.54-.17-4.573-.677-9.314-1.693-17.95-1.016-4.743.339-10.33 1.186-17.95 3.895.845-1.863 2.37-3.387 4.232-4.742 6.266-4.91 11.007-6.773 18.628-8.636a29.38 29.38 0 0 0 7.451-2.371c6.944-3.726 13.887-11.177 15.58-20.83-5.757 6.943-12.87 10.5-18.459 11.516-.846.169-1.693.169-2.54.169-4.572 0-9.314-.17-17.78 1.694-4.743 1.185-10.162 2.878-17.105 6.773.508-2.032 1.693-3.725 3.387-5.25 5.42-5.927 9.822-8.467 17.104-11.515 2.54-1.016 4.741-1.863 6.943-3.556 6.266-4.741 11.854-13.21 12.024-22.861-4.573 7.619-11.008 12.192-16.258 14.055-.846.338-1.693.508-2.54.677-4.572.847-9.314 1.355-17.443 4.572-4.234 1.863-9.314 4.234-15.75 9.145.17-1.863 1.186-3.895 2.541-5.758 4.402-6.604 8.466-9.822 15.071-13.886 2.37-1.355 4.403-2.71 6.266-4.573 5.588-5.588 9.822-14.902 8.467-24.555-3.387 8.298-9.144 13.886-14.056 16.596-.677.339-1.524.677-2.2.847-4.404 1.524-8.977 2.879-16.597 7.282-4.065 2.54-8.637 5.758-14.225 11.515 0-1.862.677-3.895 1.693-5.927 3.387-7.282 6.774-11.007 12.701-16.257 2.032-1.694 3.895-3.218 5.59-5.42 4.571-6.435 7.281-16.257 4.402-25.57-2.033 8.636-6.774 15.07-11.177 18.458-.678.509-1.355 1.017-2.202 1.356-4.064 2.2-8.467 4.064-15.072 9.653-3.725 3.217-7.79 7.112-12.193 13.717-.508-1.863-.17-4.064.678-6.266 2.201-7.62 4.91-11.854 9.991-17.95 1.694-2.033 3.387-3.727 4.572-6.267 3.557-7.112 4.573-17.104.34-25.91-.509 8.975-4.235 15.919-8.13 19.983-.677.677-1.185 1.185-1.862 1.694-3.726 2.71-7.79 5.419-13.548 12.023z"/>
</svg>
