<svg xmlns="http://www.w3.org/2000/svg" viewBox="0 0 750 500">
	<path fill="#fdb813" d="M0 0h750v500H0z" stroke-width="10"/>
	<path fill="#061a41" d="M0 0h750v250H0z" stroke-width="10"/>
	<path fill="#0c57b8" d="M0 500h750v60H450v60H330v60h-80v60h-50v60h-60v60H0V440z" stroke-width="10"/>
	<path fill="#fff" d="M260 220a120 120 0 0 0-240 0h240z" stroke-width="10"/>
	<path fill="#fdb813" d="M340 150v260h60V150z" stroke-width="10"/>
	<path fill="#ed2939" d="M400 370a40 40 0 0 0 0-80h-80a40 40 0 0 0 0 80z" stroke-width="10"/>
	<path fill="#fdb813" d="M220 180v260h60V180z" stroke-width="10"/>
	<path fill="#ed2939" d="M280 370a40 40 0 0 0 0-80h-80a40 40 0 0 0 0 80z" stroke-width="10"/>
	<path fill="#fff" d="M370 380v-60m-40 20h60m-150-30a120 120 0 0 0-100-80m220-10h70" stroke-width="10"/>
	<path fill="#fff" fill-opacity="3" d="M280 240h20m40 0h20v20m0 20h20v20" stroke-width="10"/>
</svg>