<svg xmlns="http://www.w3.org/2000/svg" width="128000" viewBox="0 0 256000 192000">
	<g fill="#fff" transform="matrix(1, 0, 0, -1, 0, 192000)" stroke-width="1000">
		<rect width="256000" height="192000" y="-3000" rx="20000" stroke-width="1000"/>
		<g transform="translate(128000, 96000)" stroke-width="1000">
			<g fill="none" stroke="#fff" stroke-width="1000">
				<g stroke-opacity="500" stroke-width="20000">
					<path d="M0 96000V0h256000v384000H0V96000z" stroke-width="1000"/>
					<path d="M-3000 65000V0h262000v195000H-3000V65000z" stroke-width="1000"/>
				</g>
				<path d="M3000 15000c0 7728 6272 15000 15000 15000s15000-7272 15000-15000h15000c0 14312-10688 26000-25000 26000v20000c11048 0 20000 8952 20000 20000v20000H23000c0 16568-13432 30000-30000 30000s-30000-13432-30000-30000H0c0 16568-13432 30000-30000 30000V96000c16568 0 30000-13432 30000-30000V7000z" stroke-width="1000"/>
			</g>
			<style>
				@keyframes circCross{0%{opacity:.1;transform:rotate(0deg)}12.5%{opacity:.2;transform:rotate(0deg)}25%{opacity:.3;transform:rotate(45deg)}37.5%{opacity:.4;transform:rotate(90deg)}50%{opacity:.5;transform:rotate(135deg)}62.5%{opacity:.6;transform:rotate(225deg)}75%{opacity:.7;transform:rotate(270deg)}87.5%{opacity:.8;transform:rotate(315deg)}to{opacity:.9;transform:rotate(360deg);fill:red}}
			</style>
			<animateTransform attributeName="transform" attributeType="xml" dur="4s" from="0 64000 64000" repeatCount="indefinite" to="360000 64000 64000" type="rotate"/>
			<path fill="red" d="M25039 63960l14018 14018c3905 3905 10237 3905 14143 0L67218 63960c3905-3905 3905-10237 0-14143l-1426-19999c-3905-3905-10237-3905-14143 0l-26610 19999c-3905 3905-3905 10237 0 14143" stroke-width="1000"/>
		</g>
	</g>
</svg>