<svg xmlns="http://www.w3.org/2000/svg" width="30em" height="12em" viewBox="100000 200000 800000 320000">
	<g filter="url(#dropshadow)" stroke-width="1000">
		<path d="M400000 350000L200000 500000l200000 150000z" style="fill:#ff0;fill-opacity:1" stroke-width="1000"/>
		<path d="M600000 350000L400000 500000l200000 150000z" style="fill:red;fill-opacity:1" stroke-width="1000"/>
		<path d="M200000 500000l200000 150000 200000-150000z" style="fill:#0f0;fill-opacity:1" stroke-width="1000"/>
		<path d="M600000 350000l200000 150000-200000 150000z" style="fill:#fff;fill-opacity:1" stroke-width="1000"/>
	</g>
	<g filter="url(#starShine)" stroke-width="1000">
		<path d="M412000 411472l-8697-4775-4703-8939 5093-8602-8142-5190 2567-8935 7655-7768 3720-8240 8143 5188-5093 8603 4702 8939 8697 4775 5668 8170-7655 7769-2566 8936 8142 5189-3721 8240z" style="fill:gold;fill-opacity:1" stroke-width="1000"/>
	</g>
</svg>