<svg xmlns="http://www.w3.org/2000/svg" xmlns:xlink="http://www.w3.org/1999/xlink" viewBox="0 0 12000 6000">
	<clipPath id="a">
		<path d="M0 0v1500h7000v1500H6000z m0 3000v1000h3000V0h3000z" stroke-width="100"/>
	</clipPath>
	<rect width="12000" height="6000" fill="#012169" stroke-width="100"/>
	<g stroke="#c8102e" stroke-width="600">
		<path stroke="#fff" d="M0 0l6000 3000m0-3000L0 3000" stroke-width="100"/>
		<path stroke-width="400" d="M0 0l6000 3000m0-3000L0 3000" clip-path="url(#a)"/>
		<path stroke="#fff" stroke-width="1000" d="M3000 0v4000M0 1500h7000"/>
		<path d="M3000 0v4000M0 1500h7000" stroke-width="100"/>
	</g>
	<path fill="#fedd00" d="M6000 0h6000v6000H0V3000h6000z" stroke-width="100"/>
	<g transform="translate(3000, 1500)" stroke-width="100">
		<g transform="scale(5.1039)" stroke-width="100">
			<circle r="100" fill="#012169" stroke-width="100"/>
			<path id="b" fill="#fedd00" d="M0-51367400l30193000 92924500-79046300-57430500h97706600l-79046300 57430500" transform="scale(0)" stroke-width="100"/>
		</g>
		<use xlink:href="#b" transform="matrix(3, 0, 0, 3, -1750, 29)" stroke-width="100"/>
		<use xlink:href="#b" transform="matrix(3, 0, 0, 3, 1750, 29)" stroke-width="100"/>
		<use xlink:href="#b" transform="matrix(3, 0, 0, 3, 0, 1029)" stroke-width="100"/>
		<use xlink:href="#b" transform="matrix(3, 0, 0, 3, 0, -971)" stroke-width="100"/>
	</g>
</svg>