<svg xmlns="http://www.w3.org/2000/svg" viewBox="0 0 888 560">
	<path fill="#FFF" d="M0 0h888v560H0z" stroke-width="1"/>
	<path fill="#F7F063" d="M0-112h888v832H0z" stroke-width="1"/>
	<path fill="#F7F063" d="M0-80h888v672H0z" stroke-width="1"/>
	<path fill="#F7F063" d="M0 56h888v224H0z" stroke-width="1"/>
	<path fill="#F7F063" d="M0 144h752v168H0z" stroke-width="1"/>
	<path fill="#F7F063" d="M168 208h560v112H168z" stroke-width="1"/>
	<path fill="#F7F063" d="M352 248h304v56H352z" stroke-width="1"/>
	<path fill="#F24C27" d="M0 112h888v112H0z" stroke-width="1"/>
	<path fill="#F7F063" d="M43 168h560v56H43z" stroke-width="1"/>
	<path fill="#F7F063" d="M64 168h664v56H64zM0 224h664v56H0z" stroke-width="1"/>
	<path fill="#F24C27" d="M304 56h280v280H304z" stroke-width="1"/>
	<path fill="#F7F063" d="M304 56h192v280H304z" stroke-width="1"/>
	<path fill="#161C35" d="M400 56h112v112H400z" stroke-width="1"/>
	<path fill="#F7F063" d="M496 56h56v280h-56zM304 320h56v304h-56z" stroke-width="1"/>
	<path fill="#F7F063" d="M304 376h112v56H304zM0 112h112v280H0z" stroke-width="1"/>
</svg>