<svg xmlns="http://www.w3.org/2000/svg" xmlns:xlink="http://www.w3.org/1999/xlink" viewBox="0 0 900 600">
	<defs>
		<clipPath id="c">
			<path fill="#fff" stroke="#c09300" stroke-width=".242" d="m-109.449 181.528-.224.007c-1.642 0-5.455-.842-6.925-2.105-1.54 1.167-5.416 2.105-7.032 2.105a1.22 1.22 0 0 1-.225-.023l.038 1.096c.085 1.297.313 2.598.658 3.85 1.087 3.941 3.312 7.29 6.501 9.831 3.192-2.543 5.42-5.895 6.51-9.839a19.36 19.36 0 0 0 .66-3.85 21.33 21.33 0 0 0 .038-1.073z"/>
		</clipPath>
		<path id="d" d="M-123.976 179.26h4.883v17.198h-4.883z"/>
	</defs>
	<path d="M0 0h900v600H0z"/>
	<path fill="#fff" d="M0 0h900v400H0z"/>
	<path fill="#ce1126" d="M0 0h900v200H0z"/>
	<g fill="#fff" stroke="#c09300" transform="translate(344.14 97.434) scale(.2331)">
		<path stroke-linejoin="round" stroke-width="5.45" d="m457.602 879.344 293.822 272.762-20.918-495.38c-3.073-75.078-68.316-57.853-115.709-30.77-48.01 30.77-102.783 30.77-160.648 10.454-57.852 20.315-112.629 20.315-160.64-10.455-47.388-27.08-112.624-44.308-115.704 30.77l-20.931 495.38z"/>
		<path id="a" fill="#c09300" stroke="none" d="m211.606 639.483-20.309 481.866-34.471 30.752 20.931-495.372c9.842-6.77 27.084-17.232 33.849-17.232zm41.271 34.493-17.233 403.078-34.458 35.265 20.923-465.44c6.774 6.764 27.088 23.38 30.769 27.07zm37.539 30.76-13.535 336.182-27.693 27.071 17.238-383.562c6.753 6.77 20.292 16.62 23.99 20.309zm40.627 17.246-13.54 286.524-27.084 21.965 13.54-318.949c6.774 3.076 20.314 10.459 27.084 10.459zm37.539 0-9.854 238.775-27.693 27.084 10.468-262.77c6.757 0 23.995 0 27.08-3.08z"/>
		<use xlink:href="#a" transform="matrix(-1 0 0 1 908.254 0)"/>
		<path fill="#c09300" stroke-width="4.607" d="m467.684 933.657 41.24 187.715-13.547 13.536-14.154-10.463-23.39-167.392 9.849 167.392-13.544 17.228-13.54-17.228 9.85-167.392-23.383 167.392-14.168 10.463-13.533-13.536 41.233-187.716h27.087z"/>
		<g id="b" fill="none" stroke="#c09300" stroke-linejoin="round">
			<path fill="#fff" stroke-width="5.101" d="m361.804 851.201-81.856 290.463 112.637 17.236 47.998-218.47-78.78-89.23z"/>
			<g stroke-width="5.448">
				<path d="m334.733 950.303 9.848 23.994 53.219-50.83"/>
				<path d="m371.585 890.156 11.136 104.447 33.851-44.309m-13.54 17.212 18.49 63.816m7.25-23.446-37.4 56.806m11.665 56.698-11.97-56.62-10.45-57.587-25.056 33.93-10.989-39.121-35.07 35.971 17.836 65.429 24.615-40.477 13.538 41.238 25.27-39.307m-86.823 70.071 22.736-31.934 14.813 49.152 20.31-34.46 13.547 41.244"/>
			</g>
		</g>
		<use xlink:href="#b" transform="matrix(-1 0 0 1 908.254 0)"/>
		<g stroke-linejoin="round">
			<path stroke-width="10.202" d="M454.127 1271.505c85.558 0 167.418-6.769 215.42-20.31 20.316-3.684 20.316-14.147 20.316-27.694 20.315-6.768 9.845-30.762 24-30.762-14.155 3.7-17.228-24-34.462-20.299 0-24.01-24.006-27.083-44.317-20.325-40.626 13.546-112.637 16.625-180.958 16.625-68.316-3.079-139.716-3.079-180.953-16.625-20.31-6.758-44.304-3.685-44.304 20.325-17.239-3.7-20.315 24-34.467 20.3 14.152 0 3.687 23.993 24 30.761 0 13.547 0 24.01 20.926 27.694 47.385 13.541 129.253 20.31 214.798 20.31z"/>
			<g stroke-width="5.448">
				<path d="M337.822 1141.642c27.69 3.695 58.466 6.769 82.478 3.695 13.528 0 23.378 23.383-3.701 27.083-23.995 3.068-61.542 0-81.856-3.7-17.233-3.078-54.776-9.844-78.783-16.625-24.003-10.452-6.762-30.751 6.766-27.68 20.931 6.765 48.015 13.54 75.099 17.228zm232.653 0c-27.7 3.695-58.466 6.769-81.86 3.695-14.16 0-24.008 23.383 3.077 27.083 24.005 3.068 61.55 0 81.847-3.7 17.242-3.078 54.78-9.844 78.784-16.625 24.01-10.452 6.78-30.751-6.767-27.68-20.926 6.765-48.006 13.54-75.081 17.228z"/>
				<path d="M252.877 1128.129c-20.923-3.695-30.77 20.299-23.993 33.835 3.073-6.768 17.23-6.768 20.312-13.536 3.681-10.455-3.082-10.455 3.681-20.3zm81.856 62.936c0-13.526 13.533-11.863 13.533-25.404 0-6.766-3.685-17.234-10.454-17.234s-13.546 6.768-13.546 13.536c-3.08 13.544 10.467 15.578 10.467 29.102zm97.429-38.955c20.294 0 18.283 27.089 8.432 40.627 0-9.846-17.23-13.538-17.23-20.3 0-10.475 15.556-10.475 8.798-20.327zm223.215-23.981c20.926-3.695 30.778 20.299 24.004 33.835-3.08-6.768-17.233-6.768-20.31-13.536-3.694-10.455 3.08-10.455-3.694-20.3zm-81.855 62.936c0-13.526-13.528-11.863-13.528-25.404 0-6.766 3.687-17.234 10.459-17.234 6.766 0 13.54 6.768 13.54 13.536 3.08 13.544-10.471 15.578-10.471 29.102zm-97.43-38.955c-20.302 0-18.288 27.089-8.44 40.627 0-9.846 17.228-13.538 17.228-20.3.003-10.475-15.556-10.475-8.787-20.327z"/>
			</g>
			<path stroke-width="3.822" d="M259.656 1134.907c6.778 0 17.236 3.079 20.315 6.766l-20.335-6.779zm33.806 10.468c3.697 0 17.239 3.073 24.007 6.758l-24.025-6.779zm123.127 13.514c-6.769 0-20.31 0-23.994 3.068l23.982-3.09zm-37.539 0c-3.684-3.7-17.231-3.7-23.997 0h23.982zm269.592-23.982c-6.769 0-16.623 3.079-20.316 6.766zm-33.85 10.468c-3.69 0-17.234 3.073-24.004 6.758l24.024-6.779zm-123.126 13.514c6.776 0 20.314 0 24.004 3.068l-24.024-3.09zm37.538 0c3.69-3.7 17.24-3.7 24.005 0h-24.025z"/>
		</g>
		<path fill="#c09300" stroke="none" d="M253.95 1189.006c-2.291-.438-3.494-2.251-2.918-4.396.703-2.613 2.796-4.108 4.773-3.408 1.258.444 3.56 2.765 3.57 3.598.012.956-1.205 3.23-1.728 3.234-.226.002-.576.2-.778.437-.43.507-1.773.753-2.92.534zm235.656 16.817c-.852-.316-2.21-2.225-2.208-3.105.008-1.661 2.463-4.367 3.984-4.382.752-.005 2.81 1.064 3.579 1.864 1.394 1.45 1.09 3.83-.662 5.182-.871.666-3.442.907-4.701.44zm1.545 10.639c-1.803-.61-2.462-1.492-2.609-3.49-.152-2.083.05-2.407 2.25-3.607l1.57-.855 1.485.663c2.06.918 2.975 1.908 3.048 3.292.078 1.492-1.029 3.018-2.747 3.788-1.508.676-1.598.682-2.997.21zm-218.282-46.719c-1.485-.047-3.523 1.318-4.692 2.01-2.785.654-6.026 2.365-8.714.537-2.648-.818-6.17-.173-6.57 3.084.68 2.796 4.598 4.394 6.972 2.547 1.762-2.306 6.57-3.659 7.105.268-1.96 2.97-1.737 6.902-3.351 10.055-.263 1.964-1.08 3.83-2.145 5.497-1.983.2-4.092-.035-5.765 1.206-2.686.147-5.426 1.482-6.972 3.754-1.73 2.48-3.383 5-3.888 8.05.46 3.11 4.022 4.004 6.704 4.158 2.86.789 5.724 1.82 8.58 2.683 4.656 1.042 9.018 2.725 13.675 3.753 6.797 2.05 13.934 2.992 20.78 4.827.718.238 1.39.445 2.145.536 2.842.59 4.324-2.5 4.558-4.826 1.41-4.975 2.486-10.035 3.888-15.016.965-1.996 2.13-6.508-1.742-5.495-2.21 1.324-4.084 3.318-6.838 3.485-3.75.218-1.61 4.054-.134 5.63.326 2.52-.471 5.53-2.145 7.508-2.23 1.414-5.026-.24-7.374-.804-2.465.043-7.393-1.215-5.094-4.558.816-2.475.888-5.183 1.877-7.64 1.259-2.638 1.439-5.515 2.01-8.313-1.55-3.335-4.198 1.097-6.3 1.474-1.45 1.008-6.888 1.435-4.023 4.023 2.468 1.875.576 5.134.134 7.508-.158 3.304-3.594 4.093-6.301 3.352-2.693-.13-6.441-2.135-4.156-5.095.52-2.467 1.38-4.89 1.877-7.374l2.95-8.848c.465-2.66 1.42-5.182 2.68-7.508.075-2.94 2.05-5.47 2.01-8.446-.2-1.454-.85-1.983-1.741-2.01zm-15.417 31.103c.35-.06.6-.008.938.134 1.071.456 1.103 1.327 0 2.28-.482.415-1.03.816-1.207.804-2.006-.173-2.598-.471-2.68-1.207-.075-.649.13-.835 1.474-1.475.667-.318 1.124-.475 1.475-.536zm-4.446 21.537c-2.128-2-1.785-3.46 1.361-5.806 1.347-1.003 2.163-.89 3.703.515 2.37 2.162 2.465 3.53.373 5.383-1.034.916-1.486 1.104-2.69 1.116-1.259.013-1.616-.144-2.747-1.208zm13.085 3.947a3.69 3.69 0 0 1-2.67-4.666c.55-1.865.87-2.048 3.604-2.076 3.067-.03 3.662.483 3.691 3.183.017 1.52-.1 1.872-.857 2.576-.888.826-2.596 1.271-3.768.982zm382.293.343c-.974-.81-1.17-1.177-1.181-2.209-.013-1.761 1.002-3.053 3.2-4.049 2.926-1.325 4.118-1.143 5.22.797 1.465 2.58 1.395 3.633-.36 5.371-.969.96-1.15 1.016-3.368 1.038-2.177.013-2.426-.045-3.511-.948zm-364.918 4.933c-1.561-.416-2.37-1.588-2.39-3.46-.018-1.433.086-1.661 1.087-2.445.65-.508 1.674-.943 2.482-1.053 1.145-.157 1.564-.057 2.485.59 2.362 1.66 2.864 3.303 1.496 4.897-1.457 1.697-2.837 2.09-5.16 1.47zm94.04 4.205c-.347-.432-1.112-.687-1.19-1.232.136-2.38.25-4.79 1.01-7.07.411-2.244.05-4.588.832-6.773.802-3.977.801-8.077 1.725-12.028.043-2.035.236-4.071.826-6.03.676-3.096.058-6.333.97-9.392-.1-1.15 1.22-4.218 2.38-2.4 1.686 2.473 3.91 4.483 6.095 6.5 1.878 1.084.154 2.68-1.144 3.217-1.779.702-2.213 2.664-2.087 4.385-.25 1.779-.963 3.462-1.036 5.277-.377 2.67-.303 5.383-.65 8.05-.78 2.613-.483 5.405-.744 8.098.034 1.71-.778 3.263-.666 4.979-.208 1.74-.286 3.836-1.747 5.03-1.409.712-3.449.589-4.582-.611zm127.416-42.044c-2.069 1.565-3.919 3.412-5.765 5.23-2.542 1.925 2.088 3.045 2.681 4.692.675 2.515.635 5.193.805 7.776.77 2.365 1.108 4.884.938 7.374-.213 2.67-3.695 2.107-5.219 3.62-2.11.888-2.953 2.962-4.56 4.423-1.056 2.07-1.34 4.618-1.474 6.972.151 1.92-1.298 4.072 0 5.765.167.231.365.56.536.8.434.619 1.47.123 2.145.265 2.16-.12 4.412.203 6.435-.67 5.19-.898 10.43-.97 15.686-1.207 3.214.103 6.307-1.016 9.519-.938 2.517.558 3.65-2.171 3.62-4.155-1.426-2.804-.194-6.13-1.34-8.983-1.01-2.885-.612-6.126-1.074-9.116-.063-2.353-3.049-3.225-4.558-1.475-1.465 1.48-3.83 1.776-4.96 3.62-1.273 2.584 2.691 2.587 3.351 4.558.755 1.992.508 4.207.67 6.3.49 2.544-2.27 2.689-4.021 2.95-2.304.865-5.536 1.44-6.84-1.34-.818-2.056-.706-4.26-.937-6.434-.057-3.826-.977-7.587-1.207-11.395-.22-4.706-1.033-9.381-1.34-14.077-.044-1.954-.304-5.14-3.084-4.558zm-2.681 35.394 1.34.134.143 1.609.133 1.608-1.743.537a14.22 14.22 0 0 1-1.742.402 10.94 10.94 0 0 1-.805-.537c-.942-.68-.7-1.651.536-2.95.698-.73 1.025-.871 2.145-.803zm-128.554-39.812c-1.63.571-3.7 2.97-5.362 2.95-3.776.26-3.249 3.94-.537 5.22.358 1.115.022 2.522.134 3.754.527 3.387-1.61 6.113-1.206 9.519-.19 3.733-1.317 7.369-1.475 11.127-1.06 3.876-1.072 7.86-1.743 11.798-.447 3.532-3.001 2.286-5.229 1.34-.017-1.53-.116-3.026-.134-4.557.929-3.506-1.892-4.53-4.692-4.96-2.944.278-4.388-2.245-3.754-4.827 1.265-1.506 4.445-1.087 6.435-1.34 4.21.87 4.04-4.771 1.877-6.705-1.479-2.727-5.14-3.9-6.167-6.703.41-3.717-2.058-7.432-5.094-9.25-4.67-.328-8.196 3.702-9.921 7.64-1.942.561-3.878 1.144-5.765 1.877-3.042.76-7.378 6.036-3.218 8.044 2.335.643 9.44 2.264 6.301 5.496-1.768 3.034-5.152 3.086-8.178 2.28-3.104.002-6.56-1.51-6.435-5.095-.633-3.217-.529-6.684-2.01-9.653-.638-3.6-4.723-2.758-4.961.536-3.146 2.291-2.727 5.996-.536 8.714 1.367 3.127.013 6.768-1.34 9.652-.82 3.754-4.96 3.882-7.911 5.095-1.448.562-6.986-.334-4.96 2.815 3.23 1.14 7.09 2.165 10.457 1.34 3.53-.438 6.596-2.85 8.312-5.899 2.371-2.405 6.444-1.147 9.52-1.209 3.314-.007 6.703 2.33 9.92.806.932-2.42 5.242-6.417 6.57-2.28-.227 3.702 3.042 5.688 6.434 5.23 3.706-.212 2.336 2.62 2.28 4.826.244 4.01 2.83 6.112 6.166 7.776 1.137.306 2.338.203 3.486 0 3.217-1.009 6.674-2.44 7.651-6.033 1.301-2.92 1.332-6.224 2.28-9.25.76-4.848 1.74-9.696 1.875-14.613 1.184-4.455.844-9.164 1.742-13.675.568-3.355.99-6.708 1.341-10.056-.393-1.79-1.166-2.09-2.145-1.743zm-29.092 17.83c.65.072 1.01.867 1.073 2.272.068 1.56.885 2.834 1.877 3.083.782.196.715 1.025-.134 1.609-.494.34-1.377.546-2.95.537-2.48-.013-4.017-.655-5.362-2.011l-.805-.804 1.207-.804a27.58 27.58 0 0 0 2.413-2.145c1.222-1.247 2.032-1.822 2.681-1.743zm283.282-33.798a35.878 35.878 0 0 0-7.105 1.072c-4.463-.278-6.703 4.406-2.413 6.703 2.58 6.583 6.608-1.36 10.725-.804 6.167 1.2 6.688 7.86 7.642 12.87.347 4.964 1.777 9.79 3.217 14.48 4.128 4.589-3.092 7.466-6.167 3.888-2.622-2.85-8.239-6.347-11.395-2.413-3.877 1.642-4.036 6.823-7.24 8.312-5.187 1.58-5.84-4.8-8.58-7.507-2.52-3.537-7.33-3.846-11.26-5.095-1.84-3.727-.88-10.063-4.69-12.602-3.2 1.305-9.062 7.302-4.152 10.055 4.795 4.12-2.093 6.01-4.29 8.848-3.14 3.495-3.64 8.306-4.157 12.737-5.402 2.984-6.454-3.38-7.105-7.374-.42-4.768-4.444-3.37-7.24-1.61-4.086 1.657-6.126 5.537-8.982 8.58-.343 2.78.16 5.82.134 8.716.928 3.48 5.158 1.846 7.776 1.608 4.199-1.755 5.918 2.693 2.547 5.23-2.282 2.9-9.523 1.386-8.848 6.033 2.333.274 4.764.186 7.105 0 4.678-1.277 9.7-4.58 10.19-9.786.615-4.54 7.153-3.713 10.724-4.692 4.464-1.287 9.844-1.618 10.86 4.022 3.042 3.196 9.645 6.795 13.003 2.413 3.408-2.082 5.046-5.74 4.826-9.653-.695-3.366 5.443-3.488 6.971-1.61 2.237 3.682 9.228 2.596 12.603.538 3.588-2.648 4.366-7.315 9.521-7.374 7.645-2.29 15.59-3.61 23.058-6.435 6.05-1.32-.9-5.14-2.413-7.374-4.607-2.278-8.615 7.044-13.81 2.413-4.015-3.072-3.74-8.91-5.23-13.407-1.016-5.823-.759-12.538-4.959-17.16-2.885-3.067-6.804-3.806-10.86-3.62zm-29.226 40.622c.54-.013 1.148.254 2.145.804 1.88 1.037 3.22 2.757 3.217 4.155-.001.912-.233.974-1.608 1.609-.846.39-1.808.809-2.146.804-.776-.01-2.678-1.531-2.68-2.146-.01-.255-.25-1.229-.54-2.01-.51-1.376-.43-1.358.263-2.28.443-.59.8-.924 1.34-.938zm28.02 1.474c1.6-.104 2.55.394 3.22 1.61.78 1.41.25 2.492-1.74 3.35-.871.379-1.744.685-1.875.67s-.851-.441-1.61-.937c-1.157-.763-1.326-1.132-1.34-2.011-.011-1.353 1.5-2.56 3.353-2.682zm-38.34.402c.47-.072.898.172 1.479.67.77.664 1.015 1.197 1.206 2.548.134.939.113 2.153 0 2.68-.21.97-.23.927-2.413.94-2.747.026-3.002-.274-2.95-2.816.034-1.616.05-2.05.939-2.949.688-.696 1.275-1 1.742-1.073zm-23.591 6.168c.856.2 1.664.847 1.877 1.876.28 1.363.034 1.983-1.073 2.548-.953.485-3.15.647-3.754.268-.196-.123-.6-.442-.804-.805-.292-.52-.238-.77.134-1.072.26-.212.538-.515.536-.67s.289-.701.67-1.208c.628-.832 1.559-1.14 2.414-.938zm39.683 5.094c.764-.004 1.41.26 1.877.67.795.697.768 1.718-.134 2.414-.58.447-3.74.406-4.826 0-.484-.181-.668-.424-.67-.94-.011-.603.159-.976 1.205-1.474.877-.418 1.784-.665 2.548-.67zm-73.666 20.673c-.411-.268-1.02-.502-.407-.95.74-1.297 2.222-1.746 3.537-2.23 2.35-1.017 4.379-2.746 5.893-4.797.214-1.43 1.818-2.204 1.81-3.697.014-2.038.135-4.126-.362-6.118-.55-1.826-1.937-3.226-3.546-4.178-1.1-.865-2.89-1.103-3.297-2.635-.225-1.47 1.088-2.59 1.547-3.9.958-1.81 1.764-3.706 2.793-5.47 1.11-1.235 2.826-.068 3.4 1.125.813 1.19 1.532 2.47 1.935 3.85 1.298 1.424 2.448 3.093 2.914 4.985.637 1.332 1.644 2.584 1.585 4.144-.001 1.787 1.007 3.378.944 5.175.057 2.406.056 4.913-.823 7.183-.6 1.26-1.804 2.015-2.602 3.143-1.37 1.268-2.877 2.484-4.633 3.158-1.24.395-1.96 1.826-3.514 1.479-2.207.039-4.447.339-6.637-.017.137.232-.672-.393-.537-.246zm-29.387 1.93c-1.042-1.07-1.267-1.524-1.28-2.575-.012-1.062.192-1.483 1.21-2.513 1.88-1.9 2.8-1.945 6.046-.302 3.102 1.57 4.15 1.711 4.43.6.267-1.074 2.053-2.056 3.75-2.063 1.072-.01 1.68.204 2.54.873 1.078.84 1.13.97 1.158 2.914.017 1.987-.01 2.062-1.246 3.158-1.19 1.047-1.381 1.11-2.855.964-1.876-.19-3.001-1.047-3.307-2.525-.221-1.072-.598-1.328-.88-.6-.091.235-.553.524-1.026.643-.873.22-2.355 1.152-3.407 2.145-.398.375-1.095.552-2.225.563-1.525.013-1.737-.078-2.91-1.283zm-85.03-38.181c-2.853.03-5.924 2.429-6.303 5.228.652 3.228 3.333 6.39 1.609 9.787 1.19 4.346-3.266 5.995-6.301 3.486-1.832-4.168-2.76-8.735-5.496-12.469-3.451-.976-4.954 4.535-7.375 6.436 1.2 3.24 4.7 6.145 5.094 10.189.838 3.925-1.55 8.282-4.96 10.323-2.943 2.81-6.974 1.804-10.592 2.412-4.393 2.568 3.226 3.507 5.23 3.62 4.494.457 9.16-.136 12.467-3.486 3.3-1.575 3.045-7.281 6.972-7.91 6.814-.303 13.568 1.046 20.378 1.208 3.644.87 9.282-.435 11.798 2.278.008 4.75 4.036 7.68 7.91 9.519 2.14.595 4.394-2.057 6.569-2.548 4.14-1.32 2.882-6.443 5.363-8.446 7.08-.383 14.227-.302 21.316-.402 1.35.034 1.749-1.887 2.683-2.68-.156-2.74-.255-5.46-.67-8.18-1.366-3.46.22-7.912-2.28-10.86-3.56-.97-6.59 2.29-10.19 2.547-3.972 1.77-7.32 5.439-7.506 9.92-2.353 3.847-6.125-.684-4.827-3.887-.148-1.396.302-3.022-.134-4.29-2.175-2.61-5.983-1.757-8.982-2.145-4.37.174-8.635-.77-13.005-.67-3.83-.29-7.816.333-11.53-.67-4.425-.126-3.816-4.454-4.558-7.508-.785-.58-1.73-.813-2.68-.803zm8.579 15.82c1.47.03 2.859.222 4.29.4 1.848.306 3.817-.634 5.63 0 4.19.714 8.38.546 12.603.94 1.114-.017 1.912.792 2.68 1.475v8.848c-.127 1.105.328 2.566-.67 3.352-.32.219-.68.459-1.071.535-1.161-.3-2.39-1.064-2.95-2.145-.178-1.534.076-3.02.133-4.558-.03-.398.174-1.017 0-1.341-.912-.648-1.947-1.069-3.083-1.074-3.644-.125-7.216-.393-10.86-.536-3.032-.191-6.148.26-9.116-.536-1.151-.42-2.65-.275-3.351-1.475-1.005-1.168.444-2.56 1.474-3.083 1.366-.62 2.819-.832 4.29-.804zm48.396 1.072c.68-.01.898.215 1.207 1.476l.536 2.145c.156.506-.093.67-.804.938-2.12.8-4.23.72-4.96-.268-.334-.448.054-1.864.669-2.413 1.243-1.11 2.617-1.875 3.35-1.877z"/>
		<g transform="translate(-1476.428 -417.989) scale(4.29012)">
			<path stroke-width="1.218" d="M462.31 253.09c.667.04-.902-3.568-.902-3.568 1.765 1.804 8.43 2.235 8.43 2.235-4-1.766-7.998-15.096-7.528-25.721.432-10.664-1.528-14.86-3.097-16.428-2-2-8.43-3.764-12.664-4-2.4-.117-2 1.804-2 1.804-4.43-1.137-8.86-1.568-10.86-.235-1.89 1.255-2.28 7.528-.91 6.43 3.332-2.666 6.234-.235 8.233 2.666 1.764 2.549 1.647 9.763-.902 18.192-2.666 8.861-9.959 17.722-9.959 17.722 3.96 0 9.528-3.528 9.528-3.528l-1.333 5.52c4.195-1.999 7.528-5.096 7.528-5.096l4 4.195c1.332-1.764 4-4.195 4-4.195s3.331 3.53 8.428 4z"/>
			<path fill="none" stroke-width="1.27" d="M446.12 227.57s-2.235 16.428-6.43 21.094m9.96-21.524s-.863 16.623-3.764 21.956m6.894-21.286s0 18.192 1.098 21.289m2.862-20.389s.902 15.29 4.666 20.819"/>
			<path fill="#c09300" stroke-width=".354" d="M442.08 219.61c-.196-1.45-.549-2.588-1.059-3.333-2-2.9-4.9-5.332-8.23-2.666 0 0 1.14-3.529 3.57-3.646 1.88-.118 6.157 1.411 9.92 7.841 0 0-2.782-.627-3.45-.039-1.254 1.098-.744 1.843-.744 1.843zm-9.64-10.35c.274-.902.706-1.725 1.255-2.078 2-1.333 6.43-.902 10.86.235 0 0-.392-1.92 2-1.803 4.234.235 10.664 2 12.663 4 .47.51 1.02 1.254 1.49 2.39h-.078c-.98-1.372-3.764-1.293-4.43-1.215-1.06.118-1.726.078-3.138.431-.666.157-1.686.353-2.235.784-.43.353-.784 1.647-1.45 1.647-1.059.008-.98-.265-1.255-.579-.353-.43-.549-1.06-.902-1.02-1.097.196-2.862-.667-5.096-2.431s-3.098-2.196-5.999-2c-2.862.235-3.764 1.843-3.764 1.843z"/>
			<circle cx="448.824" cy="210.672" r="1.176" stroke="none"/>
		</g>
		<path stroke-width="4.934" d="M454.042 985.868C594.08 878.16 582.073 720.381 582.073 720.381c-3.695.74-7.205 1.108-10.9 1.108-29.375 0-99.437-16.805-115.782-38.151-17.509 19.32-89.106 38.151-118.296 38.151-3.695 0-7.39-.37-10.9-1.108 0 0-12.193 157.774 127.846 265.487z"/>
		<path fill="none" stroke-width="3.93" d="m570.905 731.934-3.637.113c-26.622 0-88.458-13.659-112.294-34.138-24.966 18.917-87.823 34.138-114.015 34.138-1.228 0-2.442-.15-3.645-.371-.06 5.967.25 12.151.62 17.777 1.386 21.025 5.074 42.125 10.672 62.43 17.624 63.902 53.695 118.206 105.417 159.4 51.765-41.228 87.88-95.584 105.542-159.533 5.608-20.301 9.307-41.399 10.706-62.422.327-5.886.655-13.093.634-17.394z"/>
		<g fill-rule="evenodd" stroke="none" clip-path="url(#c)" transform="translate(2325.464 -2179.285) scale(16.04207)">
			<use xlink:href="#d" fill="#c09300"/>
			<path d="M-119.093 179.26h4.883v17.198h-4.883z"/>
			<path fill="#c09300" d="M-114.21 179.26h4.883v17.198h-4.883z"/>
		</g>
	</g>
</svg>
