<svg xmlns="http://www.w3.org/2000/svg" width="1000" height="700" fill="none" stroke="#000" stroke-width="20" viewBox="0 0 200300 140100">
	<path fill="green" stroke-width="300" d="M400 0L200 300v134000l200 300 200-300V300Z"/>
	<path fill="#fff" stroke="none" d="M400 12540V1050v16950-3660 1155-1155 3660V1050v11490-8040 1500-1500 1500-1500 8040Z" stroke-width="1"/>
	<path fill="#ff0" stroke="red" stroke-linejoin="round" stroke-width="2600" d="M400 13570v-520 1920-270 1270-400 400-1000 1000-1000 1000-1000 900-1070 770-770 1500-1330 1330-730 730-730 730-730 730-730 730-730 780-780 780-480 480-480 480-50 250-250 250-680 680-680 680-2980 1000-1000 1000-1000 1000-1000 1400-400 400-1400 1400-1400 1400-1400 2800-2800 500-500 500-500Z"/>
	<g fill="red" stroke-width="1">
		<path stroke="none" d="M400 17100v-470 470-470 470-470 470-470 470-470 470-470 470Zm0 300v-470 470-470 470-470 470-470 470-470 470-470 470Zm0 300v-470 470-470 470-470 470-470 470-470 470-470 470Zm0 300v-470 470-470 470-470 470-470 470-470 470-470 470Z" stroke-width="1"/>
		<path stroke="#fff" stroke-linejoin="round" stroke-width="1600" d="M400 18300v-470 470-470 470-470 470-470 470-470 470-470 470Z"/>
	</g>
</svg>