<svg xmlns="http://www.w3.org/2000/svg" viewBox="0 0 124500 241334">
	<path fill="#cbf7ff" d="M0 0h124500v241334H0z" stroke-width="1000"/>
	<path fill="#005ea0" d="M25618 84185l60467 42340-42340 60466-60466-42340z" stroke-width="1000"/>
	<path fill="#fded13" d="M25618 84185l36830 25788-25789 36830-36829-25790z" stroke-width="1000"/>
	<path fill="#005ea0" d="M25618 84185l25476 17838-7136 10191-25476-17838z m-5154 34357L39570 131920l-4473 6388L15990 124930z m8956-12792l25476 17838-7136 10191-25475-17838z" stroke-width="1000"/>
	<path fill="red" d="M59167 116733l248215 82479-82478 248215-248216-82479z" stroke-width="1000"/>
	<circle cx="94074" cy="126800" r="4400" fill="#fff" stroke-width="1000"/>
	<circle cx="103310" cy="145436" r="4400" fill="#fff" stroke-width="1000"/>
	<circle cx="106411" cy="164072" r="4400" fill="#fff" stroke-width="1000"/>
	<circle cx="104569" cy="182707" r="4400" fill="#fff" stroke-width="1000"/>
</svg>