<svg xmlns="http://www.w3.org/2000/svg" viewBox="0 0 20 16">
 		<title>Mauritania</title>
 		<rect width="20" height="16" fill="#4ba931"/>
 		<path d="M5 0h 10v16H 5z" stroke="#fff" fill="none"/>
 		<rect width="20" height="5" fill="#fad201"/>
 		<rect width="20" height="5" y="11" fill="#c70b00"/>
 		<circle cx="10" cy="8" r="1" stroke="#000" fill="none"/>
 		<path d="M 16.31,8 L 14.86,6.75 C 14.68,6.57 14.45,6.5 14.2,6.5 H 13.8 L 13,6.19 L 13,13.31 L 13,13.81 C 13,13.94 13.06,14 13.19,14 H 16.81 C 16.94,14 17,13.94 17,13.81 V 8 L 16.31,8 Z M 9.5,6.5 C 9.4,6.5 9.3,6.55 9.23,6.63 L 8.12,8 H 8.06 L 7.97,8.16 L 7.5,9.41 L 4.28,5.5 L 4.5,5.2 L 7,6.58 L 7,5 C 7,4.94 7,4.88 7.06,4.81 L 8,4.19 L 8,3.81 C 8,3.65 7.94,3.5 7.81,3.5 H 5.19 C 5.06,3.5 5,3.65 5,3.81 V 6.09 L 5,7 L 3.81,7 C 3.67,7 3.5,7.06 3.5,7.19 L 3.5,7.58 L 2.19,7.81 C 1.69,7.96 1.2,7.88 0.65,7.63 C 0.2,7.4 -0.06,6.99 0.05,6.5 L 0.22,5.88 C 0.22,5.88 0.23,5.79 0.24,5.78 L 2.5,4 L 10,11.25 C 10,11.32 10,11.39 10,11.53 L 10,12 L 4,12 C 3.93,12 3.87,12 3.81,12 L 0.44,12 C 0.34,12 0.25,11.91 0.22,11.78 C 0.12,11.3 1.09,7 3.5,3.03 L 3.81,2.19 C 6.76,-0.59 11.24,-0.59 14.19,2.19 L 14.5,2.97 C 16.91,6.03 17.88,10.47 17.78,10.97 C 17.64,11.5 17.02,11.96 16.31,11.81 L 16,11.7 L 10,5.72 L 10,6.5 Z" transform="rotate(-18, 10,8)" stroke="#000" stroke-width="0.5" fill="#fff"/></svg>