<svg xmlns="http://www.w3.org/2000/svg" viewBox="0 0 400 600">
    	<!-- border -->
    	<polygon points="0 167 600 167 600 533 0 533" fill="#DD0000" />
    	<polygon points="0 4 0 2 67 0 67 2" fill="#DD0000" />
    	<polygon points="0 598 600 598 600 600 67 600" fill="#DD0000" />
		<!-- blue stripes -->
		<polygon points="0 4 4 4 4 200" fill="#3A3C65" />
		<polygon points="0 234 4 234 4 400" fill="#3A3C65" />
		<rect x="0" y="532" width="4" height="68" fill="#3A3C65" />
		<!-- white stripes -->
		<rect x="4" y="4" width="4" height="192" fill="#FFFFFF" />
		<rect x="4" y="232" width="4" height="164" fill="#FFFFFF" />
		<!-- top triangle -->
		<polygon points="0 234 400 234 200 4" fill="#00A61F" />
		<!-- left triangle -->
		<polygon points="220 127 180 127 200 4" fill="#00A61F" />
		<!-- right triangle -->
		<polygon points="0 127 400 127 200 4" fill="#00A61F" /></svg>