<svg xmlns="http://www.w3.org/2000/svg" viewBox="0 0 400 260">
	<symbol id="a" preserveAspectRatio="xMinYMin slice" viewBox="0 0 400 260">
		<path d="M0 0v260h400z" stroke-width="2"/>
	</symbol>
	<symbol id="c" preserveAspectRatio="xMinYMin slice" viewBox="0 0 400 260">
		<use href="#a" stroke-width="2"/>
		<path stroke="#fff" stroke-width="4.5%" d="M0 0h400M0 3h400M0 6h400M0 9h400M0 12h400M132 76l268 188M134 67l266 188M136 58l264 188M138 49l262 188M140 40l260 188M132 264l268-188M134 255l266-188M136 246l264-188M138 237l262-188M140 228l260-188M200 0v320m2-320v320m2-320v320m2-320v320m2-320v320M0 160h400M0 163h400M0 166h400M0 169h400M0 172h400"/>
	</symbol>
	<symbol id="b" fill="red" stroke="none" viewBox="-340 -140 -360 0">
		<circle cx="-284" cy="-100" r="30" stroke-width="2"/>
		<text font-family="Times" font-size="48" font-weight="1800" textLength="56" stroke-width="2">
				<textPath href="#b" stroke-width="2">MÎ</textPath>
			</text>
	</symbol>
	<use href="#b" transform="rotate(45)" stroke-width="2"/>
	<use href="#b" transform="rotate(135)" stroke-width="2"/>
	<use href="#b" transform="rotate(225)" stroke-width="2"/>
	<use href="#b" transform="rotate(315)" stroke-width="2"/>
	<use fill="#0080FF" href="#c" stroke-width="2"/>
</svg>