<svg xmlns="http://www.w3.org/2000/svg" viewBox="0 0 128 128">
		<g id="flag">
			<g id="white">
				<path d="M0 128h128V0H0z"/>
			</g>
			<g id="band-red">
				<path
					d="M0 0h128v64H0z"
					fill="rgb(153, 0, 0)"/>
				<path
					d="M0 127h128V64H0z"
					fill="rgb(206, 0, 0)"/>
			</g>
			<g id="band-black">
				<path
					d="M0 64h128v32H0z"
					fill="rgb(0, 0, 0)"/>
				<path
					d="M0 127h128v32H0z"
					fill="rgb(113, 113, 113)"/>
			</g>
			<g id="emblem">
				<path
					d="M64 95c-5 0-10-3-12-8l-5-15c-1-2-2-4-2-6 0-5 4-9 9-9 5 0 9 4 9 9 0 2-1 4-2 6l-5 15c-2 5-7 8-12 8z"
					fill="rgb(255, 255, 0)"/>
				<path
					d="M212 131c6 0 11-4 13-9l7-19c1-3 2-6 2-9 0-6-5-11-11-11s-11 5-11 11c0 3 1 6 2 9l7 19c2 5 7 9 13 9z"
					transform="matrix(-1 0 0 -1 302 0)"
					fill="rgb(255, 255, 0)"/>
				<path
					d="M28 95c1 0 2 1 2 2l-5 15c-3 6-10 10-17 10-7 0-13-4-17-10l-5-15c0-1 1-2 2-2 6 0 11 5 11 11 0 1 0 2-1 2l5 15c3 6 10 10 17 10 7 0 13-4 17-10l5-15c1 0 1-1 1-2 0-6-5-11-11-11z"
					fill="rgb(0, 0, 0)"/>
				<path
					d="M112 95c0-1 1-2 2-2l5 15c3 6 10 10 17 10s13-4 17-10l5-15c1 0 1-1 1-2 0-6-5-11-11-11-1 0-2 1-2 2l-5 15c-3 6-10 10-17 10s-13-4-17-10l-5-15c-1 0-1 1-1 2 0 6 5 11 11 11z"
					fill="rgb(113, 113, 113)"/>
			</g>
			<g id="wheel">
				<path
					d="M60 107c5 0 9 3 10 8 2 6-1 12-6 16-3 2-7 3-11 3-5 0-9-3-10-8-2-6 1-12 6-16 3-2 7-3 11-3z"
					fill="rgb(255, 255, 0)"/>
				<path
					d="M54 107c3 0 6 1 8 3 0-3 1-6 3-8 0-4-3-7-7-7-4 0-7 3-7 7 0 2 2 5 3 8 2-2 5-3 8-3z"
					fill="rgb(0, 0, 0)"/>
				<path
					d="M57 107c-3 0-6 1-9 3 0-3-1-6-3-8 0-4 3-7 7-7 4 0 7 3 7 7 0 2-2 5-3 8-3-2-5-3-8-3z"
					fill="rgb(113, 113, 113)"/>
				<path
					d="M54 107c-2 1-4 3-4 5s2 3 4 4l4-4c-2-1-4-3-4-5s2-3 4-4zM54 107c2 1 4 3 4 5s-2 3-4 4l-4-4c2-1 4-3 4-5s-2-3-4-4z"
					fill="rgb(255, 255, 0)"/>
			</g>
			<g id="star">
				<path
					d="M294 46c-5 0-9-3-10-8l-5-15c-2-6 1-12 6-16 3-2 6-3 10-3 4 0 8 1 10 3l5 15c3 5 5 11 4 17-1 5-5 9-10 9z"
					transform="matrix(-1 0 0 -1 386 0)"
					fill="rgb(255, 255, 0)"/>
				<path
					d="M54 67l39-24c1 0 2-1 2-2 0-6-5-11-11-11-1 0-2 1-2 2l-39 24c-1 0-2 1-2 2 0 6 5 11 11 11z"
					fill="rgb(255, 255, 0)"/>
			</g>
		</g></svg>