<svg xmlns="http://www.w3.org/2000/svg" xmlns:xlink="http://www.w3.org/1999/xlink" viewBox="0 0 1000 700">
	<path fill="#d50032" d="M0 0h1000v700H0V0z"/>
	<path fill="#fedd00" d="M0 0h680v700H0V0z"/>
	<path fill="#10069f" d="M0 0h320v700H0V0z"/>
	<path fill="#c6aa76" d="M469.37 188.48c12.051 0 16.979 10.338 29.029 10.338 7.44 0 11.777-2.43 18.261-6.087 4.524-2.562 7.41-3.927 12.605-3.927 5.319 0 8.58 1.608 11.301 6.167 1.537 2.58 2.814 7.628 2.138 10.525a62.488 62.488 0 0 1-4.262 12.953c-1.043 2.438-2.028 3.898-2.028 6.566 0 6.396 8.704 8.594 14.622 8.685 1.29.02 12.14.198 18.815-6.56-3.622-.16-7.675-2.965-7.675-6.588 0-4.099 2.88-6.873 6.785-8.057.742-.212 2.006.443 2.677.09.954-.495.508-1.568 1.356-2.24 1.944-1.555 3.207-2.525 5.7-2.525a5.732 5.732 0 0 1 3.884 1.165c.69.495.943 1.107 1.79 1.107 1.786 0 2.67-1.13 4.454-1.13a6.876 6.876 0 0 1 3.604.848c1.06.548 1.037 2.35 2.238 2.35.601 0 3.78-1.297 5.44-1.297 3.446 0 5.285 1.248 7.512 3.863.6.707.985 2.137 1.596 2.137a9.72 9.72 0 0 1 5.832 2.56 9.871 9.871 0 0 1 1.68 2.037c.406.654 1.03 2.25 1.748 2.526.927.193 1.822.52 2.655.971a9.315 9.315 0 0 1 4.377 7.611 15.88 15.88 0 0 1-.75 3.31c-2.942 10.284-9.94 13.548-17.009 22.382-3.004 3.763-5.375 6.767-5.375 11.59 0 1.167 1.436 3.303 2.073 4.275-.389-2.267.647-5.051 3.043-5.18a6.09 6.09 0 0 1 6.26 5.568 7.025 7.025 0 0 1-.52 2.85 14.911 14.911 0 0 1 6.217-2.202 19.38 19.38 0 0 1 2.98-.13c5.244.13 11.033 3.08 14.546 6.064 10.75 9.13 12.05 22.492 11.462 26.203-1.305 8.246-.484 23.168-21.56 29.117 3.897 1.641 6.55 4.573 6.55 8.178a7.11 7.11 0 0 1-6.916 7.28 6.825 6.825 0 0 1-5.373-2.12c-4.382 4.381-5.23 8.852-5.23 15.054a19.283 19.283 0 0 0 2.261 9.258c1.644 3.552 2.827 5.637 5.796 8.2 1.572-2.37 3.233-4.1 6.077-4.1 2.757 0 5.09.883 6.22 3.392.336.76.035 1.379.424 2.12.497.955 1.328 1.167 1.841 2.12.794 1.468.017 2.722.706 4.24.441.99 1.413 1.133 1.837 2.122a9.168 9.168 0 0 1 .85 4.24c0 4.7-4.278 8.058-8.978 8.058-1.414 0-2.19-.565-3.605-.424 2.687 2.686 4.736 3.852 6.786 7.068 2.968 4.647 3.71 7.95 4.382 13.429.11.89.157 1.788.142 2.686 0 7.032-1.096 11.238-4.24 17.528-3.005 6.025-5.567 9.365-11.027 13.287-8.517 6.13-14.72 7.899-25.02 9.895a116.172 116.172 0 0 1-17.105 2.262l-22.052 1.13c-11.238.76-19.03 2.35-27 10.32 3.765 2.756 6.362 5.46 6.362 10.107 0 4.77-2.95 8.18-7.492 9.683-1.06.353-1.838.035-2.827.565-1.184.618-1.13 1.979-2.262 2.686a9.7 9.7 0 0 1-5.937 1.555c-4.205 0-7.068-.99-10.037-3.96-3.445 2.864-4.612 5.444-8.48 7.635-1.273.707-1.927 1.696-3.393 1.696-2.315 0-3.375-1.466-5.23-2.827a35.88 35.88 0 0 1-6.926-6.36c-3.516 2.102-5.672 3.816-9.754 3.816a10.173 10.173 0 0 1-6.22-1.697c-1.113-.69-1.29-1.714-2.403-2.403-1.166-.724-2.138-.46-3.392-.99-4.718-2.031-7.775-5.53-7.775-10.671 0-4.506 2.844-7.37 6.926-9.26-7.828-7.827-15.532-9.187-26.576-9.894l-21.909-1.131a154.24 154.24 0 0 1-17.247-2.262c-5.072-.83-8.075-1.095-12.722-3.251-15.99-7.457-26.187-17.687-28.272-35.198a28.508 28.508 0 0 1-.142-3.887c0-9.118 3.587-14.683 10.036-21.133-1.66-.39-2.774.159-4.382-.424-4.029-1.467-6.926-4.26-6.926-8.553a7.173 7.173 0 0 1 .848-4.028c.548-.972 1.59-1.167 1.837-2.262.32-1.45-.105-2.474.567-3.817.442-.9 1.272-1.078 1.696-1.98 1.394-2.896 3.144-5.23 6.36-5.23 2.756 0 4.523 1.45 5.936 3.818 2.686-1.237 3.428-3.252 4.948-5.796 2.527-4.223 3.675-7.174 3.675-12.086a23.87 23.87 0 0 0-1.413-8.693c-.778-2.333-1.096-3.923-2.827-5.654a6.825 6.825 0 0 1-5.372 2.12 8.135 8.135 0 0 1-7.916-8.34 7.516 7.516 0 0 1 4.665-7.21c-2.42-2.084-4.524-2.261-7.21-3.957-4.08-2.58-5.512-5.301-8.198-9.33-1.75-2.633-2.21-4.47-3.11-7.492a29.36 29.36 0 0 1-1.697-9.612 17.52 17.52 0 0 1 .141-2.545c1.008-7.668 2.386-12.475 7.21-18.518 2.862-3.587 4.806-5.795 9.047-7.633 3.604-1.555 5.76-2.686 9.683-2.686a21.67 21.67 0 0 1 3.04.13c1.583.088 3.127.52 4.523 1.274.6.336 1.696 1.343 1.696.636 0-.814-.424-1.238-.424-2.05 0-3.252 2.331-6.222 5.583-6.222 2.35 0 3.304 2.068 4.453 4.1a6.091 6.091 0 0 0 1.13-3.536c0-5.37-2.88-8.109-6.22-12.297-7.28-9.099-16.397-13.357-16.397-25.019 0-3.48 1.678-5.85 4.665-7.63.865-.515 2.03 0 2.877-.545.725-.46.642-1.394 1.101-2.136a10.415 10.415 0 0 1 2.373-2.527c1.661-1.45 3.12-1.015 4.957-2.287.92-.636 1.136-1.463 1.843-2.31 2.05-2.474 3.89-3.67 7.123-3.67a9.254 9.254 0 0 1 4.04.606c.512.195 1.47.967 1.594.818a7.35 7.35 0 0 1 2.243-1.813 6.37 6.37 0 0 1 3.432-.907c1.732 0 2.866.97 4.598.97.636 0 .783-.634 1.295-.97 1.535-1.042 2.42-1.632 4.293-1.632a7.157 7.157 0 0 1 4.318 1.567c1.43.902 1.637 2.108 3.103 2.957.813.477 1.502.265 2.404.565 4.028 1.343 7.068 4.03 7.068 8.27a6.487 6.487 0 0 1-2.262 5.442c-1.36 1.2-2.65.99-4.382 1.555 5.62 4.488 10.508 5.6 17.682 5.6 6.573.001 14.612-2.685 14.612-9.259 0-3.056-1.69-4.7-2.892-7.508-2.156-5-3.325-7.942-3.325-13.384 0-4.31.47-6.927 2.98-10.426 2.58-3.604 5.73-4.445 10.166-4.445h.002z"/>
	<g fill="none" stroke="#713f2a">
		<path stroke-linejoin="round" stroke-width="1.041" d="M425.59 223.46a5.564 5.564 0 0 0 3.82 3.807 5.894 5.894 0 0 0 5.986-2.177 6.92 6.92 0 0 0 .833-6.297 7.32 7.32 0 0 0-2.71-3.468l-7.936 8.057-.002.079-.001-.001z"/>
		<path stroke-linecap="round" stroke-width="1.037" d="M626.61 343.94c-1.866-4.51-6.686-2.488-6.983 0-.683 5.732 4.34 7.464 7.916 6.53a6.22 6.22 0 0 0 3.896-3.03 7.55 7.55 0 0 0 .61-5.824 8.38 8.38 0 0 0-3.325-4.471c-1.375-.878-2.874-.965-5.224-.965-8.708 0-16.327 10.289-18.886 20.977a46.074 46.074 0 0 0-.396 18.815 35.044 35.044 0 0 0 9.16 17.585 39.21 39.21 0 0 0 8.99 6.435 38.76 38.76 0 0 0 6.496 2.683 12.41 12.41 0 0 0 6.159.142c5.16-1.12 7.559-5.92 4.96-10.83-2.129-4.02-8.397-6.22-11.352-1.088a5.1 5.1 0 0 0-.628 2.41 4.65 4.65 0 0 0 1.561 3.64c2.246 1.429 5.838 1.025 5.672-2.94"/>
		<path stroke-width="1.276" d="M599.69 403.07a17.66 17.66 0 0 1 10.343-5.703c4.654-.572 8.699.783 12.828 3.004 8.06 4.335 12.554 8.995 15.549 17.641a26.91 26.91 0 0 1 1.304 9.022c-.14 5.604-1.563 11.73-3.092 14.692-1.334 2.583-4.82 13.994-23.946 21.868-11.161 4.594-28.3 5.653-40.118 6.12-16.256.642-31.254 1.244-39.962 11.973"/>
		<g stroke-width="1.121">
			<path d="M603.75 421.45c-.466-1.71-.035-3.35 1.322-5.209 1.814-2.486 5.675-3.343 9.174-1.4a11.61 11.61 0 0 1 3.965 3.266l1.788 2.488a19.33 19.33 0 0 1 1.703 3.887c3.846 10.928-2.265 22.771-10.255 27.522-6.206 3.69-13.608 5.336-22.469 6.375-3.982.468-6.256.437-10.263.623-3.223.149-6.008.096-8.63.064l-6.297-.064a110.46 110.46 0 0 0-11.274.155c-4.55.331-7.972.448-11.818 1.089-2.511.418-5.455.822-8.542 1.515-.926.21-1.865.38-2.81.67l-1.88.576a62.311 62.311 0 0 0-15.257 6.52 27.29 27.29 0 0 0-3.877 2.71c-.665.627-1.472 1.256-2.124 1.898-2.99 2.94-6.047 6.126-6.762 10.438a15.452 15.452 0 0 0-.132 2.508c0 2.798 2.278 6.608 8.42 7.852m8.638-265.811c1.285 2.323 1.992 3.737 1.244 6.14-.847 2.724-2.778 4.355-5.52 4.355-6.22 0-9.878-7.364-7.075-12.05 4.97-8.32 14.53-3.648 23.4.473-.43-2.136-1.18-2.831-1.1-5.473.191-6.564 5.06-9.541 7.003-15.604 1.157-3.613 1.618-6.75-1.025-9.316-2.308-2.24-4.982-2.205-7.994-1.025-6.016 2.36-13.244 9.139-25.968 9.327-12.722-.188-20.009-6.967-26.028-9.326-3.012-1.18-5.686-1.214-7.994 1.025-2.643 2.566-2.183 5.703-1.025 9.316 1.943 6.064 6.811 9.04 7.004 15.605.077 2.644-.669 3.338-1.096 5.47 8.863-4.12 18.798-9.21 23.402-.472 2.565 4.869-.855 12.05-7.075 12.05-2.742 0-4.667-1.747-5.52-4.353a6.71 6.71 0 0 1 1.244-6.142"/>
			<path stroke-linecap="round" d="M491.5 224.79c2.403 1.838 4.1 4.1 3.817 7.775-.307 3.986-1.273 4.947-4.382 7.068m3.745-5.933a5.124 5.124 0 0 1-3.534 4.947"/>
		</g>
	</g>
	<path fill="#c6aa76" d="m432.4 214.49 1.088.777 1.166 1.245.778 1.555.389 1.321.078 1.71-.078 1.167-.389 1.322-.778.932-.933 1.011-1.321.7-1.71.389-1.478.233-1.555-.7-1.399-1.01-.855-1.245-.622-1.555v-.621l7.62-7.231h-.001z"/>
	<g fill="none" stroke="#713f2a">
		<path stroke-linecap="round" stroke-width="1.041" d="M430.01 220.57c-.478-2.581-3.496-3.11-4.665-1.586-1.8 2.348-.485 6.257 3.176 7.4a5.89 5.89 0 0 0 5.987-2.176 6.78 6.78 0 0 0-1.587-9.451l-.279-.189c-4.252-3.233-11.118-2.488-13.373 2.954-2.909 7.02 3.42 12.284 9.252 16.25 7.34 4.991 15.705 5.9 22.003 5.83 14.306-.155 25.19-6.997 32.265-10.884 1.648-.905 3.345-.72 4.198.311a3.115 3.115 0 0 1-.39 4.276"/>
		<path stroke-width="1.057" d="m387.6 414.35-3.188 1.166-3.265 2.488-1.4 1.944-1.788 3.11-.777 2.332-.622 2.877-.31 2.177m29.7-15.784-.233 2.8-.467 1.943-1.4 3.343-2.176 2.877-2.333 1.865-1.699.856-2.409.544"/>
		<path stroke-width="1.197" d="M499.6 489.23c-.58 2.588-3.004 5.548-8.279 6.617l-1.025.212"/>
		<path stroke-width="1.356" d="M631.59 406.57a28.457 28.457 0 0 1 7.488 12.109 26.88 26.88 0 0 1 1.303 9.021c-.14 5.604-1.562 11.73-3.09 14.692-1.324 2.584-4.81 13.994-23.936 21.868-11.16 4.595-28.3 5.654-40.119 6.12-16.022.633-30.822 1.227-39.582 11.517"/>
		<path stroke-width=".929" d="M605.45 416.95c1.188-1.621 5.517-3.673 9.016-1.73a9.68 9.68 0 0 1 3.714 3.243"/>
		<path stroke-width="1.356" d="m627.51 402.79 2.244.767c1.997.635 4.134.685 6.158.142 4.423-1.327 7.261-5.459 4.96-10.83a8.856 8.856 0 0 0-2.717-3.333"/>
		<path stroke-linecap="round" stroke-width="1.041" d="M375.44 287.13c-2.969 1.838-5.182 2.273-7.492 4.947a43.944 43.944 0 0 0-4.1 10.65m72.032-80.767c0 2.686-1.98 4.382-4.665 4.947"/>
		<path stroke-width=".997" d="M620.49 275.03c7.39-.15 28.859 5.64 29.012 30.876.15 24.925-15.383 28.997-21.607 30.656"/>
		<path stroke-width="1.037" d="M622.43 275.03c12.743-.554 25.892 8.826 26.472 32.236.452 18.289-12.517 26.584-18.742 28.243"/>
		<path stroke-width=".881" d="m615.33 363.16.196-2.502.834-3.974 1.178-3.091 1.324-2.551 1.717-2.06m12.161-5.312-.195 2.449-.7 1.672-1.088 1.594-1.244.933-1.904.7-1.672.116-1.244-.195M602.33 268.42l.544-2.643 1.166-2.45 1.517-2.449 2.604-3.343 2.06-2.293 3.354-3.382 2.876-2.916 1.828-2.099 2.41-2.915 2.14-3.227 1.282-2.643.7-3.42.21-4.243-.388-1.23m-19.19 200.273 2.527-.505 1.905-1.01 1.05-1.05.738-1.206.505-1.952.04-1.36M364.94 403.38l1.866.154 2.41-.194 2.41-.855m7.814-57.106-.31 2.177-.506.972-.739.933-1.01.777-1.128.505-1.477.234-1.01.078m15.47-24.406-.544 3.382-.66 1.477-1.36 1.866-1.829 1.4-1.866.932-3.615.894m23.904-62.121-.7 2.015-.855 1.479-1.166 1.632-1.633 1.477-1.943.934-1.633.388-1.01-.078m.59-9.682.04 1.555"/>
		<g stroke-width=".987">
			<path stroke-linecap="round" d="M397.32 325.09a10.71 10.71 0 0 1-3.265 2.029M629.24 397.16c.134.145.581.217.739.31 2.215 1.323 6.577-.325 5.294-3.746"/>
			<path d="M621.54 349.38c1.573 2.055 4.538 2.588 6.883 1.976a6.22 6.22 0 0 0 3.895-3.03 7.54 7.54 0 0 0 .61-5.825 7.65 7.65 0 0 0-1.325-2.58 10.59 10.59 0 0 0-2.132-2.23c-.17-.11-.339-.262-.518-.383m10.037 53.152a6.23 6.23 0 0 0-1.906-5.71 7.44 7.44 0 0 0-1.36-1.234m.746.734c-.073-2.912-2.456-4.995-5.41-5.513m-6.52 4.433a20.74 20.74 0 0 1-2.042-1.69 24.55 24.55 0 0 1-6.742-16.677c-.037-6.473 2.566-13.062 5.598-15.627M533.07 481.44l2.799-2.566 1.944-1.477 3.654-2.255 3.42-1.632 2.41-.622 4.82-1.089 5.599-.855M511.61 501.2c-2.022 3.11-6.842 7.775-11.896 9.64-5.054-1.865-9.874-6.53-11.895-9.64"/>
			<path stroke-linecap="round" d="M491.28 494.73a15.468 15.468 0 0 1-3.468 6.451"/>
			<path d="m491.78 491.47-.7 3.42m-3.65 6.53-1.477 1.477-2.644 1.477-3.032.934M471.46 227.45a9.8 9.8 0 0 0 .71-4.014c-.193-6.565-5.06-9.542-7.005-15.606-1.157-3.612-1.618-6.75 1.026-9.316 2.307-2.24 4.981-2.205 7.993-1.025 6.018 2.36 13.308 9.138 26.032 9.326-12.724-.188-20.015-6.967-26.032-9.326-3.012-1.18-5.935-1.525-8.242.714-2.644 2.566-1.934 6.015-.777 9.627 1.944 6.064 6.563 9.04 6.756 15.606a9.61 9.61 0 0 1-.834 4.014m29.093-21.08c12.517-.661 23.245-9.071 26.706-9.757 3.086-.612 4.809-.336 7.072 1.721-2.264-2.057-4.842-1.993-7.77-.845-6.018 2.359-13.246 9.138-25.97 9.326M624.59 383.2a24.286 24.286 0 0 1-9.718-19.274c-.036-6.474 2.565-13.061 5.597-15.627M511.17 500.76c-2.021 3.11-6.842 7.775-11.895 9.64-5.054-1.865-9.874-6.53-11.895-9.64"/>
			<path stroke-linecap="round" d="m479.17 230.74 3.624-2.018c1.65-.906 3.63-.716 4.483.316a3.27 3.27 0 0 1-.226 4.416"/>
			<path d="M460.48 239.49c8.588-1.792 15.585-5.638 20.875-8.597M531.78 487.43a4.15 4.15 0 0 1 1.166 1.493 6.91 6.91 0 0 1 .521 1.326 3.353 3.353 0 0 1-2.533 4.008 3.35 3.35 0 0 1-.55.077 5.26 5.26 0 0 1-5.482-3.17M460.04 239.05c8.588-1.792 15.585-5.638 20.875-8.597M633.38 397.49c-1.633.63-2.526.544-4.557-.358-.834-.37-1.788-.943-2.907-1.578-3.98-2.26-8.708-5.824-13.14-14.143a29.387 29.387 0 0 1-2.671-6.98 25.88 25.88 0 0 1-.78-5.214 40.11 40.11 0 0 1 .964-9.719 31.62 31.62 0 0 1 6.37-14.15c1.791-2.463 3.34-3.966 6.682-4.043m-224.515-61.42a11.11 11.11 0 0 1 4.119 8.94c0 4.842-4.05 12.75-14.001 15.55a12.945 12.945 0 0 1-9.87-1.18m21.381-6.91a5.39 5.39 0 0 1 2.488 5.07c0 1.664-1.076 3.822-2.907 5.866a19.31 19.31 0 0 1-13.716 6.26 15.986 15.986 0 0 1-9.42-2.735 14.16 14.16 0 0 1-5.988-8.397"/>
			<path d="M400.3 306.71c2.026 1.862 2.648 4.193 2.648 7.129 0 4.29-1.742 7.6-5.75 11.107a19.69 19.69 0 0 1-3.032 2.178M596.4 292.63v5.519m-.44-6.879v7.774m.44-24.604v10.185m-.44-12.435v13.918m-2.97 128.062a29.244 29.244 0 0 1-6.53 8.863 30.66 30.66 0 0 1-9.097 6.375 38.43 38.43 0 0 1-10.263 3.421 52.465 52.465 0 0 1-10.73 1.322 73.824 73.824 0 0 1-9.91-.255c-4.126-.285-6.416-.86-10.537-1.222a83.08 83.08 0 0 0-8.743-.566 44.835 44.835 0 0 0-8.983.643 34.411 34.411 0 0 0-8.086 2.255c-4.198 1.7-8.941 4.665-9.952 5.987-1.01-1.322-5.754-4.286-9.952-5.987a34.42 34.42 0 0 0-8.085-2.255 44.79 44.79 0 0 0-8.984-.643 82.8 82.8 0 0 0-8.743.566c-4.121.362-6.41.937-10.538 1.222a74.2 74.2 0 0 1-9.91.255 52.169 52.169 0 0 1-10.728-1.322 38.667 38.667 0 0 1-10.263-3.42 30.57 30.57 0 0 1-9.097-6.376l-.96-.953m65.89 83.39 2.8-.35m47.3-3.68 2.827-.269 2.69-1.076 1.883-1.144 2.556-3.027.538-1.144.404-2.623.135-1.21m73.3-213.587c1.213-4.128-.268-8.483-4.266-8.366M402.79 341.75a12.78 12.78 0 0 1-5.62 7.293m5.69-72.993a10.186 10.186 0 0 1-5.724 6.26c-2.886 1.304-6.227.086-8.014-1.292"/>
			<path stroke-linecap="round" d="M380.95 291.2c2.392 1.253 4.82-.584 4.322-3.696a4.45 4.45 0 0 0-3.933-3.433"/>
			<path d="M390.87 422.86c.516.485.626 1.115 1.322 1.244 1.05.194 1.866.583 2.915-.816 1.294-1.725.599-4.409-.747-6.098a7.72 7.72 0 0 0-9.112-1.46 11.606 11.606 0 0 0-3.965 3.264l-1.788 2.488a19.351 19.351 0 0 0-1.704 3.887c-3.2 9.098.6 18.664 6.489 24.493"/>
			<path stroke-linecap="round" d="M531.59 487.23a9.19 9.19 0 0 1 1.01 1.244 6.18 6.18 0 0 1 .428 1.327 3.353 3.353 0 0 1-3.083 4.084 4.97 4.97 0 0 1-5.267-3.156"/>
			<path d="M608.5 216.81a11.565 11.565 0 0 1 9.784 10.992c0 6.92-2.331 9.496-5.974 14.446-3.899 5.297-16.638 15.005-16.638 26.045 0 6.686 1.866 10.962 6.686 13.139 3.108 1.404 6.742-.116 8.397-1.61 4.042-3.655 2.426-10.063-1.788-10.829-5.132-.933-6.096 7.145-1.089 6.609M635.73 383.51a5.72 5.72 0 0 0-11.377.99 5.924 5.924 0 0 0 1.615 4.085M599.79 279.88a11.11 11.11 0 0 0-4.12 8.94c0 4.842 4.05 12.75 14.001 15.55 3.82 1.072 7.46.971 9.74-.417M375.61 287.8a14.64 14.64 0 0 0-7.55 5.395c-1.856 2.63-2.938 6.286-3.608 9.485a31.01 31.01 0 0 0 .252 10.41 24.6 24.6 0 0 0 3.602 8.806 12.38 12.38 0 0 0 1.62 1.932 17.35 17.35 0 0 0 1.774 1.373m100.02 143.83c7.576 3.36 13.13 5.875 17.839 13.31a15.464 15.464 0 0 1 1.866 7.621 15.864 15.864 0 0 1-5.21 11.896 12.946 12.946 0 0 1-10.417 3.188c-3.007-.295-5.83-2.488-6.298-4.043m-72.62-175.8c4.276 3.345 6.064 6.588 6.064 11.74a13.056 13.056 0 0 1-6.22 11.664"/>
			<path stroke-linecap="round" d="M392.99 344.41c6.375 7.93 9.758 12.637 9.952 22.08.181 8.863-2.644 14.927-7.93 21.303"/>
			<path d="M515.23 239.57a6.42 6.42 0 0 0 2.497-3.485c.753-2.325.77-4.308-.474-6.096 1.534 2.009 1.675 3.705 1.243 6.142-.274 1.552-1.264 2.369-2.497 3.485m80.4 134.624v25.241h.068a38.529 38.529 0 0 1-.212 3.887l-.429 2.703"/>
			<path d="M595.96 371.81v27.223h.067a38 38 0 0 1-.212 3.887l-.729 4.125m.874-67.105v22.702m.44-20.912v18.463m0-41.943v13.841m-.44-15.47v17.063m.44-29.584v5.37m-.44-6.46v7.776m-2.88 101.864-.53 1.084a29.244 29.244 0 0 1-6.53 8.863 30.67 30.67 0 0 1-9.097 6.376 38.43 38.43 0 0 1-10.263 3.42 52.32 52.32 0 0 1-10.73 1.322c-3.305.135-6.615.05-9.908-.255-4.128-.285-6.417-.86-10.538-1.222a83.226 83.226 0 0 0-8.743-.566 44.767 44.767 0 0 0-8.984.644 34.39 34.39 0 0 0-8.086 2.254c-4.19 1.7-8.94 4.665-9.95 5.987-1.01-1.322-5.75-4.286-9.95-5.987a34.36 34.36 0 0 0-8.08-2.254 44.7 44.7 0 0 0-8.982-.644 82.69 82.69 0 0 0-8.743.566c-4.122.362-6.41.937-10.538 1.222a74.2 74.2 0 0 1-9.91.255 52.24 52.24 0 0 1-10.73-1.32 38.705 38.705 0 0 1-10.261-3.422 30.566 30.566 0 0 1-9.095-6.376 34.17 34.17 0 0 1-3.858-4.355m-3.141-4.982a15.78 15.78 0 0 1-3.523 12.034c-1.321 1.4-4.2 4.074-7.775 4.12-5.908.078-7.672-3.986-8.03-4.975m12.307-13.74a16.05 16.05 0 0 1 2.893 3.966c1.477 2.799 1.022 7.48-.148 9.64a6.86 6.86 0 0 1-.475.749M370.04 453.2c3.512 3.687 8.826 7.692 16.99 11.052 11.16 4.595 28.3 5.654 40.116 6.12 15.715.62 30.193 1.266 39.01 10.998m27.132-6.36c2.598 2.556 5.247 5.295 6.366 8.798M488.18 501.7a13.7 13.7 0 0 1-11.501 4.217 9.657 9.657 0 0 1-6.69-4.025m-8.369-4.542a9.78 9.78 0 0 0 .457.577 11.88 11.88 0 0 0 7.978 3.833m41.985-.12c-2.02 3.11-6.84 7.774-11.894 9.64-5.054-1.866-9.874-6.53-11.896-9.64l-.472-.727m24.343.707a12.76 12.76 0 0 0 1.156 1.11 12.95 12.95 0 0 0 10.418 3.186 8.544 8.544 0 0 0 6.36-4.043c.303-.329.54-.715.692-1.136"/>
			<path d="m529.75 500.99-1.16 1.867-1.766 1.463-2.674 1.11-2.42.1"/>
			<path d="M536.03 483.22a12.03 12.03 0 0 1 3.599 4.534 10.78 10.78 0 0 1 .787 3.698 9.15 9.15 0 0 1-2.222 6.474 11.745 11.745 0 0 1-8.43 3.866h-.734m.29-.442a10.67 10.67 0 0 1-8.092-3.375M620.72 391.93a37.11 37.11 0 0 1-7.507-10.077 29.38 29.38 0 0 1-2.672-6.992 25.85 25.85 0 0 1-.769-5.211 40.13 40.13 0 0 1 .963-9.722 32.63 32.63 0 0 1 6.376-14.15 17.19 17.19 0 0 1 3.25-3.488m-2.15-118.46c3.963.31 7.637 4.58 7.59 8.764-.07 6.078-2.11 8.59-6.89 14.545-4.12 5.131-16.484 14.15-16.173 22.78a8.51 8.51 0 0 0 1.802 4.39m-4.94 5.41a10.847 10.847 0 0 0 3.207 2.15 7.846 7.846 0 0 0 6.654-.446m-33.084-67.53a9.443 9.443 0 0 1 3.415 4.06c2.91 7.02-3.42 12.284-9.25 16.25a33.35 33.35 0 0 1-12.968 5.128m12.124-11.909a6.53 6.53 0 0 1-4.92-2.34 5.225 5.225 0 0 1-1.106-1.552m-23.22 7.669a7.23 7.23 0 0 1-2.063-1.504 6.393 6.393 0 0 1-1.242-6.853c.987-2.963 5.746-11.274 5.98-17.027.356-8.79-3.025-13.977-8.313-16"/>
			<path stroke-linecap="round" d="m542.68 203.85-.206 3.305-.895 3.374-1.733 4.613-1.307 2.96-1.376 2.961-.689 2.066-.276 1.515.205 1.446m59.4 197.31a4.77 4.77 0 0 0 .933 1.306c1.01 1.687 4.94 4.655 8.514 4.7 5.91.079 7.312-4.056 7.464-4.974.746-4.51-.796-5.743-3.11-7.013a5.263 5.263 0 0 0-2.994-.444"/>
			<path d="M370.23 403.67c-1.88.535-3.871.546-5.757.033-4.423-1.326-8.007-5.564-6.18-10.829m20.917-49.724a2.8 2.8 0 0 1 .653 1.67c.683 5.732-4.34 7.402-7.916 6.47a8.8 8.8 0 0 1-4.71-3.56 7.354 7.354 0 0 1-.963-3.6m34.466-36.98a7.546 7.546 0 0 1 1.931 2.757M400.9 296.6a5.98 5.98 0 0 1 1.825 2.042"/>
			<path stroke-linecap="round" d="M402.91 303.94a13.23 13.23 0 0 1-2.43 3.718 19.312 19.312 0 0 1-13.716 6.26 15.99 15.99 0 0 1-9.422-2.736 14.897 14.897 0 0 1-6.377-8.715"/>
			<path d="M399.11 280.13a12.11 12.11 0 0 1 3.698 5.295"/>
			<path stroke-linecap="round" d="M402.86 292.56a18.42 18.42 0 0 1-13.473 12.248c-3.804.964-8.702-.241-10.374-1.664"/>
			<path d="M375.06 291.49c.417 4.12 3.174 7.209 8.401 7.308 7.35.138 11.818-10.574 5.287-18.094"/>
			<path stroke-linecap="round" d="M358.52 327.39a25.41 25.41 0 0 0 3.63 3.636 26.228 26.228 0 0 0 9.272 5.153m8.248.77c6.569-.79 10.272-5.69 9.538-11.41-.56-4.373-4.563-7.728-7.285-7.922"/>
			<path d="M390.39 268.92a4.464 4.464 0 0 1 4.449 4.478l-.005.187"/>
			<path stroke-linecap="round" d="M389.72 229.81a17.95 17.95 0 0 0 7.86 9.099m225.28 48.381c2.686 3.679.927 10.932-6.379 11.07a8.102 8.102 0 0 1-6.939-3.924"/>
			<path d="M596.4 239.25v24.686"/>
			<path stroke-linecap="round" d="M380.87 291.14c2.255 1.632 5.15-1.124 4.03-4.05-.757-1.975-3.563-4.106-7.45-1.463-4.294 2.92-3.11 12.13 5.13 12.284 7.35.139 11.819-10.574 5.287-18.093-6.282-7.234-17.727-5.542-25.19.396a33.43 33.43 0 0 0-11.04 18.164 34.314 34.314 0 0 0-.912 7.93 35.44 35.44 0 0 0 5.562 18.276 18.21 18.21 0 0 0 2.037 2.56 39.13 39.13 0 0 0 2.954 3.032c4.223 3.515 9.665 6.27 16.327 5.987 7.308-.311 11.507-5.442 10.729-11.507-.754-5.88-6.69-8.805-10.574-6.064-2.644 1.866-3.584 7.644 1.088 9.018 2.644.778 4.976-2.565 3.11-4.51M584.4 210.68c4.218-2.29 7.47-1.867 9.874 1.47a15.457 15.457 0 0 1 2.41 11.28c-.855 4.199-2.068 5.942-5.407 8.988m3.303-19.868c4.82-3.187 10.04-1.834 12.906 2.41 2.1 3.11 2.636 5.712 2.488 9.563a17.555 17.555 0 0 1-8.941 14.383"/>
			<path d="M617.28 223.67a8.052 8.052 0 0 1 7.153 8.086c0 5.986-1.671 8.583-6.454 14.539-4.12 5.131-16.482 14.15-16.17 22.78.11 3.263 2.86 6.338 5.24 6.51"/>
			<path stroke-linecap="round" d="M617.75 291.14c-2.255 1.632-5.131-1.004-3.887-3.803.859-1.932 3.42-4.353 7.308-1.71 4.293 2.92 3.11 12.13-5.131 12.284-7.35.139-12.317-10.297-5.287-18.093 6.416-7.116 18.315-5.723 25.778.214 3.176 2.527 9.566 9.466 10.936 18.573 1.658 11.02 1.445 24.575-9.937 32.922a26.91 26.91 0 0 1-16.516 4.637c-7.308-.32-11.506-5.443-10.729-11.507.754-5.88 6.416-8.368 10.574-6.065 4.32 2.393 3.565 8.466-1.088 9.019-2.736.325-4.976-2.566-3.11-4.51"/>
			<path d="M613.86 287.34c1.212-5.454 5.885-5.962 9.658-5.907 10.296.151 17.416 12.364 17.535 24.178.15 14.923-6.334 23.711-17.241 24.178-2.823.121-7.684-1.221-7.768-4.665"/>
			<path stroke-linecap="square" d="M620.2 284.9c10.858 2.413 14.67 12.196 14.67 21.532 0 7.616-.754 18.022-15.575 21.682"/>
			<path d="M638.11 389.58a6.104 6.104 0 1 0-9.79 3.66"/>
			<g stroke-linecap="round">
				<path d="M616.33 380.33a25.82 25.82 0 0 0 9.74 9.238m-1.96 16.482c-5.12-3.36-14.838-7.761-23.624-3.428-3.259 1.608-5.442 3.597-6.675 6.84a15.52 15.52 0 0 0 2.788 14.949c1.321 1.4 4.2 4.074 7.774 4.12 5.91.079 7.314-4.056 7.464-4.975.7-4.276-1.788-5.987-3.11-6.453-1.014-.358-4.312-.266-5.012 2.065a4.174 4.174 0 0 0 .348 3.144"/>
				<path d="M531.99 488.16c1.633 3.343-.224 5.024-2.488 5.287-3.343.388-5.131-2.255-5.364-4.665a6.87 6.87 0 0 1 6.327-7.366l.515-.02a8.674 8.674 0 0 1 7.764 5.477 10.79 10.79 0 0 1 .788 3.697 9.147 9.147 0 0 1-2.223 6.474 11.745 11.745 0 0 1-8.43 3.866c-6.6.265-11.74-5.908-11.74-12.206 0-12.05 17.87-18.623 24.95-20.314 8.706-2.077 14.004-2.855 27.99-3.632 5.595-.311 9.695-.153 15.86-.792a94.33 94.33 0 0 0 14.07-2.162 42.58 42.58 0 0 0 19.592-9.952c4.55-4.131 7.153-7.075 9.26-12.75 1.817-4.898 2.653-14.596-1.95-21.77a22.4 22.4 0 0 0-16.172-10.565c-5.83-.843-10.942 1.672-13.995 7.456-1.477 2.8-1.022 7.48.148 9.64a9.37 9.37 0 0 0 7.47 4.666c5.91.078 7.314-4.057 7.465-4.976.7-4.276-1.789-5.987-3.11-6.453-1.015-.358-4.313-.266-5.013 2.065a4.18 4.18 0 0 0 .346 3.144m-77.162 46.71c-7.576 3.36-13.13 5.876-17.839 13.31a15.464 15.464 0 0 0-1.866 7.62 15.864 15.864 0 0 0 5.21 11.895 12.947 12.947 0 0 0 10.417 3.188c3.006-.295 5.831-2.488 6.297-4.043"/>
			</g>
			<path d="M601.73 325.2c-3.545 1.183-6.064 6.586-6.064 11.74a13.056 13.056 0 0 0 6.22 11.662"/>
			<path stroke-linecap="round" d="M605.62 344.41c-6.375 7.93-9.758 12.637-9.952 22.08-.182 8.863 2.644 14.927 7.93 21.303"/>
			<path d="m571.64 212.58.547-.81c2.644-3.887 7.312-4.911 10.73-2.332 4.12 3.11 5.16 8.402 4.042 13.994a13.57 13.57 0 0 1-6.33 8.521"/>
			<path stroke-linecap="round" d="M414.22 210.68c-4.043-1.866-7.371-1.507-9.874 1.47-2.877 3.421-2.986 8.453-2.41 11.28.855 4.199 2.068 5.942 5.407 8.988"/>
			<path d="M404.03 212.55c-4.82-3.187-10.041-1.834-12.906 2.41-2.1 3.11-2.636 5.712-2.488 9.563a17.555 17.555 0 0 0 8.94 14.383"/>
			<path d="M390.12 216.81a10.65 10.65 0 0 0-9.4 10.433c0 6.92 1.703 9.718 5.59 15.005 3.897 5.299 16.638 15.005 16.638 26.045 0 6.686-1.866 10.962-6.686 13.139-3.108 1.404-6.742-.116-8.397-1.61-4.043-3.655-2.426-10.063 1.788-10.829 5.131-.933 6.096 7.145 1.089 6.609m-9.412-51.932c-3.965.31-7.867 3.723-7.867 7.908 0 5.986 2.385 8.76 7.167 14.716 4.121 5.13 15.762 13.972 15.451 22.602-.117 3.263-2.31 7.253-4.488 6.786"/>
			<path stroke-linecap="round" d="M372 343.94c1.866-4.51 6.686-2.488 6.983 0 .683 5.732-4.34 7.464-7.916 6.53a6.218 6.218 0 0 1-3.896-3.03 7.55 7.55 0 0 1-.61-5.824 7.66 7.66 0 0 1 1.326-2.581 7.748 7.748 0 0 1 1.999-1.89c1.375-.878 2.874-.965 5.224-.965 8.708 0 16.327 10.289 18.886 20.977a46.04 46.04 0 0 1 .396 18.815 35.051 35.051 0 0 1-9.16 17.585 39.21 39.21 0 0 1-8.99 6.435 38.76 38.76 0 0 1-6.496 2.683 10.954 10.954 0 0 1-6.158.142c-4.423-1.327-7.262-5.46-4.96-10.83 1.792-4.18 8.397-6.22 11.351-1.088a5.1 5.1 0 0 1 .628 2.41 4.648 4.648 0 0 1-1.561 3.64c-2.246 1.429-5.838 1.025-5.67-2.94"/>
			<path d="M365.24 397.49c1.633.63 2.526.544 4.557-.358.834-.37 1.789-.943 2.907-1.578 3.98-2.26 8.708-5.824 13.139-14.143a29.38 29.38 0 0 0 2.672-6.98 25.87 25.87 0 0 0 .78-5.214 40.06 40.06 0 0 0-.964-9.719 31.607 31.607 0 0 0-6.376-14.15c-1.795-2.463-3.343-3.966-6.686-4.043m-14.76 48.286a6.104 6.104 0 1 1 9.79 3.66m-7.42-9.73a5.72 5.72 0 0 1 11.37.991 5.926 5.926 0 0 1-1.617 4.086"/>
			<path d="M374.02 383.2a24.286 24.286 0 0 0 9.718-19.274c.036-6.474-2.565-13.061-5.597-15.627"/>
			<path stroke-linecap="round" d="M382.29 380.33a25.82 25.82 0 0 1-9.74 9.238"/>
			<path d="M397.81 402.63c-1.449-3.409-4.329-4.985-9.019-5.486-4.662-.497-8.698.784-12.828 3.005-8.06 4.335-12.554 8.995-15.55 17.641a26.88 26.88 0 0 0-1.303 9.021c.14 5.604 1.563 11.73 3.091 14.692 1.334 2.584 4.82 13.994 23.946 21.868 11.161 4.595 28.3 5.654 40.118 6.12 16.256.642 31.255 1.245 39.962 11.973"/>
			<path stroke-linecap="round" d="M374.5 406.05c5.12-3.359 14.838-7.761 23.624-3.428 3.259 1.608 5.442 3.597 6.675 6.84a15.52 15.52 0 0 1-2.79 14.949c-1.32 1.4-4.2 4.074-7.78 4.12-5.91.079-7.316-4.056-7.466-4.975-.699-4.276 1.79-5.987 3.111-6.453 1.014-.358 4.312-.266 5.01 2.065a4.174 4.174 0 0 1-.346 3.144"/>
			<path d="M394.86 421.45a5.27 5.27 0 0 0-1.321-5.209 8.013 8.013 0 0 0-9.175-1.4 11.61 11.61 0 0 0-3.965 3.266l-1.788 2.488a19.351 19.351 0 0 0-1.704 3.887c-3.845 10.928 2.413 22.532 10.256 27.522 6.842 4.354 13.84 5.598 22.47 6.375 3.993.36 6.256.437 10.263.623 3.223.149 6.008.096 8.63.064l6.296-.064a110.46 110.46 0 0 1 11.274.155c4.55.331 7.973.448 11.818 1.089 2.512.418 5.456.822 8.543 1.515.926.21 1.865.38 2.808.67l1.882.576a62.33 62.33 0 0 1 15.257 6.52 23.63 23.63 0 0 1 3.877 2.71c.796.795 1.472 1.256 2.123 1.898 2.99 2.94 6.048 6.126 6.763 10.438.112.83.156 1.67.132 2.508 0 2.798-2.278 6.608-8.42 7.852"/>
			<path d="M466.62 488.16c-1.633 3.343.224 5.024 2.488 5.287 3.343.388 5.131-2.255 5.364-4.665a6.87 6.87 0 0 0-6.327-7.366l-.515-.02a8.674 8.674 0 0 0-7.764 5.477 10.79 10.79 0 0 0-.788 3.697 9.147 9.147 0 0 0 2.223 6.474 11.74 11.74 0 0 0 8.429 3.866c6.6.265 11.74-5.908 11.74-12.206 0-12.05-17.873-18.623-24.957-20.314-8.708-2.077-14.006-2.855-27.99-3.632-5.597-.311-9.697-.153-15.86-.792a94.337 94.337 0 0 1-14.073-2.162 42.58 42.58 0 0 1-19.592-9.952c-4.55-4.131-7.153-7.075-9.26-12.75-1.817-4.898-2.652-14.596 1.951-21.77a22.4 22.4 0 0 1 16.172-10.565c5.83-.843 10.942 1.672 13.995 7.456 1.478 2.8 1.022 7.48-.148 9.64a9.37 9.37 0 0 1-7.471 4.666c-5.909.078-7.313-4.057-7.464-4.976-.7-4.276 1.788-5.987 3.11-6.453 1.014-.358 4.312-.266 5.012 2.065a4.18 4.18 0 0 1-.347 3.144"/>
			<path stroke-linecap="round" d="m426.97 212.58-.547-.81c-2.644-3.887-7.312-4.911-10.73-2.332-4.12 3.11-5.16 8.402-4.042 13.994a13.572 13.572 0 0 0 6.324 8.521"/>
			<path d="M573.04 224.37c-6.298 6.842-12.595 9.026-22.003 9.33-2.938.095-8.552-.933-11.818-3.258-2.098-1.494-4.432-4.05-2.954-8.482.987-2.962 5.746-11.273 5.98-17.027.355-8.79-3.026-13.606-8.313-15.472-9.774-3.45-20.267 6.22-26.589 8.32a21.34 21.34 0 0 1-8.008 1.25 21.63 21.63 0 0 1-8.068-1.241c-6.323-2.108-16.816-11.77-26.59-8.32-5.287 1.867-8.668 6.683-8.312 15.473.234 5.752 4.992 14.063 5.98 17.026 1.477 4.43-.857 6.988-2.955 8.48-3.265 2.327-8.88 3.354-11.818 3.26-9.407-.304-15.705-2.488-22.003-9.33"/>
			<path stroke-linecap="round" d="M464.58 466.27c1.246.487.303-.295 8.195 3.203 7.576 3.359 12.954 6.3 17.663 13.736a15.464 15.464 0 0 1 1.866 7.62 16.65 16.65 0 0 1-.459 3.84"/>
			<path d="M465.09 500.06a12.52 12.52 0 0 0 5.081 1.29c6.6.264 11.74-5.91 11.74-12.207 0-4.366-2.377-8.044-5.706-11"/>
			<path stroke-linecap="round" d="M466.52 488.15c-1.594 3.553.677 5.475 2.94 5.738a4.91 4.91 0 0 0 5.432-4.328l.026-.337a6.98 6.98 0 0 0-3.278-6.485"/>
			<path d="M609.53 216.87c5.018 0 9.394 5.585 9.394 11.317 0 6.605-3.513 10.648-6.087 13.705-2.072 2.46-4.316 4.663-6.982 7.348"/>
			<path stroke-linecap="round" d="M603.58 211.58a10.822 10.822 0 0 1 4.346 3.819c2.099 3.11 2.633 5.712 2.487 9.563-.249 6.6-4.998 11.17-9.246 13.959m-7.457-27.341a8.66 8.66 0 0 1 1 1.014c2.877 3.421 3.1 8.478 2.41 11.281-1.035 4.213-2.427 6.029-5.846 8.549m-7.914-22.574c4.12 3.11 5.346 8.489 3.98 14.026-.975 3.957-3.463 6.328-6.565 8.217m17.385 64.187c.493 1.447 1.306 1.95 2.332 3.022a21.14 21.14 0 0 0 9.623 5.504c3.334.98 6.928.482 9.87-1.367m-254.695 84.43c1.937-.034 3.869 1.274 5.133 3.469a5.09 5.09 0 0 1 .628 2.41 4.276 4.276 0 0 1-1.593 3.453c-2.245 1.441-6.232.826-6.065-3.139"/>
			<path d="M377.33 336.4c7.703 1.438 15.119 10.729 17.546 20.865a46.03 46.03 0 0 1 .396 18.815 35.05 35.05 0 0 1-9.16 17.585 25.826 25.826 0 0 1-3.323 2.855l-1.654 1.113m-12.38-18.963c3.164 0 5.934 3.032 5.934 6.273a5.926 5.926 0 0 1-1.615 4.085m-6.459-6.678a6.84 6.84 0 0 1 6.433 6.546 6.09 6.09 0 0 1-2.316 4.786"/>
			<path stroke-linecap="round" d="M396.84 349.2c3.027 4.063 5.025 7.561 5.954 12.07m-.104 13.26a26.98 26.98 0 0 1-2.264 6.322 27.859 27.859 0 0 1-5.552 7.253"/>
			<path d="M397.32 325.52a14.58 14.58 0 0 1 5.501 7.469"/>
			<path stroke-linecap="round" d="M402.9 317.92c-.767 2.66-2.506 4.674-5.266 7.193M383.33 298.27l3.369-.886 1.994-1.508 1.285-1.817 1.108-2.837.444-2.305"/>
			<path d="M376.51 286.41a20.24 20.24 0 0 0-3.824 1.333 13.97 13.97 0 0 0-5.506 4.576c-1.856 2.63-2.938 6.286-3.608 9.484a30.98 30.98 0 0 0 .252 10.41 24.628 24.628 0 0 0 3.6 8.807 14.292 14.292 0 0 0 1.622 2.087c2.022 2.021 3.888 3.265 6.997 2.643"/>
			<path stroke-linecap="round" d="M395.38 271.58c-.546 2.007-1.625 4.493-4.774 4.221"/>
			<path d="M383.87 285.2c-3.024-2.956-9.43-3.726-15.798.302a24.12 24.12 0 0 0-2.448 1.859 13.847 13.847 0 0 0-2.25 2.482 28.057 28.057 0 0 0-2.182 3.8 19.629 19.629 0 0 0-1.474 4.142 31.717 31.717 0 0 0-1.02 9.776c.176 1.513.32 2.903.567 4.182a29.13 29.13 0 0 0 3.475 9.656c1.407 2.333 4.906 7.69 12.058 8.397 2.811.278 7.612-1.01 7.768-4.665"/>
			<path stroke-linecap="round" d="M568.38 220.42c.478-2.581 3.59-3.08 4.758-1.555 1.8 2.348.61 6.382-3.051 7.526a5.89 5.89 0 0 1-5.987-2.177 6.78 6.78 0 0 1 1.585-9.45l.281-.19c4.251-3.234 11.118-2.488 13.372 2.954 2.909 7.02-3.42 12.284-9.252 16.25-7.34 4.991-15.705 5.9-22.003 5.83-14.306-.156-25.19-6.997-32.265-10.884-1.648-.906-3.345-.72-4.198.31a3.117 3.117 0 0 0 .389 4.277m59.25-15.3a2.625 2.625 0 0 1 2.388 1.266c1.8 2.348.485 6.383-3.176 7.526m27.869 80.537c-5.45 5.933-.437 16.116 3.636 18.418 1.41 1.097 2.013.515 3.14 1.175"/>
			<path d="M598.63 295.99c-1.788 1.244-2.418 2.642-2.488 5.07a8.196 8.196 0 0 0 2.203 6.272c2.972 3.092 8.786 5.784 14.42 5.855 3.35.097 6.645-.86 9.422-2.736a14.156 14.156 0 0 0 5.987-8.397M595.58 398.6a38 38 0 0 1-.212 3.887 32.805 32.805 0 0 1-9.795 19.671 30.679 30.679 0 0 1-9.097 6.375 38.43 38.43 0 0 1-10.263 3.42 52.317 52.317 0 0 1-10.73 1.322 74.53 74.53 0 0 1-9.909-.254c-4.127-.275-6.417-.849-10.538-1.212a83.34 83.34 0 0 0-8.743-.567 44.763 44.763 0 0 0-8.983.644 34.33 34.33 0 0 0-8.086 2.255c-4.198 1.7-8.94 4.664-9.952 5.986-1.01-1.322-5.754-4.286-9.952-5.986a34.403 34.403 0 0 0-8.085-2.255 44.767 44.767 0 0 0-8.984-.644 82.69 82.69 0 0 0-8.743.566c-4.12.362-6.41.937-10.538 1.223-3.294.306-6.605.39-9.91.254a52.444 52.444 0 0 1-10.728-1.32 38.43 38.43 0 0 1-10.263-3.422 30.66 30.66 0 0 1-9.097-6.375 32.812 32.812 0 0 1-9.796-19.67 37.952 37.952 0 0 1-.212-3.888v-159.03h192.55V398.6h.066z"/>
		</g>
	</g>
	<g fill="#c6aa76">
		<path stroke="#c7b37f" stroke-width=".513" d="M387.41 421.32a3.91 3.91 0 0 1 3.903-3.911 3.91 3.91 0 0 1 3.911 3.903v.009a3.91 3.91 0 0 1-3.91 3.903 3.91 3.91 0 0 1-3.904-3.903zm-23.99-27.61c0-1.932 1.236-3.499 2.76-3.499s2.76 1.57 2.76 3.5-1.236 3.5-2.76 3.5-2.76-1.56-2.76-3.491z"/>
		<path d="M377.05 324.36a2.674 2.674 0 0 1 5.33.4 2.673 2.673 0 0 1-2.665 2.472 2.775 2.775 0 0 1-2.665-2.873zm47.86-102.55a2.49 2.49 0 0 1 2.636-2.329 2.49 2.49 0 0 1 2.33 2.636 2.488 2.488 0 0 1-2.222 2.32 2.7 2.7 0 0 1-2.744-2.627z"/>
	</g>
	<g fill="none" stroke="#c7b37f" stroke-width=".987">
		<path stroke-linecap="round" d="M373.92 340.54a3.884 3.884 0 0 0-2.138 2.208 6.36 6.36 0 0 0-.38 1.858m7.368 41.794 1.391-1.687a16.95 16.95 0 0 0 1.073-1.47c.344-.539.498-.867.801-1.43l1.05-2.06m-1.975 21.777-2.37 1.088-1.71 1.003-1.946 1.307-1.904 1.523m23.38-59.201-1.283-1.321-1.4-1.322c-.556-.47-.91-.683-1.492-1.12"/>
		<path d="M397.17 326.47c-.618.319-1.254.602-1.905.848-.75.278-1.54.44-2.34.482"/>
		<path stroke-linecap="round" d="M371 300.68c.173.787.391 1.563.653 2.325a12.18 12.18 0 0 0 1.446 2.666 13.05 13.05 0 0 0 1.99 2.457c.65.658 1.38 1.24 2.17 1.734a25 25 0 0 0 2.32 1.244m-1.549-9.156a19.32 19.32 0 0 0 1.943 1.042c.614.26 1.251.46 1.904.598a11.49 11.49 0 0 0 2.683.32 12.09 12.09 0 0 0 2.917-.234m11.203-63.526-3.196-1.866a19.074 19.074 0 0 1-2.923-2.371 14.607 14.607 0 0 1-1.811-2.022c-.563-.76-.778-1.257-1.275-2.06m11.714-7.111c.278.914.613 1.81 1.003 2.682a12.19 12.19 0 0 0 2.225 3.188c1.413 1.552 2.612 1.992 4.282 3.265m2.27-9.245c.28.824.612 1.629.995 2.41.364.68.8 1.318 1.3 1.905a11.468 11.468 0 0 0 2.098 2.06 22.796 22.796 0 0 0 2.94 1.75"/>
	</g>
	<g fill="#713f2a">
		<path stroke="#713f2a" stroke-width=".277" d="M520.78 211.91c-.08-2.649-2.69-2.924-3.69-2.924-2.885 0-3.666 1.8-7.265 3.732-4.512 2.424-6.455 2.962-10.466 2.998-4.01-.036-6.005-.575-10.517-2.998-3.6-1.932-4.205-3.674-7.091-3.674a3.64 3.64 0 0 0-3.516 3.757l.003.075a6.48 6.48 0 0 0 .093 1.347c.047.204.296.14.374.32a3.64 3.64 0 0 1 .8-2.633 3.415 3.415 0 0 1 2.54-1.313c2.885 0 3.953 1.85 7.553 3.784 4.512 2.423 6.453 2.962 10.464 2.998 4.01-.036 6.007-.575 10.519-2.998 3.6-1.933 4.634-3.938 7.52-3.938a2.12 2.12 0 0 1 2.032 1.667 4.96 4.96 0 0 1 .14 1.293c.026.121.174.109.207.24a4.08 4.08 0 0 0 .3-1.733z"/>
		<path d="M413.12 434.42c.81-.872 1.423-.544 1.573-.946.11-.297-.13-.327-.46-.45-.44-.165-.906-.26-1.346-.424-.457-.17-.87-.405-1.327-.576-.189-.07-.625-.293-.75.04-.228.61 1.602.558.988 2.2a5.79 5.79 0 0 1-1.274 1.875l-4.141 4.507c-.093.104-.248.326-.342.29s-.082-.309-.083-.45l.06-6.39a8.468 8.468 0 0 1 .303-2.636c.28-.734 1.12-.119 1.3-.59.11-.298.03-.31-.47-.498-.252-.094-.734-.195-1.74-.57l-1.563-.665c-.236-.088-.672-.41-.828.01-.046.123.12.304.16.34.523.293.815.875.74 1.471l.113 11.635c.011.84.101 1.073.26 1.132.172.065.29-.011.632-.4l8.205-8.904z"/>
		<path d="M417.95 436.22c.533-1.69 1.532-.671 1.723-1.276.067-.214-.001-.275-.482-.426l-2.088-.58-1.788-.642c-.144-.046-.527-.225-.623.077-.196.623 1.77.695 1.26 2.314l-2.693 8.542c-.533 1.69-1.54.864-1.736 1.486-.028.09-.036.224.109.27l1.816.494 2.412.83c.368.115.534.09.596-.107.18-.57-1.872-.316-1.182-2.505l2.676-8.487zm5.78 1.71c.318-1.073.817-.926 1.413-.75 1.626.483 2.135 2.073 1.616 3.827-.313 1.055-.706 2.028-3.153 1.303-.483-.143-1.08-.32-.946-.766l1.07-3.614zm-4.434 7.696c-.667 2.254-1.797 1.278-1.966 1.85-.106.358.248.404.425.457l2.5.663c.677.2 1.09.4 1.364.481.37.11.53.04.579-.12.19-.644-1.621-.383-1.054-2.297l.917-3.095c.185-.626.126-.78.979-.527.805.238 1.047.485 1.184 1.382l.515 3.227c.192 1.186.374 2.465 1.645 2.842.644.19 1.824.112 1.988-.443a.248.248 0 0 0-.15-.316c-.178-.054-.371.005-.532-.042a.617.617 0 0 1-.495-.458l-1.06-5.704c.053-.179.568-.201 1.156-.475a2.963 2.963 0 0 0 1.596-1.959c.244-.823.67-3.44-2.856-4.485l-3.274-.892-1.862-.63c-.193-.056-.381-.015-.434.164-.19.644 1.76.502 1.17 2.505l-2.33 7.872zm13.164 3.854c-.518 2.159-2.154.845-2.324 1.552-.096.4.186.448.48.52l2.303.475 2.269.622c.473.113.787.246.89-.19.123-.507-2.093-.483-1.557-2.715l1.97-8.2c.21-.87.4-.922 1.07-.76l1.39.332c1.895.378.889 2.267 1.542 2.423.425.102.415-.648.435-.874l.22-1.712c.028-.185.089-.44-.156-.498l-5.014-1.127-4.978-1.272c-.245-.06-.306.195-.366.372l-.836 2.332c-.09.228-.283.604.06.686.734.176.815-2.318 2.66-1.875l1.372.33c.669.16.81.29.6 1.161l-2.021 8.418zm19.84-5.06c.646-1 1.306-.782 1.385-1.204.057-.312-.184-.3-.53-.364-.463-.086-.94-.098-1.401-.184-.48-.089-.928-.248-1.406-.337-.198-.037-.667-.18-.732.168-.12.643 1.675.273 1.355 1.997a5.75 5.75 0 0 1-.93 2.067l-3.295 5.158c-.073.12-.187.364-.286.345s-.134-.29-.16-.428l-1.052-6.305a8.5 8.5 0 0 1-.158-2.648c.143-.77 1.083-.31 1.175-.807.057-.312-.03-.309-.557-.407-.264-.049-.756-.064-1.813-.26l-1.654-.382c-.248-.046-.732-.288-.814.152-.024.13.17.28.217.306.566.2.955.722.984 1.321l2.132 11.44c.155.825.286 1.04.45 1.07.183.034.286-.06.556-.505l6.534-10.193zm.93 10.51c.009.456-.032.6.363.78.848.496 1.756.884 2.702 1.152 2.169.362 3.967-1.02 4.37-3.43.39-2.338-.57-3.312-2.197-4.473-2.037-1.457-2.908-1.85-2.702-3.082a1.774 1.774 0 0 1 2.162-1.624c2.849.476 2.524 3.94 2.905 4.004.364.06.45-.151.486-.562l.23-2.496c.027-.43.123-.697-.126-.738-.215-.036-.681.19-.894.153-.496-.083-1.072-.917-2.43-1.144-1.938-.325-3.521 1-3.875 3.116-.324 1.932.533 2.813 1.84 3.75 2.449 1.753 3.453 2.167 3.19 3.73a2.235 2.235 0 0 1-2.68 1.974c-1.837-.308-2.584-2.154-2.82-4.01-.024-.25-.03-.42-.295-.465-.413-.069-.336.492-.33.758l.09 2.607zm24.72-6.97c.538-1.062 1.217-.915 1.25-1.343.026-.316-.213-.28-.565-.306-.468-.037-.943 0-1.412-.036-.485-.038-.948-.15-1.433-.188-.201-.016-.682-.11-.71.243-.051.651 1.694.096 1.556 1.845a5.77 5.77 0 0 1-.708 2.152l-2.74 5.474c-.06.126-.147.381-.247.374s-.164-.275-.204-.41l-1.704-6.16a8.466 8.466 0 0 1-.435-2.617c.062-.78 1.044-.423 1.084-.925.024-.316-.06-.304-.596-.346-.268-.02-.76.016-1.83-.07l-1.685-.207c-.25-.02-.75-.21-.79.237-.01.13.2.26.25.282a1.476 1.476 0 0 1 1.12 1.21l3.317 11.154c.24.805.394 1.004.56 1.017.185.014.278-.091.5-.56l5.433-10.82z"/>
		<path d="M480.6 457c-.016 1.903-1.626 1.553-1.632 2.3-.002.317.334.226.519.228l1.444-.062 1.98.092c.22 0 .64.024.64-.237.008-.87-2.152.38-2.12-3.21l.055-6.34c0-.159.036-.29.137-.289.084 0 .183.094.3.244l7.992 9.772a.493.493 0 0 0 .434.265c.2.001.2-.146.2-.557l.09-10.466c.013-1.958 1.44-1.498 1.443-2.058 0-.057.002-.244-.317-.246-.15 0-.74.068-1.797.059l-1.913-.092c-.218 0-.27.184-.27.314-.007.616 2.044.298 2.03 1.996l-.054 6.214c-.005.465-.04.69-.14.69s-.3-.229-.517-.49l-6.678-8.288c-.3-.358-.098-.486-.635-.49-.89-.01-1.327.062-1.764.058-.319 0-.62-.08-.94-.083a.282.282 0 0 0-.29.275c0 .014 0 .027.002.04-.009.896 1.884-.3 1.852 3.282l-.06 7.09zm16.26-8.4c.016-1.772 1.27-1.09 1.274-1.724.002-.224-.08-.262-.585-.267-.96-.01-1.57.061-2.17.056-.59 0-1.248-.086-1.9-.09-.15-.002-.57-.062-.576.256-.006.664 1.801.158 1.787 1.856l.015 8.954c-.015 1.772-1.22 1.277-1.225 1.93 0 .093.03.224.182.225.436.01 1.16-.065 1.881-.059l2.55.097c.387.001.54-.069.54-.274.006-.597-1.882.245-1.862-2.05l.078-8.9zm7.04 8.67c.02 2.22-1.886 1.341-1.88 2.07.006.41.29.39.592.385l2.35-.095 2.351.054c.487 0 .824.05.82-.4-.005-.521-2.15.038-2.17-2.256l-.073-8.433c-.007-.895.16-.99.848-.996l1.427-.02c1.93-.09 1.411 1.983 2.083 1.977.436 0 .245-.73.21-.953l-.2-1.716c-.018-.187-.02-.448-.273-.446l-5.137.121c-2.452.022-3.577-.042-5.139-.028-.252 0-.25.263-.265.45l-.247 2.465c-.03.244-.128.655.224.65.756-.01.231-2.444 2.128-2.46l1.41-.013c.69-.01.858.086.866.98l.075 8.657zm9.78-3.53c-.3.024-.534.061-.549-.125a1.91 1.91 0 0 1 .13-.703l1.03-3.393c.078-.212.144-.236.177-.238.083-.01.033 0 .145.138l1.638 3.26a1.92 1.92 0 0 1 .238.672c.013.186-.22.186-.523.21l-2.276.18zm2.874.784c.436-.034.534.146 1.2 1.553a3.5 3.5 0 0 1 .4 1.222c.09 1.135-1.115 1.024-1.073 1.563.02.26.236.206.537.183l1.835-.22 2.166-.096c.452-.035.605-.01.58-.326-.05-.614-.9.183-1.54-1.096l-5.42-11.028c-.262-.54-.298-.575-.449-.563-.218.018-.274.377-.368.684l-3.65 11.61c-.337 1.074-1.2 1.03-1.166 1.458.02.242.284.183.518.165.485-.038.965-.15 1.467-.19l1.58-.05c.351-.028.88.062.85-.329-.04-.502-1.824-.062-1.93-1.401.013-.507.093-1.01.236-1.497.288-1.258.634-1.36.92-1.382l3.297-.26zm12.976-7.734c-.168-1.276-.104-1.304 1.91-1.569 3.213-.423 2.2 1.912 2.982 1.81.383-.05.22-.65.171-.889l-.307-1.822a.343.343 0 0 0-.373-.309l-3.793.586-4.438.51a.332.332 0 0 0-.326.335l.001.026c.098.74 1.901-.1 2.12 1.564l1.14 8.658c.297 2.256-1.1 1.424-.988 2.275.016.112.127.191.343.163l2.122-.355 1.99-.185c.417-.055.776-.027.727-.397-.06-.5-1.88.21-2.15-1.844l-.36-2.738c-.14-1.073-.233-1.286.53-1.387l1.234-.162c1.733-.23 1.525 1.793 2.057 1.722.4-.053.212-.705.164-.943l-.55-3.277c-.082-.498-.26-.437-.377-.42-.333.044-.16 1.752-1.59 1.941l-1.05.14c-.716.095-.733-.034-.838-.83l-.34-2.59h-.001zm6.14 4.24c.69 3.724 3.378 5.787 6.697 5.172 5.267-.976 5.44-5.657 4.965-8.225-.72-3.89-3.62-5.8-6.833-5.166-3.939.767-5.574 4.201-4.829 8.22zm1.837-1.422c-.493-2.66-.137-5.345 2.643-5.917 2.123-.43 4.532 1.323 5.283 5.378.565 3.045.096 5.675-2.734 6.256-2.945.603-4.696-3.039-5.192-5.717zm13.023-6.498c-.26-1.089.245-1.21.85-1.355 1.65-.396 2.885.727 3.312 2.505.257 1.07.403 2.11-2.08 2.705-.49.118-1.093.263-1.202-.19l-.88-3.665zm.01 8.882c.548 2.286-.918 2.004-.779 2.585.087.363.417.226.596.183l2.498-.676c.685-.165 1.143-.198 1.421-.265.376-.09.48-.23.44-.393-.156-.654-1.594.478-2.06-1.463l-.753-3.138c-.153-.635-.28-.739.584-.947a1.356 1.356 0 0 1 1.717.605l2.06 2.537c.758.931 1.555 1.95 2.845 1.64.653-.158 1.635-.816 1.5-1.378a.246.246 0 0 0-.286-.199l-.02.004c-.163.04-.3.187-.464.226a.62.62 0 0 1-.657-.149l-3.77-4.41c-.044-.18.39-.458.764-.99a2.96 2.96 0 0 0 .403-2.494c-.2-.835-1.15-3.314-4.72-2.456l-3.28.864-1.93.386c-.2.047-.34.177-.3.359.157.653 1.776-.446 2.264 1.586l1.916 7.983zm13.47-3.012c.556 2.15-1.505 1.758-1.323 2.462.102.398.374.308.667.232l2.257-.66 2.295-.517c.471-.122.81-.152.698-.585-.13-.506-2.076.556-2.65-1.666l-2.112-8.164c-.224-.867-.085-1 .581-1.172l1.382-.358c1.851-.555 1.85 1.584 2.5 1.416.422-.11.061-.767-.027-.976l-.609-1.615c-.063-.177-.128-.43-.372-.367l-4.956 1.36-4.993 1.214c-.244.063-.179.316-.148.5l.356 2.452c.029.243.034.666.375.577.732-.189-.368-2.429 1.469-2.904l1.365-.353c.667-.172.853-.124 1.077.743l2.168 8.381zm8.59-11.46c-.474-1.708.92-1.397.75-2.009-.06-.204-.15-.218-.636-.084l-2.068.65-1.848.436c-.146.041-.565.1-.48.406.174.631 1.863-.38 2.316 1.255l2.394 8.63c.474 1.708-.82 1.564-.647 2.193.025.09.093.207.238.167l1.793-.574 2.48-.61c.371-.102.497-.214.442-.412-.16-.576-1.742.754-2.356-1.458l-2.378-8.575zm3.58 4.17c1.202 3.592 4.15 5.261 7.352 4.19 5.08-1.7 4.6-6.36 3.771-8.836-1.255-3.75-4.39-5.24-7.485-4.166-3.793 1.31-4.934 4.937-3.638 8.812zm1.621-1.664c-.847-2.565-.868-5.273 1.805-6.227 2.042-.73 4.671.68 5.98 4.59.982 2.93.884 5.6-1.837 6.57-2.833 1.002-5.074-2.36-5.938-4.94zm11.93-8.466c-.41-1.04.073-1.232.651-1.46 1.578-.622 2.96.318 3.63 2.02.403 1.024.692 2.033-1.683 2.968-.469.185-1.047.412-1.218-.023l-1.38-3.506v.001zm1.244 8.794c.861 2.187-.63 2.113-.41 2.67.134.346.442.165.614.097l2.378-1.017c.656-.259 1.105-.355 1.37-.46.36-.142.444-.295.382-.452-.245-.625-1.51.697-2.243-1.16l-1.18-3.004c-.24-.608-.38-.692.446-1.018a1.354 1.354 0 0 1 1.783.36l2.393 2.225c.881.816 1.812 1.713 3.046 1.227.624-.246 1.505-1.034 1.293-1.572a.246.246 0 0 0-.31-.158l-.02.007c-.157.062-.272.227-.428.29a.62.62 0 0 1-.672-.057l-4.347-3.843c-.069-.173.322-.508.62-1.085.391-.793.41-1.719.05-2.527-.315-.8-1.59-3.123-5.013-1.776l-3.129 1.313-1.855.65c-.188.075-.31.222-.24.396.245.625 1.695-.688 2.461 1.256l3.01 7.638z"/>
	</g>
	<path fill="#d52b1e" d="M412.66 249.25h82.179v82.023h-82.18V249.25z"/>
	<path fill="#fff" d="M451.2 313.83a20.15 20.15 0 0 1-.855 5.287c-.933 2.72-.94 2.72-1.796 4.043a13.133 13.133 0 0 1-3.821 3.887 9.42 9.42 0 0 1-5.95 1.71c-5.489-.486-8.036-6.44-9.28-11.273-1.32-5.13-5.074-7.923-7.464-6.064-1.4 1.089-1.48 2.914-.311 4.665a9.01 9.01 0 0 0 4.098 2.8l-2.933 3.73a9.18 9.18 0 0 1-7.535-7.392c-.466-2.488.742-7.134 4.89-8.522 5.298-1.774 8.687 2.004 10.319 5.19 2.246 4.385 3.21 12.435 9.43 11.19 3.384-.676 4.976-5.597 4.976-7.851l2.467-2.644 3.654 1.167.1.078zm5.12 0a20.15 20.15 0 0 0 .855 5.287c.933 2.72.94 2.72 1.796 4.043a13.133 13.133 0 0 0 3.81 3.887 9.42 9.42 0 0 0 5.948 1.71c5.49-.486 8.038-6.44 9.283-11.273 1.321-5.13 5.073-7.923 7.463-6.064 1.4 1.089 1.479 2.914.311 4.665a9.01 9.01 0 0 1-4.099 2.8l2.933 3.73a9.18 9.18 0 0 0 7.535-7.392c.466-2.488-.742-7.134-4.89-8.522-5.298-1.774-8.687 2.004-10.319 5.19-2.246 4.385-3.21 12.435-9.43 11.19-3.384-.676-4.976-5.597-4.976-7.851l-2.467-2.644-3.654 1.167-.099.078z"/>
	<path fill="#fedd00" d="m461.12 278.95 10.76-11.643a4.69 4.69 0 0 0 1.61-3.401l-2.219.345-.497-1.142-.11-1.147 2.981-.63c.048-.484.007-.85.092-1.384.08-.494.19-.76.31-1.244l-3.264.218c.166-.571.128-.875.31-1.406a4.04 4.04 0 0 1 .504-1.103l1.907-.304c.728-.08 1.143-.04 1.873-.09 1.78-3.32 9.19-6.378 14.454-.909 3.81 3.957 2.988 11.22-1.95 13.14a6.32 6.32 0 0 1-6.862-1.11l1.97-3.867c2.71 1.625 4.965-.396 4.81-2.495a4.58 4.58 0 0 0-4.353-4.51c-2.254-.197-3.872 1.093-4.898 3.11-.626 1.231-.336 2.134-.544 3.5a23.92 23.92 0 0 1-.537 3.81 8.76 8.76 0 0 1-2.37 3.591l-11.03 11.935-42.94 46.445-3.228-2.983 43.211-46.737v.001z"/>
	<path fill="#fff" d="M429.51 283.04s2.7 13.372 11.874 33.431c4.665-1.71 7.42-2.8 12.362-2.8s7.697.934 12.362 2.8c9.174-20.059 11.874-33.431 11.874-33.431l-24.236-31.177-24.236 31.177z"/>
	<path fill="#fedd00" d="m456.12 262.41 16.82 21.637s-2.243 10.52-9.078 26.354a47.33 47.33 0 0 0-7.733-1.32l-.009-46.67v-.001zm-4.74 0-16.82 21.637s2.243 10.52 9.078 26.354a47.33 47.33 0 0 1 7.733-1.32l.009-46.67v-.001zm52.22-13.16h82.179v82.023H503.6V249.25z"/>
	<path fill="#d52b1e" d="M515.11 249.25h12.253v82.023H515.11V249.25zm23.48 0h12.253v82.023H538.59V249.25zm23.48 0h12.253v82.023H562.07V249.25z"/>
	<path fill="#fedd00" d="M412.97 402.41a20.76 20.76 0 0 0 2.163 6.609c1.477 2.332.932 2.269 4.276 6a23.918 23.918 0 0 0 6.227 4.495 26.955 26.955 0 0 0 6.842 2.496 50.943 50.943 0 0 0 16.574 1.598 98.46 98.46 0 0 0 10.249-1.062 108.8 108.8 0 0 1 11.118-1.01c2.133-.09 4.15-.11 6.142 0 2.457.162 4.9.499 7.308 1.01a79.67 79.67 0 0 1 10.962 3.188l.014-85.655-82.193-.023V398.6s.168 2.86.318 3.81z"/>
	<path fill="#d52b1e" stroke="#d52b1e" stroke-width=".513" d="m422.51 417.43 3.852 2.241 5.278 1.9-.005-81.52h-9.126l.001 77.389zm45.66 3.71.01-81.099h-9.142v82.396l9.13-.988.002-.309zm18.24-81.09h-9.113v81.38a60.43 60.43 0 0 1 9.13 1.684l-.017-83.064zm-36.49 0v83.33a80.663 80.663 0 0 1-9.173-.002l.002-83.314 9.17-.014z"/>
	<path fill="#fedd00" d="M585.48 402.39a20.728 20.728 0 0 1-2.163 6.608c-1.477 2.333-.932 2.27-4.275 6.001a23.963 23.963 0 0 1-6.228 4.495 26.91 26.91 0 0 1-6.84 2.495 50.95 50.95 0 0 1-16.575 1.588 98.69 98.69 0 0 1-10.25-1.061 108.633 108.633 0 0 0-11.117-1.01c-2.133-.09-4.15-.11-6.142 0a51.47 51.47 0 0 0-7.309 1.01 82.42 82.42 0 0 0-11.033 3.188l.057-85.655 82.193-.023v58.544s-.168 2.86-.318 3.81z"/>
	<use xlink:href="#a" fill="#d52b1e"/>
	<g stroke="#fedf00">
		<use xlink:href="#b" fill="none" stroke-linecap="round" stroke-width=".987"/>
		<use xlink:href="#c" fill="#fcd900" stroke-width=".513"/>
		<g fill="none" stroke-width=".987">
			<use xlink:href="#d" stroke-linecap="round"/>
			<path d="m560.12 369.78.384-.249a8.149 8.149 0 0 0 2.686-1.79"/>
			<g stroke-linecap="round">
				<path d="M552.38 368.02h.007c3.533-.883 5.885-2.648 7.579-2.869"/>
				<use xlink:href="#e"/>
			</g>
		</g>
		<use xlink:href="#f" fill="#fcd900" stroke-width=".513"/>
	</g>
	<path fill="#005eb8" d="M525.13 364.17a15.473 15.473 0 0 1-1.966-.826c.323-.25.587-.265.863-.555.39-.408.373-.788.593-1.319.215-.52.184-.954.671-1.343.329-.22.74-.281 1.118-.165.38.106.7.39.84.766.135.56-.16.886-.248 1.454-.155.47-.22.965-.195 1.46a6.07 6.07 0 0 0 .355.907 15.3 15.3 0 0 1-2.04-.38zm-.99.95a.625.625 0 1 1 1.252-.014.626.626 0 0 1-1.252.018v-.004zm-1.76-16.51-.144-.104c-.383-.31-.42-.653-.601-1.11a4.093 4.093 0 0 1-.315-1.154 7.331 7.331 0 0 1 0-1.048c.02-.314.02-.63 0-.944a2.172 2.172 0 0 0-.21-.944c-.097-.18-.394-.337-.314-.42.094-.096.257-.02.42 0a1.64 1.64 0 0 1 .943.42c.338.262.576.632.672 1.049l.407 1.468c.058.257.154.505.284.734a4.27 4.27 0 0 0 .524.629l-.011.023a9.012 9.012 0 0 1-.777.834c-.261.22-.544.412-.846.573l-.033-.01v.004zm3.6 10.64 2.23 1.031a9.23 9.23 0 0 0 3.497-3.919 13.839 13.839 0 0 0 1.364-4.313l-1.789-.59-.357.072a15.655 15.655 0 0 1-1.618 4.192 11.63 11.63 0 0 1-2.649 3.034l-.678.484zm4.94 18.12c.282-.439.59-.861.922-1.264a12.73 12.73 0 0 1 1.312-1.15c.163-.011.327.014.48.071a8.677 8.677 0 0 1-.526 2.751 3.48 3.48 0 0 1-.39.979 4.15 4.15 0 0 1-.476.518c-.51-.742-1.33-1.297-1.322-1.906zm33.01 1.85a7.51 7.51 0 0 1 2.936 1.482c.055.155.076.32.063.483a9.05 9.05 0 0 1-1.53.251 8.39 8.39 0 0 1-1.259 0 3.46 3.46 0 0 1-1.048-.105 4.3 4.3 0 0 1-.63-.303c.573-.696.88-1.637 1.468-1.797zm-9.76-2.04a7.53 7.53 0 0 1 2.936 1.482 1.16 1.16 0 0 1 .063.482 8.95 8.95 0 0 1-1.53.252 8.4 8.4 0 0 1-1.259 0 3.46 3.46 0 0 1-1.048-.105 4.3 4.3 0 0 1-.63-.314c.573-.696.88-1.637 1.468-1.797zm-17.34 2.13a13.02 13.02 0 0 1 1.469.538 13.16 13.16 0 0 1 1.46.944 1.2 1.2 0 0 1 .061.483 9.08 9.08 0 0 1-1.53.251 8.38 8.38 0 0 1-1.26 0 3.433 3.433 0 0 1-1.048-.105 4.252 4.252 0 0 1-.63-.314c.573-.696.88-1.637 1.468-1.797zm-8.98-29.8c-.613-.278-1.05-1.045-.66-1.594.155-.22.412-.174.565-.395.144-.254.192-.552.136-.839a5.22 5.22 0 0 0-.21-.944 5.007 5.007 0 0 1-.124-1.048 2.25 2.25 0 0 1 .345-1.573c.211-.279.497-.491.825-.612.147.136-.057.502-.033.822a3.83 3.83 0 0 0 .288 1.153c.202.563.48.809.703 1.363a3.58 3.58 0 0 1 .421 1.363 2.29 2.29 0 0 1-.21 1.154 2.007 2.007 0 0 1-.61.839 1.85 1.85 0 0 1-.796.419 1.15 1.15 0 0 1-.628-.108z"/>
	<use xlink:href="#a" y="36.591" fill="#d52b1e"/>
	<g stroke="#fedf00">
		<use xlink:href="#b" y="36.591" fill="none" stroke-linecap="round" stroke-width=".987"/>
		<use xlink:href="#c" y="36.591" fill="#fcd900" stroke-width=".513"/>
		<g fill="none" stroke-width=".987">
			<use xlink:href="#d" y="36.591" stroke-linecap="round"/>
			<path d="m560.12 406.371.384-.249a8.149 8.149 0 0 0 2.686-1.79"/>
			<g stroke-linecap="round">
				<path d="M552.38 404.611h.007c3.533-.883 5.885-2.648 7.579-2.869"/>
				<use xlink:href="#e" y="36.591"/>
			</g>
		</g>
		<use xlink:href="#f" y="36.591" fill="#fcd900" stroke-width=".513"/>
	</g>
	<path fill="#005eb8" d="M525.13 400.761a15.473 15.473 0 0 1-1.966-.826c.323-.25.587-.265.863-.555.39-.408.373-.788.593-1.319.215-.52.184-.954.671-1.343.329-.22.74-.281 1.118-.165.38.106.7.39.84.766.135.56-.16.886-.248 1.454-.155.47-.22.965-.195 1.46a6.07 6.07 0 0 0 .355.907 15.3 15.3 0 0 1-2.04-.38zm-.99.95a.625.625 0 1 1 1.252-.014.626.626 0 0 1-1.252.018v-.004zm-1.76-16.51-.144-.104c-.383-.31-.42-.653-.601-1.11a4.093 4.093 0 0 1-.315-1.154 7.331 7.331 0 0 1 0-1.048c.02-.314.02-.63 0-.944a2.172 2.172 0 0 0-.21-.944c-.097-.18-.394-.337-.314-.42.094-.096.257-.02.42 0a1.64 1.64 0 0 1 .943.42c.338.262.576.632.672 1.049l.407 1.468c.058.257.154.505.284.734a4.27 4.27 0 0 0 .524.629l-.011.023a9.012 9.012 0 0 1-.777.834c-.261.22-.544.412-.846.573l-.033-.01v.004zm3.6 10.64 2.23 1.031a9.23 9.23 0 0 0 3.497-3.919 13.839 13.839 0 0 0 1.364-4.313l-1.789-.58-.357.072a15.655 15.655 0 0 1-1.618 4.192 11.63 11.63 0 0 1-2.649 3.034l-.678.483zm4.94 18.12c.282-.439.59-.861.922-1.264a12.73 12.73 0 0 1 1.312-1.15c.163-.011.327.014.48.071a8.677 8.677 0 0 1-.526 2.751 3.48 3.48 0 0 1-.39.979 4.15 4.15 0 0 1-.476.518c-.51-.742-1.33-1.297-1.322-1.906v.001zm33.01 1.85a7.51 7.51 0 0 1 2.936 1.482c.055.155.076.32.063.483a9.05 9.05 0 0 1-1.53.251 8.39 8.39 0 0 1-1.259 0 3.46 3.46 0 0 1-1.048-.105 4.3 4.3 0 0 1-.63-.314c.573-.696.88-1.637 1.468-1.797zm-9.76-2.04a7.53 7.53 0 0 1 2.936 1.493 1.16 1.16 0 0 1 .063.482 8.95 8.95 0 0 1-1.53.251 8.4 8.4 0 0 1-1.259 0 3.46 3.46 0 0 1-1.048-.106 4.3 4.3 0 0 1-.63-.314c.573-.694.88-1.635 1.468-1.795zm-17.34 2.141a13.02 13.02 0 0 1 1.469.539 13.16 13.16 0 0 1 1.46.943 1.2 1.2 0 0 1 .061.484 9.08 9.08 0 0 1-1.53.25 8.38 8.38 0 0 1-1.26 0 3.433 3.433 0 0 1-1.048-.104 4.252 4.252 0 0 1-.63-.314c.573-.695.88-1.636 1.468-1.796zm-8.98-29.8c-.613-.279-1.05-1.046-.66-1.595.155-.22.412-.174.565-.395.144-.254.192-.552.136-.839a5.22 5.22 0 0 0-.21-.944 5.007 5.007 0 0 1-.124-1.047 2.25 2.25 0 0 1 .345-1.573c.211-.28.497-.49.825-.612.147.136-.057.502-.033.822a3.83 3.83 0 0 0 .288 1.153c.202.563.48.81.703 1.363a3.58 3.58 0 0 1 .421 1.363 2.29 2.29 0 0 1-.21 1.154 2.007 2.007 0 0 1-.61.84 1.85 1.85 0 0 1-.796.418 1.15 1.15 0 0 1-.628-.108z"/>
	<path fill="none" stroke="#713f2a" stroke-width=".797" d="M412.66 249.25h82.179v82.023h-82.18V249.25zm90.94 0h82.179v82.023H503.6V249.25zm-90.63 153.16a20.76 20.76 0 0 0 2.163 6.609c1.477 2.332.932 2.269 4.276 6a23.918 23.918 0 0 0 6.227 4.495 26.955 26.955 0 0 0 6.842 2.496 50.943 50.943 0 0 0 16.574 1.598 98.46 98.46 0 0 0 10.249-1.062 108.8 108.8 0 0 1 11.118-1.01c2.133-.09 4.15-.11 6.142 0 2.457.162 4.9.499 7.308 1.01a79.67 79.67 0 0 1 10.962 3.188l.014-85.655-82.193-.023V398.6s.168 2.86.318 3.81zm172.51-.02a20.728 20.728 0 0 1-2.163 6.608c-1.477 2.333-.932 2.27-4.275 6.001a23.963 23.963 0 0 1-6.228 4.495 26.91 26.91 0 0 1-6.84 2.495 50.95 50.95 0 0 1-16.575 1.588 98.69 98.69 0 0 1-10.25-1.061 108.633 108.633 0 0 0-11.117-1.01c-2.133-.09-4.15-.11-6.142 0a51.47 51.47 0 0 0-7.309 1.01 82.42 82.42 0 0 0-11.033 3.188l.057-85.655 82.193-.023v58.544s-.168 2.86-.318 3.81z"/>
	<defs>
		<path id="a" d="m524.62 346.91-.594.281a8.45 8.45 0 0 1-.781.813 12.25 12.25 0 0 1-1.25.843c-.22.113-.421.261-.594.438-.252.32-.079.63-.25 1a3.68 3.68 0 0 1-.656.938c-.332.356-.687.69-1.063 1a4.973 4.973 0 0 1-1.093 1 1.77 1.77 0 0 1-.344.187c-.216.067-.35-.011-.563.062-.388.134-.51.563-.78.72.111.217.106.371.218.593.158.323.705 1.215.812 1.437.21.305.27.7.532.781a3.1 3.1 0 0 0 1.312.125 10.76 10.76 0 0 1 2.031.47c.613.253.863.574 1.47.843.406.201.836.348 1.28.437.326.087.664.12 1 .094.25-.024.377-.12.625-.156a.52.52 0 0 1 .125 0l-.03.375c-.006 0 .004.028 0 .031v.062h.062l2.062.906c-.24.358-.33.796-.25 1.22.63 1.887 1.16 3.068 1.47 3.187.614.236.805.865 1.155 1.5-.123.132-.227.2-.344.312a8.998 8.998 0 0 0-1.656 1.813c-.745 1.188-1.248 1.203-.312 2.78.549.926.814 1.1 1.53 2.407a8.16 8.16 0 0 1 .782 1.97 7.64 7.64 0 0 1 .313 1.968l.968.375.657-.657.625-1.187.03-.906a.775.775 0 0 1-.25-.782c.07-.368.515-.29.72-.625.283-.46-.332-.734-.657-1.093-.605-.67-1.43-.833-1.625-1.844-.052-.273.078-.427.375-.719l1.97-1.812a1.46 1.46 0 0 0 .968.125c.28-.053.53.125 1.406.375a2.21 2.21 0 0 0 1.219.03l.375-.093a3.5 3.5 0 0 1 .125.687c.053 1.06-.155 2.995.156 3.5a3.29 3.29 0 0 1 .281.563 1.69 1.69 0 0 1 .22.656v1.875a15.2 15.2 0 0 1-.22 1.75 2.02 2.02 0 0 1-.437 1.062c-.283.364-.595.418-.97.688l-.092 1 1.125.47 1.28.311.688-.28a1.18 1.18 0 0 1 .156-.626c.128-.247.232-.44.47-.53.362-.144.759.128.905-.095.16-.242.06-.338.032-.75-.046-.662-.184-.99-.282-1.657a11.8 11.8 0 0 1-.156-2.75 9.4 9.4 0 0 1 .156-1.562c.172-.883.486-1.31.688-2.188a21.53 21.53 0 0 0 .375-2.468c3.11.48 6.283.353 9.344-.375.169-.037.75-.25.75-.25a8.64 8.64 0 0 0 2.718 1.625c-.006.1-.015.845 0 .968.037.288-.04.482.125.72a.583.583 0 0 0 .375.28.66.66 0 0 0 .657-.156c.226-.2.184-.454.25-.75a3.94 3.94 0 0 0 0-.687c.289.05.582.07.875.062.292.012.585.002.875-.03l.03.467c.028.245-.075.435.032.657.082.215.273.37.5.406a.66.66 0 0 0 .53-.094c.3-.185.27-.498.32-.844.019-.11.01-.692 0-.78l1.03-.38a5.12 5.12 0 0 1-.09.81 5.01 5.01 0 0 1-.25.94 7.2 7.2 0 0 1-.75 1.371c-.3.548-.645 1.071-1.03 1.563l-.562.657c-.256.337-.342.566-.594.906a4.67 4.67 0 0 1-.938 1.062c-.693.55-1.15.11-2.093.844l-.22 1.03 1.438.533 1.282.25.437-.25a1.01 1.01 0 0 1 .219-.75c.19-.24.475-.388.78-.407.362-.06.748.034 1.032-.218.349-.31.348-.914.624-1.47a12.671 12.671 0 0 1 3-3.904c.613-.597 1.138-.758 1.657-1.438.246-.322.52-.47.53-.875.009-.283-.143-.415-.218-.687a9.62 9.62 0 0 1-.187-1c1.52.744.97.646 1.25 1.406.225.615-.033 1.04.062 1.687.11.756.466 1.114.53 1.875a7.42 7.42 0 0 1-.31 2.313 7.14 7.14 0 0 1-.47 2 3.84 3.84 0 0 1-1.155 1.562c-.21.175-.37.25-.594.407l-.125 1.03 1.125.377 1.625.437.375-.343c.164-.655-.055-1.617.406-1.688.407-.062.694 0 .783-.312a5.01 5.01 0 0 0 .093-.625l.627-4.5.407-1.907c.06-.578.197-1.145.406-1.687.734-2.097-.208-2.375-1.063-3.656a2.992 2.992 0 0 1-.687-1.5c-.097-.817.164-1.495.125-2.75v-2.875c.115-.053.222-.12.344-.188a4.08 4.08 0 0 0 2.375-2.47 3.43 3.43 0 0 0 .312-1.465c-.005-.332-.065-.652-.094-1.032a2.76 2.76 0 0 0-.311-.937 3.192 3.192 0 0 0-.563-.844 5.443 5.443 0 0 0-2.718-1.47 13.91 13.91 0 0 0-4.125-.557 26.85 26.85 0 0 0-4.282-.062c-2.005.114-3.127.52-5.124.75a43.35 43.35 0 0 1-4.906.406c-2.26.042-4.42-.46-5.782-.344-2.45.21-2.493.762-6.188 1.063l-3.843.187-2.157-.687a2.425 2.425 0 0 0 1.47-1.03c.27-.367.232-.68.562-1.064.266-.312.443-.622.78-.97a2.2 2.2 0 0 0-.937-.433 2.502 2.502 0 0 0-.937 0c-.425.03-.84.148-1.22.344a2.77 2.77 0 0 0-.843.593 19.624 19.624 0 0 0-2.188-1.218 9.178 9.178 0 0 0-3-.907v.002zm1.969 11.906h.062c-.012.01-.019.022-.03.031l-.032-.03z"/>
		<path id="b" d="m568.77 359.52-.763.244a6.792 6.792 0 0 1-2.6.496c-2.644.202-4.272-1.057-6.998-.847-1.404.108-2.025 1.19-3.46 1.548a9.237 9.237 0 0 1-1.701.282l.512-1.034c-.697.143-1.404.231-2.115.264a7.55 7.55 0 0 1-1.523-.13l1.018-.95a7.219 7.219 0 0 1-1.294-.336 3.923 3.923 0 0 1-1.06-.63l1.69-.353c1.556-.385 2.04-1.147 3.89-1.325 1.15-.111 3.032-.046 7.643.717 3.036.502 4.382.267 5.536-.258a2 2 0 0 0 1.103-1.788 2.14 2.14 0 0 0-.874-1.81 1.74 1.74 0 0 0-1.113-.363"/>
		<path id="c" d="M524.8 350.61a1.84 1.84 0 0 0-1.34.291c-.48.296-.541.697-.888 1.142.445.1.699.361 1.142.254.306-.074.575-.253.76-.507a1.55 1.55 0 0 0 .429-1.156l-.103-.024z"/>
		<path id="d" d="m536.04 363.79.407.8c.224.47.4.961.524 1.467.117.695.197 1.395.24 2.098l.077.376-.05 1.14m6.802-6.951-.354 1.334-.944 3.46-.103.645m-10.859-3.977c.79.176.544 3.36 1.79 4.09"/>
		<path id="e" d="M555.97 363.61a8.14 8.14 0 0 0 .83-.068c1.467-.21 1.703.687 2.725 1.258 1.857 1.039 2.098 2.307 4.3 3.356l.32.155.848.429"/>
		<path id="f" d="M517.7 354.53c.23.064.47.083.707.054.332-.031.484-.238.817-.25a.965.965 0 0 1 .684.126.83.83 0 0 1 .28.342c.101.133.145.3.124.466a.576.576 0 0 1-.614.42.55.55 0 0 1-.544-.272.47.47 0 0 1-.039-.39 1.167 1.167 0 0 1-1.415-.496z"/>
	</defs>
</svg>
