<svg xmlns="http://www.w3.org/2000/svg" viewBox="0 0 675 450">
	<path fill="#012a87" d="M0 0h675v450H0z"/>
	<path fill="#dc171d" d="M0 0h675v225H0z"/>
	<path fill="#fff" d="M0 0v450l300-225z"/>
	<path fill="#f9d90f" stroke="#000" stroke-width=".401" d="m151.553 169.848.094-3.481s-1.87-2.979.303-6.18c0 0-4.615-2.438-3.542-6.259 0 0-4.172-1.066-3.866-5.654 0 0-4.498-.314-4.966-4.146 0 0-4.502.74-6.482-2.993 0 0-4.392.858-5.632-2.22 0 0-4.27 1.48-6.803-2.138 0 0-4.505 1.822-6.395-1.595-1.863 3.401-6.372 1.595-6.372 1.595-2.502 3.605-6.803 2.11-6.803 2.11-1.195 3.09-5.575 2.214-5.575 2.214-1.973 3.734-6.47 2.99-6.47 2.99-.443 3.82-4.937 4.134-4.937 4.134.355 4.6-3.81 5.643-3.81 5.643 1.097 3.817-3.507 6.251-3.507 6.251 2.226 3.22.374 6.176.374 6.176l-.106 3.212 74.506.348h-.011z"/>
	<g stroke-width="2.022" transform="matrix(1.8697 0 0 1.8687 193.7 289.09)">
		<path fill="#bc715f" stroke="#000" stroke-width=".214" d="M-42.413-75.046c1.068 1.078.07 1.668-.916 1.114-2.434-1.843-5.28-2.865-9.193-1.751-5.623.02-11.597-.318-14.328 2.667-.195.575-1.72 2.745 4.179-.438-.37 2.2 2.37.402 4.49-.597-1.46 1.519 2.237 1.77 4.576.269-1.149 1.544.871 1.502 2.787 1.513 2.803.087 1.254 2.526-3.542 2.627-.35-.024-1.695.607.12 1.075.841.042.157 1.214 3.065-.278-.18.874 1.065.705 2.826.16.998.785 1.808-.03 2.666-.438 3.674 1.437 8.526 2.875 9.83-2.11 3.069-.353 5.607-.803 4.233-1.97 3.995 1.629 4.226 1 4.165.196 1.916.725 4.144 1.705 3.237.113 1.84.47 3.858.635 5.43 1.576 1.595.826 1.079-.617.705-1.266-.817-1.305-1.848-1.69-4.176-1.74-1.973-.04-11.22-2.62-16.03.166h.027c-.086 0-2-1.801-2-1.801.44-.012.759-.234 1.014-.563a17.995 17.995 0 0 0 5.63-.591c.854-.27 1.34.239 1.322.617.782-1.376-.3-1.661-1.098-1.604-3.174.18-5.08.014-6.613-.254-3.043-1.518-6.704.81-3.32 2.73z"/>
		<path d="M-41.698-77.742c-.637.095-1.294.172-1.548.613.019-.726 1.099-.776 1.548-.613z"/>
		<ellipse cx="-42.036" cy="-77.474" rx=".274" ry=".281"/>
	</g>
	<g stroke="#000">
		<path fill="#dc171d" stroke-width=".401" d="M50.587 160.77c2.35 13.333 4.958 26.996 6.236 40.954 2.797 20.674-9.782 38.022-4.623 58.447 3.08 9.796 13.856 15.496 23.717 16.622 13.085 2.472 28.898.008 38.45 9.79 9.55-9.786 25.367-7.318 38.448-9.79 9.865-1.13 20.637-6.826 23.717-16.622 5.159-20.42-7.416-37.777-4.623-58.447 1.274-13.958 3.883-27.62 6.229-40.95-23.03 12.502-45.785-3.765-63.78 6.636-17.99-10.4-40.75 5.866-63.78-6.637z"/>
		<path fill="#62afe1" stroke-width=".401" d="M59.174 171.54c2.03 11 4.282 22.274 5.39 33.79 2.41 17.053-8.448 31.37-3.992 48.22 2.657 8.087 11.966 12.785 20.485 13.719 11.3 2.037 24.96 0 33.207 8.077 8.247-8.077 21.91-6.04 33.207-8.08 8.52-.93 17.828-5.632 20.485-13.717 4.456-16.845-6.402-31.166-3.995-48.22 1.11-11.515 3.37-22.79 5.39-33.788-19.89 10.318-39.54-3.103-55.08 5.476-15.541-8.58-35.195 4.838-55.087-5.48z"/>
		<g stroke-width=".238">
			<g fill="#fff" stroke-width=".9">
				<g stroke-linecap="round">
					<path d="m103.465 202.378-23.274 15.95v19.2h68.141v-19.2l-23.274-15.95z"/>
					<path d="M74.662 234.353v3.666h2.24v18.863h74.715v-18.86h2.24v-3.67zm39.598-52.774-10.795 10.507v10.292h21.593v-10.292zM83.555 220.93h6.826v10.814h-6.822zm19.381 0h6.826v10.814h-6.826zm42.029 0h-6.826v10.814h6.826zm-19.378 0h-6.83v10.814h6.83z"/>
					<path d="M83.555 239.735h6.826v10.81h-6.822zm61.41 0h-6.826v10.81h6.826zm-25.353-.613h-10.704v17.764h10.704zm-16.925-4.77h-4.8v22.53h4.8zm23.146 0h4.803v22.53h-4.8z"/>
					<path d="M132.417 235.124v-5.564H96.103v5.564z"/>
				</g>
				<path d="M103.465 192.086h21.593m-44.868 26.24h68.141"/>
				<path stroke-linecap="round" d="M72.953 254.528h82.617v5.84H72.95zm45.426-60.216h-8.239v5.836h8.24z"/>
			</g>
			<g fill="none">
				<path stroke-width="1.002" d="M98.696 229.56v5.564m31.128-5.564v5.564m-2.597-5.564v5.564m-2.592-5.564v5.564m-2.593-5.564v5.564m-2.593-5.564v5.564m-2.596-5.564v5.564m-2.59-5.564v5.564m-2.596-5.564v5.564m-2.593-5.564v5.564m-2.596-5.564v5.564m-2.593-5.564v5.564m-2.593-5.564v5.564"/>
				<path stroke-width=".9" d="M132.417 229.938v5.186"/>
			</g>
		</g>
		<g fill="#008830" stroke-width=".255">
			<path d="M-30.543-85.287c2.909 1.856 4.284 3.573 4.291 5.165-3.62-.193-6.893-1.897-4.29-5.165z" transform="matrix(1.76318 0 0 1.76283 133.11 330.853)"/>
			<path d="M-28.2-83.598c2.8 1.594 4.38 3.33 4.866 5.19-2.846.496-5.882-.847-4.866-5.19zm-3.621 2.738c.37 3.202-.09 5.502-1.3 6.997-2.088-1.998-2.807-5.239 1.293-6.996z" transform="matrix(1.76318 0 0 1.76283 133.11 330.853)"/>
			<path d="M-31.818-80.85c2.632 1.862 4.032 3.744 4.334 5.644-2.88.214-5.77-1.42-4.334-5.643z" transform="matrix(1.76318 0 0 1.76283 133.11 330.853)"/>
			<path d="m-30.07-83.411 1.212.757 1.302-.128.545.899s-.146 1.848-.147 2.016c0 .17.402 1.202.402 1.202l-.886.644-2.372.972-2.218-1.802-1.399.145-.613-1.738.69-1.482 1.73-1.124z" transform="matrix(1.76318 0 0 1.76283 133.11 330.853)"/>
			<path d="M-32.347-82.492c-1.14 3.015-2.61 4.843-4.373 5.613-.93-2.734-.075-5.942 4.373-5.613z" transform="matrix(1.76318 0 0 1.76283 133.11 330.853)"/>
			<path d="M-32.353-82.272c-3.162-.623-5.21-1.767-6.262-3.378 2.541-1.373 5.846-1.063 6.262 3.378zm6.047.108c3.21.285 5.496-.243 6.956-1.496-2.057-2.028-5.318-2.652-6.956 1.496z" transform="matrix(1.76318 0 0 1.76283 133.11 330.853)"/>
			<path d="M-26.296-82.16c1.936 2.576 3.857 3.922 5.765 4.169.13-2.886-1.586-5.727-5.765-4.17zm-1.01 1.574c2.414 2.137 3.601 4.16 3.694 6.083-2.887-.102-5.581-2.042-3.693-6.083z" transform="matrix(1.76318 0 0 1.76283 133.11 330.853)"/>
			<path d="M-28.3-77.045c1.652 2.768 2.17 5.056 1.675 6.916-2.72-.973-4.7-3.638-1.674-6.916z" transform="matrix(1.76318 0 0 1.76283 133.11 330.853)"/>
			<path d="M-29.46-77.224c.365 3.202-.105 5.5-1.321 6.992-2.08-2.006-2.785-5.25 1.32-6.992z" transform="matrix(1.76318 0 0 1.76283 133.11 330.853)"/>
		</g>
		<g fill="#f9d90f">
			<g stroke-width=".262">
				<path d="M-31.378-80.613a1.165 1.165 0 0 1-.458-.752c-.036-.247-.016-.406.096-.754.056-.177.1-.325.1-.33a.345.345 0 0 0-.099-.03c-.09-.018-.102-.012-.266.14-.56.516-1.07.764-1.42.688-.404-.088-.56-.65-.334-1.213.191-.48.55-.772 1.01-.824a.933.933 0 0 1 .439.042c.13.035.231.054.225.041a1.51 1.51 0 0 0-.22-.156c-.565-.359-.9-.773-.922-1.144-.016-.27.16-.528.462-.677a1.124 1.124 0 0 1 1.437.404c.142.229.18.41.18.88 0 .274.01.43.03.439a.52.52 0 0 1 .104.1l.071.08.28-.23a4.27 4.27 0 0 1 .724-.5c.321-.17.7-.22.888-.111.415.232.413.986-.003 1.502-.338.419-.85.566-1.32.38a3.753 3.753 0 0 0-.33-.113l-.14-.038.215.275c.292.37.455.635.568.92.213.536.105.95-.295 1.127-.308.138-.71.083-1.022-.137z" transform="matrix(1.7209 0 0 1.72057 131.465 327.089)"/>
				<path d="M-59.336-65.64a.649.73 0 0 1-.65.73.649.73 0 0 1-.648-.73.649.73 0 0 1 .649-.73.649.73 0 0 1 .649.73z" transform="matrix(1.59864 .63693 -.63705 1.59834 131.465 327.089)"/>
			</g>
			<g stroke-width=".255">
				<path d="M-28.657-84.003c.002.248.044.404.198.741.078.171.141.315.14.32 0 .005-.04.022-.087.036-.082.026-.094.02-.269-.116-.597-.47-1.11-.676-1.426-.574-.367.119-.43.688-.139 1.23.248.46.626.722 1.063.738a.81.81 0 0 0 .405-.075c.116-.045.21-.072.205-.059-.004.014-.086.09-.183.172-.478.4-.73.837-.698 1.207.023.268.225.51.53.635a.977.977 0 0 0 1.286-.512c.1-.237.108-.42.04-.887-.04-.271-.052-.427-.034-.437a.424.424 0 0 0 .083-.102l.055-.086.295.206c.301.21.515.336.75.44.324.145.685.164.847.045.354-.262.244-1.01-.22-1.49-.376-.389-.878-.496-1.29-.274-.092.05-.224.112-.292.138l-.126.049.163-.29c.22-.39.334-.665.4-.956.121-.548-.04-.95-.44-1.096-.308-.111-.677-.026-.906.188s-.353.519-.35.81z" transform="matrix(1.76318 0 0 1.76283 133.11 330.477)"/>
				<path d="M-28.622-82.545a.635.732 32.565 0 1 .9-.408.635.732 32.565 0 1 .271.91.635.732 32.565 0 1-.9.408.635.732 32.565 0 1-.271-.91z" transform="matrix(1.76318 0 0 1.76283 133.11 330.477)"/>
			</g>
			<g stroke-width=".224">
				<path d="M-31.603-77.281c-.12-.228-.158-.39-.183-.775a6.262 6.262 0 0 0-.028-.36.306.306 0 0 0-.098.01c-.088.016-.096.026-.188.238-.315.722-.683 1.163-1.022 1.225-.393.072-.73-.417-.73-1.055 0-.542.217-.968.608-1.197a.84.84 0 0 1 .407-.13c.128-.016.226-.038.216-.048-.01-.01-.123-.04-.252-.067-.632-.13-1.078-.405-1.23-.76-.11-.255-.045-.576.171-.84.364-.442.994-.515 1.427-.164.208.168.305.33.472.79.097.268.163.417.184.417a.44.44 0 0 1 .126.052l.093.05.168-.332c.172-.34.306-.56.469-.77.225-.292.545-.487.752-.457.452.064.718.8.53 1.468-.152.54-.558.884-1.043.884-.108 0-.26.008-.335.018l-.129.018.29.184c.39.248.63.444.833.677.38.442.431.888.137 1.217a.948.948 0 0 1-.919.274 1.156 1.156 0 0 1-.718-.567z" transform="matrix(1.93975 .51978 -.5195 1.93888 97.464 361.016)"/>
				<path d="M-31.259-79.217a.623.767 0 0 1-.623.767.623.767 0 0 1-.623-.767.623.767 0 0 1 .623-.767.623.767 0 0 1 .623.767z" transform="matrix(1.93975 .51978 -.5195 1.93888 97.464 361.016)"/>
			</g>
			<g stroke-width=".229">
				<path d="M-28.182-76.458c-.12-.228-.158-.39-.183-.775a6.272 6.272 0 0 0-.028-.36.306.306 0 0 0-.098.01c-.088.017-.096.027-.188.238-.315.723-.683 1.163-1.022 1.225-.4.072-.739-.416-.73-1.054 0-.543.21-.969.6-1.198a.84.84 0 0 1 .407-.13c.13-.016.226-.037.216-.048-.01-.01-.123-.04-.252-.066-.632-.13-1.078-.406-1.23-.76-.11-.256-.045-.577.172-.84a1.012 1.012 0 0 1 1.426-.165c.21.168.307.332.474.792.096.266.162.415.184.415a.44.44 0 0 1 .125.052l.092.051.17-.333c.17-.34.303-.56.466-.77.225-.292.545-.487.752-.457.452.064.72.801.53 1.468-.152.54-.558.885-1.043.885-.109 0-.26.007-.336.017l-.138.018.29.184c.392.25.632.444.834.678.38.44.431.887.138 1.216a.948.948 0 0 1-.92.274 1.156 1.156 0 0 1-.718-.567z" transform="matrix(1.8813 -.55579 -.5556 -1.88072 94 29.974)"/>
				<path d="M-82.333 7.207a.69.767 0 0 1-.69.766.69.767 0 0 1-.69-.766.69.767 0 0 1 .69-.767.69.767 0 0 1 .69.767z" transform="matrix(-.04988 -1.96048 -1.961 .04996 94 29.974)"/>
			</g>
		</g>
		<path fill="#fff" stroke-width=".801" d="M159.57 203.546h-2.862v-2.033h-2.434v-2.321h-2.79v-14.74l-3.178-5.556-3.174 5.556v14.74h-2.794v2.32h-2.434v2.034h-2.86v3l22.525.065z"/>
	</g>
	<path fill="#f9d90f" d="M114.511 296.058c11.445.037 25.52-2.3 32.114-5.708l14.48-1.283.289 17.668c-12.267 6.763-40.59 8.216-46.821 8.167-6.238.05-34.91-1.428-47.232-8.216l.16-17.68 14.519 1.306c6.593 3.392 21.098 5.746 32.53 5.746h-.03"/>
	<path fill="#f9b60f" d="m67.34 306.686 14.934-3.416-14.883-2.13z"/>
	<path fill="#f9d90f" d="m30.063 220.7 12.757 4.06-3.858 20.654-12.076 1.875s-2.036-10.86 3.177-26.6"/>
	<path fill="#f9b60f" d="m26.886 247.29 7.845-10.824 4.231 8.948z"/>
	<path fill="none" stroke="#000" stroke-width=".401" d="m30.063 220.697 12.756 4.063-3.855 20.651-12.08 1.879s-2.033-10.862 3.175-26.604v.015zm37.277 85.984 15.028-3.413M34.742 236.4l4.218 9.012"/>
	<path fill="#f9b60f" d="m161.394 306.735-14.933-3.416 14.883-2.13z"/>
	<path fill="#f9d90f" d="m198.672 220.75-12.758 4.06 3.858 20.653 12.077 1.876s2.036-10.86-3.177-26.602"/>
	<path fill="#f9b60f" d="m201.849 247.339-7.845-10.824-4.232 8.948z"/>
	<path fill="none" stroke="#000" stroke-width=".401" d="m198.672 220.75-12.756 4.06 3.855 20.65 12.075 1.88s2.04-10.863-3.174-26.605v.015zm-37.278 85.984-15.027-3.416m47.625-66.868-4.22 9.01m-75.259 50.597c11.444.038 25.52-2.298 32.11-5.707l14.484-1.285.287 17.67c-12.268 6.765-40.592 8.216-46.82 8.163-6.237.053-34.912-1.425-47.234-8.213l.16-17.68 14.513 1.307c6.591 3.39 21.097 5.745 32.53 5.745h-.03"/>
	<path fill="#f9d90f" d="m206.301 235.627-12.297.888c-.276 10.42-1.54 50.18-49.023 52.338l1.478 14.466c57.8.6 62.191-48.769 59.842-67.692"/>
	<path fill="none" stroke="#000" stroke-width=".401" d="m206.302 235.626-12.298.888c-.276 10.42-1.538 50.181-49.02 52.34l1.473 14.464c57.8.6 62.193-48.768 59.845-67.692z"/>
	<path fill="#f9d90f" d="m22.433 235.578 12.298.888c.275 10.42 1.539 50.18 49.022 52.338l-1.478 14.466c-57.8.6-62.19-48.769-59.842-67.692"/>
	<path fill="none" stroke="#000" stroke-width=".401" d="m22.432 235.577 12.299.888c.28 10.42 1.54 50.181 49.027 52.34l-1.474 14.463c-57.8.601-62.191-48.767-59.844-67.69z"/>
	<path fill="#012a87" d="M106.45 304.766c-.326.208-.767.264-1.276.239l-2.294-.117.196-2.863 2.276.122c.447.03.803.117 1.024.252.46.239.662.68.62 1.294-.03.527-.215.87-.553 1.073m-3.85 4.507.226-3.49 2.674.185c.865.068 1.51-.16 1.944-.601.454-.43.687-.993.718-1.63.055-.743-.135-1.35-.577-1.798-.423-.43-1.024-.656-1.779-.73l-3.82-.238-.53 8.216 1.13.074m8.7-6.862 2.796.03c.405.037.724.086.957.197.43.202.632.607.632 1.195 0 .56-.16.929-.474 1.149-.3.202-.736.294-1.257.294l-2.684-.03.024-2.827m-.043 7.278.025-3.508 2.625.037c.466 0 .81.037 1.05.153.385.178.575.553.594 1.067l.068 1.377c.02.33.025.534.043.668.036.098.054.202.103.277h1.41l-.024-.18c-.16-.085-.288-.25-.343-.502-.05-.16-.074-.397-.086-.7l-.024-1.095c-.02-.497-.105-.84-.295-1.03a1.47 1.47 0 0 0-.742-.528c.396-.208.691-.447.905-.742.202-.325.306-.736.306-1.238 0-.944-.386-1.59-1.17-1.938-.424-.193-.964-.293-1.6-.303l-3.946-.04-.03 8.243h1.135m9.342-1.75c-.504-.611-.774-1.38-.835-2.285-.055-1.141.166-2.012.687-2.6.527-.64 1.208-.945 2.097-.994.897-.05 1.633.24 2.18.804.557.552.876 1.319.931 2.276.032.919-.127 1.734-.549 2.452-.418.73-1.11 1.14-2.135 1.165-1.068.056-1.865-.196-2.374-.816m-1.35-5.187c-.53.815-.744 1.76-.689 2.9.08 1.233.46 2.25 1.177 3.018.795.766 1.85 1.152 3.15 1.078 1.392-.06 2.44-.587 3.152-1.556.577-.877.853-1.895.792-3.152-.08-1.122-.405-2.036-1.012-2.717-.767-.913-1.89-1.317-3.41-1.256-1.436.09-2.49.619-3.17 1.686M28.06 250.88l.19 1.029c-.46.092-.828.277-1.098.516-.485.453-.65 1.134-.485 2.06.074.392.215.778.393 1.085.368.624.846.875 1.454.777.447-.08.742-.251.883-.57.135-.313.233-.792.264-1.404l.056-1.16c.038-.717.116-1.28.276-1.594.25-.564.723-.914 1.43-1.03a2.457 2.457 0 0 1 1.986.466c.576.398.957 1.09 1.098 2.01.178.842.098 1.596-.233 2.276-.32.663-.933 1.067-1.87 1.24l-.185-1.043c.435-.16.76-.314.975-.528.368-.411.478-1.005.337-1.82-.11-.664-.337-1.093-.68-1.307-.338-.252-.675-.35-1.043-.288-.41.06-.68.288-.81.656-.08.245-.14.754-.197 1.533l-.055 1.2c-.03.565-.117 1.032-.307 1.35-.3.589-.81.95-1.55 1.067-.94.16-1.664-.055-2.179-.656-.528-.588-.853-1.294-1.019-2.17-.184-1.043-.05-1.852.368-2.502.423-.668 1.092-1.055 2-1.183m-.522 10.86 8.11-2.44 1.892 5.707-.989.313-1.545-4.69-2.466.743 1.43 4.334-.946.3-1.416-4.346-2.748.82 1.57 4.796-.97.277-1.92-5.813m3.595 9.896 7.458-3.954.798 1.39-5.128 5.42 7.49-1.28.772 1.38-7.44 3.93-.528-.911 4.391-2.31c.16-.094.405-.23.76-.418.35-.16.743-.375 1.135-.577l-7.458 1.27-.546-.97 5.091-5.402-.245.123c-.16.09-.436.227-.81.44a6.141 6.141 0 0 1-.822.442l-4.379 2.35-.54-.932m13.897 10.993c-.374-.084-.742-.3-1.104-.674l-1.576-1.625 2.122-1.944 1.59 1.62c.305.3.502.594.606.846.146.484 0 .926-.449 1.342-.405.374-.81.528-1.19.436m-5.992.754 2.6-2.385 1.847 1.87c.591.607 1.2.883 1.836.87a2.595 2.595 0 0 0 1.7-.742c.551-.49.814-1.067.814-1.686-.007-.602-.282-1.165-.79-1.692l-2.65-2.705-6.17 5.666.797.803m7.453 6.623 4.47-7.01 5.288 3.214-.553.835-4.343-2.6-1.343 2.12 3.993 2.423-.515.804-4-2.41-1.52 2.372 4.397 2.644-.527.828zm13.235-1.355 2.687.853c.38.115.656.263.84.43.343.324.435.79.233 1.353-.165.49-.417.81-.81.945-.349.06-.789.06-1.305-.098l-2.533-.81.89-2.673m-2.32 6.886 1.117-3.347 2.503.815c.447.118.772.277.932.442.305.276.4.687.244 1.196l-.374 1.33c-.086.325-.13.54-.166.638 0 .105 0 .215.02.288l1.318.43.08-.19c-.14-.11-.22-.313-.215-.564.03-.153.074-.398.16-.68l.321-1.067c.128-.466.178-.816.061-1.067a1.685 1.685 0 0 0-.54-.73c.417-.073.78-.201 1.086-.43.29-.25.534-.6.681-1.09.3-.89.135-1.631-.527-2.195-.33-.293-.804-.545-1.423-.778l-3.752-1.158-2.625 7.818 1.097.338m100.025-5.206c.794-.12 1.48-.07 2.101.156.915.304 1.522.997 1.89 2.046l-1.137.138c-.235-.568-.578-.96-1.046-1.184-.456-.21-1.032-.27-1.696-.184a2.646 2.646 0 0 0-1.848 1.089c-.438.653-.582 1.535-.412 2.666.142.935.471 1.732 1.026 2.27.51.549 1.274.753 2.276.63.75-.11 1.355-.397 1.79-.905.45-.482.59-1.222.461-2.181l-2.65.357-.12-.91 3.69-.497.641 4.373-.733.097-.435-1.014c-.312.449-.625.793-.899.99-.46.347-1.077.563-1.845.66-.997.132-1.9-.062-2.713-.605-.89-.684-1.454-1.687-1.65-3.07-.214-1.36.022-2.515.664-3.417.61-.872 1.485-1.37 2.653-1.516m8.33-.471 2.657-.908c.363-.128.676-.166.946-.13.483.045.834.34 1.026.92.18.494.17.923-.05 1.22-.234.308-.594.53-1.11.71l-2.495.843-.976-2.655m2.513 6.858-1.228-3.328 2.47-.84c.462-.138.782-.212 1.02-.183.435.063.762.333.973.84l.534 1.267c.117.314.212.506.29.594.035.11.113.18.173.254l1.34-.466-.07-.18c-.197-.002-.385-.116-.522-.334-.1-.155-.195-.377-.332-.637l-.416-1.04c-.188-.45-.386-.73-.616-.9a2.104 2.104 0 0 0-.872-.254c.275-.308.477-.617.557-.984.087-.372.058-.79-.112-1.258-.32-.883-.93-1.373-1.8-1.45-.459-.045-.989.043-1.599.246l-3.728 1.25 2.85 7.805 1.093-.38m9.717-3.93-4.578-6.947 5.224-3.198.555.838-4.28 2.626 1.408 2.124 3.952-2.443.519.813-3.952 2.443 1.552 2.34 4.355-2.674.558.82-5.317 3.258m4.342-12.053 1.377-1.46c.637-.651 1.305-.941 2.027-.841.722.075 1.45.468 2.224 1.17.21.169.397.387.59.63.334.453.529.85.649 1.244.1.493.07.94-.11 1.366-.11.213-.297.46-.58.757l-1.38 1.446-4.797-4.325m7.066 3.36c.976-1.036 1.205-2.167.67-3.458a5.86 5.86 0 0 0-1.471-1.984c-.85-.782-1.745-1.19-2.694-1.282-1.053-.1-1.956.265-2.75 1.103l-2.345 2.422 6.24 5.647 2.344-2.435m5.036-6.318-7.22-4.42.613-.931 7.232 4.394-.62.97m2.95-4.938-7.821-3.296 2.426-5.5.95.385-1.98 4.534 2.359.974 1.85-4.174.902.39-1.83 4.169 2.638 1.127 2.028-4.587.95.38-2.47 5.597m3.8-9.608-8.257-1.985.3-1.274 7.705-2.447-6.7-1.607.262-1 8.259 1.934-.286 1.24-7.72 2.503 6.7 1.576-.257 1.062m-.47-10.54.126-1.041c.478.02.884-.045 1.193-.205.606-.312.967-.924 1.076-1.839.044-.426.033-.801-.06-1.16-.164-.69-.543-1.075-1.162-1.15-.46-.055-.792.049-1.036.297-.22.284-.454.696-.636 1.282l-.4 1.078c-.26.706-.495 1.193-.745 1.464-.402.51-.957.676-1.661.614-.753-.093-1.36-.405-1.786-.99-.438-.533-.608-1.291-.48-2.221.087-.85.382-1.563.895-2.13.476-.52 1.204-.757 2.128-.642l-.105 1.04c-.453-.008-.817.065-1.084.244-.483.255-.757.808-.851 1.622-.08.674.004 1.13.255 1.477.252.293.574.483.954.52.404.044.725-.08.95-.387.166-.212.364-.674.636-1.424l.395-1.133c.193-.523.42-.924.684-1.207.47-.47 1.074-.662 1.828-.592.918.114 1.567.507 1.89 1.212.32.71.434 1.492.338 2.374-.122.996-.461 1.776-1.072 2.292-.61.528-1.362.698-2.27.608"/>
</svg>
