<svg xmlns="http://www.w3.org/2000/svg" viewBox="0 0 200000 300000">
	<path d="M0 0h200000v300000H0z" stroke-width="1000"/>
	<path d="M0 0h200000v150000H0z" stroke-width="1000"/>
	<path d="M91500 134500l-74122-5375L32937-54020 170250-43503l8623 172378z m0-6825" stroke-width="1000"/>
	<circle cx="100000" cy="150000" r="50000" stroke-width="1000"/>
	<g transform="rotate(-55)" stroke-width="1000">
		<circle cy="145000" r="2500" stroke-width="1000"/>
		<circle cy="105000" r="2500" stroke-width="1000"/>
		<circle cx="15000" cy="140000" r="2500" stroke-width="1000"/>
		<circle cx="15000" cy="115000" r="2500" stroke-width="1000"/>
		<circle cx="50000" cy="145000" r="2500" stroke-width="1000"/>
		<circle cx="50000" cy="105000" r="2500" stroke-width="1000"/>
		<circle cx="65000" cy="140000" r="2500" stroke-width="1000"/>
		<circle cx="65000" cy="115000" r="2500" stroke-width="1000"/>
		<circle cx="100000" cy="145000" r="2500" stroke-width="1000"/>
		<circle cx="100000" cy="105000" r="2500" stroke-width="1000"/>
		<circle cx="115000" cy="140000" r="2500" stroke-width="1000"/>
		<circle cx="115000" cy="115000" r="2500" stroke-width="1000"/>
		<circle cx="150000" cy="145000" r="2500" stroke-width="1000"/>
		<circle cx="150000" cy="105000" r="2500" stroke-width="1000"/>
		<circle cx="165000" cy="140000" r="2500" stroke-width="1000"/>
		<circle cx="165000" cy="115000" r="2500" stroke-width="1000"/>
	</g>
</svg>