<svg xmlns="http://www.w3.org/2000/svg" viewBox="0 0 160 240">
	<path fill-rule="evenodd" d="M8 2 0 0l8 2h144v240H8l-8-2z"/>
	<path fill-rule="evenodd" d="m38.485 83.867 60.94 3.2s-15.16-23.514-17.955-26.31 7.816-6.885 7.816-6.885L38.485 83.867zm2.23-1.746 34.95 1.79s-8.585-14.114-10.4-16.303 4.23-4.2 4.23-4.2l-25.87-41.894L40.708 82.1zm75.655 40.386L113 143.3s-11.795 4.487-13.496 5.766.975 2.15.975 2.15l38.75-2.064-.31-1.763zm3.304 2.24L123.476 146s-6.48-.997-7.896-.454c-.64.255-1.912 2.2-1.912 2.2l18.862-2.384 1.223-1.935zm11.595-1.472-11.74-3.044s.619 2.634-.056 3.372-2.37.67-2.37.67l8.424 1.374 1.448-1.116zm13.35-3.237-17.415-4.1s1.538 2.672.824 3.73-2.58.925-2.58.925l11.916 2.137 1.564-.408zm16.15-5.158L140.02 130s2.763 2.63 1.77 3.88-2.69.95-2.69.95l14.73 1.94 1.624.023zm3.91-.087-18.32-2.6s3.789 1.383 3.1 3.17-2.78 1.433-2.78 1.433l14.258 1.4.67-1.73zm23.097-3.896-22.48-2.336s3.358 1.067 3.118 3.117-2.71 1.714-2.71 1.714l17.673 1.4-.34-1.745zm26.564-3.15-23.2-1.1s3.42.374 3.25 3.294-2.72 2.014-2.72 2.014l19.462.9 1.55-1.67zm.28-2.518-25-1.216s3.866.356 3.955 2.43c.02.577-1.138 1.687-1.5 1.975l20.07.446 1.106-1.507zm-126.2 1.507.243 1.19s1.763 4.036 1.913 4.16c.425.318-1.23 1.08-1.732 1.185l-25.478-1.45-.225-.17zm122.51 1.347 25.133-1.274s-.45-1.104-.73-1.624.25-2.773 0-2.857l-25.488-1.4-.236.074zm-220.96 24.542 25.768 1.364s-.484 1.336-.27 1.9c.18.402 1.337 1.033 1.537.962l-23.452-2.524 1.21-.9zm217.8 7.31 24.428 2.34s-.708 2.087.174 2.955 1.16-.165 1.31-.343l-23.5-5.5 1.236-.812zM-.59 161.325l18.767 9.16s-2.42 1.61-1.29 3.2c.574.702 1.422-.205 1.422-.205l-17.26-10.32 1.41-1.623zm200.14 15.927 15.598 11.247s-2.79 2.314-.074 3.862 1.347.068 1.347.068L161.02 152.4l1.574-3z"/>
	<circle cx="80" cy="120" r="43.5" fill="#fff" stroke="#000" stroke-width="10"/>
</svg>
