<svg xmlns="http://www.w3.org/2000/svg" viewBox="0 0 400 300" preserveAspectRatio="xMidYMid meet">
		<title>Fijian Flag</title>
		<line x1="0" y1="150" x2="400" y2="150" stroke="#00a2f9" stroke-width="300" />
		<line x1="150" y1="0" x2="150" y2="300" stroke="#f9e400" stroke-width="300" />
		<path d="M86.7 201.8 L86.7 298.2 Q86.7 300 150 300 L150 0 Q150 0 86.7 1.8 Z" fill="#fff" />
		<path d="M213.3 298.2 L213.3 201.8 Q213.3 200 150 200 L150 100 Q150 100 213.3 98.2 Z" fill="#00a2f9" />
		<path d="M298.2 213.3 L201.8 213.3 Q200 213.3 200 150 L100 150 Q100 150 98.2 213.3 Z" fill="#f9e400" />
		<path d="M298.2 86.7 L201.8 86.7 Q200 86.7 200 150 L300 150 Q300 150 301.8 86.7 Z" fill="#ed1c24" />
		<path d="M233.7 72.9 Q245.7 83.4 245.7 100 Q245.7 124.4 234.7 149.8 Q247.7 176.4 238.9 201.8 Q186.8 201.8 142.7 201.8 Q142.7 200 133.3 216 Q133.3 226.9 120.1 238.2 Q120.1 220.3 120.1 220.3 Q120.1 170.7 148.9 161.9 Q150 161.9 150 148.8 Q150 134 139.8 122.5 Q139.8 122.5 141.6 108.2 Q137 108.2 137 94.3 Q137 78.3 142.7 64.8 Q229.7 64.8 229.7 94.3 Q229.7 100 233.7 72.9 Z" fill="#f9e400" />
		<path d="M272.4 179.8 Q215.2 126.5 148.9 126.5 Q135.6 126.5 128.9 126.9 Q128.9 136.6 122.1 138.5 Q122.1 154.6 119.6 172 Q149.3 181.3 185.3 181.3 Q237.1 181.3 253.6 164.7 Q256.8 164.7 271.6 179.3 Q282.2 180.5 292 192 Q301.6 206.6 301.6 224.8 Q301.6 241 291.9 256.6 Q173.6 257.8 148.9 257.8 Q127.7 257.8 114.1 252.7 Q114.1 244.4 108.4 243.3 Q108.4 222 103.3 217 Q105.2 205.8 112.7 196 Q122.9 181.7 145.8 179.8 Q174.7 174.4 198 180.7 Q211.8 189.2 215.4 215.4 Q217.7 212.8 223.3 204.1 Q239 182.2 248.8 164.8 Q269.7 144.9 272.4 179.8 M202.1 142.7 Q195.5 121.7 174.6 102.3 Q160.9 102.3 164.3 107 Q163.5 90.2 148.5 79.6 Q141 79.6 128.9 82.5 Q128.9 94.9 128.9 95.2 Q128.5 106.2 118.5 113.8 Q106.6 127.6 124.9 143 Q140.6 163.8 160.7 177.6 Q149.3 200 159.8 217.6 Q177.3 241 198.2 250 Q219.8 262.3 221.3 260 Q228.2 251 238.8 231 Q253.1 202.9 244.9 172.7 L203.8 116.4 Q202.1 118.1 202.1 142.7 Z" fill="#ed1c24" />
		<path d="M387.8 65.5 Q387.5 75.6 387.5 100.8 Q387.5 122.5 385.1 140.6 Q374.6 167.7 367.5 191.3 Q356.8 208.3 348.2 236.3 Q347.7 242.8 348.2 252.2 L307.3 348.1 Q295.8 365.9 280.9 368.9 Q279.7 362.8 279 356.7 Q275.4 319.7 266.4 278.4 Q222.4 264.4 176.7 242.6 Q174.6 182.4 155.4 155.2 Q152.8 144.4 153.4 120 Q156.3 70.8 292.8 13.2 Q312.3 4.6 329 4.6 Q342.9 4.6 349.9 7.1 Q390.8 34.6 390.8 72.5 Q390.8 78.8 387.8 65.5 M391.2 57.2 Q391.1 84.7 369.5 108.6 Q363.8 114.5 361.1 127 Q354.5 168.1 303.8 287 Q273.6 311.5 219.3 331 Q206.8 353.2 195.3 341.9 Q175.2 366.5 161 364.5 Q157.5 369.7 151 362.8 Q150.1 353 158 333.9 Q168.4 296.8 194.1 259.6 Q205.6 213.4 267.8 71.4 Q293.4 50.4 300.3 61.8 Q331.2 138.3 380.3 228.1 Q384.8 229.7 388.9 227.9 Q394 221.8 390.8 218.3 Q387.3 214.1 387.8 204 Q386.7 199.9 386.9 182.4 Q389.6 173.1 390.8 164 Q390.8 94.8 391.2 57.2 Z"  fill="#ffffff" />
		<path d="M163.2 25.6 Q172.6 28.1 179.5 33 Q185.1 37.8 186 42.7 Q213.5 33.6 232.6 41.8 L257.2 29.3 Q243.7 17.6 242.6 17 Q218.6 12.1 197.3 17 Q193.9 21.7 191 28.8 Q187.5 25.2 179.5 22.1 Q175.2 21.7 166.9 25.6 Q163.6 27.8 163.2 25.6 Z" fill="#fff" />
		<path d="M248.9 32.7 Q248.4 17.3 227.3 13.2 L220.3 17.3 Q230.7 18 234.9 23.7 Q236.8 21.1 242.3 20.3 L248.9 32.7 M173 30 Q173.9 35.9 183.7 35.9 Q189.7 35.9 198.1 28 Q203.4 26.6 201 29.4 Q187.9 32.7 173 30 Z" fill="#100c07" />
		<path d="M261.2 39.6 L257.1 31 L255 28.5 L253.7 29.3 L245.6 27.6 L241.1 29.3 L243.9 39.6 L261.2 39.6 Z" fill="#100c07" />
		<path d="M194.7 11.9 L193.5 19.8 Q195.3 23 200.6 25.6 Q200.6 24.8 200.3 22.9 Q183.3 8 167.8 18 Q158.7 24.2 152.3 30.7 Q152.3 31.7 154.9 35.9 Q166.1 25.8 174.7 25.1 Q180.4 24.6 185.8 26.7 Q186.4 24.1 189.2 22.8 Q190.7 26.1 194.7 11.9 Z"  fill="#dda932" />
		<path d="M197.3 22.2 Q184.3 31.8 204.8 47.7 Q204.8 47.7 208.1 48.8 L208 49.6 L208.1 50.5 Q208.1 51.3 216 50.9 Q228.3 50.3 237.6 37.5 L238.5 37.2 Q221.8 36.6 210.9 38.5 Q210.9 38.5 196.6 33 Q196.6 33 191.8 25.6 Q191.4 26.4 199.4 22.2 Q202.1 22.2 197.3 22.2 Z" fill="#cc1029" /></svg>