<svg xmlns="http://www.w3.org/2000/svg" viewBox="0 0 6000 3000">
	<rect width="6000" height="1000" fill="blue"/>
	<rect width="6000" height="1000" y="1000" fill="red"/>
	<rect width="6000" height="1000" y="2000" fill="green"/>
	<g fill="white">
		<path d="M3000 1589l50-110 113 42-40-114 109-50-110-51 41-112-113 40L3000 1125l-51 110-113-41 41 112-109 50 108 52-40 113 113-40 50 111Z"/>
		<path d="M2614 1498c49 246 401 356 634 198a317 317 0 0 0 139-198c0 290-322 470-580 326a374 374 0 0 1-193-326Z"/>
	</g>
</svg>