<svg xmlns="http://www.w3.org/2000/svg" xmlns:xlink="http://www.w3.org/1999/xlink" viewBox="-120000 -80000 240000 160000">
	<defs>
		<path id="a" stroke-miterlimit="10000" d="M-1000 55426h2000V-38000c2000-2000 2000-5000 2000-8000 0-2000 0-10000-3000-18663C-3000-56000-3000-48000-3000-46000c0 3000 0 6000 2000 8000z" transform="rotate(30)" stroke-width="1000"/>
	</defs>
	<path fill="#fff" d="M-120000-80000h240000V80000h-240000z" stroke-width="1000"/>
	<path d="M-120000-80000h240000v48000h-240000z" stroke-width="1000"/>
	<path fill="#060" d="M-120000 32000h240000v48000h-240000z" stroke-width="1000"/>
	<g id="b" stroke-width="1000">
		<use xlink:href="#a" stroke="#000" stroke-width="1000"/>
		<use xlink:href="#a" fill="#fff" stroke-width="1000"/>
	</g>
	<use xlink:href="#b" transform="scale(-1, 1)" stroke-width="1000"/>
	<path fill="#b00" d="M-120000-24000v48000h101000c3000 8000 13000 24000 19000 24000s16000-16000 19000-24000h101000v-48000H19000C16000-32000 6000-48000 0-48000s-16000 16000-19000 24000z" stroke-width="1000"/>
	<path id="c" d="M19000 24000c3000-8000 5000-16000 5000-24000s-2000-16000-5000-24000c-3000 8000-5000 16000-5000 24000s2000 16000 5000 24000" stroke-width="1000"/>
	<use xlink:href="#c" transform="scale(-1, 1)" stroke-width="1000"/>
	<g fill="#fff" stroke-width="1000">
		<ellipse rx="4000" ry="6000" stroke-width="1000"/>
		<path id="d" d="M1000 5850s4000 8000 4000 21000-4000 21000-4000 21000z" stroke-width="1000"/>
		<use xlink:href="#d" transform="scale(-1)" stroke-width="1000"/>
		<use xlink:href="#d" transform="scale(-1, 1)" stroke-width="1000"/>
		<use xlink:href="#d" transform="scale(1, -1)" stroke-width="1000"/>
	</g>
</svg>