<svg xmlns="http://www.w3.org/2000/svg" viewBox="0 0 252000 126000">
	<defs>
		<clipPath id="a">
			<path d="M0 0h630v630H0z" stroke-width="10"/>
		</clipPath>
	</defs>
	<path fill="#006400" d="M0 0h252000v126000H0z" stroke-width="10"/>
	<path fill="#ffd200" d="M2000 18000h250000v90000H2000z" stroke-width="10"/>
	<path fill="#d40000" d="M2000 36000h250000v54000H2000z" stroke-width="10"/>
	<path d="M2000 54000h250000v18000H2000z" stroke-width="10"/>
	<path stroke="#000" stroke-width="30" d="M420 315L0 630V0z" clip-path="url(#a)" transform="scale(200)"/>
	<path fill="#fff" d="M84000 63000L0 126000V0z" stroke-width="10"/>
	<path fill="#d40000" d="M32000 31695l16458 50653L5370 51043h53260L15542 82348z" stroke-width="10"/>
	<g fill="none" stroke="#000" stroke-linecap="round" stroke-linejoin="round" stroke-width="380">
		<path fill="#ffd200" d="M22900 45800c-180-450-150-950 80-1380 230-420 650-720 1130-800 510-90 1020-120 1540-110 490-760 1310-1250 2210-1320 900-60 1780 300 2380 980 710 810 1130 1830 1220 2900l370 4640 14120 11050a860 860 0 0 1-760 1500l-590-170c-2270 1410-3950 3870-4280 6510l-850 6720H24540l-1980-7690c-710-860-810-2070-250-3030 730-1250 1610-2410 2620-3450 660-660 960-1600 830-2530-140-920-210-1850-220-2780-10-770 160-1540 490-2230l-190-6940c-30-820-480-1570-1190-1970z" stroke-width="10"/>
		<path d="M24650 45700l1670-100m-290 9010l5800-3900m2320 11670c2290 640 3720 450 4390-1010m-8520-5660c-620 1790 500 3380 2000 3810l12580 3570m-20400 6310c-470-1840 210-5130 3120-6500 1350-630 1790-2010 1800-3180 0-440 10-950 640-1200m-7200 10110l440-1070c210 790 640 1370 1200 1840 310-650 580-1310 810-1980 260 520 470 1230 650 1940-40-1610 810-2790 1930-3290l4340-1930c1410-630 2760-1880 3070-3780m7420 4600H30080m-7270 4640h17510m-13460 3810h12970m-14280-3810l1310 3810v2910m-630-5090l1280-1280 1280 1280 1280-1280 1280 1280 1280-1280 1280 1280 1280-1280 1280 1280 1280-1280 1280 1280 1240-1240m-13660 2690l900-900 1280 1280 1280-1280 1280 1280 1280-1280 1280 1280 1280-1280 1280 1280 1280-1280 1280 1280 970-970" stroke-width="10"/>
		<circle cx="27990" cy="44590" r="760" stroke-width="10"/>
		<circle cx="31390" cy="67300" r="1450" stroke-width="10"/>
		<circle cx="37140" cy="67300" r="1450" stroke-width="10"/>
	</g>
</svg>