<svg xmlns="http://www.w3.org/2000/svg" xmlns:xlink="http://www.w3.org/1999/xlink" viewBox="-1440000 -960000 2880000 1920000">
	<defs>
		<clipPath id="d">
			<path d="M-224000 0h448000v400000h-448000z" stroke-width="1000"/>
		</clipPath>
		<clipPath id="f">
			<circle cx="-158000" cy="-149000" r="324500" stroke-width="1000"/>
		</clipPath>
		<clipPath id="g">
			<circle cx="-199000" cy="-118000" r="324500" stroke-width="1000"/>
		</clipPath>
		<clipPath id="h">
			<circle cx="-212000" cy="-100000" r="324500" stroke-width="1000"/>
		</clipPath>
		<clipPath id="e">
			<circle cy="-38000" r="576000" stroke-width="1000"/>
		</clipPath>
		<clipPath id="k">
			<circle cx="-182000" cy="-96000" r="324500" stroke-width="1000"/>
		</clipPath>
		<clipPath id="j">
			<circle cx="-213000" cy="-91000" r="324500" stroke-width="1000"/>
		</clipPath>
		<clipPath id="i">
			<circle cx="-234000" cy="-64000" r="324500" stroke-width="1000"/>
		</clipPath>
		<g id="l" stroke-width="1000">
			<g id="b" stroke-width="1000">
				<path id="a" fill="#ffde23" d="M0 0v1000h500z" transform="rotate(18, 3157, -500)" stroke-width="1000"/>
				<use xlink:href="#a" transform="scale(-1, 1)" stroke-width="1000"/>
			</g>
			<g id="c" stroke-width="1000">
				<use xlink:href="#b" transform="rotate(72)" stroke-width="1000"/>
				<use xlink:href="#b" transform="rotate(216)" stroke-width="1000"/>
			</g>
			<use xlink:href="#c" transform="rotate(72)" stroke-width="1000"/>
		</g>
	</defs>
	<path fill="#0f7562" d="M-1440000-960000h2880000V960000h-2880000z" stroke-width="1000"/>
	<g fill="#fff" clip-path="url(#d)" stroke-width="1000">
		<circle cx="-209000" cy="-7000" r="324500" stroke-width="1000"/>
		<circle cx="209000" cy="-7000" r="324500" stroke-width="1000"/>
	</g>
	<circle cx="224000" cy="-39000" r="324500" fill="#0f7562" stroke-width="1000"/>
	<circle cx="-224000" cy="-39000" r="324500" fill="#0f7562" stroke-width="1000"/>
	<g fill="#fff" clip-path="url(#e)" stroke-width="1000">
		<path d="M-500000 285500h291000v32000h-291000z m0 65000H500000v16000H-500000z m0 49000H500000v25000H-500000z m0 50000H500000v32000H-500000z m0 48000H500000v50000H-500000z m1000000-212000H209000v32000h291000z" stroke-width="1000"/>
	</g>
	<circle cx="158000" cy="-149000" r="324500" fill="#fff" clip-path="url(#f)" stroke-width="1000"/>
	<circle cx="199000" cy="-118000" r="324500" fill="#0f7562" clip-path="url(#g)" stroke-width="1000"/>
	<circle cy="-346000" r="130000" fill="#0f7562" stroke-width="1000"/>
	<circle cx="212000" cy="-100000" r="324500" fill="#fff" clip-path="url(#h)" stroke-width="1000"/>
	<g id="m" stroke-width="1000">
		<circle cx="-379000" cy="307000" r="381500" fill="#fff" clip-path="url(#i)" stroke-width="1000"/>
		<circle cx="-370000" cy="343000" r="381500" fill="#0f7562" clip-path="url(#j)" stroke-width="1000"/>
		<circle cx="-485000" cy="21000" r="130000" fill="#0f7562" stroke-width="1000"/>
		<g fill="#fff" clip-path="url(#i)" stroke-width="1000">
			<circle cx="-339000" cy="372000" r="381500" clip-path="url(#k)" stroke-width="1000"/>
			<path d="M-100000 50000l60000 50000h50000v100000h-60000z" stroke-width="1000"/>
		</g>
		<use xlink:href="#l" transform="rotate(-35, -781005, 208250) scale(73)" stroke-width="1000"/>
		<use xlink:href="#l" transform="rotate(-65, -386535, 208250) scale(73)" stroke-width="1000"/>
	</g>
	<use xlink:href="#m" transform="scale(-1, 1)" stroke-width="1000"/>
	<use xlink:href="#l" transform="translate(0, -492500) scale(105.5)" stroke-width="1000"/>
</svg>