<svg xmlns="http://www.w3.org/2000/svg" viewBox="0 0 20 10">
		<defs>
			<mask id="theSun" map-type="jagged">
					<rect height="100%" width="100%" fill="white"/>
					<path d="M9.5,3.5 C15.17,5.5 9.5,1.5 9.5,5.5 9.5,9.5 7.5,1.5 5.5,1.5 L3.5,0.22 0.57,3.5 2.5,3.5 C3.5,3.5 3.5,5.5 3.5,6.5 3.5,9.5 1.5,4.5 0.5,4.5 L1.5,3.5 0.81,1.5 1.5,0.5 2.36,1.5 3.5,0.22 3.5,2.5 C3.5,3.5 5.5,6.5 7.5,6.5 9.5,6.5 3.5,4.5 5.5,4.5 7.5,4.5 5.5,3.5 5.5,3.5 L5.5,5.5 C5.5,5.5 9.5,2.5 9.5,5.5 9.5,8.5 5.5,5.5 5.5,8.5 L5.5,7.5 6.5,9.5 7.5,7.5 8.5,9.5 10.5,7.5 11.5,9.5 L11.5,8.5 11.5,7.5 11.5,6.5 12.5,4.5 14.5,4.5 12.5,3.5 13.5,1.5 14.29,0.5 13.5,0.5 12.64,1.5 13.5,2.5 13.5,0.22 10.57,3.5 12.5,3.5 C13.5,3.5 13.5,5.5 13.5,6.5 13.5,9.5 11.5,4.5 10.5,4.5 L11.5,3.5 10.81,1.5 11.5,0.5 12.36,1.5 13.5,0.22 13.5,2.5 C13.5,3.5 15.5,6.5 17.5,6.5 19.5,6.5 13.5,4.5 15.5,4.5 17.5,4.5 15.5,3.5 15.5,3.5 L15.5,5.5 C15.5,5.5 19.5,2.5 19.5,5.5 19.5,8.5 15.5,5.5 15.5,8.5 L15.5,7.5 16.5,9.5 17.5,7.5 18.5,9.5 20.5,7.5 21.5,9.5 L21.5,8.5 21.5,7.5 21.5,6.5 22.5,4.5 20.5,4.5 18.5,3.5 19.5,1.5 18.71,0.5 19.5,0.5 18.64,1.5 19.5,2.5 19.5,0.22 16.57,3.5 18.5,3.5 C19.5,3.5 19.5,5.5 19.5,6.5 19.5,9.5 17.5,4.5 16.5,4.5 L17.5,3.5 16.81,1.5 17.5,0.5 18.36,1.5 19.5,0.22 19.5,2.5 C19.5,3.5 21.5,6.5 23.5,6.5 25.5,6.5 19.5,4.5 21.5,4.5 23.5,4.5 21.5,3.5 21.5,3.5 L21.5,5.5"
					 fill="red" stroke-width="0.22" shape-rendering="auto"/>
			</mask>
		</defs>
		<rect height="100%" width="100%" fill="red" mask="url(#theSun)"/></svg>