<svg xmlns="http://www.w3.org/2000/svg" fill="none" viewBox="0 0 13440 6720">
	<path fill="#fff" d="M0 0h13440v6720H0z" stroke-width="1"/>
	<path stroke="#c00" stroke-width="480" d="M480 240h12960m0 960H480m0 960h12960m0 960H480"/>
	<path fill="#006" d="M0 0h6720v4080H0z" stroke-width="1"/>
	<path stroke="#c00" stroke-width="480" d="M0 4080h13440m0 960H0m0 960h13440"/>
	<path fill="#fc0" d="M4200 720l107 732 414-613-222 706 639-373-506 540 738-59-690 267 690 267-738-59 506 540-639-373 222 706-414-613-107 732-107-732-414 613 222-706-639 373 506-540-738 59 690-267-690-267 738 59-506-540 639 373-222-706 414 613z m-600 30a1280 1280 0 1 0 0 2340 1440 1440 0 1 1 0-2340z" stroke-width="1"/>
</svg>