<svg xmlns="http://www.w3.org/2000/svg" version="20" viewBox="0 0 8640 4320">
	<path fill="#009639" d="M2 4291c3-26 110-109 945-735l941-706H8640V4320H-1l3-29z" stroke-width="20"/>
	<path fill="#000000" d="M963 757C205 190 11 40 11 23L10 0H8640v1470H1915l-952-713z" stroke-width="20"/>
	<path fill="#ffffff" d="M1900 2864c0-17 105-100 460-365 252-189 459-346 459-349 0-3-202-156-449-340C1957 1502 1921 1473 1920 1445c0-22 3-26 12-17 9 9 769 12 3360 12H8640v1440l-3370 2-3370 3v-21z" stroke-width="20"/>
	<path fill="#ed2e38" stroke="#ff0000" stroke-width="10" d="M0 2160C0 38 0 0 19 0 30 0 40 4 42 8c2 4 641 486 1420 1070 780 584 1418 1066 1418 1072 0 6-638 488-1417 1071-780 584-1425 1070-1435 1080-9 11-19 19-22 19-3 0-6-972-6-2160z"/>
</svg>