<svg xmlns="http://www.w3.org/2000/svg" viewBox="0 0 300 200">
	<rect width="300" height="100" fill="red"/>
	<rect width="300" height="100" y="100" fill="yellow"/>
	<path fill="yellow" stroke="black" stroke-miterlimit="10" stroke-width="2" d="M137.246 67.101V92.61h-14.19c-13.294 0-24.07-10.777-24.07-24.07 0-.794.643-1.438 1.436-1.438h36.824Z"/>
	<path fill="none" stroke="black" stroke-miterlimit="10" stroke-width="2" d="M137.246 67.101h-36.824c-.793 0-1.437.644-1.437 1.437 0 13.294 10.777 24.07 24.07 24.07h14.191V67.102Z"/>
	<path fill="lightgreen" stroke="black" stroke-miterlimit="10" stroke-width="2" d="m137.248 86.232-.002 6.377h-14.19c-13.294 0-24.07-10.777-24.07-24.07 0-.794.643-1.438 1.436-1.438h4.94c0 10.566 8.565 19.13 19.13 19.13h12.756Z"/>
	<path fill="none" stroke="black" stroke-miterlimit="10" stroke-width="2" d="M98.985 68.538c0 13.294 10.777 24.07 24.07 24.07h14.191l.002-6.376h-12.755c-10.566 0-19.13-8.565-19.13-19.13h-4.94c-.794 0-1.438.643-1.438 1.436Z"/>
	<path fill="yellow" stroke="black" stroke-miterlimit="10" stroke-width="2" d="M199.578 67.101c.793 0 1.437.644 1.437 1.437 0 13.294-10.777 24.07-24.07 24.07h-14.19V67.102h36.823Z"/>
	<path fill="none" stroke="black" stroke-miterlimit="10" stroke-width="2" d="M162.754 67.101h36.824c.793 0 1.437.644 1.437 1.437 0 13.294-10.777 24.07-24.07 24.07h-14.191V67.102Z"/>
	<path fill="lightgreen" stroke="black" stroke-miterlimit="10" stroke-width="2" d="M199.578 67.101c.793 0 1.437.644 1.437 1.437 0 13.294-10.777 24.07-24.07 24.07h-14.19v-6.376h12.754c10.564 0 19.13-8.565 19.13-19.13h4.939Z"/>
	<path fill="none" stroke="black" stroke-miterlimit="10" stroke-width="2" d="M201.015 68.538c0-.793-.644-1.437-1.437-1.437h-4.938c0 10.566-8.567 19.13-19.13 19.13h-12.756v6.378h14.19c13.294 0 24.07-10.777 24.07-24.07Z"/>
	<path fill="yellow" stroke="black" stroke-miterlimit="10" stroke-width="2" d="M162.754 51.44v28.413h-25.506V51.44c0-1.279 1.547-1.923 2.453-1.016l3.502 3.501c.269.271.633.42 1.016.42h11.562c.383 0 .747-.149 1.016-.42l3.502-3.5c.906-.908 2.455-.264 2.455 1.015Z"/>
	<path fill="none" stroke="black" stroke-miterlimit="10" stroke-width="2" d="M137.248 79.853V51.44c0-1.279 1.547-1.923 2.453-1.016l3.502 3.501c.269.271.633.42 1.016.42h11.562c.383 0 .747-.149 1.016-.42l3.502-3.5c.906-.908 2.455-.264 2.455 1.015v28.413h-25.506Z"/>
	<path fill="none" stroke="black" stroke-linejoin="round" stroke-width="2" d="M162.753 59.037v3.408l-12.065 6.034a1.55 1.55 0 0 1-1.375 0l-12.065-6.034v-3.47L150 65.38l12.753-6.342Z"/>
	<rect width="25.508" height="31.885" x="137.247" y="79.855" fill="lightgreen" stroke="black" stroke-miterlimit="10" stroke-width="2"/>
	<path fill="yellow" stroke="black" stroke-miterlimit="10" stroke-width="2" d="m145.234 69.74 3.908-3.998a1.194 1.194 0 0 1 1.688-.028l.028.028 3.908 3.998c.37.378.46.955.228 1.433l-3.908 7.996a1.201 1.201 0 0 1-2.171 0l-3.908-7.996a1.262 1.262 0 0 1 .227-1.433Z"/>
	<path fill="none" stroke="black" stroke-miterlimit="10" stroke-width="2" d="M153.188 98.985h-6.376a3.188 3.188 0 0 1 0-6.376h6.376a3.188 3.188 0 0 1 0 6.376Z"/>
	<rect width="25.508" height="31.885" x="137.247" y="111.74" fill="lightgreen" stroke="black" stroke-miterlimit="1.993" stroke-width="2"/>
	<path fill="none" stroke="black" stroke-miterlimit="10" stroke-width="2" d="m137.246 124.505 6.377-3.188 6.377 3.188 6.377-3.188 6.377 3.188v6.364l-6.377-3.188-6.377 3.188-6.377-3.188-6.377 3.188v-6.364Z"/>
	<path fill="lightgreen" stroke="black" stroke-miterlimit="10" stroke-width="2" d="M167.694 150h-35.387a1.437 1.437 0 0 1-1.437-1.437v-3.503c0-.793.643-1.437 1.437-1.437h35.387c.794 0 1.437.644 1.437 1.437v3.503c0 .794-.644 1.437-1.437 1.437Z"/>
</svg>
