<svg xmlns="http://www.w3.org/2000/svg" viewBox="0 0 30000 50000">
	<rect width="30000" height="50000" class="sc-bdVaJa fwUxUL" rx="25000" ry="25000" stroke-width="1000"/>
	<path d="M4000 0h22000v11000H4000z" class="sc-hZSube bqanq" stroke-width="1000">
		<animate fill="freeze" attributeName="height" calcMode="spline" dur="4s" keySplines="100 50 145 0.5; 500 0 0 1;" keyTimes="0;0.5;1" repeatCount="indefinite" values="16;13;16;"/>
		<animate fill="freeze" attributeName="y" calcMode="spline" dur="4s" keySplines="100 50 145 0.5; 500 0 0 1;" keyTimes="0;0.5;1" repeatCount="indefinite" values="8;12.5;8"/>
	</path>
	<path d="M15000 0l2500 2500L15000 5000V0z" class="sc-bxivhb ffTrFj" stroke-width="1000">
		<animate fill="freeze" attributeName="transform" calcMode="spline" dur="4s" keySplines="500 0 500 1; 500 0 500 1;" keyTimes="0;1;1" repeatCount="indefinite" values="0 0;10 0;10 0"/>
	</path>
	<path d="M13000 8000l2000 2000 2000-2000v6000l-2000-2000-2000 2000V8000z" stroke-width="1000"/>
	<path d="M13000 13000l2000 2000 2000-2000v6000l-2000 3000-2000-2000v-7000z" stroke-width="1000">
		<animate fill="freeze" attributeName="points" calcMode="spline" dur="4s" keySplines="500 0 500 1; 500 0 500 1;" keyTimes="0;1" repeatCount="indefinite" values="13000 13;15 15;17 13000"/>
	</path>
	<path d="M4000 24000h22000v11000H4000z" stroke-width="1000"/>
	<circle cx="12000" cy="26000" r="1500" class="sc-gzVnrw fwUyMr" stroke-width="1000">
		<animate fill="freeze" attributeName="rx" calcMode="spline" dur="2s" keySplines="500 0 500 1; 500 0 500 1000" keyTimes="0;1" repeatCount="indefinite" values="1000.5;3"/>
		<animate fill="freeze" attributeName="ry" calcMode="spline" dur="2s" keySplines="500 0 500 1; 500 0 500 1000" keyTimes="0;1" repeatCount="indefinite" values="1000.5;0"/>
	</circle>
	<path d="M2500 2500v10000C3880 13620 5000 15000 5000 16500L7500 19000c-650-2960-650-5330 0-7800L5000 8700c0 1380 1000 2740 2500 3850v-10000" class="sc-jzJRlG gRbcUx" stroke-width="1000"/>
	<path d="M5500 14000c0-3000 2500-5500 5500-5500 1592 0 3108 429 4342 1173l-1334 1334a3353 3353 0 0 0-2342-950 3337 3337 0 0 0-3342 3341c0 1962 1493 3342 3342 3342 1961 0 3341-1493 3341-3342 0-961-400-1778-950-2342l1334-1334a8551 8551 0 0 1 1173 4342z" class="sc-bxivhb gRbcUx" stroke-width="1000"/>
</svg>