<svg xmlns="http://www.w3.org/2000/svg" viewBox="0 0 1000 500">
	<path fill="#fff" d="M0 0h1000v500H0V0z"/>
	<path d="M730.6 363.3c16.417-6.737 32.778-13.571 49.199-20.294-.867 2.486-2.004 5.33-4.92 6.584-15.138 6.19-30.246 12.43-45.38 18.616-.997.427-1.987.891-3.075 1.117.998-1.702 1.939-3.426 2.9-5.139.205-.478.781-.669 1.276-.884zm-51.122-23.422c3.536 2.295 6.75 4.917 9.002 7.742 4.172 5.448 5.248 12.51 2.66 18.637-.226.503-.7.878-1.105 1.28.801-3.39 1.038-6.983-.217-10.315-1.722-4.84-5.62-8.904-10.822-11.283.088-2.117.354-4.252.482-6.06zm-135.44-2.947c2.2-1.578 5.256-1.73 8.008-1.727 2.765.163 5.69.267 8.128 1.519 1.153 1.137.057 2.482-1.125 3.196-4.794 2.93-10.074 5.47-13.964 9.33-1.055.99-.507 2.54.826 3.12 2.017.855 4.352.897 6.57.85 5.263-.245 10.318-1.933 14.723-4.339 1.227-.663 2.327-1.488 3.595-2.102a55.39 55.39 0 0 1-9.133 7.58c-2.839 1.806-6.037 3.374-9.587 3.845-2.8.201-5.81.087-8.22-1.252-2.69-1.349-3.95-4.368-2.957-6.86.601-1.402 1.713-2.588 2.883-3.68 3.018-2.71 6.708-4.785 10.39-6.786-2.496-.1-5.024-.215-7.502.042-1.62.138-2.709 1.168-3.858 2.004-.349-1.627-.357-3.555 1.21-4.75zm-98.787-4.081c2.188-.91 5.207-.777 6.933.804 1.443 1.45 1.599 3.443 1.493 5.256-1.158 1.308-2.491 2.51-3.46 3.936-2.03.319-4.16.038-6.144.544-.998.492-2.303.79-2.781 1.782-.626 1.28-.336 2.7-.07 4.026 1.03 4.625 2.937 9.17 2.839 13.935-.11 1.67-.241 3.405-1.174 4.916-.217-2.65-1.317-5.152-2.115-7.7-1.505-4.644-2.7-9.408-2.875-14.234-.197-1.858 1.063-3.457 2.335-4.857 1.878-2.226 5.244-2.878 8.233-3.36-.777-.607-1.656-1.307-2.805-1.172-1.608.197-2.696 1.338-3.58 2.389-.159-2.32.59-5.06 3.17-6.265zm143.26-.898c.143-.125.331-.174.564-.142-.85.825-1.317 1.865-1.971 2.8-1.861 2.983-4.013 6.149-3.518 9.658.053 1.647 1.146 3.776 3.416 3.762 1.108-.468 1.394-1.668 1.95-2.531-.069 2.569-.515 5.69-3.361 7.16-2.364-.334-4.14-2.113-4.233-4.12-.483-6.072 2.515-12.06 7.153-16.6zm-424.04-34.205c1.36-2.046 2.63-4.276 5-5.628-2.871 4.92-5.861 9.906-7.12 15.34-.414 2.076-.623 4.476.96 6.26 1.23 1.12 3.207 1.326 4.892.979 2.556-.48 3.747-2.746 4.802-4.546.81 1.342-.03 2.79-.401 4.13-1.06 2.833-2.323 5.9-5.248 7.742-2.246 1.456-5.465.874-7.625-.41-2.846-1.885-2.912-5.307-2.413-8.078 1.126-5.606 4.034-10.81 7.163-15.79zm208.42-21.948c.84-1.357 2.48-2.952 4.48-2.28 2.42.619 5.29 2.24 4.9 4.676-.64.828-1.47 1.54-2.21 2.312-.78-1.255-1.65-2.86-3.48-3.127-2.383.662-3.811 2.69-4.563 4.622-1.582 4.22-1.934 8.675-2.376 13.06a44.16 44.16 0 0 1-1.742.753c.017-4.035-1.02-8.32-4.212-11.448-.724-1.037-2.331-.516-3.42-1.016-2.028-.617-2.764-2.493-3.255-4.098-.245-1.084-.683-2.388.172-3.355 1.795-.436 3.2.899 4.482 1.74 3.296 2.657 5.574 6.076 7.44 9.557.785-3.885 1.615-7.872 3.795-11.402zm342.95-10.663c2.496-.727 5.122.229 7.163 1.45 3.407 2.136 6.065 5.038 8.118 8.155 1.097 1.806 2.348 3.786 1.906 5.888-.261 1.414-.392 2.933-1.39 4.14-1.105 1.159-3.178 1.04-4.57.35-1.585-.762-3.1-1.632-4.76-2.277-2.244 5.173-6.976 9.247-12.106 12.479-3.472 2.254-7.28 4.105-11.137 5.835-2.38 1.09-5.013 1.672-7.565 2.379-2.548.613-5.141 1.419-7.833 1.195 1.698-.084 3.04-1.017 4.47-1.683 7.46-3.68 14.77-7.636 21.408-12.327 3.525-2.586 7.13-5.28 9.505-8.727a69.155 69.155 0 0 0-4.62-.7c-1.25-3.077-1.26-6.84 1.43-9.384-1.34-.874-1.497-2.46-1.722-3.777-.19-1.147.263-2.603 1.706-3m6.692 7.619c.507 2.278.658 4.6.7 6.917 2.102.257 4.192.964 6.335.76 1.09-.136 1.049-1.353.444-1.932-1.992-2.326-4.757-4.077-7.48-5.745m-7.122 3.717c1.076 1.689 3.514 2.118 5.506 2.66.41-1.09.936-2.23.736-3.385-.72-1.193-1.698-2.753-3.506-2.746-1.562.68-2.18 2.164-2.736 3.47zm-137.99-14.545c1.24-1.36 3.34-2.022 5.318-2.074 1.374-.01 2.04 1.242 2.356 2.195.597 2.25.704 4.698-.59 6.796.67.413 1.347.832 2.034 1.24a42.818 42.818 0 0 0-.34 4.339c-1.365-.62-2.416-1.61-3.586-2.44-3.64 5.32-8.96 9.936-15.59 12.544-3.506 1.498-7.518 2.153-11.42 1.74 7.39-2.24 14.568-5.47 19.93-10.43a30.882 30.882 0 0 0 4.773-5.59c-1.04-.94-2.282-1.743-3.092-2.842-.647-1.758-1.12-3.86.21-5.478m2.027 1.734c.536 1.286 1.562 2.347 2.63 3.345.45-1.113 1.038-2.323.38-3.467-1.01-.167-2.024-.073-3.01.12zM164.9 277.604c14.83-7.896 29.723-15.718 44.582-23.572-.426 2.742-1.534 5.915-4.65 7.288-13.756 7.23-27.544 14.417-41.278 21.671a7.04 7.04 0 0 1-1.116.392c.875-1.91 1.542-3.89 2.462-5.78zm310.49-41.706a28.162 28.162 0 0 1 3.873-3.936c-1.063 2.046-.43 4.28.065 6.37.56 2.288 1.317 4.535 2.164 6.76.593 1.679 2.863 2.269 4.68 2.598 1.087.295 2.42-.392 2-1.446-1.003-2.718-2.283-5.357-3.748-7.916.52-1.716 1.109-3.415 1.608-5.135.687 0 1.382.007 2.082.014.601 3.18 2.388 6.064 4.033 8.921.004 3.09-.213 6.311-1.506 9.24-.863 2.078-3.75 2.723-6.081 2.556-3.097-.506-5.15-2.77-6.966-4.76-.904 2.61-3.46 4.635-6.487 5.454-2.56.797-5.513-.36-6.887-2.275-1.506-2.122-1.792-4.684-1.722-7.11.135-3.472.928-7.518 4.601-9.602l1.031.003c-.163.062-.499.183-.662.246a11.042 11.042 0 0 0-.39 11.383c.578 1.127 2.038 1.938 3.514 1.675 1.84-.378 3.297-1.488 4.553-2.632.044-3.47.028-6.945.245-10.41zm-292.61-7.25c3.33-.61 6.36 1.154 8.728 2.926 3.17 2.625 5.812 5.752 7.485 9.244.507 1.054.732 2.205.544 3.339-.242 1.505-.38 3.155-1.51 4.407-1.325 1.037-3.415.81-4.822.014a35.44 35.44 0 0 0-4.38-2.084c-2.283 5.12-6.945 9.17-12.03 12.403-3.99 2.56-8.343 4.71-12.842 6.557a99.389 99.389 0 0 1-9.866 2.635c-1.333.308-2.72.277-4.086.246.81-.16 1.66-.21 2.39-.562 7.32-3.505 14.47-7.31 21.12-11.67 4.5-3.07 8.96-6.318 12.15-10.44-1.55-.3-3.11-.58-4.69-.708-1.246-3.082-1.283-6.834 1.347-9.42-1.268-.94-1.452-2.487-1.681-3.81-.241-1.285.532-2.807 2.152-3.077m6.218 7.673c.59 2.3.647 4.66.757 7 2.216.212 4.449 1.103 6.682.638 1.035-.492.307-1.62-.233-2.194-2.04-2.126-4.625-3.82-7.205-5.444m-5.444.988c-.728.916-1.575 1.97-1.46 3.124 1.288 1.373 3.464 1.945 5.43 2.247.193-.659.423-1.304.574-1.966.54-1.345-.687-2.552-1.67-3.488-.731-.752-2.24-.777-2.874.083zm246.96-11.314c2.172 1.536 3.493 3.745 4.96 5.76 3.76 5.606 6.962 11.465 10.063 17.35 6.802 12.63 11.276 26.115 13.739 39.828.697 4.251 1.409 8.527 1.266 12.832.412 8.547 1.609 17.285 5.819 25.152 3.096 5.345 8.363 10.087 12.487 13.554 1.964 1.16 2.796.89 3.314.41.319-.281.193-4.03.848-5.791.933-2.892 3.068-5.354 5.338-7.597 2.54-2.36 5.415-4.521 8.81-5.947 6.798-2.923 13.845-5.41 20.962-7.712 5.358-1.685 10.806-3.18 16.377-4.265-23.91.143-47.821.31-71.732.541a2050.24 2050.24 0 0 1 3.64-14.76c2.536-2.822 5.726-5.142 8.876-7.448 13.71-9.59 29.539-16.688 45.569-23.044-1.878-2.493-4.487-4.816-4.9-7.877-.972-4.3 1.135-8.55 3.785-12.13 1.57-2.03 3.04-4.25 5.456-5.648 2.426-1.425 5.708-1.52 8.36-.506 8.889 3.383 18.057 9.34 24.835 14.688.68.583 1.55 1.085 1.976 1.845-1.595 4.38-3.28 8.74-4.826 13.138-7.068 1.338-14.172 2.617-21.06 4.542.7 3.7 1.947 7.736.073 11.322-.654-.076-1.541-.174-1.652-.853-.266-3.11-2.033-5.94-3.85-8.589-8.79 2.934-17.556 5.968-25.842 9.827-6.68 3.145-13.452 6.556-18.4 11.588 36.76.01 73.526.01 110.29 0-2.356 4.39-4.876 8.72-7.277 13.092-24.07 4.972-48.094 10.287-71.444 17.354-9.8 3.045-19.592 6.395-28.283 11.36-.9.582-1.42 1.657-.765 2.53 1.35 1.76 3.812 2.483 5.878 3.486 4.49 2.108 9.47 3.255 14.36 4.486 3.506.878 7.01 1.75 10.51 2.64-.29 5.26-.337 10.534-.714 15.787-2.867 0-5.792-.43-8.675-.645-5.648-.57-11.383-.951-16.831-2.421-7.42-1.99-14.103-5.77-19.338-10.631-5.746-5.245-9.901-11.607-12.88-18.275-4.065-9.24-6.33-20.56-7.116-30.375-.36-.042-.446 1.912-.794 1.88-1.018 4.328-2.216 8.17-3.921 12.344-.325.992-1.184 1.748-1.94 2.517-5.473 5.388-11.31 10.51-17.411 15.38-6.246 4.935-12.757 9.658-19.792 13.77-7.4 4.303-15.403 8.173-24.254 9.799-4.757.835-10.164.995-14.332-1.446-4.655-2.697-6.925-7.384-8.152-11.88-4.242 2.73-8.516 5.42-12.885 8.005-3.943 2.243-7.871 4.615-12.386 5.967-11.29 3.554-23.035 5.884-34.72 8.287-8.381 1.61-16.766 3.22-25.204 4.598 7.817-3.761 15.755-7.354 23.538-11.168 21.117-10.242 41.92-21.005 61.776-32.933 2.708-10.995 7.08-22.056 15.55-30.88l.43-.1c-.675 1.217-.998 2.552-1.693 3.762-5.105 7.58-8.733 15.957-10.017 24.635 9.04-5.572 17.86-11.414 26.164-17.767 5.128-3.898 9.947-8.086 14.348-12.58 1.21-1.272 2.855-2.364 3.313-4.035.2-1.088.088-1.76-.641-4.013-5.133-12.028-12.418-27.034-17.256-37.61 1.655-5.341 3.189-10.712 4.862-16.052 2.23 1.245 3.68 3.2 5.268 4.968 3.24 4.033 6.286 8.18 9.023 12.475 1.53 2.362 1.82 5.104 2.38 7.712-2.196-1.675-3.726-3.946-6.164-5.378.106.38.253.753.445 1.116 3.857 6.453 6.495 13.405 8.205 20.485 1.057 4.206 1.515 8.52 1.22 12.82-.22 4.66-.97 9.434-3.492 13.64-2.242 3.734-5.257 7.08-8.406 10.29-10.675 10.62-23.187 19.774-35.894 28.588.016.514.703.652 1.112.933 4.548 2.407 10.237 2.164 15.316 1.415 3.83-.752 7.772-1.325 11.276-2.913 9.2-4.08 17.22-9.77 24.962-15.568 10.152-7.832 19.714-16.206 28.835-24.895-3.047-9.167-6.212-18.304-9.435-27.427-1.75-4.76-3.38-9.57-5.473-14.23-3.472-6.15-6.81-12.374-9.837-18.69 1.223-4.82 2.76-9.591 4.065-14.404m92.52 24.809c-1.111.374-2.044 1.414-1.577 2.458.17.79 1.19 1.064 1.725 1.65 2.23 2.195 4.34 4.48 6.28 6.869 4.837-1.491 9.75-2.784 14.633-4.154-3.636-2.944-7.673-5.745-12.524-7.077-2.76-.794-5.85-.697-8.536.253zm107.04-6.34c14.9-7.821 29.72-15.751 44.64-23.542-.42 2.43-1.242 5.094-3.6 6.696-14.444 7.638-28.972 15.173-43.414 22.825.618-2.04 1.59-3.984 2.376-5.978zm-75.173-29.485c1.379-.674 3.4-.625 4.332.609 1.284 1.643 1.627 3.792.932 5.679-1.313 3.74-4.213 6.92-7.374 9.687-3.845 3.182-8.446 6.116-13.886 6.833.912-.957 2.245-1.487 3.42-2.174 3.37-1.924 6.614-4.046 9.444-6.525 1.485-1.457 3.092-3.03 3.358-5.024.103-1.672-1.685-3.1-3.51-3.378-2.658.4-4.314 2.348-6.27 3.717-.465-1.211.782-2.061 1.518-2.948 2.344-2.413 4.704-5.003 8.037-6.477zm-194.07-8.1c4.557-2.38 9.023-4.9 13.636-7.2-.455 2.458-1.395 5.305-4.213 6.53-10.078 5.228-20.045 10.612-30.16 15.786 1.129-1.96 2.24-3.94 3.485-5.846 5.704-3.148 11.512-6.172 17.254-9.268zm438.9-15.313c6.643 3.79 12.12 9.199 15.084 15.534 2.92 6.14 2.897 13.11.545 19.382-.32.724-1.002 1.269-1.574 1.85 1.022-4.256 1.374-8.726-.05-12.95-2.011-6.691-7.766-12.25-14.764-15.612.347-2.728.425-5.475.76-8.203zm-160.06 2.75c1.14-1.183 2.254-2.386 3.506-3.485-1.19 2.359-.28 4.92.286 7.31.642 2.189 1.26 4.397 2.233 6.498 1.216 1.35 3.347 2.036 5.31 1.984a1.1 1.1 0 0 0 1.03-1.558c-.96-2.636-2.208-5.195-3.628-7.674.274-1.82 1.072-3.572 1.632-5.347.68.052 1.37.1 2.067.16.454 3.229 2.446 6.089 4.008 8.988-.065 2.334-.258 4.68-.79 6.976-.401 1.599-1.101 3.45-3.007 4.17-1.624.536-3.526.834-5.166.189-2.41-.905-4.12-2.687-5.6-4.47-.935 2.52-3.316 4.519-6.236 5.403-2.402.936-5.322-.045-6.844-1.758-1.746-2.02-2.053-4.624-2.082-7.055.098-2.332.315-4.735 1.5-6.88.77-1.437 1.96-2.851 3.788-3.39-2.437 3.417-2.707 7.796-.908 11.464.52 1.04 1.587 2.047 3.01 2.08 2.164-.092 3.845-1.413 5.277-2.665-.034-2.98.12-5.951.125-8.93.107-.67-.135-1.48.495-2.005zm-360.93-24.175c5.436 2.988 9.763 7.53 11.832 12.755 1.68 4.224 1.563 8.87.066 13.117-.2.69-.813 1.207-1.361 1.713 1.106-4.007.987-8.352-.992-12.155-2.017-3.928-5.714-7.167-10.094-9.26.237-2.054.356-4.114.552-6.167zm175.43-4.46c1.23-1.29 2.332-2.78 3.968-3.72-1.08 1.39-.626 3.107-.368 4.64.605 2.86 1.505 5.676 2.568 8.44.338 1.154 1.74 1.646 2.898 2.09 1.046.333 2.306.642 3.37.198.67-.5.355-1.352.12-1.97-1.025-2.42-2.07-4.847-3.51-7.114l1.651-5.277c.72.049 1.438.09 2.17.129.332 3.249 2.438 6.085 3.956 9-.055 2.487-.268 4.994-.9 7.428-.36 1.435-1.14 2.95-2.74 3.672-1.84.617-4.028.905-5.82.048-2.086-1.012-3.75-2.555-5.055-4.24-1.047 2.583-3.562 4.629-6.618 5.47-2.102.67-4.6-.044-6.037-1.455-1.828-1.61-2.319-3.94-2.494-6.084-.144-2.76.118-5.607 1.39-8.176a7.362 7.362 0 0 1 3.751-3.531c-1.69 2.844-2.556 6.15-1.61 9.293.416 1.647 1.111 3.748 3.275 4.264 2.337.253 4.194-1.251 5.7-2.555.281-3.51.105-7.04.334-10.543zm180.86-4.441c7.866-2.884 15.73-5.797 23.776-8.294-.241 1.55-.904 3.32-2.683 4.058-11.423 4.133-22.892 8.197-34.074 12.787-2.22 1.04-4.504 2.108-6.234 3.71 1.236 1.154 3.085 1.587 4.753 2.107-.02 1.12-.015 2.24-.015 3.363-2.364-.485-4.732-1.217-6.565-2.614.107-1.591.074-3.193.332-4.774.265-1.436 1.995-2.112 3.247-2.892 5.544-2.926 11.544-5.156 17.47-7.451zm-353.94-13.96.324.275c-.714.767-.351 1.779-.236 2.66a29.433 29.433 0 0 0 1.714 5.59c.253.81 1.247 1.2 2.094 1.47.74.132 1.94.44 2.245-.4-.507-1.964-1.726-3.72-2.478-5.605.355-1.09.523-2.257 1.132-3.266.41.006.827.019 1.244.044.41 2.115 1.705 3.977 2.638 5.929-.052 2.007-.126 4.09-1.02 5.978-.554 1.276-2.325 1.615-3.75 1.598-2.08-.252-3.446-1.742-4.68-3.04-.79 1.894-2.82 3.375-5.183 3.635-1.987.087-3.671-1.272-4.195-2.822-.69-2.05-.614-4.25-.053-6.314.438-1.443 1.292-3.004 3.05-3.558-1.385 1.986-1.73 4.43-.952 6.646.303.916.863 2.063 2.14 2.195 1.414.02 2.466-.894 3.476-1.605.262-2.268-.053-4.557.278-6.82.512-.976 1.534-1.697 2.213-2.591zm65.18-3.906c.866.197 1.492.797 2.208 1.224 4.336 3.026 7.947 6.962 9.67 11.536 1.61 4.14 1.512 8.685.077 12.85-.197.72-.736 1.303-1.21 1.907a10.98 10.98 0 0 0-.15-.31c1.046-3.848.89-7.991-.938-11.653-1.977-4.013-5.678-7.334-10.144-9.425.115-2.046.303-4.091.487-6.13zm39.333-3.572c1.099-2.27 3.983-4.178 6.989-3.74 1.5.273 2.553 1.393 3.088 2.555 1.05 2.392 1.207 5 .838 7.517 1.845 1.872 3.85 3.769 4.622 6.196 1.431 3.193.151 6.602-1.067 9.684-1.558 4.078-4.52 7.78-5.07 12.115-.193 1.07.293 2.239 1.586 2.609 2.078-.52 2.4-2.613 2.826-4.14.65-.131 1.67-.191 1.893.506.355 1.928-.642 3.783-1.448 5.54-.728 1.336-1.738 2.914-3.608 3.21-1.493.234-2.634-.875-3.23-1.891-1.703-2.928-1.167-6.4.257-9.321 2.216-4.657 5.145-9.345 4.875-14.511.008-2.195-1.08-4.29-2.818-5.888-2.597 5.946-6.798 11.307-11.636 16.106-2.503 2.635-6.098 4.244-9.53 5.85-3.07 1.348-6.188 2.676-9.46 3.65 6.298-3.841 12.34-8.04 17.567-12.92 4.31-4.1 8.278-8.726 9.878-14.135l-.107-.305c-2.33-1.276-5.133-2.403-6.348-4.656-.515-1.283-.45-2.726-.098-4.033m2.336.65c-.6.33-.188.96.303 1.176a79.341 79.341 0 0 0 4.503 2.036c-.037-1.304.24-2.923-1.105-3.852-1.165-.826-2.76-.111-3.7.64zm249-2.901c.785-1.162 2-2.594 3.8-2.393 1.91.365 3.779 1.235 4.953 2.594.597.85 1.092 2.146.032 2.895-.556.46-.953 1.24-1.64 1.474-.962-1.065-1.707-2.965-3.65-2.91-2.437.76-3.782 2.85-4.511 4.837-1.509 4.1-1.816 8.42-2.29 12.664-.483.423-1.133.659-1.714.959 0-4.302-1.177-8.91-4.812-12.09-1.75-.183-3.833-.36-4.814-1.8-1.195-1.833-2.054-4.097-1.227-6.163 1.853-.31 3.354.87 4.613 1.849 3.33 2.59 5.48 6.019 7.424 9.427.82-3.87 1.648-7.83 3.832-11.341zm-473.61 1.397c1.014-1.52 2.135-3.081 3.894-4.056-2.806 5.132-6.07 10.23-7.113 15.89-.327 1.853-.34 3.975 1.06 5.53 1.308 1.399 3.69 1.423 5.54.934 2.075-.703 3.04-2.59 4.01-4.16.433.01.523.443.732.703-1.092 3.638-2.148 7.583-5.383 10.34-3.006 2.694-8.937 1.307-10.413-2.038-1.07-2.407-.714-5.07-.084-7.524 1.546-5.527 4.475-10.697 7.76-15.617zm282.09-5.765c5.39 3.123 9.812 7.63 11.873 12.929 1.023 2.78 1.4 5.745 1.002 8.644-.296 2.109-.692 4.302-2.088 6.119-.194-.555-.063-1.124.06-1.675a15.7 15.7 0 0 0-2.426-12.375c-2.115-3.076-5.244-5.655-8.925-7.358.07-2.1.31-4.192.503-6.286zm75.23-2.823c2.126.936 3.516 2.645 4.887 4.247 3.34 4.146 6.18 8.803 8.73 13.329.249.595.26 1.336.438 3.326-1.538-1.42-3.338-2.788-5.624-3.204-.405.76-.401 1.577-.057 2.354 2.969 7.722 6.327 15.336 9.202 23.085 1.833 5.052 3.44 10.242 3.502 15.56.126 4.938-.868 9.869-2.585 14.577-1.726 4.424-4.373 8.81-8.786 11.73-3.632 2.5-8.48 3.538-13.1 3.17-5.64-.357-10.982-2.663-14.896-6.09-2.09-1.687-3.784-3.681-5.375-5.713l.609-.12c-.17.016-.5.05-.668.068-3.533-5.048-6.155-10.558-7.668-16.29.136-.742-1.533-.68-1.365.06-2.156 8.36-5.596 16.604-11.29 23.726-3.324 4.092-7.626 7.743-12.964 9.903-5.816 2.327-12.667 2.48-18.79.989-6.15-1.505-11.025-5.624-13.67-10.478-3.826-6.953-4.411-14.83-3.99-22.39.823-6.11 2.62-12.084 4.38-18.037.595-1.83 1.12-3.8.358-5.66a95.514 95.514 0 0 1-.974-.432c-.822.456-1.668.903-2.31 1.54-4.508 4.217-7.068 9.605-9.113 14.949-1.546 4.303-2.753 8.696-3.562 13.145-1.076 7.032-2.724 14.147-6.54 20.519-2.07 3.387-5.18 6.907-9.862 7.683-4.34.493-8.977-.662-12.156-3.255-3.893-3.086-5.6-7.573-6.626-11.886-1.636-7.743-1.128-15.68-.102-23.453.687-4.792 1.669-9.55 2.892-14.261.4-.032.806-.056 1.218-.077-1.62 7.944-2.736 16.01-2.454 24.084.254 4.6.892 9.29 3.096 13.547 1.498 2.916 4.037 5.63 7.567 6.886 3.334 1.152 7.448 1.36 10.57-.357 3.227-1.796 4.74-5.003 5.939-7.975 2.36-6.577 3.403-13.418 5.256-20.1 1.942-6.782 4.736-13.38 8.163-19.726 1.964-3.7 4.127-7.336 6.904-10.652 2.468-2.952 4.733-6.192 8.235-8.358.26.01.777.035 1.038.045.642 2.223-.114 4.525-.23 6.775-.217 3.717-1.812 7.209-2.728 10.81-1.137 4.12-2.11 8.274-3.084 12.424-1.505 5.943-2.577 12.212-.683 18.19 1.432 4.688 5.248 8.825 10.4 10.96 3.35 1.494 7.11 2.253 10.88 2.367 5.3.455 10.844-.086 15.584-2.25 5.714-2.524 9.76-7.101 12.38-11.99 2.565-4.885 4.029-10.177 4.454-15.506.057-10.586-.81-21.376-5.08-31.414-.543-1.387-1.255-2.826-.944-4.313.675-4.08 2.282-8.01 4.167-11.792.12-.434.734-.465 1.1-.687 2.019 5.107 3.978 10.25 5.2 15.544 1.54 6.882 2.43 13.854 3.34 20.809.727 4.966.939 10.008 2.408 14.876 1.22 4.04 3.117 7.992 6.099 11.338 3.624 4.268 9.064 7.437 15.113 8.647 5.178 1.02 10.708-.29 15.064-2.742 2.29-1.325 4.667-3.558 3.906-6.085-7.252-16.17-13.215-32.73-19.14-49.273-.394-1.366-1.142-2.674-1.265-4.078.77-4.375 2.577-8.57 4.614-12.624zM318.019 143.95c2.48-4.744 4.954-9.49 7.486-14.213 4.896 9.548 8.88 19.43 11.865 29.53.351 2.043-.36 4.095-.274 6.148-1.71-2.573-3.673-5.017-5.465-7.548.462 4.632 1.3 9.24 1.808 13.873a2657.502 2657.502 0 0 1 9.014 82.189c2.95-1.81 5.2-4.407 6.463-7.296 1.648-3.252 3.427-6.487 5.836-9.393.904-1.043 2.098-2.382 3.85-2.06.99.05 1.46.95 1.558 1.682.437 2.577-1.86 4.8-1.469 7.355.106 2.097 2.041 3.897 4.34 4.53 3.978 1.218 8.297.674 12.375.185 1.84-.343 4.14-.638 5.034-2.257a89.448 89.448 0 0 0-3.227-7.697c1.722-3.72 3.69-7.362 5.485-11.061.462-.874.773-1.838 1.534-2.573 1.305 4.23 1.632 8.62 2.16 12.954.543 7.007-.782 14.282-4.905 20.447-2.22 3.155-5.537 6.022-9.865 6.934-3.77.756-7.914.405-11.334-1.19-3.96-1.91-6.675-5.265-8.086-8.882-2.142 4.175-4.959 8.12-8.547 11.515.417 5.416.883 10.828 1.202 16.248.237 6.044-1.59 11.966-3.705 17.687-1.027 2.458-2.037 4.93-3.305 7.31a142.124 142.124 0 0 1-44.05 39.78c-11.702 6.813-24.647 12.097-38.238 15.568-7.105 1.748-14.368 3.173-21.76 3.63-7.627.09-15.37-.745-22.5-3.117-6.69-2.212-12.535-6.24-16.286-11.45-13.178 1.156-26.434 1.79-39.686 1.818 11.82-3.592 23.522-7.472 35.027-11.744-3.072-12.701-.532-25.798 3.31-38.17 2.351-7.5 5.13-14.946 8.537-22.144 2.582-5.76 3.6-8.407 8.53-15.202-5.166 7.73-5.919 10.91-8.228 16.39-3.108 8.436-5.343 17.145-6.002 25.97-.65 9.702.172 19.888 5.505 28.668 14.18-5.62 27.984-11.938 41.22-19.025 11.223-6.096 22.066-12.747 31.92-20.37 4.67-3.662 9.21-7.483 13.046-11.797 1.133-1.13.581-2.742.213-4.03-.855-2.16-1.824-4.284-2.81-6.4-6.707 2.303-13.853 3.88-21.129 3.853-3.967.097-8.049-.545-11.469-2.316-2.932-1.533-5.108-4.05-5.99-6.873-1.224-3.703-.693-7.61.04-11.345 1.161-5.405 3.51-10.81 7.971-14.902 3.133-2.857 7.28-5.055 11.878-5.63 5.2.02 10.094 2.17 13.804 5.155 4.724 3.797 7.947 8.72 10.426 13.772 4.626-2.285 9.072-4.99 12.516-8.502 3.378-2.978 6.855-6.02 11.17-8.02 1.076-.523 2.933-1.102 3.648.122.781 1.814.037 3.812-.486 5.618-1.39 2.635.29 5.63 2.368 7.645 2.891 2.767 7.644 3.034 11.673 2.414-4.22-36.77-8.512-73.538-12.736-110.31-.086-1.233-.716-2.36-1.256-3.487m-57.482 112.91c-2.07.756-4.658 1.876-4.965 3.988.486 1.605 2.711 2.1 4.384 2.444a50.39 50.39 0 0 0 16.344-.028c-.098-.163-.302-.485-.405-.648-2.8-2.69-6.372-5.007-10.618-5.686-1.558-.198-3.214-.576-4.74-.07m35.22 15.02c.556 7.493-.683 15.07-3.468 22.187-1.076 2.472-1.972 5.09-4 7.15-9.976 11.303-22.827 20.537-36.37 28.643-12.065 7.125-24.805 13.446-38.122 18.727 2.274.94 4.662 1.695 7.145 2.143 6.65 1.25 13.518.58 20.18-.235 20.86-2.651 40.5-10.368 57.416-20.916 11.215-6.994 21.432-15.138 30.348-24.205 2.982-3.204 6.65-6.335 7.38-10.551-.713-7.153-1.654-14.29-2.439-21.438-4.638 1.577-10.38 1.948-14.59-.687-5.109-3.27-7.05-8.848-7.857-14-4.406 5.017-9.588 9.566-15.624 13.182zm255.36-138.11c1.158-1.63 2.262-3.43 4.237-4.454-2.87 4.876-5.8 9.834-7.092 15.216-.503 2.326-.675 5.159 1.58 6.903 1.308.542 2.817.864 4.244.438 2.61-.496 3.83-2.798 4.847-4.663.282.749.47 1.525.168 2.295-.93 3.238-2.164 6.63-4.958 9.08-3.145 2.858-9.489 1.214-10.687-2.447-1.05-3.322-.09-6.803 1.064-10.014 1.677-4.3 4-8.402 6.597-12.351zm-331.42 9.13c2.79-4.583 5.47-9.212 8.188-13.823 4.418 9.78 7.915 19.864 10.34 30.134.16 1.868-.44 3.73-.637 5.589-1.996-2.29-3.195-5.045-5.227-7.33 1.108 7.716 1.505 15.493 2.23 23.239a6144.642 6144.642 0 0 1 2.323 30.058c6.057-.86 11.5-3.894 15.158-8.034 5.5-6.2 7.943-14 8.634-21.636-.045-9.81-.663-19.788-4.299-29.177-.643-1.92-1.825-3.78-1.8-5.815.433-3.782 1.926-7.41 3.505-10.943.4-.825.662-1.875 1.84-2.122 1.796 4.706 3.652 9.407 4.847 14.254 1.853 7.595 2.748 15.326 3.78 23.024.687 4.66.892 9.397 2.282 13.963 1.804 6.14 5.46 12.125 11.481 16.03 4.528 2.912 10.311 4.906 16.07 4.132 4.062-.62 8.172-1.99 11.015-4.618 1.285-1.165 2.168-2.87 1.62-4.466-5.816-12.694-10.565-25.714-15.366-38.702-1.64-4.518-3.252-9.046-4.86-13.57-.449-1.15.147-2.33.368-3.465 1.01-3.46 2.32-6.89 4.127-10.107 1.967.8 3.243 2.386 4.527 3.818 3.874 4.729 6.962 9.88 9.8 15.099a47.145 47.145 0 0 0-.372 2.008c-1.44-1.516-3.288-2.875-5.603-3.26-.368.742-.352 1.554-.033 2.306 2.577 6.605 5.325 13.162 7.947 19.753 2.23 5.877 4.908 14.42 4.756 18.072-.47 5.128-1.318 11.926-3.147 16.705-2.012 4.247-5.516 9.319-10.29 11.653-4.092 2.088-9.15 2.41-13.761 1.64-6.073-1.03-11.284-4.358-15.015-8.457-5.243-5.777-8.462-12.72-10.368-19.778-.286.006-.858.027-1.145.037-1.784 7.1-4.496 14.094-8.684 20.449-3.755 5.683-8.945 11.054-16.103 13.765 1.25 17.583 2.56 35.162 3.456 52.762.13 8.68-.282 17.354-.79 26.022-.008 1.18-.588 2.27-1.022 3.374a270.078 270.078 0 0 1-4.466 11.22c-.25.62-.573 1.228-1.035 1.762-.204-16.57-1.86-33.1-3.182-49.624a19563.028 19563.028 0 0 1-3.564-43.656c-5.73-.108-11.633-1.53-15.86-4.941-4.93-3.844-7.446-9.39-8.65-14.86-1.062-4.847-1.287-9.816-.84-14.722.98-6.408 2.916-12.673 4.76-18.935.254-1.12.438-2.296.14-3.423-.115-.41-.225-.894-.785-1.01-.86-.093-1.498.45-2.078.89-3.215 2.637-5.317 6.045-7.154 9.457-3.48 7.049-5.53 14.563-6.647 22.132-.925 4.989-2.274 9.957-4.483 14.662-1.754 3.495-3.942 7.094-7.746 9.285-3.248 1.9-7.542 1.667-11.096.579-4.5-1.416-7.702-4.835-9.403-8.538-2.96-6.366-3.15-13.335-2.97-20.086.42-7.912 1.745-15.783 3.786-23.508.384-.07.773-.135 1.157-.198-1.652 8.863-2.998 17.85-2.216 26.834.38 3.894 1.198 7.826 3.16 11.39 1.67 3.045 4.6 5.78 8.476 6.775 3.297.86 7.203.79 10.008-1.088 3.05-2.07 4.495-5.305 5.61-8.377 2.627-7.783 3.613-15.893 6.333-23.656 2.638-7.611 6.225-14.993 10.663-21.976 2.573-3.62 5.354-7.16 8.585-10.385.957-.846 1.918-2.05 3.44-2.063.834.454.536 1.449.556 2.16-.427 3.502-.467 7.084-1.703 10.47-2.258 6.953-3.78 14.058-5.435 21.124-1.15 5.503-1.456 11.38 1.026 16.657 1.828 4.025 5.632 7.292 10.22 9.109 2.496.998 5.19 1.609 7.92 1.94-1.505-19.631-3.214-39.252-4.773-58.884-.356-3.054-.118-6.206-1.52-9.098zm607.58.077c2.458-4.944 4.732-9.948 7.22-14.882 3.811 10.648 7.533 21.328 10.641 32.138.466 1.862 1.076 3.71 1.305 5.607-.323 1.5-.863 2.975-.908 4.517a821.716 821.716 0 0 0-4.103-6.636c1.734 27.659 3.828 55.304 6.168 82.935.724 8.886 1.783 17.756 2.168 26.66.703 16.494.024 33.345-5.886 49.2-2.22 5.733-5.047 11.319-8.638 16.534-4.826 6.74-11.992 12.056-19.874 16.14-14.037 7.16-30.103 10.884-46.144 13.183-.908.28-1.276-.614-1.792-1.02 14.311-5.843 28.07-12.71 40.913-20.642 6.422-4.077 12.708-8.373 18.111-13.422 6.193-5.91 10.863-13.03 12.986-20.753 2.328-7.766 1.526-15.85 1.015-23.755-1.342-18.224-3.002-36.43-4.418-54.652-2.179-28.082-4.375-56.163-6.559-84.242-.462-1.973-1.914-3.665-2.585-5.585-.18-.472.237-.895.38-1.328zm-36.25 4.82c8.364-7.445 16.475-15.093 24.512-22.798.357 6.926-3.844 13.29-8.535 18.7-2.51 3.146-6.053 5.5-9.24 8.114a144.059 144.059 0 0 0-4.47 3.6c.422 1.85 1.064 3.675 1.301 5.555-.123 1.744-.454 3.478-.7 5.215-1.803-2.4-3.09-5.076-5.153-7.323.908 7.853 1.35 15.742 1.967 23.616a7293.117 7293.117 0 0 1 4.48 69.374c-.083.596.535.974.932 1.397 5.95 5.61 11.878 11.242 17.448 17.13 4.376 4.937 8.52 10.04 12.033 15.46 4.6 7.094 8.245 14.778 9.32 22.877.586 5.094.295 10.35-1.66 15.228-3.445-13.368-9.785-25.522-17.175-33.951-6.217-7.18-13.017-14.215-19.88-20.956.478 8.245.956 16.494 1.328 24.743.364 10.64-.098 21.286-.63 31.917.004 2.015-1.067 3.856-1.62 5.78-1.599 4.32-2.887 8.745-4.936 12.933-.327-9.82-.72-19.65-1.42-29.458-1.26-17.57-2.58-35.13-3.77-52.7-.176-1.384-.086-2.795-.397-4.155-4.515-4.476-9.39-8.685-14.107-13.006-8.307-7.357-16.7-14.646-25.412-21.657 1.653 18.353 3.362 36.7 4.908 55.06.663 8.337 1.538 16.672 1.632 25.032.12 7.27.034 14.545-.158 21.813.024 4.589.098 9.328-1.82 13.69-2.839 5.403-7.929 9.913-14.069 12.697-4.794 2.156-10.213 3.304-15.636 3.342-3.66.07-7.3-.756-10.536-2.174-5.667-2.708-9.708-7.327-12.309-12.3-1.784-3.421-3.064-7.038-3.755-10.737-.4-1.62-.826-3.492-2.532-4.504-1.358-.777-2.98-.156-4.294.364-3.195 1.444-6.27 3.184-8.58 5.58-7.527 7.676-11.106 17.475-13.347 27.118-1.097 4.16-2.835 8.297-5.886 11.733-2.213 2.448-5.372 4.792-9.113 4.854-2.93.049-5.755-1.01-8.368-2.104-5.784-2.587-9.795-7.33-12.184-12.392-.639-1.353-1.419-2.48-2.67-7.272-1.35-5.17-1.818-13.02-1.295-21.008.254-.774-.69-1.054-1.21-1.484-2.06-1.498-2.904-3.877-2.876-6.117-.057-8.22 1.35-16.584 5.432-24.105 3.31-6.2 8.265-11.62 13.091-17.011.454-.582 1.256-1.047 1.477-1.726-3.007-2.91-6.18-5.697-9.387-8.447-1.828-1.792-4.053-3.25-5.853-5.06-6.765-6.216-13.415-12.52-20.062-18.827.634 9.224 1.117 18.457 1.66 27.689.414 8.55 1.113 17.098.97 25.659.03 7.632-.376 15.256-.744 22.877-.02 1.9-.925 3.669-1.497 5.479-1.612 4.463-3.068 8.977-5.023 13.347-.364-3.613-.143-7.25-.413-10.866-.74-18.04-2.405-36.04-3.587-54.06-1.007-13.785-1.895-27.582-2.966-41.361-4.43-4.66-9.105-9.171-13.485-13.876-5.13-5.486-10.254-11.01-14.548-16.997-6.164-9.404-13.084-18.533-21.628-26.522-.487-.39-.336-.968-.332-1.463.295-5.17.528-10.34.83-15.51 6.082 3.357 11.882 7.077 17.457 11.02 4.321 3.158 8.431 6.546 11.928 10.378 1.804 1.81 3.47 4.119 2.864 6.59-2.054-.691-4.176-1.241-6.12-2.136a8.447 8.447 0 0 0-2.506-.711c-.128 1.447 1.033 2.588 1.905 3.725 6.335 7.867 12.945 15.568 19.726 23.162.87.974 1.832 1.903 2.503 3-.43-8.905-1.23-17.8-1.8-26.7-.96-13.743-1.947-27.484-2.908-41.23-.176-2.052-.057-4.17-1.03-6.101-.47-.77.224-1.474.61-2.14a457.665 457.665 0 0 0 6.784-11.537c.106-.27.618-.967.773-.298 4.184 9.22 7.44 18.74 9.845 28.404.74 2.313-.172 4.67-.446 6.983-1.562-2.618-3.333-5.138-5.067-7.676 2.22 24.136 3.51 48.33 5.174 72.494 1.124 1.602 2.85 2.87 4.225 4.334 13.272 12.975 27.052 25.564 40.823 38.154 10.233-9.633 20.57-19.19 30.94-28.714.45-.352.757-.785.598-1.323-3.12-30.044-6.246-60.092-9.37-90.136-.397-3.037-.29-6.164-1.636-9.05 2.556-4.656 5.358-9.22 7.898-13.886 1.39 2.45 2.347 5.07 3.443 7.628 2.577 6.375 4.806 12.856 6.57 19.426.367 1.48.972 2.975.731 4.507-.184 1.38-.41 2.76-.585 4.149-1.71-2.45-3.35-4.93-5.072-7.373 2.445 24.198 4.926 54.667 7.146 77.12 10.753-9.684 21.42-19.44 32.222-29.084 1.186-1.144 2.535-2.167 3.628-3.38-5.256-5.988-10.16-12.19-15.052-18.394-1.7-2.043-3.022-4.282-4.646-6.366-3.419-4.493-6.912-9.04-11.608-12.662-.409-5.84-.63-11.692-.924-17.54 11.027 8.168 22.23 16.177 32.946 24.645a8.69 8.69 0 0 1 2.415 2.805c-.965-9.137-1.849-18.276-2.76-27.416-.11-.84-.08-1.713-.493-2.497-.274-.804-1.03-1.664-.417-2.486 2.536-4.42 4.928-8.9 7.436-13.335 4.39 8.807 7.808 17.954 10.516 27.232.278 1.304.95 2.583.744 3.928-.2 1.484-.319 2.975-.519 4.46-1.55-2.185-3.1-4.37-4.634-6.557a14.66 14.66 0 0 1-.74-1.05c1.398 10.455 2.323 20.95 3.415 31.429 8.078-7.268 16.373-14.358 24.73-21.4 3.721-2.984 7.582-5.848 11.148-8.972-.336-4.057-.528-8.12-.904-12.174-.07-1.284-1.464-2.581-.487-3.812 2.638-4.25 5.137-8.568 7.6-12.898 2.883 5.618 4.83 11.554 6.916 17.41M742.9 198.718c.127 1.64.29 3.28.467 4.917 2.625 2.75 5.292 5.475 8.065 8.12 10.572 10.118 21.51 19.954 32.237 29.95-1.659-24.724-3.526-49.446-5.175-74.175a1225.856 1225.856 0 0 0-35.596 31.188m-22.835-22.425c3.39 4.493 6.92 8.92 10.683 13.196-.302-3.962-.756-7.922-1.165-11.878-.205.35-.426.7-.598 1.058-2.556-1.58-5.677-2.823-8.92-2.375m-21.735 63.958c-2.192 2.187-4.634 4.205-6.695 6.48.486 7.01 1.541 14.004 2.192 21.012.32 11.584-1.95 23.88-10.352 33.36.241-1.51.127-3.035.147-4.554-.012-5.197.246-10.395.217-15.596-.028-4.983.078-4.64-.15-14.948-.097-4.303-.724-7.717-1.134-10.745-2.933 2.63-5.726 5.37-8.65 8.007-5.756 5.45-11.874 10.61-17.772 15.946 5.992 5.47 9.751 12.673 10.72 20.083.978 7.88-1.337 16.262-7.44 22.39-5.38 5.37-13.102 8.76-21.123 10.32-3.762.708-7.783 1.194-11.517.126.466 3.308 1.05 6.605 1.832 9.87 1.341 5.507 3.088 11.065 6.552 15.916 1.853 2.48 4.393 4.882 7.886 5.61 3.738.77 7.538-.818 10.164-2.996 2.342-1.778 3.425-4.358 4.412-6.813 2.964-7.23 3.966-14.996 7.89-21.948 2.752-5.516 6.25-10.87 11.296-15.12 2.617-2.31 5.627-4.28 8.78-6.034 2.172-1.103 4.802-2.022 7.358-1.376 2.434.605 4.074 2.425 5.2 4.26 2.56 4.13 3.226 8.851 5.3 13.144 1.517 3.547 3.53 7.15 7.104 9.542 3.61 2.417 8.37 3.16 12.874 2.996 7.86-.285 20.79-5.716 21.444-7.25.68-1.592-1.116-13.646-1.816-20.46-3.423-33.296-6.696-66.6-10.04-99.898-.116-.916-1.085-1.536-1.564-2.313-11.238 10.175-22.13 20.62-33.11 30.99m-51.225 47.77c-2.352 2.3-4.572 4.704-6.785 7.103-4.21 4.813-8.42 9.68-11.538 15.076-.785 1.37-1.5 3.08-.597 4.536 1.065 1.49 3.348 1.712 5.22 1.716 8.27-.28 15.985-3.42 22.7-7.337 2.246-.94 4.356-3.02 3.51-5.277-1.113-3.034-3.22-5.71-5.28-8.336-2.14-2.58-4.393-5.1-6.794-7.51l-.438.028z"/>
</svg>
