<svg xmlns="http://www.w3.org/2000/svg" width="4000" height="2000" viewBox="-100 -100 6000 4000">
	<path d="M0 0h6000v2000H0z" class="white" stroke-width="20"/>
	<path d="M0 500h6000v1000H0z" class="red" stroke-width="20"/>
	<path d="M0-500h6000v1000H0z" class="green" stroke-width="20"/>
	<path fill="none" stroke="#000" stroke-width="30" d="M3211 1696V1426h744c-9-492 498-402 639-66 165 399-90 825-165 921-186 204-660 174-861 210-300 60-540 354-540 681 0 288 162 564 414 741V3028h-360v444c-291 129-489 420-489 744 0 426 336 771 798 771 420 0 699-111 894-549v-492c6 0 384-270 384-231v-1080c-234 96-852 240-852-204 0-285 321-546 600-615 174-51 585-84 816-291-1887 120-1959 120-2022 171z m-870 1269v1020c0 261 195 414 414 414 210 0 375-150 384-360h66c396-99-1029-1494-1029-2394C2176 1180 1810 1000 1594 1021c-159 18-354 108-420 270-15 36-21 75-21 111 0 384 261 546 474 660V3040H1060v-132C1132 2464 1717 1840 2341 1840c636 0 1164 666 1164 1131 0 468-258 747-369 849-114 105-399 261-510 261-111 0-486-906-624-906h-15c348-126 348-168 354-210z"/>
	<path fill="none" stroke="#000" stroke-width="30" d="M3069 2089c45 81 90 279 90 546 0 270-24 495-66 666-123-261-195-576-213-591-30-51-240-354-210-468 30-132 12-147 36-186 51-72 81-108-36-258L2400 1579c-360-210-318-441-318-570 0-60 96-291 141-360 9-9 9-9 9-18l30-192V1204l132-210 102 156c234 372 486 96 720 0 81-36 111-30 78 75-45 174-21 225 159 240 189 18 255 381 315 456 90 108 516 96 636 24 81-48 225-165 174-234-51-69-114-99-321-99-204 0-315 30-351 99h-636c-6 0-6 129-9 120 9 9 9-99 0-138-153 417-51 354-9 237 60-132 144-222 144-192 0 42-180-12-180-81 0-72 81-138 141-120 0-54 6-66 99-90 30-9 39-9 30 9 0 81-99 159-99 81 0-45-30-66 66-66s114-21 66-51c-48-30-210-48-318-30-42 6-138-6-180-21-72-30-261-30-291 0h-414v66l60 9c90 9 420 39 699 60 249 18 450 39 435 54-9 9-9 255 0 270 66 36 90 90 66 96-60 30-324 210-324 171 0-30 66 30 81 96 18 90 60 90 636 240v81c0 81-21 0-24 60-30 210-165 0-180 180-45 399-99 615-165 756-66 105-45 501-24 666 21 180 9 429-21 429s-30-132 30-141c60-12 174-132 156-132-30 0-51 36-51 66 0 81-69 111-99 39-9-21-9-42-12-282 0-258-81-60-81-234 0-156-6-45 51-258 60-225 900-474 1200-405 159 45 279 30 339-30 45-45 276-411 459-681 9-9 9-30 0-39-45-30-75 96-66-21 0-66-51-45 81 0 81 30 81 24 210-45s-42-138-138-138c-66 0-234-9-381-21l-276-21c-99-9-90 9-99-96-6-66-9-9-39-99-39-99-90 9-132-132-42-132-774-234-900-141-66 51-36 150 0 261 30 81 60 81 225 159 345 129 345 204 330 150-15-36-75-15-165 60-99 69-99 75-165 66-60-9-66 30-150 0-51-15-54 6-60 90-60-6 174-21-240-30-51 0-42 72-138 30-30-21-21-6-24-54-66-66-66-66 330-81 240-9 240-9 240 39 0 9 240 21 540 21s540-12 540-21z"/>
</svg>