<svg xmlns="http://www.w3.org/2000/svg" viewBox="0 0 512000 266100">
	<path d="M1473819-535210v5000h-6000v5000h-5000v5000h-7000v-5000h-4000v4000h-4000v-5000h-5000v5000h-5000v-35000h5000v5000h5000v-5000h4000v13000h7000v-13000h5000z" stroke-width="1000"/>
	<path fill="#08f" d="M112200 19216c10900 0 20200 8500 20200 19700 0 11100-9300 19700-20200 19700-10900 0-20300-8500-20300-19700s9400-19700 20300-19700m-110100 0c10900 0 20200 8500 20200 19700 0 11100-9300 19700-20200 19700-10900 0-20300-8500-20300-19700s9400-19700 20300-19700m-49200 20900h20300v20300h-20300z" stroke-width="1000"/>
	<path d="M204939 173517l4740-14536v-3870c-12560 631-18249-870-22988-4899-4898-4028-7821-9480-15800-8847v-2133h-16036v16036h16036v7821c0 3397-2607 3397-2607 4898s2133 8847 2133 8847l-869 2133s2607 8848 4898 11850 4029 5767 4029 5767l-869 869c-158 159 12008 7820 12008 11138 0 3240-9401 4740-18644 4740-18801 0-16668-11138-16668-12797v-10981c0-1738 632-6952-16668-6952-9717 0-17696 1501-17696 4740 0 6240 12798 4740 18801 4740 9717 0 15010-2607 16037-6952 869-4029 0-7820 0-7820s-948-1738-1738-1738c-790 947-1738-632-1738-632v-15563h-16036v16037z" stroke-width="1000"/>
	<path fill="#ccc" d="M112200 19216c10900 0 20200 8500 20200 19700 0 11100-9300 19700-20200 19700-10900 0-20300-8500-20300-19700s9400-19700 20300-19700m-110100 0c10900 0 20200 8500 20200 19700 0 11100-9300 19700-20200 19700-10900 0-20300-8500-20300-19700s9400-19700 20300-19700" stroke-width="1000"/>
</svg>