<svg xmlns="http://www.w3.org/2000/svg" viewBox="0 0 992 592">
	<defs>
		<style>
			.cls-2{fill:#b30000}.cls-3{fill:#017c79}.cls-4{stroke:#000;stroke-miterlimit:10;stroke-width:.8px}.cls-5{fill:#ac722f}.cls-6{fill:#2b8750}.cls-7{fill:#3d3d3d}.cls-8{fill:#eaeaea}
		</style>
	</defs>
	<g id="Layer_2" data-name="Layer 2">
		<g id="Objects">
			<path id="Star" d="M616.46 44C636.7 28.79 658 17.12 679 8.2v881.59c-21 8.92-42.31 20.59-62.54 35.81 3.32-50.45-16.87-44.26-37.08-38.07Z"/>
			<path id="Star_2" d="M311.47 45c-20.28 15.79-40.57 27.46-61 36.38v803.24c20.23 15.22 41.54 26.89 61.81 35.81-45.96-47.05-24.12-55.28-.81-64.2Z" data-name="Star"/>
			<path id="Crescent" d="m555.47 16.61-179 134.56v693.27l179 135.35 179-135.76-179-135.76Z"/>
			<path id="Red_Stripe" d="M327.41 207H973V17a653 653 0 0 0-645.59 0Z"/>
			<path id="Green_Stripe" d="M356.13 18h179c612 0 983.53 2.45 983.53 2.45v188.12A611 611 0 0 0 535.13 20.45Z"/>
			<path d="M591.44 111v332m0-8v332m136-656v332M458 0h77c173 0 278 3.58 278 3.58v37.21a90.088 90.088 0 0 1-10.65 7.67c-34.67 23.21-71.69 43.84-111.55 62-36.54 16.75-74.23 31.06-113.4 43-33.46 10.27-68 19.15-102.98 26.46-31.38 6.42-63 11.74-94.43 16.15A480 480 0 0 0 458 91.66c2.65-3.3 5.22-6.88 7.73-10.69Z"/>
			<path d="M554.41 115.62h83c169 0 243 3.7 243 3.7v36.11C791.36 159 698.08 135.6 615.6 111c-80.72-24.2-144.38-38.82-210.92-50.61-43.84-7.21-88.53-13.74-134.5-18.86-30.62-3.53-61.52-6.2-92.56-7.97h-82a414.41 414.41 0 0 0-91.7 48.28c0 8.16 9.33 15.59 19.55 22.58 30.21 14.72 62 28.24 94.4 40.65 35.82 12.55 72.55 23.73 109.47 33.85 61.33 17.54 124.22 33.06 187.56 46.6 69.34 13.32 139.6 25.49 208.84 36.6a436 436 0 0 0 79.72 7.77c2.51-3.81 5-7.82 7.45-11.95Z"/>
			<path d="M328.41 231v-24h17.73a961.31 961.31 0 0 0 363 26.38v24a912.87 912.87 0 0 1-363-26.38Zm51.05 22.73h265m-265 38h265m-265 38h265m-265 38h265m-265 38h265m-265 38h265m-265 38h265m-265 38h265m-265 38h265m-265 38h265"/>
		</g>
	</g>
</svg>
