<svg xmlns="http://www.w3.org/2000/svg" viewBox="0 0 600 300">
	<rect width="600" height="100" fill="red"/>
	<rect width="600" height="100" y="100" fill="blue"/>
	<rect width="600" height="100" y="200" fill="orange"/>
	<path fill="white" d="M313.255 187.244c-.466-.37-1.003-.691-1.426-.844-.3-.108-.524-.134-1.29-.141-.852-.01-.96-.03-1.287-.18a2.813 2.813 0 0 1-.613-.397c-.326-.295-.653-.902-.704-1.312l-.038-.319-.282.314c-.16.18-.434.39-.646.492-.32.161-.434.18-.972.18-.486 0-.664-.027-.907-.14-.455-.207-.902-.66-1.113-1.128-.16-.339-.185-.48-.185-.94 0-.492.018-.588.21-.978.135-.275.314-.512.493-.666l.281-.23-.396-.185c-1.644-.786-3.773-1.337-4.707-1.234-1.24.147-2.762.6-4.08 1.234l-.396.185.25.243c.134.128.325.384.42.57.174.3.187.377.187.997 0 .614-.019.703-.179 1.01a2.252 2.252 0 0 1-3.754.392l-.172-.243-.038.338c-.071.717-.627 1.471-1.31 1.785-.257.115-.43.14-1.21.147-.742.012-.991.038-1.33.153-.39.128-1.497.793-1.593.953-.025.038-.07.07-.102.07-.032.001.102-.222.3-.49.678-.94.902-1.625.82-2.534-.058-.652.044-1.094.35-1.573.308-.474.762-.793 1.35-.947l.43-.11-.276-.265c-.423-.403-.62-.85-.659-1.445-.05-.814.256-1.485.87-1.94 1.138-.83 2.73-.446 3.338.814l.172.364.5-1.1c1.074-2.372 2.23-5.564 2.487-6.855.613-3.09 1.042-10.169 1.253-20.72.032-1.72.064-4.04.07-5.148v-2.014l-.53.018c-.768.027-3.006.25-4.048.404-3.236.466-5.23 1.087-9.03 2.806l-1.042.474.378.18c1.362.651 1.662 2.493.588 3.573-.46.454-.902.633-1.573.633-.665 0-1.113-.18-1.548-.614l-.332-.333-.039.23a2.23 2.23 0 0 1-1.208 1.676c-.442.227-.442.227-1.375.233-.748.013-1.004.038-1.285.141-.428.153-.914.434-1.433.83-.384.294-.39.294-.223.076.466-.624.646-.912.837-1.315.205-.428.211-.473.243-1.496.032-.89.058-1.1.173-1.356.3-.659 1.042-1.209 1.758-1.305l.308-.045-.276-.243c-.153-.128-.377-.422-.498-.646-.205-.377-.218-.44-.218-1.01 0-.53.02-.652.173-.959.224-.454.62-.85 1.068-1.074.313-.154.435-.173.965-.173.544 0 .646.02.98.185.44.224.83.627 1.034 1.068l.147.327.167-.282c.5-.857 1.068-2.385 1.19-3.198.134-.907-.16-2.026-.94-3.63-.39-.795-.429-.85-.487-.705-.313.787-.659 1.183-1.247 1.458-.3.14-.46.166-.908.173-.46 0-.6-.026-.908-.173-.485-.224-.908-.627-1.12-1.068-.16-.313-.178-.428-.178-.966 0-.53.019-.652.179-.965.096-.198.313-.492.486-.653l.307-.29-.3-.037c-.423-.058-1.03-.377-1.31-.69a2.889 2.889 0 0 1-.411-.62c-.153-.334-.166-.417-.153-1.127.019-1.22-.172-1.803-.946-2.826l-.32-.423.243.192c.447.352 1.132.767 1.522.914.332.128.51.147 1.31.154.85.013.96.025 1.286.178.716.327 1.247 1.03 1.317 1.74l.032.333.397-.397c.339-.332.466-.416.83-.53.544-.167.87-.167 1.402-.007.51.16 1.01.582 1.29 1.1.18.313.193.383.193 1.01 0 .582-.02.71-.16.99-.18.366-.665.871-.953.993-.11.044-.198.095-.198.12 0 .11 3.683 1.65 5.05 2.11 2.234.755 5.066 1.229 9.038 1.504l.364.025v-3.043c0-5.007-.205-8.18-.64-9.93-.25-1.018-1.093-3.154-2.225-5.622-.742-1.637-.691-1.554-.742-1.177-.09.686-.588 1.38-1.195 1.676-1.286.62-2.763-.025-3.153-1.387-.134-.467-.128-.806.032-1.317.11-.352.198-.5.492-.806l.365-.374-.224-.04c-.748-.127-1.388-.581-1.714-1.208-.154-.3-.166-.41-.205-1.381-.038-.832-.07-1.126-.172-1.381-.11-.282-.55-.998-.96-1.555-.063-.09.052-.024.307.168 1.005.76 1.49.927 2.737.94.794.008.903.02 1.228.18.69.32 1.19 1.01 1.253 1.72l.039.37.313-.345c.186-.205.46-.422.678-.524.32-.154.44-.18.94-.18.486 0 .634.027.934.168.966.454 1.49 1.477 1.278 2.5-.147.703-.831 1.477-1.431 1.624-.096.019-.174.058-.174.084 0 .057.832.55 1.382.825.979.492 2.545.907 3.415.907 1.247 0 3.268-.69 4.604-1.572l.27-.18-.22-.075c-.682-.236-1.22-.735-1.45-1.343a2.421 2.421 0 0 1 .01-1.606c.175-.466.655-.984 1.135-1.215.313-.153.435-.178.933-.178.525-.002.62.018 1.004.208.256.128.518.314.652.474.243.28.25.275.327-.167.102-.62.613-1.246 1.278-1.554.359-.165.429-.178 1.119-.165 1.164.025 1.695-.135 2.616-.807.608-.434.608-.434.27.02-.18.23-.442.665-.59.965l-.274.55-.038 1.07c-.04.932-.057 1.105-.192 1.373a2.29 2.29 0 0 1-1.758 1.24l-.352.04.256.184c.519.384.83 1.036.83 1.74 0 .557-.145 1.005-.465 1.4-.34.41-.723.647-1.26.788-.352.089-.48.095-.825.03-.902-.166-1.53-.715-1.79-1.58l-.11-.34-.313.686c-1.093 2.405-1.778 4.042-2.2 5.29-.32.957-.43 1.494-.582 2.876-.224 1.962-.262 2.954-.3 6.99l-.032 3.982.243-.03a14.5 14.5 0 0 1 .922-.072c1.528-.09 3.65-.358 5.307-.678 1.74-.34 3.095-.76 5.18-1.605 1.285-.524 2.813-1.215 2.813-1.266 0-.025-.09-.083-.198-.127-.315-.135-.756-.615-.96-1.056-.46-.978-.09-2.225.84-2.814.303-.191.841-.35 1.186-.35.633-.001 1.426.395 1.758.888l.154.217.05-.345c.065-.467.372-1.08.692-1.37.147-.133.428-.312.626-.402.327-.153.436-.165 1.287-.178.812-.007.978-.026 1.343-.16.396-.154.946-.487 1.502-.915l.256-.198-.294.383c-.828 1.075-.975 1.485-.988 2.718-.006.85-.02.953-.172 1.286a2.69 2.69 0 0 1-.401.62c-.28.314-.89.633-1.305.69l-.294.04.358.358c.492.498.66.933.62 1.642-.02.333-.077.62-.166.812-.198.448-.652.902-1.12 1.113-.34.16-.472.186-.94.186-.472 0-.593-.027-.926-.187-.588-.294-.915-.672-1.228-1.445-.064-.147-.095-.096-.486.704-.684 1.387-1.062 2.724-.972 3.42.108.864.544 2.117 1.107 3.185l.294.563.12-.34c.154-.408.647-.92 1.1-1.137.276-.14.41-.16.96-.16.575 0 .67.02.98.18.44.23.823.626 1.03 1.067.14.307.164.435.158.96 0 .746-.128 1.066-.62 1.558l-.346.346.294.038c.71.096 1.458.652 1.752 1.304.105.25.137.48.168 1.324.06 1.311.193 1.67 1.056 2.814l.192.25-.332-.262c-.486-.377-1.05-.71-1.478-.863-.3-.11-.53-.134-1.29-.14-.915-.007-.935-.014-1.357-.219-.657-.319-1.04-.83-1.2-1.592l-.07-.326-.336.34c-.434.427-.89.606-1.54.606-.54 0-.877-.102-1.293-.383-.593-.415-.931-1.08-.925-1.84 0-.864.454-1.593 1.222-1.976l.39-.192-1.075-.486c-2.161-.972-3.971-1.67-5.237-2.028-1.72-.48-4.246-.895-6.644-1.086-.454-.033-1.023-.084-1.26-.103l-.434-.032v2.16c0 3.154.14 9.1.32 13.737.223 5.627.613 10.237 1.03 12.176.26 1.19 1.457 4.482 2.326 6.4.198.442.39.876.429.98.033.095.084.17.103.17.026-.005.135-.152.237-.338.523-.9 1.783-1.29 2.755-.85.492.224.927.658 1.15 1.15.148.32.18.48.186.903 0 .453-.023.562-.21.94-.13.27-.325.53-.523.71l-.314.281.345.036c.435.045 1.042.358 1.349.704.128.14.307.415.397.613.153.326.166.422.16 1.094-.026 1.21.153 1.77.876 2.75.21.28.377.513.364.506-.007 0-.154-.115-.333-.256Zm-2.845-1.982a1.25 1.25 0 0 0 .978-1.241c0-1.215-1.624-1.688-2.295-.678a1.286 1.286 0 0 0-.13 1.119c.13.327.526.723.788.78.103.02.212.045.243.058.103.032.109.032.416-.038Zm-19.99-.23c.615-.436.71-1.286.21-1.855-.255-.288-.523-.403-.945-.403-.403 0-.71.14-.953.435-.518.627-.32 1.53.416 1.906.422.21.895.185 1.272-.083Zm16.14-1.081c.76-.378.928-1.33.346-1.957-.66-.704-1.874-.396-2.124.524a1.24 1.24 0 0 0 .653 1.433c.179.09.435.166.562.166.129 0 .384-.076.564-.166Zm-11.99-.128c.774-.538.716-1.726-.095-2.143-.825-.42-1.766.103-1.83 1.024-.076 1.05 1.07 1.714 1.925 1.12Zm-2.967-2.93c.333-.23.518-.613.518-1.067 0-1.343-1.873-1.675-2.397-.428-.18.434-.084.965.243 1.324.396.428 1.15.505 1.636.172Zm17.918.07a1.24 1.24 0 0 0 .46-.44 1.245 1.245 0 0 0-1.055-1.906c-.89 0-1.51.903-1.17 1.714.294.691 1.106.98 1.765.633Zm-30.943-29.375c.108-.064.288-.224.39-.358.166-.199.204-.314.223-.647.045-.664-.3-1.144-.933-1.317-.812-.21-1.624.512-1.528 1.356.057.454.294.793.703.985.383.185.812.173 1.145-.02Zm44.026 0c.82-.423.876-1.638.103-2.13-.352-.224-.646-.28-.992-.192-.582.16-.946.627-.946 1.222 0 .965.966 1.547 1.835 1.1Zm-39.92-1.19a1.81 1.81 0 0 0 .446-.383c.18-.224.2-.288.2-.71 0-.384-.027-.499-.155-.691-.441-.64-1.317-.76-1.873-.256-.314.282-.435.544-.435.941 0 .92 1.035 1.547 1.816 1.099Zm35.885-.083c.435-.345.506-.492.506-1.01 0-.384-.026-.499-.154-.69-.428-.62-1.304-.76-1.842-.288-.71.626-.582 1.65.27 2.116.133.07.313.096.587.083.333-.012.442-.05.633-.21Zm-38.834-2.877c.275-.14.422-.275.544-.506a1.32 1.32 0 0 0-.07-1.362c-.18-.26-.692-.524-1.031-.524-.798 0-1.425.844-1.195 1.605.089.316.415.693.678.807.268.115.83.11 1.074-.012Zm41.565.013c.262-.109.582-.474.684-.774.307-.927-.639-1.874-1.566-1.567-.3.103-.665.422-.774.684-.192.454-.058 1.145.268 1.432.352.308.96.41 1.388.225Zm-41.872-8.934c.563-.154.927-.627.927-1.21 0-.414-.115-.689-.403-.939a1.241 1.241 0 0 0-2.071.793c-.07.62.35 1.222.965 1.362.28.07.3.07.582-.006Zm41.987-.096c.646-.326.876-1.177.492-1.803-.275-.448-.927-.69-1.425-.524-.301.102-.666.42-.774.684-.122.281-.11.818.012 1.081.288.594 1.094.869 1.695.562Zm-38.937-2.839c1.017-.288 1.196-1.7.288-2.264-1.055-.652-2.295.467-1.778 1.592.27.582.857.845 1.49.672Zm35.746 0c.787-.224 1.132-1.21.67-1.912a1.25 1.25 0 0 0-1.687-.352c-.876.544-.748 1.893.218 2.232.294.109.486.115.799.032Zm-39.947-1.22c.384-.11.607-.295.774-.66.18-.39.192-.684.03-1.03-.5-1.119-2.05-.984-2.37.212-.141.568.23 1.246.81 1.451.309.109.437.115.76.026Zm44.11 0c.275-.078.652-.379.774-.628.306-.608.038-1.42-.57-1.714-.428-.217-.978-.14-1.355.192-.582.511-.614 1.292-.07 1.835.339.333.754.448 1.22.314Zm-30.208-13.23c1.17-.595.748-2.36-.563-2.367-.799 0-1.419.787-1.221 1.547.211.788 1.074 1.185 1.784.82Zm16.485.056c.422-.159.786-.702.786-1.176 0-1.13-1.393-1.669-2.16-.837-.742.8-.186 2.084.894 2.084.167 0 .378-.032.48-.07Zm-13.742-2.883c.416-.102.806-.505.895-.915.205-.952-.64-1.758-1.566-1.496-.525.147-.915.684-.915 1.247.006.447.416.984.87 1.145.313.115.35.115.716.02Zm10.66-.058c.62-.166.96-.659.914-1.31-.02-.333-.057-.448-.223-.646-.282-.352-.557-.493-.978-.5-.448 0-.8.18-1.056.538-.175.236-.201.326-.201.697 0 .5.16.818.52 1.036.396.25.633.288 1.016.185Zm-14.49-1.323c.531-.32.73-.998.46-1.58a1.243 1.243 0 0 0-1.924-.435c-.62.52-.582 1.548.07 1.983.48.313.914.326 1.394.032Zm18.838.057c.499-.224.774-.722.723-1.292-.115-1.202-1.823-1.496-2.353-.415-.205.428-.167.965.102 1.298.384.486 1.004.652 1.528.41Z"/>
</svg>
