<svg xmlns="http://www.w3.org/2000/svg" viewBox="0 0 256 400">
	
		<rect width="100%" height="100%" fill="#000080"/>
		<!-- blue background -->
		<path d="M 0 200 L 0 227 L 125 227 L 127 141 Q 127 125 153 125
			Q 162 125 168 130 Q 189 142 216 142 L 216 133 Q 212 135 180 131
			Q 146 128 127 116 L 127 0 L 149 0 Q 152 72 193 So 74 Q 222 68 244
		    	so L 244 33 Q 244 20 227 o L 0 0 Z" 
		    	stroke="black"
		    	stroke-width="5"
		    	fill="#ffffff"/>
		<!-- White Union Jack-->
		<rect x="0" y="227" width="360" height="144"/>
    
    		<circle cx="190" cy="315" r="30"/>
    		<circle cx="170" cy="82" r="60" fill="#000080"/>

		<path d="M 88 4 L 100 20 113 8 130 8 133 22 145 25 154 32
			154 42 162 42 170 55 172 67 179 80 183 L 176 83 177 92 165 106
		    	169 116 169 120 160 129 160 136 152 147 160 155 160 166 160
		    	171 170 167 172 163 177 161 175 153 169 151 164 148 148 133
		    	131 132 127 139 123 156 115 172 112 171 98 167 93 165 86
		    	160 81 158 72 158 64 168 58 168 56 163 55 166 48 166 43 159
		    	37 152 32 147 28 146 24 L 98 13 98 4 Z" 
		    	stroke="black"
		    	stroke-width="2"
		    	fill="#da0000"/>
		<!-- red cross -->
		<path d="M 87 8 L 79 -1 70 6 79 14 89 14 89 8 Z M 110 14 L 4 14 L
			4 20 L 118 20 L 117 14 Z" 
		    	fill="#ffffff"/>
		<!-- star -->
		<path d="M 110 18 L 116 30 121 25 129 30 134 30 141 21 143 13 133 13
			L 126 8 132 8 127 0 110 18 Z" 
		    	fill="#ffffff"/>
		<!-- Star -->
		<path d="M31,67 C 19,67 \
			10,77 18,86 L 5,94 6,104 21,99 25,107 28,104 C 19,109 \
			13,108 \
			18,115 L 13,121 21,119 20,123 L 31,114 C 35,114 28,110 \
			31,113\
			34,110 C 31,107 41,109 43,104 37,106 33,103 18,115 L 34,108 C\
			38,106 39,104 41,9"
			/>
		<!--  grass -->
		<path d="M 130 137 L 133 144 134 137 L 135 149 136 145 140 154 140
		    	220 141 165 142 151 142 183 143 179 149 139 146 141 143 145
		    	144 136 146 142 147 139 152 157 152 162 156 168 163 179 158
		    	172 147 190 144 155 Z" 
		    	stroke="black"
		    	stroke-width="2"
		    	fill="#107730"/>
		<!-- green grass -->
		<path d="M 135 149 L 136 145 140 154 140 220 141 165 142 151 142
		    	183 143 179 149 139 146 141 143 145 144 136 146 142 147 139
		    	152 157 152 162 156 168 163 179 Z" 
		    	fill="#007700"/>
		<!-- darker grass -->
		<path d="M 140 221 L 143 182 144 171 146 140 143 151 Z" 
		    	fill="#005400"/>
		<!-- Even darker grass -->
		<path d="M 144 170 L 168 231 167 185 160 179 151 155 Z" 
		    	fill="#003800"/>
		<!-- Brown ground -->
		<rect x="12" y="254" width="380" height="94"/></svg>