<svg xmlns="http://www.w3.org/2000/svg" xmlns:xlink="http://www.w3.org/1999/xlink" viewBox="0 0 2040 1200">
	<path fill="#003893" d="M0 0h2040v1200H0z" stroke-width="2"/>
	<path fill="#fff" d="M0 600h2040v300H0z" stroke-width="2"/>
	<path fill="#cf2027" d="M0 700h2040v100H0z" stroke-width="2"/>
	<g fill="#f7d116" transform="matrix(2, 0, 0, 2, 765, 750)" stroke-width="2">
		<g id="d" stroke-width="2">
			<g id="c" transform="translate(0, -150)" stroke-width="2">
				<g id="b" stroke-width="2">
					<path id="a" d="M0-30V0h15" transform="rotate(18, 0, -30)" stroke-width="2"/>
					<use xlink:href="#a" width="100%" height="100%" transform="scale(-1, 1)" stroke-width="2"/>
				</g>
				<use xlink:href="#b" width="100%" height="100%" transform="rotate(72)" stroke-width="2"/>
				<use xlink:href="#b" width="100%" height="100%" transform="rotate(144)" stroke-width="2"/>
				<use xlink:href="#b" width="100%" height="100%" transform="rotate(-144)" stroke-width="2"/>
				<use xlink:href="#b" width="100%" height="100%" transform="rotate(-72)" stroke-width="2"/>
			</g>
			<use xlink:href="#c" width="100%" height="100%" y="300" stroke-width="2"/>
		</g>
		<use xlink:href="#d" width="100%" height="100%" transform="rotate(72)" stroke-width="2"/>
		<use xlink:href="#d" width="100%" height="100%" transform="rotate(144)" stroke-width="2"/>
		<use xlink:href="#d" width="100%" height="100%" transform="rotate(-144)" stroke-width="2"/>
		<use xlink:href="#d" width="100%" height="100%" transform="rotate(-72)" stroke-width="2"/>
	</g>
</svg>