<svg xmlns="http://www.w3.org/2000/svg" viewBox="0 0 42000 70000">
	<path fill="#ff4" d="M500 0h41000v70000H500z" stroke-width="1000"/>
	<path d="M500 0h41000v70000H500z" stroke-width="1000"/>
	<path fill="#ff4" d="M500 0h41000v10000H500z" stroke-width="1000"/>
	<path d="M500 1000h41000v8000H500z" stroke-width="1000"/>
	<path fill="#ff4" d="M500 60000h41000v10000H500z" stroke-width="1000"/>
	<path d="M500 61000h41000v8000H500z" stroke-width="1000"/>
	<path fill="#fff" d="M50006 15460v10497l11967 3511 3199-5515-4672-413 6510-6446-17004-1634z m0 17300v10495l8412 2488 2110-5875-6032 812 4190-6160-2610-2427-2610 2427-4189 6160 4952 6498z m0 17300v10495l2610 2427 2610-2427 2639-4374 2470-4243-760-717-2789 4253L60500 60820l-4445-4360-6049-6400z" stroke-width="1000"/>
</svg>