<svg xmlns="http://www.w3.org/2000/svg" viewBox="0 0 30000 18000">
	<g fill="none" stroke-width="10">
		<path d="M30000 0v18000H0L30000 0z" class="flag-boundary" stroke-width="10"/>
		<path d="M0 0v18000h30000L15000 2550z" class="flag-back" stroke-width="10"/>
		<path d="M3690 8520l650-1150h660l-1120 6940h490l1110-6750h710m-1400 6000h660l-1130 6940h630l1120-6940" stroke-width="10"/>
		<path d="M5890 6500v7060h630V6500m420 70l1070 7080c1550-1130 3850-3320 3850-3320s-920-1220-2280-3310" stroke-width="10"/>
		<path d="M8070 6770v6720h650V6770m500 110l980 6640h660l-980-6640" stroke-width="10"/>
		<path d="M9990 13400H8670l120 670h830m260-7180c570 30 1010 490 1010 960s-430 920-1000 960l260 650c530-40 960-450 960-920s-430-890-960-920" stroke-width="10"/>
		<path d="M10160 7840s-350 340-670 1080C7740 7850 7070 7320 6400 7320s-1300 390-3060 1610c-290-730-660-1070-660-1070s-330 2430-320 3880c10 3640 3520 6880 7440 6880 4650 0 7960-3500 8000-6900V7910" stroke-width="10"/>
		<path d="M10710 7080l510 2820h1530l-500-2800c1160-940 2280-1760 3140-2200z m610 6320H9990l130 670h830m4156-5754l930-89 534 3024 630-190z" stroke-width="10"/>
		<path d="M13380 8240s510 120 1870 860c-1630-410-2730-800-2490-950m732 44l1980 758z" stroke-width="10"/>
		<path d="M13562 8220c1362-438 1618-518 1650-544-44 54-1210 774-2348 1308 0 0 310-632 1882-1468z" stroke-width="10"/>
		<path d="M13660 8290l620-100c1170-170 3610-880 3730-400m-140 5610h-1330l130 670h830m4110-5550l650-1150h660l-1120 6940h490l1110-6750h710m-1420 6000h660l-1130 6940h630l1120-6940" stroke-width="10"/>
		<path d="M23620 6500v7060h630V6500m360 160l1070-170 3020 4750h-630" stroke-width="10"/>
		<path d="M26690 6490v580c-760-150-1480-250-2270-240v6720h650V6770m2770 110l980 6640h660l-980-6640m110 6520h-1320l120 670h830" stroke-width="10"/>
		<path d="M28500 6890c570 30 1010 490 1010 960s-430 920-1000 960l260 650c530-40 960-450 960-920s-430-890-960-920" stroke-width="10"/>
		<path d="M28780 7840s-350 340-670 1080c-1750-1070-2420-1600-3090-1600s-1300 390-3080 1610c-280-730-650-1070-650-1070s-870-2430-1070-3860c10 1630 1500 3070 3320 3830s3140 2450 3170 4060c10 1310 0 3220 0 3220m2620-8030s-130 610 1850 2200" stroke-width="10"/>
		<path d="M29330 7200s-180 390 1370 1300" stroke-width="10"/>
		<path d="M29330 7080l510 2820h1530l-500-2800c1160-940 2280-1760 3140-2200z m590 6320h-1330l130 670h830" stroke-width="10"/>
	</g>
</svg>