<svg xmlns="http://www.w3.org/2000/svg" viewBox="0 0 4200 2400">
	<g fill-rule="evenodd" stroke-width="100">
		<g fill="#fff" stroke-width="100">
			<path d="M0 0h4200v700H0z" stroke-width="100"/>
			<path d="M0 0h700v2400H0z m1400 0h700v2400h-700z m1400 0h700v2400h-700z" stroke-width="100"/>
		</g>
		<path fill="#F93" d="M0 0v330h700V0z m0 370h700v260h700V370H0z" stroke-width="100"/>
		<path fill="green" d="M0 0v1350h1400V0z m0 2310v-740h1400v740z" stroke-width="100"/>
		<g fill="#004da1" stroke="#000" stroke-width="80">
			<path d="M700 300v260h700V2100H700z" stroke-width="100"/>
			<path d="M300 1500h260v260H2100V1500z" stroke-width="100"/>
			<path d="M1057 1500h1100v913h-700V2080H300v330h257V1500z m-3-244a287 287 0 1 0 574 0 287 287 0 0 0-574 0z" stroke-width="100"/>
			<circle cx="700" cy="1500" r="700" stroke="none" stroke-width="100"/>
			<circle cx="700" cy="1500" r="629" fill="none" stroke-width="100"/>
		</g>
	</g>
</svg>