<svg xmlns="http://www.w3.org/2000/svg" viewBox="0 0 300 250">
	<rect width="300" height="150" fill="red"/>
	<rect width="300" height="100" y="150" fill="black"/>
	<g stroke="yellow">
		<path fill="saddlebrown" stroke-width="4.091" d="m-1061.017 49.73 544.597 5.105a12.361 12.361 0 0 1 12.389 12.389 12.361 12.361 0 0 1-12.415 12.388l-543.091 6.296c-6.863 0-14.455-14.53-14.455-21.394 0-6.863 6.084-14.784 12.948-14.784z" transform="matrix(.1289 -.1195 .10783 .1388 242.635 51.686)"/>
		<path fill="darkgray" stroke-width="4.091" d="M-525.723 92.085c4.007-3.455 8.217-6.753 9.303-12.473l-26.09.303c-11.23-10.835-9.475-18.62-3.253-25.357l29.343.277c-13.045-17.916-42.114-28.42-55.92-.524-3.248 8.789-2.783 17.438 1.87 25.928l8.545 10.784c-9.152 52.287-41.784 89.058-70.37 128.503l107.249 11.808-.677-139.25z" transform="matrix(.1289 -.1195 .10783 .1388 242.635 51.686)"/>
		<path fill="none" stroke-width=".718" d="M187.407 155.79c-1.027-8.286-1.49-16.98-5.963-24.777"/>
		<path fill="saddlebrown" d="M185.611 190.155c-1.18-.488-1.919-1.242-2.8-2.831l-.69-1.258-6.35-4.451a10846.5 10846.5 0 0 0-6.65-4.64c-.28-.188-.14-.408 1.88-2.987 1.2-1.542 2.24-2.768 2.3-2.753.08.032 3.65 2.768 7.96 6.102 5.176 4.027 7.991 6.29 8.337 6.763.928 1.258 1.21 2.8.755 4.105-.74 2.092-2.548 2.846-4.718 1.95Zm-1.21-7.25c.6-.41.37-1.321-.34-1.321-.36 0-.88.424-.88.739 0 .22.55.833.76.833.07 0 .29-.11.48-.251Zm-2.98-2.202c.394-.267.473-.833.174-1.132-.427-.425-1.386-.047-1.386.534-.001.236.549.85.754.85.064 0 .284-.11.473-.252Zm-2.877-2.611c.139-.188.249-.41.249-.471 0-.205-.612-.755-.848-.755-.58 0-.96.959-.532 1.384.298.298.865.22 1.132-.158Z"/>
		<path fill="darkgray" d="M142.755 160.069c-13.714-8.791-25.494-16.387-26.186-16.875-5.08-3.57-8.005-7.14-8.823-10.804-.377-1.715-.236-4.655.315-6.558.51-1.683 3.12-8.257 3.28-8.257.08 0 .13.126.13.283 0 .157.18.786.38 1.384 1.17 3.413 3.67 6.73 7.96 10.506 2.569 2.264 5.73 4.765 15.02 11.905 4.328 3.318 14.53 11.166 22.698 17.425 8.146 6.26 14.814 11.434 14.814 11.48 0 .048-.22.33-.486.615l-.457.519-.913-.692c-13.272-10.144-49.004-37.258-49.16-37.321-.254-.094-.662.378-.474.55.08.079 11.292 8.65 24.912 19.046 13.62 10.41 24.833 18.967 24.91 19.046.127.11-2.657 3.758-2.861 3.758-.063-.015-11.323-7.203-25.037-16.01Z"/>
	</g>
	<g fill="yellow">
		<path d="M143.425 92.065c.02-.07.55-1.682 1.16-3.583.622-1.902 1.162-3.583 1.212-3.733.09-.28.06-.31-3.162-2.702l-3.253-2.422 4.073-.05 4.063-.05 1.191-3.703c.66-2.032 1.211-3.743 1.23-3.803.011-.05.602 1.611 1.292 3.703l1.261 3.803 4.063.05 4.063.05-3.252 2.422c-1.931 1.44-3.243 2.482-3.213 2.552.28.76 2.432 7.536 2.413 7.566-.02.02-1.502-1.001-3.273-2.272-1.781-1.271-3.303-2.282-3.383-2.262-.07.03-1.541 1.061-3.263 2.302-1.731 1.241-3.172 2.252-3.202 2.252-.04 0-.05-.06-.02-.12Z"/>
		<path d="M180.626 82.1c0-1.114-.062-2.214-.18-3.298L185 76.98a34.637 34.637 0 0 0-1.212-5.29l-4.905.314a30.01 30.01 0 0 0-2.898-5.945l3.304-3.596a35.316 35.316 0 0 0-3.43-4.238l-4.298 2.385a30.718 30.718 0 0 0-5.209-4.115l1.398-4.66a35.396 35.396 0 0 0-4.936-2.356l-2.81 3.987a30.726 30.726 0 0 0-6.504-1.463l-.784-4.798a36.148 36.148 0 0 0-5.483 0l-.782 4.798a30.714 30.714 0 0 0-6.503 1.463l-2.81-3.987a35.362 35.362 0 0 0-4.936 2.356l1.4 4.66a30.718 30.718 0 0 0-5.21 4.115l-4.281-2.385a35.249 35.249 0 0 0-3.421 4.238l3.31 3.596a30.045 30.045 0 0 0-2.898 5.945l-4.907-.314a34.563 34.563 0 0 0-1.21 5.29l4.553 1.822a30.197 30.197 0 0 0 0 6.597l-4.55 1.823a34.638 34.638 0 0 0 1.21 5.288l4.907-.313a30.045 30.045 0 0 0 2.9 5.944l-3.305 3.598a35.343 35.343 0 0 0 3.423 4.237l4.279-2.385a30.715 30.715 0 0 0 5.21 4.115l-1.398 4.66a35.362 35.362 0 0 0 4.937 2.357l2.81-3.988a30.714 30.714 0 0 0 6.503 1.463l.782 4.798a36.186 36.186 0 0 0 5.48 0l.78-4.798a30.648 30.648 0 0 0 6.5-1.463l2.81 3.988a35.393 35.393 0 0 0 4.936-2.356l-1.399-4.66a30.633 30.633 0 0 0 5.21-4.116l4.277 2.385a35.36 35.36 0 0 0 3.425-4.237l-3.306-3.598a29.978 29.978 0 0 0 2.902-5.944l4.903.313c.538-1.71.944-3.477 1.213-5.288l-4.554-1.823c.118-1.083.18-2.184.18-3.299Zm-30.625 26.38c-14.725 0-26.663-11.811-26.663-26.38 0-14.567 11.94-26.38 26.663-26.38 14.726 0 26.664 11.813 26.664 26.38s-11.938 26.38-26.664 26.38Z"/>
	</g>
</svg>
