<svg xmlns="http://www.w3.org/2000/svg" viewBox="0 0 1000 500">
	<path fill="#006" d="M0 0h1000v500H0z"/>
	<path fill="#BD1021" d="M0 250 1000 0v500L0 250z"/>
	<path fill="#FFF" d="M107.14 250 1000 26.79v446.42"/>
	<path d="M766.471 277.926c6.665.512 6.437 7.12 6.437 7.12l23.602.526c3.019-8.229 6.152-7.276 11.886-3.212 5.448 3.861 11.393 5.585 11.393 5.585 2.279-11.81 19.026-9.422 19.026-9.422 7.14-17.054 7.747-16.827 3.494-18.987-4.26-2.16-5.99-5.814-5.99-5.814-4.045-4.873-6.172-11.922-6.628-16.246-.456-4.324-5.47 2.164-6.381.799-.911-1.364-8.355-.568-8.355-.568 1.823 1.933-4.405.796-4.405.796.608.455 0 2.274 0 2.274-.608-.796-5.317-1.592-5.317-1.592-.456 1.023-1.52 2.16-1.52 2.16-2.581-1.137-7.746-.91-7.746-.91-7.595-.114-12.152 2.274-14.279 3.525s-9.722 5.116-15.95 11.142-9.722 5.344-9.722 5.344c-1.823 6.708-16.71 14.894-16.71 14.894-2.43 2.16-9.872 3.183-13.67 0s0-8.868 0-8.868c1.406-2.658 2.8-2.548 2.954-11.77.106-6.236 6.543-11.182 13.15-18.43 8.078-8.861 19.368-23.45 19.368-23.45.057 4.478 2.506 5.203 2.506 5.203 2.222-4.562 5.412-8.23 5.412-8.23.171.385.627.64.627.64 2.506-3.41 4.044-4.774 4.044-4.774-.854-.341-7.861 0-14.412 5.713-6.551 5.713-11.051 3.795-11.051 3.795-4.557-1.45-4.956-4.946-4.956-4.946-3.327-14.317 9.74-24.558 9.74-24.558-17.544-4.178-4.898-26.434 16.862-35.9s21.532-13.728 21.532-13.728c1.253 1.45 2.279 4.008 2.279 4.008.228-.171 1.823-2.558 14.355-8.101 12.532-5.543 18.57-10.318 18.57-10.318 1.595 3.07 1.253 5.287 1.253 5.287 34.292-12.023 68.072-39.608 68.072-39.608.968 2.302.456 5.798.456 5.798 5.582-5.16 25.748-17.182 25.748-17.182.342 7.68-5.98 10.62-5.98 10.62.683 1.11 1.081 3.118 1.081 3.118 3.304-1.791 18.684-12.535 18.684-12.535 5.641 4.86.514 12.833.514 12.833 1.994-.298 3.475-2.046 3.475-2.046 1.424 8.27-7.747 15.562-7.747 15.562 1.594.043 4.271-1.535 4.271-1.535-1.708 9.039-18.854 19.058-18.854 19.058 2.506 2.217.114 5.159-1.937 6.48s-5.696 4.22-4.557 5.415 8.716-4.136 8.716-4.136c1.31 3.795-8.43 11.256-8.43 11.256 6.778.895 25.633-7.674 25.633-7.674-1.538 7.29-8.659 12.96-17.43 16.244-8.774 3.283-8.318 3.795-8.318 3.795 1.538 1.237 13.671-2.301 13.671-2.301-3.648 8.142-16.294 13.728-16.294 13.728 3.475 2.942 8.203-.47 12.931-3.71s11.164-6.01 18.284-8.397c7.121-2.388 12.133-.597 12.133-.597 5.924-1.875 10.937.768 10.937.768 11.393.938 12.532 5.074 12.532 5.074 1.253.298 2.222.81 5.127 2.942s2.734 8.739 2.62 11.979c-.114 3.24-1.025 3.24-1.595 4.137s-.627 1.919-.627 3.155-2.848 8.91-20.45 8.996c-17.6.085-26.677 0-26.677 0-1.453 0-3.19.853-3.19.853-7.404 3.667-3.493-2.501-12.303 4.747-8.81 7.248-13.292 5.997-13.292 5.997-1.443 1.734-10.67 10.318-15.95 13.729-5.279 3.41-4.329 3.098.266 5.088s11.545 0 11.545 0c-4.443 2.956-1.367 4.32-1.367 4.32 5.847-3.553 9.38-2.245 9.38-2.245 1.86 5.088-4.824 13.132-4.824 13.132 2.582.34 7.443 0 7.443 0-1.177 3.439-6.038 7.22-9.608 8.385-3.57 1.167-2.925 1.62-1.86 3.78s.15 4.35.15 4.35c-6.228-4.32-6.456-.454-6.456-.454-.719 5.12-.608 12.45-.608 12.45-4.406-2.217-4.634.739-4.634.739-1.138 4.66-6.53 10.063-6.53 10.063-.229-2.9-2.887-3.638-2.887-3.638-2.81 5.4-7.975 8.64-7.975 8.64-.684 4.663.608 11.2.608 11.2-3.342-.681-4.557-.624-5.09.17s.76 1.196.76 1.196l43.522 1.08c.608.057 3.19.34 3.266 5.059.076 4.718-3.798 4.946-3.798 4.946l-47.622-1.138s.228 1.307-2.28 2.615-1.67-1.478-2.354 4.377c-.682 5.855-10.176-.455-10.176-.455-1.52 2.274-5.24 5.23-5.24 5.23-2.128-6.425-4.33-8.414-7.748-2.843s6.152 4.605 6.152 4.605 55.9-8.243 58.94-8.527 6.38-.114 7.746 4.15-6.76 4.946-6.76 4.946l-57.344 6.253c-1.215 3.41-6 3.127-6 3.127.38 3.24-3.038 5.287-4.785 6.48-1.748 1.195-7.216.626-7.216.626-6.684 4.548-9.95.966-9.95.966-4.329 1.876-7.063 1.08-10.632-.455-3.57-1.535-3.266-5.855-3.266-5.855l-36.19 3.752a8.752 8.752 0 0 0-2.888 1.734c1.29 1.651-2.592 5.481-2.592 5.481 1.082.743 3.16 2.832 3.446 7.352.3 4.78-5.84 5.585-2.763 8.91s8.687.577 14.953-2.43 12.418-2.62 15.095-2.6c2.676.02 10.14 1.898 14.78 3.54 4.644 1.64 6.24.66 6.55-1.727s2.395-3.07 2.395-3.07c-.57 2.345.685 3.39.685 3.39 1.794.128 4.927-1.62 4.927-1.62-.285 1.727-2.563 2.814-2.563 2.814-4.557 3.046 1.71 1.918 1.71 1.918 12.473-2.56 16.916-2.303 20.163-1.962s18.57 6.864 18.57 6.864c.57-1.535.17-5.33.17-5.33 3.93 1.067 5.524 3.327 5.524 3.327 1.48-1.62.513-4.35.513-4.35 12.646 7.08-2.62 10.277-6.665 11.641-4.044 1.364-3.987 3.027-3.987 3.027 3.36-1.067 5.696-1.45 8.488-1.664 2.79-.213 1.823-.043 8.488-1.364 6.665-1.322 10.083 1.492 10.083 1.492-5.58.298-7.233 1.961-7.233 1.961 3.532 2.43.17 4.475.17 4.475-5.07-6.395-9.398.256-9.398.256 1.737-.255 6.836.811 8.288 1.728 1.124.71 3.76 2.004 7.035 3.517 4.625 2.137 3.76.767 7.348 2.132s2.222 4.818 2.222 4.818c-1.538-2.814-4.842-3.795-4.842-3.795-.285 3.795-4.1 4.434-4.1 4.434 4.67-5.202-5.413-7.46-10.14-7.376s-8.26 3.111-8.26 3.111c9.512 8.91 16.12 6.011 16.12 6.011-1.196 3.24-9.057 1.961-9.057 1.961 3.646 2.771 3.247 4.733 3.247 4.733-1.937-1.876-5.127-.938-11.962-5.372s-12.93-2.984-12.93-2.984c6.664 7.12-2.45 11.341-2.45 11.341-3.36 1.92 1.424 4.52 1.424 4.52-4.215.766-4.785-3.454-4.785-3.454-2.222-.426-5.412 2.26-5.412 2.26.23-4.349 5.925-2.174 6.096-6.694s-5.298-8.015-21.42-5.798-20.848-2.942-20.848-2.942c-1.367.043-1.652 1.407-1.652 1.407 2.677 2.56 3.874 3.626 3.418 5.417-.456 1.79.854 2.388.854 2.388-2.962-.17-3.19-3.71-3.19-3.71-.056 1.45-.683 1.58-1.65 3.113-.97 1.535-.059 3.496-.059 3.496-1.253-1.11-3.532-2.43-1.367-5.585 1.667-2.43-3.475-5.543-3.475-5.543-1.994-2.046-7.29-.128-7.29-.128-10.995 2.174-17.432-4.775-17.432-4.775-1.253 0-3.646-.682-3.646-.682-11.622 5.206-21.818-6.049-21.818-6.049-8.772 1.662-12.76-2.559-15.437-6.695-2.677-4.136-3.19-4.477-6.722-6.608-3.532-2.132-6.833-8.163-3.59-11.34 2.83-2.772 1.995-3.412 1.995-3.412-4.557-7.66 8.127-10.13 8.355-11.964.332-2.675 2.98-4.366 5.83-4.537 2.847-.17 2.847.084 4.727-1.834s5.47.471 5.47.471c.74-.556 7.006-5.417 12.588-2.9 5.583 2.515 10.197.724 10.197.724 3.93-.853 36.57-5.287 36.57-5.287 2.11-3.155 3.59-6.95 12.59-8.996 9-2.046 15.836-7.632 15.836-7.632-1.595-1.705-4.272-1.62-5.64-1.79-1.366-.172-4.214-2.602-4.214-2.602-1.652.725-2.5.37-14.298 7.546-10.538 6.41-10.842-6.309-10.842-6.309l-22.994.042c-.4 4.86-4.1 6.78-4.1 6.78l-8.374.425c-4.67-2.473-4.727-10.7-4.727-10.7-25.292.383-39.362 9.421-39.362 9.421-28.655-14.667-51.099-17.992-51.099-17.992 34.805-3.793 53.204-13.47 53.204-13.47 19.198 11.511 37.256 11.81 37.256 11.81.685-6.95 5.356-8.656 5.356-8.656l5.296.288z"/>
	<path fill="#FFC221" d="M725.09 335.68c-7.273 4.265-5.958 6.594-5.325 7.904.646 1.336.721 2.615-1.253 4.605-1.975 1.99-1.785 2.681-1.785 2.681.304 7.069 5.311 8.57 7.399 10.304 1.749 1.452 4.715 6.002 4.715 6.002 3.722 5.344 7.671 5.4 10.595 5.4s2.664-.248 1.177-1.563c-1.398-1.237-4.329-3.638-4.329-3.638 3.911 1.364 7.633 5.457 7.633 5.457 7.39 8.086 14.203 7.021 17.203 6.623s2.468-2.132 2.468-2.132c-.158-.288-3.076-.512-3.076-.512-11.089-1.052-14.43-8.328-14.43-8.328 6.683 6.566 17.164 7.902 20.392 7.781s3.038.803 2.354.974-1.67 0-3.152-.114-1.48.256-1.139.881 1.737.689 3.503.625.342.128 4.927 3.688c4.586 3.56 16.007.682 16.007.682-7.377-1.833-8.402-5.159-8.402-5.159-10.026 1.172-14.099-4.839-14.099-4.839-1.794-1.791-7.15-4.56-7.15-4.56-5.667-2.432-6.55-7.56-6.55-7.56 1.595 2.27 4.7 4.872 8.63 5.959s5.041 1.663 5.041 1.663c-1.88.277-2.99-.341-2.99-.341-3.932-1.151-1.71.448-1.71.448 4.33 3.453 5.526 3.198 5.526 3.198 11.364 1.172 5.725-3.368 5.725-3.368 8.09 1.919 9.428-1.109 9.428-1.109 1.68 3.56 7.804 2.281 7.804 2.281-8.146 3.922-1.965 2.802-1.965 2.802 8.231-1.544 9.845.552 9.845.552 2.228 2.072 4.481 1.784 4.481 1.784s1.481.043 4.614.67 7.918 3.295 12.475 2.731 5.298.866 5.298.866c-.854-.295-2.848-.6-6.38.978s-9.627 2.09-18.513 0-9.57-1.833-9.57-1.833c2.108 1.577 3.987 3.795 4.386 5.329s1.937 1.62 1.937 1.62c.627-1.961 3.304-2.814 3.304-2.814 1.753 1.62 6.437 3.752 6.437 3.752.513-1.066 0-1.812 0-1.812 3.418 3.262 7.405 2.281 7.405 2.281 1.081-.765.741-2.601.741-2.601 1.367-.043 1.595.81 2.563 1.45s4.044.213 4.044.213c-1.139-.469-1.937-2.217-1.937-2.217 4.5-3.112 14.24-1.748 14.24-1.748 7.036 1.236 6.153 5.841 6.153 5.841 1.424.682 3.304 2.814 3.304 2.814.598-1.62.057-3.262.057-3.262 3.219 1.535 3.902 5.287 3.902 5.287 3.731-4.264-3.56-9.06-3.56-9.06 3.532-.448 7.434-.128 9.798.213s5.753 1.578 8.516 3.88 7.719 3.368 7.719 3.368c-.152-.95-2.79-2.558-3.389-2.899s-.854-1.172-.854-1.172c2.421.426 4.101.213 4.101.213-8.516-5.202-10.652-7.674-10.652-7.674 3.19.405 4.956-1.578 4.956-1.578-6.722.15-6.95-1.599-6.95-1.599.826.234 3.874.981 7.89.192s9.598.021 9.598.021c-2.905-4.669-14.156-3.88-17.744-3.688s-4.984-.277-4.984-.277c.57-.277 1.168-.874 3.987-.895 2.82-.02 5.582.213 8.772-1.983s7.567-1.47 7.567-1.47c-1.063-2.104-6.114-2.843-10.557 0s-8.47 1.932-8.47 1.932c7.027-.995 9.077-3.468 9.077-3.468-2.127-.512-3.304.171-7.52.995s-5.354-.625-5.354-.625c4.633-2.757 7.86-3.866 7.86-3.866-3.948-.824-7.594-2.51-7.594-2.51-4.101 3.857-7.291 6.034-15.152 1.913s-11.962-3.638-11.962-3.638c6.912-4.093 14.013-2.33 19.178.767s6.646.568 6.646.568c-1.633-1.023-1.405-1.904-1.405-1.904 12.532 6.395 17.963 2.416 20.735.54s-1.253-4.377-1.253-4.377c-.266 4.065-5.393 5.912-9.418 4.548s-7.747-3.098-13.538-5.514-13.045-1.165-19.805.256-7.633.74-8.241.2-.95-2.19-4.405-.768c-3.456 1.421-11.507-2.359-16.52-3.553s-13.22-.54-20.317 3.354-10.595 2.928-12.722 1.961-3.456-3.638-1.177-6.026 2.468-3.04 2.279-6.48c-.19-3.44-3.57-5.487-3.57-5.487 3.114-3.212 3.874-3.922 2.81-5.315-1.063-1.393.608-1.364 2.393-2.16s.987-.91.57-1.96c-.418-1.053-1.443-.882-1.443-.882-4.14.171-6.418-.966-6.418-.966-6.855-3.155-13.216 2.984-13.216 2.984-3.894-2.983-4.785-1.052-5.47-.313s-2.05 1.251-3.873 1.421c-1.658.155-4.164.804-5.033 2.353 0 0-.768 1.245.19 2.608 0 0 1.064 1.605-.872 3.544-1.937 1.94-2.62 2.41-2.022 4.242s.427 3.24-.313 4.434c0 0-.883-1.023-.655-2.28s.228-1.984-.057-2.666c0 0-1.908 1.876-2.25 3.22 0 0-.797-2.069 1.965-4.84s4.02-4.15 3.247-5.223c-.57-.789-2.591.488-3.077.773z"/>
	<path d="M732.94 366.24s-3.456-2.643-3.038-6.31.348-4.121-.035-4.889c0 0-.63.365-.61 1.791.017 1.338-.173 2.729-.305 2.984 0 0-1.785-3.041-2.506-3.61 0 0 .608-3.183-.38-4.548-.987-1.364-1.943-1.45-3.076-1.023-1.568.59-2.752 2.047 2.517 6.367 0 0 1.964 1.563 3.332 5.03 1.367 3.469 3.646 4.009 4.101 4.208zm17.128-10.147s-.266-2.075 1.595-5.742.745-6.391.327-7.301-.669-.572 1.208-2.148c2.31-1.939-.89-4.387 2.908-7.787 0 0 2.506-2.149 3.076-3.03 0 0-4.025 2.16-6.646 3.24-2.62 1.08-12.646 5.997-10.443 9.294s1.975 3.468 1.633 4.832c0 0-5.962-3.155-3.874-8.271 0 0 .947-2.061 3.456-4.377 2.28-2.103.911.455 5.544-2.189 0 0 3.684-2.189 5.62-5.145 0 0-2.43 1.535-3.304 1.791 0 0-5.355.966-7.519 3.24-2.165 2.274-6.76 6.225-5.203 10.63 0 0-5.355-.654-6.57-6.225 0 0-9.912 12.222 10.9 17.907 0 .002 3.798 1.01 7.292 1.28z"/>
	<path fill="#FFC221" d="M841.606 315.23c7.772-1.175 52.815-7.982 56.908-8.397 4.481-.455 6.197-1.053 7.671 2.558 1.671 4.093-6.152 4.15-6.152 4.15l-53.699 6.088c-2.634.304-3.223-.701-3.223-.701-.465-.858-1.363-2-1.982-2.748 0-.001-.707-.771.477-.95z"/>
	<path fill="#5A3719" d="M731.61 339.66s-5.81 12.236 17.032 15.263c0 0 .057-1.364.968-3.283s2.905-5.798 1.025-8.314 1.538-1.194 2.051-4.477-.342-2.825 1.253-4.957c0 0-7.18 2.6-9.92 5.757-2.736 3.155 3.701 5.543-.116 8.996 0 0-3.19-1.15-5.07-4.604.003 0-4.44.087-7.232-4.39z"/>
	<path d="M753.94 354.69s5.639 4.882 12.361 4.669 9.57-2.004 11.279-4.669c0 0 1.307 2.065 1.31 3.432 0 0 5.81-4.818 15.836-.64s6.95 3.03 9.171 3.327c0 0-4.262-.758-14.013 3.708-10.025 4.592-36.172 3.027-35.944-9.827z"/>
	<path fill="#5A3719" d="M744.597 333.096s2.535.384 5.07-2.473c0 0-3.418.64-5.07 2.473zm-19.155 22.725s-4.713-3.709-1.694-4.434c0 0 2.15-.341 1.694 4.434z"/>
	<path d="M828.049 379.017s2.506-4.48 9.741-4.48 8.089 3.326 17.203 3.965c0 0-10.944 3.084-18.57.256-3.987-1.478-7.576-.25-8.374.259z"/>
	<path fill="#5A3719" d="M756.446 357.952s10.823 6.566 20.45-.554c0 0 .798.767 1.481 2.515 0 0 7.291-7.036 20.336.554 0 0-1.603-.178-7.747 2.473-8.004 3.454-28.026 5.714-34.52-4.988z"/>
	<path d="M798.2 364.604s10.367 1.202 19.14.682c5.39-.319 11.222-1.306 8.317.52-2.905 1.825-1.481 1.996 10.937.845s-.114 2.345 8.431 3.453c0-.001-20.71 10.573-46.825-5.5z"/>
	<path fill="#5A3719" d="M825.429 357.995s6.095-2.217 11.735.426c5.639 2.643 4.785 2.857 8.545 3.24 0 0-2.62 3.752-8.829.725-6.21-3.027-7.855-3.611-11.451-4.391zm6.779 18.717s5.98-2.983 12.591.118c.827.388 2.631 1.137 4.327 1.502 0 0-5.065 1.57-10.254-.043-2.157-.67-3.873-1.193-6.664-1.577zm-29.565-10.702s13.33 1.236 20.564-.205c0 0-8.374 4.042 12.646 2.166 0 0 4.67-.512 4.1.213s-.91 1.279 1.368 1.961c0 .001-15.607 6.993-38.678-4.135z"/>
	<path d="M736.05 354.69s.114 1.023 3.076 2.345 4.557 3.688 5.184 4.967 2.136 3.193 4.586 3.803c0 0-10.45 2.181-15.133-3.255 0 0-3.551-3.916 2.174-7.86"/>
	<path fill="#5A3719" d="M818.31 378.8s-4.158-.256-9.798-2.217c-5.639-1.961-7.121-.298-10.31-2.686-3.19-2.388-9.627-.895-10.823-.725-1.196.171-4.614 0-.342-2.771 0 0-3.418-.085-4.728-1.791 0 0-1.54 1.492-7.3.938 0 0 2.562 4.026-7.748 2.866 0 0 3.076 3.572 6.78 4.297s5.247.485 7.633-.213c0 0-.685 3.112 4.1 4.306s5.753 2.132 8.203 3.112c0 0 .342-2.004-6.038-6.651 0 0 3.418-.171 8.317 1.023 4.897 1.194 16.005 4.051 22.044.512zm2.582 4.775s1.025 2.388 4.177 1.848 8.325-1.464 13.338 1.094c0 0 .854-4.264-9.21-4.562-.001 0-6.304.341-8.317 1.62zm-85.218-27.372s-3.874 3.183-.361 6.495c3.209 3.025 8.165 2.757 10.538 2.672 0 0-1.424-.81-2.677-2.686s-1.296-3.144-3.931-4.349c-2.734-1.25-3.057-1.577-3.57-2.132zm-4.064-16.542s-5.81 12.24 17.032 15.27c0 0 .057-1.362.968-3.281s2.905-5.797 1.025-8.313 1.538-1.194 2.051-4.477-.342-2.815 1.253-4.947c0 0-7.18 2.6-9.92 5.756-2.736 3.155 3.701 5.543-.116 8.996 0 0-3.19-1.151-5.07-4.605.003 0-4.44.087-7.232-4.39z"/>
	<path d="M791.65 367.89s4.785-.767 16.975 3.795 17.26 3.411 19.083 3.283c0 0-6.876 3.592-17.526-1.097-9.417-4.147-10.044-2.57-18.532-5.98z"/>
	<path fill="#FFC221" d="M867.962 365.158s2.783-.095 4.405.668c0 0 1.063-.91 3.608-1.18 0 0-1.671-1.677-8.013.512zm-8.335-6.75s2.791-.128 3.627-1.464c0 0-1.405-1.791-3.551-2.643 0 0 .436 1.904-.076 4.107zm-93.668-31.153s-.513-1.364 2.392-1.791c2.905-.426 40.881-5.841 40.881-5.841s2.013-.003 2.298 1.322c.308 1.432-.228 2.503-9.399 3.575s-33.381 4.099-33.381 4.099-2.564.427-2.791-1.364z"/>
	<path fill="#FFC221" d="M803.004 325.621s0 5.372 5.469 6.168c5.306.772 7.13-.331 8.545-3.125.371-.734 1.999-6.343-.357-6.771-.926-.168-2.569-.072-3.744.43-1.83.782-3.528 1.698-2.924 2.615 1.291 1.961 1.543 2.416 1.063 2.558-1.312.389-2.277-.764-2.544-1.563-.333-.996.723-1.637-2.848-1.109-1.46.216-2.66.171-2.66.797z"/>
	<path fill="#FFC221" d="M825.752 321.491c2.794.322 2.582 6.233-.76 8.905-3.599 2.877-7.033 1.848-7.033 1.848-1.816-.767-1.588-.512-.183-2.643 1.33-2.018 1.957-4.734 1.215-6.623-.237-.604.418-1.094 1.345-1.293.002-.001 2.53-.527 5.416-.194z"/>
	<path fill="#FFC221" d="M828.182 322.011s1.994 2.509-.495 7.134c0 0-1.1 1.364 1.368 1.165s7.975-2.842 7.405-6.225c0 0-.19-.824-1.633-.739-1.443.085-.266-.796.342-.966s2.487-.867-2.392-4.008c0 0-.805-.725-1.747-.426-.744.236-3.343 1.302-3.343 2.814.001.62.495 1.251.495 1.251z"/>
	<path fill="#FFC221" d="M833.518 317.761s3.893 2.79 3.874 3.619c-.019.83-.361 1.952.665 1.853 1.025-.099 5.241-.995 4.082-3.78-1.158-2.786-2.317-3.766-4.272-4.448-1.956-.682-2.449.242-4.12 1.506-.001.011-1.216.75-.229 1.261zm-21.058 3.937s.646-2.075-2.848-2.842c0 0 1.481-1.222 4.443-.568 2.942.65 2.628 2.587 2.605 2.842 0 0-2.3-.086-4.2.568zm7.596-.483s4.048-.709 5.848-.483c0 0-1.994-4.462-7.386-2.942 0 0 1.936 2.189 1.538 3.425zm6.93-1.109s0-1.364 3.437-2.729c0 0-1.668-1.57-3.987-1.42-2.658.17-3.19 1.136-3.19 1.136s2.886 1.002 3.74 3.013zm1.348-4.66s2.127.54 3.456 1.676c0 0 2.016-2.2 3.722-2.672 0 0-3.342-1.79-7.178.995z"/>
	<path fill="#5A3719" d="M716.514 304.701s9.383-7.95 14.64-6.992c5.256.957 2.62.298 8.374-.597 5.753-.895 11.678-1.492 14.07-1.194 0 0-6.95-4.988-19.368-4.903 0 0-8.772 3.027-14.811 7.035 0 0-11.621-6.481-23.64-2.601 0 0 13.045 4.732 20.735 9.252z"/>
	<path fill="#FFC221" d="m816.286 318.472 1.566-.263s2.644 3.274.723 3.311c-1.501.03-.894-.462-1.178-1.414-.285-.952-.797-1.378-1.111-1.634zm-11.791.256s-.94 1.169.826.895c2.15-.333 1.737.072 4.1-1.528 0 0 1.454-1.542 4.159-.582 0 0 2.279.746 4.13-.15s2.279-.83 3.275-.745c.997.085.93.3 2.26-.671 1.329-.971 3.636-.225 5.089-1.44 1.453-1.215 3.275-.192 0-2.537 0 0-.684-.682-.627-1.258 0 0 1.253.362 2.25 1.258.997.895 2.649.618 2.934.469 0 0 .171-2.921 3.076-5.607 2.905-2.686 2.934-2.9 1.225-2.921-1.709-.021-4.586-.682-5.554 0s-9.485 6.267-14.44 7.205c-4.956.939-9.513 2.346-12.703 7.612zm-132.242-30.555s15.209 3.922 18.627 5.57c0 0 .816-2.543-6.095-4.533 0 0 16.785-.512 34.558 7.56 0 0 8.567-7.344 36.137-5.07 0 0 .054-2.435.244-4.308 0 0-19.368-.568-37.141-11.37 0 0-15.911 7.83-46.33 12.152zm84.534 7.347c-1.063-15.548 4.899-16.94 4.899-16.94s2.808.016 5.848.483c0 0-4.71 5.599-3.456 16.713 0 0 .494 1.79-3.494 1.79-3.924 0-3.797-2.046-3.797-2.046z"/>
	<path fill="#5A3719" d="M760.85 305.81s-2.886-2.956-3.19-6.367c0 0-.076-.881 2.848-.796s3.306-.281 4.025 1.421c.7 1.655 2.544 5.145 3 5.543l-6.683.199z"/>
	<path fill="#FFC221" d="M767.096 298.048a36.973 36.973 0 0 1-.321-5.91c.19-8.669 1.629-7.899 2.199-6.818l2.966.054s-2.165-9.778-4.71-4.065c-2.5 5.612-2.316 9.266-2.012 13.7.175 2.554.512 4.144.797 5.1l1.081-2.072z"/>
	<path fill="#5A3719" d="M800.593 298.071s5.725.874-3.048 2.963c0 0 .427 10.6 10.795 3.176 0 0 6.124-3.915 10.367-5.507 0 0 2.136-.739 1.88-2.338 0 0 .17-1.883-2.051-1.514 0 0-1.75.041-2.877-.37 0 0-1.225-1.442-2.051-.888s-2.763.234-1.253 2.068c1.51 1.833 1.965 1.364 2.706.831.74-.533 4.016-1.833.997.874s-5.383-1.492-6.352-2.26l-9.113 2.965zm-28.653 1.201-2.544-.057s-1.367 2.047-2.3-1.167l-1.08 2.06s3.152 11.382 5.924-.836z"/>
	<path fill="#FFC221" d="M768.332 286.14s-1.291 7.447.342 12.052l27.533.512s-.342-5.344.076-12.563h-3.911s-.532 5.997-.038 9.692l-.645.013s-.494-5.186.037-9.705h-3.228s-.532 5.543-.114 9.749h-.608s-.456-4.86.076-9.749h-3.19s-.586 5.031.041 9.691l-.762-.015s-.646-5.088.038-9.664h-3.532s-.873 4.69-.038 9.721h-.722s-.797-4.804.076-9.72h-3.532s-.835 5.315-.114 9.721h-.684s-.57-5.145.19-9.72h-3.304s-.88 4.49-.16 9.72h-.724s-.532-3.893.152-9.72h-3.265zm29.09 13.587s-.762-13.474 1.823-16.94c2.585-3.466 3.114-2.786 7.519 0 4.405 2.785 10.102 5.798 11.013 6.139.911.341 2.203.682 2.203 3.127s.456 3.183-3.342.114c-.569-.46-2.345-2.085-3.627-2.494-3.403-1.086.818.762 2.032 2.494 1.03 1.468 1.823 1.307-.835 1.99s-11.849 3.751-16.786 5.57z"/>
	<path d="M807.06 290.08s-1.994-2.519.541-3.095 2.734 3.986 3.161 6.736c.428 2.75-3.189-2.78-3.702-3.641zm-3.702 11.742s-2.962 1.087-1.025 2.046 7.405-3.581 5.526-3.283c-1.881.299-4.501 1.237-4.501 1.237zm4.016-4.157s2.62-.256 2.108.874c-.513 1.13-1.453.41-1.851.16-.4-.25-2.251-.89-.257-1.04z"/>
	<path fill="#FFC221" d="M821.328 294.141s.703 5.13 5.108 6.431c0 0 2.544.632 2.013-1.613-.011 0-.448-1.876-.808-2.658-.36-.782-2.126-1.279-2.316-1.364s-.418-.625.798-.227c1.215.398 1.405.441 1.31-.412-.094-.853-.81-.51-1.925-1.055-.43-.21.046-.494.502-.394.456.1 1.538.426 1.557-1.336 0 0 .24-.98-1.101-1.052-1.462-.067-1.348-.72-.892-.82.458-.1 1.988.96 2.41-.783.44-1.79-2.105-.76-1.763-1.684s2.145.528 2.295-.568c.145-1.066 1.602-1.53-.88-1.874-1.176-.163-.088-.685 1.234-.499 1.415.199 2.269-1.55 3.086-2.118.816-.568 5.429-3.325-.722-2.416-6.153.909-7.956 3.894-8.355 4.49-.401.596-2.11 4.12-1.56 9.96z"/>
	<path fill="#FFC221" d="M835.661 298.117c.791-.152 1.538.063 1.807.614 1.013 2.078-1.31 1.336-2.601 2.871s-1.329 1.222-3.152.685c-1.823-.537-2.506-3.3-2.506-3.3-.215-.848.573-.92 1.517-.812 0 0 3.023.309 4.925-.058zm-6.662-1.105s.128.622 1.172.707c1.044.085 4.078.348 5.882-.234 0 0 .665-.131.366-1.306 0 0-.024-.77-1.648-.46s-3.973 0-4.756-.17c-.783-.17-1.42.011-1.016 1.453zm-.247-3.723s-.057 1.62 1.576 1.833c1.633.213 3.666.205 4.513.038.646-.128 1.81-.364 1.905-1.317.095-.952.361-1.663-1.652-1.165-2.013.497-4.443.171-4.69.114-.247-.057-1.614-.47-1.652.497zm.741-3.269s-.4.739-.342 1.45c.057.71 1.234.952 3.361.98s4.025-.283 4.158-.994c.133-.711.646-1.535-1.025-1.28-1.671.257-3.779.328-4.614-.013-.836-.342-1.398-.46-1.538-.143z"/>
	<path fill="#5A3719" d="M907.571 298.263s-.028 1.482 1.139 2.942l-59.029-1.695s.862-.533 1.082-2.832l56.808 1.585z"/>
	<path fill="#FFC221" d="M829.967 287.576s-.513 1.492.551 1.791c1.063.298 2.886.625 5.298.242 0 0 1.215.08 1.633-1.21s.37-.57-3.06-1.25c0 0-1.08-.32 2.05-.33 0 0 1.741.052 2.01-.24.263-.3 2.58-2.13-.42-2.02-3 .11-1.52-.53 0-.53s1.993.313 2.486-.17c.494-.484.038-.157-.779-.982-.816-.824-.247-.583.342-.128s.95.597 1.614.014c.664-.583-.514-1.435 0-1.336.512.1.76 1.073 2.695.135s4.557-.448 5.27.085c.711.534 2.733 1.216 3.958-.042s-1.453-2.28-.313-2.452 1.937.234 2.393-.682c.455-.917-1.767-1.79.37-2.366 2.135-.577.341-6.567-.4-7.12 0-.002-2.392 1.405-5.013 5.647s-4.158 6.715-7.719 5.415c-5.136-1.877-7.76.82-8.556 1.306-1.232.753 2.575 1.123.354 1.165-2.222.043-2.222.234-2.449.576-.229.341-.03.64.37.661.4.021 1.252.874-.115.831-1.367-.043-2.336-.256-1.934 1.197 0 0 .025.317.823.402.798.085 1.083.917-.398.917-.95.002-1.045.37-1.073.464zm5.459 14.801s-1.054.746.399.831 2.222.362 2.677-.416c.456-.778 2.421-.458 1.111-1.546-1.31-1.086-2.193-.468-4.187 1.131z"/>
	<path fill="#FFC221" d="M841.52 284.62s4.915-4.626 9.023-1.492 4.506 3.603 4.563 3.667.484.405-.627 1.386-.029.959 1.196.362 1.31-.043 1.908.618 1.398 1.045-.497 1.066-5.968 0-5.968 0-2.763.234-1.367-.895c1.396-1.13 1.196-2.473.484-2.558s-.057.682-.484 1.215-1.396 1.023-2.364 1.002-1.823.701-.285 1.257c1.538.555-.17.919-.968.897s-4.643.298-.74.767c3.902.469-.352.356 2.506 1.989 3.161 1.81.883 5.65-.313 5.99 0 0-1.31.717.342.52 1.652-.196 2.563-.431 1.396.464-1.168.895-3.503 3.88-6.75 1.599 0 0-1.48-.703 1.168-.831s-2.165-.693-2.962-1.231-3.845-3.65-1.937-3.265 1.225-.725.085-1.13-1.37-2.153-.09-1.77 2.79 1.098 3.813 1.049c1.025-.047.741-.474-1.453-1.156-2.193-.682-3.105-.79-2.592-2.643s2.905.724 2.336-.662-2.65-.703-1.54-2.537c1.111-1.833 1.367-1.045 1.88-.81s1.334.06-.113-1.023c-.912-.683.083-1.61.341-1.834z"/>
	<path d="M845.053 285.899s-.029-.618.854-.512c.883.107.655-.32.911-.448s2.466.658.399 1.407c-.764.277-1.964.079-2.164-.447z"/>
	<path fill="#FFC221" d="M849.753 291.143s-1.661.846-.157 2.589c1.282 1.486 1.275 1.957 1.168 2.945-.108.988 56.807 1.585 56.807 1.585s-.1-3.656 2.336-5.713c0 0-31.102-.724-60.154-1.406z"/>
	<path fill="#5A3719" d="M908.54 297.261s.231-3.084 1.937-4.106c.94-.563 2.18-.235 2.721 2.251.77 3.536-2.227 6.544-3.618 5.201-1.325-1.278-1.04-3.346-1.04-3.346z"/>
	<path fill="#7B3C20" d="M843.32 310.56s3.788-3.219 4.358-4.669c0 0 10.254 7.264 9.627.594 0 0 .029-1.788.313-3.493 0 0 3.707.364 4.272-2.596l-9.57-.282s-.997-.213-2.478 1.386-4.529 3.35-7.377 1.823c0 0-1.192-1.035-2.405-.16s-1.27 1.13-.273 2.067c.998.939 3.134 3.817 3.533 5.33zm22.017-20.06-5.61-.213s-2.052-2.878-6.039-6.076c0 0-1.168-.51 1.082-2.3 2.25-1.79 2.905-3.71 2.991-4.58s-.142-2.233.712-1.19c.854 1.046 6.665 6.29 7.491 4.734s.968-2.281 1.111-2.75.342-1.92 1.168-.405 1.393 1.126 1.424 5.05c0 .001.142 3.881.741 5.288-.002 0-7.35-2.354-5.071 2.45zm-24.353-11.938s4.272 2.388 6.38-.853c2.108-3.24 3.532-3.752 1.937-6.864s.044-4.562 1.247-5.841 2.228-1.066 2.4-6.012 3.588-6.608 5.126-8.143 5.412-3.88-.456-4.86c-5.867-.992-17.488-4.02-20.507-8.538s-4.386-1.832-4.443-1.662c-.057.171-1.025 3.496 1.994 9.508s5.582 9.877 8.488 11.824c2.905 1.947 5.526 3.013 4.044 7.021-1.482 4.007-4.045 11.17-6.21 14.41z"/>
	<path fill="#5A3719" d="M856.76 265.78s.741 10.275 8.26 13.942c0 0 1.709-4.008 1.025-7.973 0 0 2.449.213 3.133 1.322 0 0 .114-2.984-3.418-4.072-3.532-1.087-1.823-7.781-.57-8.548s.854-2.103 0-3.311-1.082-3.041 1.88-2.274 2.506-.81.74-2.26-1.708-3.24.798-3.24 6.665-2.43 4.158-3.198c-2.506-.767-3.304-1.577.114-2.558s5.07-2.217 2.506-2.515c-2.563-.298-4.272-1.194-1.766-1.62s-.456-2.984-3.361-3.112-9.171 1.066-4.215-2.899-7.121-1.066-2.165-3.667-1.652-1.45-2.563-1.492-.901 0-.565-1.322c.337-1.322-.689-1.919-2.113-1.109s-1.424.81-1.367-1.023-1.709-.469-2.791 0-3.817 2.515-4.9 1.407-1.708-2.26-5.07-.213c-3.36 2.046-2.562.213-2.505-.682s1.31-4.434-3.304-.64c-4.614 3.795-.854-4.093-4.5-1.407s-4.044 3.155-4.614 1.961-1.26-2.174-5.273.384-1.05-1.524-.481-2.419 2.279-6.694-1.253-2.174c0 0-1.71 3.155-5.526-2.473 0 .001-4.044 5.592-5.07 3.116-1.025-2.475-2.051-2.73-3.361-1.11s-.342-.085-.911-1.449-.911-3.88-7.633 1.022 2.336 1.322-2.791 3.54-17.488 9.209-6.152 7.589-5.526 4.434-1.595 5.543 2.68 4.52 17.44.47 12.36-.64 19.88-3.88-1.71 1.108 8.375.894c10.083-.213 1.709.043 3.646 2.132s10.48 7.035 18.456 7.845 9.91-2.174 7.632 1.28-3.076 4.774-4.443 5.968-5.127 3.922-5.184 8.698c-.057 4.775-6.266 5.543-3.987 10.83a600.8 600.8 0 0 0 5.413-5.287z"/>
	<path fill="#5A3719" d="M869.88 277.27s-1.823-1.279-1.785-3.553c0 0 1.291.227 1.785 1.052 0 0 4.595-5.202-.893-7.077-5.487-1.876-2.754-6.85-.893-6.879s2.185-.54.618-2.615-1.453-2.16 1.661-2.7 2.69-1.194 1.307-1.961c-1.383-.767-2.444-2.018-2.444-2.018s8.808-3.837 5.959-5.6 0-1.306 2.544-3.126c2.544-1.82 2.886-2.16 3.266-2.871 0 0-2.515.256-4.371-.114 0 0 2.198-1.08 0-2.871-2.2-1.791-3.11-3.411-6.604-2.587s-2.355-.341-.987-1.791c1.367-1.45.72-2.274-1.747-2.643 0 0 .304-1.478 2.165-3.326 0 0-4.747.34-6.342-.483 0 0 1.899-1.307 2.05-2.871 0 0-2.62.853-5.923.54 0 0 1.937-1.677 1.937-3.155 0 0-5.734 1.279-8.393 3.297 0 0-.57-.114-1.025-.74-.456-.624-.798-1.25-7.14.768 0 0 .722-2.814 2.24-3.951s1.292-3.411-8.582 2.757c0 0-1.33-.796-2.43-3.752 0 0-2.127 3.013-3.76 4.036 0 0-1.367.574-1.196-1.347s-.968-.552-1.994 0c-1.025.552-1.71 1.916-1.196-1.964s-1.367-4.69-1.367-4.69-3.076 4.349-4.842 4.818c0 0-3.247-3.155-4.386-5.244s-1.139-2.857-2.279.767c-1.139 3.624-2.563 3.922-2.563 3.922s-1.937-1.663-2.165-2.558c0 0-.342.98-.968 1.407 0 0-1.709-2.004-1.652-4.903 0 0-10.595 5.84-11.905 9.38 0 0-10.026-.597-14.184.17 0 0 1.025-3.24 3.646-4.86 0 0-2.62-.297-2.734-2.983 0 0 2.108.298 3.418-.043s-1.823-4.136 1.481-4.221 5.412 1.577 3.93-2.814c-1.48-4.391-.797-4.391-.797-4.391s5.753 3.41 6.665 2.558-.741-2.686 4.386-1.833 3.703-2.09 5.696-2.217c1.994-.128 3.076 1.279 1.823-8.015s6.209 4.605 1.139-9.422c0 0-1.282-4.242-4.33-6.054 0 0-.683 3.07-4.13.362s-10.224-3.667-7.376-5.798c2.848-2.132 4.187-4.988 3.36-6.78 0 0-3.358 3.512-9.2 1.003-4.613-1.983-5.581 1.663-10.31.597 0 0 .086-1.215 4.074-4.35s-2.307 1.046-4.785 1.6-3.19.107 2.05-3.944 15.609-11.224 14.185-17.108c0 0 2.45 3.113 8.886.854s11.222-3.071 13.16-6.396c1.936-3.326 7.006-6.694 8.316-7.42s3.065-1.236 1.072 1.919-5.24 8.569-14.127 12.235c-8.886 3.668-12.304 6.354-13.9 8.27-1.594 1.92-9.683 6.227-4.442 5.5s14.355.13 10.083-1.107c-4.272-1.236-9.114.767-5.184-2.814s4.613-4.777 10.309-7.165 12.02-7.844 11.393-2.046c-.627 5.798-11.222 11.98-13.842 13.856-2.62 1.876-1.652 1.578-1.595 2.345s-.4 2.345-1.48 3.07-.742 1.535-.457 3.155-.285 2.26.513 2.515 1.595.384 1.823 1.535.826 1.3 2.364 1.172 2.506.02 2.62.917c.114.895 1.566 2.11 1.737-.618.17-2.73 1.168-3.262-1.623-2.004s-3.39.81-3.332-.49-.256-1.002-1.424-1.11-1.568-1.747.512-2.834 2.05.02 4.643-2.131 2.592-2.75 2.99-3.752-3.702 2.92-5.667 3.816-1.452-.618-1.11-2.857 5.24-5.16 7.49-5.202 7.32 1.279 5.128 4.349-8.402 6.716-5.725 6.993 3.105-.767 4.643.597.114 4.136-.598 5.607-2.193 3.326-2.848 3.667c0-.001-2.82-5.032-2.735-1.046s-.597 5.414 0 5.563 3.732 2.239 4.729 2.28-5.414 3.008-2.736 3.2c2.677.192 6.92-1.172 8.402-3.944 0-.001-5.44-1.323-7.633-3.37 0 0 6.352-1.491 4.586-7.61 0 0 6.323 1.728 3.589 4.584-2.734 2.857-4.386 2.43-2.022 3.24s3.532 1.49 3.532 1.49 1.617.81.68 2.133-.965 3.324-.168 3.28 3.475-1.28 1.225-2.642 2.563-1.13.513-2.281c-2.05-1.151-2.592-1.428-3.133-1.983-.54-.554 25.748-15.967 12.475-10.19 0 0 2.763-5.99 6.636-6.012s4.158 3.048 1.965 5.372-3.617 5.948-8.772 6.8c0 0 7.369 3.61-1.337 9.508 0 0-1.89.895-1.206 1.549.684.654 5.848-2.274 6.57-3.922.72-1.651 1.822-2.93 3.797-3.895s11.697-7.59 14.62-12.591 3.723-5.172 9.42-9.75 4.708-3.665 5.43-4.773 1.025-2.928 3.646-4.406 12.798-7.134 15.988-9.437c3.19-2.302 9.722-6.537 12.532-10.12 2.81-3.58 10.378-8.155 12.266-7.304 1.89.85-.19 3.525-4.633 6.907s-15.456 12.279-17.241 13.643-11.127 8.186-14.62 8.64-3.114 1.678-5.203 3.952-6.913 7.049-8.546 8.357c-1.633 1.308-5.507 3.98-5.734 5.856-.228 1.876.684 2.103-2.43 5.03s-12.228 9.55-15.532 10.603c0 0 5.848 1.933 2.354 5.884s-3.266 3.382-3.532 3.638c0 0 8.88-1.307 2.582 5.599 0 0-1.215 1.99 1.595-.085 3.004-2.218 1.71-5.258 1.367-5.685 0 0 4.71-2.928 10.14-3.013s5.24-.455.38-1.848c0 0 3.456-4.207 6.38-2.132s1.975 3.269-1.1 4.917c-3.077 1.649-7.634 2.33-11.014 4.207 0 0 6.418 1.25 9.874-1.363s3.608-1.307 4.063-.853c.456.456.836 1.308-.684 3.497s-1.67 2.302-1.595 2.786c.076.483-.114 1.99-3.228 2.5-3.116.513-4.52 1.82-3.458 3.298s1.1 5.145-1.557 4.804-1.937-2.444-2.962-3.27c-1.025-.823-2.468-2.102-7.102.314-4.633 2.416-5.013-.455-4.785-1.961 0 0-3 2.617-5.508.2-2.507-2.415-.23-3.353 1.214-4.575s7.33-3.78 3.798-3.326-8.81.678-10.026-2.05c-1.217-2.73 2.62-2.415 3.226-2.16s3.114 2.275 3.19-.37c.075-2.641 3.986-2.926 2.657-3.466s-3.19 1.138-3.722 1.79c0 0-2.734-3.807-7.139-2.556s1.405.739 2.582.938.494 2.388-3.456 5.94-2.165 2.474.76 2.474c2.924 0 10.102.028 5.924 3.439s-5.848 5.118-8.013 4.52.268-2.02 1.217-2.616 1.52-1.65-.532-.881-2.772.91-4.405-1.99c-1.635-2.9-.95-2.046-.268-3.951.684-1.904 2.28-3.922.38-3.212s-1.71.767-1.557-1.421c.152-2.191-2.165-2.673-2.165-2.673s.91 2.189.076 3.58-.873 1.876.494 2.245c1.367.37 2.658 1.535.797 2.814s-1.634 1.11-.457 1.877 2.886 1.649 1.063 3.439-.304 1.25.608 1.25 2.976.768 3.008 2.53c.033 1.763-.12 2.19 2.843.54s8.886-1.45 8.81.854c-.074 2.302-.76 2.87 2.395.91s4.557 1.848 6.722 0 3.532-3.638 6.038-.483 1.725 4.109-1.33 6.338 1.482.512 3.799-.682 8.81-1.99 12.532-.341 4.785 1.279 7.52.142 4.138-1.393 8.278 1.364c4.14 2.757 7.367 3.269 9.532 3.212 0 0-4.595 1.79-9.76 2.132s-7.747 1.307-8.772 2.103c.002 0 3.108 1.876 3.72 4.178 0 0 3.384-.455 5.055.227.002 0-.871 2.444 1.217 3.752 2.09 1.306 3.532 1.79 1.975 3.58s2.393 1.023.152 3.553-2.848 3.809-2.924 5.855c-.076 2.047.494 2.359-1.52 2.558s.342 2.444-.57 5.116c-.91 2.672-6.532 2.388-6.304 9.55 0 0 1.557-3.496 4.9-6.566s3.455-3.354 3.38-5.202-.23-1.421 1.556-2.814-.798-2.7.986-4.69c1.786-1.99.23-1.592 2.318-3.61s-1.823-2.274.304-4.35-5.127-4.433-3.038-5.77 5.696-3.182-6.456-2.983c0 0 2.924-4.832 13.178-3.78 0 0-2.696 1.904-2.924 3.78 0 0 1.177.597 1.9.767 0 0-.397 1.375-2.354 3.04 0 0 5.43 3.042 6.304 4.833 0 0-3.304 1.023-4.14 2.473 0 0 1.444 1.649 1.938 3.78 0 0-3.684-.455-4.177 2.302-.494 2.757-1.595.88-1.595 2.5s.114 2.275-1.177 2.53-.228 1.62 0 2.53.646 2.985.456 3.639c0 0-1.86.028-2.735.284 0 0 .57 3.95-1.633 4.52s1.177 1.364-1.177 1.79c-2.355.427-2.05.569-4.937 5.743 0 0 2.468-1.393 5.013-3.07 2.544-1.677-.19-1.165 4.025-5.315s3.456-4.463 3.114-6.566-.418-3.81 1.1-5.798c1.52-1.99 2.014-4.264 7.406-3.98 0 0-1.595-3.587-3.57-4.521 0 0 2.585-1.788 5.32-2.043 0 0-2.393-2.871-7.29-5.656-.002 0 4.022-3.468 4.972-5.116 0 0-1.86.284-3.34-.057 0 0 .698-1.66 4.33-4.036 0 0 1.935 1.876 1.86 3.837 0 0 6.227-3.581 9.76-3.183 0 0 1.785 4.49-6.874 12.904 0 0 5.355.512 7.633.199-.002 0-1.292 4.15-7.788 6.594s1.404 5.3-5.24 4.804-4.596 1.79-4.406 5.173.418 6.85.266 7.788c0 0-5.317-1.734-5.203 3.41s-2.734 6.226-3.304 6.709c0 0-1.543-1.38-3.874-2.19-.005.006-3.303 6.268-8.626 9.926z"/>
	<path fill="#7B3C20" d="M862.28 212.78s1.823-.298 4.899 1.62 6.095-2.046 2.677-3.07.057-2.217 3.133.256 4.272 1.236 5.412.384 2.506-1.322.4-2.771c-2.098-1.45 1.434-.767 3.03.256s.967 2.089.74 2.388-.399 3.624 2.734.512 4.671-6.225 4.614-7.76c0 0 1.71 1.066 1.937 3.027s2.62-1.066 3.418-2.132c.797-1.066 2.165-3.756 1.994-5.779 0 0 2.108 3.26 5.241 0s1.766-1.213 5.526-2.194 8.488-3.752 11.051-6.864 2.733-1.023 6.037-1.79c3.304-.768 9.97-5.373 10.595-7.889.626-2.515.512-4.05-.457-3.198s-.57.171-1.994-.725c-1.424-.895-3.532 1.151-3.532 1.151s2.108 1.62.513 2.302-3.133 2.942-6.152 2.09-6.152 2.77-6.152 2.77 2.62 2.174-.91 3.54c-3.532 1.363-2.962 1.832-5.127.34 0 0-3.76 4.775-5.924 5.756 0 0-1.025-.085-1.709-.98 0 0-2.449 2.77-3.703 3.325 0 0-1.539-1.492-2.963-1.96 0 0-2.962 3.666-5.469 4.817 0 0-.74-1.364-2.336-2.302 0 0-.788 4.796-6.038 7.632 0 0 .342-1.279-2.279-3.027 0 0-6.494 5.628-9.057 6.182s-.169-1.194.172-1.919 1.937-3.112-1.196-4.093-2.62.682-3.304.981c-.684.298-.74-.554-2.848-.256-2.108.298-1.766 1.236-2.677 1.578-.91.341-4.557-.597-4.386 1.833s1.88 4.093-1.31 5.5c-3.194 1.407 1.193 1.11 5.41.47z"/>
	<path fill="#5A3719" d="M875.44 205.92s.741-3.07-1.937-4.562c0 0 17.203-2.643 4.215-9.21 0 0 15.437-3.197 11.792-8.142-3.646-4.946-7.19-3.837-7.725-3.752s3.282-2.857 4.307-2.473 13.444 5.16 10.254 1.07-2.905-3.831-3.418-5.03c0 0 4.101 0 10.311 6.059 0 0 1.31-1.364 1.14-3.837 0-.001 4.442 1.235 5.81 2.557 0 0 .74-1.534.455-2.387 0 0 3.817 2.046 5.127 4.22 0 0 1.766-1.534 2.051-3.282 0 0 3.817 1.578 4.785 2.77 0 0 1.253-1.662.797-4.05 0 0 6.323 1.877 7.177-2.045 0-.001 6.361 1.378 2.227 3.854-5.313 3.183-.537-.785-5.987 3.009-4.226 2.942-6.589 6.395-8.62 5.685-1.494-.522-3.286 3.823-5.337 1.69s-2.05-1.15-3.475 1.067-3.646 4.476-3.646 4.476-1.109-.641-1.95-1.493c0 0-1.24 2.046-2.835 3.58 0-.002-1.253-1.664-3.247-2.687 0 0-3.133 3.624-5.07 4.86 0 0-1.823-1.791-3.76-2.388 0 0-.285 4.903-4.1 7.419 0 0-.798-1.62-3.248-2.601.002 0-1.935 3.1-6.093 5.628z"/>
	<path fill="#5A3719" d="M866.39 198.41s-2.09 1.606-.741 3.326c1.349 1.719 1.424-.298 3.133-.469s22.786-3.795 3.703-9.508c0 0 .797-.725 4.101-1.023s15.266-3.539 9.684-7.802c-5.582-4.264-10.225 1.449-5.526-3.667 3.76-4.093.741-6.097.741-6.097s-11.108 7.419-13.557 8.783-5.981 3.965-1.823 5.329 7.007-4.52 7.405-3.198c.399 1.322-8.374 6.182-7.12 8.442 1.253 2.26.968 4.136 3.133 3.709 2.165-.426 8.032 1.109 3.247.938s-6.38 1.237-6.38 1.237z"/>
	<path d="M874.02 187.798s-1.937 1.361.627.679c2.563-.682 7.69-1.791 6.722-3.112-.97-1.322-4.387.262-7.35 2.433z"/>
	<path fill="#7B3C20" d="M907.86 165.8s9.798-.256 13.842 2.473 5.981 4.52 7.177 4.903c0 0-.171 3.71-6.437 1.066 0 0 .342 1.791-.342 3.54 0-.001-2.336-1.536-5.013-2.218 0 0-.456 1.407-1.31 2.217 0 0-2.791-2.814-5.924-3.667 0 0-.627 1.407-1.196 1.92 0 0-3.361-1.92-5.924-1.877 0 0 .513 2.047 0 2.857 0 0-7.12-5.585-13.444-4.86 0 0 3.076 4.477 5.07 6.694 0 0-12.817-1.023-10.709-7.93s-.17-5.172 8.203-5.123 16.007.005 16.007.005z"/>
	<path fill="#5A3719" d="M847.76 184.88s-1.481 1.207 0 2.231c1.481 1.023 6.551-2.643 7.234-3.155.684-.512 2.506-.426 0 1.45s-5.07 3.922-6.665 5.969c0 0 8.48-2.302 14.01-7.077s-.26-1.682 9.17-6.225 14.35-11.853 9.28-11.085c-5.07.767-9.627 6.566-13.557 8.783s-6.152 2.515-5.526 1.236c.626-1.28 3.531-.767 8.942-5.116 5.412-4.35 4.215-4.05 4.272-5.585s-2.05-5.33 6.094-9.593 33.495-19.101 35.66-24.174c.001 0-7.405.81-17.146 8.015s-14.956 10.574-17.646 11.469-2.348.298-4.114 2.388c-1.766 2.089-11.393 11.384-13.159 12.748s-2.279 2.26-2.43 5.04c-.067 1.268-11.069 9.555-14.43 12.68z"/>
	<path fill="#5A3719" d="M881.25 165.56s-1.88.873-3.703 0-1.253-4.796 3.133-7.141 12.361-5.841 16.406-6.353c0 0-.57 5.074-13.159 9.337 0 0 .798 2.642-2.677 4.157z"/>
	<path fill="#AA5323" d="M885.7 162.26s.366 1.248 0 2.388c0 0 23.412 2.26 35.489-11.981 0 0-16.58 1.535-23.19 5.5 0 0 4.154-5.202 16.573-9.508 12.418-4.306 17.488-9.636 18.57-12.577 0 0-15.705 5.5-23.184 5.5 0 0-1.48-.043-2.906.767s-11.45 8.101-14.128 9.337c0 0 5.64-.47 7.633-2.302-.003 0-3.92 10.539-14.87 12.876z"/>
	<path fill="#5A3719" d="M840.87 175.64s-3.019 2.132-1.766 3.198 3.411 1.279 8-2.558 15.697-13.388 8.678-13.771c0 0-8.988-.56-8.678 4.94.314 5.55-5.783 7.832-6.234 8.181zm-20.735-3.241s5.924 3.453 3.703 6.31c0 0 18.172-15.434 13.045-18.76s-9.171 2.942-7.918 3.58c1.253.63 3.93-.564 2.962.63s-10.652 7.72-11.792 8.23zm-4.728-4.988s3.987 1.194 4.158 2.899 12.019-8.357 8.886-12.577c-1.437-1.935-8.032-2.73-8.317 1.066s5.924-.384 3.76 2.345c-2.838 3.578-7.632 5.67-8.487 6.267zm42.642-8.408s-2.54 1.842-.26 2.951 3.76-.64 4.89-1.663 6.78-5.16 8.09-7.802 3.246-3.453 5.297-4.818c2.05-1.364 16.52-8.57 25.405-16.543s5.184-5.926 14.412-11.043c9.228-5.116 15.266-9.806 17.203-15.35 0 0-4.272 1.408-8.032 3.838s-12.246 7.76-13.955 8.484-4.1.853-5.355 2.174c-1.253 1.322-1.139 2.899-5.583 6.566-4.443 3.667-27.4 19.868-30.19 22.17-2.792 2.305-11.93 11.036-11.93 11.036z"/>
	<path fill="#AA5323" d="M839.58 164.37s2.506-1.382 7.215-1.06c4.71.321 23.317-17.699 28.71-21.337s22.254-15.804 24.533-18.021 2.658-4.605 4.633-5.912 3.798-1.137 8.355-3.752 26.431-15.69 25.14-23.307c0 0-32.583 19.555-40.103 25.922-7.519 6.367-28.406 20.806-32.128 23.137s-6.684 6.367-12.912 11.426-12.379 9.322-13.443 12.904z"/>
	<path fill="#AA5323" d="M832.74 157.44s6.03-.617 6.836 2.331c0 0 12.912-8.868 15.874-12.506s-.987-1.535 6.38-6.367 31.824-21.943 35.318-25.013 10.102-7.106 15.418-10.687c5.317-3.581 26.128-13.757 23.773-22.114 0 0-15.266 10.232-18.684 12.45-3.418 2.217-4.86.966-8.355 3.695s-11.165 8.186-12.532 9.89-13.064 10.688-18.76 14.497-18.456 11.199-24.609 16.543c-6.153 5.343-18.077 15.235-20.659 17.281z"/>
	<path fill="#AA5323" d="M813.95 155.69s3.051.044 3.962 1.238c0 0 5.64-4.947 11.64-.058 0 0 22.026-14.894 24.229-18.646s5.772-3.809 14.355-10.062 13.975-8.868 19.672-13.302c5.696-4.434 10.481-9.437 14.583-12.108 4.101-2.672 14.431-9.437 12.684-15.292 0 0-8.355 4.775-13.823 10.744s-5.013.853-10.557 5.855c-5.545 5.003-14.127 11.824-21.267 15.349s-2.81 3.127-7.975 6.424-4.785 2.786-6.684 3.24c-1.899.455-4.785 1.819-6.684 4.036s-6.988 5.23-12.532 8.357c-5.545 3.126-19.178 11.241-21.603 14.225z"/>
	<path fill="#AA5323" d="M820.59 144.26s-1.196-2.473.911-4.221c2.108-1.748 5.924-6.353 6.551-9.252s.171-2.43 6.266-4.946c6.095-2.515 19.937-8.996 27.742-13.814 7.804-4.818 19.653-12.577 22.102-14.453s8.393-6.054 10.804-8.015c0 0 1.158 3.283-1.462 5.543s-12.703 9.337-14.355 10.446-10.937 7.333-13.785 8.91-9.912 5.16-12.418 7.249-2.184 2.729-13.368 8.186-11.697 6.012-11.355 6.438 5.355-1.748 7.747-3.155c2.393-1.407 11.564-5.585 14.298-7.76 2.734-2.174 7.348-5.585 9.342-6.694s18.513-11 23.24-14.496 6.039-4.647 7.065-4.05c1.025.597 2.677.64.57 2.643-2.108 2.004-8.83 7.888-11.393 9.593-2.563 1.705-10.595 6.48-12.817 7.632s-3.076 3.283-4.33 4.178-4.898 3.496-9.341 4.519-5.241 4.35-8.146 6.23-23.58 13.008-24.206 13.56c0 0 1.25-1.28.338-4.262z"/>
	<path fill="#AA5323" d="M892.13 97.834s-1.139 1.009-.513 1.578c.827.75 3.703 2.771 7.291-.789 3.589-3.56 13.23-11.32 16.356-13.153s4.607-3.581 4.493-6.097c.001 0-14.81 7.888-27.627 18.461zm20.393-1.364s2.279-3.795 7.861-7.376 13.963-8.795 15.095-10.062c0 0 1.994 2.26-2.392 5.031s-12.931 8.442-13.956 9.252-2.734 2.046-6.608 3.155z"/>
	<path fill="#7B3C20" d="M799 137.78s-6.209 3.326-3.987 5.415 5.526 1.45 6.893.853 3.987-1.236 4.386-1.364 5.81-1.663 7.177-4.178 5.013-5.415 7.918-7.504 3.93-4.178 3.532-5.67c0 0-24.453 11.55-25.919 12.448zm-36.913 28.694s4.29-2.551 10.311-.938c0 0-.285-1.467-1.196-2.226 0 0 7.291-1.91 8.886-5.15s1.937-2.558 3.361-3.496 11.279-8.868 10.14-10.574-1.367-3.922-2.222-4.818c0 0-2.051 2.814-11.621 7.46s-20.222 8.144-27.969 18.59-6.95 16.5 2.506 19.143c0 0 6.665-4.178 22.9-2.73 16.235 1.45 21.76 7.547 22.786 8.656 1.025 1.109 4.329 5.116 1.139 11.895 0 0 3.247 1.407 3.532-1.705s.456-2.388 1.196-1.92c.74.47 1.652.555 1.31-1.832-.342-2.388-1.481-7.717-2.962-9.55s.17-1.023 1.139-.64c.968.384 4.386 3.155 2.336-1.961-2.051-5.116-2.563-2.601-2.62-2.345s-.456 1.535-4.9-1.791-8.487-4.946-11.506-5.798-.911-.853.854-1.492c1.766-.64 4.158-1.023 4.956-2.984 0 0-1.766.426-5.013-.725s-9.741-1.28-14.982 2.643c0 0 1.652-6.054-3.133-5.713s-8.146.213-13.216 4.22c0 0-.285-6.096 4.5-9.251s4.158-1.236 6.836-2.046 2.905-3.496 1.766-4.35c0 0 6.27 1.067 16.81-7.673 0 0-5.66 7.42-12.54 8.91 0 0-1.09 3.95-7.337 4.82-6.246.868-6.094 4.476-6.037 5.37z"/>
	<path fill="#5A3719" d="M744.1 202.61s3.074-18.372 20.279-19.702c15.076-1.165 19.861.711 22.862 1.677s10.329 3.127 7.481 5.486-4.481 1.933-4.481 1.933 3.304-3.667.304-4.292-3.266 1.194-3.684 2.729-.608 3.382-2.089 4.576c0 0-1.52-1.762-3.684-.227s-.304 1.592.57 1.336c.873-.256 2.013-.711 1.785.625s-1.443 3.638-5.013 5.514-3.38 1.762-7.633 2.444-8.203 2.359-13.633 7.021c-5.431 4.661-11.374 3.106-12.57-2.103-1.025-4.467-.494-7.017-.494-7.017z"/>
	<path d="M763.794 202.035s1.652-3.624-1.31-5.287c0 0-9.058 1.553-11.735-1.194 0 0 9.855-.512 15.95-2.899 6.09-2.388 4.27-4.05 2.16-4.434-2.11-.384-5.98.554-6.38 2.473 0 0-1.2-2.046.34-3.41s3.93-1.62 6.092-.982c2.165.64 4.101 1.578 11.222-2.132 0 0 4.101.938 4.215 3.71.114 2.77-.285 3.921-.627 4.348-.342.426-.854 1.236-1.709 1.151-.854-.09-1.937-.3-3.019 1.62-1.082 1.91-1.732 3.58-3.543 4.86 0 0 2.12-5.97-3.122-7.38 0 0-4.33 2.552-7.634 2.68.001.002 4.217 3.924-.909 6.866z"/>
	<path fill="#5A3719" d="M773.25 191.078s-1.994-2.196.627-2.43c2.62-.234 6.095 1.684 5.412 3.304-.684 1.62-3.76 1.556-6.039-.874z"/>
	<path fill="#FFF" d="M921.3 161.96s-4.785 1.364-.342 4.306 6.608 5.5 9.855 6.353 6.608 2.046 6.551 5.287c-.057 3.24-.684 4.52-2.449 6.736-1.766 2.217.968 3.198 3.304 1.92s4.329-1.962 5.867-2.858 4.101-.767 1.766.426c-2.336 1.194-4.785 1.92-1.766 2.004s21.191.426 25.007-.81 8.772-1.62 9.228-6.566c0 0 .18-2.196 1.6-3.112 1.428-.917 2.397-3.027.317-1.599-2.08 1.428-3.674 2.153-4.073 1.727s-.513-.725.997-1.428 2.364-.043 3.76-2.11c1.397-2.068 1.26-1.727.517-2.515-.743-.789-2.31-1.364-1.54-2.366s1.538-3.986-1.794-2.238-9.893 6.253-12.931 6.964-5.354 1.635-9.455 2.466-6.646 1.712-11.013 4.128-4.063-1.334-3.304-1.847c0 0 1.67 2.927 6.114-.882s2.997-.238 13.86-3.809 8.204-4.15 12.457-6.367 8.279-2.302 5.317-5.258-3.304-3.212-7.14 0c-3.835 3.212-14.43 8.385-20.772 8.527 0 0 24.495-10.574 21.988-12.108-2.506-1.53-5.203-2.89-6.912-3.26s-2.165-.795-6.114.967-4.595 2.188-5.734 2.3-4.443.768-9.114 3.184-7.177 3.382-10.292 5.287c0 0 2.165-4.377 11.81-7.276s14.584-5.571 13.52-6.054c-1.063-.483-3.456-.881-5.28-.597s-1.29-.142-7.176 2.189-3.38 1.819-8.127 2.842-6.686 2.074-9.041 3.069c0 0 .96-1.28 4.159-2.452 1.644-.601-1.797-1.221 2.764-1.406.37-.015.827.093 1.279-.036 5.897-1.691 12.343-4.008 11.356-4.178-.987-.172-6.722-.768-12.532 1.903-5.81 2.672-3.152 1.762-5.203 2.189-2.052.426-6.381 3.155-7.824 4.32-1.444 1.164-3.456 2.045-3.456 2.045z"/>
	<path fill="#5A3719" d="M777.84 188.43s2.279.682 2.848 2.281 1.994-.703 1.937-1.428-1.453-3.922-3.931-2.43-1.235 1.439-.854 1.577z"/>
	<path fill="#7B3C20" d="M771.484 220.027s4.863-2.287 8.943-2.004c0 0-1.595-5.756 1.253-4.775 2.848.981 2.051.597 2.62.554 0 0 .171-3.795-.57-5.287 0 0 2.905.682 5.867.725 0 0-2.791-5.457.285-9.21 0 0 1.689 3.582 5.487 4.478 0 0 .018-1.535 0-3.155 0 0 2.26-.256 4.026.682s3.247-9.891-1.994-12.28c0 0-1.253 2.047-6.152 3.07-4.9 1.024-4.86 2.008-6.873 5.695s-3.78 3.729-7.881 6.372c-4.101 2.643-6.594 8.015-6.83 8.484.003 0 2.16 2.643 1.819 6.65z"/>
	<path fill="#999" d="M934.91 157.12c1.781-.312-1.798-1.221 2.763-1.406.372-.015.828.093 1.281-.036 5.896-1.691 12.342-4.008 11.355-4.178-.987-.171-6.722-.767-12.532 1.904-5.81 2.672-3.152 1.762-5.203 2.189-2.051.426-6.38 3.155-7.823 4.32s-3.456 2.046-3.456 2.046-4.785 1.364-.342 4.306 6.608 5.5 9.855 6.353 6.608 2.046 6.551 5.287c-.057 3.24-.684 4.519-2.449 6.736-1.766 2.217.968 3.198 3.304 1.919s4.329-1.961 5.867-2.857 4.101-.767 1.766.426c-2.336 1.194-4.785 1.919-1.766 2.004s21.191.426 25.007-.81 8.772-1.62 9.228-6.566c0 0 .17-2.196 1.595-3.112 1.424-.917 2.393-3.027.313-1.6-2.08 1.43-3.674 2.154-4.073 1.728s-.513-.725.997-1.428 2.364-.043 3.76-2.11c1.396-2.068 1.259-1.727.516-2.515-.382-.405-.98-.753-1.368-1.132 0 0-1.094-.957-2.366-.147s-6.855 3.169-9.095 3.439c-2.241.27-4.557 1.222-8.583 3.183s-10.71 5.955-11.773 2.245c0 0-2.915 1.04-3.551 1.364-4.49 2.288-4.097-.959-3.304-1.847 0 0-2.354 2.643-2.26.241.095-2.402 1.614-1.99 4.234-2.757s6.76-2.473 5.05-3.894-3.512 1.411-5.411 2.276-5.696 1.632-6.285-1.125-.57-4.676-5.715-4.974-4.956-3.51-3.551-4.889 2.64-3.738 7.464-4.583z"/>
	<path d="M951.263 182.053s8.013-3.695 15.38-5.429c7.367-1.734 1.595.227.342.625s-12.722 4.178-15.418 5.429c-2.697 1.251-2.141.181-.304-.625zm1.861 1.62s9-2.984 10.671-1.734c1.671 1.251.304.625-1.67.91-1.976.284-7.406 1.194-8.849 1.165-1.444-.028-.152-.341-.152-.341zm14.431-3.126s1.71-.313 1.9.313c.19.625-.76.71-1.71.597-.95-.114-1.785-.655-.19-.91z"/>
	<path fill="#FFF" d="M729.838 258.967s-.336-7.902 3.651-11.91 23.355-24.163 26.317-29.797c0 0 2.506 1.742 2.62 4.94 0 0 3.247-5.592 5.81-7.699 0 0 2.279 2.33 1.88 6.98 0 0 4.67-2.47 11.906-2.511 0 0-2.677 3.155-2.791 4.988 0 0 10.026-1.11 15.266-.256 0 0-13.785 7.717-9.912 8.399s7.918-.043 7.918-.043-4.386 4.477-11.393 5.372c0 0 8.886-.128 10.652 1.876 0 0-8.66 1.322-15.608 6.608 0 0-.65-.298-.695-2.26 0 0-.216 1.748-2.21 3.41s-6.78 5.203-8.545 6.993c-1.766 1.79-5.07 5.33-8.602 5.16 0 0 .797-2.73-1.823-3.582-2.62-.853-5.64-.256-7.747 2.004 0 0-9.342.128-12.304.554 0 0 2.108-3.368 4.044-3.283 1.937.084 9.74 1.15 10.424-4.179.684-5.33-5.013-3.922-2.848-7.077s1.652-3.027 1.709-3.326c0 0-1.766.98-2.791 3.794s-1.766 4.988-5.47 7.802c-3.702 2.814-5.235 4.518-6.26 6.48.002.001-1.687.236-3.198.571z"/>
	<path fill="#FFF" d="M738.82 254.19s.304-1.08 3.038-1.535 2.848-1.762 2.506-2.331-1.975-.568.684-3.581c0 0 .949.256 1.595.995s3.645 7.163-7.823 6.452z"/>
	<path fill="#999" d="M732.257 248.61c.142 5.265 7.042 3.309 7.042 3.309-2.458 1.868-3.961 3.247-4.993 4.537.456-2.558-3.891-3.198-3.891-3.198.358-1.564.93-3.219 1.842-4.648zm25.371-28.138c.999-1.307 1.756-2.406 2.179-3.211 0 0 2.506 1.742 2.62 4.94 0 0 3.247-5.592 5.81-7.699 0 0 2.279 2.327 1.88 6.974 0 0 4.67-2.473 11.905-2.515 0 0-2.677 3.155-2.791 4.988 0 0 10.026-1.11 15.266-.256 0 0-13.785 7.717-9.912 8.399 3.874.682 7.918-.043 7.918-.043s-4.386 4.477-11.393 5.372c0 0 8.886-.128 10.652 1.876 0 0-2.53.386-5.952 1.576 0 0-2.555-2.4-9.96-2.059 0 0 5.76-3.223 10.329-4.264 0 0-2.013-2.643-5.165-.227 0 0-6.266-4.32-1.101-7.987 0 0-3.646-.767-6.038.938 0 0 .114-2.956 2.772-4.292 0 0-7.026-1.137-8.772 4.036 0 0-1.33-2.132-.722-4.548 0 0-4.253 2.446-6.19 5.217.002 0-.64-5.254-3.335-7.215m-13.616 33.416c-1.261.31-2.95.443-5.187.304 0 0 .192-.681 1.639-1.19 0 0 .415.865 3.548.886"/>
	<path d="M756.787 233.969s3.19 2.515 4.329 4.05c0 0 2.905-2.047 3.987-3.709 0 0 2.279 1.492 3.076 3.709 0 0 1.595-1.109 1.937-2.643 0 0 4.022.853 5.343 2.174 0 0 .615-3.88 0-6.31 0 0 2.803.213 4.512.938 0 0-1.58-2.558 6.53-5.841 0 0-6.131 1.317-8.46 4.008 0 0-2.62.128-3.76-.682 0 0 .17 3.922.06 5.798 0 0-1.581-.64-4.664-1.364 0 0-.747 1.279-1.26 1.577 0 0-1.937-1.535-2.791-3.496 0 0-2.963 2.691-4.101 3.837 0 0-2.791-1.961-4.728-2.046z"/>
	<path fill="#FFC221" d="M738.44 273.88s1.253.597 4.215-1.791 11.336-7.717 12.133-11.981-2.677-4.519-5.412-3.283c-2.734 1.236-1.595 3.624-1.48 4.391s.17 3.752-4.273 7.888c-4.443 4.137-5.183 4.776-5.183 4.776z"/>
	<path fill="#FFC221" d="M737.477 275.24s-6.722-2.814-.684-5.841 8.716-3.837 9.399-6.353c.684-2.516.285-2.089-1.937-1.023s-10.766 4.903-12.076 1.322c0 0 3.532 1.364 7.918-.767s7.975-2.771 5.184-3.667c-2.791-.895-12.874.213-14.526.682-1.652.469-1.253.384-1.538 2.046-.285 1.663-2.165 5.159-2.848 6.182-.684 1.023-2.336 5.287.741 7.163 3.075 1.876 7.951 1.747 10.367.256z"/>
	<path d="M734.858 260.573s-1.54.213-1.255.81c.285.597.687.512 1.255.554s1.423-.298 1.536-.682c.114-.383-.965-.81-1.536-.682z"/>
	<path fill="#FFF" d="M737.078 273.748s-3.19-1.535.399-3.496 7.462-3.837 7.975-4.647c0-.001-1.709 2.429-8.374 8.143z"/>
</svg>
