<svg xmlns="http://www.w3.org/2000/svg" style="display:block;flex-wrap:wrap;margin-top:10%;font-size:30px" viewBox="0 0 360000 300000">
	<path d="M0 0h360000v120000H0z" style="fill:#000" transform="rotate(180, 90000, 129500)" stroke-width="1000"/>
	<g fill="#fff" stroke-width="1000">
		<path d="M180000 199000h-360000V79000h360000z" stroke-width="1000"/>
		<path fill="red" d="M180000 199000h-28000V79000h28000zM123000-3000v264000s-22897 15000-28000 16000l-1000-1000V-3000z" stroke-width="1000"/>
		<path fill="#009f0f" d="M40000 253000H12000V133000h28000zM-18000-3000v264000s22897 15000 28000 16000l1000-1000V-3000z" stroke-width="1000"/>
		<g fill="#fc0" stroke-width="1000">
			<path d="M110000 143000H82000V23000h28000z" stroke-width="1000"/>
			<path d="M172000 63000l-69000 69000v61000s-12000-17000-27000-18000l-1000 1000v-61000z" stroke-width="1000"/>
		</g>
		<g fill="#d52b1e" stroke-width="1000">
			<path d="M145000 190000h-28000V70000h28000z m-97000-83000V-97000s-22897-15000-28000-16000l-1000 1000v219000z" stroke-width="1000"/>
			<path d="M20000-95000h28000V25000H20000z" stroke-width="1000"/>
		</g>
	</g>
</svg>