<?xml version="1.0" encoding="utf-8"?>
<svg xmlns="http://www.w3.org/2000/svg" viewBox="0 0 900 600">
	<rect width="300" height="600" fill="#002654" />
	<rect width="300" height="600" x="300" fill="white" />
	<rect width="300" height="600" x="600" fill="#ce1126" />
	<g transform="translate(0 -31.562)">
		<path id="a" fill="none" stroke="yellow" stroke-width="25"
			d="M350 387.933c33.767 33.333 166.235 33.333 200 0" />
		<path 
		fill="none" stroke="black" stroke-width="1.125"
			d="m456.055 254.4-.468-.2.468.2Zm13.378 132.198-1.807-1.068-5.35 1.336-4.685-2.938v1.134l-1.136-1.535 1.339-1.336-.203-4.005h1.54l.938-2.67 1.068-.469-.868-1.334 1.336-.468-.2-2.003-1.336-.668 1.739-.2-1.071-4.874-2.675-2.67-1.607.668.668 2.202h-5.55l-4.685-2.002-1.804-.869-8.9-2.002-.667 1.066-3.144.268-.87.007-1.34 2.203-3.81-2.67-2.008.667.268 1.803-4.952-2.671-.2 1.737-4.883-2.203-.268.199-2.407.934-.47-1.802-5.819-2.871-6.221-2.004-1.139-5.14v-1.137l-2.407-4.406 1.07-5.341-2.006-.668-.67-2.27 3.345-.401h-1.539l.2-3.34-4.882 1.538-.2-1.337-.67 2.47-2.676 1.07-1.807-1.735-.668-1.805-.668-3.537 1.539-1.136.668.868.468-1.068-1.136-8.013 1.804.399.87-8.412.269-.265 1.739-1.07-2.207.201-.871-2.002 4.014-4.474-3.614-.666-2.683 2.671-1.071-3.071-1.604 2.203-.4-1.537-2.009.668-1.338.668 1.07-4.007-.87-.466.469-1.136-1.136.268-.2-2.27h4.215l-.2-1.072h-1.34l-2.474-4.272-1.34.468-.868-1.537-.468 1.337-1.338-.936 1.34-.867-2.008-.67.468-1.135-1.606-.866-.4-3.54-1.608-.466.936-.67-1.804-4.672.2-1.532.669-4.676h1.339l-.403 2.87 3.348 4.677 2.407 3.134 4.952 1.337v.2l.669-1.136 2.675 3.138 1.339 1.537.668.669 7.56 3.607 1.336.668.47.4 3.544 4.273 2.007-.936 14.718-3.336.468-2.671 1.07.466-.2-.867.669-.468 3.146-1.136v-3.071l1.069-1.134 1.339-5.141-.67-2.001 3.145-7.544-.002-1.136v-3.54h1.537l1.806-2.67 2.21-.665.266-2.47 3.076-3.74 1.34.669 6.29-2.27.67-.67 1.34-1.334-.47-2.203h1.337l.67 3.54 6.89 1.6 1.136-1.133.47.2 6.02 1.336.204-.2 3.143-1.804.2 2.004 2.678.268 2.207 1.734.468.468 3.344 2.87 4.014.269 2.475.4 3.078-1.068.267 2 1.34.87 1.068-2.003h1.34l.935 5.142 1.07.2-.2 1.802-.2.2h.4l2.678-1.332 2.475-.868 6.892 2.403 1.336-.401.468 2.402 1.807.268-.468-1.134h1.54l.467 2.468 1.807-2.002 4.214 2.67 1.136 4.875-1.804.467.467 3.74.668 1.133 4.682 11.82-2.475 2.203-.2 2.67-2.007 2.47 2.207 1.534-.868.668 2.008 2.003 3.076.468.939 1.336.868 1.735 2.207.936 2.678-1.804 1.804.2-2.207 3.139 2.207 5.81-2.675 2.202 1.136 3.54-.668 3.136 1.339 1.804 3.546.666-3.546 4.876.668.866.87.936-1.538 2.403 1.54.936-7.828 6.408 1.807 4.473-.468 2.67-2.681.87-.667 2.27-3.078 1.337-.936 2.87-.667 1.536 3.143 1.602-4.682.4 1.136 2.47-2.275 2.205-3.543.666-1.14 2.004 2.679 1.334-5.085 4.673 1.54 2.47-4.016-.868-4.482 2.67-6.02 2.872-1.34 2.004-.87-.668.87-2.002-4.014 1.534-.87-1.534-6.02 3.537-2.677-.867-4.885.868-1.336-.666m.2-129.063-.468-.468h-.2v.268h.468l.2.2ZM469.43 386.6l1.339.669-1.34-.668Zm0 0 1.339.669m-95.263-92.54.268-1.602-2.475-1.536 2.207 3.138Zm-5.35-12.285h-1.34l.67 2.003.67-1.735v-.268Zm-.67-2.002-.67.668 1.34.934-.67-1.602Zm6.02 14.287.268-1.602-2.475-1.536 2.207 3.138Zm-5.35-12.285h-1.34l.67 2.003.67-1.735v-.268Zm-.67-2.002-.67.668 1.34.934-.67-1.602Zm6.02 14.287.268-1.602-2.475-1.536 2.207 3.138Zm-5.35-12.285h-1.34l.67 2.003.67-1.735v-.268Zm-.67-2.002-.67.668 1.34.934-.67-1.602Zm4.013-4.673v-1.737l-1.537.4.2 1.136 1.337.2Zm-1.74-4.876.404.868.936-2-1.34.937v.2Zm1.74 4.876v-1.737l-1.537.4.2 1.136 1.337.2Zm-1.74-4.876.404.868.936-2-1.34.937v.2Zm1.74 4.876v-1.737l-1.537.4.2 1.136 1.337.2Zm-1.74-4.876.404.868.936-2-1.34.937v.2Zm23.817 68.103-1.54.2-1.335 1.802 2.207-.465.668-1.537Zm0 0-1.54.2-1.335 1.802 2.207-.465.668-1.537Zm0 0-1.54.2-1.335 1.802 2.207-.465.668-1.537Zm1.607-45.2-.47-.4-1.337-.67 1.336.67.47.4Z" />
		<text dy="3" font-family="serif" font-size="11" text-anchor="middle">
			<textPath href="#a" startOffset="50%">
				Terres Australes et Antarctiques Françaises
			</textPath>
		</text>
	</g>
</svg>