<svg xmlns="http://www.w3.org/2000/svg" viewBox="0 0 200 400">
		<defs>
			<radialGradient id="radial-gradient">
				<stop stop-color="#BD2031" offset="0%"/>
				<stop stop-color="#C8ADFF" offset="62%"/>
				<stop stop-color="#C8ADFF" offset="80%"/>
				<stop stop-color="#DDDDDD" offset="89%"/>
				<stop stop-color="#DDDDDD" offset="100%"/>
			</radialGradient>
			<radialGradient id="radial-gradient2" cx="50%" cy="50%" r="50%" fx="50%" fy="50%" spreadMethod="pad">
				<stop stop-color="#000" offset="0%"/>
				<stop stop-color="#BD2031" offset="100%"/>
			</radialGradient>
		</defs>
    <rect x="0" y="0" width="200" height="400" fill="#167036"/>
    <rect x="10" y="10" width="150" height="100" fill="#0E3619"/>
    <ellipse rx="55" ry="95" cx="50%" cy="50%" fill="#DDD"/>
    <path d="M15,-78 C118,-78 172,68 171,168 C130,161 84,142 84,108 A72,72 0 0,0 12,36" fill="#cca300"/>
    <polygon points="15,53 97,168 -18,168" fill="url(#radial-gradient)" />
    <polygon points="0,50 15,53 0,91" fill="#D21034"/>
    <g transform="translate(84,115) scale(0.4) rotate(4 1300 0)">
		<polygon points="-60 -69 -28 -69 434 -69 450 -9 465 -9 -5 -5 390 -69 400 -69 405 -7 405 -11 400 68 450 81 433 37 0 0" fill="#FFF"/>
    </g>
    <polygon points="15,53 86,145 15,137" fill="#FFF"/>
    <polygon points="20,104 62,145 20,137" fill="url(#radial-gradient)" />
    <polygon points="15,350 200,350 200,382 0,382 0,350" fill="#D21034"/>
    <rect rx="13" width="180" height="31" x="10" y="362" fill="url(#radial-gradient2)" />
    <rect x="155" y="378" width="15"  height="14" fill="#CF0824"/>
    <rect x="175" y="378" width="15" height="14" fill="#FFF"/></svg>