<svg xmlns="http://www.w3.org/2000/svg" viewBox="50 0 100 100">
		<path d="M 0 100 H 100 V 0 H 0 Z"></path>
		<path fill="rgb(255,255,0)" d="M 50 23 A 27 27 0 0 0 75 37 C 75 37 58 50 58 50 C 58 50 75 63 75 63 A 27 27 0 0 0 50 77 L 50 23 Z"></path>
		<path fill="rgb(152,40,13)" d="M 100 0 H 0 V 100 H 100 Z"></path>
		<path fill="rgb(255,255,0)" d="M 75 50 A 15 15 0 0 1 83 40.6 L 89.6 47.2 A 15 15 0 0 1 90 50 A 15 15 0 0 1 83 60.4 L 77 54 A 20 20 0 0 0 75 50 Z"></path>
		<path fill="rgb(255,255,0)" d="M 75 50 A 15 15 0 0 1 83 43.2 L 88.2 48.2 A 15 15 0 0 1 90 50 A 15 15 0 0 1 83 56.8 L 77 51 A 25 25 0 0 0 75 50 Z"></path></svg>