<svg xmlns="http://www.w3.org/2000/svg" viewBox="0 0 2000 1000">
	<rect width="2000" height="500" fill="blue"/>
	<rect width="2000" height="500" y="500" fill="lightblue"/>
	<path fill="gold" stroke="black" stroke-linejoin="round" stroke-width="1.692" d="M1111.267 412.975s-7.997 1.36-18.27-1.77c-10.273-3.129-14.424-1.859-17.612 0 0 0 4.168-8.254-5.978-14.772 0 0 3.297 8.335-1.268 12.227 0 0-2.029 1.91-4.438-.968 0 0-3.55-3.645-7.29-6.458 0 0 8.63-3.006 7.04-11.767-1.58-8.76-6.27-9.912-8.81-10.998 0 0 .89 3.964 0 6.65 0 0-9.38-5.243 3.36-12.661 12.75-7.418 10.4-11.766 8.12-15.54-2.28-3.772-7.162-7.93-9.572-9.4 0 .001 2.537 3.965 2.093 7.354-.445 3.39-6.215 5.563-5.074-.383 1.142-5.965-.063-4.943-.19-11.273 0 0 11.35 3.838 15.79-7.224 0 0 4.377-11.447-9.953-17.138 0-.001 3.487 4.666 1.775 8.183 0-.001-3.044 5.755-6.658 1.087-3.617-4.668-5.9-5.563-5.52-11.063 0 0 13 1.79 9.449-12.342 0 0-2.093 9.4-18.96-3.26 0 0 10.97-11.257 6.722-20.337 0 .001-1.331-4.156-13.253-1.726 0 0 10.337-6.522 5.96-12.086 0 .001-2.22-3.708-11.858 1.152 0 0 3.74-6.458-5.708-13.429 0 0-6.34 3.324-9.702 6.394 0 0-6.468-8.185-10.59-11.446 0 0-7.482 2.877-9.384 11.446 0-.001-3.488-4.157-11.414-6.076 0 0-3.804 7.032 1.142 13.172 0 0-3.68-.128-10.4-3.07 0 0-7.674-3.645-6.53 2.942 1.14 6.586 1.71 8.057 3.232 11.126 0 .001-17.217-3.998-16.486 5.31.507 6.457 2.916 12.021 8.243 16.69 0 0-9.638 12.596-17.882 3.133 0 0-2.853 3.07 3.297 11.125 0 0 6.15 6.78 1.077 11.063 0 0-6.785 5.436-10.082-5.115 0 0-10.97 10.935 1.965 19.312 0 0 8.308 4.73 16.805-2.56.001 0-2.599 20.975-10.716 16.946 0 0-4.882-3.58 3.868-7.866 0 .001-12.62-1.598-14.648 10.616 0 0-1.558 9.717 9.448 13.237 0 0 8.497 3.07-.317 9.654 0 .001-6.214 4.734-2.156 11.768 0 0 4.88 7.737-7.486 8.504 0 0-6.722-.066-9.13-.96 0 0-2.713 5.041-.819 10.801 0 0-6.159-4.588-20.172.49-14.014 5.077-12.936 1.496-14.078 3.031-1.14 1.535-3.868 6.714-3.868 6.714s7.356 8.953 7.483 8.761c.127-.193-1.395 10.23-1.395 10.23l3.615 1.727 28.85-12.853 29.296-15.267 23.554 1.445 14.937 3.557 19.62 1.43 14.051-7.498h20.355l22.388 11.156 25.556 15.245 13.317 2.336 10.26-.547v-20.68l-4.989-7.493Z"/>
	<path d="M1035.134 356.534s2.59 7.397 1.474 14.1c-.999 5.995.364 7.546 2.531 8.732 1.875 1.026 6.22-.77 6.743-5.47 0 0 5.136 10.024-4.85 16.787 0 0-7.182 4.412-13.27-1.487-2.144-2.078-3.09-7.818-2.044-13.141 0 0 1.57-7.22-1.046-14.628 0 0 4.09 4.364 3.043 13.066 0 0-2.092 15.614 9.465 14.847 0 0 7.99-.096 8.227-9.785 0 0-2.996 3.453-6.705 2.302-2.627-.815-5.042-3.357-4.613-7.364.447-4.204 1.615-11.532 1.045-17.96Zm-27.743 13.366s-2.727-3.07-2.917-10.168c-.19-7.098-1.522-8.824-2.473-9.655 0 0 1.395 6.138 1.015 9.912-.38 3.772.253 5.947.76 7.737 0 0-6.15.959-10.018-7.994-3.698-8.556-7.42-7.866-9.26-7.801 0 0 2.146.237 6.469 8.057 4.317 7.807 5.518 9.4 16.424 9.912Zm-28.789-18.545s3.551 8.505 3.678 12.982c0 0-8.243-2.75-10.462-9.912 0 0-8.815 3.005-5.58 13.173 0 0-7.61-2.686-11.034-8.889 0 0 4.249 3.197 8.18 4.604 0 0-.444-8.184 9.83-11.254 0 0 1.53 7.333 6.658 9.08-.002 0-.382-4.605-1.27-9.784Zm13.57-14.58s2.854 4.157 8.688 4.35c2.79.09 5.788-.538 8.687-4.35 0 0-.38 7.226-8.687 7.29 0 0-8.688.32-8.688-7.29Zm-35.938 49.399s4.328 3.933 5.232 5.228c0 0 3.044 2.973 5.657-.872 0 0 3.332-6.15 7.422-5.986 0 0-2.902 2.014-6.16 7.83 0 0-.879 2.145-3.305 2.386-1.136.112-2.568.479-4.737-1.786 0-.001-1.874-2.291-4.109-6.8Zm65.806-3.997s-.635 12.342-11.922 15.347c0 0 1.586-2.238-.95-8.376 0 0-2.474-3.582-2.283-9.145 0 0-3.593 2.81.507 10.232 2.473 4.477.317 9.848-.444 10.04-.762.191 18.642-2.558 15.09-18.098Z"/>
	<g fill-rule="evenodd" stroke="black" transform="translate(668.694 226.631) scale(.55218)">
		<path fill="gold" stroke-linecap="round" stroke-linejoin="round" stroke-width="3.063" d="M732.931 762.447c-1.7-.245-3.339-1.234-4.611-2.994L250.045 93.711c-2.862-3.975-2.786-10.475.168-14.436 3.004-3.954 7.804-3.88 10.71.17l478.28 665.674c2.857 4.043 2.78 10.542-.167 14.436-1.7 2.223-3.955 3.2-6.105 2.892h.01z"/>
		<circle cx="138.45" cy="326.15" r="3.393" fill="gold" stroke-linecap="round" stroke-linejoin="round" stroke-width=".518" transform="matrix(4.99986 .71886 -.55345 6.77358 -256.242 -2222.117)"/>
		<path fill="white" stroke-width="3.063" d="M233.795 175.041c18.031-12.333 37.055-22.102 55.44-28.466l.737-.255 15.734 20.79 15.733 20.79-3.253 1.3c-21.196 8.46-40.74 20.07-61.71 36.658-21.38 16.911-34.058 29.196-74.714 72.401-30.838 32.77-41.852 43.645-59.967 59.218-13.597 11.687-30.706 23.801-44.405 31.442-4.543 2.535-11.987 6.39-12.225 6.334-.198-.045-15.355-15.416-21.126-21.42-4.9-5.091-16.438-17.625-16.433-17.846 0-.064 1.61-.93 3.58-1.925 16.61-8.39 36.888-22.237 53.126-36.281 17.46-15.099 29.912-27.39 57.497-56.742 33.085-35.206 45.871-48.094 61.202-61.683 6.221-5.515 25.104-20.43 30.784-24.315Z" class="fil2 str6" font-family="sans" font-size="22" font-weight="400" letter-spacing="0" style="line-height:125%" word-spacing="0"/>
		<path fill="white" stroke-width="3.063" d="M203.602 139.168c17.379-12.256 34.257-21.401 52.512-28.455l4.975-1.923 14.617 19.113 14.616 19.112-7.793 3.034c-9.797 3.814-18.085 7.765-28.036 13.365-13.932 7.84-18.59 11.032-34.837 23.866-23.534 18.592-33.377 28.107-77.46 74.877-28.406 30.137-39.772 41.336-56.82 55.985-11.404 9.798-25.533 20.262-36.467 27.007-6.2 3.825-20.21 11.505-20.74 11.372-.15-.034-3.25-3.8-6.89-8.37-6.65-8.346-14.39-19.446-18.55-26.594L.5 317.72l2.002-.942c10.491-4.941 25.81-14.644 39.773-25.19 21.543-16.272 38.078-31.977 74.99-71.225 20.822-22.143 28.02-29.64 36.604-38.14 17.782-17.601 35.975-33.352 49.733-43.054z" class="fil1 str7" font-family="sans" font-size="22" font-weight="400" letter-spacing="0" style="line-height:125%" word-spacing="0"/>
		<path fill="white" stroke-width="3.063" d="M271.875 214.525c16.21-11.915 31.974-22.263 45.536-29.892l1.094-.616 18.026 23.82 18.027 23.82-3.278 1.855c-10.727 6.076-24.56 14.97-36.749 23.634-8.63 6.135-14.53 10.588-24.77 18.685-21.64 17.12-35.97 29.666-81.24 71.123-43.91 40.218-66.41 59.17-91.95 77.469-8.01 5.739-22.04 15.16-22.69 15.237-.09.012-.32-.661-.49-1.497-2.06-9.993-7.13-20.455-13.77-28.4-4.48-5.367-10.77-11.334-17.64-16.722-1.291-1.011-2.34-1.88-2.33-1.93.03-.077 1.52-1.05 3.36-2.218 22.365-14.259 50.696-36.254 78.885-61.242 8.947-7.93 19.25-17.25 35.7-32.3 30.24-28.25 61.275-55.69 94.292-80.82Z" class="fil0 str6" font-family="sans" font-size="22" font-weight="400" letter-spacing="0" style="line-height:125%" word-spacing="0"/>
		<path fill="gold" stroke-linecap="round" stroke-linejoin="round" stroke-width="3.063" d="M467.069 762.447c1.7-.245 3.339-1.234 4.611-2.994L949.955 93.711c2.862-3.975 2.786-10.475-.168-14.436-3.004-3.954-7.804-3.88-10.71.17l-478.28 665.674c-2.857 4.043-2.781 10.542.167 14.436 1.7 2.223 3.955 3.2 6.105 2.892h0z"/>
		<circle cx="138.45" cy="326.15" r="3.393" fill="gold" stroke-linecap="round" stroke-linejoin="round" stroke-width=".518" transform="matrix(-4.99986 .71886 .55345 6.77358 1456.242 -2222.117)"/>
		<path fill="white" stroke-width="3.063" d="M966.205 175.041c-18.031-12.333-37.055-22.102-55.44-28.466l-.737-.255-15.734 20.79-15.733 20.79 3.253 1.3c21.196 8.46 40.74 20.07 61.71 36.658 21.38 16.911 34.058 29.196 74.714 72.401 30.838 32.77 41.852 43.645 59.967 59.218 13.597 11.687 30.706 23.801 44.405 31.442 4.543 2.535 11.987 6.39 12.226 6.334.197-.045 15.354-15.416 21.125-21.42 4.9-5.091 16.438-17.625 16.433-17.846 0-.064-1.61-.93-3.58-1.925-16.61-8.39-36.888-22.237-53.126-36.281-17.46-15.099-29.912-27.39-57.497-56.742-33.085-35.206-45.87-48.094-61.202-61.683-6.22-5.515-25.104-20.43-30.784-24.315Z" class="fil2 str6" font-family="sans" font-size="22" font-weight="400" letter-spacing="0" style="line-height:125%" word-spacing="0"/>
		<path fill="white" stroke-width="3.063" d="M996.398 139.168c-17.38-12.256-34.257-21.401-52.512-28.455l-4.975-1.923-14.617 19.113-14.616 19.112 7.793 3.034c9.797 3.814 18.085 7.765 28.036 13.365 13.932 7.84 18.591 11.032 34.837 23.866 23.534 18.592 33.377 28.107 77.46 74.877 28.406 30.137 39.772 41.336 56.82 55.985 11.404 9.798 25.533 20.262 36.467 27.007 6.2 3.825 20.204 11.505 20.738 11.372.148-.034 3.252-3.8 6.891-8.37 6.651-8.346 14.388-19.446 18.547-26.594l2.233-3.837-2.002-.943c-10.49-4.94-25.81-14.644-39.773-25.189-21.543-16.273-38.078-31.978-74.989-71.226-20.823-22.143-28.02-29.64-36.605-38.139-17.782-17.602-35.975-33.353-49.733-43.055Z" class="fil1 str7" font-family="sans" font-size="22" font-weight="400" letter-spacing="0" style="line-height:125%" word-spacing="0"/>
		<path fill="white" stroke-width="3.063" d="M928.125 214.524c-16.209-11.914-31.974-22.262-45.536-29.89l-1.094-.618-18.026 23.82-18.027 23.82 3.278 1.856c10.727 6.076 24.56 14.971 36.75 23.634 8.632 6.134 14.535 10.587 24.772 18.685 21.643 17.119 35.973 29.666 81.242 71.123 43.916 40.218 66.412 59.17 91.955 77.469 8.01 5.738 22.039 15.16 22.689 15.237.1.012.319-.661.49-1.498 2.061-9.992 7.13-20.454 13.768-28.4 4.482-5.367 10.776-11.334 17.646-16.72 1.292-1.012 2.337-1.88 2.326-1.933-.025-.075-1.52-1.048-3.355-2.216-22.365-14.26-50.696-36.254-78.885-61.243-8.947-7.93-19.25-17.254-35.7-32.302-30.24-28.252-61.275-55.697-94.292-80.824Z" class="fil0 str6" font-family="sans" font-size="22" font-weight="400" letter-spacing="0" style="line-height:125%" word-spacing="0"/>
	</g>
	<g stroke="black" stroke-width="1.664">
		<path fill="lightblue" d="M974.02 359.792c15.11 5.645 31.387 7.819 50.943.245 5.873 5.678 3.657 12.296-7.357 19.934-16.044 7.576-32.932 1.603-37.626-1.388-6.762-6.173-10.561-12.402-5.96-18.791z"/>
		<path fill="maroon" d="m963.283 426.342 1.875-1.647c-12.556-7.83-16.07-21.151-6.404-20.588h80.526c13.842-2.655 8.764 12.003-4.463 22.222l.218.285c-5.153 3.38-10.253 3.881-12.918 3.818l-13.3-11.62-18.628.165-13.653 12.818c-4.538-1.334-9.07-2.697-13.253-5.453z"/>
		<path fill="silver" d="M960.511 403.149c5.23 2.584 8.796 7.502 11.549 13.562 3.49 9.362 7.421 16.618 14.342 9.64 1.458 5.998 4.803 11.583 14.157 15.85 7.19-3.088 11.02-8.808 13.78-15.36 3.432 1.47 6.522 4.397 12.837-5.882 4.349-7.72 8.695-15.065 13.04-17.647-6.58-1.176-13.162-1.01-19.743-6.699-3.287-8.977 1.084-14.337 3.91-20.425 4.759-6.366 3.839-11.2 2.237-15.849-4.604-17.07-43.77-19.227-50.666-2.288 7.2 10.15 31.797 8.968 50.477 2.778 3.974 8.392-1.489 12.92-4.47 18.464-15.457 6.554-30.675 5.537-45.635-3.595 2.769 6.05 9.052 9.84 5.029 20.261-2.187 3.563-9.95 6.308-20.863 7.19z"/>
		<path fill="gold" d="M999.343 442.547c-4.542-2.423-8.036-4.969-10.952-7.98-1.02-1.052-2.62-3-3.191-3.881l-.212-.328-.62.408c-2.971 1.954-5.743 2.272-8.09.927-1.567-.897-2.923-2.373-4.525-4.925-.936-1.49-1.646-2.804-3.387-6.26-1.474-2.93-1.947-3.82-2.907-5.478-1.581-2.73-3.135-4.947-4.363-6.223-1.115-1.159-2.323-1.925-3.038-1.927-1.951-.005-1.82 3.984.258 7.95 1.532 2.918 3.945 5.735 6.81 7.95l1.04.803-.29.318c-1.206 1.318-2.246 2.398-2.308 2.398-.092-.01-1.275-1.02-2.434-2.08-5.216-4.81-8.388-9.7-9.275-14.29-.213-1.11-.211-3.1.005-4.03.562-2.43 2.07-4.13 4.104-4.61.84-.2 2.086-.157 2.91.11 1.75.552 4.402 2.09 6.407 3.7 3.426 2.75 5.74 5.931 7.65 10.52 2.212 5.31 4.498 8.86 6.503 10.1.818.502 1.216.63 2.04.63.608 0 .806-.029 1.205-.176.993-.366 2.163-1.41 3.166-2.828.305-.434.578-.788.605-.788.027 0 .176.263.331.586 2.66 5.54 6.93 10.155 13.41 14.493l1.107.741.331-.145c.733-.323 2.221-1.26 3.157-1.99 2.812-2.19 4.702-4.658 7.962-10.397.765-1.347 1.4-2.457 1.413-2.467.012-.01.237.264.5.608 1.002 1.316 2.08 2.241 3.04 2.61.467.18.66.215 1.17.22.522 0 .692-.03 1.194-.226 1.765-.68 3.637-2.86 5.857-6.819.724-1.29 2.716-5.196 3.315-6.498 1.768-3.84 3.985-7.072 6.31-9.198.893-.815 2.41-1.96 3.038-2.292 3.493-1.849 7.321-1.05 8.93 1.86.773 1.4.981 3.332.58 5.371-.38 1.925-1.908 5.434-3.428 7.873-1.37 2.21-2.74 3.837-5.01 5.97-1.14 1.07-4.2 3.756-4.28 3.756-.07 0-2.74-2.312-2.74-2.374 0-.024.279-.286.61-.579 3.5-3.058 6.61-7.175 8.49-11.232 1.32-2.837 1.71-5.155.988-5.807-.555-.5-1.716-.102-3.43 1.174-1.732 1.29-2.764 2.426-4.18 4.598-1.17 1.795-2.09 3.423-3.583 6.335-2.886 5.623-5.51 9.38-7.842 11.23-2.4 1.904-4.695 1.926-7.156.065l-.903-.682-.316.48c-2.261 3.435-4.54 6.448-6.091 8.061-1.216 1.266-2.935 2.682-4.17 3.435-1.203.735-3.448 1.73-4.201 1.86-.17.03-.473-.102-1.498-.649Zm.42-13.884c-1.467-1.175-2.123-1.775-3.428-3.136-2.15-2.24-4.427-5.16-7.003-8.98l-.47-.696-1.422 1.5-2.716 2.867c-.712.75-1.326 1.34-1.365 1.308-.103-.083-1.335-2.164-2.416-4.081l-2.611-4.63c-3.297-5.841-5.254-8.63-7.02-10-1.332-1.036-2.451-1.112-3.497-.237-.14.115-.28.21-.311.21-.08 0 .23-1.328.4-1.727.48-1.112 1.295-1.648 2.318-1.528 2.562.3 6.807 4.687 11.037 11.405.988 1.57 2.007 3.322 2.582 4.444.137.267.278.478.313.47.035-.01 1.237-1.386 2.672-3.057l2.61-3.04.265.356c.147.197 1.233 1.882 2.413 3.745 2.216 3.5 2.612 4.084 3.61 5.33 1.313 1.639 3.304 3.507 5.034 4.722l.87.612.402-.265c.483-.32 2.17-1.762 2.97-2.54 2.455-2.39 4.382-5.156 6.41-9.205.397-.79.773-1.55.836-1.69.062-.138.138-.251.168-.251s1.17 1.523 2.533 3.383c1.362 1.86 2.502 3.363 2.533 3.338.03-.026.46-.937.956-2.025 2.364-5.194 3.28-7.027 4.749-9.492 1.245-2.092 3.194-4.831 4.073-5.724.75-.782 1.632-1.177 2.676-1.223.597-.023.75-.005 1.176.14 1.267.44 2.09 1.738 1.914 3.019l-.06.437-.358-.16c-1.4-.627-3.015.574-5.372 3.997-.885 1.285-2.387 3.806-5.097 8.554-1.232 2.159-2.818 4.699-3.615 5.789-.358.49-.68.904-.715.92-.034.018-.952-.956-2.04-2.164a632.188 632.188 0 0 0-2.095-2.324c-.11-.117-.21.008-1.152 1.44-2.943 4.48-5.57 7.295-9.064 9.716-1.042.722-2.245 1.48-2.35 1.48-.035-.001-.64-.461-1.342-1.024Zm.766-8.038c-1.54-.224-2.844-1.724-3.344-3.851-.181-.773-.2-2.537-.036-3.32.158-.748.625-1.87.994-2.386a5.21 5.21 0 0 1 .683-.75l.388-.339v-2.731l-.963-.122c-6.876-.87-14.44-4.025-18.225-7.6-1.043-.986-1.364-1.462-1.622-2.406-.188-.686-.22-.978-.224-1.98-.005-1.054.018-1.22.197-1.64.343-.8.818-1.31 1.577-1.688.294-.147 1.479-.494 1.684-.494.056 0 .086.255.08.688-.012 1.302.642 2.597 2.06 4.076 1.745 1.816 4.704 3.677 7.724 4.859 2.145.839 5.082 1.567 7.305 1.81l.407.045v-.478h3.428v.307c0 .26.023.3.15.273.082-.02.477-.053.878-.078.87-.054 2.072-.238 3.128-.478 4.72-1.073 8.6-3.606 11.704-7.637.796-1.035 1.459-1.401 2.235-1.238 1.046.22 1.626 1.266 1.636 2.949.008 1.52-.181 1.94-1.558 3.453-4.302 4.725-10.03 7.26-16.995 7.524l-1.178.044v2.542l.388.337c.213.186.52.524.683.75.37.518.836 1.64.994 2.387.165.783.146 2.547-.036 3.32-.594 2.523-2.308 4.116-4.142 3.85Zm-.33-32.75c-.44-.135-.761-.295-.997-.492-.27-.226-.588-.68-.588-.837 0-.066-.194-.199-.47-.32-.69-.304-1.048-.733-1.196-1.426l-.052-.246-.62-.079c-.936-.119-2.703-.405-3.141-.509-.223-.052-.401-.065-.417-.03-.153.351-1.13 1.076-1.45 1.076-.065 0-.19.128-.28.285-.398.705-1.266 1.19-2.127 1.19-.678 0-1.091-.12-1.571-.458-.533-.375-.818-.81-.943-1.442-.092-.46-.118-.503-.385-.616-.855-.36-1.283-1.396-.901-2.178l.147-.3-1.013-.457a54.052 54.052 0 0 1-1.61-.756c-.328-.164-.634-.299-.68-.299-.047 0-.086.083-.087.185-.006.262-.304.75-.625 1.012-.15.123-.466.303-.702.401-.593.246-1.61.257-2.185.023-.467-.19-.982-.568-1.115-.817-.086-.163-.155-.189-.626-.23-.7-.06-1.167-.23-1.626-.59-1.18-.918-.73-2.506.84-2.974l.36-.11-.668-.68c-3.446-3.5-5.625-6.993-6.095-9.747-.134-.785-.114-2.204.041-2.899.154-.7.56-1.674.95-2.275.7-1.09 1.922-2.282 3.192-3.11l.61-.397-.333-.117a2.84 2.84 0 0 1-.664-.374c-1.168-.913-.85-2.377.64-2.949.654-.252 1.573-.267 2.17-.037 1.095.423 1.66 1.355 1.33 2.193-.076.183-.126.336-.116.34.01.006.206.064.437.131.465.137.984.471 1.25.807.425.54.387 1.392-.085 1.904l-.248.267 1.52.502c1.93.637 1.9.632 1.902.435.005-.249.324-.738.666-1.017.488-.397.895-.533 1.7-.567l.7-.03.09-.278c.535-1.666 3.527-1.948 4.6-.433.216.307.252.427.25.86 0 .395-.045.567-.2.797-.16.237-.176.306-.084.352a.563.563 0 0 0 .18.058c.173.003.881.608 1.06.906.242.404.27.976.063 1.376-.077.15-.125.284-.107.296.123.09 5.088.766 5.166.704.016-.015-.025-.203-.094-.416-.303-.928.48-1.94 1.7-2.198.295-.062.326-.09.326-.293 0-.554.835-1.32 1.645-1.51.442-.104 1.183-.104 1.59 0 .777.197 1.501.797 1.61 1.331.027.131.065.301.084.377.025.087.194.195.463.294 1.164.426 1.714 1.504 1.217 2.383l-.17.303h.322c.704 0 3.714-.257 4.36-.37.187-.034.19-.042.056-.243-.186-.28-.25-.836-.135-1.169.138-.394.572-.87.985-1.08l.36-.186-.16-.373c-.266-.62-.088-1.23.507-1.747 1.264-1.096 3.616-.728 4.22.66.055.125.1.344.1.486 0 .254.005.258.327.258.88.001 1.94.597 2.165 1.215.06.163.137.322.173.355.065.06.91-.184 2.476-.713.448-.149.822-.277.832-.282.01-.004-.087-.172-.215-.374-.71-1.128.204-2.41 1.892-2.65.317-.045.322-.05.323-.356 0-.38.297-.904.681-1.205.45-.35.905-.5 1.641-.535.566-.026.72-.008 1.115.135.644.231.97.47 1.242.903.32.511.324 1.07.015 1.56l-.22.346 1 .785c2.254 1.77 3.297 3.59 3.41 5.95.095 1.99-.527 3.896-2.08 6.373-.663 1.058-1.972 2.795-2.65 3.52l-.288.31.4.271c.58.39.83.812.83 1.4.002.511-.188.895-.628 1.266-.326.272-1.18.577-1.62.577h-.367v.324c0 .7-.504 1.341-1.317 1.673-.369.15-.55.18-1.13.181-.606.004-.76-.023-1.2-.2a2.478 2.478 0 0 1-1.114-.868c-.078-.106-.25-.053-1.756.536l-1.685.661c-.01.005.061.19.16.41.371.864-.16 1.84-1.22 2.23-.298.11-.324.142-.358.454-.13 1.212-1.836 2.025-3.32 1.583-.619-.185-1.052-.483-1.366-.943-.15-.226-.314-.408-.36-.408-.173 0-.913-.654-1.015-.896-.079-.184-.144-.24-.249-.214-.677.166-3.963.708-4.294.708-.038 0-.115.14-.17.311-.055.171-.153.39-.216.486-.178.268-.7.646-1.077.78-.215.075-.34.164-.34.24 0 .067-.08.288-.177.49-.214.45-.834.916-1.424 1.073-.463.123-1.325.133-1.699.018Zm-2.048-5.596c-.072-.273-.368-2.554-.516-3.975-.445-4.264-.372-8.009.212-11.027.092-.476.168-.906.168-.956 0-.06-.115-.09-.364-.09-.356 0-2.34-.18-3.535-.33a76.215 76.215 0 0 1-4.186-.636c-.7-.129-1.303-.213-1.341-.179-.09.071-.318 1.52-.43 2.706-.395 4.03.555 8.342 2.655 12.133l.606 1.093c.167.307.19.321.826.485 1.5.385 4.14.835 5.453.93.188.014.375.03.414.036.039.007.049-.07.022-.172Zm6.462.048c1.89-.188 5.604-.878 5.886-1.094.136-.104.823-1.743 1.185-2.828 1.332-3.99 1.474-7.73.452-11.94-.098-.406-.204-.76-.235-.79-.032-.027-.44.01-.91.084-1.9.297-5.344.604-6.785.605-.831 0-.777-.112-.54 1.114.76 3.922.718 8.53-.125 13.626a97.1 97.1 0 0 0-.213 1.321c0 .016.125.017.278.003l1.007-.1Zm12.33-3.08c.785-.309.912-.389 1.84-1.16 3.802-3.166 6.362-6.709 7.35-10.18.266-.928.294-2.92.05-3.622-.235-.688-.766-1.466-1.253-1.84l-.43-.33-1.524.559c-1.47.54-4.122 1.4-5.067 1.642-.348.09-.448.144-.416.227.767 2.038.952 2.766 1.106 4.36.268 2.79-.547 6.317-2.292 9.92-.201.416-.33.756-.287.756.043 0 .458-.15.923-.332Zm-31.793-.893c-3.027-5.292-3.73-9.667-2.25-13.993.118-.345.199-.64.179-.655-.02-.017-.7-.224-1.508-.463a121.48 121.48 0 0 1-3.32-1.052l-1.85-.62-.31.295c-.87.771-1.38 2.306-1.25 3.78.32 3.574 3.06 7.801 7.51 11.597.838.712 1.075.87 2.038 1.34.599.298 1.116.54 1.149.54.033.004-.134-.335-.371-.75Z"/>
	</g>
	<g transform="translate(1172.085 -467.608) scale(.7745)">
		<path fill="gold" stroke="black" stroke-linejoin="round" stroke-width="2.184" d="M-378.586 1168.217s14.41 7.348 20.428-1.57c0 0 7.86-14.985-9.395-20.186 0 0 9.395-11.27-.675-21.673 0 0-5.281-5.573-14.492-1.486 0 0-3.807-7.926-12.772-7.679 0 0-7.86-.124-10.562 8.546 0 0-10.807-4.46-16.825 1.982 0 0-9.948 11.146 3.93 19.94l9.99.908 9.824-4.54 10.971 3.136c-.001 0-2.826 11.104 9.578 22.622Z"/>
		<path fill="white" stroke="black" stroke-width="1.637" d="M-56.923 1141.863c17.359-1.636 23.49 13.015 23.49 13.015 9.098 21.348-10.225 32.742-10.225 32.742 1.474 4.79 1.637 11.064 1.637 11.064 27.182 3.303 22.43 33.852 22.43 33.852l-9.002-7.43c-15.72-6.11-31.931 7.265-43.557 29.723-11.626 22.458-6.059 33.026-4.094 59.613 1.965 26.586 45.195 42.44 45.195 42.44s-20.469 52.676-33.732 86.528c-13.264 33.852-40.937 19.816-48.961 12.685-8.024-7.13-10.03-3.17-14.082 0-4.053 3.17 18.176 20.507-22.27 36.855-12.73 5.145-34.967 13.433-42.59 18.823-16.598 11.736-12.58 25.83-14.848 24.858-8.008-3.413-23.877-3.107-31.964.206-1.977.81-2.124-11.925-3.88-14.31-1.804-2.456-7.34-6.927-10.043-8.589-10.48-6.44-28.165-12.055-47.487-21.467-19.322-9.412-18.831-21.467-18.667-23.944.164-2.477 6.714-22.623-15.917-6.605-22.63 16.018-41.886-7.628-41.886-7.628-4.421-5.812-23.252-56.278-23.252-56.278-5.076-18.825-15.065-40.787-15.065-40.787.49-.165-.982 2.312 15.72-7.266s24.184-25.513 29.966-41.283.164-42.77-1.965-48.218c-2.13-5.449-14.574-30.433-29.983-35.668-15.41-5.236-25.746 7.76-25.746 7.76-.018 0-4.773-30.549 22.41-33.85 0 0 .166-6.277 1.639-11.066 0 .001-19.322-11.393-10.224-32.74 0 0 6.13-14.65 23.489-13.016l-4.2 7.944s-4.372 43.595 59.438 14.366c63.812-29.23 61.897-34.678 98.249-16.348l26.527-.495s38.316-17.727 50.597-10.103c12.28 7.625 56.494 32.394 56.494 32.394s42.737 16.028 51.09-13.536l-4.75-14.222Z"/>
		<path fill="gold" stroke="black" stroke-linejoin="round" stroke-width="2.184" d="M-319.712 1470.078s-12.527.743-18.913 3.963c-6.386 3.22-11.299 6.688-18.667 11.394 0 0-3.44 4.582-17.93 1.796 0 0-25.054-6.007-25.054 13.56 0 0-29.966 2.478-17.685 28.734 0 0 8.35 20.559 25.545 5.945 0 0-11.053 15.853 10.316 22.045 0 0 15.23 3.715 19.65-11.89 0 0 2.456-6.192-3.44-13.871 0 0 7.37-1.486 12.528-9.412 0 0-15.72 19.868 1.474 27.025 0 0 21.608 5.423 22.84-17.117 0 0-1.764-10.403 6.61-14.12 0 0 17.219-3.962 25.078-23.16 0 0-24.758-13.185-22.352-24.892Zm-50.588-197.564s-19.322-8.9-28.492 0c0 0-12.772-7.91-26.2 0 0 0-12.772 8.347-21.615 17.541 0 0-6.222 5.329-3.93 22.123 0 0 3.275 11.84 1.31 17.785 0 0-4.257-.843-12.772 9.247 0 0-10.807 12.515-20.305 1.47 0 0 2.947 15.374 20.796 12.897 0 0-8.68 6.77-1.146 24.274 0 0 5.567 12.385-3.275 27.907 0 0 15.556-6.275 14.9-24.605 0 0-1.31-12.385 3.276-21.137 0 0-4.585 7.958 6.059 24.935 0 0 8.187 12.22 1.474 24.935 0 0 15.392-5.615 13.92-24.274-1.475-18.66-10.808-10.9-4.75-28.072 0 0 1.474 8.796 6.06 13.232 4.584 4.437 10.479 11.868 8.023 24.252 0 0 9.17-11.394 7.04-23.118-2.128-11.724-4.42-15.27-4.42-15.27l28.984-16.435 14.41-26.09.653-41.597Z"/>
		<path fill="none" stroke="black" stroke-miterlimit="10" stroke-width="2.183" d="M-414.349 1346.146s-11.954-.826-13.919-10.073m-20.96-6.11s4.166-.165 7.931 3.633c.001 0 2.877 4.293 6.971 3.798"/>
		<path d="M-396.664 1310.973s-6.222 0-9.661-2.972c0 0-3.602-2.477-5.73 1.486 0 0-3.276 5.615 2.783 8.092 0 0 7.532 3.79-4.42 11.39 0 0 14.245-5.12 8.514-12.06 0 0-6.222-4.46-3.93-6.11 0 0 .655-1.32 3.11.33 2.457 1.65 7.369.99 9.334-.17Zm28.564 217.057s-11.299-6.349-20.632 1.082c0 0 .954-4.128 8.091-5.945 0 0 3.862-10.899 14.67-9.908 0 0-4.42 5.284-10.316 9.743 0 0 6.222.643 8.187 5.028Z"/>
		<path fill="lightblue" stroke="black" stroke-miterlimit="2.613" stroke-width="1.637" d="M-407.891 1554.295s-17.93-11.27-8.228-30.22c0 0 2.825-5.448 8.228-4.334 0 0 11.176 3.468 2.456 18.95 0 0-4.42 10.03-2.456 15.604Zm36.352 17.834s-25.54-11.65-17.68-31.46c0 0 2.43-6.69 8.09-6.2 0 0 9.85.49 7.88 13.62 0 0-2.95 12.88 1.72 24.024Z"/>
		<path d="M-376.942 1498.178s-7.676 5.67-10.797 9.468c.01 0-3.12-3.88-7.21-6.234 0 0 4.72-.62 7.22 1.5.007 0 3.927-3.799 10.806-4.734Z"/>
		<path fill="lightblue" stroke="black" stroke-miterlimit="2.613" stroke-width="1.637" d="M-354.222 1567.175s20.018-5.078 16.334-25.76c0 0-1.965-9.04-10.44-7.802 0 0-10.211 2.607-3.561 15.755 0 0 3.93 9.386-2.333 17.807Z"/>
		<path fill="gold" stroke="black" stroke-miterlimit="2.613" stroke-width="2.183" d="M-263.778 1129.621s12.894 3.953 19.897 6.808c0 0 18.667 8.422 42.37 0 0 0 16.029-6.348 18.168-6.808l-12.273 18.697-.614 9.66 7.68 11.27s-4.61 1.858-18.365-6.563c0 0-15.23-11.765-33.405 0 0 0-9.948 6.738-18.3 6.565l11.79-13.166-4.543-11.854-12.405-14.609Z"/>
		<path fill="white" d="M-346.485 1542.467s.737-.99-.123-1.424c0 0-.86-.37-1.474.836 0 0-2.088 3.313-.32 7.848 0 0 1.67 3.144.859 6.426 0 0-.109.93.627 1.053 0 0 .706-.248.844-.929 0 0 1-3.204-.721-6.339.002 0-2.087-4.87.308-7.471Z"/>
		<path fill="gold" stroke="black" stroke-linejoin="round" stroke-width="2.184" d="M-69.202 1168.217s-14.41 7.348-20.428-1.57c0 0-7.86-14.985 9.395-20.186 0 0-9.395-11.27.675-21.673 0 0 5.281-5.573 14.492-1.486 0 0 3.807-7.926 12.772-7.679 0 0 7.86-.124 10.562 8.546 0 0 10.807-4.46 16.825 1.982.01 0 9.95 11.146-3.92 19.94l-9.99.908-9.82-4.54-10.97 3.136s2.827 11.104-9.577 22.622Z"/>
		<path fill="gold" stroke="black" stroke-miterlimit="2.613" stroke-width="2.183" d="M-183.335 1156.575s-.363 2.973-3.31 3.303c0 0-3.076.99-4.869-2.838 0 0-.207-.866-.256-1.29-.206-1.792-.817-6.937 4.751-11.147 0 0 9.088-7.43 26.445 1.57 0 0 13.755 6.604 23.252 12.22 0 0 24.562 13.21 27.51 14.2 0 0 10.807 5.45 27.346 6.11 0 0 22.597 1.651 32.177-14.2 0 0 7.287-12.056 0-19.734 0 0-2.947-3.468-7.792-2.829-2.034.268-4.28 1.203-6.454 3.737 0 0-3.521 5.12.573 8.917 0 0 5.322 3.26 7.205-3.633 0 0 .082-.495.246.124.1.4 1.3 5.656-1.52 10.114 0 0-13.64 20.63-51.142-.75l-49.453-27.735s-24.808-12.715-39.627 7.183c0 0-11.952 16.513 3.44 27.33 0 0 11.463 6.852 18.668-4.047 0 0 5.977-10.734-3.44-15.44 0 0-8.27-3.88-11.543 4.376-3.275 8.257 6.386 10.403 7.287 4.54 0 .002.245-1.402.49-.08Z"/>
		<path fill="white" d="M-412.865 1528.596s.983-1.3.307-1.858c0 0-.43-.62-1.597.867 0 0-5.424 6.065-1.105 15.388 0 0 .49 1.331 1.35.898.001 0 .738-.37.062-1.48.001 0-3.868-7.67.983-13.81Z"/>
		<path fill="none" stroke="black" stroke-miterlimit="10" stroke-width="2.183" d="M-332.403 1522.507s.82-2.807-1.146-5.78c.01 0-1.3-2.147-.81-4.954"/>
		<path fill="gold" stroke="black" stroke-linejoin="round" stroke-width="2.184" d="M-127.579 1470.077s12.527.743 18.913 3.963c6.386 3.22 11.299 6.688 18.667 11.394 0 0 3.439 4.582 17.93 1.796 0 0 25.054-6.007 25.054 13.56 0 0 29.966 2.478 17.685 28.734 0 0-8.35 20.56-25.545 5.945 0 0 11.053 15.853-10.316 22.045 0 0-15.229 3.715-19.65-11.89 0 0-2.456-6.192 3.44-13.871 0 0-7.37-1.486-12.528-9.413 0 0 15.72 19.868-1.474 27.025 0 0-21.608 5.423-22.84-17.117 0 0 1.764-10.403-6.611-14.12 0 0-17.218-3.962-25.077-23.159.001.002 24.758-13.185 22.352-24.892Z"/>
		<path fill="white" d="M-380.79 1560.405s-5.613-5.381-4.83-15.027c0 0 .327-2.064-.704-2.349 0 0-1.099-.46-1.262 1.936 0 0-1.556 10.073 5.24 15.853 0 0 .463.578 1.214.413 0 0 .806-.18.342-.826Z"/>
		<path fill="gold" stroke="black" stroke-miterlimit="2.613" stroke-width="2.183" d="M-62.263 1344.998c-21.84-12.393-26.63-39.887-26.63-39.887-5.281-27.371 5.404-49.044 5.404-49.044 14.123-29.848 38.325-35.4 38.325-35.4s-23.71 16.451-30.342 38.62c0 0-5.158 18.7-2.21 37.155 2.946 18.454 1.84 13.747 6.385 27.99l9.06 20.566Z"/>
		<path fill="gold" stroke="black" stroke-linejoin="round" stroke-width="2.184" d="M-76.571 1272.514s19.322-8.9 28.492 0c0 0 12.772-7.91 26.2 0 0 0 12.772 8.347 21.615 17.541 0 0 6.222 5.329 3.93 22.123 0 0-3.275 11.84-1.31 17.785 0 0 4.257-.843 12.772 9.247 0 0 10.807 12.515 20.305 1.47 0 0-2.947 15.374-20.796 12.897 0 0 8.68 6.77 1.146 24.274 0 0-5.567 12.385 3.275 27.907 0 0-15.556-6.275-14.9-24.605 0 0 1.31-12.385-3.276-21.137 0 0 4.585 7.958-6.059 24.935 0 0-8.187 12.22-1.474 24.935 0 0-15.392-5.614-13.919-24.274 1.474-18.66 10.807-10.9 4.75-28.072 0 0-1.475 8.796-6.06 13.232-4.585 4.436-10.48 11.868-8.024 24.252 0 0-9.17-11.394-7.04-23.118 2.128-11.724 4.42-15.27 4.42-15.27l-28.984-16.435-14.41-26.09-.653-41.597Z"/>
		<path fill="none" stroke="black" stroke-miterlimit="2.613" stroke-width="2.183" d="M-172.2 1134.695s-20.394-.908-19.654 20.23"/>
		<path fill="gold" stroke="black" stroke-miterlimit="2.613" stroke-width="2.183" d="M-38.049 1359.233c-35.493-10.899-45.195-49.044-45.195-49.044-7.246-28.61 4.421-53.626 4.421-53.626 16.21-38.071 43.639-38.063 43.639-38.063 13.755-.372 15.404 11.394 15.404 11.394 1.298 8.339-4.556 11.353-4.556 11.353-9.416 5.119-15.35-1.816-15.35-1.816-3.93-5.12-.902-9.66-.902-9.66 2.415-3.385 7.041-1.9 7.041-1.9 3.664 1.14 3.275 5.72 3.275 5.72.02.13.102.13.102.13.164-.04.102-.1.102-.1 0 .008.82-5.61-4.667-6.19 0 0-10.685-2.31-23.211 13.298 0 0-16.496 21.055-16.457 48.302 0 0-2.088 51.15 51.212 64.4 0 0-5.772 8.299-15.966 38.27 0 0-11.544 38.517-22.563 59.343 0 0-14.65 29.704-47.317 17.567 0 0-19.452-8.546-19.404-22.664 0 0-1.35-12.88 10.316-13.871 0 0 11.421-.867 11.3 8.917 0 0 .306 10.59-12.159 8.174 0 0-4.36-.93-3.562-5.202 0 0 .696-3.84 5.956-2.167 0 0 .164.02.184-.062 0 0 .061-.093-.123-.144.018 0-2.015-.908-4.164-.157 0 0-1.929.643-2.08 3.646 0 0-.125 2.415 2.454 3.777.001 0 3.133 1.115 5.59.867 0 0 3.303 6.668 10.78 8.93 10.405 3.145 18.976.115 24.221-4.071 5.704-4.55 9.394-12.51 10.5-14.46 1.104-1.949 10.684-23.405 17.89-46.482 0 0 6.303-19.898 11.34-30.302l1.966-4.09Z"/>
		<path fill="gold" stroke="black" stroke-miterlimit="2.613" stroke-width="2.183" d="M-138.202 1456.206s6.632-.899 6.632 5.016c0 0-.405 8.638-10.93 6.75 0 0-10.378-2.27-6.693-13.87 0 0 2.456-8.175 12.281-6.998 0 0 9.518.433 13.693 13.438.01 0 3.2 10.964-2.27 20.373-6.1 10.502-21.53 17.401-28.98 20.456.012.018-29.83 11.743-38.735 18.452 0 0-13.654 10.133-7.615 19.566 0 0 2.333 3.592 5.834 3.592 0 0 3.99.186 4.666-3.9 0 0 .02-.084-.04-.187 0 0-.063 0-.084.101 0 0-.287 2.498-2.456 3.426 0 .001-2.908 1.467-5.957-1.114 0 0-3.234-3.096-.532-7.906 0 0 3.54-5.926 11.79-2.417.002 0 7.268 3.592 4.281 11.312-.001 0-2.661 7.103-11.421 7.085-.003 0-6.6-.22-10.818-4.64-6.583-6.907-6.94-20.35-1.14-27.3.001 0 5.487-7.39 16.5-11.89 6.38-2.608 18.421-7.845 30.95-12.757 8.806-3.454 16.868-7.588 22.106-13.79 0 0 4.667-5.2 6.018-14.118 0 0 1.29-6.689-2.784-8.154 0 0-2.067-.93-4.339-.619 0 0-.06.002-.077.04-.002 0-.094.101.136.062Z"/>
		<path fill="none" stroke="black" stroke-miterlimit="2.613" stroke-width="2.183" d="M-137.649 1456.165s7.328-1.32 11.913 7.39c0 0 2.702 5.614 3.138 8.86m2.386-31.144s-7.338 1.273-3.559 11.654c3.562 9.784 10.176 12.994 12.141 14.356"/>
		<path fill="gold" stroke="black" stroke-miterlimit="2.613" stroke-width="2.183" d="M-263.786 1156.575s.363 2.973 3.31 3.303c0 0 3.076.99 4.869-2.838 0 0 .207-.866.256-1.29.206-1.792.817-6.937-4.75-11.148 0 0-9.089-7.43-26.446 1.57 0 0-13.755 6.604-23.252 12.22.01 0-24.56 13.21-27.51 14.2 0 0-10.8 5.45-27.34 6.11 0 0-22.59 1.651-32.17-14.2 0 0-7.284-12.056 0-19.734 0 0 2.948-3.468 7.79-2.829 2.038.268 4.285 1.203 6.458 3.737 0 0 3.52 5.12-.573 8.917 0 0-5.323 3.26-7.206-3.633 0 0-.082-.495-.246.124-.105.4-1.31 5.656 1.515 10.114 0 0 13.632 20.63 51.13-.75l49.453-27.735s24.808-12.715 39.627 7.183c0 0 11.953 16.513-3.44 27.33 0 0-11.46 6.852-18.667-4.047 0 0-5.976-10.734 3.44-15.44 0 0 8.27-3.88 11.544 4.376 3.275 8.257-6.386 10.403-7.287 4.54 0 .002-.246-1.4-.49-.08Zm-121.072 188.423c21.84-12.393 26.63-39.887 26.63-39.887 5.281-27.371-5.404-49.044-5.404-49.044-14.123-29.848-38.325-35.4-38.325-35.4s23.71 16.451 30.342 38.62c0 0 5.158 18.7 2.211 37.155-2.947 18.454-1.842 13.747-6.386 27.99l-9.068 20.566Z"/>
		<path fill="none" stroke="black" stroke-miterlimit="2.613" stroke-width="2.183" d="M-274.921 1134.695s20.394-.908 19.654 20.23"/>
		<path fill="gold" stroke="black" stroke-miterlimit="2.613" stroke-width="2.183" d="M-409.073 1359.232c35.493-10.899 45.195-49.044 45.195-49.044 7.246-28.61-4.42-53.626-4.42-53.626-16.212-38.07-43.64-38.063-43.64-38.063-13.755-.371-15.404 11.394-15.404 11.394-1.298 8.339 4.556 11.353 4.556 11.353 9.416 5.119 15.35-1.817 15.35-1.817 3.93-5.12.902-9.66.902-9.66-2.415-3.385-7.04-1.9-7.04-1.9-3.665 1.136-3.276 5.72-3.276 5.72-.02.123-.102.123-.102.123-.164-.04-.102-.103-.102-.103s-.82-5.615 4.667-6.193c0 0 10.685-2.312 23.211 13.293 0 0 16.496 21.054 16.457 48.3 0 0 2.088 51.15-51.212 64.402 0 0 5.772 8.298 15.966 38.27 0 0 11.544 38.516 22.563 59.342 0 0 14.65 29.705 47.317 17.568 0 0 19.452-8.546 19.404-22.664 0 0 1.35-12.88-10.316-13.87 0 0-11.422-.868-11.299 8.916 0 0-.307 10.589 12.158 8.174 0 0 4.36-.93 3.562-5.202 0 0-.696-3.84-5.956-2.167 0 0-.164.02-.184-.062 0 0-.06-.093.123-.144 0 0 2.034-.908 4.183-.157 0 0 1.927.642 2.08 3.646 0 0 .123 2.415-2.456 3.777 0 0-3.132 1.115-5.588.867 0 0-3.304 6.668-10.78 8.928-10.406 3.147-18.977.117-24.222-4.067-5.705-4.552-9.395-12.51-10.5-14.46-1.105-1.95-10.685-23.406-17.89-46.483 0 0-6.304-19.898-11.34-30.302l-1.967-4.089Z"/>
		<path fill="gold" stroke="black" stroke-miterlimit="2.613" stroke-width="2.183" d="M-308.92 1456.206s-6.632-.899-6.632 5.016c0 0 .405 8.638 10.93 6.75 0 0 10.378-2.27 6.693-13.87.01 0-2.45-8.175-12.28-6.998 0 0-9.51.433-13.69 13.438 0 0-3.19 10.964 2.27 20.373 6.1 10.502 21.54 17.401 28.99 20.456 0 .018 29.85 11.743 38.75 18.452 0 0 13.658 10.133 7.619 19.566 0 0-2.333 3.592-5.834 3.592 0 0-3.99.186-4.667-3.9 0 0-.02-.084.04-.187.001 0 .062 0 .083.101 0 0 .286 2.498 2.455 3.427 0 .002 2.907 1.468 5.956-1.113.001 0 3.235-3.096.533-7.906 0 0-3.54-5.926-11.79-2.417 0 0-7.266 3.592-4.278 11.312 0 0 2.66 7.103 11.42 7.085 0 0 6.6-.22 10.816-4.64 6.583-6.907 6.94-20.35 1.14-27.3 0 0-5.486-7.39-16.498-11.89-6.38-2.608-18.422-7.845-30.95-12.757-8.805-3.454-16.867-7.588-22.105-13.79 0 0-4.667-5.2-6.018-14.118 0 0-1.29-6.688 2.783-8.153 0 0 2.067-.929 4.34-.619 0 0 .06.002.078.04.003 0 .095.1-.136.061Z"/>
		<path fill="none" stroke="black" stroke-miterlimit="2.613" stroke-width="2.183" d="M-309.472 1456.164s-7.328-1.32-11.913 7.39c0 0-2.702 5.615-3.138 8.862m-2.386-31.146s7.356 1.273 3.576 11.654c-3.56 9.784-10.176 12.994-12.14 14.356m94.19-313.548s17.74-11.11 35.86 1.192"/>
		<path fill="lightblue" stroke="black" stroke-miterlimit="2.613" stroke-width="1.637" d="M-75.752 1572.129s25.545-11.642 17.685-31.458c0 0-2.428-6.68-8.09-6.19 0 0-9.85.5-7.88 13.63 0 0 2.952 12.88-1.715 24.03Z"/>
		<path fill="white" d="M-66.5 1560.404s5.613-5.381 4.831-15.027c0 0-.327-2.064.703-2.349 0 0 1.1-.46 1.262 1.936 0 0 1.556 10.073-5.24 15.853 0 0-.463.578-1.214.413 0 0-.806-.178-.342-.826Z"/>
		<path fill="lightblue" stroke="black" stroke-miterlimit="2.613" stroke-width="1.637" d="M-39.4 1554.294s17.93-11.27 8.228-30.22c0 0-2.825-5.448-8.228-4.334 0 0-11.176 3.468-2.456 18.95 0 0 4.42 10.03 2.456 15.604Z"/>
		<path fill="white" d="M-34.917 1528.596s-.982-1.3-.307-1.858c0 0 .43-.62 1.597.867 0 0 5.424 6.065 1.105 15.389 0 0-.49 1.331-1.35.898 0 0-.738-.372-.062-1.486-.001 0 3.868-7.68-.983-13.81Z"/>
		<path fill="lightblue" stroke="black" stroke-miterlimit="2.613" stroke-width="1.637" d="M-93.068 1567.175s-20.018-5.078-16.334-25.76c0 0 1.965-9.04 10.44-7.802 0 0 10.21 2.607 3.561 15.755-.001-.002-3.93 9.385 2.333 17.807Z"/>
		<path fill="white" d="M-100.806 1542.467s-.737-.99.123-1.424c0 0 .86-.372 1.474.836 0 0 2.088 3.313.32 7.848.018 0-1.653 3.144-.84 6.426 0 0 .11.93-.629 1.053.001 0-.705-.248-.843-.929 0 0-1-3.204.72-6.339 0-.001 2.088-4.87-.307-7.471Z"/>
		<path d="M-78.7 1528.029s11.3-6.349 20.632 1.082c0 0-.954-4.128-8.091-5.945 0 0-3.862-10.899-14.67-9.908.018 0 4.44 5.284 10.335 9.743 0 0-6.224.644-8.189 5.028Zm8.352-29.852s7.676 5.67 10.797 9.468c0 0 3.122-3.881 7.215-6.234 0 0-4.713-.62-7.215 1.5 0 0-3.92-3.798-10.797-4.734Z"/>
		<path fill="none" stroke="black" stroke-miterlimit="10" stroke-width="2.183" d="M-114.888 1522.506s-.819-2.807 1.146-5.78c0 0 1.31-2.147.82-4.954m80.4-165.626s11.954-.826 13.919-10.073m20.959-6.11s-4.165-.165-7.931 3.633c0 0-2.876 4.293-6.97 3.798"/>
		<path d="M-50.207 1310.973s6.222 0 9.661-2.972c0 0 3.602-2.477 5.731 1.486 0 0 3.275 5.615-2.784 8.09 0 0-7.532 3.799 4.42 11.395.001 0-14.245-5.119-8.514-12.055 0 0 6.222-4.458 3.93-6.11 0 0-.655-1.32-3.111.33-2.456 1.652-7.368.992-9.333-.164Z"/>
		<path fill="lightblue" stroke="black" stroke-miterlimit="2.613" stroke-width="1.637" d="M-41.744 1160.598s2.811-3.825 1.661-15.3c-1.15-11.476 8.815-12.796 12.647-9.498 0 0 3.96 3.43.319 10.707-2.104 4.204-5.459 9.64-14.627 14.09Z"/>
		<path fill="white" d="M-37.997 1152.03s3.735-4.015 1.953-12.735c0 0-.013-.86.482-.918 0 0 .906-.23 1.06.631 0 0 2.004 9.293-2.21 14.342 0 0-.77.746-1.285 0 0 0-.57-.534 0-1.32Z"/>
		<path fill="lightblue" stroke="black" stroke-miterlimit="2.613" stroke-width="1.637" d="M-44.926 1156.425s-.295-4.626-8.29-12.487c-7.995-7.861-1.422-15.104 3.474-15.044 0 0 5.073.078 6.9 7.808 1.055 4.465 1.948 10.637-2.084 19.723Z"/>
		<path fill="white" d="M-46.17 1146.364s.143-5.666-7.097-11.581c0 0-.59-.689-.25-1.055 0 0 .535-.77 1.233-.173 0 0 7.796 6.237 7.984 13.049 0 0-.085 1.102-.98.83 0 0-.795-.065-.89-1.07Z"/>
		<path fill="lightblue" stroke="black" stroke-miterlimit="2.613" stroke-width="1.637" d="M-55.784 1152.948s-2.089-3.77-11.964-7.272c-9.875-3.504-7.208-12.128-3.052-13.974 0 0 4.313-1.898 8.929 3.883 2.648 3.34 5.858 8.175 6.068 17.363Z"/>
		<path fill="white" d="M-60.11 1146.02s-2.245-5.196-11.286-7.472c0 0-.823-.373-.67-.849 0 0 .163-.927 1.046-.683 0 0 9.679 2.33 12.705 8.424 0 0 .384 1.035-.541 1.17 0 0-.747.28-1.254-.59Z"/>
		<path fill="lightblue" stroke="black" stroke-miterlimit="2.613" stroke-width="1.637" d="M-49.596 1156.72s-4.605 1.293-15.18-3.808c-10.573-5.102-15.204 3.777-13.35 8.526 0 0 1.935 4.915 10.12 4.053 4.727-.498 11.056-1.738 18.41-8.77Z"/>
		<path fill="white" d="M-74.185 1160.09s4.794 2.958 13.494-.407c0 0 .887-.171 1.032.308 0 0 .4.854-.46 1.165 0 0-9.25 3.69-15.2.448 0 0-.9-.626-.22-1.27.007-.002.461-.664 1.371-.244Z"/>
		<path fill="none" stroke="black" stroke-miterlimit="2.613" stroke-width="2.183" d="M-65.067 1123.301s5.28 2.56 4.053 8.752"/>
		<path fill="none" stroke="black" stroke-miterlimit="10" stroke-width="2.183" d="M-41.733 1124.168s2.066 6.54-.216 10.061"/>
		<path fill="lightblue" stroke="black" stroke-miterlimit="2.613" stroke-width="1.637" d="M-406.044 1160.598s-2.811-3.825-1.661-15.3c1.15-11.476-8.815-12.796-12.647-9.498 0 0-3.96 3.43-.32 10.707 2.104 4.204 5.46 9.64 14.628 14.09Z"/>
		<path fill="white" d="M-409.791 1152.03s-3.735-4.015-1.953-12.735c0 0 .013-.86-.482-.918 0 0-.906-.23-1.06.631 0 0-2.004 9.293 2.21 14.342 0 0 .771.746 1.285 0 0 0 .57-.534 0-1.32Z"/>
		<path fill="lightblue" stroke="black" stroke-miterlimit="2.613" stroke-width="1.637" d="M-402.862 1156.425s.295-4.626 8.29-12.487c7.995-7.861 1.422-15.104-3.474-15.044 0 0-5.073.078-6.9 7.808-1.055 4.465-1.949 10.637 2.084 19.723Z"/>
		<path fill="white" d="M-401.618 1146.364s-.143-5.666 7.097-11.581c0 0 .59-.689.251-1.055 0 0-.536-.77-1.234-.173 0 0-7.796 6.237-7.984 13.049 0 0 .085 1.102.98.83 0 0 .795-.065.89-1.07Z"/>
		<path fill="lightblue" stroke="black" stroke-miterlimit="2.613" stroke-width="1.637" d="M-392.004 1152.948s2.089-3.77 11.964-7.272c9.875-3.504 7.208-12.128 3.052-13.974 0 0-4.313-1.898-8.929 3.883-2.668 3.34-5.877 8.175-6.087 17.363Z"/>
		<path fill="white" d="M-387.678 1146.02s2.245-5.196 11.286-7.472c0 0 .823-.373.67-.849 0 0-.163-.927-1.046-.683 0 0-9.68 2.33-12.705 8.424 0 0-.384 1.035.54 1.17 0 0 .748.28 1.255-.59Z"/>
		<path fill="lightblue" stroke="black" stroke-miterlimit="2.613" stroke-width="1.637" d="M-398.193 1156.72s4.605 1.293 15.179-3.808c10.574-5.102 15.205 3.777 13.352 8.526 0 0-1.936 4.915-10.12 4.053-4.727-.498-11.056-1.738-18.411-8.77Z"/>
		<path fill="white" d="M-373.603 1160.09s-4.794 2.958-13.494-.407c0 0-.887-.171-1.032.308 0 0-.394.854.47 1.165 0 0 9.253 3.69 15.197.448 0 0 .904-.626.222-1.27 0-.002-.453-.664-1.363-.244Z"/>
		<path fill="none" stroke="black" stroke-miterlimit="2.613" stroke-width="2.183" d="M-382.721 1123.301s-5.281 2.56-4.053 8.752"/>
		<path fill="none" stroke="black" stroke-miterlimit="10" stroke-width="2.183" d="M-406.055 1124.168s-2.066 6.54.216 10.061"/>
		<path d="M-221.079 1001.186c-11.217-.005-1.76 8.669-1.76 8.669.246 13.747-10.786 17.978-18.3 13.995-7.51-3.983-1.636-13.995-1.636-13.995s-8.474 5.573-3.07 13.623c5.404 8.05 19.568 4.458 24.767-2.972 5.2 7.43 19.363 11.023 24.767 2.972 5.404-8.05-3.07-13.623-3.07-13.623s5.875 10.012-1.637 13.995c-7.512 3.983-18.545-.248-18.3-13.995 0 0 9.456-8.674-1.76-8.669Zm6.795-14.862s3.93 6.688 3.07 16.843c0 0 3.562-10.155-3.07-16.843Zm-34.387 15.73s-.86-7.308-7.983-7.927c0 0 6.018 4.335 7.983 7.926Zm55.265 0s.86-7.308 7.983-7.927c0 0-6.018 4.335-7.983 7.926Zm-66.563 11.146s5.65 1.734 9.088-2.477c0 0-6.509 1.733-9.088 2.477Zm-18.299-44.834s6.57-.743 13.14 9.041c0 0-6.508 3.468-8.105 5.573 0 0 0-3.22 3.193-6.07 0 .002-1.228-4.952-8.228-8.544Zm110.039 0s-6.57-.743-13.14 9.041c.016 0 6.526 3.468 8.124 5.573 0 0 0-3.22-3.194-6.07 0 .002 1.228-4.952 8.228-8.544Zm-50.72 7.301s5.894 1.617 13.263-2.47c0 0 9.088-4.83 14.86 0 0 0-5.035-2.242-14.737 2.47 0 0-9.703 5.319-13.387 0Z"/>
		<path fill="white" d="M-212.81 981.618s5.035-8.83 20.387-7.078c0 0-4.176 12.28-20.387 7.078Z"/>
		<ellipse cx="-202.221" cy="978.879" fill="black" rx="3.036" ry="3.847"/>
		<path d="M-245.723 962.793s9.702.62 15.597 4.335c0 0 6.263 3.715 13.386-1.61 0 0 7.747-4.46 12.716-10.651 0 0-11.856 8.174-16.277 9.413 0 0-4.053-3.096-5.65-7.555.001 0 .615-3.344 7.001-9.536 0-.01-8.597 2.6-10.316 9.9 0 0 1.597 4.46 4.912 7.92 0 0-1.597.74-5.772-1.86 0 0-9.088-3.099-15.597-.374Zm24.644 58.27c-8.392 7.246 0 6.503 0 6.503s8.392.743 0-6.502Zm-4.856-45.396s-5.895 1.617-13.264-2.47c0 0-9.088-4.83-14.86 0 .01 0 5.04-2.242 14.74 2.47 0 0 9.71 5.319 13.39 0Z"/>
		<path fill="white" d="M-232.076 981.618s-5.035-8.83-20.387-7.078c.001 0 4.176 12.28 20.387 7.078Z"/>
		<ellipse cx="-242.665" cy="978.879" fill="black" rx="3.036" ry="3.847"/>
	</g>
</svg>
