<svg xmlns="http://www.w3.org/2000/svg" viewBox="0 0 640 480">
		<g fill="#008877">
			<path d="M435 0H0v435.45L435 0z" />
			<circle cx="320" cy="240" r="100" />
			<path
				fill="#d7faf9"
				d="M353 184c-15-17-6 10-15 15-5 5 0 0 10 0 10-5 25-25-5-25-15 0-5 0-5 0-5-5 0-20-15-40-15-20 0-15-10-15-5 0 5 15 20 20 15 0-5 5-15 20-15 15 5 5 10 5 10-5 0-20-10-15-10 10 0 20 10 15 20-5 5-5 5-15-10-10-15-10-15 5-5 15-5 20 15 5 15-10-5 0-15 5-20 15-5 15 0 5 5 40-10 15-5 20-15 10-15-25 5-35-55-55-55"
			/>
		</g></svg>