<svg xmlns="http://www.w3.org/2000/svg" viewBox="0 0 9000 6000">
	<defs>
		<linearGradient id="f">
			<stop offset="0" stop-color="#fff"/>
			<stop offset="1" stop-color="#fff" stop-opacity="0"/>
		</linearGradient>
		<linearGradient id="d">
			<stop offset="0" stop-color="#1a1a1a"/>
			<stop offset="1" stop-color="#ccc"/>
		</linearGradient>
		<linearGradient id="b">
			<stop offset="0" stop-color="#1a1a1a"/>
			<stop offset=".463" stop-color="#4d4d4d"/>
			<stop offset="1" stop-color="#1a1a1a"/>
		</linearGradient>
		<linearGradient id="a">
			<stop offset="0"/>
			<stop offset=".508" stop-color="#b3b3b3"/>
			<stop offset=".592" stop-color="#e6e6e6"/>
			<stop offset=".706" stop-color="#ccc"/>
			<stop offset="1" stop-color="#333"/>
		</linearGradient>
		<linearGradient id="c">
			<stop offset="0"/>
			<stop offset="1" stop-color="#1a1a1a"/>
		</linearGradient>
		<linearGradient id="e">
			<stop offset="0"/>
			<stop offset="1" stop-opacity="0"/>
		</linearGradient>
		<linearGradient id="i" x1="566.43" x2="926.05" y1="205.67" y2="175.77" gradientTransform="translate(-193.83 -35.821) scale(1.1679)" gradientUnits="userSpaceOnUse">
			<stop offset="0" stop-color="#666"/>
			<stop offset=".119" stop-color="#2f2f2f"/>
			<stop offset=".612" stop-color="#4d4d4d"/>
			<stop offset="1" stop-color="#1a1a1a"/>
		</linearGradient>
		<linearGradient id="j" x1="666.56" x2="903.24" y1="298.62" y2="293.93" gradientTransform="translate(-193.83 -35.821) scale(1.1679)" gradientUnits="userSpaceOnUse">
			<stop offset="0" stop-color="#333"/>
			<stop offset="1" stop-color="#1a1a1a"/>
		</linearGradient>
		<linearGradient id="k" x1="825.72" x2="821.02" y1="288.05" y2="164.14" gradientTransform="matrix(1.1679 .00374 -.00374 1.1679 -193.07 -40.977)" gradientUnits="userSpaceOnUse">
			<stop offset="0" stop-color="#999"/>
			<stop offset="1" stop-color="#999" stop-opacity="0"/>
		</linearGradient>
		<linearGradient id="l" x1="726.42" x2="917.65" y1="420.31" y2="414.67" gradientTransform="translate(-193.83 -35.821) scale(1.1679)" gradientUnits="userSpaceOnUse">
			<stop offset="0" stop-color="#4d4d4d"/>
			<stop offset="1" stop-color="#1a1a1a"/>
		</linearGradient>
		<linearGradient id="m" x1="622.52" x2="925.56" y1="398.46" y2="360.88" gradientTransform="translate(-193.83 -35.821) scale(1.1679)" gradientUnits="userSpaceOnUse">
			<stop offset="0" stop-color="#b3b3b3"/>
			<stop offset=".445" stop-color="#666"/>
			<stop offset=".48" stop-color="#4d4d4d"/>
			<stop offset=".901" stop-color="#2b2828"/>
			<stop offset=".934" stop-color="#1a1a1a"/>
			<stop offset="1" stop-color="#1a1a1a"/>
		</linearGradient>
		<linearGradient id="o" x1="879.75" x2="901.48" y1="472.75" y2="469.23" gradientUnits="userSpaceOnUse" href="#a"/>
		<linearGradient id="p" x1="896.49" x2="881.51" y1="451.32" y2="453.96" gradientUnits="userSpaceOnUse" href="#b"/>
		<linearGradient id="q" x1="869.76" x2="879.45" y1="415.2" y2="413.14" gradientUnits="userSpaceOnUse" href="#c"/>
		<linearGradient id="r" x1="866.68" x2="896.49" y1="432.08" y2="424.89" gradientUnits="userSpaceOnUse" href="#d"/>
		<linearGradient id="s" x1="970.49" x2="568.51" y1="238.47" y2="235.15" gradientTransform="translate(984.28 -51.681)" gradientUnits="userSpaceOnUse">
			<stop offset="0" stop-color="#ccc"/>
			<stop offset="1" stop-color="#e6e6e6"/>
		</linearGradient>
		<linearGradient id="u" x1="558.27" x2="559.15" y1="255.68" y2="223.99" gradientTransform="translate(-193.83 -35.821) scale(1.1679)" gradientUnits="userSpaceOnUse">
			<stop offset="0"/>
			<stop offset="1" stop-opacity="0"/>
		</linearGradient>
		<linearGradient id="v" x1="503.02" x2="503.2" y1="273.74" y2="253.56" gradientTransform="translate(-193.83 -35.821) scale(1.1679)" gradientUnits="userSpaceOnUse" href="#e"/>
		<linearGradient id="z" x1="1841.2" x2="1841.2" y1="937.4" y2="932.1" gradientTransform="matrix(.88614 -.1614 .1034 1.1562 -775.32 -33.824)" gradientUnits="userSpaceOnUse">
			<stop offset="0"/>
			<stop offset=".453" stop-color="#ccc"/>
			<stop offset=".733" stop-color="#ccc"/>
			<stop offset=".806" stop-opacity=".188"/>
			<stop offset="1" stop-color="#1a1a1a"/>
		</linearGradient>
		<linearGradient id="A" x1="1872" x2="1866" y1="630.95" y2="589.15" gradientTransform="translate(-1343.3 36.624) scale(1.1679)" gradientUnits="userSpaceOnUse">
			<stop offset="0"/>
			<stop offset=".298" stop-color="#333"/>
			<stop offset="1" stop-color="#666"/>
		</linearGradient>
		<linearGradient id="B" x1="1891.9" x2="1885.2" y1="625.15" y2="584.04" gradientTransform="translate(-1343.3 36.624) scale(1.1679)" gradientUnits="userSpaceOnUse">
			<stop offset="0"/>
			<stop offset="1" stop-color="#ccc"/>
		</linearGradient>
		<linearGradient id="C" x1="1824.3" x2="1816.4" y1="626.54" y2="605.78" gradientTransform="translate(-1343.3 36.624) scale(1.1679)" gradientUnits="userSpaceOnUse">
			<stop offset="0" stop-color="#1a1a1a"/>
			<stop offset="1" stop-color="#1a1a1a" stop-opacity="0"/>
		</linearGradient>
		<linearGradient id="D" x1="1814.8" x2="1812.5" y1="650.99" y2="624.56" gradientTransform="translate(-1343.3 36.624) scale(1.1679)" gradientUnits="userSpaceOnUse">
			<stop offset="0"/>
			<stop offset="1" stop-opacity="0"/>
		</linearGradient>
		<linearGradient id="E" x1="503.13" x2="502.75" y1="261.82" y2="235.22" gradientTransform="matrix(1.1643 -.09079 .07406 .94983 126.31 586.41)" gradientUnits="userSpaceOnUse" href="#e"/>
		<linearGradient id="F" x1="1857.6" x2="1859" y1="584.34" y2="613.99" gradientTransform="translate(-1343.3 36.624) scale(1.1679)" gradientUnits="userSpaceOnUse" href="#f"/>
		<filter id="t">
			<feGaussianBlur stdDeviation="2.179"/>
		</filter>
		<filter id="n" width="1.043" height="1.228" x="-.021" y="-.114">
			<feGaussianBlur stdDeviation="2.349"/>
		</filter>
		<filter id="w">
			<feGaussianBlur stdDeviation="3.897"/>
		</filter>
		<filter id="x" width="1.049" height="1.41" x="-.024" y="-.205">
			<feGaussianBlur stdDeviation="2.724"/>
		</filter>
		<filter id="y" width="1.283" height="1.076" x="-.141" y="-.038">
			<feGaussianBlur stdDeviation=".74"/>
		</filter>
		<filter id="h">
			<feGaussianBlur stdDeviation="4.832"/>
		</filter>
		<filter id="g">
			<feGaussianBlur stdDeviation="13.089"/>
		</filter>
	</defs>
	<rect width="9000" height="2000" fill="red"/>
	<rect width="9000" height="2000" y="2000" fill="white"/>
	<rect width="9000" height="2000" y="4000" fill="green"/>
	<path d="M720.28 115.92c-16.584.478-29.824 8.398-34.469 35.562l-11.15 44.25c1.11 35.648.56 72.535.91 108.75-9.46 1.007-18.7 3.017-27.62 6.75v.312l-5.78 4.75-.092 5.97-5.561.124a104.17 104.17 0 0 0-1.406-6.719l-12.531.594c.439.31.889 1.52 1.309 3.313-.486-1.936-.994-3.012-1.5-2.97-.392.034-.764.742-1.061 2-.211-.976-.446-1.965-.687-2.937l-12.53.594c.432.304.868 1.46 1.28 3.188-.476-1.85-1.006-2.88-1.5-2.84-.748.07-1.318 2.64-1.687 6.72l-6.094.142a104.58 104.58 0 0 0-1.594-7.783l-12.53.593c.432.304.869 1.46 1.28 3.188-.476-1.85-1.006-2.884-1.5-2.842-.444.038-.835.947-1.156 2.53a102.779 102.779 0 0 0-.78-3.466l-12.534.593c.434.304.87 1.46 1.28 3.188-.475-1.85-.973-2.885-1.467-2.843-.83.07-1.49 3.164-1.843 8.062l-2.063-.064a74.272 74.272 0 0 0-2.75-8.938l-19.188.593c.266.122.516.383.78.75-.263-.277-.546-.422-.81-.406-1.711.103-2.846 6.603-3 15.812-33.601-.246-68.581 1.17-93.344 6.466-51.875 11.095-110.54 24.267-145.72 63.97-47.66 53.783-60.127 134.55-62.28 206.38-1.44 47.94 8.22 99.086 33.247 140 33.384 54.58 62.964 113.67 146.03 124.53a36808.29 36808.29 0 0 0 177.03 22.72c28.77 20.662 59.217 25.456 86.345 15.53-.024.22-.036.436-.063.656 15.34-.38 27.768-5.385 39.562-11.44.68.29 1.36.588 2.063.814 1.968.634 4.074.73 6.125.47s4.032-.87 5.969-1.595c3.866-1.447 7.595-3.412 11.651-4.217 5.25-1.04 10.72-.095 16-.97 2.462-.407 4.948-1.246 6.812-2.906.474-.422.88-.878 1.344-1.312.463-.434.984-.833 1.563-1.094.998-.45 2.125-.47 3.218-.53.547-.03 1.096-.078 1.625-.218.53-.141 1.025-.361 1.438-.717.437-.38.743-.88 1.094-1.344.173-.232.372-.467.59-.657.048-.04.108-.056.158-.093.72-.117 1.435-.26 2.155-.375.125.01.25.03.375.03.654.01 1.3-.15 1.906-.405a2083 2083 0 0 1 18.062-2.844c.945.013 1.905.004 2.844-.125 1.128-.155 2.218-.463 3.312-.781 8.984-1.326 17.983-2.557 27-3.625 14.157-1.678 28.35-2.96 42.562-4.094 1.71 8.062 4.074 13.76 5.875 13.53.247-.03.452-.193.657-.434l19.28-1.625c.187-1.995.344-3.99.438-5.97l1.688-.186c1.026 3.953 2.103 6.374 2.937 6.25.164-.024.304-.166.438-.375l12.625-1.156c.017-.523.017-1.042.03-1.564.555 1.304 1.072 2.037 1.532 1.97.174-.03.33-.175.47-.41l12.593-1.127c.07-2.038.118-4.07.125-6.094l5.906-.624c1.045 4.093 2.118 6.658 2.97 6.53.172-.025.33-.171.467-.405l12.595-1.125c.013-.355.02-.708.032-1.063.473.999.94 1.529 1.34 1.47.166-.025.303-.193.438-.407l12.03-1.062.126.906 8.47 5.564h.155l10.28.97 1.188.343 4.188 1.25 6.25 1.53 7.187 1.377 8.063 1.28 7.437-3.374 6.5-3.25 5.625-3.094 4.72-3 3.843-2.875 1.406-3.53 4.28-7.657 6.345 6.219 4.313-7.664 6.343 6.219 4.28-7.656 6.344 6.219 4.22-7.504.187 1.156c.04-.377.065-.75.097-1.125l6.125 6.03 5.312-.717 5.345-.72 5.312-.713 6.875-4.471 5.875-4.342 4.844-4.188 6.875-6.814 3.688-4.032c.048-.11.08-.233.125-.343l4.468-1.032c0-1.2-.039-2.385-.126-3.593l42.187-7.688c.013-.021-.007-.043.003-.063l.38-.063c.865-2.85.163-4.463-.812-5.877-.04-.084-.084-.17-.125-.251h-.062c-.02-.033-.04-.067-.062-.097l-1.063.188c.027.04.04.084.063.125l-5.186.937c-.02-.03-.04-.064-.062-.093l-1.063.187c.02.027.043.057.062.089l-.53.095c-.016-.024-.044-.04-.06-.063l-1.065.185c.013.02.02.042.03.062l-33.81 6.187a20.448 20.448 0 0 0-1.845-3.97l-4.062.908-3.906-2.53-8.53-5.004-5.876-2.904-6.906-2.813-7.94-2.656-2.5.22-6.688-.5-3.938 1.5-2.094.216h-.843c.018.033.045.062.063.094h-.154l-4.406 7.437-6.379-6.438-4.375 7.436-6.406-6.407-4.375 7.438-6.406-6.436-4.22 7.875-.03-.03c-.045-.096-.08-.19-.125-.284l.03.187-6.155-5.875-2.282-2.812-4.437-1.5-5.28-1.375-6.189-1.25-2.875-.438c-3.17-.696-6.312-1.406-6.312-1.406h-4.063l-1.812-.22-7.313 3.687-6.406 3.472-5.563 3.343-2.968 2-1.66 1.125-9.066 3.75-.594.25-5.437 10.906c-.005-.013-.027-.02-.03-.032l-12.439 1.47c.458.213.97 1.144 1.5 2.56-.609-1.537-1.187-2.357-1.688-2.28-.39.056-.69.661-.906 1.716-.276-.786-.6-1.562-.906-2.342l-12.406 1.468c.457.217.97 1.148 1.5 2.563.225.606.456 1.306.686 2.094h-.03c-.23-.753-.43-1.523-.657-2.094-.604-1.536-1.214-2.356-1.716-2.28-.593.087-.996 1.45-1.186 3.717-.268-.052-.543-.106-.81-.156-1.61-.3-3.238-.527-4.876-.53a13.75 13.75 0 0 0-1.406.06 70.057 70.057 0 0 0-1.126-3.125l-12.44 1.47c.457.216.97 1.147 1.5 2.562a33 33 0 0 1 .874 2.75c-.297-1.033-.584-2.015-.875-2.75-.608-1.536-1.187-2.356-1.688-2.28-.447.062-.78.87-1 2.214a70.11 70.11 0 0 0-1.03-2.812l-12.439 1.437c.458.217.97 1.18 1.5 2.594-.608-1.536-1.187-2.387-1.688-2.312-.774.115-1.197 2.448-1.28 6.062a14.043 14.043 0 0 1-2.25.344 52.773 52.773 0 0 0-3.157-6.625l-19.094 1.97c.282.08.578.3.875.59-.299-.23-.598-.348-.875-.313-1.21.155-1.908 2.98-2.063 7.281-14.336 1.043-28.655 2.22-42.938 3.813-20.623 2.298-41.152 5.427-61.656 8.625 18.11-17.095 34.382-40.136 47.031-68.344 41.412-92.345 28.49-204.91-28.844-251.44-14.333-11.633-30.067-18.039-46.28-19.657-19.823-1.979-40.36 3.178-59.813 14.688-11.948-10.21-24.282-17.585-36.656-22.188-13.359-4.969-26.748-6.697-39.689-5.344-.603-.133-1.21-.286-1.812-.406-17.637-3.537-34.514-2.007-49.72 4.218a103.54 103.54 0 0 0-5.342-.156c-53.785-.28-92.212 42.591-93.312 114.28-1.052 68.77 32.526 145.28 82.035 198.03 8.561 16.03 18.597 30.67 30 43.34l-142.59-16.34c-79.074-9.065-108.589-67.64-141.029-120.22-22.697-36.79-31.849-82.72-30.906-125.94 1.46-66.84 12.62-141.9 56.281-192.53 33.524-38.874 89.58-54.06 139.84-64.47 23.841-4.938 57.241-5.493 89.594-4.28 1.056 10.543 3.001 18.206 4.875 18.093.242-.016.47-.18.688-.44l19.375-.186c.34-2.424.627-4.84.875-7.25l1.718-.065c.718 4.93 1.597 8.01 2.44 7.938.17-.015.314-.18.47-.438l12.653-.187c.06-.647.1-1.29.156-1.938.453 1.664.91 2.603 1.375 2.563.17-.015.347-.18.5-.438l12.656-.187c.23-2.486.431-4.964.595-7.438l5.906-.187c.726 5.103 1.612 8.323 2.472 8.25.17-.015.345-.18.5-.438l12.655-.187c.04-.45.054-.896.093-1.344.404 1.304.84 2.004 1.25 1.97.17-.02.316-.183.47-.443l12.655-.186c.254-2.77.452-5.53.625-8.28l4.47-.16 1.561 8.22h1.312c10.877 3.78 21.59 8.774 32.906 9.47.056.718.13 1.44.187 2.156v.063c1.424 17.41 3.514 34.324 6.625 50.47l4.094 4.372.371-.095c4.054 4.25 10.825 5.44 18.656 5.375l126.031-1.656 13.906 85.344 36 20.28 5.906-.062c.595 3.26 1.265 6.483 1.94 9.72-.093.25-.13.476-.095.718.18 1.232 2.065 2.11 4.97 2.53l3.905 39.032.094 1 6.937 52.97c11.887 15.063 23.615 5.823 25.875-4l-6.406-54.595-4.875-40.683c.316.26.515.55.563.875.046.32-.064.666-.282 1 1.684-1.008 2.61-2.034 2.47-3-.058-.39-.28-.747-.657-1.062a465.05 465.05 0 0 0-.062-4.782l97.907-.843c.585 2.366 1.19 4.708 1.813 7.062-.066.233-.11.468-.065.688.245 1.217 2.158 1.948 5.063 2.22l6 38.78.153 1.032 9.72 52.5c12.664 14.413 23.885 4.552 25.624-5.378l-9.283-54.156-7.03-40.408c.343.248.557.543.623.875.063.315-.019.686-.219 1.03 1.628-1.093 2.505-2.197 2.313-3.154-.076-.376-.344-.68-.719-.97-.198-3.2-.42-6.392-.719-9.593l33.25-11.69-13.062-93.53 38.281-25.535c4.102-11.88 6.12-25.784 5.313-41.188l.217 1.313.185-1.406-6.095-37.719c-.043-.02-.082-.044-.125-.063l-.219-1.28-.124-.75-45.906-177c-3.52-11.914-10.64-11.215-18.188-12l-325.34-15.35a60.566 60.566 0 0 0-3.375 0zm-96.125 204.91c.075.38.146.8.219 1.219-.073-.396-.144-.862-.22-1.22zm17.781 11-.094 5.25c-1.162-.1-1.63-.118-3.656-.281a134.675 134.675 0 0 0-.375-4.844l4.125-.125zm-36.188 1.063c-.005.543 0 1.126 0 1.687-1.455-.083-2.833-.168-4.344-.25-.033-.428-.057-.854-.094-1.281l4.438-.157zm37.219 1.75 4.969.28v.032l-4.97-.313zm-33.062 193.94c14.526 3.49 29.665 10.867 44.75 22.438a168.992 168.992 0 0 1 9.031 7.468 165.459 165.459 0 0 0-6.406 6.063c-14.47-12.774-29.949-23.502-46.094-31.531a173.954 173.954 0 0 0-7.25-3.406c1.977-.418 3.962-.785 5.969-1.032zm-48.531 3.687a97.859 97.859 0 0 1 4.188.438c-17.354 13.622-32.221 34.453-42.812 62.062-12.084 31.499-16.987 67.61-15.5 104.09-1.66-10.561-2.72-21.135-3.063-31.594-1.357-19.856-.294-39.363 3.563-57.625 8.327-39.432 28.088-66.103 53.625-77.375zm-28.938 2.469c-17.589 16.314-30.943 41.079-37.75 73.312-10.257 48.568-3.6 104.57 15.375 155-13.478-23.514-23.715-49.013-29.594-74.625-5.136-19.228-7.818-38.588-7.53-57.25.795-51.853 24.177-86.657 59.5-96.438zm51.938 2.062c6.999 2.15 14.173 5.044 21.5 8.688 7.54 3.75 14.888 8.134 22.031 13.094-7.614-2.65-15.026-4.334-22.188-5.03-23.876-2.326-44.833 5.98-60.188 23.374 10.586-18.573 23.924-32.092 38.844-40.125zm149.16 3.594c1.987-.01 3.96.07 5.938.22.67.05 1.331.117 2 .186 14.253 1.47 28.18 7.14 40.906 17.47 14.316 11.618 25.456 27.758 33.28 46.718.043.094.052.188.094.282 22.281 49.527 21.535 120.51-5.844 181.56-14.492 32.34-34.265 57.057-56.062 72.678 7.574-14.585 12.504-32.736 14.062-54.064 1.044-14.29.524-29.1-1.406-44.063 4.292-75.704-20.672-158.13-67.53-207.59a175.078 175.078 0 0 0-3.595-3.656c12.483-6.292 25.41-9.649 38.156-9.718zm-62.406 6.656c1.121.85 2.228 1.735 3.344 2.616l-.25.186c-1.027-.932-2.053-1.877-3.094-2.782zm357.59 1.71.375 2.5c-.516-.277-.855-.62-.938-1.03-.09-.46.116-.96.563-1.47zm-132.16 4.06.25 2.53c-.513-.303-.845-.672-.906-1.092-.068-.466.172-.945.656-1.438zm-213.31 4.437a153.545 153.545 0 0 1 6.469 6.406c12.537 13.235 23.234 29.03 32 46.438-11.2-19.536-24.408-37.307-39.22-52.312.252-.173.5-.361.75-.531zm-86.312 8.78a68.852 68.852 0 0 1 7.344.157c.632.045 1.27.122 1.906.186 11.905 1.195 24.679 5.406 37.906 12.875-11.473 14.216-21.845 31.075-30.5 50.375-34.531 77-31.272 168.07 4 223.19-42.067-34.129-74.207-93.652-83.406-151.659-3.42-17.69-4.724-35.31-3.5-52.062 3.753-51.366 30.153-81.88 66.25-83.062zm74.812.032c11.229 11.21 21.381 24.16 30.281 38.31.07.103.118.207.188.312 7.98 12.057 15.066 25.08 21.125 38.72-7.879-12.523-16.602-24.259-26-34.876-9.813-13.253-20.548-25.56-32.031-36.594a141.1 141.1 0 0 1 6.437-5.873zm-18.406 18.903c7.66 5.145 15.048 11.114 22.062 17.782 39.46 46.438 65.536 109.84 64.656 167.16-.538 35.02-11.055 62.314-28.344 79.812-13.044 5.577-26.523 10.084-37.719 20.28.034.052.06.106.094.157a79.341 79.341 0 0 1-6.688 1.063c-1.032-1.06-2.15-1.772-3.437-1.656l-.344.03a82.743 82.743 0 0 1-7.844-4.813c-.008-.03-.023-.062-.03-.093-.46-1.74-.627-3.558-1.313-5.22-.344-.833-.817-1.6-1.47-2.22-.652-.62-1.48-1.06-2.374-1.156a3.308 3.308 0 0 0-1.344.125c-.428.137-.838.37-1.156.687a2.54 2.54 0 0 0-.657 1.157c-.01.04.008.081 0 .123-38.91-34.477-53.23-104.37-38.688-172.31 3.407-19.04 9.102-38 17.188-56.03 7.734-17.247 17.046-32.278 27.406-44.877zm-132.41 109.41c7.92 58.688 37.218 119.53 77.125 160.19-10.09-5.635-19.858-12.452-29.188-20.217-8.346-9.383-16.023-19.775-22.969-30.905-15.3-33.05-23.966-71.38-24.969-109.06zm367.72 179.66h.031c.01.14.023.3.031.44-.009-.143-.052-.294-.062-.438z" filter="url(#g)" transform="matrix(1.20865 0 0 1.23004 3646.61 2364.327)"/>
	<path fill="#1a1a1a" d="m4413.444 2736.481-6.97 5.735-.133 7.984 6.75-.662.352-13.057zm-7.146 16.41-.574 34.803 3 15.748h1.588c-.488-.17-.967-.365-1.456-.53l3.882-25.804.706-12.351-6-.353-1.146-11.513z"/>
	<path fill="#333" d="M4387.204 2773.223c.626 17.09-.45 31.078-2.403 31.245s-4.04-13.552-4.67-30.642.45-31.079 2.41-31.245c1.96-.167 4.05 13.552 4.67 30.642zm-17.495 0c.626 17.09-.45 31.078-2.404 31.245s-4.044-13.552-4.67-30.642.45-31.079 2.403-31.245c1.953-.167 4.044 13.552 4.67 30.642zm-26.743 0c.626 17.09-.45 31.078-2.403 31.245s-4.044-13.552-4.67-30.642.449-31.079 2.402-31.245c1.954-.167 4.045 13.552 4.67 30.642zm-17.744 0c.626 17.09-.45 31.078-2.403 31.245s-4.045-13.552-4.67-30.642.449-31.079 2.402-31.245c1.953-.167 4.044 13.552 4.67 30.642zm-29.31 0c.885 17.09-.636 31.078-3.397 31.245s-5.717-13.552-6.603-30.642.636-31.079 3.397-31.245c2.76-.167 5.717 13.552 6.603 30.642z"/>
	<path stroke="#000" stroke-width="1.209" d="M4410.265 2767.689s-160.025-14.724-237.415 1.826c-62.699 13.409-133.604 29.333-176.125 77.32-57.603 65.004-72.676 162.636-75.28 249.453-1.737 57.943 9.931 119.748 40.179 169.199 40.35 65.968 76.13 137.4 176.523 150.525a43551.693 43551.693 0 0 0 301.329 38.352l-3.653-25.568c-95.568-10.963-191.148-21.925-286.716-32.875-95.58-10.963-131.26-81.79-170.468-145.34-27.428-44.46-38.51-99.98-37.37-152.21 1.742-80.78 15.222-171.48 67.996-232.67 40.52-46.98 108.285-65.33 169.03-77.91 76.32-15.81 233.766 5.48 233.766 5.48z"/>
	<path fill="none" stroke="#e6e6e6" stroke-width="3" d="m445 264.82-157.06-6.945s-116.25 7.989-154.92 45.408c-65.883 63.747-94.702 169.97-86.008 261.23 7.151 75.07 50.308 151.64 110.05 197.66 27.372 21.085 66.459 19.347 100.43 25.642 66.283 12.283 200.86 23.505 200.86 23.505" filter="url(#h)" opacity=".853" transform="translate(3876.477 2459.084) scale(1.20865)"/>
	<path fill="#333" d="M4794.552 3400.632c1.708 13.85 1.523 25.31-.414 25.598s-4.892-10.707-6.6-24.557-1.522-25.31.414-25.599c1.937-.287 4.892 10.708 6.6 24.558zm-17.44 1.354c1.707 13.85 1.522 25.31-.415 25.598s-4.892-10.707-6.6-24.558-1.522-25.31.415-25.598c1.936-.287 4.891 10.707 6.6 24.558zm-26.664 2.079c1.709 13.85 1.523 25.31-.414 25.598s-4.89-10.708-6.6-24.558-1.522-25.31.415-25.598c1.936-.287 4.891 10.707 6.6 24.558zm-17.694 1.377c1.708 13.85 1.522 25.311-.414 25.599s-4.892-10.708-6.6-24.558-1.523-25.31.414-25.598c1.937-.288 4.892 10.707 6.6 24.557zm-29.252 2.282c1.966 13.83 1.337 25.325-1.405 25.675s-6.559-10.58-8.525-24.41-1.337-25.33 1.405-25.68c2.742-.35 6.56 10.58 8.525 24.41z"/>
	<path fill="url(#i)" d="m914.94 283.26.83-6.62-6.21-38.46-45.9-177.01c-3.52-11.912-10.65-11.206-18.2-11.992L519.99 33.876c-18.138-.493-32.886 6.592-37.841 35.567l-11.166 44.251c2.43 78.57-3.111 163.12 10.426 233.36l4.094 4.386 263.19-54.978z" transform="translate(3876.477 2459.084) scale(1.20865)"/>
	<path fill="url(#j)" d="m915.67 277.16-369.05-5.849c-19.853 3.207-42.073-7.192-56.147 29.243l-7.018 26.904c-5.984 24.607 5.393 29.374 21.055 29.243l356.77-4.679 49.129-32.753c4.185-12.122 6.205-26.33 5.263-42.11z" transform="translate(3876.477 2459.084) scale(1.20865)"/>
	<path fill="#1a1a1a" d="m4931.096 2741.425-235.384-2.874c17.543-132.009 183.267-102.264 235.384 2.874z"/>
	<path fill="url(#k)" d="m872.56 233.6-194.76-2.059c14.451-89.375 151.59-69.152 194.76 2.06z" transform="translate(3876.477 2459.084) scale(1.20865)"/>
	<path fill="#1a1a1a" d="m4538.382 2793.372-1.237 6.54c-16.122-.89-33.332-3.317-36.228 14.49l-11.664.178c.454-26.973 27.15-21.14 49.13-21.207zm-67.334 71.033 11.84.53c-5.735 15.403 8.392 14.254 21.915 13.608l-.707 9.013c-15.029-3.473-40.535 4.137-33.048-23.15z"/>
	<path fill="#1a1a1a" d="m4523.515 2804.806 97.97 1.458c1.626.07 3.04.131 4.265.198 4.206.348 6.332 5.107 5.638 7.064a91.108 91.108 0 0 0-1.317 3.674l-16.34 49.283c-2.3 4.092-5.057 4.61-9.304 5.97l-103.244-1.24c-4.337-2.134-4.373-3.37-4.715-7.872l16.105-51.32c2.85-4.07 6.535-5.33 10.942-7.21z"/>
	<path fill="#333" d="M4967.513 2840.727c1.248 4.84-5.636 10.323-15.377 12.248s-18.65-.438-19.898-5.277 5.637-10.324 15.378-12.249 18.65.438 19.897 5.278z" opacity=".779"/>
	<path fill="url(#l)" d="m630.74 313.16 55.089-23.293 152.61 7.444 29.363 16.543 17.37 124.48-59.967 21.092-144.75 1.24-35.98-20.264-18.938-116.33c.706-4.442 2.594-7.459 5.205-10.914z" transform="translate(3876.477 2459.084) scale(1.20865)"/>
	<path fill="url(#m)" d="m685.84 289.87-55.079 23.284c-3.013 3.094-3.922 6.867-5.246 10.857l18.974 116.41.913.52 57.81-21.2-.11-.8 156.82-.44-.036-.11 25.146 18.837-17.226-123.361-29.197-16.425 14.05 81.13-14.78-81.275-152.04-7.41z" transform="translate(3876.477 2459.084) scale(1.20865)"/>
	<path fill="#1a1a1a" d="M4513.508 2737.787c-22.718 1.065-43.433 9.096-52.978 34.626-7.998 10.735-9.268 28.4-9.792 46.801.02.237.024.47.043.706.557-17.223 1.982-33.64 9.75-43.714 9.543-24.671 30.258-32.408 52.977-33.436l446.088 6.793c6.196.67 11.67 2.35 16.762 4.543l7.146 42.7.22-1.72-7.366-45.567c-5.092-2.27-10.567-3.982-16.762-4.676l-446.088-7.058z"/>
	<path fill="#fff" d="M1563.5 652.91c4.238 3.75 10.194 5.475 15.78 4.568.835-.136 1.663-.327 2.506-.388.844-.061 1.718.015 2.477.388.726.357 1.316.97 2.077 1.246.53.192 1.114.206 1.668.102.555-.103 1.082-.32 1.583-.58 1.001-.52 1.917-1.215 2.978-1.598.986-.357 2.056-.427 3.104-.37 1.047.059 2.084.24 3.125.37 2.754.344 5.55.334 8.305 0 1.808-.22 3.595-.578 5.4-.831 3.027-.424 6.126-.547 9.135 0 1.795.326 3.574.89 5.398.83 2.232-.074 4.332-1.084 6.19-2.321 1.86-1.237 3.55-2.717 5.438-3.908 1.236-.78 2.56-1.434 3.967-1.827s2.902-.52 4.338-.25c.776.147 1.53.407 2.315.5.393.046.792.05 1.18-.024a2.446 2.446 0 0 0 1.073-.475c.306-.245.536-.572.83-.83.485-.425 1.124-.64 1.764-.71.661-.07 1.308 0 1.946.085.636.086 1.274.19 1.92.195.641.004 1.3-.098 1.866-.401.361-.192.672-.458 1-.7.326-.24.68-.462 1.08-.546.34-.071.691-.037 1.037-.002.346.035.698.07 1.038.002.54-.108.996-.465 1.376-.862s.708-.846 1.117-1.214c.797-.718 1.863-1.086 2.93-1.2 1.066-.114 2.143.007 3.204.164 1.064.158 2.124.35 3.197.38s2.17-.11 3.13-.59c.672-.336 1.253-.825 1.84-1.295.585-.47 1.195-.93 1.897-1.197 1.18-.446 2.496-.298 3.734-.056 1.241.24 2.486.572 3.743.47 1.41-.111 2.74-.762 4.153-.83 1.254-.06 2.484.346 3.737.416a7.22 7.22 0 0 0 4.983-1.66c.764-.64 1.386-1.43 2.086-2.14.7-.708 1.513-1.355 2.48-1.598.945-.238 1.936-.068 2.908 0 2.734.192 5.454-.432 8.113-1.1 2.656-.666 5.34-1.386 8.08-1.392 2.361-.005 4.756.518 7.06 0 1.793-.403 3.383-1.408 4.95-2.37s3.2-1.916 5.016-2.198c1.781-.277 3.6.115 5.4 0 2.586-.165 4.98-1.36 7.473-2.076 2.831-.812 5.848-1.007 8.725-.416.964.2 1.928.49 2.908.42.997-.07 1.933-.5 2.798-1 .864-.5 1.688-1.08 2.6-1.48 1.284-.57 2.7-.781 4.105-.78 1.403.005 2.796.22 4.175.478 2.757.517 5.57 1.205 8.334.72.58-.101 1.158-.255 1.748-.25.294.003.59.047.866.154s.528.279.71.512c.284.37.37.87.273 1.328-.095.456-.359.866-.695 1.186-.677.639-1.606.92-2.486 1.224-4.65 1.602-8.896 4.362-13.703 5.399-2.183.47-4.426.57-6.644.83-8.672 1.013-17.017 4.45-25.747 4.568-4.713.064-9.427-.847-14.12-.415-6.035.553-11.623 3.279-17.44 4.98-1.515.444-3.05.818-4.568 1.247-2.997.846-6.033 1.914-9.136 1.66-.487-.04-.97-.11-1.458-.135-.487-.03-.983-.008-1.45.135-.535.164-1.01.48-1.468.8-.46.322-.917.655-1.438.86-.56.222-1.166.287-1.752.423a4.057 4.057 0 0 0-.854.286c-.27.13-.523.309-.716.539-.16.19-.28.415-.4.634s-.252.437-.43.612c-.204.2-.47.335-.745.412a3.008 3.008 0 0 1-.854.094c-.575-.01-1.147-.122-1.72-.091-1.063.056-2.034.592-2.943 1.146-.908.553-1.827 1.148-2.872 1.346-.954.18-1.936.013-2.907 0-1.635-.023-3.243.389-4.81.857-1.565.468-3.123.997-4.742 1.219-2.5.343-5.035-.058-7.554-.24-2.517-.18-5.164-.112-7.395 1.07-.75.398-1.43.91-2.167 1.333-.736.422-1.554.756-2.401.744-.28-.004-.556-.046-.834-.065-.274-.02-.56-.017-.825.065a1.799 1.799 0 0 0-.64.37 3.586 3.586 0 0 0-.5.552c-.3.396-.56.828-.935 1.154-.354.308-.792.507-1.246.626-.453.12-.923.166-1.39.19-.935.056-1.906.047-2.761.43-.497.227-.928.57-1.324.94s-.763.779-1.17 1.14c-1.595 1.42-3.705 2.143-5.813 2.492-4.522.748-9.208-.061-13.704.83-3.474.688-6.661 2.356-9.976 3.598-1.658.618-3.364 1.135-5.12 1.358-1.756.226-3.568.15-5.253-.392-.837-.27-1.633-.65-2.447-.98s-1.66-.616-2.537-.68c-.967-.07-1.945.13-2.906 0-.961-.13-1.844-.581-2.704-1.03-.861-.447-1.741-.904-2.698-1.047-1.235-.184-2.5.169-3.737 0-1.434-.196-2.67-1.062-3.885-1.85-.607-.39-1.227-.771-1.894-1.05-.668-.28-1.39-.455-2.112-.42-.417.019-.843.109-1.245-.001a1.74 1.74 0 0 1-.708-.414c-.202-.186-.373-.403-.543-.62s-.341-.433-.543-.62a1.775 1.775 0 0 0-.7-.424c-.4-.117-.83-.038-1.245 0-1.643.153-3.316-.352-4.686-1.273-1.37-.922-2.446-2.243-3.204-3.71-.142-.275-.274-.555-.415-.83-.914-1.773-2.264-3.33-3.925-4.434s-3.633-1.755-5.627-1.794c-.416-.008-.83.009-1.246 0-2.792-.062-5.483-1.366-7.475-3.323-1.12-1.1-2.048-2.406-3.322-3.322-.656-.47-1.387-.826-2.077-1.246-1.452-.888-2.767-2.134-3.322-3.742-.331-.956-.381-2.003-.831-2.908-.14-.277-.313-.538-.417-.83a1.963 1.963 0 0 1-.044-1.138c.096-.373.3-.716.572-.99s.613-.472.98-.59.758-.153 1.14-.112c.767.08 1.484.46 2.043.99.558.53.966 1.206 1.26 1.918.588 1.424.732 2.986 1.126 4.475.199.745.462 1.479.86 2.137.4.66.942 1.244 1.617 1.616.68.375 1.467.522 2.244.548.777.026 1.55-.063 2.326-.133 3.493-.313 5.423 6.428 8.743 7.56 3.32 1.13 6.36 1.319 9.53-.084a10.4 10.4 0 0 1 .83 2.487" filter="url(#n)" opacity=".184" transform="translate(2252.897 2503.35) scale(1.41158)"/>
	<path fill="url(#o)" d="m871.66 425.3 6.374 41.432 8.322 44.973c10.845 12.344 20.466 3.9 21.955-4.603l-7.968-46.39-8.144-46.92z" transform="translate(3642.204 2415.789) scale(1.41158)"/>
	<path fill="url(#p)" d="m892.19 413.78-20.531 11.531 6.25 40.562c8.28-5.477 15.51-5.851 22.46-4.938l-.03-.218-8.16-46.938z" transform="translate(3642.204 2415.789) scale(1.41158)"/>
	<path fill="url(#q)" d="M862.99 401.93c1.136-4.963 25.63-7.972 29.569-2.479 2.42 8.5 3.021 16.998 3.541 25.496-8.196-2.049-16.905-1.949-27.444 5.843-2.496-9.417-4.807-18.897-5.666-28.86z" transform="translate(3642.204 2415.789) scale(1.41158)"/>
	<path fill="url(#r)" d="M889.75 423.03c-2.337.026-5.079.318-8 .906-7.79 1.568-13.753 4.627-13.312 6.813.23 1.14 2.17 1.8 5.063 1.968-.88-.279-1.458-.66-1.563-1.187-.358-1.786 4.512-4.281 10.844-5.563 6.332-1.28 11.736-.88 12.094.907.054.27-.016.58-.187.875 1.393-.938 2.133-1.868 1.968-2.688-.275-1.366-3.01-2.075-6.906-2.03z" transform="translate(3642.204 2415.789) scale(1.41158)"/>
	<path fill="url(#o)" d="m871.66 425.3 6.374 41.432 8.322 44.973c10.845 12.344 20.466 3.9 21.955-4.603l-7.968-46.39-8.144-46.92z" transform="matrix(1.40962 .07447 -.07447 1.40962 3516.35 2356.688)"/>
	<path fill="url(#p)" d="m892.19 413.78-20.531 11.531 6.25 40.562c8.28-5.477 15.51-5.851 22.46-4.938l-.03-.218-8.16-46.938z" transform="matrix(1.40962 .07447 -.07447 1.40962 3516.35 2356.688)"/>
	<path fill="url(#q)" d="M862.99 401.93c1.136-4.963 25.63-7.972 29.569-2.479 2.42 8.5 3.021 16.998 3.541 25.496-8.196-2.049-16.905-1.949-27.444 5.843-2.496-9.417-4.807-18.897-5.666-28.86z" transform="matrix(1.40962 .07447 -.07447 1.40962 3516.35 2356.688)"/>
	<path fill="url(#r)" d="M889.75 423.03c-2.337.026-5.079.318-8 .906-7.79 1.568-13.753 4.627-13.312 6.813.23 1.14 2.17 1.8 5.063 1.968-.88-.279-1.458-.66-1.563-1.187-.358-1.786 4.512-4.281 10.844-5.563 6.332-1.28 11.736-.88 12.094.907.054.27-.016.58-.187.875 1.393-.938 2.133-1.868 1.968-2.688-.275-1.366-3.01-2.075-6.906-2.03z" transform="matrix(1.40962 .07447 -.07447 1.40962 3516.35 2356.688)"/>
	<path fill="#4d4d4d" d="m4528.47 2808.952 85.965 1.28c1.427.06 2.668.114 3.742.173 3.691.305 5.556 4.48 4.947 6.198a79.758 79.758 0 0 0-1.155 3.224l-14.337 43.243c-2.019 3.59-4.438 4.046-8.165 5.238l-90.593-1.088c-3.805-1.872-3.836-2.957-4.137-6.907l14.132-45.03c2.501-3.58 5.734-4.685 9.601-6.332z"/>
	<path d="m4529.474 2809.786 83.563 1.243c1.387.06 2.593.112 3.637.17 3.588.296 5.401 4.355 4.81 6.025a77.89 77.89 0 0 0-1.124 3.133l-13.937 42.035c-1.962 3.491-4.314 3.934-7.936 5.093l-88.062-1.058c-3.7-1.82-3.73-2.874-4.022-6.714l13.738-43.773c2.431-3.478 5.573-4.553 9.333-6.154z"/>
	<path fill="url(#s)" d="M1601.3 175.26c-16.094.754-30.77 6.444-37.531 24.531-5.667 7.605-6.566 20.119-6.938 33.156.015.167.018.333.032.5.393-12.201 1.403-23.832 6.906-30.969 6.76-17.478 21.437-22.958 37.53-23.688l316.03 4.813c4.39.475 8.268 1.664 11.876 3.218l5.062 30.25.156-1.218-5.218-32.281c-3.608-1.61-7.486-2.821-11.875-3.313l-316.03-5z" filter="url(#t)" opacity=".266" transform="translate(2252.897 2488.74) scale(1.41158)"/>
	<path fill="#1a1a1a" d="m4392.663 2751.16 26.001-.572.807 9.92-26.189.92c-3.196-3.5-2.048-6.887-.62-10.27z"/>
	<path fill="#4d4d4d" d="m4392.177 2749.735 26.001-.571.807 9.92-26.188.92c-3.197-3.499-2.05-6.887-.621-10.269z"/>
	<path fill="#4d4d4d" d="M4454.792 2727.271c.294-.56 9.166 48.578 9.19 48.777 1.572 13.133-8.13 38.88-8.13 38.88-16.369.888-31.514-6.785-47.01-12.018l3.889-25.802.707-12.37-6.01-.354-1.413-14.138 7.07-.707.353-13.43c13.262-5.56 27.15-7.99 41.354-8.84z"/>
	<path fill="#1a1a1a" d="m4310.696 2784.9 26.002-.572.806 9.92-26.187.921c-3.196-3.5-2.049-6.888-.621-10.27z"/>
	<path fill="#212121" d="m4310.2 2783.461 26.002-.571.807 9.92-26.188.92c-3.196-3.499-2.049-6.887-.62-10.268z"/>
	<path fill="#1a1a1a" d="m4310.876 2753.538 25.997.73.31 9.947-26.2-.39c-3.018-3.655-1.703-6.982-.108-10.287z"/>
	<path fill="#4d4d4d" d="m4310.462 2752.09 25.997.73.3 9.948-26.2-.39c-3.02-3.655-1.71-6.982-.11-10.287z"/>
	<path fill="#4d4d4d" d="m4312.521 2741.46-23.202.707c2.81 1.285 5.676 14.396 6.573 30.524.92 16.555-.564 30.198-3.353 31.187v.044l24.217-.22c3-21.297 3.365-42.27-4.235-62.241z"/>
	<path fill="#1a1a1a" d="m4331.94 2769.905 26.002-.572.806 9.92-26.188.921c-3.196-3.5-2.05-6.888-.621-10.27z"/>
	<path fill="#4d4d4d" d="m4331.454 2768.48 26.002-.571.806 9.92-26.188.92c-3.196-3.5-2.049-6.89-.62-10.27z"/>
	<path fill="#4d4d4d" d="m4335.933 2741.46-15.124.707c1.833 1.285 3.7 14.396 4.284 30.524.6 16.555-.367 30.198-2.185 31.187v.044l15.785-.22c1.956-21.297 2.194-42.27-2.76-62.241z"/>
	<path fill="#1a1a1a" d="m4351.174 2784.646 26.002-.572.806 9.92-26.188.921c-3.196-3.5-2.049-6.888-.62-10.27z"/>
	<path fill="#1f1f1f" d="m4350.69 2783.22 26.002-.572.807 9.92-26.188.92c-3.196-3.5-2.049-6.887-.62-10.27z"/>
	<path fill="#1a1a1a" d="m4350.674 2752.41 26.002-.572.806 9.92-26.188.921c-3.196-3.5-2.049-6.888-.621-10.27z"/>
	<path fill="#4d4d4d" d="m4350.188 2750.985 26.002-.571.806 9.92-26.188.92c-3.196-3.5-2.049-6.887-.62-10.269z"/>
	<path fill="#4d4d4d" d="m4353.676 2741.46-15.124.707c1.833 1.285 3.7 14.396 4.284 30.524.6 16.555-.367 30.198-2.185 31.187v.044l15.785-.22c1.955-21.297 2.194-42.27-2.76-62.241z"/>
	<path fill="#1a1a1a" d="m4372.926 2766.656 26-.571.808 9.92-26.189.92c-3.196-3.5-2.048-6.887-.62-10.269z"/>
	<path fill="#4d4d4d" d="m4372.44 2765.232 26.001-.572.807 9.92-26.189.921c-3.196-3.49-2.048-6.88-.62-10.26z"/>
	<path fill="#4d4d4d" d="m4380.423 2741.46-15.123.707c1.832 1.285 3.7 14.396 4.284 30.524.6 16.555-.368 30.198-2.186 31.187v.044l15.785-.22c1.956-21.297 2.194-42.27-2.76-62.241z"/>
	<path fill="#1a1a1a" d="m4394.166 2783.643 26.001-.572.807 9.92-26.188.921c-3.196-3.5-2.049-6.888-.62-10.27z"/>
	<path fill="#242424" d="m4393.67 2782.217 26.002-.572.806 9.92-26.187.92c-3.197-3.499-2.05-6.887-.621-10.268z"/>
	<path fill="#4d4d4d" d="m4397.913 2741.46-15.124.707c1.832 1.285 3.7 14.396 4.284 30.524.6 16.555-.368 30.198-2.185 31.187v.044l15.785-.22c1.955-21.297 2.194-42.27-2.76-62.241z"/>
	<path fill="url(#u)" d="M478.48 221.89c.244-.464 7.584 40.192 7.603 40.356 1.301 10.866-6.726 32.168-6.726 32.168-13.543.735-26.074-5.613-38.894-9.943l3.217-21.348.585-10.235-4.971-.292-1.17-11.697 5.849-.585.292-11.113c10.973-4.595 22.464-6.606 34.215-7.311z" transform="translate(3876.477 2459.084) scale(1.20865)"/>
	<path fill="url(#v)" d="m360.77 233.63-19.197.584c2.326 1.063 4.696 11.911 5.438 25.255.77 13.697-.46 24.985-2.77 25.803v.036l20.04-.182c2.495-17.62 2.798-34.973-3.489-51.496zm19.37 0-12.513.584c1.516 1.063 3.061 11.911 3.545 25.255.496 13.697-.304 24.985-1.808 25.803v.036l13.06-.182c1.618-17.62 1.815-34.973-2.284-51.496z" transform="translate(3876.477 2459.084) scale(1.20865)"/>
	<path fill="url(#v)" d="m394.82 233.63-12.513.584c1.516 1.063 3.061 11.911 3.545 25.255.496 13.697-.304 24.985-1.808 25.803v.036l13.06-.182c1.617-17.62 1.815-34.973-2.284-51.496zm22.13 0-12.513.584c1.516 1.063 3.061 11.911 3.545 25.255.496 13.697-.304 24.985-1.808 25.803v.036l13.06-.182c1.617-17.62 1.815-34.973-2.284-51.496z" transform="translate(3876.477 2459.084) scale(1.20865)"/>
	<path fill="url(#v)" d="m431.42 233.63-12.513.584c1.516 1.063 3.061 11.911 3.545 25.255.496 13.697-.304 24.985-1.808 25.803v.036l13.06-.182c1.618-17.62 1.815-34.973-2.284-51.496z" transform="translate(3876.477 2459.084) scale(1.20865)"/>
	<path d="M4298.812 2985.769c-65.008-.334-111.452 51.482-112.782 138.124-1.774 115.524 77.297 249.2 176.572 298.573 99.28 49.377 181.189-4.245 182.965-119.77 1.765-115.523-77.269-249.2-176.547-298.573-24.814-12.34-48.54-18.25-70.21-18.36zm-.982 17.072c.885-.015 1.787-.008 2.681 0 19.08.154 40.06 5.394 62.1 16.354 24.808 12.33 48.02 30.437 68.57 52.31.106.109.195.234.299.34 56.045 56.935 94.506 142.2 93.334 218.574-1.582 103.007-74.608 150.84-163.131 106.814-71.39-35.505-131.03-119.92-150.621-205.277-6.206-23.24-9.45-46.64-9.101-69.195 1.13-73.777 40.098-118.968 95.898-119.921z"/>
	<path fill="none" stroke="#999" stroke-width="4" d="M264.94 460.64c165.28-50.46 300.09 226.79 196.84 329.73-181.92 74.7-312.82-253.91-196.84-329.73z" filter="url(#w)" opacity=".73" transform="matrix(1.20848 0 0 1.2333 3932.064 2436.534)"/>
	<path d="M4365.357 2980.87c-63.74-12.782-119.251 29.176-137.156 113.96-23.874 113.044 28.121 259.393 116.098 326.872 87.981 67.483 178.647 30.547 202.524-82.498 23.865-113.045-28.094-259.388-116.074-326.868-22-16.866-44.15-27.212-65.4-31.47zm-4.234 16.568c.872.155 1.755.336 2.632.514 18.69 3.806 38.28 12.97 57.81 27.948 21.97 16.852 41.283 39.07 57.262 64.477.084.126.148.265.232.391 44.095 66.616 65.509 157.67 49.726 232.406-21.288 100.797-102.126 133.752-180.575 73.582-63.265-48.525-105.628-142.803-108.504-230.333-1.64-23.999-.338-47.586 4.323-69.658 15.247-72.194 62.15-109.081 117.1-99.327z"/>
	<path fill="none" stroke="#999" stroke-width="4" d="M264.94 460.64c165.28-50.46 300.09 226.79 196.84 329.73-181.92 74.7-312.82-253.91-196.84-329.73z" filter="url(#w)" opacity=".73" transform="matrix(1.1861 .23153 -.23629 1.21047 4110.63 2371.542)"/>
	<path d="M4415.52 2987.832c-60.93-22.662-122.358 10.029-153.393 90.933-41.382 107.873-13.087 260.585 63.163 341.078 76.253 80.5 171.605 58.305 212.99-49.568 41.372-107.875 13.112-260.575-63.141-341.07-19.059-20.12-39.307-33.826-59.62-41.378zm-6.791 15.694c.837.29 1.68.608 2.518.922 17.858 6.702 35.76 18.837 52.687 36.705 19.042 20.103 34.613 45.085 46.391 72.691.063.138.104.286.167.423 33.053 72.73 39.857 166.02 12.5 237.337-36.899 96.185-121.918 115.996-189.911 44.22-54.831-57.883-81.816-157.656-70.87-244.547 2.16-23.957 7.162-47.045 15.241-68.107 26.428-68.89 78.556-97.93 131.282-79.643z"/>
	<path fill="none" stroke="#999" stroke-width="4" d="M264.94 460.64c165.28-50.46 300.09 226.79 196.84 329.73-181.92 74.7-312.82-253.91-196.84-329.73z" filter="url(#w)" opacity=".73" transform="matrix(1.13482 .41546 -.424 1.15814 4259.947 2345.99)"/>
	<path d="M4362.408 3028.962c-56.002-5.451-98.739 37.442-104.42 115.213-7.578 103.696 53.562 230.114 136.526 282.359 82.968 52.249 156.36 10.543 163.94-93.154 7.568-103.695-53.54-230.11-136.506-282.357-20.737-13.058-40.873-20.25-59.542-22.065zm-1.74 15.267c.763.057 1.54.135 2.31.213 16.43 1.65 34.237 8.023 52.653 19.62 20.72 13.048 39.773 31.162 56.337 52.452.086.105.156.224.242.33 45.313 55.614 73.992 135.3 68.983 203.855-6.756 92.46-72.19 129.667-146.17 83.08-59.659-37.57-106.634-118.17-119.048-196.445-4.133-21.38-5.7-42.67-4.222-62.916 4.84-66.223 40.785-103.754 88.92-100.19z"/>
	<path fill="none" stroke="#999" stroke-width="4" d="M264.94 460.64c165.28-50.46 300.09 226.79 196.84 329.73-181.92 74.7-312.82-253.91-196.84-329.73z" filter="url(#w)" opacity=".73" transform="matrix(1.0414 .09577 -.06457 1.10853 4075.123 2506.23)"/>
	<path d="M4532.121 2996.885c-58.792-5.868-122.63 40.301-160.17 124.007-50.053 111.613-34.426 247.677 34.87 303.915 69.297 56.238 166.033 11.348 216.083-100.266 50.053-111.59 34.46-247.654-34.836-303.893-17.323-14.06-36.358-21.794-55.955-23.749zm-8.05 16.433c.81.06 1.624.145 2.432.228 17.227 1.776 34.052 8.636 49.434 21.12 17.304 14.043 30.752 33.54 40.21 56.455.051.114.08.241.131.355 26.93 59.86 26.042 145.63-7.05 219.418-44.629 99.52-130.884 139.563-192.682 89.423-49.83-40.439-68.502-127.198-50.469-211.453 4.118-23.013 10.992-45.926 20.765-67.72 31.965-71.278 86.24-111.675 137.23-107.838z"/>
	<path fill="none" stroke="#999" stroke-width="4" d="M264.94 460.64c165.28-50.46 300.09 226.79 196.84 329.73-181.92 74.7-312.82-253.91-196.84-329.73z" filter="url(#w)" opacity=".73" transform="matrix(1.09556 .10308 -.51716 1.1931 4429.966 2434.246)"/>
	<path d="M4478.252 3422.088s54.044-9.653 81.164-13.89c26.996-4.217 54.008-8.445 81.164-11.472 26.979-3.007 54.08-4.826 81.165-6.638 27.031-1.807 81.164-4.22 81.164-4.22l.57 6.05.572 6.05.57 6.05.57 6.048s-53.9 2.768-80.81 4.753c-26.97 1.99-53.95 3.987-80.81 7.17-27.04 3.206-53.93 7.612-80.81 12.006-27 4.414-80.81 14.423-80.81 14.423l-.92-6.583-.92-6.582-.92-6.583z"/>
	<path fill="none" stroke="#ccc" stroke-width="3.86" d="M498.78 807.02c86.469-21.235 176.19-34.426 268.35-31.492" filter="url(#x)" opacity=".488" transform="translate(3876.477 2459.084) scale(1.20865)"/>
	<path d="M4444.965 3411.44c10.634 16.221 13.552 33.546 11.414 51.591 24.393-.6 42.714-10.918 61.18-21.002-2.046-20.004-8.07-39.18-24.654-56.157-16.496 7.234-33.729 12.623-47.939 25.568z"/>
	<path fill="none" stroke="#b3b3b3" stroke-width="7" d="M478.28 782.28c11.361 11.48 13.438 28.159 12.277 46.652" filter="url(#y)" opacity=".176" transform="translate(3876.477 2459.084) scale(1.20865)"/>
	<path fill="none" stroke="#b3b3b3" stroke-width="7" d="M459.72 778.74c11.361 11.48 13.438 28.159 12.277 46.652" filter="url(#y)" opacity=".176" transform="matrix(1.24962 0 .26405 1.23597 3697.899 2427.624)"/>
	<path fill="url(#z)" d="m931.69 750.94 48.207-8.78c.77 1.533 1.397 3.2.558 6.242l-48.207 8.78z" transform="translate(3876.477 2459.084) scale(1.20865)"/>
	<path d="m5001.15 3362.03 5.713-1.31c3.44 5.732 3.786 11.166 3.802 16.567l-5.714 1.311c1.567-5.88.14-11.384-3.801-16.568z"/>
	<path fill="url(#A)" d="m766.79 756.97 5.413-10.898 9.642-4.007 4.653-3.14 5.534-3.315 6.421-3.49 7.314-3.67 7.97.958 7.076 1.097 6.188 1.236 5.305 1.374 4.427 1.51 2.283 2.805 6.267 6.003 4.223-7.863 6.413 6.424 4.37-7.442 6.402 6.426 4.38-7.443 6.392 6.427 4.39-7.444 5.392-.51 5.391-.508 5.392-.509 7.94 2.682 6.903 2.794 5.862 2.906 8.542 5.007 4.694 3.073c2.373 4.294 3.953 8.695 1.84 13.596l-3.7 4.036-6.87 6.82-4.85 4.192-5.88 4.33-6.895 4.468-5.318.72-5.318.72-5.318.719-6.319-6.216-4.317 7.655-6.329-6.215-4.308 7.654-6.34-6.214-4.295 7.653-6.34-6.214-4.295 7.653-1.403 3.523-3.838 2.877-4.726 2.996-5.619 3.117-6.515 3.24-7.42 3.36-8.077-1.264-7.17-1.387-6.267-1.51-5.368-1.63-10.429-.946-8.475-5.561c-2.363-17.476-2.669-25.18-5.034-42.655z" transform="translate(3876.477 2459.084) scale(1.20865)"/>
	<path fill="url(#B)" stroke="#000" stroke-linecap="round" stroke-linejoin="round" stroke-width="4.088" d="M845.14 743.13c6.317 12.97 8.23 27.042 6.79 41.951m4.13-42.921c6.317 12.97 8.23 27.042 6.79 41.951m3.63-43.161c6.317 12.97 8.23 27.042 6.79 41.951m3.4-42.68c6.317 12.97 8.23 27.041 6.79 41.95" transform="translate(3876.477 2459.084) scale(1.20865)"/>
	<path fill="#999" d="m4810.521 3360.507-.705.309-6.573 13.19c2.858 21.121 3.23 30.398 6.087 51.52l10.278 6.75.353.043c2.823-8.702 4.032-20.625 2.911-33.613-1.43-16.57-6.281-30.71-12.35-38.2z" opacity=".549"/>
	<path fill="url(#C)" d="m783.53 740.92-1.679 1.131-9.635 4.02-5.438 10.92c2.365 17.48 2.672 25.15 5.037 42.63l8.503 5.588 10.401.95 1.205.366c3.413-7.263 5.052-18.874 3.941-31.752-1.346-15.6-6.34-28.583-12.336-33.832z" opacity=".549" transform="translate(3876.477 2459.084) scale(1.20865)"/>
	<path fill="url(#D)" d="m772.8 745.81-.584.256-5.438 10.91c2.365 17.477 2.672 25.152 5.037 42.628l8.503 5.584.292.037c2.335-7.2 3.336-17.064 2.41-27.81-1.184-13.71-5.198-25.408-10.22-31.606z" opacity=".549" transform="translate(3876.477 2459.084) scale(1.20865)"/>
	<path fill="#1a1a1a" d="m4719.002 3416.069 25.887-2.486 1.433 8.005-26.05 2.785c-3.408-2.598-2.479-5.443-1.27-8.304z"/>
	<path fill="#212121" d="m4718.422 3414.957 25.887-2.486 1.434 8.005-26.05 2.785c-3.41-2.598-2.48-5.443-1.27-8.304z"/>
	<path fill="#1a1a1a" d="m4717.223 3390.567 25.965-1.428.94 8.067-26.147 1.72c-3.24-2.738-2.14-5.546-.759-8.359z"/>
	<path fill="#4d4d4d" d="m4716.719 3389.423 25.964-1.428.94 8.067-26.147 1.72c-3.24-2.74-2.14-5.547-.759-8.36z"/>
	<path fill="#4d4d4d" d="m4718.072 3380.607-23.088 2.378c2.885.827 6.572 11.267 8.489 24.314 1.967 13.393 1.353 24.605-1.365 25.625v.036l24.13-2.062c1.64-17.554.675-34.64-8.17-50.291z"/>
	<path fill="#1a1a1a" d="m4739.255 3402.223 25.887-2.486 1.434 8.005-26.052 2.785c-3.408-2.598-2.48-5.443-1.27-8.304z"/>
	<path fill="#4d4d4d" d="m4738.68 3401.102 25.888-2.486 1.433 8.006-26.052 2.784c-3.41-2.598-2.48-5.443-1.27-8.304z"/>
	<path fill="#4d4d4d" d="m4741.41 3378.782-15.032 1.75c1.908.903 4.601 11.421 6.207 24.493 1.648 13.417 1.549 24.589-.201 25.534v.036l15.723-1.407c.6-17.472-.493-34.548-6.699-50.405z"/>
	<path fill="#1a1a1a" d="m4759.36 3412.721 25.886-2.486 1.434 8.005-26.05 2.785c-3.41-2.598-2.48-5.443-1.27-8.304z"/>
	<path fill="#1f1f1f" d="m4758.767 3411.597 25.887-2.486 1.433 8.005-26.05 2.785c-3.408-2.598-2.48-5.443-1.27-8.304z"/>
	<path fill="#1a1a1a" d="m4756.829 3386.547 25.887-2.486 1.434 8.005-26.052 2.785c-3.409-2.576-2.48-5.42-1.27-8.282z"/>
	<path fill="#4d4d4d" d="m4756.254 3385.426 25.887-2.486 1.434 8.005-26.052 2.785c-3.408-2.598-2.48-5.443-1.27-8.304z"/>
	<path fill="#4d4d4d" d="m4759.105 3377.404-15.033 1.75c1.909.903 4.602 11.421 6.207 24.493 1.648 13.417 1.55 24.589-.2 25.534v.036l15.7-1.407c.601-17.472-.489-34.548-6.699-50.405z"/>
	<path fill="#1a1a1a" d="m4779.914 3396.397 25.887-2.486 1.44 8.006-26.05 2.784c-3.4-2.598-2.48-5.443-1.27-8.304z"/>
	<path fill="#4d4d4d" d="m4779.34 3395.276 25.887-2.486 1.433 8.006-26.052 2.784c-3.408-2.597-2.48-5.442-1.27-8.303z"/>
	<path fill="#4d4d4d" d="m4785.768 3375.325-15.033 1.75c1.909.903 4.602 11.421 6.207 24.493 1.648 13.418 1.549 24.59-.2 25.534v.036l15.723-1.407c.599-17.47-.494-34.54-6.7-50.4z"/>
	<path fill="#4d4d4d" d="m4803.209 3373.972-15.033 1.75c1.908.902 4.602 11.42 6.207 24.493 1.648 13.417 1.549 24.588-.2 25.534v.03l15.723-1.41c.598-17.48-.494-34.55-6.7-50.41z"/>
	<path fill="url(#E)" d="m696.31 762.44-19.102 1.967c2.387.685 5.438 9.323 7.023 20.117 1.628 11.081 1.12 20.357-1.129 21.201v.03l19.964-1.706c1.357-14.523.559-28.66-6.759-41.61zm19.31-1.51-12.438 1.448c1.58.747 3.807 9.45 5.135 20.265 1.364 11.1 1.282 20.344-.166 21.126v.03l13.01-1.164c.495-14.456-.41-28.584-5.543-41.704z" transform="translate(3876.477 2459.084) scale(1.20865)"/>
	<path fill="url(#E)" d="m730.26 759.79-12.438 1.448c1.58.747 3.807 9.45 5.136 20.265 1.363 11.1 1.28 20.344-.167 21.126v.03l13.01-1.164c.5-14.456-.4-28.584-5.54-41.704zm22.06-1.72-12.438 1.448c1.58.747 3.807 9.45 5.136 20.265 1.363 11.1 1.28 20.344-.167 21.126v.03l13.01-1.165c.495-14.456-.41-28.584-5.543-41.704z" transform="translate(3876.477 2459.084) scale(1.20865)"/>
	<path fill="url(#E)" d="m766.75 756.95-12.438 1.448c1.58.747 3.807 9.45 5.136 20.265 1.363 11.1 1.28 20.344-.167 21.126v.03l13.01-1.164c.5-14.456-.4-28.584-5.54-41.704z" transform="translate(3876.477 2459.084) scale(1.20865)"/>
	<path fill="url(#F)" d="m779.42 754.72 16.804-2.4 16.46-3.773 15.776-1.029 10.63-.343s0-9.945-2.057-10.288c-2.057-.343-6.858-4.458-9.26-4.8-2.4-.344-16.117-3.43-16.117-3.43h-6.173l-9.945 6.86-3.43 1.37-10.973 7.888-4.801 2.058h-1.03zm107.68-10.97 12.003-2.058s8.916-2.4 9.945-2.057c1.029.343 3.086 0 4.458.343 1.372.343 6.516.686 3.087-1.372-3.43-2.058-9.603-4.458-11.317-4.801-1.715-.343-7.545-2.4-7.545-2.4l-8.916-.687-4.458 1.715h-2.401c1.355 2.545 6.131 3.72 3.43 7.888z" opacity=".598" transform="translate(3876.477 2459.084) scale(1.20865)"/>
	<path d="m5060.688 3355.987-1.28.22c1.565 2.435 1.466 4.977 1.28 7.5l1.279-.221c1.13-3.716.038-5.686-1.28-7.5zm-9.488 1.764-1.28.221c1.565 2.435 1.466 4.977 1.28 7.499l1.279-.22c1.129-3.717.038-5.686-1.28-7.5z"/>
	<path d="m5053.122 3357.389-1.28.22c1.564 2.435 1.465 4.977 1.28 7.5l1.279-.221c1.128-3.716.038-5.686-1.28-7.5z"/>
</svg>
