<svg xmlns="http://www.w3.org/2000/svg" viewBox="0 0 9000 6000">
	<defs>
		<linearGradient id="f">
			<stop offset="0" stop-color="#fff" />
			<stop offset="1" stop-color="#fff" stop-opacity="0" />
		</linearGradient>
		<linearGradient id="d">
			<stop offset="0" stop-color="#1a1a1a" />
			<stop offset="1" stop-color="#ccc" />
		</linearGradient>
		<linearGradient id="b">
			<stop offset="0" stop-color="#1a1a1a" />
			<stop offset=".463" stop-color="#4d4d4d" />
			<stop offset="1" stop-color="#1a1a1a" />
		</linearGradient>
		<linearGradient id="a">
			<stop offset="0" />
			<stop offset=".5082" stop-color="#b3b3b3" />
			<stop offset=".5922" stop-color="#e6e6e6" />
			<stop offset=".7056" stop-color="#ccc" />
			<stop offset="1" stop-color="#333" />
		</linearGradient>
		<linearGradient id="c">
			<stop offset="0" />
			<stop offset="1" stop-color="#1a1a1a" />
		</linearGradient>
		<linearGradient id="e">
			<stop offset="0" />
			<stop offset="1" stop-opacity="0" />
		</linearGradient>
		<linearGradient id="i" x1="566.43" x2="926.05" y1="205.67" y2="175.77"
			gradientTransform="translate(-193.83 -35.821) scale(1.1679)" gradientUnits="userSpaceOnUse">
			<stop offset="0" stop-color="#666" />
			<stop offset=".1193" stop-color="#2f2f2f" />
			<stop offset=".6115" stop-color="#4d4d4d" />
			<stop offset="1" stop-color="#1a1a1a" />
		</linearGradient>
		<linearGradient id="j" x1="666.56" x2="903.24" y1="298.62" y2="293.93"
			gradientTransform="translate(-193.83 -35.821) scale(1.1679)" gradientUnits="userSpaceOnUse">
			<stop offset="0" stop-color="#333" />
			<stop offset="1" stop-color="#1a1a1a" />
		</linearGradient>
		<linearGradient id="k" x1="825.72" x2="821.02" y1="288.05" y2="164.14"
			gradientTransform="matrix(1.1679 .0037354 -.0037354 1.1679 -193.07 -40.977)" gradientUnits="userSpaceOnUse">
			<stop offset="0" stop-color="#999" />
			<stop offset="1" stop-color="#999" stop-opacity="0" />
		</linearGradient>
		<linearGradient id="l" x1="726.42" x2="917.65" y1="420.31" y2="414.67"
			gradientTransform="translate(-193.83 -35.821) scale(1.1679)" gradientUnits="userSpaceOnUse">
			<stop offset="0" stop-color="#4d4d4d" />
			<stop offset="1" stop-color="#1a1a1a" />
		</linearGradient>
		<linearGradient id="m" x1="622.52" x2="925.56" y1="398.46" y2="360.88"
			gradientTransform="translate(-193.83 -35.821) scale(1.1679)" gradientUnits="userSpaceOnUse">
			<stop offset="0" stop-color="#b3b3b3" />
			<stop offset=".4447" stop-color="#666" />
			<stop offset=".4804" stop-color="#4d4d4d" />
			<stop offset=".9012" stop-color="#2b2828" />
			<stop offset=".9339" stop-color="#1a1a1a" />
			<stop offset="1" stop-color="#1a1a1a" />
		</linearGradient>
		<linearGradient href="#a" id="o" x1="879.75" x2="901.48" y1="472.75" y2="469.23"
			gradientUnits="userSpaceOnUse" />
		<linearGradient href="#b" id="p" x1="896.49" x2="881.51" y1="451.32" y2="453.96"
			gradientUnits="userSpaceOnUse" />
		<linearGradient href="#c" id="q" x1="869.76" x2="879.45" y1="415.2" y2="413.14"
			gradientUnits="userSpaceOnUse" />
		<linearGradient href="#d" id="r" x1="866.68" x2="896.49" y1="432.08" y2="424.89"
			gradientUnits="userSpaceOnUse" />
		<linearGradient id="s" x1="970.49" x2="568.51" y1="238.47" y2="235.15"
			gradientTransform="translate(984.28 -51.681)" gradientUnits="userSpaceOnUse">
			<stop offset="0" stop-color="#ccc" />
			<stop offset="1" stop-color="#e6e6e6" />
		</linearGradient>
		<linearGradient id="u" x1="558.27" x2="559.15" y1="255.68" y2="223.99"
			gradientTransform="translate(-193.83 -35.821) scale(1.1679)" gradientUnits="userSpaceOnUse">
			<stop offset="0" />
			<stop offset="1" stop-opacity="0" />
		</linearGradient>
		<linearGradient href="#e" id="v" x1="503.02" x2="503.2" y1="273.74" y2="253.56"
			gradientTransform="translate(-193.83 -35.821) scale(1.1679)" gradientUnits="userSpaceOnUse" />
		<linearGradient id="z" x1="1841.2" x2="1841.2" y1="937.4" y2="932.1"
			gradientTransform="matrix(.88614 -.1614 .1034 1.1562 -775.32 -33.824)" gradientUnits="userSpaceOnUse">
			<stop offset="0" />
			<stop offset=".4534" stop-color="#ccc" />
			<stop offset=".7326" stop-color="#ccc" />
			<stop offset=".8059" stop-opacity=".1882" />
			<stop offset="1" stop-color="#1a1a1a" />
		</linearGradient>
		<linearGradient id="A" x1="1872" x2="1866" y1="630.95" y2="589.15"
			gradientTransform="translate(-1343.3 36.624) scale(1.1679)" gradientUnits="userSpaceOnUse">
			<stop offset="0" />
			<stop offset=".2977" stop-color="#333" />
			<stop offset="1" stop-color="#666" />
		</linearGradient>
		<linearGradient id="B" x1="1891.9" x2="1885.2" y1="625.15" y2="584.04"
			gradientTransform="translate(-1343.3 36.624) scale(1.1679)" gradientUnits="userSpaceOnUse">
			<stop offset="0" />
			<stop offset="1" stop-color="#ccc" />
		</linearGradient>
		<linearGradient id="C" x1="1824.3" x2="1816.4" y1="626.54" y2="605.78"
			gradientTransform="translate(-1343.3 36.624) scale(1.1679)" gradientUnits="userSpaceOnUse">
			<stop offset="0" stop-color="#1a1a1a" />
			<stop offset="1" stop-color="#1a1a1a" stop-opacity="0" />
		</linearGradient>
		<linearGradient id="D" x1="1814.8" x2="1812.5" y1="650.99" y2="624.56"
			gradientTransform="translate(-1343.3 36.624) scale(1.1679)" gradientUnits="userSpaceOnUse">
			<stop offset="0" />
			<stop offset="1" stop-opacity="0" />
		</linearGradient>
		<linearGradient href="#e" id="E" x1="503.13" x2="502.75" y1="261.82" y2="235.22"
			gradientTransform="matrix(1.1643 -.090789 .074063 .94983 126.31 586.41)" gradientUnits="userSpaceOnUse" />
		<linearGradient href="#f" id="F" x1="1857.6" x2="1859" y1="584.34" y2="613.99"
			gradientTransform="translate(-1343.3 36.624) scale(1.1679)" gradientUnits="userSpaceOnUse" />
		<filter id="t">
			<feGaussianBlur stdDeviation="2.1789" />
		</filter>
		<filter id="n" width="1.0428" height="1.2279" x="-.0214" y="-.114">
			<feGaussianBlur stdDeviation="2.3487" />
		</filter>
		<filter id="w">
			<feGaussianBlur stdDeviation="3.8971" />
		</filter>
		<filter id="x" width="1.0487" height="1.4099" x="-.0244" y="-.2049">
			<feGaussianBlur stdDeviation="2.724" />
		</filter>
		<filter id="y" width="1.2828" height="1.0762" x="-.1414" y="-.0381">
			<feGaussianBlur stdDeviation=".7402" />
		</filter>
		<filter id="h">
			<feGaussianBlur stdDeviation="4.8315" />
		</filter>
		<filter id="g">
			<feGaussianBlur stdDeviation="13.0894" />
		</filter>
	</defs>
	<rect width="9000" height="2000" fill="red" />
	<rect width="9000" height="2000" y="2000" fill="white" />
	<rect width="9000" height="2000" y="4000" fill="green" />
	<path
		d="M720.28 115.92c-16.584.4782-29.824 8.3984-34.469 35.562l-11.156 44.25c1.1028 35.648.5592 72.535.9063 108.75-9.4616 1.0073-18.709 3.0166-27.625 6.75v.3125l-5.7812 4.75-.0937 5.9688-5.5626.125c-.4025-2.248-.8556-4.4994-1.4062-6.7188l-12.531.5937c.4422.3103.8925 1.5184 1.3125 3.3125-.4868-1.9352-.995-3.0118-1.5-2.9688-.393.0335-.765.7411-1.0625 2-.2119-.9772-.4464-1.9659-.6875-2.9375l-12.531.5938c.4327.3035.8693 1.4602 1.2812 3.1875-.4768-1.8512-1.0066-2.8858-1.5-2.8438-.748.0638-1.3181 2.6344-1.6874 6.7188l-6.0938.125c-.4407-2.6098-.9558-5.2095-1.5938-7.7812l-12.531.5937c.4326.3035.8692 1.4602 1.2812 3.1875-.4769-1.8512-1.0067-2.8858-1.5-2.8438-.4446.038-.8358.9474-1.1562 2.5312-.244-1.1537-.497-2.3228-.7813-3.4688l-12.531.5938c.4326.3035.8693 1.4602 1.2812 3.1875-.4768-1.8512-.9755-2.8858-1.4688-2.8438-.8296.0708-1.489 3.1646-1.8438 8.0625l-2.0625-.0625c-.728-3.0024-1.6263-5.9848-2.75-8.9375l-19.188.5938c.2663.1217.5163.3826.7813.75-.2652-.277-.5488-.4222-.8125-.4063-1.7113.1033-2.8458 6.6033-3 15.812-33.601-.2431-68.581 1.1731-93.344 6.4688-51.875 11.094-110.54 24.266-145.72 63.969-47.659 53.783-60.128 134.55-62.281 206.38-1.4374 47.94 8.2245 99.086 33.25 140 33.384 54.58 62.964 113.67 146.03 124.53 58.99 7.713 118.01 15.293 177.03 22.719 28.77 20.663 59.216 25.457 86.344 15.531-.0242.2198-.0364.4362-.0625.6562 15.341-.3778 27.768-5.385 39.562-11.438.6786.2906 1.3602.5866 2.0625.8125 1.968.6333 4.0744.7312 6.125.4688s4.0325-.8694 5.9688-1.5938c3.8724-1.4488 7.6007-3.4142 11.656-4.2188 5.2502-1.0414 10.719-.0945 16-.9688 2.462-.4076 4.9487-1.2466 6.8125-2.9062.4739-.422.8811-.878 1.3438-1.3125.4625-.4345.9838-.8331 1.5625-1.0938.9984-.4496 2.1255-.4692 3.2188-.5312.5466-.031 1.0957-.0789 1.625-.2188.5294-.1398 1.0245-.3592 1.4375-.7187.4374-.381.7436-.8812 1.0938-1.3438.1751-.2313.3746-.4662.5937-.6563.0468-.0406.1066-.0566.1563-.0937.7198-.1168 1.4364-.2585 2.1562-.375.1255.011.2489.0294.375.0312.6538.01 1.3008-.1499 1.9062-.4062 6.02-.97 12.034-1.9267 18.062-2.8438.945.0134 1.9047.004 2.8438-.125 1.128-.1549 2.218-.4626 3.3125-.7813 8.9835-1.3257 17.983-2.5562 27-3.625 14.157-1.678 28.349-2.96 42.562-4.0938 1.7109 8.0622 4.074 13.761 5.875 13.531.2466-.0315.4514-.1973.6562-.4375l19.281-1.625c.1864-1.9949.3437-3.9905.4375-5.9688l1.6875-.1875c1.0265 3.9533 2.1031 6.3738 2.9375 6.25.1635-.0243.3043-.166.4375-.375l12.625-1.1562c.0179-.5222.0171-1.041.0312-1.5625.5542 1.3042 1.0714 2.037 1.5312 1.9688.1738-.0258.3292-.1723.4688-.4062l12.594-1.125c.0699-2.038.1186-4.0706.125-6.0938l5.9062-.625c1.0452 4.0931 2.1179 6.6575 2.9688 6.5312.1737-.0258.3292-.1723.4687-.4063l12.594-1.125c.0122-.3551.0208-.7077.0312-1.0625.4766.9985.9431 1.5282 1.3438 1.4688.1656-.0246.303-.1921.4375-.4062l12.031-1.0625c.0422.3153.0815.5844.125.9063l8.4688 5.5624h.1562l10.281.9688 1.1875.3438 4.1875 1.25 6.25 1.5311 7.1875 1.375 8.0625 1.2812 7.4375-3.375 6.5-3.25 5.625-3.0938 4.7187-3 3.8438-2.875 1.4062-3.5312 4.2813-7.6562 6.3437 6.2188 4.3125-7.6562 6.3438 6.2188 4.2812-7.6562 6.3438 6.2188 4.2187-7.5.1875 1.1562c.036-.377.062-.749.094-1.125l6.125 6.0312 5.3125-.7187 5.3438-.7188 5.3125-.7187 6.875-4.4688 5.875-4.3438 4.8437-4.1875 6.875-6.8125 3.6875-4.0312c.048-.111.081-.2334.125-.3438l4.4688-1.0312c0-1.2004-.038-2.3853-.125-3.5938l42.187-7.6875c.01-.0207-.01-.042 0-.0625l.375-.0625c.8649-2.8475.163-4.4613-.8125-5.875-.04-.0832-.084-.1677-.125-.25h-.062c-.021-.0295-.041-.0644-.062-.0937l-1.0625.1875c.026.0404.038.0845.062.125l-5.1875.9375c-.021-.0295-.041-.0644-.062-.0937l-1.0625.1875c.02.0316.043.0621.062.0937l-.5312.0937c-.017-.0236-.045-.0389-.062-.0625l-1.0625.1875c.013.0202.019.0423.031.0625l-33.812 6.1875c-.4478-1.3129-1.0349-2.621-1.8438-3.9688l-4.0625.9063-3.9062-2.5312-8.5313-5-5.875-2.9062-6.9062-2.8125-7.9375-2.6562-2.5.2187-6.6875-.5-3.9375 1.5-2.0938.2188h-.8437c.017.0327.044.0615.062.0937h-.1563l-4.4062 7.4375-6.375-6.4375-4.375 7.4375-6.4063-6.4062-4.375 7.4375-6.4062-6.4375-4.2188 7.875-.031-.0312c-.045-.093-.08-.1883-.125-.2813l.031.1875-6.1562-5.875-2.2813-2.8125-4.4375-1.5-5.2812-1.375-6.1875-1.25-2.875-.4375c-3.1715-.6968-6.3125-1.4062-6.3125-1.4062h-4.0625l-1.8125-.2187-7.3125 3.6875-6.4063 3.4688-5.5625 3.3438-2.9688 2-1.6562 1.125-9.0625 3.75-.5937.25-5.4375 10.906c-.005-.0125-.0264-.0187-.0312-.0312l-12.438 1.4688c.4583.2169.9701 1.148 1.5 2.5625-.6081-1.5361-1.1867-2.3556-1.6875-2.2812-.3914.0581-.6895.6636-.9063 1.7188-.276-.7873-.6009-1.5635-.9062-2.3438l-12.406 1.4688c.4583.2169.9701 1.148 1.5 2.5625.2269.6058.4574 1.3058.6875 2.0938-.0101-.001-.0211.001-.0312 0-.23-.753-.4303-1.5228-.6563-2.0938-.608-1.5361-1.218-2.3556-1.7188-2.2812-.5951.0883-.9981 1.4527-1.1875 3.7188-.2692-.0521-.5441-.106-.8125-.1563-1.61-.301-3.2371-.5265-4.875-.5312-.4728-.001-.9346.0175-1.4062.0625-.354-1.048-.7196-2.0892-1.125-3.125l-12.438 1.4688c.4584.2169.9702 1.148 1.5 2.5625.2877.768.5835 1.6939.875 2.75-.2964-1.0328-.5838-2.0144-.875-2.75-.608-1.5361-1.1867-2.3556-1.6875-2.2812-.4472.0663-.781.8706-1 2.2188a70.11 70.11 0 0 0-1.0312-2.8125l-12.438 1.4375c.4584.2169.9702 1.1793 1.5 2.5938-.608-1.5361-1.1867-2.3868-1.6875-2.3125-.7746.115-1.1971 2.4481-1.2812 6.0625a14.043 14.043 0 0 1-2.25.3437 52.7734 52.7734 0 0 0-3.1562-6.625l-19.094 1.9688c.282.081.578.3003.875.5938-.2987-.2296-.5983-.3478-.875-.3125-1.211.1546-1.9084 2.9809-2.0625 7.2812-14.336 1.043-28.655 2.2205-42.938 3.8125-20.623 2.2987-41.152 5.4274-61.656 8.625 18.11-17.095 34.382-40.136 47.031-68.344 41.412-92.345 28.49-204.91-28.844-251.44-14.333-11.632-30.067-18.038-46.281-19.656-19.822-1.9784-40.359 3.1783-59.812 14.688-11.948-10.209-24.282-17.585-36.656-22.188-13.358-4.9686-26.747-6.697-39.688-5.3438-.6038-.1325-1.2105-.2855-1.8125-.4063-17.637-3.5369-34.514-2.007-49.719 4.2188-1.7941-.102-3.5817-.1472-5.3438-.1562-53.785-.2763-92.212 42.595-93.312 114.28-1.0559 68.769 32.522 145.28 82.031 198.03 8.5609 16.029 18.597 30.669 30 43.344l-142.59-16.344c-79.075-9.0659-108.59-67.642-141.03-120.22-22.697-36.79-31.849-82.72-30.906-125.94 1.4586-66.84 12.619-141.9 56.281-192.53 33.524-38.873 89.579-54.058 139.84-64.469 23.841-4.9379 57.241-5.4934 89.594-4.2812 1.0562 10.544 3.0012 18.207 4.875 18.094.2416-.0146.47-.1776.6875-.4375l19.375-.1875c.3413-2.4227.6276-4.8388.875-7.25l1.7188-.0625c.7161 4.9298 1.596 8.0093 2.4375 7.9375.17-.0145.3155-.18.4688-.4375l12.656-.1875c.0594-.6472.1008-1.2911.1562-1.9375.4534 1.6639.9087 2.6023 1.375 2.5625.17-.0145.3468-.18.5-.4375l12.656-.1875c.2283-2.4859.4301-4.9638.5938-7.4375l5.9062-.1875c.7239 5.1032 1.6106 8.3232 2.4688 8.25.17-.0145.3467-.18.5-.4375l12.656-.1875c.0412-.4485.0545-.8957.0937-1.3438.4032 1.3036.8397 2.0038 1.25 1.9688.17-.0145.3155-.18.4687-.4375l12.656-.1875c.2542-2.7688.452-5.5279.625-8.2812l4.4688-.1563 1.5625 8.2188h1.3125c10.877 3.7793 21.589 8.7728 32.906 9.4688.0563.7184.129 1.4396.1875 2.1562-.0006.021.0006.0416 0 .0625 1.424 17.411 3.5135 34.324 6.625 50.469l4.0938 4.375.375-.0937c4.0541 4.2512 10.825 5.4401 18.656 5.375l126.03-1.6562 13.906 85.344 36 20.281 5.9062-.0625c.594 3.2586 1.2635 6.4822 1.9375 9.7188-.0922.2505-.1292.4772-.0937.7188.181 1.2317 2.0648 2.109 4.9688 2.5312l3.9062 39.031.0937 1 6.9375 52.969c11.887 15.064 23.615 5.8243 25.875-4l-6.4062-54.594-4.875-40.688c.3157.261.515.5492.5625.875.0464.3184-.0636.6658-.2813 1 1.6832-1.0079 2.6107-2.0338 2.4688-3-.0573-.39-.279-.7474-.6562-1.0625-.0145-1.5982-.0316-3.1822-.0625-4.7812l97.906-.8438c.5843 2.3665 1.1908 4.7084 1.8125 7.0625-.063.2331-.1068.4678-.062.6875.2447 1.216 2.158 1.9478 5.0625 2.2188l6 38.781.1562 1.0312 9.7188 52.5c12.665 14.416 23.886 4.555 25.625-5.375l-9.2813-54.156-7.0312-40.406c.345.2486.5585.5434.625.875.063.3155-.019.6861-.2188 1.0312 1.6277-1.0953 2.5052-2.1989 2.3125-3.1562-.076-.3761-.3435-.6793-.7187-.9687-.1982-3.2008-.4208-6.393-.7188-9.5938l33.25-11.688-13.062-93.531 38.281-25.531c4.1015-11.88 6.1195-25.784 5.3125-41.188l.2187 1.3125.1875-1.4062-6.0937-37.719c-.043-.019-.082-.0436-.125-.0625l-.2188-1.2812-.125-.75-45.906-177c-3.5214-11.913-10.64-11.214-18.188-12l-325.34-15.35c-1.1336-.0308-2.2694-.0319-3.375 0zm-96.125 204.91c.0747.3791.1463.7997.2188 1.2188-.0726-.396-.1442-.8617-.2188-1.2188zm17.781 11-.0937 5.25c-1.1624-.1002-1.6295-.1177-3.6562-.2813a134.6747 134.6747 0 0 0-.375-4.8438l4.125-.125zm-36.188 1.0625c-.005.5439.0002 1.1264 0 1.6875-1.4552-.0833-2.8325-.168-4.3438-.25-.0329-.428-.0567-.854-.0937-1.2812l4.4375-.1563zm37.219 1.75 4.9688.2813v.0311l-4.9688-.3125zm-33.062 193.94c14.526 3.4907 29.665 10.867 44.75 22.438 3.0738 2.3576 6.086 4.8659 9.0312 7.4688a165.4586 165.4586 0 0 0-6.4062 6.0625c-14.47-12.774-29.949-23.502-46.094-31.531-2.4296-1.2084-4.8471-2.3462-7.25-3.4062 1.9771-.4176 3.9619-.785 5.9688-1.0312zm-48.531 3.6875a97.859 97.859 0 0 1 4.1875.4375c-17.354 13.622-32.221 34.453-42.812 62.062-12.084 31.499-16.987 67.611-15.5 104.09-1.6603-10.561-2.7188-21.135-3.0625-31.594-1.3574-19.856-.2942-39.363 3.5625-57.625 8.3276-39.432 28.088-66.103 53.625-77.375zm-28.938 2.4688c-17.589 16.314-30.943 41.079-37.75 73.312-10.257 48.568-3.6008 104.57 15.375 155-13.478-23.514-23.715-49.013-29.594-74.625-5.1363-19.228-7.8178-38.588-7.5312-57.25.7962-51.853 24.178-86.657 59.5-96.438zm51.938 2.0625c6.999 2.1496 14.173 5.0436 21.5 8.6875 7.5409 3.7505 14.888 8.1339 22.031 13.094-7.6136-2.6491-15.026-4.334-22.188-5.0312-23.876-2.3242-44.833 5.9816-60.188 23.375 10.586-18.573 23.924-32.092 38.844-40.125zm149.16 3.5938c1.9871-.0109 3.9602.0699 5.9375.2188.6696.0504 1.3319.1186 2 .1875 14.253 1.4694 28.18 7.1406 40.906 17.469 14.317 11.619 25.457 27.759 33.281 46.719.0424.0937.0515.1873.0937.2812 22.281 49.527 21.535 120.51-5.8438 181.56-14.492 32.317-34.265 57.035-56.062 72.656 7.5739-14.583 12.504-32.734 14.062-54.062 1.0441-14.289.5232-29.101-1.4062-44.062 4.2919-75.704-20.672-158.13-67.531-207.59-1.1892-1.2554-2.3938-2.4612-3.5938-3.6562 12.483-6.2928 25.41-9.649 38.156-9.7188zm-62.406 6.6562c1.1213.8263 2.2281 1.7123 3.3438 2.5938-.084.0625-.166.1247-.25.1875-1.0271-.9311-2.0529-1.8768-3.0938-2.7812zm357.59 1.6875.375 2.5c-.516-.2747-.8552-.62-.9375-1.0312-.091-.4563.1156-.9567.5625-1.4688zm-132.16 4.0625.25 2.5312c-.5132-.3043-.8449-.673-.9062-1.0938-.068-.4656.1723-.9443.6562-1.4375zm-213.31 4.4375c2.1669 2.032 4.3364 4.1551 6.4688 6.4062 12.537 13.235 23.234 29.029 32 46.438-11.199-19.536-24.408-37.307-39.219-52.312.2515-.1727.498-.361.75-.5313zm-86.312 8.7812c2.4064-.0788 4.8547-.0281 7.3438.1563.6321.0468 1.2691.1234 1.9062.1875 11.905 1.1956 24.679 5.4058 37.906 12.875-11.473 14.216-21.845 31.075-30.5 50.375-34.531 77-31.272 168.07 4 223.19-42.067-34.131-74.207-93.653-83.406-151.66-3.4195-17.69-4.724-35.311-3.5-52.062 3.7534-51.366 30.153-81.881 66.25-83.062zm74.812.0312c11.229 11.21 21.381 24.162 30.281 38.312.0693.1043.1183.208.1875.3125 7.9806 12.057 15.066 25.08 21.125 38.719-7.8782-12.522-16.602-24.258-26-34.875-9.8129-13.253-20.548-25.561-32.031-36.594 2.1168-2.0519 4.2621-4.0126 6.4375-5.875zm-18.406 18.906c7.6602 5.1443 15.048 11.113 22.062 17.781 39.46 46.438 65.536 109.84 64.656 167.16-.5377 35.021-11.055 62.314-28.344 79.812-13.044 5.5769-26.523 10.084-37.719 20.281.0335.0511.0605.1051.0937.1562-2.1927.4524-4.4178.793-6.6875 1.0625-1.0323-1.0608-2.1499-1.7722-3.4375-1.6562-.1155.0104-.2281.0204-.3437.0312-2.648-1.4333-5.2775-3.0288-7.8438-4.8125-.008-.0312-.023-.0625-.0312-.0937-.4598-1.7394-.626-3.5558-1.3125-5.2188-.3433-.8314-.8167-1.5992-1.4688-2.2188-.6523-.6195-1.4803-1.062-2.375-1.1562-.4473-.047-.9155-.0125-1.3438.125-.4283.1376-.8382.3696-1.1562.6875-.3182.318-.5442.7207-.6563 1.1562-.0106.0411.008.0834 0 .125-38.91-34.476-53.23-104.37-38.688-172.31 3.4067-19.04 9.1017-38.001 17.188-56.031 7.7335-17.245 17.046-32.276 27.406-44.875zm-132.41 109.41c7.9186 58.687 37.218 119.53 77.125 160.19-10.091-5.6375-19.858-12.454-29.188-20.219-8.346-9.3846-16.023-19.776-22.969-30.906-15.3-33.048-23.966-71.38-24.969-109.06zm367.72 179.66c.0103-.0008.021.0008.0312 0 .009.1413.0229.2976.0312.4375-.009-.1429-.0525-.2932-.0625-.4375z"
		filter="url(#g)" transform="matrix(1.20865 0 0 1.23004 3646.6108 2364.327)" />
	<path fill="#1a1a1a"
		d="m4413.4436 2736.4812-6.9695 5.7345-.1327 7.984 6.7489-.6616.3528-13.057zm-7.146 16.4099-.5734 34.803 2.9996 15.7476h1.588c-.4881-.1696-.967-.3643-1.4557-.5294l3.8817-25.8046.7058-12.3512-5.9992-.353-1.1468-11.513z" />
	<path fill="#333"
		d="M4387.2037 2773.2226c.6262 17.09-.4497 31.0788-2.403 31.2454s-4.0443-13.5522-4.6705-30.642.4496-31.0788 2.403-31.2454c1.9532-.1667 4.0443 13.5521 4.6705 30.642zm-17.4952 0c.6262 17.09-.4497 31.0788-2.403 31.2454s-4.0443-13.5522-4.6705-30.642.4496-31.0788 2.403-31.2454c1.9532-.1667 4.0443 13.5521 4.6705 30.642zm-26.7425 0c.6261 17.09-.4498 31.0788-2.403 31.2454s-4.0444-13.5522-4.6706-30.642.4496-31.0788 2.403-31.2454c1.9532-.1667 4.0443 13.5521 4.6705 30.642zm-17.7444 0c.6262 17.09-.4497 31.0788-2.403 31.2454s-4.0443-13.5522-4.6705-30.642.4496-31.0788 2.403-31.2454c1.9532-.1667 4.0443 13.5521 4.6705 30.642zm-29.31 0c.8852 17.09-.6357 31.0788-3.3968 31.2454s-5.7171-13.5522-6.6023-30.642.6356-31.0788 3.3969-31.2454c2.761-.1667 5.717 13.5521 6.6022 30.642z" />
	<path stroke="#000" stroke-width="1.2087"
		d="M4410.2649 2767.6886s-160.0253-14.7238-237.4151 1.8263c-62.6987 13.4087-133.6042 29.3327-176.1245 77.3197-57.603 65.0048-72.6761 162.636-75.2796 249.4533-1.7373 57.9427 9.9305 119.7482 40.178 169.1989 40.3496 65.9681 76.1292 137.3993 176.5233 150.5253 100.4014 13.1271 200.8414 25.9255 301.3285 38.3516l-3.6525-25.5677c-95.568-10.9625-191.148-21.925-286.716-32.8753-95.58-10.9625-131.2593-81.7894-170.468-145.3402-27.4278-44.4662-38.5087-99.9795-37.369-152.2174 1.763-80.7861 15.2435-171.4832 68.0168-232.6772 40.5188-46.9838 108.283-65.3287 169.0297-77.9108 76.3214-15.8079 233.765 5.4789 233.765 5.4789z" />
	<path fill="none" stroke="#e6e6e6" stroke-width="3"
		d="m445 264.82-157.06-6.9448s-116.25 7.9885-154.92 45.408c-65.883 63.747-94.702 169.97-86.008 261.23 7.1513 75.07 50.308 151.64 110.05 197.66 27.372 21.085 66.459 19.347 100.43 25.642 66.283 12.283 200.86 23.505 200.86 23.505"
		filter="url(#h)" opacity=".8525" transform="translate(3876.4767 2459.084) scale(1.20865)" />
	<path fill="#333"
		d="M4794.5521 3400.632c1.7081 13.8504 1.5227 25.3109-.4141 25.5982s-4.8917-10.7074-6.5998-24.5576-1.5227-25.311.4142-25.5983c1.9368-.2873 4.8916 10.7074 6.5997 24.5577zm-17.4408 1.3537c1.7081 13.8504 1.5226 25.3109-.4142 25.5982s-4.8916-10.7074-6.5997-24.5576-1.5227-25.311.4142-25.5983c1.9368-.2873 4.8916 10.7074 6.5997 24.5577zm-26.6628 2.0789c1.7081 13.8503 1.5226 25.3108-.4142 25.5982s-4.8916-10.7074-6.5997-24.5577-1.5227-25.3108.4141-25.5982c1.9368-.2873 4.8917 10.7074 6.5998 24.5577zm-17.6947 1.3778c1.7082 13.8504 1.5227 25.3109-.4141 25.5982s-4.8916-10.7073-6.5998-24.5576-1.5227-25.3109.4142-25.5982c1.9368-.2874 4.8916 10.7073 6.5997 24.5576zm-29.2517 2.2814c1.9662 13.8302 1.3371 25.3253-1.405 25.6755s-6.5589-10.5773-8.525-24.4075-1.3373-25.3253 1.405-25.6755c2.742-.3501 6.5589 10.5774 8.525 24.4075z" />
	<path fill="url(#i)"
		d="m914.94 283.26.83-6.62-6.21-38.46-45.9-177.01c-3.52-11.912-10.65-11.206-18.2-11.992L519.99 33.876c-18.138-.493-32.886 6.5916-37.841 35.567l-11.166 44.251c2.4307 78.57-3.111 163.12 10.426 233.36l4.0941 4.3865 263.19-54.978z"
		transform="translate(3876.4767 2459.084) scale(1.20865)" />
	<path fill="url(#j)"
		d="m915.67 277.16-369.05-5.8487c-19.853 3.2069-42.073-7.1922-56.147 29.243l-7.0184 26.904c-5.9837 24.607 5.3936 29.374 21.055 29.243l356.77-4.679 49.129-32.753c4.185-12.122 6.205-26.33 5.2638-42.111z"
		transform="translate(3876.4767 2459.084) scale(1.20865)" />
	<path fill="#1a1a1a" d="m4931.0964 2741.4246-235.3846-2.8735c17.5435-132.0088 183.2676-102.264 235.3846 2.8735z" />
	<path fill="url(#k)" d="m872.56 233.6-194.76-2.0588c14.451-89.375 151.59-69.152 194.76 2.0588z"
		transform="translate(3876.4767 2459.084) scale(1.20865)" />
	<path fill="#1a1a1a"
		d="m4538.3818 2793.3724-1.237 6.5388c-16.1222-.889-33.3322-3.3165-36.2281 14.4917l-11.6639.1767c.454-26.9722 27.1511-21.1405 49.1292-21.207zm-67.3339 71.0324 11.8407.5301c-5.7356 15.403 8.3909 14.2536 21.914 13.6082l-.707 9.013c-15.0283-3.4734-40.5344 4.1365-33.048-23.1504z" />
	<path fill="#1a1a1a"
		d="m4523.5154 2804.8062 97.9695 1.4579c1.6265.0703 3.0408.1311 4.2651.1979 4.2061.3485 6.3317 5.1067 5.6378 7.0644-.3977 1.0507-.8502 2.2659-1.3169 3.6734l-16.3397 49.2827c-2.3004 4.0924-5.0572 4.6113-9.3044 5.97l-103.2441-1.2402c-4.3368-2.1332-4.3723-3.3699-4.7152-7.8716l16.1053-51.3193c2.851-4.0785 6.5348-5.3384 10.9424-7.215z" />
	<path fill="#333"
		d="M4967.5134 2840.7268c1.2481 4.8395-5.6367 10.3233-15.3777 12.2482s-18.6493-.4377-19.8974-5.2773 5.6367-10.3233 15.3776-12.2482 18.6494.4377 19.8975 5.2773z"
		opacity=".7787" />
	<path fill="url(#l)"
		d="m630.74 313.16 55.089-23.293 152.61 7.4442 29.363 16.543 17.37 124.48-59.967 21.092-144.75 1.2407-35.98-20.265-18.938-116.33c.7057-4.4422 2.5942-7.4589 5.2052-10.914z"
		transform="translate(3876.4767 2459.084) scale(1.20865)" />
	<path fill="url(#m)"
		d="m685.84 289.87-55.079 23.284c-3.013 3.0943-3.9221 6.8674-5.2456 10.857l18.974 116.41.9125.511 57.81-21.204-.1098-.803 156.82-.438-.0362-.1094 25.146 18.832-17.226-123.36-29.197-16.423 14.051 81.131-14.781-81.277-152.04-7.4087z"
		transform="translate(3876.4767 2459.084) scale(1.20865)" />
	<path fill="#1a1a1a"
		d="M4513.5078 2737.7866c-22.7178 1.0649-43.4329 9.096-52.9776 34.6266-7.9987 10.7352-9.2679 28.3997-9.7926 46.8013.0197.236.024.47.0438.7058.5563-17.2232 1.9813-33.6403 9.7486-43.7144 9.544-24.671 30.2585-32.4076 52.9775-33.4361l446.0886 6.793c6.1959.6704 11.6701 2.3493 16.7615 4.5435l7.146 42.6992.2205-1.7204-7.3664-45.5661c-5.092-2.2707-10.5663-3.982-16.7616-4.6758l-446.0885-7.0585z" />
	<path fill="#fff"
		d="M1563.5 652.91c4.2378 3.7506 10.194 5.4749 15.78 4.568.8348-.1355 1.6627-.3266 2.5062-.3879.8435-.0613 1.7182.0146 2.4771.3879.726.3571 1.3157.97 2.0763 1.2458.5302.1923 1.1145.2063 1.6688.1025.5544-.1037 1.082-.3211 1.5826-.5808 1.0013-.5194 1.9169-1.2146 2.9777-1.598.9867-.3567 2.0567-.4262 3.1042-.3686 1.0476.0576 2.0839.2384 3.1249.3686 2.754.3444 5.5502.3347 8.3054 0 1.8075-.2196 3.5953-.578 5.3985-.8306 3.0288-.4242 6.1269-.547 9.136 0 1.7958.3265 3.5742.8915 5.3985.8306 2.2314-.0745 4.3314-1.0844 6.19-2.3215 1.8585-1.2371 3.549-2.717 5.4376-3.9076 1.236-.7793 2.5603-1.434 3.9675-1.8273 1.4072-.3934 2.902-.5194 4.3379-.249.7763.146 1.5308.406 2.3153.4986.3922.0463.792.05 1.1799-.024.388-.0739.7645-.2279 1.0728-.4747.3059-.245.5357-.5724.8305-.8306.4842-.424 1.1235-.6401 1.7633-.7093.6399-.069 1.2862-.001 1.924.085.6378.0861 1.2759.1907 1.9194.1948.6436.004 1.3007-.0975 1.8682-.401.3584-.1917.6704-.4576.9974-.6988.3271-.2413.6812-.4634 1.0789-.547.3401-.0714.6924-.0375 1.0381-.002.3457.035.6976.0707 1.0383.002.5392-.1079.9957-.465 1.3758-.8625s.7072-.8458 1.1158-1.2139c.7971-.7179 1.8627-1.0854 2.9294-1.1997 1.0666-.1143 2.1439.007 3.205.1643 1.0612.1572 2.1211.3505 3.1934.3806s2.1708-.1113 3.1303-.591c.672-.3359 1.2529-.8249 1.8391-1.2947.5863-.4698 1.1957-.931 1.8984-1.197 1.1798-.4464 2.4957-.2983 3.7337-.0565 1.2381.2417 2.4837.5726 3.7411.4718 1.4097-.1129 2.7401-.7634 4.1527-.8305 1.2541-.0596 2.484.3446 3.7375.4153 1.7902.101 3.6084-.51 4.9832-1.6611.7641-.6398 1.3864-1.4292 2.0868-2.1382.7004-.709 1.5148-1.3561 2.4812-1.5993.9443-.2377 1.9355-.0682 2.9069 0 2.7344.192 5.4547-.4314 8.1135-1.0984 2.6587-.6671 5.341-1.3871 8.0821-1.3932 2.3608-.005 4.7563.518 7.0596 0 1.7935-.4034 3.3834-1.408 4.9501-2.3697s3.1999-1.916 5.0164-2.1983c1.7809-.2769 3.5999.1148 5.3985 0 2.5883-.1652 4.9822-1.36 7.4749-2.0764 2.8243-.8117 5.8422-1.007 8.7207-.4153.9623.1978 1.9269.4837 2.9069.4153.9971-.0696 1.9326-.5027 2.7973-1.0041.8646-.5015 1.6884-1.0803 2.6012-1.4875 1.2809-.5714 2.6999-.7856 4.1025-.7814 1.4025.004 2.7957.22 4.1743.4777 2.7574.5155 5.5711 1.2033 8.334.719.5808-.1019 1.1584-.2555 1.748-.25.2948.003.5914.0465.8662.1533.2748.1068.5274.2789.708.512.2852.368.3701.8697.2746 1.3254-.096.4558-.3589.8657-.6967 1.1862-.6756.641-1.6043.9223-2.4848 1.2257-4.6495 1.6023-8.8965 4.3625-13.704 5.3985-2.1831.4705-4.4262.5714-6.6443.8306-8.6718 1.013-17.017 4.45-25.747 4.568-4.7124.0637-9.4262-.847-14.119-.4153-6.0353.5552-11.624 3.2818-17.441 4.9832-1.5148.443-3.0489.8173-4.5679 1.2458-2.9969.8453-6.0324 1.9135-9.136 1.661-.4863-.0394-.9699-.1115-1.4572-.1376-.4872-.026-.9831-.005-1.4497.1377-.5355.1637-1.0098.4798-1.4687.8007-.459.321-.9175.6544-1.4382.8604-.5594.2213-1.1662.286-1.7522.422-.293.068-.5832.1547-.8539.2857-.2708.131-.5224.308-.7161.538-.1611.1916-.2787.415-.4004.6338s-.251.4373-.4301.612c-.2057.2009-.4701.3354-.747.4125-.2769.077-.5668.0988-.8542.0942-.5748-.009-1.1469-.1218-1.721-.0913-1.0621.0563-2.0332.5925-2.9416 1.1457-.9084.5531-1.8271 1.1484-2.8722 1.346-.9544.1804-1.9357.0136-2.9069 0-1.6342-.023-3.2418.3891-4.8078.857-1.566.468-3.1242.997-4.7434 1.2193-2.5013.3434-5.0355-.0582-7.5537-.2391-2.5183-.1809-5.1654-.113-7.396 1.0697-.7493.3973-1.431.9107-2.1669 1.3324-.7359.4217-1.553.7563-2.4011.744-.2785-.004-.555-.0456-.8329-.0653-.2778-.0197-.562-.0168-.8282.0652-.2374.0731-.4528.2075-.6404.3702-.1876.1628-.3487.3538-.4987.5519-.2998.396-.5626.828-.9372 1.1543-.3536.3078-.7923.5065-1.2456.6262-.4532.1197-.9229.1639-1.391.1904-.9361.0531-1.9071.0442-2.762.4292-.4955.2231-.926.5688-1.3221.9408s-.7637.7741-1.1695 1.1355c-1.5959 1.4211-3.7056 2.1426-5.8138 2.4916-4.5215.7486-9.2084-.0612-13.704.8306-3.4726.6888-6.659 2.358-9.9748 3.5987-1.6579.6202-3.3646 1.1374-5.1204 1.362-1.7558.2248-3.568.1495-5.2531-.3927-.8368-.2692-1.6327-.6496-2.4469-.9808s-1.6596-.6164-2.5363-.6803c-.9676-.0706-1.9455.1303-2.9069 0-.9602-.1301-1.8427-.5816-2.7023-1.029-.8595-.4473-1.738-.9044-2.6963-1.0474-1.2346-.1842-2.5005.1687-3.7374 0-1.4337-.1955-2.6708-1.0623-3.8849-1.8494-.607-.3936-1.2264-.7748-1.8939-1.054-.6674-.2791-1.3887-.4542-2.1113-.4188-.417.0204-.843.1095-1.2459 0-.2655-.072-.5025-.2273-.7054-.4131-.2028-.1859-.3744-.4026-.5446-.6188s-.3408-.4336-.5418-.6213c-.2011-.1878-.4357-.346-.6998-.4231-.4014-.1171-.8295-.0386-1.2458 0-1.644.1523-3.317-.352-4.6867-1.2738-1.3697-.9219-2.4455-2.2427-3.2034-3.7094-.1421-.275-.2736-.5554-.4153-.8306-.9136-1.7739-2.2637-3.3287-3.9245-4.4346s-3.6318-1.7546-5.6267-1.7945c-.4152-.008-.8307.009-1.2459 0-2.7917-.062-5.4826-1.3655-7.4748-3.3222-1.1193-1.0992-2.0482-2.4068-3.3222-3.3222-.6558-.4711-1.3866-.8258-2.0763-1.2458-1.4528-.8846-2.7671-2.1297-3.3222-3.7374-.3296-.9545-.3813-2.0025-.8306-2.9069-.1378-.2774-.3119-.5384-.4152-.8305-.1284-.3631-.1403-.7648-.044-1.1377.096-.373.2988-.7164.5712-.9886s.6132-.4737.9799-.5915.7586-.1525 1.1416-.1122c.7661.0807 1.4832.461 2.0417.9915.5584.5305.9662 1.2046 1.2601 1.9166.5879 1.424.7326 2.9864 1.1263 4.4758.1968.7447.4591 1.478.8583 2.1369.3992.6588.9419 1.2424 1.6163 1.6146.6801.3754 1.4664.5224 2.2429.5484.7764.0259 1.5514-.0634 2.3251-.1331 3.4931-.3146 5.4232 6.427 8.7431 7.5583 3.3198 1.1312 6.3573 1.3192 9.5288-.0834.378.792.6576 1.631.8305 2.4916"
		filter="url(#n)" opacity=".1844" transform="translate(2252.8972 2503.3496) scale(1.41158)" />
	<path fill="url(#o)"
		d="m871.66 425.3 6.3741 41.432 8.3218 44.973c10.845 12.344 20.466 3.899 21.955-4.6035l-7.9676-46.389-8.1447-46.921z"
		transform="translate(3642.204 2415.789) scale(1.41158)" />
	<path fill="url(#p)"
		d="m892.19 413.78-20.531 11.531 6.25 40.562c8.2862-5.4774 15.514-5.8514 22.469-4.9375l-.0312-.2188-8.1562-46.938z"
		transform="translate(3642.204 2415.789) scale(1.41158)" />
	<path fill="url(#q)"
		d="M862.99 401.93c1.1356-4.9625 25.63-7.9717 29.569-2.4788 2.4192 8.4988 3.0211 16.998 3.5412 25.496-8.1965-2.0488-16.905-1.9488-27.444 5.843-2.4963-9.4176-4.8069-18.897-5.6659-28.861z"
		transform="translate(3642.204 2415.789) scale(1.41158)" />
	<path fill="url(#r)"
		d="M889.75 423.03c-2.3372.0264-5.0787.3182-8 .9063-7.7902 1.568-13.753 4.6264-13.312 6.8124.2294 1.1398 2.1694 1.7996 5.0625 1.9688-.8793-.2792-1.4571-.6609-1.5625-1.1875-.3577-1.7862 4.5119-4.2812 10.844-5.5625 6.3319-1.2813 11.736-.8799 12.094.9063.0541.2701-.0165.5794-.1875.875 1.3938-.9379 2.1338-1.8677 1.9688-2.6875-.275-1.3663-3.011-2.0752-6.9062-2.0312z"
		transform="translate(3642.204 2415.789) scale(1.41158)" />
	<path fill="url(#o)"
		d="m871.66 425.3 6.3741 41.432 8.3218 44.973c10.845 12.344 20.466 3.899 21.955-4.6035l-7.9676-46.389-8.1447-46.921z"
		transform="rotate(3.0241 -42882.1964 67785.0314) scale(1.411586)" />
	<path fill="url(#p)"
		d="m892.19 413.78-20.531 11.531 6.25 40.562c8.2862-5.4774 15.514-5.8514 22.469-4.9375l-.0312-.2188-8.1562-46.938z"
		transform="rotate(3.0241 -42882.1964 67785.0314) scale(1.411586)" />
	<path fill="url(#q)"
		d="M862.99 401.93c1.1356-4.9625 25.63-7.9717 29.569-2.4788 2.4192 8.4988 3.0211 16.998 3.5412 25.496-8.1965-2.0488-16.905-1.9488-27.444 5.843-2.4963-9.4176-4.8069-18.897-5.6659-28.861z"
		transform="rotate(3.0241 -42882.1964 67785.0314) scale(1.411586)" />
	<path fill="url(#r)"
		d="M889.75 423.03c-2.3372.0264-5.0787.3182-8 .9063-7.7902 1.568-13.753 4.6264-13.312 6.8124.2294 1.1398 2.1694 1.7996 5.0625 1.9688-.8793-.2792-1.4571-.6609-1.5625-1.1875-.3577-1.7862 4.5119-4.2812 10.844-5.5625 6.3319-1.2813 11.736-.8799 12.094.9063.0541.2701-.0165.5794-.1875.875 1.3938-.9379 2.1338-1.8677 1.9688-2.6875-.275-1.3663-3.011-2.0752-6.9062-2.0312z"
		transform="rotate(3.0241 -42882.1964 67785.0314) scale(1.411586)" />
	<path fill="#4d4d4d"
		d="m4528.4709 2808.9519 85.964 1.2792c1.4272.0617 2.668.1151 3.7424.1737 3.6908.3057 5.5557 4.4808 4.947 6.1986-.349.922-.7462 1.9883-1.1556 3.2233l-14.337 43.243c-2.0185 3.591-4.4376 4.0462-8.1643 5.2385l-90.5931-1.0882c-3.8051-1.8717-3.8365-2.9569-4.1372-6.907l14.1315-45.0307c2.5014-3.5785 5.734-4.684 9.6014-6.3309z" />
	<path
		d="m4529.474 2809.7859 83.5625 1.2434c1.3874.06 2.5935.1118 3.638.1688 3.5876.2972 5.4006 4.3556 4.8087 6.0256-.3391.8962-.7252 1.9326-1.1233 3.1332l-13.9369 42.0356c-1.9621 3.4907-4.3136 3.9332-7.9361 5.092l-88.0623-1.0577c-3.6988-1.8194-3.7292-2.8743-4.0216-6.714l13.7375-43.7726c2.4316-3.4786 5.5738-4.5532 9.3332-6.154z" />
	<path fill="url(#s)"
		d="M1601.3 175.26c-16.094.7544-30.77 6.444-37.531 24.531-5.6667 7.6052-6.5658 20.119-6.9375 33.156.014.1672.017.3329.031.5.394-12.201 1.4036-23.832 6.9062-30.969 6.7614-17.478 21.437-22.958 37.531-23.688l316.03 4.8125c4.3894.475 8.2676 1.6643 11.875 3.2188l5.0625 30.25.1563-1.2188-5.2188-32.281c-3.6074-1.6086-7.4856-2.821-11.875-3.3125l-316.03-5z"
		filter="url(#t)" opacity=".2664" transform="translate(2252.8972 2488.7394) scale(1.41158)" />
	<path fill="#1a1a1a"
		d="m4392.6627 2751.16 26.0016-.5716.8066 9.9207-26.1884.9203c-3.1961-3.4996-2.0488-6.888-.6209-10.2694z" />
	<path fill="#4d4d4d"
		d="m4392.1768 2749.7355 26.0015-.5715.8066 9.9206-26.1884.9204c-3.1961-3.4997-2.0488-6.8881-.6209-10.2695z" />
	<path fill="#4d4d4d"
		d="M4454.7916 2727.2713c.2948-.5601 9.166 48.578 9.1897 48.7763 1.5727 13.1332-8.1294 38.8799-8.1294 38.8799-16.3687.8882-31.5143-6.7842-47.0092-12.0174l3.888-25.8023.7069-12.3705-6.0087-.3534-1.4138-14.1376 7.069-.707.3535-13.4316c13.2625-5.5534 27.1511-7.9838 41.354-8.8364z" />
	<path fill="#1a1a1a"
		d="m4310.6963 2784.8998 26.0017-.5716.8065 9.9206-26.1878.9204c-3.196-3.4997-2.0486-6.8881-.6208-10.2693z" />
	<path fill="#212121"
		d="m4310.2008 2783.4615 26.0016-.5716.8066 9.9206-26.1878.9204c-3.1962-3.4997-2.049-6.8881-.621-10.2693z" />
	<path fill="#1a1a1a"
		d="m4310.8761 2753.5378 25.9966.7292.3096 9.9481-26.2007-.3901c-3.017-3.655-1.7017-6.9817-.1066-10.2873z" />
	<path fill="#4d4d4d"
		d="m4310.462 2752.0908 25.9966.7292.3096 9.9482-26.2007-.3902c-3.017-3.655-1.7017-6.9816-.1066-10.2872z" />
	<path fill="#4d4d4d"
		d="m4312.5214 2741.4609-23.2025.7058c2.8113 1.2855 5.676 14.3962 6.5727 30.5244.9201 16.5549-.5638 30.1981-3.3525 31.1868v.044l24.2165-.2205c3-21.2965 3.3659-42.2702-4.2346-62.2407z" />
	<path fill="#1a1a1a"
		d="m4331.9401 2769.905 26.0016-.5716.8066 9.9206-26.1884.9204c-3.1961-3.4997-2.0488-6.8881-.6209-10.2695z" />
	<path fill="#4d4d4d"
		d="m4331.4542 2768.4805 26.0015-.5716.8067 9.9207-26.1884.9203c-3.1962-3.4997-2.0488-6.888-.621-10.2695z" />
	<path fill="#4d4d4d"
		d="m4335.933 2741.4609-15.124.7058c1.8326 1.2855 3.7 14.3962 4.2843 30.5244.5999 16.5549-.3675 30.1981-2.1853 31.1868v.044l15.785-.2205c1.9555-21.2965 2.194-42.2702-2.7603-62.2407z" />
	<path fill="#1a1a1a"
		d="m4351.174 2784.646 26.0017-.5716.8065 9.9206-26.1878.9204c-3.1961-3.4997-2.0489-6.8881-.621-10.2695z" />
	<path fill="#1f1f1f"
		d="m4350.6905 2783.2197 26.0017-.5715.8067 9.9206-26.1878.9203c-3.1962-3.4996-2.0489-6.888-.621-10.2693z" />
	<path fill="#1a1a1a"
		d="m4350.6742 2752.4097 26.0016-.5715.8066 9.9206-26.1884.9204c-3.1961-3.4997-2.0488-6.8881-.621-10.2695z" />
	<path fill="#4d4d4d"
		d="m4350.1883 2750.9853 26.0015-.5716.8066 9.9206-26.1884.9204c-3.1961-3.4997-2.0488-6.888-.6209-10.2695z" />
	<path fill="#4d4d4d"
		d="m4353.6759 2741.4609-15.1238.7058c1.8325 1.2855 3.6999 14.3962 4.2841 30.5244.6 16.5549-.3674 30.1981-2.1852 31.1868v.044l15.785-.2205c1.9553-21.2965 2.194-42.2702-2.7603-62.2407z" />
	<path fill="#1a1a1a"
		d="m4372.9255 2766.6561 26.0015-.5716.8066 9.9207-26.1883.9203c-3.1962-3.4996-2.0488-6.888-.621-10.2694z" />
	<path fill="#4d4d4d"
		d="m4372.4395 2765.2316 26.0015-.5715.8067 9.9206-26.1884.9204c-3.1962-3.4997-2.0488-6.8881-.621-10.2695z" />
	<path fill="#4d4d4d"
		d="m4380.4233 2741.4609-15.1238.7058c1.8325 1.2855 3.7 14.3962 4.2842 30.5244.5999 16.5549-.3675 30.1981-2.1853 31.1868v.044l15.785-.2205c1.9554-21.2965 2.194-42.2702-2.7603-62.2407z" />
	<path fill="#1a1a1a"
		d="m4394.1657 2783.6428 26.0017-.5716.8065 9.9205-26.1878.9204c-3.196-3.4997-2.0487-6.8881-.621-10.2694z" />
	<path fill="#242424"
		d="m4393.6701 2782.2166 26.0017-.5716.8066 9.9205-26.1878.9204c-3.1962-3.4997-2.049-6.8881-.621-10.2694z" />
	<path fill="#4d4d4d"
		d="m4397.9125 2741.4609-15.1238.7058c1.8324 1.2855 3.6998 14.3962 4.2841 30.5244.5998 16.5549-.3675 30.1981-2.1852 31.1868v.044l15.785-.2205c1.9554-21.2965 2.1939-42.2702-2.7604-62.2407z" />
	<path fill="url(#u)"
		d="M478.48 221.89c.244-.4635 7.5837 40.192 7.6033 40.356 1.3012 10.866-6.726 32.168-6.726 32.168-13.543.7349-26.074-5.613-38.894-9.9428l3.2168-21.348.5849-10.235-4.9714-.2924-1.1697-11.697 5.8487-.5849.2924-11.113c10.973-4.5947 22.464-6.6055 34.215-7.3109z"
		transform="translate(3876.4767 2459.084) scale(1.20865)" />
	<path fill="url(#v)"
		d="m360.77 233.63-19.197.584c2.326 1.0635 4.6962 11.911 5.438 25.255.7613 13.697-.4665 24.985-2.7737 25.803v.0363l20.036-.1824c2.4821-17.62 2.7848-34.973-3.5036-51.496zm19.37 0-12.513.584c1.5162 1.0635 3.0612 11.911 3.5446 25.255.4963 13.697-.304 24.985-1.808 25.803v.0363l13.06-.1824c1.6179-17.62 1.8152-34.973-2.2838-51.496z"
		transform="translate(3876.4767 2459.084) scale(1.20865)" />
	<path fill="url(#v)"
		d="m394.82 233.63-12.513.584c1.5162 1.0635 3.0612 11.911 3.5446 25.255.4964 13.697-.304 24.985-1.808 25.803v.0363l13.06-.1824c1.6178-17.62 1.8152-34.973-2.2838-51.496zm22.13 0-12.513.584c1.5162 1.0635 3.0612 11.911 3.5446 25.255.4964 13.697-.304 24.985-1.808 25.803v.0363l13.06-.1824c1.6178-17.62 1.8152-34.973-2.2838-51.496z"
		transform="translate(3876.4767 2459.084) scale(1.20865)" />
	<path fill="url(#v)"
		d="m431.42 233.63-12.513.584c1.5161 1.0635 3.0611 11.911 3.5446 25.255.4962 13.697-.3041 24.985-1.808 25.803v.0363l13.06-.1824c1.6179-17.62 1.8152-34.973-2.2838-51.496z"
		transform="translate(3876.4767 2459.084) scale(1.20865)" />
	<path
		d="M4298.8116 2985.7685c-65.0072-.334-111.452 51.4824-112.7815 138.1245-1.7738 115.524 77.2968 249.1994 176.5717 298.5728 99.2797 49.377 181.1887-4.2452 182.9654-119.77 1.7646-115.5227-77.269-249.1994-176.5475-298.5728-24.8136-12.3403-48.5394-18.2506-70.2105-18.3594zm-.982 17.0721c.8857-.015 1.7876-.0072 2.6818 0 19.0737.154 40.057 5.3944 62.0944 16.3543 24.7918 12.3306 48.0027 30.4374 68.5534 52.3116.1063.1076.1959.232.3021.3399 56.0415 56.9334 94.5032 142.1977 93.3308 218.5723-1.5816 103.0072-74.6076 150.8395-163.1315 106.8144-71.389-35.5053-131.0297-119.9198-150.622-205.2771-6.208-23.24-9.449-46.6394-9.1025-69.1952 1.1328-73.7772 40.0993-118.9674 95.899-119.921z" />
	<path fill="none" stroke="#999" stroke-width="4"
		d="M264.94 460.64c165.28-50.46 300.09 226.79 196.84 329.73-181.92 74.7-312.82-253.91-196.84-329.73z"
		filter="url(#w)" opacity=".7295" transform="matrix(1.20848 0 0 1.2333 3932.064 2436.5337)" />
	<path
		d="M4365.3572 2980.8704c-63.7393-12.7824-119.2515 29.176-137.1561 113.9587-23.8742 113.0446 28.1211 259.3935 116.098 326.8726 87.981 67.4835 178.6464 30.5474 202.5236-82.4975 23.865-113.0452-28.0938-259.3883-116.0742-326.868-21.9898-16.8658-44.1438-27.2123-65.3927-31.471zm-4.2347 16.5679c.8722.1548 1.7559.3353 2.632.5138 18.691 3.8055 38.2818 12.969 57.8112 27.948 21.9702 16.8521 41.2822 39.0706 57.2614 64.477.0838.126.1478.2651.2315.3914 44.0957 66.616 65.5092 157.67 49.726 232.4056-21.2875 100.7965-102.1252 133.7519-180.575 73.5819-63.2643-48.5252-105.6276-142.803-108.5033-230.333-1.6405-23.999-.3384-47.586 4.323-69.6578 15.247-72.1938 62.1498-109.0815 117.0988-99.3268z" />
	<path fill="none" stroke="#999" stroke-width="4"
		d="M264.94 460.64c165.28-50.46 300.09 226.79 196.84 329.73-181.92 74.7-312.82-253.91-196.84-329.73z"
		filter="url(#w)" opacity=".7295" transform="matrix(1.1861 .23153 -.23629 1.21047 4110.6296 2371.5423)" />
	<path
		d="M4415.52 2987.8324c-60.9303-22.6624-122.3582 10.0285-153.3933 90.9327-41.3817 107.873-13.0868 260.5846 63.1632 341.0784 76.2533 80.4988 171.6047 58.3044 212.9894-49.5683 41.3727-107.875 13.1129-260.5751-63.1405-341.0701-19.0588-20.1188-39.3066-33.8256-59.6194-41.378zm-6.7914 15.694c.8369.2903 1.6811.6078 2.5183.922 17.8582 6.702 35.761 18.8368 52.6873 36.7049 19.0416 20.1023 34.6129 45.0851 46.3909 72.6911.0628.1377.1042.2852.1669.4231 33.0526 72.7299 39.857 166.02 12.4992 237.3365-36.898 96.1852-121.9173 115.9965-189.9103 44.2211-54.8314-57.884-81.8163-157.6574-70.8694-244.5478 2.16-23.9577 7.1611-47.0451 15.2409-68.1071 26.4276-68.891 78.5551-97.9306 131.2817-79.6427z" />
	<path fill="none" stroke="#999" stroke-width="4"
		d="M264.94 460.64c165.28-50.46 300.09 226.79 196.84 329.73-181.92 74.7-312.82-253.91-196.84-329.73z"
		filter="url(#w)" opacity=".7295" transform="matrix(1.13482 .41546 -.424 1.15814 4259.947 2345.9894)" />
	<path
		d="M4362.4076 3028.9622c-56.002-5.4516-98.7382 37.442-104.4202 115.2131-7.577 103.6959 53.5624 230.1133 136.5265 282.3586 82.968 52.249 156.3598 10.5427 163.9394-93.1537 7.5691-103.6955-53.5384-230.1111-136.5056-282.3567-20.7368-13.0582-40.8728-20.2507-59.542-22.0658zm-1.7401 15.2672c.764.0566 1.5408.1351 2.311.2125 16.4284 1.65 34.2363 8.023 52.6529 19.6204 20.7185 13.0477 39.7723 31.162 56.3363 52.4517.086.1052.1567.224.2426.3295 45.3123 55.6145 73.9921 135.3004 68.983 203.8553-6.756 92.4606-72.1897 129.6668-146.1693 83.0807-59.6598-37.5705-106.635-118.171-119.0493-196.4453-4.133-21.3807-5.7007-42.6697-4.2212-62.916 4.839-66.2235 40.784-103.7539 88.9188-100.1892z" />
	<path fill="none" stroke="#999" stroke-width="4"
		d="M264.94 460.64c165.28-50.46 300.09 226.79 196.84 329.73-181.92 74.7-312.82-253.91-196.84-329.73z"
		filter="url(#w)" opacity=".7295" transform="matrix(1.041396 .095766 -.064572 1.108533 4075.1227 2506.2307)" />
	<path
		d="M4532.121 2996.8849c-58.7924-5.8679-122.6296 40.3012-160.1703 124.0075-50.0526 111.6128-34.426 247.6765 34.8707 303.915 69.2968 56.2373 166.0323 11.3473 216.0825-100.266 50.0526-111.6127 34.461-247.6765-34.8357-303.915-17.3236-14.059-36.3586-21.792-55.9557-23.7476zm-8.0494 16.4328c.8093.061 1.6236.1455 2.4311.2287 17.2269 1.776 34.0525 8.6355 49.4338 21.1188 17.3042 14.0433 30.7529 33.5412 40.2106 56.456.0512.1133.0803.2412.1313.3547 26.93 59.8608 26.0416 145.6302-7.0499 219.4183-44.6294 99.519-130.8847 139.5628-192.683 89.4232-49.829-40.439-68.5014-127.1984-50.4684-211.4534 4.1175-23.0127 10.9917-45.9262 20.7646-67.7194 31.9652-71.279 86.2408-111.6756 137.2302-107.8382z" />
	<path fill="none" stroke="#999" stroke-width="4"
		d="M264.94 460.64c165.28-50.46 300.09 226.79 196.84 329.73-181.92 74.7-312.82-253.91-196.84-329.73z"
		filter="url(#w)" opacity=".7295" transform="matrix(1.095557 .103079 -.517157 1.193107 4429.9659 2434.2462)" />
	<path
		d="M4478.2515 3422.088s54.0447-9.6534 81.1644-13.8898c26.9964-4.217 54.0086-8.4454 81.1645-11.4722 26.9783-3.0071 54.0798-4.8264 81.1645-6.6375 27.0314-1.8077 81.1644-4.2203 81.1644-4.2203l.5707 6.0494.5707 6.0495.5708 6.0494.5707 6.0494s-53.901 2.7683-80.8116 4.7532c-26.9698 1.9892-53.9565 3.9871-80.8115 7.1706-27.0436 3.2057-53.936 7.6115-80.8116 12.0052-27.0048 4.4145-80.8115 14.4228-80.8115 14.4228l-.9234-6.5825-.9234-6.5824-.9234-6.5824z" />
	<path fill="none" stroke="#ccc" stroke-width="3.86" d="M498.78 807.02c86.469-21.235 176.19-34.426 268.35-31.492"
		filter="url(#x)" opacity=".4877" transform="translate(3876.4767 2459.084) scale(1.20865)" />
	<path
		d="M4444.9652 3411.4398c10.6335 16.2212 13.5514 33.546 11.4142 51.5912 24.393-.6008 42.7137-10.9176 61.1794-21.0015-2.0461-20.0044-8.069-39.1808-24.654-56.1575-16.4957 7.2337-33.7286 12.6231-47.9387 25.5678z" />
	<path fill="none" stroke="#b3b3b3" stroke-width="7" d="M478.28 782.28c11.361 11.48 13.438 28.159 12.277 46.652"
		filter="url(#y)" opacity=".1762" transform="translate(3876.4767 2459.084) scale(1.20865)" />
	<path fill="none" stroke="#b3b3b3" stroke-width="7" d="M459.72 778.74c11.361 11.48 13.438 28.159 12.277 46.652"
		filter="url(#y)" opacity=".1762" transform="matrix(1.24962 0 .26405 1.23597 3697.8987 2427.624)" />
	<path fill="url(#z)" d="m931.69 750.94 48.207-8.7802c.7698 1.5332 1.3975 3.1996.5583 6.242l-48.207 8.7802z"
		transform="translate(3876.4767 2459.084) scale(1.20865)" />
	<path
		d="m5001.1497 3362.0301 5.7134-1.3109c3.4406 5.7327 3.7856 11.1665 3.8015 16.5682l-5.7134 1.311c1.5666-5.8815.1411-11.3844-3.8015-16.5683z" />
	<path fill="url(#A)"
		d="m766.79 756.97 5.4126-10.898 9.6423-4.0068 4.6527-3.1401 5.5343-3.315 6.4212-3.491 7.3136-3.6681 7.9699.9572 7.0763 1.097 6.188 1.2357 5.305 1.374 4.427 1.5111 2.2834 2.8044 6.2664 6.0026 4.223-7.863 6.413 6.424 4.3696-7.4416 6.4028 6.4255 4.38-7.443 6.392 6.427 4.3905-7.4444 5.3914-.5087 5.3914-.5087 5.3914-.5087 7.9399 2.682 6.9038 2.7937 5.8619 2.906 8.5419 5.0065 4.694 3.0734c2.3723 4.294 3.9532 8.6953 1.8395 13.596l-3.6972 4.0358-6.8673 6.8216-4.8452 4.191-5.872 4.33-6.8931 4.468-5.3182.7196-5.318.7195-5.3179.7194-6.3188-6.2162-4.3173 7.6552-6.3294-6.2148-4.3066 7.6537-6.3398-6.2134-4.2964 7.6523-6.3398-6.2134-4.2963 7.6523-1.4031 3.5238-3.8383 2.8763-4.7258 2.9964-5.6188 3.1172-6.5167 3.2387-7.4203 3.361-8.0766-1.2644-7.1695-1.387-6.2674-1.5092-5.3708-1.6304-10.428-.9462-8.4748-5.5613c-2.3645-17.476-2.6713-25.179-5.0358-42.655z"
		transform="translate(3876.4767 2459.084) scale(1.20865)" />
	<path fill="url(#B)" stroke="#000" stroke-linecap="round" stroke-linejoin="round" stroke-width="4.0876"
		d="M845.14 743.13c6.3169 12.97 8.2293 27.042 6.7898 41.951m4.1302-42.921c6.3169 12.97 8.2293 27.042 6.7898 41.951m3.6302-43.161c6.3169 12.97 8.2293 27.042 6.7898 41.951m3.4002-42.681c6.3169 12.97 8.2293 27.042 6.7898 41.951"
		transform="translate(3876.4767 2459.084) scale(1.20865)" />
	<path fill="#999"
		d="m4810.5214 3360.5072-.7058.3088-6.5726 13.1888c2.8579 21.1224 3.2295 30.3988 6.0874 51.5211l10.2777 6.749.353.044c2.8226-8.702 4.0322-20.6244 2.9114-33.6126-1.43-16.5693-6.2818-30.7093-12.3512-38.2005z"
		opacity=".5492" />
	<path fill="url(#C)"
		d="m783.53 740.92-1.6787 1.1314-9.635 4.0146-5.438 10.912c2.3645 17.476 2.672 25.151 5.0365 42.627l8.5035 5.5839 10.401.9489 1.2044.365c3.4129-7.2627 5.0528-18.874 3.9416-31.752-1.3462-15.599-6.3416-28.583-12.336-33.832z"
		opacity=".5492" transform="translate(3876.4767 2459.084) scale(1.20865)" />
	<path fill="url(#D)"
		d="m772.8 745.81-.584.2555-5.438 10.912c2.3646 17.476 2.672 25.151 5.0366 42.627l8.5035 5.5839.292.0364c2.3353-7.1997 3.3361-17.064 2.4088-27.81-1.183-13.709-5.1974-25.408-10.219-31.606z"
		opacity=".5492" transform="translate(3876.4767 2459.084) scale(1.20865)" />
	<path fill="#1a1a1a"
		d="m4719.0024 3416.0689 25.887-2.4862 1.4331 8.0056-26.05 2.7844c-3.4082-2.5979-2.4792-5.4428-1.27-8.3038z" />
	<path fill="#212121"
		d="m4718.4223 3414.957 25.8869-2.4863 1.4333 8.0058-26.05 2.7843c-3.4085-2.5978-2.4796-5.4428-1.2704-8.3038z" />
	<path fill="#1a1a1a"
		d="m4717.2233 3390.5674 25.9648-1.428.9396 8.067-26.1468 1.7196c-3.2398-2.738-2.1394-5.546-.7588-8.3586z" />
	<path fill="#4d4d4d"
		d="m4716.7186 3389.4228 25.9648-1.428.9396 8.067-26.1467 1.7196c-3.2398-2.7381-2.1395-5.546-.7588-8.3586z" />
	<path fill="#4d4d4d"
		d="m4718.0718 3380.607-23.0876 2.3779c2.8845.827 6.572 11.2676 8.4884 24.3144 1.9675 13.393 1.3531 24.6045-1.3644 25.6246v.0356l24.1295-2.062c1.6403-17.5532.675-34.6398-8.169-50.2907z" />
	<path fill="#1a1a1a"
		d="m4739.255 3402.2228 25.8875-2.4861 1.4334 8.0056-26.0516 2.7844c-3.4086-2.5978-2.4795-5.4428-1.2704-8.3038z" />
	<path fill="#4d4d4d"
		d="m4738.6802 3401.102 25.8874-2.486 1.4334 8.0056-26.0516 2.7843c-3.4085-2.5977-2.4795-5.4427-1.2703-8.3037z" />
	<path fill="#4d4d4d"
		d="m4741.4108 3378.782-15.0332 1.7498c1.9087.903 4.6018 11.4213 6.207 24.4933 1.648 13.4172 1.549 24.5888-.2007 25.534v.0357l15.7234-1.4065c.5989-17.4723-.4934-34.548-6.6991-50.4055z" />
	<path fill="#1a1a1a"
		d="m4759.3593 3412.721 25.8868-2.4863 1.4334 8.0056-26.05 2.7844c-3.4086-2.5979-2.4796-5.4428-1.2703-8.3038z" />
	<path fill="#1f1f1f"
		d="m4758.767 3411.5969 25.8869-2.4862 1.4335 8.0057-26.05 2.7844c-3.4085-2.5979-2.4795-5.4428-1.2704-8.3038z" />
	<path fill="#1a1a1a"
		d="m4756.8288 3386.5466 25.8875-2.4861 1.4333 8.0056-26.0516 2.7844c-3.4085-2.5978-2.4795-5.4428-1.2703-8.3038z" />
	<path fill="#4d4d4d"
		d="m4756.254 3385.4259 25.8874-2.4862 1.4334 8.0057-26.0516 2.7843c-3.4085-2.5977-2.4795-5.4427-1.2703-8.3037z" />
	<path fill="#4d4d4d"
		d="m4759.1055 3377.4042-15.0332 1.7497c1.9085.9031 4.6018 11.4213 6.207 24.4933 1.648 13.4172 1.5488 24.5888-.2009 25.534v.0357l15.7234-1.4065c.599-17.4722-.4932-34.548-6.6991-50.4055z" />
	<path fill="#1a1a1a"
		d="m4779.914 3396.3971 25.8875-2.4861 1.4333 8.0056-26.0515 2.7844c-3.4086-2.5978-2.4795-5.4428-1.2704-8.3038z" />
	<path fill="#4d4d4d"
		d="m4779.3392 3395.2764 25.8874-2.4862 1.4334 8.0057-26.0516 2.7843c-3.4085-2.5977-2.4795-5.4427-1.2703-8.3037z" />
	<path fill="#4d4d4d"
		d="m4785.7683 3375.3253-15.0332 1.7498c1.9086.903 4.6017 11.4212 6.207 24.4932 1.648 13.4173 1.5488 24.5888-.2009 25.534v.0356l15.7234-1.4065c.5989-17.4722-.4934-34.548-6.699-50.4055z" />
	<path fill="#4d4d4d"
		d="m4803.209 3373.9716-15.0331 1.7498c1.9086.903 4.6017 11.4212 6.2071 24.4933 1.648 13.4172 1.5487 24.5887-.2008 25.5339v.0357l15.7233-1.4066c.599-17.4722-.4933-34.548-6.699-50.4055z" />
	<path fill="url(#E)"
		d="m696.31 762.44-19.102 1.9673c2.3866.6842 5.4375 9.3225 7.0231 20.117 1.6278 11.081 1.1195 20.357-1.1289 21.201v.0295l19.964-1.706c1.3572-14.523.5585-28.66-6.7587-41.609zm19.31-1.51-12.438 1.4477c1.5792.7472 3.8074 9.4496 5.1355 20.265 1.3635 11.101 1.2815 20.344-.166 21.126v.0296l13.009-1.1637c.4955-14.456-.4082-28.584-5.5427-41.704z"
		transform="translate(3876.4767 2459.084) scale(1.20865)" />
	<path fill="url(#E)"
		d="m730.26 759.79-12.438 1.4477c1.5791.7472 3.8074 9.4496 5.1355 20.265 1.3635 11.101 1.2814 20.344-.1662 21.126v.0296l13.009-1.1637c.4957-14.456-.408-28.584-5.5426-41.704zm22.06-1.72-12.438 1.4477c1.5791.7472 3.8073 9.4496 5.1355 20.265 1.3635 11.101 1.2814 20.344-.1662 21.126v.0295l13.009-1.1637c.4955-14.456-.4082-28.584-5.5426-41.704z"
		transform="translate(3876.4767 2459.084) scale(1.20865)" />
	<path fill="url(#E)"
		d="m766.75 756.95-12.438 1.4477c1.5791.7472 3.8073 9.4496 5.1356 20.265 1.3634 11.101 1.2813 20.344-.1662 21.126v.0295l13.009-1.1637c.4955-14.456-.4082-28.584-5.5426-41.704z"
		transform="translate(3876.4767 2459.084) scale(1.20865)" />
	<path fill="url(#F)"
		d="m779.42 754.72 16.804-2.4006 16.461-3.7723 15.775-1.0288 10.631-.343s0-9.945-2.0576-10.288c-2.0577-.3429-6.8587-4.4581-9.2592-4.801-2.4006-.343-16.118-3.4294-16.118-3.4294h-6.1729l-9.945 6.8587-3.4294 1.3718-10.974 7.8875-4.801 2.0576h-1.0289zm107.68-10.97 12.003-2.0576s8.9162-2.4006 9.9451-2.0576c1.0288.343 3.0863 0 4.4581.343 1.3718.3429 6.5158.6858 3.0864-1.3718-3.4293-2.0576-9.6022-4.4582-11.317-4.801-1.7147-.343-7.5446-2.4007-7.5446-2.4007l-8.9162-.6858-4.4582 1.7147h-2.4006c1.3546 2.5446 6.1313 3.7203 3.4293 7.8875z"
		opacity=".5984" transform="translate(3876.4767 2459.084) scale(1.20865)" />
	<path
		d="m5060.6878 3355.9869-1.2792.2205c1.564 2.4349 1.465 4.9765 1.2792 7.4989l1.2791-.2206c1.1287-3.7159.038-5.6857-1.2791-7.4988zm-9.4879 1.7646-1.2792.2206c1.564 2.4348 1.465 4.9765 1.2792 7.4988l1.2791-.2206c1.1287-3.7158.038-5.6857-1.2791-7.4988z" />
	<path
		d="m5053.1217 3357.389-1.2793.2205c1.5641 2.4348 1.465 4.9765 1.2793 7.4988l1.279-.2205c1.1287-3.716.0381-5.6858-1.279-7.4989z" />
</svg>