<svg xmlns="http://www.w3.org/2000/svg" xmlns:xlink="http://www.w3.org/1999/xlink" fill="#ee1c25" viewBox="0 0 900000 600000">
	<path d="M0 0h900000v600000H0z" stroke-width="1000"/>
	<g id="a" stroke-width="1000">
		<path fill="#fff" d="M492936 125196a27917 27917 0 0 0-14902 41792 45171 45171 0 0 1-20290 66204 38650 38650 0 0 0-10816 64313 68375 68375 0 0 1-17068-93914 15810 15810 0 0 1-1109-1047 69880 69880 0 0 0 16755 95793 90342 90342 0 0 1 47430-173141" stroke-width="1000"/>
		<path d="M451980 181100l-27565 12021 29366 6478-19951-22500 2915 29930" stroke-width="1000"/>
	</g>
	<g id="b" stroke-width="1000">
		<use xlink:href="#a" transform="rotate(72, 450000, 300000)" stroke-width="1000"/>
		<use xlink:href="#a" transform="rotate(216, 450000, 300000)" stroke-width="1000"/>
	</g>
	<use xlink:href="#b" transform="rotate(72, 450000, 300000)" stroke-width="1000"/>
</svg>