<svg xmlns="http://www.w3.org/2000/svg" viewBox="0 0 600000 300000">
	<path fill="#fff" d="M0 0h600000v-5000L300000-278653c26322-24153 52000-52336 76000-83055l83055 83055-35000 89880c23741 13020 47512 30452 70378 53317-4529 4640-9228 9160-14117 13486l30452 51532c7651-4030 15458-7659 23416-11018-1690-1588-3475-3058-5350-4559l13137-24963 3138-100-1429-3235c-12477-21318-27201-41678-43293-60686l8043-9974a495525 495525 0 0 0-56483-34642l-9973 8043-23716-19014c-18239 11506-36952 22100-56237 31761v-23601Z" stroke-width="1000"/>
	<path fill="#0050b7" d="M0 0h300000v100000h100000v100000H300000Z" stroke-width="1000"/>
	<path fill="#cf142b" d="M0 200000h100000v100000H0V200000L-135000 65000v270000L0 200000 135000 65000 0 200000V65000Z" stroke-width="1000"/>
	<path fill="#009e49" d="M400000 0h300000v300000H400000Z" stroke-width="1000"/>
	<path fill="#ffde00" d="M500000 150000h100000-100000 100000m-100000 0l65000 62500 65000-63500-65000-61500-65000 62500" stroke-width="1000"/>
</svg>