<svg xmlns="http://www.w3.org/2000/svg" xmlns:xlink="http://www.w3.org/1999/xlink" fill="#fcd116" viewBox="-28000 -45000 180000 90000">
	<path fill="#0038a8" d="M-28000-45000h180000V0L0 44000z" stroke-width="1000"/>
	<path fill="#ce1126" d="M0 0h152000v45000H-28000z" stroke-width="1000"/>
	<path fill="#fff" d="M49942 0L-28000 45000v-90000z" stroke-width="1000"/>
	<circle r="9000" stroke-width="1000"/>
	<g id="c" stroke-width="1000">
		<g id="b" stroke-width="1000">
			<path id="a" d="M0 0l-3164-15909 945-946zl-1169-17831L0-19000l1169 1169zl2219-16855 945 946z" stroke-width="1000"/>
			<use xlink:href="#a" transform="scale(-1)" stroke-width="1000"/>
		</g>
		<use xlink:href="#b" transform="rotate(90)" stroke-width="1000"/>
	</g>
	<use xlink:href="#c" transform="rotate(45)" stroke-width="1000"/>
	<path id="d" d="M40942 0L37560 1176l-73 3579-2163-2853-3427 1037L33942 0l-2045-2939 3427 1037 2163-2853 73 3579z" stroke-width="1000"/>
	<use xlink:href="#d" transform="rotate(120, -2019, 0)" stroke-width="1000"/>
	<use xlink:href="#d" transform="rotate(240, -2019, 0)" stroke-width="1000"/>
</svg>