<svg xmlns="http://www.w3.org/2000/svg" fill="none" viewBox="0 0 90000 60000">
	<defs>
		<clipPath id="a">
			<path d="M0 0h90000v60000H0z" stroke-width="1000"/>
		</clipPath>
	</defs>
	<path fill="#003580" d="M0 60000V0h90000z" stroke-width="1000"/>
	<path fill="#009543" d="M90000 0v60000H0z" stroke-width="1000"/>
	<g clip-path="url(#a)" stroke-width="1000">
		<path stroke="#fff" stroke-width="20000" d="M0 60000L90000 0"/>
		<path stroke="#d21034" stroke-width="15000" d="M0 60000L90000 0"/>
	</g>
	<path fill="#ffce00" d="M18000 6341l1553 4205L23000 7680l-757 4419 4417-758-2864 3448L28000 16341l-4204 1553 2864 3447-4417-754 757 4418-3447-2865L18000 26340l-1553-4204L13000 25002l757-4418-4417 757 2864-3447L8000 16341l4204-1548L9340 11340l4417 758L13000 7680l3447 2865z" stroke-width="1000"/>
	<circle cx="18000" cy="16341" r="5500" stroke="#003580" stroke-width="1000"/>
</svg>