<svg xmlns="http://www.w3.org/2000/svg" xmlns:xlink="http://www.w3.org/1999/xlink" viewBox="0 0 1200 600">
	<defs>
		<linearGradient id="b" x1="103.083" x2="92.551" y1="111.276" y2="107.764" gradientTransform="matrix(.99614 0 0 2.25255 703.842 -75.047)" gradientUnits="userSpaceOnUse">
			<stop offset="0" stop-color="#f00"/>
			<stop offset="1" stop-color="#ff0"/>
		</linearGradient>
		<clipPath id="a">
			<path d="M0 0v150h700v150H600zm600 0H300v350H0v-50z"/>
		</clipPath>
	</defs>
	<rect width="1200" height="600" fill="#012169"/>
	<path stroke="#fff" stroke-width="60" d="m0 0 600 300m0-300L0 300"/>
	<path stroke="#c8102e" stroke-width="40" d="m0 0 600 300m0-300L0 300" clip-path="url(#a)"/>
	<path stroke="#fff" stroke-width="100" d="M300 0v350M0 150h700"/>
	<path stroke="#c8102e" stroke-width="60" d="M300 0v350M0 150h700"/>
	<path fill="#012169" d="M0 300h600V0h600v600H0z"/>
	<path fill="#fff" d="m776.26 144.068 250.401-.93-.465 222.993s8.827 33.913-104.992 85.48c40.882-4.181 85.48-47.85 85.48-47.85s18.12-23.22 26.946-10.22c8.826 13.01 17.188 19.52 23.692 24.63 6.504 5.109 11.614 19.047 1.86 29.267s-25.087 11.614-29.268-.93c-6.504 3.253-46.457 51.568-128.22 53.89-83.157-1.392-128.685-54.353-128.685-54.353s-11.15 17.654-26.945 3.717c-15.33-18.116-3.716-29.73-3.716-29.73s13.007-7.432 16.724-12.543c6.04-6.968 7.898-16.26 18.118-16.26 12.078.93 16.723 10.685 16.723 10.685s41.811 44.134 86.874 49.71c-101.736-48.784-105.453-78.98-104.988-86.414l.465-221.133z"/>
	<path fill="#006129" stroke="#000" stroke-width="1.887" d="m782.299 150.107 238.787-1.394v214.63c.465 27.874-46.457 56.213-119.858 92.449-75.724-39.024-119.394-62.716-119.858-92.913l.93-212.771z"/>
	<g id="c" fill="#ffc72c" stroke="#000" stroke-width=".944">
		<path fill="none" stroke="#ffc72c" stroke-width="1.887" d="m814.794 181.829 14.095-20.701 14.164 20.744"/>
		<path d="M831.719 174.09a2.8 2.8 0 1 1-5.598.002 2.8 2.8 0 0 1 5.598-.002z"/>
		<path d="m817.444 197.119 21.852.062s.342-2.836-2.283-4.56c11.446-1.573 8.472-11.669 18.058-12.24 1.86.285-5.008 4.291-5.008 4.291s-5.78 4.078-3.147 6.152c2.09 1.646 3.004-1.001 3.29-3.004.286-2.003 9.3-3.29 8.012-9.014-2.146-4.72-14.736 3.148-14.736 3.148l-8.982-.05c-.56-1.008-3.035-5.05-5.592-5.07-3.033.11-5.17 5.12-5.17 5.12h-20.315s-.696 5.212 9.605 6.214c2.319 3.029 4.117 3.875 6.133 4.66-1.344 1.12-1.723 2.474-1.717 4.29zm1.573-4.435 18.2-.062"/>
		<path d="M810.681 181.953s1.456 8.513 8.176 10.529"/>
		<path fill="url(#b)" d="M809.561 181.841c.672-3.248 1.904-3.808 3.248-7.952.22-4.033-3.25-3.585-2.24-6.16 1.79-2.8.89-5.49-2.47-7.617.67 3.696-4.37 7.168-4.37 10.192 0 3.025 2.575 2.353 2.24 6.945.223 2.688-.673 2.016-.897 4.592h4.48z"/>
		<path d="M831.495 161.657a2.575 2.575 0 1 1-5.15.002 2.575 2.575 0 0 1 5.15-.01z"/>
	</g>
	<use xlink:href="#c" x="-.772" y="41.304"/>
	<use xlink:href="#c" x="-1.089" y="82.013"/>
	<use xlink:href="#c" x="25.627" y="126.099"/>
	<use xlink:href="#c" x="-4.574" y="162.163"/>
	<use xlink:href="#c" x="-3.782" y="204.773"/>
	<use xlink:href="#c" x="146.28" y=".672"/>
	<use xlink:href="#c" x="144.936" y="41.218"/>
	<use xlink:href="#c" x="143.144" y="82.661"/>
	<use xlink:href="#c" x="145.16" y="123.431"/>
	<use xlink:href="#c" x="144.712" y="164.201"/>
	<use xlink:href="#c" x="144.936" y="205.195"/>
	<g fill="#ffc6b5" stroke="#000" stroke-width=".944">
		<path fill="#ffc72c" d="M915.843 406.315s5.702 13.147 12.197 5.069c6.494-8.079 4.118-11.563 4.118-11.563l-14.573-7.92-4.276 9.028 2.53 5.38z"/>
		<path d="M928.357 404.572s.95.159 1.742-1.267-1.742-2.06-2.85-3.643l-1.268 2.534 2.376 2.376zm-32.948-3.485-12.83 6.97s-6.337 1.267-6.812 0c-.475-1.268.159-2.376 3.485-2.535 3.327-.158 12.355-8.395 12.355-8.395l3.802 3.96zm.159-227.938s.317 3.01.475 4.594c.159 1.584-2.534 4.91-2.693 4.752s-1.425.158-1.267 1.108c.159.95 2.06 1.268 2.06 1.268s-.793 3.326 0 3.484c.79.16-2.06 4.277 0 5.386 2.059 1.118 5.543 2.544 7.127 2.227 1.584-.317 0 6.177 0 6.177l-4.435 9.504 24.394-2.534-5.07-8.079s-2.375-1.584-1.741-6.177c.633-4.594-.317-25.344-.317-25.344l-17.424-2.377-1.11 6.02zm-4.436 36.115s-7.92 3.643-7.603 13.464c-2.06 9.504-3.168 19.008-3.168 19.008s-9.346 10.613-12.197 14.415c-2.851 3.801-7.128 11.563-8.712 13.622-1.584 2.06-7.762 8.87-7.603 11.405.158 2.534-1.426 13.78 4.752 15.048 1.584.633 6.653-12.99 6.653-12.99s.316-5.86-1.426-6.969c-1.742-1.108 3.802-4.91 3.802-4.91s10.612-7.762 12.988-9.663c2.376-1.9 8.87-9.187 8.87-9.187l3.644-43.243z"/>
		<path fill="#fff" d="M900.161 201.82s2.06 5.544 6.653 4.594c4.594-.95 9.98-5.228 9.98-5.228s4.276-.158 4.91.476c.633.633 11.563 11.246 11.246 14.572-.317 3.327-5.07 2.376-6.811 4.594-1.743 2.218-4.594 7.762-3.802 11.88.792 4.119 3.168 9.504 2.85 11.563-.315 2.06-2.058 2.693-2.058 3.802s1.426 3.01 1.426 5.069c0 2.06-1.901 5.069-1.584 7.128.317 2.06.475 8.078.475 8.078l-.475 27.879s1.584.95 1.742 2.534c.159 1.59 10.771 47.68 10.771 47.68s-.475 1.43-1.584 1.27c-1.108-.16 4.277 7.13 4.436 9.19.158 2.06 5.544 18.218 5.385 20.436-.158 2.217-.95 7.128-1.425 7.286-.476.158 3.484 10.138 2.85 11.722-.633 1.584-7.127 1.425-7.127 1.425l-1.743-.316s.16 2.059-1.108 2.217-10.613-.475-10.613-.475-2.693 4.118-4.277 3.96c-1.584-.157-3.643-3.01-4.119-2.533-.475.475 1.426 3.167.95 3.96-.474.793-8.553 2.535-10.137-1.267-1.584-3.801.95-2.85.476-3.643-.476-.793-4.119-2.851-5.228-2.218s2.852 1.584 2.693 3.168c-.158 1.584-3.485 3.96-4.752 3.96s-4.277-5.861-8.712-5.228c-4.435.634-7.286 1.743-7.286 1.743s-5.228 2.217-7.445 1.742c-2.218-.475-3.168-2.218-3.168-3.168 0-.95 1.584-5.07 1.425-6.336s-1.425-2.534-1.425-4.435c0-1.9 3.643-8.395 3.643-8.395l-.158-29.146s-3.327 0-3.485-2.06 5.07-46.094 5.86-48.945c.793-2.851 2.852-12.99 2.852-12.99s-2.376 1.11-2.535 0c-.158-1.108 7.128-26.293 7.128-26.293s1.268-12.513 1.268-15.84c0-3.326-.634-7.92-.634-7.92s-6.503-2.754-6.653-6.971c-.595-6.71 6.178-10.454 6.97-12.672l3.168-8.87s3.485-6.02 9.187-6.97z"/>
		<path fill="#ffc72c" d="M897.785 402.988s-15.365 8.079-17.582 8.712c-2.218.634-3.644-2.693-1.426-3.326 2.218-.634 5.702-.95 5.702-.95s-5.227-4.12-5.068-4.278c.158-.158 7.128-2.692 7.286-2.692s2.218 4.118 3.643 3.8c1.426-.316 5.544-3.483 5.544-3.483s2.218 2.534 1.9 2.217z"/>
		<path d="M919.432 407.423c1.453 1.874 2.02 5.123 5.347 3.222 3.327-1.9-1.704-5.428-1.704-5.428l-3.643 2.206z"/>
		<path d="M925.505 407.106s1.584 1.267 3.01-.158-2.852-4.436-2.852-4.436l-2.059 2.376 1.901 2.218zm6.812-190.146c.158 0 5.227 15.682 5.86 19.642.634 3.96 2.694 19.8 1.902 22.017-.8 2.218-8.88 12.83-9.83 15.523-.95 2.693-6.653 12.99-6.653 12.99s-1.426 10.137-2.06 10.612c-.634.476 1.635 2.964 1.425 3.802-.314.943-4.593 5.386-6.494 4.91-1.9-.475-4.91-2.693-5.069-4.752s.158-8.87 1.584-10.612c1.426-1.743 8.87-19.325 9.346-20.434.475-1.11 6.81-14.89 6.97-17.266.158-2.376-1.972-7.87-4.212-9.886-4.985-14.673-3.026-23.522 7.221-26.546z"/>
		<path fill="#9c5100" d="M895.092 172.199s3.485.475 5.386-.634c1.9-1.108 4.118-1.584 5.702.634 1.584 2.218 2.693 2.06 2.693 2.06s-2.376 5.851 0 6.49c2.376.63 3.485.63 3.643 1.421.159.792-2.06 2.535-1.426 3.327.634.792 1.743 1.742 1.9 2.376.16.633-1.424 3.326-.95 3.96.477.633 1.903 3.168 2.853 3.168.95 0 .317 3.96 3.168 3.008s2.693-3.485 2.693-3.485 3.01-.474 3.802-3.167c.79-2.692 2.692-3.326 2.692-3.326s3.802-2.06-1.267-5.228c0-22.176-14.573-19.8-14.573-19.8s-1.742-3.96-4.593-3.485-3.01 3.802-5.07 3.485c-2.058-.32-2.533-1.746-2.692-1.587-.158.158-1.9 3.326-1.9 4.118 0 .792-5.545-1.11-5.07 3.01.476 4.118 3.168 3.96 3.01 3.643z"/>
		<g fill="none">
			<path d="M920.753 207.997s-14.098 9.029-13.78 12.197m16.948-10.613s-3.159 3.485-3.317 3.485m7.602.317s-6.97 5.702-5.86 9.346m-27.086-15.524s-2.06 4.277-1.584 5.702c.474 1.426 3.96 6.812 4.434 10.138.475 3.326 0 5.703 0 5.703m-6.494-13.623s.634 5.07 1.584 6.02c.95.95 3.485 5.226 3.802 6.97m-6.653 8.077s4.118 2.06 7.92-5.86m6.177-5.544c-.158 0-3.01 7.762 2.06 10.613 5.068 2.851 8.87 2.534 11.087 1.742 2.218-.792 4.594-2.217 4.594-2.217m-19.96-.634s.318 10.455 15.683 20.75m-15.05-10.93s-.157 9.187 5.86 13.306m-9.027-24.077s-4.593 13.622-8.236 15.048m6.809-5.07s-.157 9.82-1.425 13.3m-1.27 2.377s3.169 3.96 6.654 3.643c3.485-.315 4.91-4.434 7.286-3.8 2.376.633 4.594 2.534 10.138 2.059m-7.92 4.118s0 8.078 1.426 8.87.792 8.237.792 8.237M892.4 261.22s-.158 7.603-1.109 10.296c-.95 2.693-2.85 7.287-2.53 11.247m-6.02 4.434c.796-.317 3.489-2.693 3.489-2.693m1.426 1.743s-6.81 29.146-4.91 46.57m6.494-45.144s-3.485 21.86-1.9 25.978"/>
			<path d="M887.489 287.039c.158 0 13.306.95 13.306.95m1.901-1.742s3.643 1.9 8.712 1.584m-10.296 9.029s-.634 37.383-1.584 45.62m21.067-37.067s4.118 32.789 6.494 35.798m-14.414-31.68s2.534 28.988 3.96 31.523m-39.917 10.137s4.91-1.584 9.345-6.336c5.07 6.81 12.83.317 12.83.317s12.04 8.237 17.425-.95c8.237 5.385 12.355-.793 12.355-.793s3.01 4.594 5.228 4.119m-13.148 3.168s6.178 28.987 15.365 37.224"/>
			<path d="M888.915 347.706s.792 24.235 2.218 41.342m-3.327-13.938s-.792 15.84-1.743 16.949m-7.603 1.583s1.742 6.811 10.454.475 8.87 2.376 9.188 3.327c.316.95 1.742 7.761 5.068 2.06m6.97-9.346s-1.425 14.097 11.089 3.801c12.514-10.295 14.573-.158 14.89 3.01m-25.82-230.156s-1.11 6.97 6.336 6.336c-.95 3.802 1.9 5.07 1.9 5.07m5.545 4.276c.159 0 3.326 2.06-.158 4.594m-10.613.95s1.584 1.9 3.326 1.426c1.743-.475 4.594 1.742 4.594 1.742s2.376.792 2.693.317m-20.276 2.534s5.386 2.06 8.87-6.494m-18.85-2.535 3.169.158m-38.312 99.737.248 6.942m-6.758-7.457s4.45 7.443 4.079 11.41"/>
			<path stroke-linejoin="round" d="M894.142 188.197h2.851l-2.534 1.109m17.2 110.656s3.326-.35 3.221 5.206c2.125-6.902 6.446-7.066 6.446-7.066"/>
			<path stroke-linejoin="round" stroke-width="1.699" d="M898.102 179.327c.475 0 2.217-.634 2.534-.158.317.475-1.9.792-2.534.158z"/>
		</g>
	</g>
	<g fill="none" stroke="#000" stroke-width="1.887">
		<path fill="#ffc72c" d="M900.299 458.579c66.898-1.858 110.102-50.173 109.638-50.638-.465-.464 8.827-13.472 16.26-11.614 7.433 1.858 18.118 23.693 31.126 28.338 6.504 10.22-1.859 19.512-4.646 21.37-2.787 1.86-15.33 6.97-17.189-.464-1.858-7.433-5.575-6.04-5.575-6.04s-59.464 58.071-128.22 55.75c-71.078.463-129.614-55.749-129.614-55.749l-5.11 5.574s-5.575 6.04-8.362 5.575c-2.787-.464-14.866-8.362-15.795-16.26-.93-7.897 7.433-13.007 7.433-13.007s20.44-15.796 22.764-24.158c4.645-4.646 13.472 3.252 13.472 3.252s53.89 61.787 113.819 58.07z"/>
		<path d="M748.855 422.646s5.528-1.474 7.555.83c2.027 2.302 15.938 15.938 15.938 15.938"/>
		<path d="m761.477 429.095-5.528 4.146s13.912 2.763 10.78 11.885m285.61-22.94s-2.763-1.475-7.093 1.75c-4.33 3.224-15.294 15.478-15.294 15.478"/>
		<path d="m1039.9 428.727 5.989 4.607s-12.539.829-9.77 12.714"/>
	</g>
	<path d="M819.664 437.396c-.362 1.052-1.321-.029-2.117.183-2.094.079-3.834 1.445-5.628 2.377l-18.407 10.731c-.62-.203-.473-.704-.322-1.206 1.636-7.663 3.335-15.313 4.925-22.986.264-1.342.69-3.01-.606-3.986-.551-.376.3-1.14.655-.446l9.41 6.71c-.302.885-.837.265-1.372-.094-1.303-1.263-2.873-.105-2.835 1.478-1.12 5.053-2.21 10.11-3.318 15.166 4.165-2.476 8.378-4.874 12.506-7.412 1.474-.657 2.56-2.632 1.029-3.856-.582-.343-1.544-1.28-.585-1.422l6.665 4.753zm6.61 31.986c-.167.572-.465.698-.921.286l-11.074-6.056c.167-.572.466-.698.922-.286 1 .68 2.634.938 3.363-.255 1.466-2.35 2.701-4.839 4.06-7.253 1.845-3.42 3.769-6.8 5.559-10.248.856-1.222-.1-2.728-1.298-3.25-.405-.218-1.001-.379-.49-.865.247-.304.772.345 1.13.423l10.617 5.806c-.168.572-.467.698-.923.286-1-.68-2.642-.94-3.38.245-1.465 2.351-2.7 4.84-4.058 7.254-1.847 3.42-3.77 6.8-5.56 10.248-.855 1.23.097 2.747 1.314 3.26l.74.405zm42.61-9.994-3.007 8.443c-1.232-.123-.413-1.698-.796-2.529-.431-3.8-3.24-7.349-7.06-8.16-2.912-.796-5.992.707-7.705 3.081-2.59 3.537-4.166 7.853-4.388 12.235-.149 2.49.994 5.047 3.168 6.358 1.724 1.136 3.818 1.593 5.864 1.536.721-2.13 1.585-4.215 2.186-6.381.247-1.41-1.21-2.26-2.375-2.584-.18-.41.27-.912.745-.472l11.037 3.932c-.132 1.358-1.667-.11-2.517.433-1.36.522-1.476 2.157-1.99 3.34l-1.345 3.775c-4.946.35-10.044-.695-14.348-3.185-4.185-2.637-7.015-7.728-6.192-12.722.638-4.275 3.301-8.278 7.242-10.166 3.62-1.924 8.037-1.916 11.796-.392 2.054.692 3.83 1.963 5.42 3.41.963 1.3 2.83 1.302 3.62-.176l.652.233m17.952 28.812c-.022.45-.072.86-.61.61l-12.638-1.915c.023-.45.073-.86.61-.61 1.095.224 2.563.206 3.092-.976.537-1.688.644-3.476.95-5.215.725-4.857 1.497-9.707 2.188-14.568.268-1.048-.09-2.233-1.175-2.64-.614-.29-1.3-.334-1.96-.444.024-.449.074-.859.611-.609l12.638 1.915c-.022.45-.072.86-.61.61-1.1-.23-2.563-.2-3.11.97-.536 1.69-.643 3.477-.95 5.216-.724 4.855-1.496 9.705-2.187 14.566-.266 1.045.094 2.254 1.185 2.648.62.282 1.305.33 1.968.44zm34.118-8.287-.5 8.962-22.547 1.15c-.138-.548.01-.84.606-.725 1.133.029 2.593-.452 2.737-1.752.1-2.227-.15-4.455-.224-6.681-.243-4.442-.42-8.887-.71-13.325.126-1.323-1.065-2.302-2.32-2.26-.397-.204-1.474.413-1.366-.313-.182-.588.635-.275.98-.387l12.54-.64c.14.55-.008.84-.605.725-1.156-.008-2.663.274-2.983 1.582-.184 1.926.085 3.864.136 5.795.255 4.624.435 9.255.74 13.876-.093 1.21.878 2.28 2.13 2.047 1.83-.09 3.7-.013 5.488-.473 2.507-.667 3.874-3.15 4.56-5.47.45-.627.078-2.19 1.07-2.1l.27-.015m17.577-21.694c-.598.01-.334.773-.486 1.173-.998 7.476-1.944 14.96-2.976 22.432-.251 1.655-.664 3.588-2.297 4.425-.603.214-.072 1.162.48.635l7.53-2.26c-.096-1.267-1.541-.115-2.351-.338-1.727-.002-1.984-2.1-1.744-3.41l.314-2.657 8.625-2.594c1.1 1.386 2.314 2.69 3.31 4.153.747 1.41-1.07 2.055-2.125 2.327-.493.052-.063 1.085.387.605l11.335-3.397c-.034-1.283-1.677-.08-2.37-.937-2.12-1.594-3.643-3.812-5.4-5.775l-12.23-14.382zm-.063 8.969 6.125 7.312-7.343 2.188 1.218-9.5zm38.632-25.81 3.259 6.06c-1.014.873-1.541-1.15-2.46-1.456-1.507-1.268-3.78-1.508-5.457-.432-.687.357-1.365.73-2.048 1.095 3.277 6.068 6.509 12.16 9.815 18.212.51 1.552 2.416 1.843 3.646.968.476-.345.906-.54 1.06.188-1.664.965-3.482 1.882-5.205 2.828-2.17 1.17-4.34 2.337-6.51 3.503-.51-.53-.168-.8.408-1.004 1.542-.573 2.135-2.445 1.102-3.763-3.206-6.025-6.46-12.026-9.685-18.042-1.797.996-4.091 1.893-4.544 4.133-.51 1.41.24 3.135.24 4.334-.553.574-.698-.21-.954-.623l-2.785-5.18 20.113-10.82zm15.25-9.041 6.234 8.263c1.445-.92 2.652-2.56 2.218-4.353.167-1.4-1.836-2.988-1.148-3.97.453-.28.72.769 1.095 1.046l7.118 9.44c-.928 1.057-1.6-1.098-2.583-1.331-1.387-.986-3.333-1.477-4.82-.397-1.11.354-1.058.977-.303 1.662 1.67 2.156 3.22 4.41 5.003 6.475 1.09 1.058 2.448-.05 3.372-.785 2.388-1.626 4.485-4.165 4.362-7.21.156-1.331-.68-2.815-.67-3.936.535-.713.685.393.992.755l3.366 6.08-17.544 13.234c-.761-.54-.012-.857.468-1.23 1.638-1.012 1.117-3.078-.088-4.213-3.75-4.936-7.431-9.924-11.227-14.823-.972-1.32-2.765-.625-3.745.294-.407.577-1.044-.58-.273-.664l16.543-12.48 4.528 6.004c-1.05 1.064-1.978-1.307-3.175-1.43-2.173-1.132-4.757-.22-6.553 1.209-1.074.764-2.114 1.575-3.17 2.364"/>
</svg>
