<svg xmlns="http://www.w3.org/2000/svg" xml:space="preserve" viewBox="0 0 1090.625 308.125">
	<defs>
		<clipPath id="a">
			<path d="M0 246.5h872.5V0H0v246.5z"/>
		</clipPath>
	</defs>
	<path fill="#ce1126" d="M0 308.125h462.188V0H0v308.125z"/>
	<path fill="#fff" d="M0 308.125h308.125V0H0v308.125z"/>
	<path fill="#002654" d="M0 308.125h154.063V0H0v308.125z"/>
	<path fill="#009543" d="M474.688 307.969h615.937V0H474.687v307.969z"/>
	<path fill="#ed4135" d="M474.688 205.313h615.937V0H474.687v205.313z"/>
	<path fill="#0035ad" d="M474.688 102.656h615.937V0H474.687v102.656z"/>
	<g clip-path="url(#a)" transform="matrix(1.25 0 0 -1.25 0 308.125)">
		<path fill="#fae600" d="M544 204.057c44.594 0 80.745-36.15 80.745-80.745 0-44.594-36.151-80.746-80.745-80.746-44.595 0-80.746 36.152-80.746 80.746 0 44.595 36.15 80.745 80.746 80.745"/>
		<path fill="none" stroke="#000" stroke-width="5" d="M544 204.057c44.594 0 80.745-36.15 80.745-80.745 0-44.594-36.151-80.746-80.745-80.746-44.595 0-80.746 36.152-80.746 80.746 0 44.595 36.15 80.745 80.746 80.745z"/>
		<path stroke="#000" stroke-width="6" d="M544 203.795V65.825m-13.688 65.7h27.376m-27.376-20.258h27.376"/>
		<path d="M511.49 49.17c32.954-13.457 63.842-.826 63.842-.826s-11.659 12.618-17.638 17.546c-5.83 4.805-22.989 4.615-28.844 0-4.886-3.854-18.9-18.052-17.36-16.72M544 99.222c4.989 0 9.034-5.882 9.034-13.14 0-7.256-4.045-13.14-9.034-13.14-4.989 0-9.033 5.884-9.033 13.14 0 7.258 4.044 13.14 9.033 13.14m0 29.106c6.047 0 10.95-3.104 10.95-6.933 0-3.827-4.903-6.93-10.95-6.93-6.048 0-10.95 3.103-10.95 6.93 0 3.83 4.902 6.933 10.95 6.933m0 36.047c6.047 0 10.95-4.901 10.95-10.95 0-6.048-4.903-10.95-10.95-10.95-6.048 0-10.95 4.902-10.95 10.95 0 6.048 4.902 10.95 10.95 10.95m13.14 29.839c-.003.008.95-1.571-1.047-5.167-9.541-17.181-19.115-17.553-20.931-19.033-2.004-1.63-2.85-1.52-2.85-1.52.144 1.474.277 7.49.382 8.07 1.447 8.029 13.576 7.919 23.067 16.139 1.483 1.283 1.376 1.519 1.376 1.519l.004-.008z"/>
		<path d="M525.111 157.257s2.143-6.148 2.463-12.319c.514-9.852 9.954-10.129 16.426-10.129v5.475c-4.85 0-9.063.721-12.592 7.94-1.74 3.56-6.297 9.033-6.297 9.033m-.273-79.387s3.446 4.252 7.479 14.222c2.105 5.2 7.09 8.225 11.683 8.225v7.664c-10.417 0-15.413-3.86-15.94-9.505-1.082-11.595-3.222-20.607-3.222-20.607m38.051 79.388s-2.144-6.148-2.464-12.319c-.512-9.852-9.953-10.129-16.425-10.129v5.475c4.85 0 9.063.721 12.593 7.94 1.74 3.56 6.296 9.033 6.296 9.033m.273-79.387s-3.447 4.252-7.479 14.222c-2.105 5.2-7.09 8.225-11.683 8.225v7.664c10.418 0 15.412-3.86 15.94-9.505 1.081-11.595 3.222-20.607 3.222-20.607"/>
	</g>
</svg>
