<svg xmlns="http://www.w3.org/2000/svg" viewBox="0 0 1200 600">
	<clipPath id="a">
		<path d="M0 0v150h700v150H600zm600 0H300v350H0v-50z"/>
	</clipPath>
	<path fill="#012169" d="M0 0h1200v600H0z"/>
	<path stroke="#fff" stroke-width="60" d="m0 0 600 300m0-300L0 300"/>
	<path stroke="#c8102e" stroke-width="40" d="m0 0 600 300m0-300L0 300" clip-path="url(#a)"/>
	<path stroke="#fff" stroke-width="100" d="M300 0v350M0 150h700"/>
	<path stroke="#c8102e" stroke-width="60" d="M300 0v350M0 150h700"/>
	<path fill="#012169" d="M0 300h600V0h600v600H0z"/>
	<path fill="#128bbf" d="M999.475 257.01c-.192 67.849-10.98 140.945-99.473 175.762-88.498-34.817-99.285-107.913-99.477-175.763z"/>
	<path fill="#e8ece9" d="M900.002 432.772c40.117-15.782 64.966-41.537 79.395-69.002-2.275-.767-6.806-.837-8.64-.179-2.177-.14-85.552-6.283-95.343-9.847-8.518-3.1-41.017 2.634-56.187 8.014 14.153 29.213 38.665 54.447 80.775 71.014z"/>
	<path fill="#69522b" d="M838.156 390.71c1.352-.437 3.934-.333 4.952-.15 1.197.216 1.414.324 1.85-.972.435-1.296 1.415-.972 2.176-.324.762.648 2.717.324 3.479-.756.762-1.076.98-.968 1.741-.216.762.756 1.088.54 1.85.324.762-.212 2.068-1.076 2.721-2.264.653-1.189 1.628-1.62 2.173-.973.544.648 1.088.973 1.85.865.762-.108.98.648.87 1.616-.108.972.327 1.188 2.177-.32 1.633 1.616 2.173.968 2.173-.756 0-1.729-.432-8.097-1.085-8.96-.653-.865-1.306-3.35-1.414-5.294-.206-3.668-.218-3.884-4.68-6.153 0-1.296-.327-1.836-3.479-1.62.11-.432-.435-1.728-1.088-2.268-.653-.54-.762-.76-.435-2.27 1.306.104 2.72-.11 3.482-1.19.758-1.08 3.261-.867 4.785-.218 1.523.65 3.482.757 6.417.325 1.088-.864 2.938-1.836 4.897-2.916 1.955-1.08 2.5-1.512 2.608-3.024.28-3.876-1.088-8.313-2.177-10.36-1.084-2.053-1.41-4.646-2.934-7.886-1.658-3.526-1.633-4.424-3.483-6.584-.506-.594-1.088-1.08-1.197-2.264-.109-1.188-.544-2.808-1.846-3.996-3.29-2.998-4.57-12.636-5.877-19.76-.75-4.084-.217-13.71-1.955-15.22-2.938-2.379-4.353-1.946-6.312-2.7-1.415-1.947-2.064-5.83-3.37-9.288-2.067.324-3.482 2.485-4.897 3.24-1.415.757-1.632.757-1.632 2.701 0 1.94-1.089 4.64-3.044 7.665-1.959 3.02-5.224 2.16-7.94 6.693-5.986-7.233-6.095-9.285-6.53-11.338-.436-2.048-1.415-2.48-4.785-5.396 0-.864-.435-4.317-.108-6.26-2.504-2.053-4.354-1.729-5.547-.217-1.197 1.512-2.068 3.777-3.918 4.64-1.109 1.4-4.454 4.932-7.19 9.136 2.49 37.572 11.033 74.87 36.722 104.698z"/>
	<path fill="#bca76b" d="M999.475 257.01c.075-25.558-1.356-50.372-.703-72.116-33.069-14.686-76.58-17.706-98.77-17.706-22.194 0-65.706 3.02-98.774 17.706.653 21.744-.775 46.558-.703 72.115z"/>
	<path fill="#cfa763" d="M805.903 286.593c1.089 1.728 3.048 4.698 3.265 6.314.762-1.566 1.36-2.264 1.524-3.236.163-.972 1.306-2.862.87-3.888-.435-1.027-.761-1.837.436-1.08 1.193.756.963 2.064.703 3.996-.703 5.29-2.934 6.37-3.26 9.933 3.21 7.503.816 10.203 4.294 17.544.544.324 1.997-.253 2.432-.145 1.846-1.297 3.228-.827 5.835-.287 2.612.54 4.027 2.372 4.027 3.992s0 2.053.544 3.025 1.633 2.495 1.415 3.575c-.218 1.075.218 1.723.544 2.263.327.54-.109 1.728-.435 2.485-.327.756-.218 1.728 1.088 3.348 1.306 1.615 4.35 8.42 4.35 12.412 0 3.997.217 5.833 1.85 6.585 1.632.756 2.176 1.404 1.96 3.132-.219 1.73.76 10.69.978 12.094.218 1.404.762 1.08 1.415 1.836.649.75 1.084 1.614 3.26 1.614 2.177 0 4.279-.287 5.693-.07 1.96 2.7 3.157 6.368 3.592 8.636.435 2.27.398 5.363 1.16 5.363.761.001 1.523.11 1.305-2.699-.217-2.809-.435-3.239-1.414-4.639-.98-1.405-1.524-2.053-.98-2.918.544-.864.653-2.268.435-3.348-.217-1.08-.544-2.696 1.306-.54 1.85 2.16 2.395 2.7 2.939 3.456.544.756.758 2.16.653 3.457-.11 1.292.105 1.832.866 1.184.762-.645 1.742.431 1.306 1.835-.435 1.408.11 2.273 1.415 2.704 1.306.432 1.85.756 2.177 1.73.326.971 1.415 1.4 1.415-.54 0-1.945-.762-6.049-1.306-7.34-.544-1.297-.98-4.106-1.09-5.726-.107-1.62-.434-2.048-1.196-2.372-.762-.323-1.415-.863-1.523-1.619-.11-.755-.762-1.025-1.252-1.025s-.92-.378-1.193-.919c-.272-.54-.544-.594-1.088-.648-.544-.054-1.415.27-1.687-.594s-.653-2.106-1.197-2.808c-.545-.702-1.034-.918-1.09-3.344-.053-2.43-.108-2.755-.87-3.619-.761-.864-2.067-3.128-2.611-4.1-.54-.972-1.085-1.944-1.085.108 0 2.048 0 3.128 1.302 3.884 1.306.756 1.633.756 1.089 1.836-.556 1.08-.011 1.837.206 2.593.219.756.654 1.512 0 2.264-.652.756-1.305.54-1.196-.644.109-1.188-.326-2.592-.866-3.564-.545-.973-.98-1.62-1.633-1.08s-1.197-.109-.762-.54c.435-.433.326-.757-.001-1.08-.327-.325-.436-.649.109-1.297.542-.648.542-.972.216-2.48-.327-1.512-2.721-9.07-3.81-10.797-1.088-1.73-.98-3.025.436-1.297 1.415 1.729 2.612 3.24 2.72 4.64.11 1.405.436 2.27.872 2.81.435.54.76.323.979-.865.218-1.188 1.088-.756-.435-3.02-1.525-2.268-4.355-6.05-5.443-12.85s-1.524-11.336-2.612-13.17c-1.084-1.834-1.41-2.266-1.52-3.994-.108-1.73 0-3.457-.76-4.75-.764-1.295-1.308-1.511-1.417.433-.109 1.94.11 6.26.653 7.017.543.756.217 2.696.11 3.776-.11 1.08-1.823 2.148 1.74 4.32 1.414.865 1.192 2.053.98 2.81-.219.75-.437.643-1.199-.54-.76-1.19-1.524-2.161-2.286-2.81-.763-.647-.87-1.08-.763-2.592.11-1.512.435-2.592 0-3.128-.435-.54-.653-.108-.87.752-.218.864-.436 3.24-.87 3.889-.437.648-.654.216-.98-1.19-.326-1.403.111-3.56.871-6.043.763-2.484 1.198-5.077.545-8.313-.653-3.24-.326-4.213-2.83-6.91-2.499-2.7-5.328-5.29-6.525-8.635-1.198-3.348-1.415-6.264-2.72-7.777-1.303-1.508-3.153-3.452-4.35-3.992v-4.964c.001-1.19-.543-1.945-1.958-1.73-1.415.217-2.286 1.405-3.152 3.02-.87 1.62-1.524.866-2.72 3.674s-2.94 4.208-2.94 7.233z"/>
	<path fill="#cfa763" d="M813.735 318.224c.87.54 1.704.902 3.01.253 1.306-.648 2.867-2.517 4.608-.68 1.738 1.83 2.717 4.856 2.717 7.232 0 2.37 0 6.8 2.72 9.28 2.72 2.475 4.132 5.066 4.24 8.307.11 3.237 1.307 8.206 1.634 9.5.326 1.294 1.088 2.806 1.959 3.67.87.863 1.523 3.348 1.632 5.936.11 2.592-.326 4.428 0 5.725.327 1.296 0 2.376-.98 1.728-.98-.649-1.196-.973-1.74-2.054-.545-1.08-1.198-.864-.654.757.545 1.62 2.177 3.128 3.592 3.128s1.85.217 2.72 1.081c.867.864.976 1.296 2.5 1.296 1.523 0 1.74 0 3.156.432s1.415.216 2.176 0c.762-.216 1.52.432 2.064 1.836.544 1.405 1.85 5.29 1.85 6.37s-.011 2.16.75 3.24.545 2.16-.325 1.512c-.871-.648-.871-.432-1.524-.324-.653.11-1.088-.215-1.955-.756-.87-.54-.326-.432-1.197-1.728-.87-1.296-1.415-1.728-1.415-.756s-.11 2.16-.762 1.62-.98-.54-1.523 0c-.545.54-.762.972-1.415-.109-.654-1.08-1.416-1.08-2.07-1.297-.652-.216-.652-.216-.974-1.188-.326-.973-1.305-1.189-2.176-1.189-.87 0-1.306-.432-1.415-1.08-.112-.645-.656-1.077-1.092-1.4-.434-.325-.217-1.08-.326-1.837-.108-.757-.761-.433-1.197-.649-.435-.216-.762-.108-.762-1.188-.001-1.08-.436-1.404-.762-2.16-.324-.756 0-1.512.216-2.372.218-.864.11-1.404-.54-2.16-.653-.753-.11-1.509-1.85-3.022s-2.612-.216-3.156-3.776c-.544-3.565-1.633-10.905-2.612-12.093-.98-1.189-1.628-2.053-2.608-2.377-.98-.324-1.632-.108-1.74-2.16-.11-2.047-.763-4.639-2.069-5.936-1.307-1.296-1.85-1.728-2.504-2.268-.653-.54-.87-1.512 0-3.344.87-1.836.544-4.32.435-5.509-.11-1.184-.435-2.696-.217-3.992.217-1.296.108-2.917-.218-3.78-.329-.865-.764-1.08-.22-1.73z"/>
	<path fill="#d7c99c" d="M846.808 377.283c-.653 1.296-1.415.864-2.068.216-.653-.649-1.415-.649-1.088-1.837.326-1.188.217-1.404-.653-2.052-.1-.075-.201-.141-.302-.208-.272-.008-.59-.008-1.004-.008-1.524 0-1.633-.432-2.5-1.296a7.294 7.294 0 0 0-.535-.482c-.017.208-.008.482-.008.806 0 1.188 0 .972-1.197 1.296-1.197.325-.98-1.188-1.197-2.16a3.549 3.549 0 0 0-.189-.581c-1.31-.25-2.691-1.62-3.185-3.087-.544-1.62.11-1.836.653-.756s.762 1.404 1.741 2.052c.98.648 1.306-.432.98-1.728-.105-.416-.13-.898-.118-1.433-.234-.42-.552-.76-.97-.943-1.742-.757-1.198-.973-1.089-2.377.109-1.4-.218-1.4-1.306-.648-1.088.756-1.197-.108-1.197-2.264 0-2.16-1.415-2.16-1.737-.648-.327 1.512-.871.54-1.524-1.62s-1.524-2.7-1.632-.648c-.093 1.736-.578 2.152-1.717 1.188.201 1.254.377 2.426.52 3.348.544 3.56 1.414 2.264 3.156 3.777 1.74 1.512 1.197 2.268 1.85 3.024.648.756.757 1.296.54 2.16-.218.86-.54 1.616-.218 2.372.326.756.762 1.08.762 2.16s.326.973.762 1.189c.272.133.623.058.879.166.28-.366.535-.814.862-1.138 1.306-1.297 3.265.108 3.918 1.728.653 1.62 1.41 2.052 2.39.756.98-1.296.653-1.08 1.74.108 1.09 1.188 1.525.972 1.525.972s1.088-.432 1.85.216 1.197.54 2.608-1.512c1.415-2.052-.65-1.404-1.302-.108z"/>
	<g fill="#7fb8c1" stroke-width="4.17">
		<path d="M847.787 392.396c2.608-.216 9.682-2.268 10.44-2.916 1.741 1.188 4.79 2.808 6.095 2.808-2.504.54-4.136.216-4.79-.216.327.756 1.198 1.944 1.742 2.052-2.394-.108-5.11-.648-5.98-1.512-2.069.864-5.55 1.08-7.507-.216zm4.676 3.24c.925.27 5.546 1.027 6.145 1.027-1.524 1.292-.218 2.534 2.34 2.318-1.252.162-2.616.631-1.687.81 2.23.432 8.267-1.188 9.464-1.836-2.068 2.646-12.126 5.076-16.262-2.318zm4.136 6.585c1.247-.648 4.349-.432 5.818.27-1.633.594-4.839.594-5.818-.27z"/>
		<path d="M861.274 402.113c2.231-.378 8.54 1.134 10.77-.216-.761 1.998-4.734 2.269-6.094 1.836-1.356-.432-2.662-.972-3.587-.918.49-.27-.327-.324-1.09-.702zm2.286 3.08c1.687.265 7.723-.487 9.573-1.19 1.955.649 5.818 1.67 6.689 1.563-1.85 1.134-5.387.486-6.526 0-3.265 1.08-5.931 1.404-9.736-.374z"/>
		<path d="M866.444 406.201c2.415.54 4.474.154 6.852-.635.74.315 2.486.702 4.127.623 1.093.619 2.562 1.483 3.977 1.59-1.47.595-6.857 0-7.94-.593-2.722.054-7.401.648-8.54 1.566-.054-.756.44-1.807 1.524-2.55zm-2.884-12.185c1.883.624 8.702.324 12.18-1.296 1.374-.64 2.223.432.654.972-5.656 1.945-10.118 2.7-13.378.972-1.29-.68-1.415-1.296.544-.648zm33.395-9.176c-8.376 3.884-13.927 5.072-25.564 1.512-1.084-.333-1.85 0-.653.756 1.198.752 7.615 2.48 9.138 2.588 1.524.108.98.81.055 1.08-.92.27-1.19.918.06.432 1.256-.486 8.246-.67 11.1.81 1.248.648 1.575.54 1.466.054-.11-.486.544-.81 1.47-.918.924-.108 1.468-.432.76-.702-.707-.27-.815-.432-.271-.702.544-.27.598-.54-.218-.702-.816-.162-1.36-.378-.598-.756.76-.374 1.903-.648 2.774-.752.217-.594-.163-2.16.49-2.7z"/>
		<path d="M883.028 385.812c4.789.336 13.6-1.837 18.28-6.37 1.628.969 3.914 2.049 5.11 2.265 1.198.216 2.286 1.296.436 1.296s-4.462-.756-5.655-1.296c-6.21 3.78-13.47 5.023-18.07 4.645-1.304-.108-1.63-.649-.11-.54zm-7.56-13.498c-.644.112-3.424.756-4.185.702-.762-.054-1.524.162-1.47.702.055.54.272.864-.87.756-1.143-.108-2.123.324-2.395.648-.272.324-.49.648.653.756 1.143.108 1.742.216 3.048-.378s2.557-1.512 3.972-1.566c1.41-.054 2.826-1.89 1.247-1.62z"/>
		<path d="M871.555 375.662c1.188.765 7.07 2.755 9.192 2.593 2.122-.162 1.724.843.109 1.188-3.32.698-7.372-.735-10.118-2.917-1.36-1.08-.108-1.458.817-.864z"/>
		<path d="M899.403 378.525c-4.5 1.425-9.083.918-10.933.432-1.85-.486-3.537-.594-2.286.594 1.252 1.184 5.28 1.994 7.56 1.4-8.104 1.84-10.226 1.68-12.235 1.35-2.014-.32-5.794-.25-7.397-.1-1.197.11-2.83-.052-3.537-.484-.707-.432-.925-1.242 1.197-1.026 2.118.216 2.395-.216.545-.486s-4.408.486-1.905 2.052 7.995-.108 11.478.864c3.478.972 10.875 1.674 17.894-3.942.36-.287.98-1.076-.38-.644zm-10.498-4.483c-.925.054-2.557-.54-3.428-.918-.87-.378-2.118-.432-1.193.81.92 1.242 4.948 1.944 6.363 1.35 1.414-.594.816-1.242 2.226-.378 1.415.864 2.884 1.458 3.918 1.458 1.034 0 1.415 0 .272-.648-1.142-.648-1.686-.81-1.795-1.35-.11-.54-.272-.864.762-.54 1.033.324 2.23.918 3.047.486.816-.432 2.336-1.404 3.696-1.404l.326-.81c-1.959-.162-3.206.432-3.75.648-.544.216-1.524.324-2.558.162-1.034-.162-2.394-.27-2.72-.54-.327-.27-.327-.486.544-.648.87-.162 1.142-.756-.055-.54-1.197.216-4.403.108-6.09-.432-1.687-.536-2.394-.59-3.102-.324-.707.27-.598 1.026.435 1.08 1.034.054 3.374.27 4.19 1.026.817.756.708.81-.217.432-.925-.378-2.612-.162-.87 1.08zm39.377-2.916c-3.261 2.376-7.18 2.916-11.855 3.24-1.36.096-.942.478.218.594 4.893.486 10.553-1.296 12.399-3.24.535-.561.477-1.492-.762-.594zm-22.244 5.51c1.415.053 6.308 1.295 7.886 1.835 1.197-.108 1.524-.378 1.306-.81-.218-.432-.38-.918 1.796-.81 2.172.108 7.18.054 8.104.054.762-.325 2.444-1.62 3.206-1.675-1.955.108-10.113.54-11.147.432-1.034-.108-1.578 0-2.23.378-.654.378-1.035.54-1.85.216-.817-.324-2.287-.756-3.1-.27-.815.486-2.502.054-3.971.648z"/>
		<path d="M925.13 376.905c.762-.325 2.444-1.62 3.206-1.675 1.415-.108 3.047.486 3.81.594.761.108 1.577-.054 1.033-.648s-.054-1.62 2.177-1.35c2.227.27 3.37.648 5.546.432 2.177-.216 3.156 1.404 7.288-.216-.327 1.62.435 1.728 1.197 1.404.762-.324 1.632-.216 2.938.756 1.306.973 9.247 1.08 11.097.757 1.846-.324 2.826.648 1.41 1.08-1.41.432-1.74 1.08-1.41 1.512.322.428.649.968-1.088.752-1.74-.216-2.068.324-2.939.972-.87.648-1.088.864-3.482.432-2.39-.432-2.826-.108-4.132.108-1.306.216-1.632.216-2.938-.216-1.306-.432-4.132-.864-5.873-.324-1.74.54-3.047 1.08-4.57.648-1.525-.432-1.634-.216-.654-1.188s1.197-.864 3.047-1.08c1.85-.212 3.265-.752 1.96-1.508-1.307-.756-1.742-.648-3.483.216-1.742.864-2.612 1.4-4.567.324-1.96-1.08-2.939-.864-4.245-.54-1.306.324-3.478-.432-5.328-1.242zm6.526 3.235c-2.491.354-3.16-1.237-5.764-.913-.871.108-2.34 1.184-.327 1.022 2.01-.162 4.186.918 6.145.756 1.959-.162 1.088-1.026-.054-.864zm-2.885 1.891c1.31-.474 4.027.432 5.17.216 1.15-.216 2.24.486 1.04.864s-4.08-.702-5.383-.324c-1.306.378-2.608-.108-.817-.756zm-25.998 6.963c1.796.058 8.267-.216 10.825-5.613.196-.415.38-.594 1.197-.054.816.54 3.81 2.322 9.41 2.81 1.57.136 3.265.917.109.701-3.157-.216-8.159-1.08-9.846-2.107-2.83 4.425-7.91 4.948-11.695 4.857-2.281-.054-1.737-.648 0-.594z"/>
		<path d="M916.754 381.653c-.87 1.188-3.864 3.24-5.224 3.348-1.356.108-5.438-.27-6.472-.648-1.033-.378-2.285-.27-.816.756 1.47 1.027 5.115 1.729 6.58 1.405 1.47-.324 3.157-.81 4.3-.108 1.142.702 3.264 2.048 4.512 1.778 1.25-.266 3.809-.266 4.625.108.816.378 2.23 1.512.109.864s-3.864-.108-4.843-.54c1.088 1.512 3.558 3.942 5.66 3.942.489 0 .815.864-.219 1.35 1.034.486 3.425.864 4.676-.27-.326.432-.163.702.38.972s1.198.649.219.757c-.98.108-3.207.378-3.86.108 2.118 1.346 7.614 3.506 13.215 2.426 1.068-.204 1.633-.644-.11-.594-3.59.108-3.804.054-4.457-.32-.653-.382-.544-.702.49-1.026 1.03-.324 3.642-.702 4.73-.702 1.088 0 2.177-.433-.054-.433s-4.948 0-6.036-.378c-1.09-.378-1.91-.864-.77-1.62 1.141-.756 2.34-.54 2.882-1.242-3.592-.054-8-1.944-5.55-3.668.57-.403.38-.432-.545-.54-.926-.108-3.64-.864-4.785-1.512-1.143-.65-.38-1.19.544-1.35-2.122.377-6.367-.757-9.192-2.863zm31.926-.108c-1.96 1.458-5.656 2.052-7.234 2.052-1.578 0-1.795.54-.544.702 1.252.162 2.612.324 3.156.162s.87-.205 1.683.173c.816.377 2.558.593 4.08.107 1.525-.487 4.024-.703 5.058-.649 1.034.054 2.176.108.109-.486-2.064-.594-5.438-.162-6.254.054-.816.217-3.047.055-1.85-.323s2.23-.972 2.83-1.458c-.436-.108-.708-.216-1.035-.324zm-1.034 4.212c-1.687 1.243-4.132 2.427-6.635 2.535 2.285.81 4.19 3.132 5.655 3.024-.707.432-1.574 1.08-2.5 1.188 1.416.378 3.806-.054 5.765-1.134 3.265.918 7.505.324 8.92-.864-2.122 0-4.675-.756-5.818-1.728 1.034 0 2.009-.648 2.499-1.238-2.445.428-6.635-.756-7.886-1.783z"/>
		<path d="M944.167 392.504c.925-.108 1.792-.756 2.5-1.188-1.792.594-9.628-.648-11.964-2.7-2.34-2.048-2.34-.486-.708.972 1.633 1.458 4.513 3.672 10.172 2.916zm5.764 4.965c-.98.54-5.655.864-7.179.54-1.523-.324-2.176-.162-1.795.432.38.594.544 1.134-.708.972-1.25-.162-3.483.108-4.403.432-.926.324-2.068 1.134-.11.81 1.956-.324 3.751-.702 5.22-.324 1.47.39 6.69.497 7.724.065 1.033-.432.326-.432-.164-.432s-.707-.323 0-.647c.708-.324 1.252-1.242 1.415-1.836zm-45.253-6.26c-1.96.863-8.485 2.591-10.227 2.7-2.176.971-3.913 1.512-5.002 1.512.76.648 3.69 1.292 4.89.972-.659.644-2.179 1.4-2.72 1.724 1.734-.216 3.802.216 4.673.324-2.287 1.296-5.439 1.728-7.07 1.512.543.756 1.305 1.512 2.284 1.512-2.068.54-4.57.54-5.877.108.544 1.08 1.09 1.728 1.85 1.836-1.74.216-3.918.54-5.764-.54 1.411 1.837 4.567 2.48 9.247 1.945 4.676-.54 8.594-2.593 9.682-3.457-1.96.216-4.57.324-5.877.108 2.612-.648 8.267-3.024 9.247-3.996-1.089 0-2.173-.324-2.939-.864 1.523.216 6.856-.428 8.49-1.076-1.96-.432-3.158-1.62-3.7-2.377 6.85 2.16 14.477 1.454 18.164.54.872-.216.977-1.312-.76-1.188-3.048.216-8.92-.648-10.444-1.404 1.415 1.08 3.156 1.728 4.353 1.944-2.829.756-6.742 1.296-12.509-1.836z"/>
		<path d="M891.626 398.117c.544-.324 2.064-1.08 2.717-1.724-1.198.32-4.132-.324-4.894-.972 1.089 0 2.826-.54 5.002-1.513-3.91-.108-6.63-.108-8.04-.864s-4.022-.54-5.001-.324c-.98.216-.653 1.836 3.478 1.404-1.741 1.19-6.417 1.62-8.158 1.19.435 1.4.762 2.803.327 3.56 2.285 1.295 8.267 2.915 11.205 2.7-2.612-.973-4.027-2.053-1.85-2.269 2.177-.216 3.374-.648 5.224-1.188zm-6.748 7.02c5.208-.431 12.18-.523 17.732-5.184 1.415-1.188 2.365-.79.98.432-2.935 2.592-10.227 6.153-17.188 6.26-2.834.046-4.131-1.296-1.524-1.507zm39-8.532c-1.306.486-4.952 1.08-6.036.918-1.088-.162-2.666-.216-3.537.324-.87.54-.925.864.272.972 1.197.108 2.721.216 3.483.162-.98.54-1.633 1.296-1.85 1.62 1.74-.432 4.947.324 5.872.864-.707.216-1.523-.054-2.122-.378 2.939 3.079 11.64 3.079 13.056 2.538-.653.486-1.252.973-1.905 1.135 2.45.432 5.275.378 8.05-1.243-.925.162-3.696-.108-4.404-.162a5.231 5.231 0 0 1 2.118-1.242c-1.084-.216-4.512-.108-5.328.324.326-.648.925-1.458 1.578-1.728-4.3 0-9.519-.054-11.423-1.08 3.047.324 6.42-1.458 7.831-1.458-2.39-.054-5.002-.594-5.655-1.566zm-10.933 2.375c-2.123.433-5.33 1.297-6.2 1.783-.87.486-1.795.756.11.756 1.904 0 7.07.216 8.212.378-2.884-.432-6.798-.54-7.56-.54-.762 0-1.632-.054-.217-.486 1.414-.432 3.265-1.404 5.655-1.89zm-4.295 5.023c.758 0 4.077 0 5.383-1.134 1.36 1.026 3.972 2.48 5.655 2.48 1.687-.01 1.524.43.054.59-1.465.16-4.349-.7-5.818-1.78-1.959.7-3.587.105-5.274-.166zm-25.182 14.52c3.37 1.296 7.831 2.268 11.092 1.188 1.85 1.62 5.66 1.728 7.723 1.296 2.068-.432 3.918-.648 6.204.108 2.28.756 6.96.81 8.267 1.886-1.197.06-3.755 0-4.353.167-.6.157-.273.535.816 1.13-3.696-.216-10.063 1.35-12.018 3.024.703-1.674 2.88-3.943 6.308-3.943-1.959-.697-8.212-.751-10.226.487-.598-.649-1.306-1.725-1.36-2.157-3.31 1.886-9.84-.81-12.45-3.186zm-8.653-6.045c4.015-.569 6.748-1.836 7.945-3.024.708.648 3.642 1.296 6.853.324-.653.486-.708 1.404-.436 1.89-2.122.054-6.15 1.08-7.505 1.783-1.36.697-5.333 1.184-6.635.481-1.306-.698-1.36-1.292-.222-1.454z"/>
		<path d="M889.177 411.668c-2.122.054-6.149 1.08-7.505 1.783.272.54.435 1.4.49 1.994 3.914-1.405 12.888-2.265 16.316-1.724-1.632.108-4.734 1.778-6.47 1.994 4.24-.324 8.375.54 9.46.81 1.087.27 1.305 1.08.49 1.836-.817.756-1.194.864.543.918 1.741.054 5.333-.162 6.965-1.728-.653-.702-2.34-.432-2.83-.918 1.143-.378 2.45-1.188 2.94-1.782-2.939-.054-4.028-.108-5.007-.325-.98-.21-1.69-.486-.49-1.13 1.19-.648 1.74-1.188 2.12-1.62-2.13.594-5.44 1.08-8.22-1.08 1.033.27 3.478.108 4.35-.27-.926-.486-1.684-.864-2.446-.864 2.227-1.08 6.635-2.052 12.072.108 2.721-.216 5.66-.108 7.723.432.871-.864 2.721-2.916 3.701-3.456-6.417.54-17.949-.648-17.73-3.993-2.069 2.696-6.853 4.21-8.92 3.777-.219.972.652 2.16 1.414 2.808-2.177.432-5.877.756-7.614.432.98.972 2.825 1.836 3.913 1.728-2.28 0-3.478.432-5.274.27z"/>
		<path d="M902.5 419.28c1.742.053 5.334-.163 6.966-1.73-.653-.701-2.34-.431-2.83-.917 1.143-.378 2.45-1.188 2.939-1.782 4.567-.374 8.648-.158 10.603-.752 1.959-.594 6.965-.27 7.945-.54-4.354.697-5.224 1.076-5.442 1.778-.218.702 1.415 1.296 2.449 1.296-1.96-.108-4.408 1.944-4.626 2.754-2.607-1.512-3.86.27-4.131.864-1.088-.432-4.68-.324-6.53 1.242-2.39-.702-3.968-1.08-6.363-.702 1.47-.324 1.198-1.296-.98-1.512zm20.888-12.634c1.47-.054 4.676.108 5.819-.054-.762.378-1.737 1.08-1.955 1.404 3.696-.432 8.753-.702 10.222-.486-1.792-.27-3.642.864-4.567 1.458-.925.594-.38.972.87 1.134 1.252.162 2.94 1.134.654.81-2.286-.324-6.798-.324-7.886-.162-1.089.162-1.687-.378-.11-.594 1.579-.216 2.663-.756 3.425-1.188-1.306.324-3.805.324-4.567.108-.762-.216-1.252-.648-.38-.864.87-.216.27-.54-.654-.432-.925.108-3.265 1.08-4.57 2.322 1.414-1.458 2.666-2.754 3.7-3.456zm-16.588 2.43c1.796 1.998 3.914 3.132 7.287 3.24.708.021 2.026.964.327 1.027-4.57.162-6.852-.92-8.866-3.835-.414-.598.352-1.433 1.252-.432zm57.978-24.561c-1.356.918-3.152 2.539-1.959 4.803.14-.075.27-.162.41-.241A131.757 131.757 0 0 0 977 368.99c.046-.24.087-.469.117-.668-1.524 1.296-3.918 2.588-4.898 2.912.653 1.728-2.39 3.996-4.022 4.644.654 1.08.436 2.7-.98 3.025.328.968-.761.968-2.067 1.508s-1.96.972-2.39 1.62c.703-.378 1.683-.702 2.227-.54.544.162.653.972-.326 1.188-.98.216-1.63.756-1.96 1.188 1.415-.54 3.429-.27 2.068.648zm-95.89-24.615c1.633 1.135 4.517 3.02 8.267 2.75 1.85 1.46 4.735 2.701 6.04 2.971-2.503 1.026-5.223 1.89-5.93 2.7-1.144-1.08-2.609-.91-2.99-1.45-1.088.867-.925 1.407-.217 1.839.707.433 6.2 1.35 7.56.973 1.36-.38 1.724.739.598 1.129-2.938 1.026-8.648.054-10.607-3.074-1.959-3.133-3.646-4.321-8.974-1.46-.599-1.51-.599-1.89-1.633-1.89s-2.938-1.35-1.47-1.295c1.47.054 5.823-.594 9.356-3.182z"/>
		<path d="M870.194 366.863c-.908.225-3.482 1.62-4.403 1.729-.92.108-2.55 1.404-.87 1.458 1.69.054 3.86-1.782 5.06-1.944 1.2-.162 1.31-1.513.22-1.243zm7.125 5.073c.163.54.163 1.134 0 1.512-.164.378-.164.864.544.324.707-.54 1.143-1.188 1.85-.81.707.378 2.503.324 3.315.216.82-.108 1.089-.27-.104-.756-1.198-.486-2.395-.648-3.048-.594-.653.054-1.469-.108-2.013-.324-.544-.216-.708-.108-.544.432zm25.781.162-.327.81c2.013-.054 6.91.432 8.485 1.404 1.523-1.188 1.25-1.566 2.34-1.35 1.088.216 2.448.594 3.047.27.6-.324 1.034-.27 1.687-.162.65.108 2.064-.162 2.88-.648.816-.486 2.503-1.134 3.482-1.134.98 0 2.173-.216.381-.486-1.795-.27-4.516.27-5.441.594-.921.324-3.696.54-5.33.54-1.631 0-3.86.81-5.71.324-1.85-.486-4.406-.162-5.495-.162zm30.95-.756c2.403 1.126 7.233 2.106 10.988 1.944.653-.029 1.967.665.322.81-4.24.378-8.05-.212-11.582-2.16-.98-.54-.653-1.026.272-.594zm2.45-.054c3.695-.108 6.47-.054 7.613 1.026 2.118-.648 5.927-1.026 6.798-.864.87.162 1.85-.216-.164-.702-2.013-.482-6.689-.644-8.158-.374-1.47.266-6.04.428-7.56.266.65.108 1.08.216 1.47.648zm14.356 1.458c1.741-.918 6.744-.054 8.267-.702-1.088 1.296 3.483 1.404 7.451.378-1.524.972-4.784 1.134-6.2 1.728-1.414.594-2.176.162-3.264-.324-1.088-.486-3.86-1.458-6.254-1.08z"/>
		<path d="M966.574 372.422c-3.968 1.026-8.54.918-7.45-.378-1.524.648-6.527-.216-8.268.702 1.796-1.08 3.156-.216 4.458-2.43.816.166 2.72.274 3.374-.59 1.143.27 3.156.756 3.755 1.346.598.594 1.52-.162.757-1.076 1.796-.648.657.768 4.843-.27.87-.216 2.993-.594 3.7-.648-1.414 1.134-3.101 2.372-5.17 3.344z"/>
	</g>
	<path fill="none" stroke="#000" stroke-width="2" d="M999.475 257.01c-.192 67.849-10.98 140.945-99.473 175.762-88.498-34.817-99.285-107.913-99.477-175.763z"/>
	<g stroke-width="4.17">
		<path fill="#cfa763" d="M839.951 287.528c-1.473 1.882-3.043 3.456-5.073 4.894-2.03 1.441-4.642 2.592-3.194 5.039 1.453 2.447 2.612 2.738 2.901 4.607.293 1.87.728 3.456 2.177 3.888 1.452.428 2.03.142 2.03 3.166s0 4.175 1.306 5.326c1.306 1.15 1.16 2.302 1.741 5.04.578 2.733.578 8.636 2.32 12.666 1.74 4.03 5.65 11.661 5.22 13.244-.44 1.583-1.02 2.734.72 4.603 1.74 1.874 2.9 4.607 3.045 6.19.142 1.587.435 2.16 2.172 1.587 1.74-.577 2.611-1.155 3.193-1.874.578-.718 1.737-.573 3.336.287 1.595.864 4.06 1.728 5.51.864 1.451-.864 2.175-2.156 3.481-2.156 2.03-1.441 2.755-4.466 3.19-5.326.435-.864.147-.864-.724-1.728-.869-.864-.434-2.306-.58-3.743-.143-1.442-.725-3.598-2.466-6.768-1.738-3.165-2.755-7.054-3.914-8.06-1.16-1.01-1.742-3.455-1.888-4.606-.142-1.151-1.448-2.16-2.32-3.025-.87-.86-1.74-2.156-2.753-7.195-1.018-5.04-1.742-8.637-1.742-9.501 0-.864-.146-1.01-1.017-1.296-.87-.287-1.306-1.728-1.013-2.447.289-.72-.293-1.438-.582-2.302-.288-.864 0-2.447.582-3.31.578-.865.436-3.312-.146-5.327-.582-2.014-1.16-3.743-3.483-4.033-2.319-.287-2.754-.86-3.625-2.734-.87-1.87-1.74-5.18-2.03-5.903-.29-.72-.725-.865-2.467.577-1.74 1.437-2.319 1.915-2.319 4.607 0 1.72.29 2.3.866 3.31.582 1 .728 1.29 1.164 4.03.435 2.724 2.9 7.044-.293 9.49-3.19 2.449-2.755 3.026-2.608 4.75.14 1.729-.87 2.879-1.455.433-.577-2.448 0-3.886 1.742-5.037 1.74-1.154 3.336-2.592 2.176-4.175-1.163-1.58-1.595-5.325-1.74-7.053-.148-1.729-.436-2.306-1.454-1.01z"/>
		<path fill="#d7c99c" d="M814.112 324.231c-.08 1.172.184 2.46.276 3.494.109 1.188.436 3.673-.435 5.509-.87 1.832-.653 2.804 0 3.344.038.03.071.058.105.087 1.774-.59 2.005-2.555 1.527-3.506-.506-1.01-.36-2.23.218-3.24.582-1.01.582-1.589.075-2.31-.51-.72-.51-.72.072-2.735.51-1.774-.779-1.762-1.838-.653zm18.552 27.897c-.327-1.296-1.524-6.265-1.633-9.501-.109-3.24-1.52-5.833-4.24-8.313-2.12-1.94-2.58-5.056-2.68-7.461-1.592-.968-2.27-.528-2.132 1.27.142 1.941 2.1 2.88 1.812 5.684-.29 2.808-.29 2.09 1.089 3.457 1.377 1.366 1.883 2.663 1.16 3.24-.725.573-.8 1.583.217 1.94 1.013.361 1.088 1.442.942 2.447-.147 1.01.8 1.226 1.377 1.944.583.72.654 2.447.076 3.457-.582 1.005-.653 2.588.36 1.728 1.017-.864 1.453-.075 2.248 1.292.69 1.18 1.268.81 2.018.453a9.066 9.066 0 0 1-.603-1.637zm-8.485-59.956c-1.076.079-1.813 1.014-1.197 4.283.385 2.023-1.16 1.583-1.737.573-.582-1.005-1.018-3.165-2.177-5.04-1.164-1.87-.582 1.296-.724 3.025-.147 1.728 1.013 1.728 2.03 3.165 1.013 1.44.142 2.02-1.017 2.02-1.16 0-.578 2.3-.29 3.883.29 1.59-.288 1.88-1.163.58-.866-1.29-.288-3.31-.142-5.752.142-2.447.289-1.874-1.306-2.447-1.595-.577-1.306-.864-.724-2.305.578-1.438 1.16-2.16.435-2.88-.728-.718-.582-1.15.578-1.296 1.16-.14.728-1.005 1.74-1.296 1.018-.287 1.454.145 1.596-1.725.12-1.562.649-2.522 1.83-2.048.71 2.405 1.636 6.15 2.268 7.266zm26.51 25.873c.43-3.165.141-6.33 1.447-7.486 1.306-1.15 2.901-3.452 2.755 1.442-.143 4.894-.29 4.607-1.302 5.758-1.017 1.15-1.888 1.437-.87 3.31 1.012 1.87 1.159 2.016 1.012 4.895-.142 2.879-.142 4.03 1.017 5.47 1.16 1.438 1.449 1.584 1.742 3.167.289 1.582 1.302 3.743 2.608 4.893s2.758 4.462 2.9 6.768c.147 2.3 2.177 2.879 4.06 4.462 1.889 1.583-.43 2.733-1.883 2.015-1.448-.72-.87 0-1.741 1.005-.871 1.01-1.16 1.155-1.884-.573-.724-1.73-3.194-2.88-4.353-3.311-1.16-.432-2.173-2.306-3.19-4.176-.87-1.607-2.595-2.783-4.17-2.903.436 1.213.67 2.164.545 2.617-.435 1.583-1.017 2.733.724 4.603 1.742 1.873 2.9 4.607 3.048 6.19.142 1.587.435 2.16 2.172 1.587 1.74-.578 2.612-1.155 3.194-1.874.578-.718 1.737-.573 3.336.287 1.595.864 4.06 1.728 5.509.864 1.452-.864 2.176-2.156 3.482-2.156 2.03-1.442 2.755-4.466 3.19-5.326.435-.864.146-.864-.724-1.728s-.436-2.306-.582-3.743c-.142-1.442-.724-3.598-2.466-6.768-1.737-3.165-2.754-7.054-3.913-8.06-1.16-1.01-1.742-3.456-1.888-4.606-.142-1.151-1.448-2.16-2.32-3.025-.87-.86-1.74-2.156-2.753-7.195-.796-3.94-1.411-6.992-1.641-8.554-1.043 1.65-1.754 2.052-2.13.922-.436-1.292-1.018-2.015-1.596-1.15-.582.864-.728-.72-.728-1.438 0-.723-.142-.864-.87-.864-.725 0-.143-1.15-.436-3.31-.29-2.16-.724-2.448-1.013.144-.29 2.588-1.741 4.171-1.16 4.75.578.576.29 1.727-.293 3.455-.577 1.724-.288 2.734.147 3.884.435 1.151-.29 3.312-.582 5.185-.29 1.87 1.164 3.74 1.6.573zm-11.897-8.923c0 3.024 0 4.175 1.306 5.326 1.306 1.15 1.16 2.301 1.741 5.04.578 2.733.578 8.636 2.32 12.666.51 1.2 1.23 2.725 1.96 4.312.96-.752 1.8-2.044 2.094-2.73.43-1.009-.87-3.024-1.888-4.748-1.013-1.728.146-2.306 1.16-4.466 1.016-2.156-.143-2.301-1.738-2.879-1.6-.573-1.6-2.015-2.47-4.316-.87-2.302-.724-3.311-.142-4.607.578-1.297.143-2.302-1.017-2.593-1.16-.286-.87-1.15-.435-2.588.434-1.442.723-1.728-1.014-1.296-1.32.324-1.636.569-2.03 1.043.097.415.143.993.143 1.836z"/>
	</g>
	<path fill="none" stroke="#000" stroke-width=".5" d="m866.195 307.95-3.477 38.035m13.89-14.736c-1.42 6.434-3.29 13.743-5.187 19.94m50.705-38.255c2.636 2.45 6.177 3.023 10.096 4.924m7.365 11.896-1.929 14.655m.044-14.007-3.457 15.046m-59.903-13.744c-1.633 6.254-3.819 11.957-5.916 17.747"/>
	<path fill="#666" d="M949.784 367.084a1.922 1.922 0 0 1-.29.063 3.97 3.97 0 0 1-.32.034l-.332.022a6.963 6.963 0 0 0-.328.027 3.015 3.015 0 0 0-.305.048 1.317 1.317 0 0 0-.27.087.727.727 0 0 0-.21.144.587.587 0 0 0-.14.217 3.805 3.805 0 0 1-.28.337l-.153.166a21.236 21.236 0 0 0-.316.338l-.15.18a3.276 3.276 0 0 0-.14.19 2.267 2.267 0 0 0-.123.203 5.307 5.307 0 0 1-2.7 1.157c-.71.197-2.38.246-3.084 0-1.36.018-2.784-.082-3.6-.644-.956-.492-2.2-.17-2.957.258-.604.34-.722.962-1.415 1.156-.415.55-2.253.485-2.957.258-1.602.102-2.582-.417-3.73-.771-.754-.536-1.965-.928-2.827-.13-.538.576-1.273.957-2.186 1.158-1.567-.063-3.344.205-4.5-.386-1.286-.108-1.777-.81-2.956-1.155-1.346-.23-1.97.47-2.828.77-.77.64-1.86.708-3.215.644-1.401-.058-3.104.187-3.985-.388-1.136-.126-1.865-.778-2.7-1.155-.823-.651-2.362.029-3.083.385-1.236.19-1.696 1.156-3.252 1.028-1.267-.155-2.13-.674-3.305-1.028-1.105-.494-2.098-1.266-3.856-1.157-.525.693-1.658.982-2.822 1.028-1.043.013-2.075.014-2.836-.257-2.1-.063-3.111-2.274-4.632-3.455l-7.6-7.535c.435-1.347.59-1.582-.11-2.462.29-1.343-.63-1.527-.257-2.874.57-1.033-1.026-.853-1.415-1.412-.912-.18-1.3-.85-2.186-1.158-.72-.502-1.415-.836-2.313-1.286-.788-.324-1.468-.76-2.186-1.155-.54-.49-1.26-.8-1.8-1.287-.7-.323-1.272-.748-1.8-1.155-.737-.234-1.096-.784-1.8-1.158-.51-.477-1.333-.884-1.929-1.286-.936-.308-1.79-.92-2.828-1.155-.704-.026-.92-1.598.38-1.544.928.02 1.5.61 2.192 1.02 1.094.45 2.163.921 3.472 1.156.757.45 1.435.684 2.313 1.027.76.588 1.76.69 2.7 1.285.875.397 1.92.87 2.444 1.285.745.315 1.128.853 1.93 1.155.28.336.846.488 1.29.9.787.296 1.496.633 2.056 1.031.732.48 1.136.533 1.67 1.03.662.203 4.845 2.306 4.634 2.06 4.117.79 5.937 1.04 10.077 1.63l30.026.474 10.888-4.55 3.307-5.235 16.092-2.94c-.305-.325 28.244-1.004 28.846 1.39.254 1.013 1.028 3.044.1 3.523-.606.314-26.96-3.354-27.367-.987-.179 1.027.04 7.42.185 8.453l.44 3.096.442 3.093.44 3.095.444 3.096z"/>
	<g fill="none" stroke="#000" stroke-width=".5">
		<path d="M868.195 326.585c-4.852 5.522-9.682 9.928-14.86 14.141m41.538-36.624 15.643-13.532m-22.662 26.907c3.134 2.197 6.638 4.173 11.416 5.384m-13.627-25.836c1.947 3.083 4.232 6.075 11.056 7.857m-15.51-38.646c-2.116 2.808-5.49 5.425-9.91 7.573m15.52 11.422c2.224 2.158 5.36 3.411 8.562 4.594m-8.568 42.516c1.575 7.75 2.935 13.906 4.732 20.323"/>
		<path d="M885.56 352.504c8.128-8.345 15.07-17.312 19.579-27.554m16.585-30.176c2.604 2.79 5.319 4.815 9.564 5.965m1.732-15.954c2.207 3.957 4.925 6.89 7.472 10.169m-31.494-22.538c-.273 3.934-2.66 7.887-4.33 11.297"/>
		<path d="M914.62 274.356c-2.896 3.223-5.693 6.676-9.653 8.657m10.15-22.687c-1.987 1.352-4.754 2.936-6.926 3.734m36.58 26.2c-2.4 2.85-4.8 6.2-8.75 8.66m9.2 15.076c-3.07 2.907-5.821 6.286-9.343 8.515m27.112 8.28c-5.5 4.315-11.132 8.365-17.23 11.487m2.929.563c5.165-3.22 9.72-7.66 14.3-12.048m-15.793-39.93c.992 2.592 3.305 5.428 5.596 7.277"/>
	</g>
	<path fill="#bca76b" stroke="#472b1f" stroke-width=".377" d="m943.803 265.012-.449 77.907 5.672-.336-2.38-77.82z"/>
	<g stroke="#000">
		<path fill="#333" stroke-width="1.313" d="M947.58 365.469c1.353.814 2.13 1.543 3.245 2.625 2.484 2.281 4.146 2.29 7.691-.022 1.322.153 2.66.842 4.094.58 1.266.039 2.496-.186 3.733-.453 1.514-.364 1.73-2.188 2.266-3.409.693-1.418 1.45-2.882 2.446-4.107 1.31-.88 2.727-1.79 3.634-3.104 1.037-1.218.86-2.807.644-4.27-.12-1.392-.232-2.688-.22-4.092-.345-1.772 1.188-3.143 1.056-4.884-.88-.779-2.33-.987-3.5-1.326a44.53 44.53 0 0 0-6.29-.909c-1.728-.139-3.449-.324-5.168-.451-1.698-.134-3.392-.25-5.094-.255-1.91.052-3.879-.184-5.749.125-1.337.313-3.025.193-4.126.807-.495 1.296-.812 2.638-.867 3.98-.18 1.158-.248 2.36-.247 3.572.067 2.21-.227 4.458.386 6.6.407 1.726.552 3.481.877 5.187.048 1.361.214 2.762 1.18 3.806z"/>
		<path fill="none" stroke-width=".5" d="m954.055 327.525 7.718 14.438m11.567.756c-2.276-2.39-4.063-5.267-5.44-8.556"/>
	</g>
	<path fill="#472b1f" d="m972.816 320.193 2.541 1.787.177.067c-.832-.778-1.642-1.623-2.698-1.852 0 0-.014 0-.02-.002zm-5.362.754-.287.087-3.573 13.97zm17.04.507c-.88.073-1.717.444-2.549.839l1.5-.523 1.952-.29a5.544 5.544 0 0 0-.903-.026zm-16.594 12.71-.7.135c.293 0 .573.015.805.075.354.09.668.23.967.387zm1.398.779c.915.551 1.688 1.26 2.772 1.549zm8.262.713-4.767.954c1.669.148 3.165-.508 4.767-.954z"/>
	<path fill="#fff" d="m967.695 320.09-4.096 14.916 4.306-.84 4.517 2.519 6.827-1.366 3.466.526c1.07-4.793.757-10.449 3.57-14.494l-2.836.42-4.516 1.576-3.572-1.366-2.834-1.996z"/>
	<path fill="#c8102e" d="M974.209 321.876c-.716 1.375-1.412 2.761-1.579 4.412 0 0-2-.7-3.043-.84-1.11-.15-3.361 0-3.361 0l-.03.095-.97 3.528c.103-.013 2.75-.34 3.94-.158.887.134 2.52.946 2.52.946l-1.32 5.67.84.47 1.83.552.053-.01.772-.157c.353-1.942.638-3.95 1.5-5.383 0 0 2.77.744 4.307.631 1.057-.076 3.24-.309 3.776-.368a71.13 71.13 0 0 1 .521-3.584c-.538.144-2.878.72-4.193.59-1.191-.113-3.359-1.256-3.359-1.256.315-1.227.876-2.453 1.47-3.678z"/>
	<path fill="none" stroke="#000" stroke-width=".656" d="M964.712 320.02c-1.816-4.969-4.07-13.11-4.992-19.565"/>
	<g stroke="#472b1f">
		<path fill="none" stroke-width="1.313" d="M966.348 321.172s4.49-1.06 6.356-.656c1.956.423 3.198 2.656 5.18 2.936 2.28.321 4.32-1.807 6.617-1.996 1.09-.09 3.255.42 3.255.42l-1.47 5.462-1.261 4.622v4.095s-3.845-.925-5.777-.736c-2.424.237-4.422 1.655-6.826 1.26-1.775-.29-2.67-1.755-4.412-2.205-1.438-.372-5.097.584-5.097.584z"/>
		<g fill="#bca76b" stroke-width=".3">
			<path d="m967.167 321.034-1.788.105-5.67 20.06 2.62.106z"/>
			<path d="M965.38 321.139c-.785-.436-1.349-1.719-.945-2.52.459-.91 1.963-1.128 2.94-.84 1.071.31 2.565 1.46 2.206 2.52-.46 1.35-2.954 1.53-4.202.84z"/>
		</g>
	</g>
	<path fill="#472b1f" d="M986.065 321.578c-2.734 3.961-2.508 9.372-3.547 14.025a42.2 42.2 0 0 1 2.374.452v-4.097l1.324-4.62 1.54-5.462s-.805-.17-1.691-.298z"/>
	<path fill="none" stroke="#000" stroke-width=".5" d="M953.746 305.335c2.813 1.919 5.69 7.026 9.695 11.033m-4.402-18.32c-2.082-5.481-3.76-14.432-4.054-21.105M950.75 330.2l4.433 11.57m-.023-70.23c-3.815-.977-7.432-3.68-8.003-5.85m-16.897 9.652c2.475.189 11.128-6.283 12.453-9.653m9.598 62.854 6.11 13.033m-6.58-8.65 4.445-1.673m-3.697 4.107 4.74-1.982m-2.79 6.87 5.165-2.195m-10.48-23.463 6.232 6.675m-19.434 9.495-4.302 14.54m3.112-11.298 4.35-.063m-5.411 3.646 5.07.148m-6.232 3.56 5.49 1.04"/>
	<g fill="#bca76b" stroke="#472b1f">
		<path stroke-width=".381" d="M947.185 263.054c-1.012-.35-3.69-.419-4.755.437-.571.46-.096 1.996.617 2.01 1.44.025 3.272.092 3.846-.33.596-.436.982-1.88.294-2.117z"/>
		<path stroke-width=".521" d="M931.44 275.21c1.86 7.616 9.94 6.346 9.567-.604"/>
		<path stroke-width=".638" d="M938.859 274.855c2.42 8.746 12.922 7.287 12.436-.696"/>
		<path stroke-width=".546" d="M947.742 274.688c2.366 6.406 5.698 5.163 9.677-.656"/>
		<path stroke-width=".529" d="m959.73 271.647-29.54 1.691.073 2 29.779-1.527z"/>
		<path stroke-width=".557" d="M932.52 301.278c1.788 8.377 10.212 7.132 9.956-.49"/>
		<path stroke-width=".68" d="M940.24 301.022c2.346 9.627 13.293 8.22 12.942-.538"/>
		<path stroke-width=".583" d="M949.478 301c2.337 7.061 5.825 5.76 10.07-.544"/>
		<path stroke-width=".565" d="m961.998 297.886-30.743 1.318.038 2.192 30.989-1.133z"/>
		<path stroke-width=".571" d="M931.73 324.89c1.986 8.55 10.604 7.123 10.205-.68"/>
		<path stroke-width=".697" d="M939.645 324.49c2.12 12.757 13.783 8.182 13.266-.781"/>
		<path stroke-width=".597" d="M949.12 324.301c2.524 7.194 6.08 5.798 10.32-.735"/>
		<path stroke-width=".579" d="m961.909 320.887-31.511 1.9.077 2.247 31.766-1.716z"/>
		<path stroke-width=".256" d="m951.31 286.863-11.69.344.035 2.903 11.78-.04zm.08 24.727-11.69.344.035 2.903 11.78-.04z"/>
	</g>
	<g stroke="#000">
		<path fill="none" stroke-width=".656" d="m922.194 325.145 8.623 20.748m-52.293-14.279c-.943 6.543-2.429 14.902-4.096 21.205"/>
		<path stroke-width=".394" d="M975.243 344.244c-4.91-.792-9.84-1.602-14.81-1.819-3.915-.172-7.846.057-11.75.407-5.69.512-11.506.775-16.963 2.469-.737.228-1.523.483-2.075 1.021-1.538 1.502-1.69 4.002-2.988 5.715-1.258 1.661-6.06 4.43-7.794 5.587-12.624.315-26.653.14-42.35-2.208l-2.209-2.47-.908-.91 2.468.91 5.585.13 13.64-.52s11.52.014 17.27-.26c3.253-.152 6.512-.347 9.741-.777.7-.094 1.49-.004 2.08-.39.964-.63 1.278-1.921 1.947-2.86.63-.88 1.027-2.03 1.95-2.597 2.46-1.843 5.582-1.677 8.26-2.19 3.213-.613 6.171-.736 9.407-1.213 3.742-.55 7.524-.81 11.301-1.014 2.422-.13 4.856-.308 7.273-.13 3.68.272 7.713-.015 10.912 1.819.587.337 1.645.978 1.3 1.56-.226.379-.863-.19-1.299-.26z"/>
		<path fill="none" stroke-width=".5" d="M917.798 260.326c1.869 1.431 5.317 2.625 8.663 3.134m-12.538 49.555c-3.953 2.845-8.13 4.798-12.454 6.16m23.638 30.865-6.872-18.023m1.36-5.9 7.91 20.552m-8.88-15.24 5.25-1.82"/>
	</g>
	<path fill="#bca76b" stroke="#472b1f" stroke-width=".378" d="m914.984 257.667-1.631 95.75 5.67-.34-1.066-95.4z"/>
	<path fill="none" stroke="#000" stroke-width=".656" d="M921.8 272.467c2.214 4.21 5.757 7.589 10.941 9.943"/>
	<g fill="#bca76b" stroke="#472b1f">
		<path stroke-width=".557" d="M903.262 266.5c1.788 8.377 10.212 7.134 9.957-.49"/>
		<path stroke-width=".68" d="M910.982 266.245c2.347 9.626 13.295 8.219 12.943-.537"/>
		<path stroke-width=".583" d="M920.22 266.224c2.337 7.06 6.604 7.701 10.071-.544"/>
		<path stroke-width=".565" d="m932.741 263.11-30.743 1.316.037 2.194 30.99-1.134z"/>
		<path stroke-width=".557" d="M903.262 285.801c1.788 8.377 10.212 7.132 9.957-.49"/>
		<path stroke-width=".68" d="M910.982 285.545c2.347 9.627 13.295 8.22 12.943-.537"/>
		<path stroke-width=".583" d="M920.22 285.523c2.337 7.062 9.4 5.874 10.071-.542"/>
		<path stroke-width=".565" d="m932.741 282.41-30.743 1.317.037 2.194 30.99-1.135z"/>
	</g>
	<path fill="none" stroke="#000" stroke-width=".656" d="M912.42 296.56c-2.772 1.82-5.293 4.051-8.94 5.171"/>
	<g fill="#bca76b" stroke="#472b1f">
		<path stroke-width=".557" d="M902.342 303.92c1.79 8.377 10.213 7.132 9.958-.491"/>
		<path stroke-width=".68" d="M910.063 303.664c2.347 9.627 13.295 8.22 12.943-.537"/>
		<path stroke-width=".583" d="M919.3 303.642c2.338 7.062 8.58 4.842 10.072-.543"/>
		<path stroke-width=".565" d="m931.822 300.529-30.743 1.316.037 2.194 30.99-1.145z"/>
	</g>
	<path fill="none" stroke="#000" stroke-width=".5" d="M906.224 325.834c-.793 9.457-4.582 18.016-7.145 26.942m10.56-26.868c-.848 9.194-3.7 17.835-6.03 26.473m8.856-27.29c-1.1 10.224-2.332 18.753-4.614 27.25"/>
	<g fill="#bca76b" stroke="#472b1f">
		<path stroke-width=".557" d="M902.736 321.251c1.79 8.377 10.213 7.132 9.958-.491"/>
		<path stroke-width=".68" d="M910.457 320.995c2.347 9.627 13.295 8.22 12.943-.537"/>
		<path stroke-width=".583" d="M919.695 320.973c2.337 7.062 8.488 5.67 10.071-.543"/>
		<path stroke-width=".565" d="m932.216 317.86-30.743 1.317.037 2.194 30.99-1.135z"/>
		<path stroke-width=".327" d="m922.45 276.117-11.035.344.032 2.903 11.12-.04z"/>
		<path stroke-width=".298" d="m921.99 294.773-9.81.321.028 2.72 9.887-.036z"/>
		<path stroke-width=".322" d="m922.607 312.927-10.665.345.034 2.916 10.749-.04z"/>
	</g>
	<path fill="none" stroke="#000" stroke-width=".5" d="m906 329.258 5.731 1.19m-7.071 4.168 6.625.149m-7.666 3.721 6.847 1.935m-8.708 4.168 8.038-.372m-9.452 5.284 8.485-.223m-10.478-23.67c-.9 9.674 5.345 18.847 8.463 26.977m17.44-5.073 5.447-1.621m-6.743-1.297 6.16-2.593m-8.104-2.01 6.353-1.88m-7.78-2.464 6.224-1.62"/>
	<path d="M886.296 369.702c-.722.016-1.413-.247-2.13-.339-.713-.229-1.435-.444-2.106-.787-.663-.322-1.288-.815-1.884-1.242a14.075 14.075 0 0 1-1.695-1.452c-.675-.618-1.356-1.186-1.967-1.86-.641-.655-1.318-1.305-1.865-1.983-.592-.659-1.315-1.175-1.796-1.914-.554-.541-.556-1.488-1.023-2.078-.762-.15-1.886-.277-1.918-1.284-.251-.607-.36-1.35-1.121-1.268-.316.016-.402.48-.207.191-.391-.21-.287.721-.338.22-.23.37-.479 1.156-.47 1.1-.336.673-.298 1.433.582 1.525.839.135.937 1.053 1.65 1.426.57.553 1.267 1.285 1.9 1.786.606.74 1.07 1.154 1.54 1.997.292.591 1.065 1.007 1.508 1.5.37.61.79 1.152 1.27 1.693.53.541 1.21 1.115 1.844 1.465.572.347 1.147.661 1.74.994.649.322 1.263.762 1.976.897.756.423 1.694.29 2.526.47.83.05 1.65 0 2.34-.528.687-.463-.013-.376-.356-.52zm44.884-21.754c-1.013 2.4-2.625 5.732-4.634 7.8 6.587 1.274 11.89-.565 17.826-1.573-.666-2.539-.643-5.354-.394-8.26-4.718.481-8.078 1.553-12.797 2.033z"/>
	<path fill="#333" d="M931.732 348.605c-.833 2.123-1.47 4.316-3.121 6.145 5.407 1.126 9.82-.5 14.692-1.392-.932-1.97-.654-4.11-.323-6.259-3.873.424-7.376 1.082-11.248 1.506z"/>
	<path d="m874.82 358.172 19.127 1.445c15.365.473 32.987-.224 48.222-1.97.625-.073 1.648-.247 1.855.347.252.724-.749 1.624-1.507 1.739-17.487 2.28-35.164 1.4-52.743 1.275l-10.433-1.097z"/>
	<path fill="none" stroke="#000" stroke-width=".656" d="M881.842 315.276c-4.921 3.794-9.828 7.625-15.395 9.808m16.14-27.846c-4.495 3.249-8.964 7.257-13.78 9.224"/>
	<path fill="#bca76b" stroke="#472b1f" stroke-width=".352" d="m880.925 264.3-.126 89.477 4.91-.339-2.847-89.653z"/>
	<path fill="none" stroke="#000" stroke-width=".656" d="M882.863 263.787c3.987 4.411 7.161 6.794 10.525 9.65"/>
	<path fill="#bca76b" stroke="#472b1f" stroke-width=".456" d="M884.132 261.234c-.998-.51-3.64-.61-4.69.636-.563.67-.096 2.907.61 2.925 1.42.038 3.225.138 3.79-.477.59-.636.969-2.737.29-3.084z"/>
	<path stroke="#000" stroke-width=".919" d="M881.33 365.338c.14-.76.726-.98 1.414-1.11.793.03 1.762-.114 2.27.201.61.15.92.46 1.464.7.33.401.9.68 1.313.906 1.617.617.746-1.24 1.66-1.313.775.07 1.59-.289 2.237 0 .578.115.846.536 1.162.91.346.305.722.567.91.907.13.467 1.858 1.314 1.918.202.355-.76.197-2.072 1.414-1.917 1.355-.075 2.4.262 3.635.403.648.264 1.175.35 1.714.907.47.28.43.835.86.808 1.23.908.972-.774 1.362-1.312.305-.487 1.194-.352 1.614-.706.78-.229 1.531-.488 2.624-.404.438.247 1.2.63 1.718.91.387.356.877.822 1.112 1.412.046.59.582 1.06 1.111.605.27-.677.814-.66 1.313-1.01.521-.115.863-.446 1.21-.806.306-.079.622-.755.91-1.01.537-.403 1.622-.307 2.524-.404.89.263 1.716.37 2.221.808.31.33.535.745 1.011.908.284.586.965.097 1.414-.1.367-.27.926-.566 1.415-.806.425-.426 1.033-.67 1.848-.707.994-.113 1.514.411 2.29.504.73.32 1.555.368 2.02.81.526.358 1.24.658 1.764.2.688.021.156-1.326.42-1.642.796-.63 2.68-.547 3.67-.174.837.023 1.815-.098 2.373.202.55.134.634.66.86 1.211.251.516 1.715.495 2.22.101.48.01-.11-.683-.305-.908-.31-.204-.645-.695-.81-1.01.752-.364 1.1.324 1.716.403.36.31.848.415 1.212.807.59.218 1.103.51 2.014.405.845.247.472 1.48-.5 1.21-.71.231-1.848.037-2.725.101-1.326-.157-2.749-.085-4.136-.1-.692.257-1.825.19-2.626.404-.86-.01-1.527.17-2.447.1-.87.132-1.899.102-2.9.102-.887.17-1.655.2-2.59.302-.81.01-1.47.17-2.356.1-1.164.215-2.71.05-4.038.101-.834.14-1.543.117-2.32.202-.844.024-1.589.166-2.489.201-.92-.025-1.616.175-2.585.101-1.434.218-3.017.048-4.513.101-.72-.165-1.674-.095-2.454-.202-.74-.02-1.36-.165-2.185-.1-.626-.216-1.71.023-2.327-.202-1.225.071-2.156-.153-3.36-.1h-6.53c-.559-.237-1.556-.034-2.28-.102-1.214-.02-2.663.042-3.74-.029-.978-.172-2.046.014-2.86-.375-1.305-.24-2.96-.66-2.85-1.717z"/>
	<g fill="#bca76b" stroke="#472b1f">
		<path stroke-width=".433" d="M870.518 275.315c1.565 5.799 8.936 4.936 8.712-.342"/>
		<path stroke-width=".529" d="M877.273 275.137c2.053 6.665 11.633 5.69 11.325-.371"/>
		<path stroke-width=".454" d="M885.357 275.121c2.044 4.89 5.777 5.334 8.812-.375"/>
		<path stroke-width=".439" d="m896.313 272.966-26.9.912.032 1.52 27.116-.787z"/>
	</g>
	<path fill="none" stroke="#000" stroke-width=".656" d="M877.843 285.984c-2.36 2.064-6.815 4.763-8.77 4.5"/>
	<path fill="none" stroke="#000" stroke-width=".656" d="M873.028 278.527c-5.83 22.11-13.36 45.573-20.485 64.31"/>
	<g fill="#bca76b" stroke="#472b1f">
		<path stroke-width=".456" d="M870.21 292.026c1.609 6.23 9.186 5.304 8.956-.365"/>
		<path stroke-width=".601" d="M876.628 291.902c2.113 8.353 11.961 7.132 11.643-.466"/>
		<path stroke-width=".5" d="M885.476 291.828c2.332 5.23 6.587 5.703 10.046-.402"/>
		<path stroke-width=".512" d="m896.7 288.87-27.6 1.209.032 2.011 27.82-1.04z"/>
		<path stroke-width=".525" d="M868.76 307.972c1.743 7.628 9.952 6.495 9.705-.447"/>
		<path stroke-width=".751" d="M876.299 307.886c2.444 11.242 13.846 9.598 13.48-.627"/>
		<path stroke-width=".549" d="M885.288 307.718c2.278 6.433 6.437 7.015 9.817-.493"/>
		<path stroke-width=".545" d="m897.48 304.882-31.424 1.202.037 1.997 31.674-1.032z"/>
		<path stroke-width=".569" d="M868.199 326.586c1.888 8.262 10.78 7.034 10.51-.484"/>
	</g>
	<path fill="none" stroke="#000" stroke-width=".656" d="M891.448 330.886c1.817 7.852 4.183 15.03 6.462 21.724m-8.828-21.998c.993 7.558 3.092 14.874 5.278 21.953"/>
	<g fill="#bca76b" stroke="#472b1f">
		<path stroke-width=".695" d="M876.347 326.334c2.27 10.957 13.76 10.028 13.663-.53"/>
		<path stroke-width=".595" d="M886.099 326.312c2.467 6.964 6.97 7.597 10.63-.535"/>
		<path stroke-width=".629" d="m899.275 322.862-35.007 1.436.042 2.39 35.287-1.235z"/>
		<path stroke-width=".274" d="m887.86 283.472-10.049.266.032 2.246 10.126-.032zm0 16.28-10.049.267.032 2.245 10.126-.031z"/>
		<path stroke-width=".282" d="m888.504 317.482-10.689.265.032 2.238 10.772-.031z"/>
	</g>
	<g fill="none" stroke="#000">
		<path stroke-width=".5" d="m892.436 333.171-5.73 1.19m6.64 3.18-5.73 1.19m7.004 3.549-5.82-.28m7.55 4.83-6.004.903m-20.842-1.82 6.03 1.19m-4.364-6.105 5.43 1.19m-3.965-4.976 5.03 1.29m-4.111-4.694 4.53.89"/>
		<path d="M945.23 353.856c10.044-.448 22.053-1.608 30.133 1.544m-29.493 1.8c9.26-1.364 20.044-2.136 27.95.901m-26.924 5.789c6.675-1.495 15.61-1.844 21.94-.257m-21.26 1.834c6.675 1.496 14.535 1.845 20.867.258"/>
	</g>
	<path d="m849.898 342.113 21.677 13.099.463-.58-6.839-4.752c-4.883-3.024-9.79-6-15.301-7.767z"/>
	<g fill="none" stroke="#000">
		<path stroke-width=".5" d="m953.971 352.807-.17-7.229m2.38.085v7.399m4.083.085v-7.739m4.508.65v7.43m2.721-7.485.085 7.57m3.487-6.79v7.044m1.87-7.143-.084 7.909m-17.944 1.36-.086 6.804m-2.21-6.463v6.463m5.952-6.633-.255 6.463m2.467-6.548-.086 6.463m3.402-6.548-.425 6.293m3.572-5.443-1.19 5.783"/>
		<path d="M945.381 346.041c9.922-1.176 19.844.244 29.766 1.231"/>
	</g>
	<path fill="none" stroke="#000" stroke-width="2" d="M999.475 257.01c.075-25.558-1.356-50.372-.703-72.116-33.069-14.686-76.58-17.706-98.77-17.706-22.194 0-65.706 3.02-98.774 17.706.653 21.744-.775 46.558-.703 72.115z"/>
	<path fill="#69737c" stroke="#000" stroke-width=".729" d="M894.036 215.492s3.573 5.313 4.535 8.173c.48 1.4.65 2.923.55 4.397-.18 2.694-1.22 5.267-2.06 7.833-.58 1.778-1.86 3.127-1.15 4.86.344.835.679 1.6 1.57 1.46.545-.084.806-.754 1.237-1.098.308-.246.598-.537.962-.688.516-.213 1.25.113 1.65-.274.335-.326.57-1.013.275-1.375-.261-.318-.825-.015-1.237 0-.597.023-1.267.432-1.786.138-.536-.303-.826-1.65-.826-1.65s1.069-2.942 1.65-4.396c.478-1.201 1.254-2.306 1.51-3.573.083-.404-.03-.826 0-1.237.047-.646-.164-1.449.276-1.924.287-.31 1.083.118 1.237-.275.59-1.501-2.151-2.485-2.747-3.985-.223-.56-.081-1.217-.276-1.786-.427-1.241-1.924-3.435-1.924-3.435z"/>
	<path fill="#66452b" stroke="#000" stroke-width=".729" d="M905.183 219.623s3.171 3.96 3.5 6.355c.073.53-.356 1.03-.368 1.566-.02.842.499 1.644.46 2.486-.125 2.709-1.552 5.199-2.21 7.83-.558 2.224-1.474 6.723-1.474 6.723l2.026-.185.368-3.408s1.062-3.863 1.566-5.802c.35-1.348.54-2.743 1.013-4.052.313-.866.982-1.593 1.198-2.487.282-1.164.622-2.518.092-3.592-.185-.374-.724-.435-1.013-.737-.69-.719-1.212-1.596-1.658-2.487-.452-.902-1.013-2.855-1.013-2.855-.423.157-2.487.645-2.487.645z"/>
	<path fill="#fff" d="m890.203 212.412 2.263 1.802 3.914 2.364 1.806.11 2.039.735 2.545-.08 1.884 1.924.53.356 2.09-.29.772-.856 3.993-6.087-.96-10.038-19.03 1.232z"/>
	<path fill="#fff" d="M910.724 195.47c2.57 2.086 5.07 4.27 7.08 6.92 1.548 1.833 2.496 4.327 4.768 5.474 3.201 3.418 16.904 7.382 16.95 8.45-3.158-1.286-4.53 3.024-7.592 2.33-2.85.829-5.195-1.035-7.659-2.071-3.703-.132-7.56.06-10.857 1.939-1.8.979-3.944-.532-5.368-.035l-.164.31-.213.19m-17.466-6.565c-2.195-1.09-3.8-3.135-5.843-4.367-1.58-2.223-3.607-4.45-3.51-7.374-.248-3.023-1.04-7.204.395-10.078-1.03-2.253-2.477-2.86-3.617-5.08-.825-3.07-3.939-4.833-2.07-7.167 2.08-1.848 3.534-4.03 6.213-4.988 2.222-.515 4.475-.3 6.608.463 2.76.324 4.274 2.68 5.73 4.719a23.344 23.344 0 0 1 3.435 9.092c1.272 2.66 4.655 3.203 7.135 4.338 2.138 1.012 4.273 1.874 6.045 3.5"/>
	<path d="M925.738 213.266c-1.076-.153-3.66.913-2.983-.685-2.648-.191-5.429.376-7.976-.511-2.638-1.294-5.503-2.091-8.326-2.86-2.764-.15-6.02.49-8.143-1.778-2.202-1.287-5.42-.36-7.44-2.23-2.043-1.737-3.27-4.135-3.194-6.817-.406-2.628-1.385-6.166 1.56-7.713 1.922-.583 3.761-.082 4.923-2.012 2.447-.404 4.694.491 6.803 1.686 2.475 1.225 5.206 1.984 7.612 3.36 2.305 1.522 4.266 3.504 6.428 5.232 1.697 1.947 3.675 3.746 4.774 6.138 1.302 2.565 3.996 3.917 6.304 5.403 1.383.357 4.678 1.888 1.548 2.3-.645.1-1.244.41-1.89.48z"/>
	<path fill="#69737c" d="M898.748 204.627c-1.345-.18-2.71-.457-3.818-1.29-.874-.522-3.03-1.788-1.63-2.777 1.163-.138 2.494.442 3.532-.359 1.564-.327 3.217-.357 4.66-1.127 1.345-.73 2.933-.242 4.335-.69 1.043-.555.896-2.647 2.49-2.292 1.463-.374 1.035 2.434-.27 1.542-.81 1.132 1.458 1.515 2.058 2.216 1.208 1.37-1.45 1.68-1.687 2.697-1.68.49-2.91-1.62-4.589-1.028-.31.563.04 1.716-1.176 1.435-1.402-.857-2.618.105-4 .277.405.307-.476 1.43.095 1.395zm29.171 10.06c-.79-.417-1.81-.064-2.68-.012-.59.008-1.18.038-1.73-.208-.87-.022-2.52-.962-2.77.288.055.54 1.476.77.3.94-1.19.17-2.26-.37-3.35-.757-.446-.418-1.392-.944-1.158.065.38.873-.56 1.277-1.31 1.25-1.066-.077-2.255-.365-3.029-1.14-.558.69.787 1.663 1.583 1.713.794.673-1.2.408-1.652.314-.672-.115-1.43-.204-2.013.212-.932.21-.956 1.12.126 1.02 1.04.342 2.21.653 3.24.115a10.785 10.785 0 0 1 3.616-1.34 23.346 23.346 0 0 1 3.04-.466c1.357-.144 2.724-.126 4.096-.125 1.068.57 2.118.075 3.063-.426.583-.18 2.344-.845 1.06-1.35-.16.056-.294-.205-.44-.082z"/>
	<path d="M924.272 216.574c.526.005 1.047-.007 1.515-.26.515-.286 1.077-.378 1.623-.577.702.008 1.025-.94.286-1.134-.387-.257-.847-.44-1.25-.62-.418-.36-1.032-.474-1.407-.85.316-.394.59-.82.907-1.21.49-.197 1.086-.12 1.611-.253.389-.123.8-.063 1.2-.078.546.277 1.14.46 1.66.766.538.293 1.101.562 1.704.745.498.152.977.331 1.45.527.547.28 1.173.37 1.75.564.58.118.814.767 1.502.671.669.117 1.273.255 1.768.725.372.156 1.036.505 1.051.818-.545.07-1.009-.417-1.574-.308-.442.096-.73.528-1.247.448-.226.665-1.09.564-1.488 1.113-.56.431-1.165.818-1.83 1.083a2.098 2.098 0 0 1-1.597-.046c-.6-.165-1.233-.016-1.837-.115-.647.174-1.244.031-1.853-.18-.536-.145-.943-.539-1.405-.817-.555-.226-1.56-.492-2.112-.723-.29-.14-.26-.228-.58-.29zM883.365 173c-.563-.011-1.126-.001-1.655.224-.927.207-1.75.756-2.348 1.484a13.363 13.363 0 0 1-2.645 2.354 3.849 3.849 0 0 0-1.158 1.283c.56.367 1.442.469 1.834-.196.606-.75 1.396-1.357 2.298-1.7.797-.158 1.607.16 2.404.245.635.345 1.287.616 2.017.721.378.138 1.022.197 1.558.347.735.283 1.513.41 2.274.61.862.176 1.738.114 2.598-.025.193-.022.389-.029.584-.035-.123.28-.222.537-.204.667.017.524.244.995.476 1.454.278.454.558.906.83 1.352.222.52.48 1.021.68 1.552.26.403.406.843.587 1.28.12.494.317.977.66 1.337.35.455.762.87 1.075 1.355.286.42.5.892.716 1.33.379.32.777.782 1.297.727.539.07 1.049-.147 1.577-.204l-.18-.046c-.496-.256-.742-.764-1.004-1.223-.12-.51-.17-1.046-.26-1.545-.035-.508-.214-.995-.386-1.475-.13-.424-.304-.828-.417-1.25a14.203 14.203 0 0 1-.534-1.338c-.18-.473-.32-.964-.598-1.39-.256-.458-.457-.94-.74-1.39-.3-.406-.474-.933-.793-1.319-.157-.243-.379-.37-.624-.453.1-.242-.005-.566-.28-.824-.366-.436-.867-.847-1.146-1.41-.598-.744-1.566-.982-2.395-1.37-.966-.439-2.01-.647-3.044-.85a8.08 8.08 0 0 0-2.494-.274c-.186 0-.373-.004-.56-.007z"/>
	<path fill="#69737c" d="M892.984 186.554c-.029-.738-1.036-.447-1.346-.055-.496.49-.774 1.175-1.37 1.568-.88.641-2.039.73-2.912 1.377-.502.517-.887 1.177-1.56 1.5-.69.37-1.439.787-1.797 1.517-.159.547-.521 1.29.04 1.718.72.27.03.922.07 1.39.336.494 1.15.69 1.658.337.678-.407 1.413-.785 1.855-1.47.645-.785 1.37-1.56 2.3-2.001.616-.151 1.092-.561 1.512-1.01.441-.359.068-1.063.74-1.184.611-.232.936-.81 1.326-1.292.361-.56-.296-1.083-.21-1.68-.034-.26-.068-.545-.305-.702z"/>
	<path fill="#66452b" stroke="#000" stroke-width=".729" d="M903.51 245.095h-3.709c-.613-.246-1.043-1.274-1.824-.866-.68.26-1.36.583-2.008.932a4.626 4.626 0 0 0-1.568 1.366c-.077.392-1.224.834-.257.848.836.068 1.352-.79 2.16-.903.634-.255 1.335-.096 2-.14.542.13 1.152.134 1.738.13.66-.05 1.28.07 1.92.054.933.084-.344.653-.642.778-.729.33-1.538.427-2.317.6-.771.005-1.566-.027-2.275.317-.714.33-1.432.68-2.09 1.132-.36.2-1.278.68-.372.69.673.082 1.325-.084 1.963-.285 1.111-.417 2.263-.69 3.434-.874.764-.173 1.471-.503 2.244-.643.472 0 1.73-.233 1.334.598-.482.58-1.167.984-1.849 1.286-.575.333-1.11.857-1.833.837-.55-.192-1.7.228-.87.78.416.751 1.302.237 1.848-.042a21.993 21.993 0 0 1 1.952-.836 36.232 36.232 0 0 0 2.26-.903c.607-.383 1.363-.518 1.918-.938.659-.385 1.44-.696 1.755-1.456.198-.618.668-1 1.262-1.206.676-.17 1.394-.064 2.078-.215.77-.003.549-1.394-.162-1.429-.622-.404-1.152-.88-1.788-1.238-.75-.272-1.54-.467-2.356-.39-.674.048-1.204.473-1.535 1.028-.42.49-.514 1.353-1.34 1.16-.373.101-.738-.035-1.08-.17zm-18.087 4.62s.702-2.592 1.617-3.49c1.859-1.823 7.148-3.148 7.148-3.148-2.257.88-4.965.225-7.148.85-1.82.57-4.936 2.895-4.936 2.895s1.154-2.476 2.043-3.49c2.62-2.863 6.803-3.198 9.956-2.723l3.575.51s.609.37.34.913c-.562 1.137-2.258 1.788-3.404 2.334-3.212 1.636-7.195 2.914-9.19 5.35z"/>
	<path fill="#69737c" stroke="#000" stroke-width=".729" d="M896.316 240.61c-2.88 1.947-9.525 5.43-9.276 5.615 0 0 5.664-1.295 8.255-2.552.9-.437 2.16-.752 2.468-1.702.158-.487-.08-1.17-.51-1.447-.264-.17-.677-.09-.937.085z"/>
	<path fill="#69737c" d="M910.064 225.517c-.7-.047-.8 1.233-.829 1.935-.02.484-.024 1.347.46 1.381.617.044.77-1.043.83-1.658.055-.57.111-1.62-.46-1.658z"/>
	<path fill="#69737c" stroke="#000" stroke-width=".729" d="M907.117 244.398c.022-.562-.692-.262-.998-.163-.697.16-1.297.555-1.908.908-.475.31-.99.56-1.478.848-.965.462-1.837 1.094-2.803 1.553-.409.2-.831.39-1.275.482-.36.07-.231.298.076.27.665.143 1.355.066 1.993-.16.71-.221 1.516-.404 2.2-.693.368-.335 1.13-.456 1.555-.701.354-.229 1.276-.367 1.658-.544.633-.332.375-.79 1.098-.795.451-.001.516-.688.068-.775a.392.392 0 0 1-.186-.23z"/>
	<path fill="#69737c" stroke="#000" stroke-width=".729" d="M900.578 250.477c.51-.14 1.053-.114 1.554-.298.62-.16 1.229-.36 1.832-.57.288-.142.577-.283.864-.427.508-.359.856-.896 1.193-1.408.23-.436.447-.88.668-1.32.102-.358-.334-.517-.552-.256-.328.235-.63.505-.969.725-.33.28-.73.47-1.036.776-.37.436-.554 1.008-.97 1.407a2.13 2.13 0 0 1-.677.464c-.525.287-1.107.44-1.64.71-.095.056-.197.11-.267.197z"/>
	<path fill="none" stroke="#000" stroke-width=".729" d="M907.526 212.936c.21.332.323.73.343 1.119.06.476.179.944.24 1.418-.03.494-.546.793-.628 1.28-.03.325.02.658-.058.982-.117.529.053 1.083-.148 1.599-.25.48-.964.116-1.407.242-.43.1-.955.122-1.214-.31-.367-.393-.69-.83-1.103-1.18-.498-.485-1.015-.972-1.342-1.596-.31-.42-.563-.865-.85-1.29-.096-.18-.196-.407-.27-.561m1.67 2.704c-.422.003-.835.136-1.274.08h-1.27c-.311-.126-.922-.129-1.218-.331-.347-.069-.515-.275-.82-.404-.226-.162-.432.012-.714-.03-.192-.353-.608-.793-.836-1.037-.243-.116-.513-.207-.701-.477-.26-.066-.462-.494-.562-.633-.196-.23-.251-.535-.442-.784-.18-.263-.246-.518-.434-.795-.036-.058-.01-.133 0-.193"/>
	<path fill="none" stroke="#000" stroke-width=".729" d="M897.472 216.656c-.096.61-.785-.007-1.092-.078-.253-.126-.48-.273-.774-.366-.213-.164-.5-.276-.722-.379-.264-.165-.6-.271-.8-.478-.379-.086-.658-.457-1.017-.557-.327-.309-.693-.536-1.053-.776-.375-.296-.8-.555-1.16-.922-.34-.296-.63-.611-.657-1.064a3.344 3.344 0 0 0-.306-1.174c.042-.23-.125-.31-.088-.518"/>
	<path fill="#bca76b" d="M925.748 216.99a3.822 3.822 0 0 0 1.166-.102c.4-.022.767-.182 1.15-.273.398-.168.72-.566 1.19-.527.423-.023.896.13 1.273-.132.238-.324.577-.44.965-.373.394-.057.77.072 1.151.151.354.127.722.205 1.077.33.342.178.677.38 1.037.52.357.182-.25.433-.364.614-.358.15-.793.012-1.11.29-.329.175-.624.41-.777.757-.192.396-.673.283-1.02.41-.344.05-.694.003-1.038.06-.294.01-.61.115-.883-.03-.368-.115-.75-.2-1.137-.21-.3-.208-.543-.543-.937-.574-.53-.11-.97-.46-1.483-.63a.453.453 0 0 1-.26-.27z"/>
	<path stroke="#000" stroke-width=".486" d="M877.903 182.72c-.88-.186-1.743.225-2.627.208-.81.18-1.665.048-2.495.089-.866-.157-1.797-.078-2.678.062-1.31.213-2.557.728-3.877.927-1.782.114-3.584.017-5.375.05-1.255.105.124-1.521.835-1.453 1.633-.44 3.227-1.033 4.92-1.198 1.26-.186 2.48-.569 3.73-.79 1.011-.287 2.033-.515 3.042-.806 1.05-.177 2.106-.376 3.167-.195 1.094-.27 2.19-.529 3.232-.973.95-.472 2.084-.157 2.975-.743.563-.83 1.616-.802 2.51-.726.952.175 1.994.524 2.577 1.368.7 1.015-1.442.883-.8 1.946-.39.39-1.12.483-1.7.454-.503-.03-1.033.102-1.487-.17-.813-.287-1.433-.916-2.18-1.345-.768-.12-.807 1.296-1.776 1.144-1.227.46-2.568.34-3.857.37.812.29 1.7.58 2.35 1.15.253.391-.199.54-.496.621z"/>
	<path fill="#fff" d="m883.096 179.16.816-.371.444-.742s.701 1.053.372 1.409c-.376.406-1.633-.296-1.633-.296zm2.167-1.988c.167-.127-.676-.65-.047-.788.665-.798 1.713-.14 2.486.103 1.49.471 3.057 1.051 4.05 2.328 1.43 1.65 1.751 3.906 2.884 5.729.486.872.796 1.824 1.117 2.763.235.747 1.377 1.524.78 2.328-.7.426-1.413-.145-2.075-.318-.898-.093-.462.91.126 1.027.638.253.836 1.269-.076 1.21-.872-.103-1.738-.17-2.591-.304-.68-.369.182-1.05.563-1.297.51-.306 1.184-.714 1.084-1.408.01-1.256-.858-2.286-1.048-3.503-.227-.912-.444-1.842-.898-2.673-.393-1.958-2.152-3.308-3.96-3.907-.774-.398-1.6-.742-2.342-1.177l-.053-.113z"/>
	<path fill="#bca76b" d="M891.78 178.154c.26.145.513.303.777.437.21.215.691.944.842 1.204.102.214.15.442.203.672.046.295.274.498.431.734.144.335.25.685.383 1.025.174.264.347.535.411.85.062.268.14.526.248.777.147.212.227.63-.14.65-.242-.063-.498-.187-.643-.406-.281-.255-.432-.614-.652-.92a2.412 2.412 0 0 1-.265-.697c-.15-.263-.187-.574-.294-.855-.133-.266-.18-.562-.335-.817-.17-.288-.234-.624-.417-.907-.154-.33-.714-1.176-.582-1.57.013-.055.025-.111.033-.167zm-5.866-2.184c-.204-.067-.35-.223-.487-.379-.156-.092-.44-.19-.551-.3-.38.15-.067-.25-.255-.19-.087-.146-.076-.252-.168-.407-.118-.139-.27-.246-.379-.392.008-.08-.16-.185.007-.185.21-.006.42-.026.6.07.2-.036.35.114.55.083.28-.02.56.004.84-.008.137-.048.157.127.3.078.099.018.126.1.238.064.226.01.258.25.38.38.17.105.243.29.285.462.038.045.073.25.06.204.025-.045.027.2-.08.19-.14.143-.336.16-.49.252-.198.016-.346.192-.547.15-.1-.016-.194-.053-.293-.072z"/>
	<path fill="#fff" d="M885.427 175.592c-.284.124-.593.238-.908.192-.208.047-.364.203-.518.34-.18.115-.4.151-.606.19-.17-.035-.297-.17-.466-.216-.147-.057-.14-.255-.3-.303-.157-.11-.335-.177-.51-.25-.152-.065-.1-.25-.12-.382-.004-.15.018-.301.076-.44-.007-.21.181-.29.364-.25.34.004.69.001 1.03.002.17-.09.364-.189.563-.157.191.064.285.262.44.378.32.293.63.598.945.896zm1.554-.807c.23-.117.479-.23.732-.264.256-.01.49.097.736.15.264.08.53.145.77.288.277.091.52.243.788.363.24.131.475.273.722.39.227.112.449.24.652.387.219.173.437.356.602.582.153.186.004.513-.229.33-.23-.15-.485-.244-.743-.33-.24-.036-.472-.076-.69-.19-.25-.048-.47-.212-.73-.276-.32-.15-.67-.247-.99-.4-.14-.106-.32-.122-.47-.213-.3-.159-.604-.3-.904-.456-.09-.097-.276-.19-.236-.352z"/>
	<path d="M890.684 180.056c-.999-.078-2 .387-2.988.07-.746-.1-1.33.463-1.971.731-.833-.082-1.005 1.11-1.744 1.051-.633-.075-1.387-.565-1.96-.339 1.287.571 2.6 1.143 3.746 1.977.623.578 1.33 1.084 2.15 1.334.558.24 1.205.797.954 1.47-.25.787-1.427.926-1.473 1.818-.133.781-.992 1.114-1.27 1.82-.303.55-1.008.878-1.063 1.55.17.839 1.145.207 1.118-.41.146-.536.623-1.366 1.289-1.024.543.768 1.21-.539 1.863-.225.3.45 1.002.68 1.304.09.442-.18 1.137-.47.716-1.1-.014-.646.783-.603 1.146-.969.505-.23 1.034-.883.483-1.357-.495-.69.037-1.674-.583-2.314-.471-.733.014-1.65-.38-2.41-.332-.63-.593-1.522-1.265-1.795z"/>
	<path fill="#69737c" d="M917.538 207.272c-1.143-.02-2.065.853-3.196.934-1.37.192.357.812.78 1.11 1.088.721 2.384.97 3.593 1.39 1.132.54 2.41.875 3.66.656 1.163-.272.3-1.427-.025-2.066-.696-.996-1.878-1.5-2.752-2.32-.632-.563-1.581-.36-2.06.296z"/>
	<path fill="#fff" d="M916.765 209.7c-.419.051-.83.188-1.258.14-.49.043-1.011.145-1.462-.122-.509-.13-1.029-.228-1.485-.505-.353-.234-.83-.328-1.04-.728-.3-.425.307-.46.587-.508.51-.103 1.05-.203 1.567-.097.563.29 1.178.444 1.738.737.464.204.928.436 1.269.813-.005-.015.078.173.084.27zm5.608-.34c.077.488-.786.024-1.093.185-.586.083-1.098-.1-1.634-.327-.85-.402-1.712-.798-2.629-1.004-.425-.11-1.294-.503-.667-.99.493-.38 1.13-.684 1.733-.764.647-.034 1.202.397 1.798.61.597.288 1.227.538 1.746.97.37.307.792.782.746 1.32z"/>
	<path fill="#69737c" d="M906.877 203.826a5.064 5.064 0 0 1-2.75.707c-.858.317-2.328-.458-2.633.682-.415.927.703 1.32 1.298 1.726 1.748 1.009 3.809.957 5.76 1.042.534.033 2.226-.2 1.33-.854-.98-.748-1.707-1.744-2.487-2.68-.194-.19-.408-.37-.518-.623zm9.79.636c-.39-.057-.76-.22-1.135-.332-.517-.173-.955-.517-1.45-.758-.664-.378-1.317-.785-2.006-1.111-.336-.119-.272-.485.097-.44.367.011.494-.574.852-.192.45.273.876.578 1.224.98.419.346.81.77 1.36.9.393.208 1.03.423 1.058.942zm-1.321 1.812s-1.771.46-2.596.121c-.607-.18-1.233-.299-1.8-.597-.69-.348-1.438-.66-1.982-1.23-.438-.552.105-1.423.808-1.196.43-.121.254-1.107.912-.67.904.41 1.809.856 2.587 1.477.469.447.996.836 1.443 1.303.221.253.628.791.628.791zm-13.21-12.449c1.182.303 2.555.856 3.279 1.898 1.038 1.263-.99 1.952-1.906 1.238-1.504-.736-3.018-1.494-4.631-1.952-1.545.188.684 1.082 1.115 1.49.68.405 1.266 1.18 1.256 1.955-1.018.79-2.325-.053-3.445-.163-1.226-.142-1.91-1.213-2.684-2.034-.56-.584-1.21-.933-1.958-.593 0 1.027.748 1.28 1.222 2.148.419.52 2.044 1.847.475 1.857-1.144-.314-2.2-1.066-2.812-2.11-.7-.722-1.245-2.221.195-2.41 1.238-.747 2.693-1.115 4.139-1.113 1.573-.145 3.17.11 4.714-.301.217.066 1.218-.451 1.04.08z"/>
	<path fill="#fff" d="M890.171 194.724c-.194.337-.335.661-.337 1.018-.024.43.02.824.058 1.221.11.319.192.687.324.992.192.364.499.582.792.836.24.264.487.4.792.568.234.141.466.231.73.32.234.105.61.205.928.268.35.06.597.006.738-.288.355-.223.067-.411-.173-.484-.273-.052-.51-.271-.755-.476a3.072 3.072 0 0 1-.623-.804c-.099-.27-.285-.517-.465-.774-.18-.213-.32-.43-.56-.645a5.864 5.864 0 0 1-.713-.767 8.729 8.729 0 0 0-.647-.763c-.048-.065-.094-.14-.089-.222zm10.392 4.1c-.658-.062-1.714-.338-2.5-.565-.886-.32-1.705-.846-2.258-1.614-.658-.61-1.3-1.262-2.067-1.74-.8-.241-1.127.885-.617 1.37.438.7 1.078 1.25 1.571 1.91.577.61 1.293 1.054 2.03 1.45.93.57 2.052.75 3.125.82.625-.077 1.376-.46 1.532-1.116.05-.422-.508-.512-.816-.523zm-2.303 5.28c-.574.104-1.21.108-1.696-.262-.488-.241-.822-.723-1.114-1.168-.399-.467-.86-.963-1.466-1.142-.536-.153-1.181.223-1.012.832.073.507.46.905.804 1.258.57.566 1.344.817 2.064 1.132.36.193.799.234 1.205.242.414-.007 1.072.15 1.213-.376.02-.172-.013-.344 0-.516zm5.785-1.685c.49.215.83.845.508 1.335a1.802 1.802 0 0 1-1.663.742c-.536-.02-1.078.06-1.602-.096-.598-.18-1.156-.453-1.7-.75-.605-.2-.67-.91-1.07-1.318-.249-.461.584-.685.93-.553.583.19.938.744 1.503.954.448.235.901.46 1.414.515.434.103 1.01.193 1.294-.247a4.36 4.36 0 0 1 .386-.58zm5.054-1.266c.423.445.163 1.281-.436 1.42-.494.103-1.022.22-1.518.054-.734-.178-1.386-.576-2.016-.977-.38-.317-.975-.426-1.255-.867-.17-.6.487-1.077 1.044-.863.8.262 1.655.362 2.4.781.542.23 1.093.472 1.68.492z"/>
	<path fill="none" stroke="#000" stroke-width=".729" d="M910.724 195.47c2.57 2.086 5.07 4.27 7.08 6.92 1.548 1.833 2.496 4.327 4.768 5.474 3.201 3.418 16.904 7.382 16.95 8.45-3.158-1.286-4.53 3.024-7.592 2.33-2.85.829-5.195-1.035-7.659-2.071-3.703-.132-7.56.06-10.857 1.939-1.8.979-3.944-.532-5.368-.035l-.164.31-.213.19m-17.466-6.565c-2.195-1.09-3.8-3.135-5.843-4.367-1.58-2.223-3.607-4.45-3.51-7.374-.248-3.023-1.04-7.204.395-10.078-1.03-2.253-2.477-2.86-3.617-5.08-.825-3.07-3.939-4.833-2.07-7.167 2.08-1.848 3.534-4.03 6.213-4.988 2.222-.515 4.475-.3 6.608.463 2.76.324 4.274 2.68 5.73 4.719a23.344 23.344 0 0 1 3.435 9.092c1.272 2.66 4.655 3.203 7.135 4.338 2.138 1.012 4.273 1.874 6.045 3.5"/>
</svg>
