<svg xmlns="http://www.w3.org/2000/svg" viewBox="1 0 4000 3000">
	<path fill="#fff" d="M0 0h4000v3000H0z" stroke-width="1"/>
	<path fill="#0074d9" d="M0 0h4000v1500H0z" stroke-width="1"/>
	<path fill="none" stroke="gray" stroke-dasharray="3" d="M0 0h3140v4396H0z" stroke-width="1"/>
	<path fill="#ffa726" d="M1935 878c476-183 1071 2 1330 573 107 106 178 246 235 379 20 66 41 159 13 163-43 7-439 99-701 92-284-8-577-38-777-110-308-122-571-416-571-734 0-253 371-507 655-588 81-22 288-39 386-54z" stroke-width="1"/>
	<path fill="#fff" stroke="gray" stroke-dasharray="2" d="M715 1420c31 42 86 71 142 71s111-30 142-71 58-92 46-139-44-86-78-115c-58-50-123-67-184-47-81 25-131 81-133 133-2 58 46 111 97 126 60 18 100 1 143-3" stroke-width="1"/>
	<path d="M725 1430c10 11 22 22 34 34 96 96 122 77 122 77l5-5a5 5 0 0 1 5-5h5a5 5 0 0 1 5-5h5a5 5 0 0 1 5-5h5a5 5 0 0 1 5-5h5-5l5-5-5-5a5 5 0 0 1 5-5h5a5 5 0 0 1 5-5h5a5 5 0 0 1 5-5h5a5 5 0 0 1 5-5h5a5 5 0 0 1 5-5l4-4 5-5 7-7c21-21 45-40 67-59 5-5 10-12 16-20 19-27 59-49 59-49 8-6 15-14 18-22 7-14 6-33-5-54-5-10-8-18-11-24l-1-1-1-1c-7-12-16-20-26-29-2-2-5-4-9-7h-2a5 5 0 0 0-3-3h-1 26-1c2 1 8 3 10 4 3 3 5 7 7 10 4 6 4 10 6 15 2 4 3 12 2 19-1 4-5 14-19 27-8 7-12 12-19 18-13 12-19 20-17 24a5 5 0 0 1 2 7 43 39 0 0 0-10 28 7 7 0 0 0 3 6 30 39 0 0 1 12 28 13 11 0 0 0-2 13 48 39 0 0 0 48 39 9 8 0 0 1-4 6l4-4c40 31 106 47 170 47 108 0 195-68 223-167 4 37 5 74 2 108-2 24-6 47-14 69-8 30-15 58-26 79-2 5-4 8-8 9s-11 1-18 0c-4 0-8-4-9-9-13-27-25-64-29-102-3-17-3-33-2-48 3-65 18-130 56-180z m1650 0v11" stroke-width="1"/>
</svg>