<svg xmlns="http://www.w3.org/2000/svg" width="676" height="380">
	<g fill="none" fill-rule="evenodd" stroke="#000" stroke-width="1pt">
		<path fill="#050034" d="M0 0h676.5v191H0z"/>
		<path fill="#00247d" d="M0 191.5h676.5v191H0z"/>
		<path fill="#fff" d="m.073 191.945 37.15 102c.824 2.14-.202 4.468-2.342 5.293-2.142.82-4.477-.204-5.301-2.345L0 196m20.715 97.346 84.623.27.015-.05 62.608.356M142.786 191.91h72.915"/>
		<g fill="#fff" stroke-width=".997">
			<path stroke="none" d="M458.242 199.484c-1.11 1.86-3.44 1.86-4.547 0l-11.32-18.605c-1.11-1.857-1.11-4.774 0-6.631l11.32-18.62c1.108-1.856 3.438-1.856 4.548 0l11.32 18.622c1.108 1.858 1.108 4.775 0 6.633l-11.32 18.606z"/>
			<path stroke="#fff" stroke-miterlimit="10" d="m499.35 22.326 11.698 19.445 11.698-29.035"/>
		</g>
		<path d="M0 191h.14m17.337 61.56H191.82M0 191.5h1.395m402.18 95.387c-5.543-2.118-16.232-3.857-19.502-4.17-16.435-.82-24.79 2.374-28.677 4.74-.824.537-.27 1.143-.82 1.62m40.896-4.233c4.954-.82 7.618-1.02 10.14-.105 2.518.913 8.502 2.534 11.207 3.033 3.102.705 4.214.535 8.48-.479 3.294-.85 6.785-1.93 10.87-3.425m-7.687 50.67c-7.966-1.615-11.585-2.46-15.103-2.515-13.806-.21-19.48 2.518-22.922 4.605-4.313 2.755-4.154 5.23-5.857 5.63m49.787-5.727c5.24 0 6.146.28 12.517-.31m136.872-59.328 3.54 64.71"/>
	</g>
	<path fill="#c00000" d="M14.457 262.903c0 18.823-15.416 34.244-34.243 34.244-18.825 0-34.243-15.42-34.243-34.242C-.756 244.083 15.43 228.66 34.253 228.66c18.827 0 34.244 15.422 34.244 34.244"/>
	<g fill="#fff" font-size="5.5pt" font-weight="bold">
		<text x="10.782" y="140.054" transform="translate(7.216 113.923) scale(2.13337)">Ἡ</text>
		<text x="10.782" y="140.054" transform="translate(62.046 97.644) scale(2.13337)">Λαμπρά</text>
		<text x="10.782" y="140.054" transform="translate(115.431 104.448) scale(2.13337)">Δημοκρατία</text>
		<text x="10.782" y="140.054" transform="translate(37.304 205.129) scale(2.13337)">τοῦ</text>
		<text x="10.782" y="140.054" transform="translate(98.2 186.524) scale(2.13337)">Κύπρου</text>
	</g>
</svg>
