<svg xmlns="http://www.w3.org/2000/svg" viewBox="0 0 900000 600000">
	<defs>
		<symbol id="a" viewBox="0 0 205188 385162">
			<g clip-path="url(#shield-clip)" transform="translate(-266628, -69856)">
				<g transform="translate(-579764, -79173)">
					<path fill="#fff" stroke="#000" stroke-width="10000" d="M948986 149937c-61541 42130-101844 112277-101844 191688 0 79408 40307 149525 101844 191656 61550-42130 101844-112240 101844-191656 0-79420-40290-149559-101844-191688z"/>
					<rect y="200000"/>
				</g>
			</g>
		</symbol>
		<mask id="b">
			<use height="200000" y="200000" href="#a"/>
		</mask>
	</defs>
	<path fill="#add8e6" d="M0 0h900000v200000H0z"/>
	<path fill="#fff" d="M0 200000h900000v200000H0z"/>
	<path d="M0 400000h900000v200000H0z"/>
	<use height="200000" y="200000" href="#a"/>
	<path d="M0 200000h900000v25000H0z m0 50000h900000v25000H0z m0 50000h900000v25000H0z m0 50000h900000v25000H0z" mask="url(#b)"/>
</svg>