<svg xmlns="http://www.w3.org/2000/svg" viewBox="0 0 4 2" version="1.1">
		<rect width="4" height="2" fill="#fff"></rect>
		<path d="M1,0 L0,2 L2,2 L3,0 Z M3.3,0.3 L3,0.7 L3.7,1 L3.3,1.4 Z M2.4,0.4 L2,0.8 L2.8,1.2 L2.4,1.6 Z M1.5,0.5 L1,0.9 L1.9,1.3 L1.5,1.7 Z" fill="#f00"></path>
		<path d="M3,0.3 L3,1.7 L3.3,1.4 L3.3,0.7 Z M2,0.8 L2,1.6 L2.4,1.3 L2.4,0.9 Z M1,0.9 L1,1.5 L1.5,1.2 L1.5,0.5 Z" fill="#000"></path>
		<g transform="translate(0,2)" stroke="#000" stroke-width="0.1" fill-rule="evenodd">
			<rect width="4" height="0.08" fill="#1b4300"></rect>
			<rect width="1.2" x="1.4" height="0.13" fill="#1b4300"></rect>
			<rect width="1.2" x="1.4" y="-0.06" height="0.15" fill="#000"></rect>
			<rect width="1.2" x="1.4" y="-0.06" height="0.0005"></rect>
			<circle cx="2" cy="-0.13" fill="#1b4300" r="0.1"></circle>
			<circle cx="2" cy="-0.13" fill="#000" r="0.06"></circle>
		</g></svg>