<svg xmlns="http://www.w3.org/2000/svg" viewBox="0 0 888 666">
	<path d="M436.21 114.889c0 61.21-49.77 149.18-111.29 149.18-61.53 0-111.31-87.969-111.31-149.18a111.31 111.31 0 1 1 222.6 0z" class="sun-outer" opacity=".52" style="fill:#ffd600" transform="translate(444 333)"/>
	<path d="M279.47 140.904c-10.578 0-20.99-5.997-26.621-15.867-5.632 9.87-15.963 15.867-26.69 15.867-10.29 0-19.955-5.996-25.58-14.786-5.627 8.791-15.06 14.787-25.35 14.787-9.48 0-18.522-5.587-23.905-14.16-5.384 8.572-14.455 14.161-24.024 14.161-4.77 0-9.34-1.098-13.676-3.286a.985.985 0 0 1-.382-.266 27.386 27.386 0 0 1-1.855-2.009c3.908-2.87 8.712-4.73 13.308-5.536 4.04-.677 7.915-.595 11.635.23 6.73 1.397 12.706 5.205 16.885 11.21 5.6 7.49 8.352 16.908 7.408 27.132-.07.95.47 1.876 1.343 2.214.871.339 1.822-.108 2.255-.99 4.88-10.027 3.868-21.71-3.026-31.14-6.857-9.45-18.04-14.74-31.17-15.3-3.515-.264-7.2-.195-10.977.193a58.981 58.981 0 0 0-12.33 2.544c1.702-4.797 5.25-8.797 10.396-11.41-4.57-7.447-4.25-16.138.78-23.338 4.94-7.164 13.227-11.9 28.713-16 .97-.235 2.02.162 2.477.954.457.791.238 1.863-.664 2.275-14.78 7.045-21.465 15.09-17.357 24.727 4.59 11.18 17.972 17.89 32.327 15.283 14.36-2.602 25.69-13.202 28.733-26.406.55-2.747 1.055-5.53 1.473-8.362 94.529 59.96 90.087 57.279 85.874 57.279z" style="fill:#e21836" transform="translate(444 333)"/>
</svg>
