<svg xmlns="http://www.w3.org/2000/svg" xmlns:xlink="http://www.w3.org/1999/xlink" viewBox="0 0 768000 576000">
	<path d="M0 0h768000v576000H0z" stroke-width="1000"/>
	<path fill="#ce1126" d="M0 0h768000v576000z" stroke-width="1000"/>
	<path fill="#fcd116" d="M475485 167354c-5673 7326-19095-7370-35175-7706-16080-335-27471 15410-32160 20770-4690 5361-19765 33500-19430 36515 335 3015 9380-8374 12730-10384 335 4020-3685 8710-2680 10050 1005 1337 11724-8042 15410-8377 1005 2680-2010 5360-1005 9380 1340 1340 7370-6700 11390-8375 670 3015-3685 8710-1340 12395 1675 334 11724-11390 15075-12730 3350-1340-1676 11054 0 12060 3015-2010 12395-12730 15410-14070 3015-1340-334 13735 1005 13735 3685-2680 13065-15410 14070-17420 1005-2010-1005 19430 9380 30820 10385 11390 26131 24455 27805 24455 2010-3685-669-11390 1005-11055 4690 5025 13400 12395 15410 12395s-1340-8040 1340-8040c5360 5025 20770 24790 50920 33835-2010-5695-6366-10720-6700-13400 2010 335 9046 3686 10385 3350 1340-336-14740-20100-13735-22780 3685-336 5360 2010 6700 333-1675-2680-15745-18424-15745-22110 0-3684 4356 671 5695 1 1340-670-5360-14740-4020-16414 1340-1675 16080 9045 19765 9045 3685 0 1005-13065 2680-13736 1675-670 14071 7035 16750 7035 2680 1 2345-5694 3350-5024 1005 670 30150 29816 20100 63986-10050 24455-30149 37520-59630 26800 1675 2680 17420 15745 34505 11055 17085-4690 37854-18090 35510-51590-2345-33500-13400-38190-15075-43215-1675-5025 2681 1340 6365 2680 3685 1341-670-7035-1675-10720-1005-3686 11055 7705 14070 8710 3015 1005-7035-27470-10050-29480-3015-2010 3015 670 5025 1340 2010 670-18426-31155-22780-31155-4355 0 3684-1676 6030-1676 2345 0-23449-20770-27805-20770-4355 1 9380-5359 10720-5694 2345 334-29815-17085-58625 334-1675-1338 13570-11890 14070-16413 168-1173-5024-3686-5360-5025-335-1340 8040-5360 8375-8375-2010-2680-5695-1675-7705-2345-502-2512 7036-8710 6365-11390-502-1507-6030-2010-7370-1004-1340 1005 3518-7035 2680-9380-670-1005-3350-335-6030 335-1675-335 8710-14740 6700-16750-2010-2010-30150 14740-40535 33500-10385 18760-2344 33834-3685 40200-1340 6364-3016 12730-7370 12730-4355 0-14404-6700-17755-10050-3350-3350-4020-5696-8710-7036-4690-1340-15410 2680-19430 3014-4020 335-19765-3015-20770-2010-1005 1005 15410 7035 19095 9045 3685 2010 4021 4690 6700 6365 2680 1674 27805 9045 19765 19430z m98155 47235c8040 8040 62310 44220 62310 88440s-39530 42880-50920 41540c12730 10720 60970 8710 60970-41540 0-44220-62310-88440-70350-92460-8040-4022-10050-4022-2010 4018z" stroke-width="1000"/>
	<g fill="#fff" transform="scale(0.768)" stroke-width="1000">
		<path id="a" d="M250000 230000l11756 33820 35797 730-28532 21630 10368 34270L250000 300000l-29390 20450 10369-34270-28532-21630 35797-730z" stroke-width="1000"/>
		<use xlink:href="#a" x="-110000" y="150000" stroke-width="1000"/>
		<use xlink:href="#a" y="350000" stroke-width="1000"/>
		<use xlink:href="#a" x="100000" y="140000" stroke-width="1000"/>
		<use xlink:href="#a" transform="matrix(0.5, 0, 0, 0.5, 175000, 380000)" stroke-width="1000"/>
	</g>
</svg>