<svg xmlns="http://www.w3.org/2000/svg" viewBox="0 0 300 250">
	<rect width="300" height="150" fill="red"/>
	<rect width="300" height="100" y="150"/>
	<g stroke="#ff0">
		<path fill="#946300" stroke-width="4.091" d="m-1061.017 49.73 544.597 5.105a12.361 12.361 0 0 1 12.389 12.389 12.361 12.361 0 0 1-12.395 12.388l-543.091 6.296c-6.863 0-14.455-14.53-14.455-21.394 0-6.863 6.084-14.784 12.948-14.784z" transform="matrix(.1289 -.1195 .10783 .1388 242.635 51.686)"/>
		<path fill="#cfcfcf" stroke-width="4.091" d="M-525.723 92.085c4.007-3.455 8.217-6.753 9.303-12.473l-26.09.303c-11.23-10.835-9.475-18.62-3.253-25.357l29.343.277c-13.045-17.916-42.114-28.42-55.92-.524-3.248 8.789-2.783 17.438 1.87 25.928l8.545 10.784c-9.152 52.287-41.784 89.058-70.37 128.503l107.249 11.808-.677-139.25z" transform="matrix(.1289 -.1195 .10783 .1388 242.635 51.686)"/>
		<path fill="none" stroke-width=".718" d="M187.407 155.79c-1.027-8.286-1.49-16.98-5.963-24.777"/>
		<path fill="#946300" d="M185.611 190.155c-1.18-.488-1.919-1.242-2.8-2.831l-.69-1.258-6.35-4.451c-3.491-2.437-6.495-4.53-6.652-4.64-.283-.188-.14-.408 1.872-2.987 1.195-1.542 2.233-2.768 2.296-2.753.078.032 3.648 2.768 7.958 6.102 5.175 4.027 7.99 6.29 8.336 6.763.928 1.258 1.211 2.8.755 4.105-.74 2.092-2.548 2.846-4.718 1.95Zm-1.21-7.25c.6-.41.366-1.321-.341-1.321-.362 0-.88.424-.88.739 0 .22.55.833.754.833.064 0 .284-.11.473-.251Zm-2.983-2.202c.377-.267.456-.833.157-1.132-.426-.425-1.385-.047-1.385.534-.001.236.549.85.754.85.063 0 .283-.11.472-.252Zm-2.894-2.611c.14-.188.25-.41.25-.471 0-.205-.612-.755-.848-.755-.582 0-.96.959-.534 1.384.298.298.865.22 1.132-.158Z"/>
		<path fill="#cfcfcf" d="M142.755 160.069c-13.714-8.791-25.494-16.387-26.186-16.875-5.08-3.57-8.005-7.14-8.823-10.804-.377-1.715-.236-4.655.315-6.558.509-1.683 3.12-8.257 3.277-8.257.08 0 .126.126.126.283 0 .157.173.786.377 1.384 1.164 3.413 3.665 6.73 7.958 10.506 2.564 2.264 5.725 4.765 15.02 11.905 4.324 3.318 14.53 11.166 22.694 17.425 8.146 6.26 14.814 11.434 14.814 11.48 0 .048-.22.33-.487.615l-.456.519-.913-.692c-13.274-10.144-49.006-37.258-49.163-37.321-.252-.094-.66.378-.472.55.08.079 11.292 8.65 24.912 19.046 13.62 10.41 24.833 18.967 24.91 19.046.127.11-2.657 3.758-2.861 3.758-.063-.015-11.323-7.203-25.037-16.01Z"/>
	</g>
	<g fill="#ff0">
		<path d="M143.425 92.065c.02-.07.55-1.682 1.16-3.583.622-1.902 1.162-3.583 1.212-3.733.09-.28.06-.31-3.162-2.702l-3.253-2.422 4.073-.05 4.063-.05 1.191-3.703c.66-2.032 1.211-3.743 1.23-3.803.011-.05.602 1.611 1.292 3.703l1.261 3.803 4.063.05 4.063.05-3.252 2.422c-1.931 1.44-3.243 2.482-3.213 2.552.28.76 2.432 7.536 2.413 7.566-.02.02-1.502-1.001-3.273-2.272-1.781-1.271-3.303-2.282-3.383-2.262-.07.03-1.541 1.061-3.263 2.302-1.731 1.241-3.172 2.252-3.202 2.252-.04 0-.05-.06-.02-.12Z"/>
		<path d="M180.626 82.1c0-1.114-.062-2.214-.18-3.298L185 76.98a34.637 34.637 0 0 0-1.212-5.29l-4.905.314a30.01 30.01 0 0 0-2.898-5.945l3.304-3.596a35.316 35.316 0 0 0-3.43-4.238l-4.278 2.385a30.718 30.718 0 0 0-5.21-4.115l1.398-4.66a35.396 35.396 0 0 0-4.936-2.356l-2.81 3.987a30.726 30.726 0 0 0-6.504-1.463l-.783-4.798a36.148 36.148 0 0 0-5.483 0l-.782 4.798a30.714 30.714 0 0 0-6.505 1.463l-2.81-3.987a35.362 35.362 0 0 0-4.936 2.356l1.398 4.66a30.718 30.718 0 0 0-5.21 4.115l-4.28-2.385a35.249 35.249 0 0 0-3.422 4.238l3.304 3.596a30.045 30.045 0 0 0-2.898 5.945l-4.906-.314a34.563 34.563 0 0 0-1.21 5.29l4.553 1.822a30.197 30.197 0 0 0 0 6.597L115 87.222a34.638 34.638 0 0 0 1.212 5.288l4.906-.313a30.045 30.045 0 0 0 2.898 5.944l-3.304 3.598a35.343 35.343 0 0 0 3.423 4.237l4.279-2.385a30.715 30.715 0 0 0 5.21 4.115l-1.398 4.66a35.362 35.362 0 0 0 4.937 2.357l2.81-3.988a30.714 30.714 0 0 0 6.504 1.463l.782 4.798a36.186 36.186 0 0 0 5.48 0l.781-4.798c2.25-.255 4.43-.751 6.504-1.463l2.81 3.988a35.393 35.393 0 0 0 4.936-2.356l-1.398-4.66a30.633 30.633 0 0 0 5.21-4.116l4.278 2.385a35.36 35.36 0 0 0 3.424-4.237l-3.306-3.598a29.978 29.978 0 0 0 2.9-5.944l4.903.313c.537-1.71.943-3.477 1.212-5.288l-4.554-1.823c.118-1.083.18-2.184.18-3.299Zm-30.625 26.38c-14.725 0-26.663-11.811-26.663-26.38 0-14.567 11.94-26.38 26.663-26.38 14.726 0 26.664 11.813 26.664 26.38s-11.938 26.38-26.664 26.38Z"/>
	</g>
</svg>
