<svg xmlns="http://www.w3.org/2000/svg" version="1000" viewBox="0 0 600000 400000">
	<path fill="#002654" d="M0 0h600000v400000H0z" stroke-width="1000"/>
	<path fill="#fff" d="M80000 0h160000v160000H80000z" stroke-width="1000"/>
	<path fill="#ce1126" fill-rule="evenodd" d="M160000 0h80000v160000h-80000z" stroke-width="1000"/>
	<path fill="none" stroke="#fff" stroke-width="4206" d="M-10000-10000h249917v169874H-10000z"/>
	<g fill="#fff" fill-rule="evenodd" stroke-width="1000">
		<path d="M354997 182976l12875 20500h36625v71500l-27500-43000-37000 59000h23000l3438-6500h23031l26531 42500 26532-42500h23030l3438 6500h23000l-37000-59000-27500 43000v-39500h16500l12250-19500h-28750v-12500h36625l12875-20500z m22178 73700l8974 13952-15973 89z m77290 1419l7177 12533-14555-89z m6144 48688l4734 14844 15580-84-12654 9090 4895 14790-12555-9225-12556 9226 4895-14792-12654-9090 15580 85z m-45114 34450l4734 14843 15580-84-12654 9090 4895 14790-12555-9225-12555 9226 4894-14791-12654-9090 15580 84z m-43876-34390l-4734 14845-15580-85 12653 9090-4894 14792 12555-9226 12555 9226-4895-14792 12655-9090-15580 85z" stroke-width="1000"/>
		<path d="M498517 205688l4735 14844 15580-85-12654 9090 4895 14792-12556-9226-12555 9226 4895-14792-12654-9090 15580 85z m-164318-294l4734 14844 15580-84-12654 9090 4895 14790-12555-9225-12555 9226 4894-14792-12654-9090 15580 85z" stroke-width="1000"/>
	</g>
</svg>