<svg xmlns="http://www.w3.org/2000/svg" viewBox="0 0 500000 300000">
	<rect width="500000" height="300000" fill="white"/>
	<rect width="500000" height="300000" fill="red"/>
	<path d="M237010 232500l8746-12850-15242 1600 8747-12850-15242 1600 8747-12850-15242 1600 8747-12850-15242 1600 8746-12850-15242 1600 8747-12850-15242 1600 9007-12400-15502 1150 8747-12850-15242 1600 8747-12850-15242 1600 8746-12850-15242 1600 8747-12850-15242 1600 8747-12850-15247 1600 8747-12850-15240 1600 6497-26250 6755 14000 6236-14000 6755 14000 6235-14000 6755 14000 6235-14000 6755 14000 6236-14000 6755 14000 6235-14000 6755 14000 6236-14000 6755 14000 6236-14000 6755 14000 6235-14000 6755 14000 6236-14000 6755 14000 6235-14000 6236 14000 6755-14000 6755 14000 6235-14000 6755 14000 6235-14000 6755 14000 6236-14000 6495 26250-15502-1150 9007 12400-15242-1600 8747 12850-15502-1150 9007 12400-15502-1150 9006 12400-15501-1150 9006 12400-15502-1150 9007 12400-15242-1600 8747 12850-15502-1150 9007 12400-15502-1150 9006 12400-15502-1150 9007 12400-15502-1150 9007 12400-15242-1600 8747 12850-15502-1150 9006 12400"/>
</svg>