<svg xmlns="http://www.w3.org/2000/svg" viewBox="0 0 200 300">
	<rect width="200" height="300" style="fill:#039f" /><g id="Text">
	<text x="50%" y="50%" style="dominant-baseline:middle; font: 48px serif; text-anchor:middle">Uzbekistan</text></g>
	<g><path d="M 95 0 L 125 0 L 90 175 L 85 220 L 102 220 L 105 180 L 70 150 L 85 150 L 95 75 L 87 50 L 105 50 L 107.5 95 Q 75 125 45 140 L 45 95 L 35 95 L 25 140 L 95 140 L 95 165 L 80 165 L 75 180 L 125 180 L 115 140 L 125 140 Q 155 90 180 95 L 170 75 L 180 0 Z" style="fill:#fff; fill-rule:evenodd"/><path d="M 95 200 L 65 250 L 35 250 L 15 260 Q 25 225 35 250 L 65 250 L 85 225 L 90 175 L 55.5 250.5 Q 75 220 95 200 Z" style="fill:#fff; fill-rule:evenodd"/></g></svg>