<svg xmlns="http://www.w3.org/2000/svg" viewBox="0 0 500 1000">
	<defs>
		<linearGradient id="a" x1="50%" x2="50%" y1="0%" y2="100%">
			<stop offset="0%"/>
			<stop offset="100%"/>
		</linearGradient>
		<linearGradient id="b" x1="50%" x2="50%" y1="0%" y2="100%">
			<stop offset="0%"/>
			<stop offset="100%"/>
		</linearGradient>
		<linearGradient id="d" x1="50%" x2="50%" y1="0%" y2="100%">
			<stop offset="0%"/>
			<stop offset="100%"/>
		</linearGradient>
		<mask id="c">
			<path fill="#fff" d="M50 0h400v400H50z" stroke-width="5"/>
		</mask>
	</defs>
	<path fill="url(#a)" d="M0 0h1000v500H0z" stroke-width="5"/>
	<g fill-rule="evenodd" stroke-width="5">
		<path fill="url(#b)" fill-opacity="3" d="M400 150L375 25l-25 350 75 225 75-225-25-325z" mask="url(#c)" stroke-width="5"/>
		<path fill="url(#d)" d="M500 300v200H425V375H350v125H275V300L200 150v350H125V300L0 0z" stroke-width="5"/>
		<path fill="url(#b)" d="M200 150L125 300v200z" mask="url(#c)" stroke-width="5"/>
	</g>
	<path fill="url(#b)" d="M0 50h100v900H0z m400 0h100v900H400z" stroke-width="5"/>
	<path fill="url(#b)" d="M0 50h100v100H0z m0 400h100v100H0z m400-400h100v100H400z m0 400h100v100H400z" stroke-width="5"/>
</svg>