<svg xmlns="http://www.w3.org/2000/svg" xmlns:xlink="http://www.w3.org/1999/xlink" viewBox="0 0 630000 360000">
	<rect width="630000" height="360000" fill="#da0000" stroke-width="1000"/>
	<rect width="630000" height="240000" fill="#fff" stroke-width="1000"/>
	<rect width="630000" height="120000" fill="#239f40" stroke-width="1000"/>
	<g transform="translate(8400, 100400)" stroke-width="1000">
		<g id="e" stroke-width="1000">
			<g id="c" fill="none" stroke="#fff" stroke-width="2000">
				<path id="b" d="M0 1000h26000M1000 10000V5000h8000v4000h8000V5000h-5000M4000 9000h2000m20000 0h-5000V5000h8000m0-5000v9000h8000V0m-4000 0v9000" transform="scale(1.4)" stroke-width="1000"/>
				<path id="a" d="M0 7000h9000m1000 0h9000" transform="scale(2.8)" stroke-width="1000"/>
				<use xlink:href="#a" y="120000" stroke-width="1000"/>
				<use xlink:href="#b" y="145200" stroke-width="1000"/>
			</g>
			<g id="d" stroke-width="1000">
				<use xlink:href="#c" x="56000" stroke-width="1000"/>
				<use xlink:href="#c" x="112000" stroke-width="1000"/>
				<use xlink:href="#c" x="168000" stroke-width="1000"/>
			</g>
		</g>
		<use xlink:href="#d" x="168000" stroke-width="1000"/>
		<use xlink:href="#e" x="392000" stroke-width="1000"/>
	</g>
	<g fill="#da0000" transform="matrix(45, 0, 0, 45, 315000, 180000)" stroke-width="1000">
		<g id="f" stroke-width="1000">
			<path d="M-548 836A912 912 0 0 0 329-722 1000 1000 0 0 1-548 836" stroke-width="1000"/>
			<path d="M618 661A764 764 0 0 0 422-740 1000 1000 0 0 1 618 660M0 1000l-50-1000L0-787a310 310 0 0 0 118 99V-100l-40 993zM-20-850L0-830a144 144 0 0 0 252-138A136 136 0 0 1 0-925" stroke-width="1000"/>
		</g>
		<use xlink:href="#f" transform="scale(-1, 1)" stroke-width="1000"/>
	</g>
</svg>