<svg xmlns="http://www.w3.org/2000/svg" xmlns:xlink="http://www.w3.org/1999/xlink" viewBox="0 0 1800000 900000">
	<defs>
		<g id="b" stroke-width="1000">
			<g id="a" stroke-width="1000">
				<path d="M1000-325H0v500z" stroke-width="1000"/>
				<path d="M1000-325L190 263l-293-405z" stroke-width="1000"/>
			</g>
			<use xlink:href="#a" transform="rotate(72)" stroke-width="1000"/>
			<use xlink:href="#a" transform="rotate(144)" stroke-width="1000"/>
			<use xlink:href="#a" transform="rotate(216)" stroke-width="1000"/>
			<use xlink:href="#a" transform="rotate(288)" stroke-width="1000"/>
		</g>
	</defs>
	<rect width="1800000" height="900000" fill="#012169" stroke-width="1000"/>
	<path fill="#ffd100" d="M329376 777265c-17934-150 168624-99430 324770-226600C858788 384000 1299540 117157 1429115 73796c13543-4532-27776 23073-33140 32016-138341 163740-27925 472724 144973 628048 51990 39763 49327 41850 145707 45746v9000l-1357280-11340z m-11250 18060S304962 804727 305000 811730c43 7772 14766 18047 14766 18047l1338745 14765 24610-16406-34450-21328-1330540-11484z" stroke-width="1000"/>
	<g fill="#fff" stroke-width="1000">
		<use xlink:href="#b" transform="matrix(45, 0, 0, 45, 342957, 112581)" stroke-width="1000"/>
		<use xlink:href="#b" transform="matrix(37.5, 0, 0, 37.5, 521205, 267530)" stroke-width="1000"/>
		<use xlink:href="#b" transform="matrix(45, 0, 0, 45, 135000, 321808)" stroke-width="1000"/>
		<use xlink:href="#b" transform="matrix(52.5, 0, 0, 52.5, 342957, 652581)" stroke-width="1000"/>
	</g>
</svg>