<svg xmlns="http://www.w3.org/2000/svg" viewBox="0 0 180 90" shape-rendering="crispEdges" stroke-linejoin="round" width="160" height="160">
		<rect x="0" y="0" height="90" width="180" fill="#cce5ff"/>
		<rect x="0" y="34" height="22" width="180"/>
		<ellipse cx="41.5" cy="47" rx="36.5" ry="18" fill="#d25234"/>
		<rect x="46.5" y="43" height="4" width="2" fill="#fff"/>
		<polygon points="60.5 31 92.5 30.5 60.5 40.5 44 29.5"/>
		<polygon points="124 45 156 45 156 36 124 36 124 28.5 140 14 140 31"/>
		<polygon points="165 46 165 34 152.4 21.4 139.8 34 139.8 46 152.4 58.6"/>
		<polygon points="165.7 84 163.6 70.5 161.5 57.1 159.9 44.9 157.9 32.5"/>
		<polygon points="160.5 15.5 154 2.5 144 2.5 144 11.5 140.5 19.5 128 32 128 46 140.5 58.5 144 66.5 144 75.5 151.5 88.5"/>
		<polygon points="168 88.5 180 88.5 162 77.5 130 77.5 109 88.5 109 88.5 109 88.5 109 88.5 109 88.5 109 88.5 109 88.5 109 88.5 109 88.5 109 88.5 109 88.5 109 88.5 109 88.5 109 88.5 109 88.5 109 88.5 109 88.5 109 88.5 109 88.5 109 88.5 109 88.5 109 88.5 109 88.5 109 88.5 109 88.5 109 88.5 109 88.5 109 88.5 109 88.5 109 88.5 109 88.5 109 88.5 109 88.5 109 88.5 109 88.5 109 88.5 109 88.5 109 88.5 109 88.5 109 88.5 109 88.5 109 88.5 109 88.5 109 88.5 109 88.5 109 88.5 109 88.5 109 88.5 109 88.5 109 88.5 109 88.5 109 88.5 109 88.5 109 88.5 109 88.5 109 88.5 109 88.5 109 88.5 109 88.5 109 88.5 109 88.5 109 88.5 109 88.5"/>
		<text x="30.5" y="35" font-family="Times" font-size="10.33" fill="#fff">Falkland Islands</text></svg>